<?xml version="1.0" encoding="UTF-8"?>
<svg xmlns="http://www.w3.org/2000/svg" xmlns:xlink="http://www.w3.org/1999/xlink" width="150px" height="150px" viewBox="0 0 150 150" version="1.1">
<defs>
<filter id="alpha" filterUnits="objectBoundingBox" x="0%" y="0%" width="100%" height="100%">
  <feColorMatrix type="matrix" in="SourceGraphic" values="0 0 0 0 1 0 0 0 0 1 0 0 0 0 1 0 0 0 1 0"/>
</filter>
<mask id="mask0">
  <g filter="url(#alpha)">
<rect x="0" y="0" width="150" height="150" style="fill:rgb(0%,0%,0%);fill-opacity:0.101961;stroke:none;"/>
  </g>
</mask>
<clipPath id="clip1">
  <rect x="0" y="0" width="150" height="150"/>
</clipPath>
<g id="surface5" clip-path="url(#clip1)">
<path style=" stroke:none;fill-rule:nonzero;fill:rgb(100%,100%,100%);fill-opacity:1;" d="M 38.464844 101.605469 C 38.464844 101.605469 37.8125 98.332031 41.347656 97.976562 C 41.347656 97.976562 39.179688 98.773438 38.914062 100.765625 C 38.648438 102.753906 38.464844 101.605469 38.464844 101.605469 Z M 44.542969 96.492188 C 44.542969 96.492188 45.558594 94.789062 46.984375 96.179688 C 46.984375 96.179688 43.84375 93.585938 44.542969 96.492188 Z M 43.328125 105.632812 C 43.328125 105.632812 43.859375 107.539062 45.601562 106.574219 C 45.601562 106.574219 41.890625 108.253906 43.328125 105.632812 Z M 52.171875 95.820312 C 52.171875 95.820312 52.679688 93.972656 53.679688 94.332031 C 54.683594 94.691406 55.429688 96.6875 55.429688 96.6875 C 55.429688 96.6875 54.449219 95.035156 53.605469 95.183594 C 52.757812 95.335938 53.472656 96.441406 52.171875 95.820312 Z M 48.574219 108.183594 C 48.574219 108.183594 47.765625 109.914062 48.757812 110.292969 C 49.753906 110.671875 51.617188 109.636719 51.617188 109.636719 C 51.617188 109.636719 49.800781 110.257812 49.253906 109.597656 C 48.710938 108.933594 49.972656 108.554688 48.574219 108.183594 Z M 58.335938 111.625 C 58.335938 111.625 58.101562 113.523438 59.164062 113.574219 C 60.226562 113.621094 61.679688 112.0625 61.679688 112.0625 C 61.679688 112.0625 60.144531 113.214844 59.417969 112.757812 C 58.695312 112.296875 59.777344 111.542969 58.335938 111.625 Z M 59.679688 96.03125 C 59.5625 95.910156 62.53125 93.1875 62.53125 93.1875 C 62.53125 93.1875 64.773438 92.960938 64.550781 96.042969 C 64.550781 96.042969 64.015625 93.871094 62.734375 93.925781 C 62.734375 93.925781 61.285156 97.746094 59.679688 96.03125 Z M 59.679688 96.03125 "/>
</g>
<mask id="mask1">
  <g filter="url(#alpha)">
<rect x="0" y="0" width="150" height="150" style="fill:rgb(0%,0%,0%);fill-opacity:0.14902;stroke:none;"/>
  </g>
</mask>
<clipPath id="clip2">
  <rect x="0" y="0" width="150" height="150"/>
</clipPath>
<g id="surface8" clip-path="url(#clip2)">
<path style=" stroke:none;fill-rule:nonzero;fill:rgb(10.588235%,18.431373%,21.176471%);fill-opacity:1;" d="M 132.539062 127.207031 L 115.84375 134.175781 L 110.039062 120.53125 L 118.675781 115.488281 C 125.0625 121.292969 132.539062 127.207031 132.539062 127.207031 Z M 53.355469 115.015625 L 44.492188 129.667969 L 18.292969 134.175781 C 37.445312 125.03125 38.113281 119.261719 38.113281 119.261719 C 42.25 121.003906 53.355469 115.015625 53.355469 115.015625 Z M 95.234375 129.53125 L 73.460938 134.175781 L 73.246094 121.378906 L 73.3125 121.402344 L 91.605469 116.902344 Z M 95.234375 129.53125 "/>
</g>
<mask id="mask2">
  <g filter="url(#alpha)">
<rect x="0" y="0" width="150" height="150" style="fill:rgb(0%,0%,0%);fill-opacity:0.2;stroke:none;"/>
  </g>
</mask>
<clipPath id="clip3">
  <rect x="0" y="0" width="150" height="150"/>
</clipPath>
<g id="surface11" clip-path="url(#clip3)">
<path style=" stroke:none;fill-rule:nonzero;fill:rgb(3.137255%,65.098041%,87.843138%);fill-opacity:1;" d="M 100.734375 98.894531 L 94.464844 103.996094 L 93.273438 103.195312 L 92.386719 104.464844 C 92.386719 104.464844 83.855469 108.164062 81.101562 111.621094 L 83.960938 108.910156 L 88.859375 105.246094 L 92.972656 102.753906 C 92.976562 102.753906 98.277344 99.84375 100.734375 98.894531 Z M 100.734375 98.894531 "/>
</g>
<mask id="mask3">
  <g filter="url(#alpha)">
<rect x="0" y="0" width="150" height="150" style="fill:rgb(0%,0%,0%);fill-opacity:0.101961;stroke:none;"/>
  </g>
</mask>
<clipPath id="clip4">
  <rect x="0" y="0" width="150" height="150"/>
</clipPath>
<g id="surface14" clip-path="url(#clip4)">
<path style=" stroke:none;fill-rule:nonzero;fill:rgb(100%,100%,100%);fill-opacity:1;" d="M 107.632812 96.621094 C 107.632812 96.621094 102.253906 101.324219 100.867188 104.382812 C 99.484375 107.429688 96.792969 109.066406 96.792969 109.066406 L 93.710938 108.25 L 94.515625 111.257812 C 89.109375 114.773438 82.683594 112.324219 81.144531 111.644531 C 81.339844 111.601562 81.46875 111.578125 81.46875 111.578125 C 91.316406 112.25 92.242188 109.5625 92.242188 109.5625 L 92.265625 105.695312 L 95.257812 106.058594 C 95.257812 106.058594 97.914062 103.933594 99.253906 101.539062 C 100.589844 99.152344 107.632812 96.621094 107.632812 96.621094 Z M 107.632812 96.621094 "/>
</g>
<mask id="mask4">
  <g filter="url(#alpha)">
<rect x="0" y="0" width="150" height="150" style="fill:rgb(0%,0%,0%);fill-opacity:0.2;stroke:none;"/>
  </g>
</mask>
<clipPath id="clip5">
  <rect x="0" y="0" width="150" height="150"/>
</clipPath>
<g id="surface17" clip-path="url(#clip5)">
<path style=" stroke:none;fill-rule:nonzero;fill:rgb(3.137255%,65.098041%,87.843138%);fill-opacity:1;" d="M 49.320312 92.730469 L 54.726562 97.621094 L 55.839844 96.960938 L 56.578125 98.144531 C 56.578125 98.144531 64.089844 101.882812 66.402344 105.128906 L 63.957031 102.546875 L 59.71875 99.015625 L 56.128906 96.574219 C 56.128906 96.574219 51.488281 93.699219 49.320312 92.730469 Z M 49.320312 92.730469 "/>
</g>
<mask id="mask5">
  <g filter="url(#alpha)">
<rect x="0" y="0" width="150" height="150" style="fill:rgb(0%,0%,0%);fill-opacity:0.101961;stroke:none;"/>
  </g>
</mask>
<clipPath id="clip6">
  <rect x="0" y="0" width="150" height="150"/>
</clipPath>
<g id="surface20" clip-path="url(#clip6)">
<path style=" stroke:none;fill-rule:nonzero;fill:rgb(100%,100%,100%);fill-opacity:1;" d="M 43.214844 90.355469 C 43.214844 90.355469 47.839844 94.847656 48.941406 97.667969 C 50.042969 100.480469 52.390625 102.078125 52.390625 102.078125 L 55.203125 101.492188 L 54.335938 104.160156 C 59.042969 107.585938 64.949219 105.683594 66.363281 105.148438 C 66.191406 105.097656 66.074219 105.074219 66.074219 105.074219 C 57.175781 105.207031 56.46875 102.742188 56.46875 102.742188 L 56.628906 99.257812 L 53.914062 99.445312 C 53.914062 99.445312 51.621094 97.402344 50.53125 95.183594 C 49.441406 92.96875 43.214844 90.355469 43.214844 90.355469 Z M 43.214844 90.355469 "/>
</g>
<mask id="mask6">
  <g filter="url(#alpha)">
<rect x="0" y="0" width="150" height="150" style="fill:rgb(0%,0%,0%);fill-opacity:0.34902;stroke:none;"/>
  </g>
</mask>
<clipPath id="clip7">
  <rect x="0" y="0" width="150" height="150"/>
</clipPath>
<g id="surface23" clip-path="url(#clip7)">
<path style=" stroke:none;fill-rule:nonzero;fill:rgb(16.470589%,54.509807%,68.235296%);fill-opacity:1;" d="M 109.886719 54.957031 C 109.886719 43.210938 104.128906 32.8125 95.289062 26.414062 C 98.335938 30.996094 100.617188 36.152344 101.351562 41.625 C 101.773438 44.765625 101.667969 47.964844 100.976562 51.058594 C 100.613281 52.675781 100.101562 54.25 99.445312 55.773438 C 98.886719 57.066406 98.238281 58.3125 97.328125 59.394531 C 95.566406 61.484375 93.230469 62.738281 90.691406 63.433594 C 87.671875 69.25 81.597656 73.222656 74.589844 73.222656 C 69.613281 73.222656 65.105469 71.21875 61.828125 67.96875 C 61.789062 68.421875 61.726562 68.871094 61.578125 69.308594 C 61.34375 70.011719 60.972656 70.578125 60.320312 70.9375 C 59.78125 71.238281 59.15625 71.355469 58.570312 71.515625 C 58.011719 71.667969 57.429688 71.871094 57.121094 72.402344 C 56.75 73.046875 56.515625 73.78125 56.414062 74.519531 C 55.972656 77.703125 57.296875 80.855469 57.285156 84.035156 C 57.273438 86.457031 56.160156 88.988281 54.492188 90.734375 C 53.875 91.378906 53.152344 91.886719 52.363281 92.273438 C 57.519531 101.125 64.671875 111.738281 74.585938 124.300781 L 74.679688 124.183594 C 107.375 82.769531 109.949219 62.621094 109.839844 56.796875 C 109.871094 56.1875 109.886719 55.574219 109.886719 54.957031 Z M 109.886719 54.957031 "/>
</g>
<mask id="mask7">
  <g filter="url(#alpha)">
<rect x="0" y="0" width="150" height="150" style="fill:rgb(0%,0%,0%);fill-opacity:0.14902;stroke:none;"/>
  </g>
</mask>
<clipPath id="clip8">
  <rect x="0" y="0" width="150" height="150"/>
</clipPath>
<g id="surface26" clip-path="url(#clip8)">
<path style=" stroke:none;fill-rule:nonzero;fill:rgb(7.450981%,20%,24.705882%);fill-opacity:1;" d="M 86.777344 89.75 C 87.171875 89.621094 87.566406 89.542969 87.960938 89.511719 C 87.542969 83.363281 86.824219 73.101562 86.359375 67.753906 C 84.753906 67.988281 83.222656 68.707031 82.714844 70.238281 C 82.367188 71.269531 82.300781 72.417969 82.175781 73.496094 C 82.082031 74.304688 82.011719 75.117188 81.933594 75.929688 C 81.746094 77.808594 81.539062 79.6875 81.191406 81.546875 C 81.148438 81.773438 81.101562 82.003906 81.054688 82.234375 C 82.300781 85.402344 83.652344 88.398438 84.71875 90.65625 C 85.378906 90.28125 86.085938 89.976562 86.777344 89.75 Z M 86.777344 89.75 "/>
</g>
<mask id="mask8">
  <g filter="url(#alpha)">
<rect x="0" y="0" width="150" height="150" style="fill:rgb(0%,0%,0%);fill-opacity:0.101961;stroke:none;"/>
  </g>
</mask>
<clipPath id="clip9">
  <rect x="0" y="0" width="150" height="150"/>
</clipPath>
<g id="surface29" clip-path="url(#clip9)">
<path style=" stroke:none;fill-rule:nonzero;fill:rgb(10.588235%,18.431373%,21.176471%);fill-opacity:1;" d="M 80.550781 39.167969 C 81.105469 37.863281 81.621094 36.539062 81.953125 35.171875 C 79.320312 31.011719 76.347656 26.414062 76.347656 26.414062 C 75.988281 29.378906 77.390625 35.335938 79.199219 40.058594 C 79.605469 39.714844 80.066406 39.414062 80.550781 39.167969 Z M 80.550781 39.167969 "/>
</g>
<mask id="mask9">
  <g filter="url(#alpha)">
<rect x="0" y="0" width="150" height="150" style="fill:rgb(0%,0%,0%);fill-opacity:0.101961;stroke:none;"/>
  </g>
</mask>
<clipPath id="clip10">
  <rect x="0" y="0" width="150" height="150"/>
</clipPath>
<g id="surface32" clip-path="url(#clip10)">
<path style=" stroke:none;fill-rule:nonzero;fill:rgb(10.588235%,18.431373%,21.176471%);fill-opacity:1;" d="M 71.925781 56.882812 C 69.585938 55.585938 67.855469 52.769531 68.511719 50.0625 C 68.828125 48.753906 69.582031 47.601562 69.929688 46.304688 C 70.132812 45.558594 70.152344 44.796875 69.953125 44.046875 C 69.730469 43.222656 69.332031 42.417969 69.3125 41.550781 C 69.292969 40.605469 69.578125 39.675781 69.601562 38.734375 C 69.617188 38.054688 69.421875 37.421875 69.097656 36.832031 C 68.578125 35.894531 67.707031 35.1875 66.738281 34.75 C 63.644531 42.328125 62.351562 52.480469 64.5625 55.5625 C 66.175781 57.804688 71.082031 58.503906 75.765625 58.113281 C 74.421875 57.910156 73.121094 57.546875 71.925781 56.882812 Z M 71.925781 56.882812 "/>
</g>
<mask id="mask10">
  <g filter="url(#alpha)">
<rect x="0" y="0" width="150" height="150" style="fill:rgb(0%,0%,0%);fill-opacity:0.2;stroke:none;"/>
  </g>
</mask>
<clipPath id="clip11">
  <rect x="0" y="0" width="150" height="150"/>
</clipPath>
<g id="surface35" clip-path="url(#clip11)">
<path style=" stroke:none;fill-rule:nonzero;fill:rgb(100%,100%,100%);fill-opacity:1;" d="M 56.980469 65.628906 C 56.96875 65.632812 56.957031 65.628906 56.949219 65.621094 C 56.828125 65.515625 56.710938 65.421875 56.546875 65.402344 C 56.492188 65.394531 56.429688 65.386719 56.390625 65.34375 C 56.375 65.320312 56.367188 65.296875 56.355469 65.273438 C 56.339844 65.238281 56.320312 65.21875 56.292969 65.195312 C 56.203125 65.121094 56.097656 65.066406 55.988281 65.023438 C 55.941406 65.003906 55.890625 64.988281 55.835938 64.972656 C 55.777344 65.179688 55.734375 65.441406 55.867188 65.535156 C 56.125 65.714844 56.316406 65.597656 56.316406 65.597656 C 56.316406 65.597656 56.148438 65.820312 56.367188 65.976562 C 56.574219 66.125 56.859375 66.003906 56.859375 66.003906 C 56.859375 66.003906 56.71875 66.195312 56.988281 66.375 C 57.238281 66.539062 57.457031 66.351562 57.457031 66.351562 C 57.457031 66.351562 57.378906 66.632812 57.714844 66.789062 C 57.820312 66.835938 57.90625 66.84375 57.976562 66.832031 L 57.980469 66.832031 C 58.003906 66.820312 58.027344 66.808594 58.046875 66.796875 C 58.054688 66.792969 58.0625 66.789062 58.070312 66.78125 C 58.117188 66.757812 58.15625 66.726562 58.199219 66.695312 C 58.222656 66.675781 58.246094 66.660156 58.269531 66.640625 C 58.179688 66.628906 58.089844 66.59375 58.011719 66.554688 C 57.925781 66.511719 57.835938 66.453125 57.789062 66.363281 C 57.742188 66.269531 57.753906 66.160156 57.714844 66.0625 C 57.671875 65.960938 57.5625 65.902344 57.457031 65.890625 C 57.367188 65.878906 57.28125 65.90625 57.199219 65.855469 C 57.105469 65.804688 57.046875 65.710938 56.980469 65.628906 Z M 60.261719 65.835938 C 60.261719 65.835938 60.011719 65.425781 60.046875 65.347656 C 60.078125 65.265625 60.179688 65.289062 60.179688 65.289062 C 60.179688 65.289062 60.351562 65.710938 60.261719 65.835938 Z M 60.261719 65.835938 "/>
</g>
<mask id="mask11">
  <g filter="url(#alpha)">
<rect x="0" y="0" width="150" height="150" style="fill:rgb(0%,0%,0%);fill-opacity:0.2;stroke:none;"/>
  </g>
</mask>
<clipPath id="clip12">
  <rect x="0" y="0" width="150" height="150"/>
</clipPath>
<g id="surface38" clip-path="url(#clip12)">
<path style=" stroke:none;fill-rule:nonzero;fill:rgb(100%,100%,100%);fill-opacity:1;" d="M 90.597656 24.710938 L 90.300781 24.570312 C 90.300781 24.570312 90.164062 24.839844 90.265625 24.921875 C 90.367188 25.003906 90.597656 24.710938 90.597656 24.710938 Z M 89.863281 24.378906 C 89.863281 24.378906 89.65625 24.179688 89.59375 24.222656 C 89.53125 24.265625 89.449219 24.460938 89.546875 24.539062 C 89.648438 24.617188 89.859375 24.414062 89.863281 24.378906 Z M 89.234375 24.074219 C 89.234375 24.074219 89.121094 23.882812 88.96875 23.890625 C 88.96875 23.890625 88.792969 24.117188 88.914062 24.207031 C 89.039062 24.292969 89.234375 24.074219 89.234375 24.074219 Z M 88.671875 23.617188 C 88.671875 23.617188 88.585938 23.484375 88.421875 23.464844 C 88.421875 23.464844 88.3125 23.632812 88.425781 23.710938 C 88.539062 23.789062 88.671875 23.617188 88.671875 23.617188 Z M 88.671875 23.617188 "/>
</g>
</defs>
<g id="surface1">
<path style=" stroke:none;fill-rule:nonzero;fill:rgb(77.64706%,83.529413%,85.882354%);fill-opacity:1;" d="M 63.125 92.242188 C 62.851562 92.242188 62.609375 92.4375 62.398438 92.625 C 60.859375 93.964844 59.320312 95.304688 57.78125 96.648438 C 57.492188 96.894531 57.140625 97.164062 56.785156 97.070312 C 56.558594 97.011719 56.398438 96.816406 56.273438 96.621094 C 55.847656 95.949219 55.613281 95.160156 55.160156 94.503906 C 54.710938 93.847656 53.917969 93.324219 53.121094 93.542969 C 52.382812 93.742188 51.914062 94.496094 51.652344 95.214844 C 51.390625 95.9375 51.234375 96.71875 50.757812 97.328125 C 50.546875 97.597656 50.222656 97.84375 49.898438 97.78125 C 49.703125 97.742188 49.550781 97.601562 49.410156 97.460938 C 48.539062 96.601562 47.730469 95.65625 46.703125 94.980469 C 46.171875 94.628906 45.542969 94.351562 44.890625 94.433594 C 44.238281 94.515625 43.589844 95.078125 43.609375 95.730469 C 43.632812 96.503906 44.492188 97.328125 43.925781 97.894531 C 43.496094 98.328125 42.820312 97.953125 42.292969 97.707031 C 40.902344 97.054688 39.003906 97.625 38.117188 98.957031 C 37.230469 100.289062 37.472656 102.210938 38.648438 103.183594 C 38.855469 103.355469 39.109375 103.503906 39.382812 103.480469 C 39.6875 103.457031 39.9375 103.234375 40.164062 103.023438 C 40.570312 102.636719 40.972656 102.230469 41.476562 101.988281 C 41.976562 101.742188 42.605469 101.695312 43.03125 102.015625 C 43.78125 102.582031 43.457031 103.789062 43.03125 104.671875 C 42.609375 105.558594 42.171875 106.691406 42.808594 107.382812 C 43.34375 107.964844 44.34375 107.816406 45.050781 107.382812 C 45.757812 106.949219 46.316406 106.296875 47.023438 105.867188 C 47.652344 105.488281 48.570312 105.363281 48.96875 105.9375 C 49.367188 106.519531 48.941406 107.332031 48.496094 107.921875 C 48.050781 108.511719 47.546875 109.246094 47.820312 109.898438 C 48.007812 110.347656 48.5 110.570312 48.949219 110.75 C 50.578125 111.410156 52.488281 112.054688 54.085938 111.171875 C 54.609375 110.882812 55.144531 110.425781 55.707031 110.558594 C 55.980469 110.621094 56.195312 110.820312 56.375 111.03125 C 56.863281 111.617188 57.144531 112.351562 57.5625 112.988281 C 57.984375 113.625 58.625 114.195312 59.40625 114.199219 C 60.265625 114.203125 61.007812 113.527344 61.546875 112.828125 C 62.410156 111.710938 63.039062 110.414062 64.011719 109.390625 C 64.816406 108.542969 65.984375 107.902344 67.082031 107.980469 C 67.210938 108.070312 67.363281 108.089844 67.519531 108.0625 L 67.367188 108.019531 C 67.425781 108.03125 67.484375 108.042969 67.539062 108.058594 C 67.921875 107.980469 68.3125 107.613281 68.375 107.203125 C 68.46875 106.578125 68.097656 106.011719 67.738281 105.515625 C 67.046875 104.558594 66.328125 103.621094 65.589844 102.699219 C 65.246094 102.277344 64.890625 101.832031 64.800781 101.289062 C 64.738281 100.898438 64.820312 100.496094 64.902344 100.105469 C 65.210938 98.691406 65.589844 97.265625 65.507812 95.839844 C 65.421875 94.417969 64.773438 92.960938 63.507812 92.351562 C 63.386719 92.292969 63.261719 92.246094 63.125 92.242188 Z M 63.125 92.242188 "/>
<use xlink:href="#surface5" mask="url(#mask0)"/>
<path style=" stroke:none;fill-rule:nonzero;fill:rgb(52.941179%,86.666667%,99.215686%);fill-opacity:1;" d="M 95.226562 130.917969 L 73.492188 135.554688 L 45.292969 130.902344 L 13.867188 135.589844 C 30.964844 127.429688 37.59375 118.074219 37.59375 118.074219 C 37.59375 118.074219 43.195312 119.480469 52.789062 113.785156 L 53.269531 113.5625 L 73.363281 119.992188 L 91.570312 115.515625 L 109.8125 119.105469 L 118.816406 114.085938 L 136.132812 127.175781 L 115.96875 135.589844 Z M 95.226562 130.917969 "/>
<path style=" stroke:none;fill-rule:nonzero;fill:rgb(87.843138%,88.627452%,89.019608%);fill-opacity:1;" d="M 18.289062 134.175781 L 45.289062 129.53125 L 73.460938 134.175781 L 95.234375 129.53125 L 115.84375 134.175781 L 132.539062 127.207031 C 132.539062 127.207031 125.0625 121.292969 118.675781 115.488281 L 110.039062 120.53125 L 91.601562 116.902344 L 73.3125 121.402344 L 53.355469 115.015625 C 53.355469 115.015625 42.25 121.003906 38.113281 119.261719 C 38.113281 119.261719 37.445312 125.03125 18.289062 134.175781 Z M 18.289062 134.175781 "/>
<path style=" stroke:none;fill-rule:nonzero;fill:rgb(96.470588%,96.470588%,96.470588%);fill-opacity:1;" d="M 44.28125 120.714844 C 43.753906 120.007812 40 120.058594 39.78125 121.800781 C 39.5625 123.542969 35.644531 123.835938 36.589844 125.066406 C 37.53125 126.300781 40.582031 123.90625 42.105469 125.066406 C 43.628906 126.230469 45.703125 123.976562 47.933594 123.980469 C 50.160156 123.980469 53.117188 128.335938 54.25 127.027344 C 55.386719 125.722656 60.539062 128.84375 58.507812 125.140625 C 56.476562 121.4375 56.546875 121.074219 56.621094 119.042969 C 56.691406 117.011719 54.007812 117.8125 52.265625 118.753906 C 50.523438 119.695312 45.457031 122.285156 44.28125 120.714844 Z M 44.28125 120.714844 "/>
<path style=" stroke:none;fill-rule:nonzero;fill:rgb(52.941179%,86.666667%,99.215686%);fill-opacity:1;" d="M 60.320312 128.117188 C 61.339844 127.390625 62.0625 125.847656 63.078125 127.273438 C 64.097656 128.699219 64.820312 128.117188 64.820312 128.988281 C 64.820312 129.859375 62.28125 129.207031 61.339844 128.988281 C 60.394531 128.769531 60.320312 128.117188 60.320312 128.117188 Z M 60.320312 128.117188 "/>
<path style=" stroke:none;fill-rule:nonzero;fill:rgb(96.470588%,96.470588%,96.470588%);fill-opacity:1;" d="M 65.765625 123.398438 C 67.941406 125.285156 67.640625 124.847656 70.484375 125.539062 C 73.328125 126.230469 71.53125 125.394531 74.890625 124.46875 C 78.25 123.542969 83.402344 120.640625 77.960938 121.511719 C 72.515625 122.382812 70.992188 122.0625 69.976562 121.351562 C 68.960938 120.640625 68.089844 121.261719 66.203125 121.351562 C 64.3125 121.4375 65.765625 123.398438 65.765625 123.398438 Z M 89.136719 128.058594 C 91.167969 126.738281 94.433594 125.210938 96.101562 125.539062 C 97.773438 125.867188 96.972656 125.574219 102.34375 125.792969 C 107.714844 126.011719 109.386719 126.121094 112.363281 124.832031 C 115.335938 123.542969 115.484375 123.253906 116.714844 121.511719 C 117.949219 119.769531 121.589844 118.753906 117.953125 119.261719 C 114.320312 119.769531 114.972656 119.863281 111.492188 121.015625 C 108.007812 122.164062 109.457031 123.464844 105.683594 122.523438 C 101.910156 121.585938 100.75 122.601562 98.136719 121.367188 C 95.523438 120.132812 92.914062 119.613281 92.332031 119.4375 C 91.75 119.261719 88.121094 120.640625 86.523438 121.4375 C 84.925781 122.238281 82.203125 125.429688 80.335938 125.539062 C 78.464844 125.648438 77.886719 125.484375 77.59375 127.273438 C 77.304688 129.058594 75.960938 132.179688 80.335938 129.859375 C 84.707031 127.535156 85.144531 124.050781 86.8125 125.792969 C 88.484375 127.535156 89.136719 128.058594 89.136719 128.058594 Z M 89.136719 128.058594 "/>
<use xlink:href="#surface8" mask="url(#mask1)"/>
<path style=" stroke:none;fill-rule:nonzero;fill:rgb(77.64706%,83.529413%,85.882354%);fill-opacity:1;" d="M 77.710938 112.984375 C 79.429688 113.652344 81.332031 114.371094 83.25 114.066406 C 85.429688 113.722656 87.121094 112.347656 88.960938 111.277344 C 91.015625 110.082031 93.320312 109.671875 95.585938 110.390625 C 97.722656 111.070312 101.585938 113.679688 101.441406 113.566406 C 99.878906 112.363281 98.277344 111.128906 96.402344 110.390625 C 94.40625 109.601562 92.347656 109.53125 90.292969 110.316406 C 88.160156 111.132812 86.5 112.796875 84.324219 113.527344 C 82.074219 114.285156 79.859375 113.519531 77.792969 112.714844 C 77.621094 112.644531 77.539062 112.914062 77.710938 112.984375 Z M 77.710938 112.984375 "/>
<path style=" stroke:none;fill-rule:nonzero;fill:rgb(87.843138%,88.627452%,89.019608%);fill-opacity:1;" d="M 90.78125 112.769531 C 90.78125 112.769531 90.710938 112.78125 90.597656 112.789062 C 90.15625 112.824219 88.992188 112.785156 88.496094 111.554688 C 88.464844 111.46875 88.429688 111.375 88.402344 111.277344 L 88.375 111.175781 L 88.382812 111.171875 C 87.910156 109.644531 89.046875 108.90625 89.4375 108.699219 L 89.5625 108.640625 L 89.652344 108.8125 C 89.660156 108.832031 89.671875 108.851562 89.675781 108.871094 C 90.09375 109.796875 89.695312 110.425781 89.234375 110.804688 C 89.074219 110.9375 88.90625 111.042969 88.769531 111.117188 C 88.902344 111.109375 89.066406 111.101562 89.238281 111.121094 C 89.875 111.171875 90.648438 111.488281 90.765625 112.644531 C 90.773438 112.683594 90.777344 112.726562 90.78125 112.769531 Z M 91.316406 110.246094 C 91.316406 110.246094 91.324219 110.242188 91.332031 110.242188 C 91.476562 112.109375 93.320312 112.125 93.320312 112.125 C 93.574219 110.488281 92.277344 110.160156 91.648438 110.097656 C 92.222656 109.796875 93.265625 109.019531 92.464844 107.609375 C 92.464844 107.609375 90.644531 108.332031 91.316406 110.246094 Z M 95.449219 112.65625 L 95.335938 112.578125 C 95.003906 112.34375 94.074219 111.523438 94.679688 110.164062 C 94.707031 110.109375 94.738281 110.054688 94.765625 109.992188 C 94.761719 109.96875 94.765625 109.941406 94.765625 109.914062 L 94.765625 109.910156 C 94.785156 108.632812 95.683594 108.136719 96.207031 107.957031 C 96.308594 107.921875 96.390625 107.898438 96.460938 107.882812 C 96.53125 107.867188 96.574219 107.863281 96.574219 107.863281 C 96.578125 107.886719 96.585938 107.917969 96.589844 107.941406 C 96.890625 109.308594 95.945312 109.835938 95.300781 110.035156 C 95.226562 110.058594 95.160156 110.074219 95.097656 110.089844 C 95.1875 110.15625 95.285156 110.230469 95.386719 110.328125 L 95.386719 110.335938 C 95.832031 110.753906 96.261719 111.476562 95.605469 112.449219 Z M 98.6875 113.355469 L 98.566406 113.3125 C 98.292969 113.207031 97.621094 112.867188 97.425781 112.101562 C 97.359375 111.847656 97.347656 111.542969 97.421875 111.1875 C 97.421875 111.183594 97.421875 111.179688 97.425781 111.175781 C 97.425781 111.15625 97.429688 111.148438 97.433594 111.128906 C 97.445312 111.09375 97.445312 111.0625 97.457031 111.023438 C 97.464844 110.976562 97.480469 110.929688 97.492188 110.886719 C 97.941406 109.320312 99.550781 109.445312 99.550781 109.445312 C 99.550781 109.464844 99.550781 109.476562 99.550781 109.492188 C 99.550781 109.574219 99.546875 109.65625 99.535156 109.730469 C 99.421875 110.820312 98.59375 111.101562 98.007812 111.164062 C 97.96875 111.171875 97.929688 111.175781 97.890625 111.179688 C 98.179688 111.3125 98.542969 111.542969 98.746094 111.914062 C 98.914062 112.21875 98.964844 112.617188 98.78125 113.128906 L 98.78125 113.132812 Z M 100.046875 115.296875 L 99.976562 115.226562 C 99.972656 115.21875 99.964844 115.210938 99.964844 115.203125 C 99.699219 114.898438 99 113.882812 100.066406 112.699219 C 100.074219 112.691406 100.078125 112.6875 100.082031 112.679688 C 100.089844 112.636719 100.101562 112.59375 100.109375 112.558594 C 100.445312 111.179688 101.640625 111.027344 102.050781 111.015625 C 102.140625 111.015625 102.195312 111.019531 102.195312 111.019531 C 102.191406 111.066406 102.191406 111.117188 102.1875 111.164062 C 102.128906 112.566406 100.953125 112.75 100.382812 112.757812 C 100.308594 112.757812 100.242188 112.757812 100.191406 112.753906 C 100.210938 112.769531 100.226562 112.789062 100.25 112.8125 C 100.25 112.8125 100.25 112.816406 100.257812 112.820312 C 100.601562 113.191406 101.292969 114.171875 100.234375 115.136719 C 100.222656 115.148438 100.210938 115.164062 100.199219 115.175781 Z M 100.046875 115.296875 "/>
<path style=" stroke:none;fill-rule:nonzero;fill:rgb(87.843138%,88.627452%,89.019608%);fill-opacity:1;" d="M 101.101562 113.289062 C 100.601562 115.132812 102.335938 115.617188 102.335938 115.617188 C 103.207031 113.761719 101.101562 113.289062 101.101562 113.289062 Z M 101.101562 113.289062 "/>
<path style=" stroke:none;fill-rule:nonzero;fill:rgb(96.470588%,96.470588%,96.470588%);fill-opacity:1;" d="M 101.460938 111.703125 C 101.460938 111.703125 101.84375 111.386719 102.050781 111.015625 C 102.140625 111.015625 102.195312 111.015625 102.195312 111.015625 C 102.191406 111.066406 102.191406 111.113281 102.1875 111.164062 L 101.5 111.6875 Z M 90.78125 112.769531 C 90.78125 112.769531 90.710938 112.78125 90.597656 112.789062 C 90.359375 112.453125 89.992188 112.183594 89.941406 112.152344 L 89.976562 112.160156 L 90.765625 112.644531 C 90.773438 112.683594 90.777344 112.726562 90.78125 112.769531 Z M 89.230469 109.773438 C 89.230469 109.773438 89.472656 109.195312 89.4375 108.699219 L 89.5625 108.640625 L 89.675781 108.867188 L 89.261719 109.742188 Z M 92.613281 111.191406 C 92.613281 111.191406 93.042969 111.640625 93.183594 112.117188 L 93.320312 112.125 L 93.347656 111.875 L 92.652344 111.210938 Z M 92.132812 108.742188 C 92.132812 108.742188 92.378906 108.164062 92.339844 107.667969 L 92.464844 107.609375 L 92.578125 107.835938 L 92.164062 108.707031 Z M 95.332031 111.496094 C 95.332031 111.496094 95.464844 112.097656 95.335938 112.582031 L 95.449219 112.65625 L 95.601562 112.449219 L 95.355469 111.53125 Z M 96.09375 108.511719 C 96.128906 108.46875 96.324219 108.203125 96.457031 107.882812 C 96.53125 107.867188 96.574219 107.863281 96.574219 107.863281 C 96.578125 107.886719 96.585938 107.917969 96.589844 107.941406 L 96.125 108.496094 Z M 98.308594 112.339844 C 98.308594 112.339844 98.570312 112.851562 98.570312 113.3125 L 98.6875 113.355469 L 98.78125 113.136719 L 98.339844 112.367188 Z M 98.988281 110.132812 C 98.988281 110.132812 99.332031 109.847656 99.550781 109.492188 C 99.550781 109.574219 99.550781 109.65625 99.535156 109.730469 L 99.023438 110.117188 Z M 100.207031 114.21875 C 100.207031 114.21875 100.1875 114.792969 99.964844 115.207031 L 100.046875 115.296875 L 100.234375 115.140625 L 100.21875 114.257812 Z M 101.957031 114.601562 C 101.957031 114.601562 102.21875 115.113281 102.214844 115.574219 L 102.335938 115.617188 L 102.425781 115.398438 L 101.984375 114.628906 Z M 101.957031 114.601562 "/>
<path style=" stroke:none;fill-rule:nonzero;fill:rgb(77.64706%,83.529413%,85.882354%);fill-opacity:1;" d="M 107.632812 96.621094 C 107.632812 96.621094 102.253906 101.324219 100.867188 104.382812 C 99.484375 107.429688 96.792969 109.066406 96.792969 109.066406 L 93.710938 108.25 L 94.515625 111.257812 C 89.109375 114.773438 82.683594 112.324219 81.144531 111.644531 C 80.921875 111.546875 80.800781 111.488281 80.800781 111.488281 C 78.851562 103.773438 88.554688 100.113281 95.035156 97.484375 C 101.503906 94.859375 107.632812 96.621094 107.632812 96.621094 Z M 107.632812 96.621094 "/>
<use xlink:href="#surface11" mask="url(#mask2)"/>
<use xlink:href="#surface14" mask="url(#mask3)"/>
<path style=" stroke:none;fill-rule:nonzero;fill:rgb(96.470588%,96.470588%,96.470588%);fill-opacity:1;" d="M 100.726562 98.871094 C 97.023438 100.402344 93.445312 102.242188 90.027344 104.347656 C 86.636719 106.480469 83.359375 108.875 80.667969 111.890625 L 80.160156 112.449219 C 79.988281 112.636719 79.847656 112.847656 79.691406 113.046875 L 78.773438 114.253906 C 78.21875 115.089844 77.648438 115.914062 77.117188 116.765625 C 76.667969 117.472656 76.230469 118.1875 75.800781 118.902344 C 75.910156 119.007812 76.015625 119.113281 76.128906 119.214844 C 76.574219 118.472656 77.023438 117.730469 77.488281 117 C 78.007812 116.148438 78.5625 115.316406 79.105469 114.476562 L 79.988281 113.277344 C 80.140625 113.082031 80.273438 112.871094 80.441406 112.6875 L 80.9375 112.128906 C 83.558594 109.121094 86.792969 106.699219 90.148438 104.535156 C 93.519531 102.390625 97.066406 100.496094 100.742188 98.914062 Z M 100.726562 98.871094 "/>
<path style=" stroke:none;fill-rule:nonzero;fill:rgb(87.843138%,88.627452%,89.019608%);fill-opacity:1;" d="M 43.214844 90.355469 C 43.214844 90.355469 47.839844 94.847656 48.941406 97.667969 C 50.042969 100.480469 52.390625 102.078125 52.390625 102.078125 L 55.203125 101.492188 L 54.335938 104.160156 C 59.042969 107.585938 64.949219 105.683594 66.363281 105.148438 C 66.570312 105.070312 66.683594 105.023438 66.683594 105.023438 C 68.804688 98.160156 60.238281 94.40625 54.523438 91.730469 C 48.820312 89.058594 43.214844 90.355469 43.214844 90.355469 Z M 43.214844 90.355469 "/>
<use xlink:href="#surface17" mask="url(#mask4)"/>
<use xlink:href="#surface20" mask="url(#mask5)"/>
<path style=" stroke:none;fill-rule:nonzero;fill:rgb(96.470588%,96.470588%,96.470588%);fill-opacity:1;" d="M 49.328125 92.710938 C 52.59375 94.265625 55.730469 96.09375 58.710938 98.148438 C 61.660156 100.234375 64.5 102.546875 66.78125 105.390625 L 67.214844 105.917969 C 67.359375 106.09375 67.476562 106.292969 67.609375 106.476562 L 68.378906 107.609375 C 68.835938 108.386719 69.3125 109.160156 69.753906 109.949219 C 70.121094 110.609375 70.480469 111.273438 70.835938 111.9375 C 70.734375 112.027344 70.628906 112.117188 70.523438 112.203125 C 70.160156 111.511719 69.789062 110.824219 69.40625 110.144531 C 68.976562 109.351562 68.515625 108.574219 68.070312 107.792969 L 67.328125 106.671875 C 67.203125 106.488281 67.089844 106.289062 66.949219 106.117188 L 66.53125 105.589844 C 64.308594 102.757812 61.511719 100.421875 58.59375 98.3125 C 55.65625 96.21875 52.550781 94.347656 49.3125 92.746094 Z M 49.328125 92.710938 "/>
<path style=" stroke:none;fill-rule:nonzero;fill:rgb(87.843138%,88.627452%,89.019608%);fill-opacity:1;" d="M 42.539062 112.898438 C 41.855469 114.199219 40.789062 114.574219 39.820312 114.378906 C 38.855469 114.128906 37.707031 113.539062 37.144531 112.765625 C 36.566406 112.066406 37.578125 110.449219 39.898438 110.023438 C 42.257812 109.660156 43.285156 111.613281 42.539062 112.898438 Z M 103.59375 92.402344 C 103.042969 93.449219 102.1875 93.746094 101.410156 93.589844 C 100.636719 93.390625 99.714844 92.917969 99.261719 92.296875 C 98.800781 91.734375 99.613281 90.4375 101.46875 90.097656 C 103.363281 89.804688 104.1875 91.371094 103.59375 92.402344 Z M 103.59375 92.402344 "/>
<path style=" stroke:none;fill-rule:nonzero;fill:rgb(62.352943%,89.803922%,100%);fill-opacity:1;" d="M 78.351562 27.695312 L 83.96875 39.5625 C 83.96875 39.5625 85.601562 23.886719 89.054688 25.007812 C 94.0625 26.636719 89.003906 47.597656 84.507812 47.222656 C 77.972656 46.683594 78.351562 27.695312 78.351562 27.695312 Z M 78.351562 27.695312 "/>
<path style=" stroke:none;fill-rule:nonzero;fill:rgb(51.764709%,82.352942%,93.725491%);fill-opacity:1;" d="M 89.566406 21.738281 C 89.566406 21.738281 87.527344 21.894531 87.730469 22.488281 C 87.933594 23.082031 89.234375 22.835938 89.234375 22.835938 Z M 89.566406 21.738281 "/>
<path style=" stroke:none;fill-rule:nonzero;fill:rgb(27.843139%,72.549021%,89.019608%);fill-opacity:1;" d="M 109.886719 54.960938 C 109.886719 35.511719 94.117188 19.738281 74.675781 19.738281 C 55.21875 19.738281 39.453125 35.511719 39.453125 54.960938 C 39.453125 54.960938 36.265625 75.972656 74.585938 124.296875 L 74.683594 124.183594 C 107.371094 82.765625 109.953125 62.617188 109.839844 56.800781 C 109.871094 56.1875 109.886719 55.574219 109.886719 54.960938 Z M 74.59375 73.222656 C 65.6875 73.222656 58.28125 66.808594 56.75 58.355469 C 56.550781 57.300781 56.453125 56.203125 56.453125 55.089844 C 56.453125 52.773438 56.886719 50.570312 57.679688 48.539062 C 60.300781 41.753906 66.890625 36.953125 74.59375 36.953125 C 84.605469 36.953125 92.730469 45.070312 92.730469 55.089844 C 92.730469 65.101562 84.605469 73.222656 74.59375 73.222656 Z M 74.59375 73.222656 "/>
<use xlink:href="#surface23" mask="url(#mask6)"/>
<path style=" stroke:none;fill-rule:nonzero;fill:rgb(10.588235%,18.431373%,21.176471%);fill-opacity:1;" d="M 64.5625 55.5625 C 62.21875 60.859375 61.054688 64.878906 62.886719 68.703125 C 63.71875 70.4375 70.683594 74.191406 76.570312 73.730469 C 91.9375 72.523438 87.839844 72.960938 91.320312 72.351562 C 94.800781 71.746094 93.527344 61.386719 91.257812 59.019531 C 88.988281 56.652344 84.074219 55.085938 83.902344 53.332031 C 76.972656 56.226562 71.59375 56.667969 64.5625 55.5625 Z M 64.5625 55.5625 "/>
<path style=" stroke:none;fill-rule:nonzero;fill:rgb(10.588235%,18.431373%,21.176471%);fill-opacity:1;" d="M 78.136719 73.039062 C 78.136719 73.039062 83.835938 73.765625 87.609375 71.941406 C 91.378906 70.117188 93.792969 66.839844 91.792969 65.023438 C 89.796875 63.207031 92.382812 61.519531 86.050781 60.796875 C 79.722656 60.074219 75.875 62.328125 73.820312 62.230469 C 71.761719 62.132812 71.171875 65.699219 70.71875 67.421875 C 70.265625 69.144531 74.441406 74.554688 78.136719 73.039062 Z M 78.136719 73.039062 "/>
<path style=" stroke:none;fill-rule:nonzero;fill:rgb(51.764709%,82.352942%,93.725491%);fill-opacity:1;" d="M 93.894531 63.085938 C 93.894531 63.085938 87.4375 60.953125 85.207031 62.5625 C 82.972656 64.175781 78.542969 73.449219 87.292969 73.199219 C 96.042969 72.949219 93.894531 63.085938 93.894531 63.085938 Z M 93.894531 63.085938 "/>
<path style=" stroke:none;fill-rule:nonzero;fill:rgb(51.764709%,82.352942%,93.725491%);fill-opacity:1;" d="M 85.40625 63.433594 C 85.40625 63.433594 77.171875 61.941406 74.9375 63.554688 C 72.707031 65.164062 70.054688 73.800781 78.804688 73.546875 C 87.554688 73.296875 85.40625 63.433594 85.40625 63.433594 Z M 85.40625 63.433594 "/>
<path style=" stroke:none;fill-rule:nonzero;fill:rgb(57.254905%,88.235295%,100%);fill-opacity:1;" d="M 77.757812 66.917969 C 75.9375 73.96875 86.664062 94.621094 86.664062 94.621094 L 88.300781 94.523438 C 88.300781 94.523438 86.851562 72.722656 86.214844 66.136719 C 85.574219 59.546875 78.375 64.527344 77.757812 66.917969 Z M 77.757812 66.917969 "/>
<use xlink:href="#surface26" mask="url(#mask7)"/>
<path style=" stroke:none;fill-rule:nonzero;fill:rgb(57.254905%,88.235295%,100%);fill-opacity:1;" d="M 91.71875 97.792969 L 88.433594 94.640625 L 87.75 91.78125 C 87.75 91.78125 85.386719 90.8125 85.410156 90.898438 C 86.386719 94.273438 86.46875 95.355469 86.199219 95.90625 C 85.925781 96.453125 91.246094 100.050781 91.71875 97.792969 Z M 91.71875 97.792969 "/>
<path style=" stroke:none;fill-rule:nonzero;fill:rgb(10.588235%,18.431373%,21.176471%);fill-opacity:1;" d="M 91.378906 97.394531 C 91.378906 97.394531 91.246094 98.089844 90.234375 97.832031 C 89.222656 97.578125 86.863281 95.425781 86.269531 95.726562 C 85.675781 96.03125 87.3125 100.117188 87.3125 100.117188 L 87.800781 99.875 L 87.589844 98.039062 C 87.589844 98.039062 88.835938 98.660156 89.34375 99.316406 C 89.851562 99.972656 90.929688 101.175781 92.835938 100.164062 C 94.742188 99.152344 91.378906 97.394531 91.378906 97.394531 Z M 91.378906 97.394531 "/>
<path style=" stroke:none;fill-rule:nonzero;fill:rgb(57.254905%,88.235295%,100%);fill-opacity:1;" d="M 96.59375 66.632812 C 96.222656 75.007812 82.378906 97.011719 82.378906 97.011719 L 81.21875 96.636719 C 81.21875 96.636719 81.933594 70.148438 88.164062 65.371094 C 94.398438 60.597656 96.6875 64.503906 96.59375 66.632812 Z M 96.59375 66.632812 "/>
<path style=" stroke:none;fill-rule:nonzero;fill:rgb(57.254905%,88.235295%,100%);fill-opacity:1;" d="M 83.332031 100.777344 L 82.402344 96.921875 L 83.242188 94.507812 C 83.242188 94.507812 81.964844 92.683594 81.941406 92.757812 C 81.074219 95.695312 80.625 96.527344 80.167969 96.800781 C 79.714844 97.078125 81.925781 102.210938 83.332031 100.777344 Z M 83.332031 100.777344 "/>
<path style=" stroke:none;fill-rule:nonzero;fill:rgb(10.588235%,18.431373%,21.176471%);fill-opacity:1;" d="M 83.269531 100.328125 C 83.269531 100.328125 82.847656 100.773438 82.226562 100.109375 C 81.605469 99.449219 80.882812 96.761719 80.304688 96.707031 C 79.726562 96.648438 79.007812 100.414062 79.007812 100.414062 L 79.480469 100.464844 L 80.1875 99.019531 C 80.1875 99.019531 80.808594 100.058594 80.875 100.78125 C 80.941406 101.5 81.167969 102.886719 83.039062 103.039062 C 84.914062 103.195312 83.269531 100.328125 83.269531 100.328125 Z M 75.761719 29.753906 C 77.898438 29.109375 79.15625 27.15625 80.320312 26.976562 C 81.484375 26.796875 84.070312 25.410156 84.949219 22.886719 C 85.683594 20.785156 84.671875 20.011719 81.933594 18.28125 C 80.941406 17.652344 80.445312 17.144531 80.085938 16.703125 C 79.449219 15.921875 79.222656 15.328125 77.429688 14.621094 C 74.613281 13.511719 74.296875 17.074219 70.765625 17.390625 C 66.878906 17.734375 64.296875 19.019531 62.824219 20.691406 C 61.089844 22.652344 60.886719 25.15625 61.894531 27.304688 C 63.761719 31.289062 65.753906 30.863281 68.964844 28.941406 C 72.171875 27.015625 73.617188 30.398438 75.761719 29.753906 Z M 75.761719 29.753906 "/>
<path style=" stroke:none;fill-rule:nonzero;fill:rgb(62.352943%,89.803922%,100%);fill-opacity:1;" d="M 76.347656 26.414062 C 76.347656 26.414062 82.925781 36.585938 85.179688 40.367188 C 86.980469 42.824219 87.960938 47.230469 84.507812 47.222656 C 81.648438 47.222656 75.695312 31.808594 76.347656 26.414062 Z M 76.347656 26.414062 "/>
<use xlink:href="#surface29" mask="url(#mask8)"/>
<path style=" stroke:none;fill-rule:nonzero;fill:rgb(62.352943%,89.803922%,100%);fill-opacity:1;" d="M 74.710938 25.878906 C 66.867188 25.886719 60.894531 50.453125 64.5625 55.5625 C 67.527344 59.6875 81.644531 58.59375 85.007812 55.089844 C 82.925781 44.441406 79.21875 25.878906 74.710938 25.878906 Z M 74.710938 25.878906 "/>
<use xlink:href="#surface32" mask="url(#mask9)"/>
<path style=" stroke:none;fill-rule:nonzero;fill:rgb(57.254905%,88.235295%,100%);fill-opacity:1;" d="M 74.660156 24.007812 L 73.339844 26.527344 C 73.339844 26.527344 73.855469 29.753906 76.070312 28.984375 C 77.117188 28.621094 76.886719 24.773438 76.886719 24.773438 Z M 74.660156 24.007812 "/>
<path style=" stroke:none;fill-rule:nonzero;fill:rgb(51.764709%,82.352942%,93.725491%);fill-opacity:1;" d="M 76.03125 27.027344 C 75.824219 27.09375 76.109375 26.585938 75.996094 26.382812 C 75.90625 26.222656 75.742188 26.140625 75.570312 26.097656 C 75.382812 26.050781 75.183594 26.050781 74.996094 25.992188 C 74.828125 25.9375 74.671875 25.851562 74.546875 25.730469 C 74.351562 25.539062 74.25 25.285156 74.191406 25.023438 L 74.660156 24.007812 L 76.886719 24.773438 C 76.886719 24.773438 76.753906 26.796875 76.03125 27.027344 Z M 76.03125 27.027344 "/>
<path style=" stroke:none;fill-rule:nonzero;fill:rgb(57.254905%,88.235295%,100%);fill-opacity:1;" d="M 72.503906 22.226562 C 72.574219 21.445312 73.5625 21.75 73.5625 21.75 C 73.5625 21.75 72.558594 20.9375 73.121094 19.234375 C 73.679688 17.527344 78.363281 16.609375 79.226562 18.886719 C 79.621094 19.929688 80.238281 23.691406 78.277344 24.96875 C 76.316406 26.246094 75.941406 25.5 74.875 24.84375 C 73.953125 24.277344 73.875 23.59375 73.875 23.59375 C 73.875 23.59375 72.378906 23.578125 72.503906 22.226562 Z M 72.503906 22.226562 "/>
<path style=" stroke:none;fill-rule:nonzero;fill:rgb(10.588235%,18.431373%,21.176471%);fill-opacity:1;" d="M 80.050781 19.742188 C 80.050781 19.742188 76.816406 20.179688 74.894531 19.121094 C 75.28125 20.695312 74.507812 22.34375 74.019531 22.382812 C 73.53125 22.425781 72.703125 20.984375 72.703125 20.984375 C 72.703125 20.984375 71.367188 17.28125 75.292969 16.050781 C 78.050781 15.1875 80.929688 17.441406 80.050781 19.742188 Z M 72.9375 22.589844 C 72.914062 22.589844 72.898438 22.578125 72.890625 22.558594 C 72.71875 22.121094 73.15625 21.867188 73.160156 21.863281 C 73.183594 21.847656 73.214844 21.855469 73.226562 21.882812 C 73.242188 21.90625 73.234375 21.933594 73.210938 21.949219 C 73.195312 21.957031 72.84375 22.167969 72.984375 22.519531 C 72.988281 22.535156 72.988281 22.554688 72.976562 22.566406 C 72.96875 22.582031 72.953125 22.589844 72.9375 22.589844 Z M 72.9375 22.589844 "/>
<path style=" stroke:none;fill-rule:nonzero;fill:rgb(51.764709%,82.352942%,93.725491%);fill-opacity:1;" d="M 74.761719 22.75 C 74.730469 22.933594 74.929688 23.121094 75.210938 23.167969 C 75.492188 23.214844 75.742188 23.105469 75.773438 22.917969 C 75.804688 22.734375 75.601562 22.546875 75.324219 22.5 C 75.042969 22.453125 74.792969 22.566406 74.761719 22.75 Z M 76.3125 24.46875 C 76.28125 24.652344 76.484375 24.84375 76.761719 24.890625 C 77.042969 24.9375 77.292969 24.824219 77.324219 24.640625 C 77.355469 24.457031 77.152344 24.265625 76.875 24.21875 C 76.59375 24.171875 76.34375 24.285156 76.3125 24.46875 Z M 77.941406 22.914062 C 77.910156 23.097656 78.113281 23.285156 78.390625 23.332031 C 78.671875 23.378906 78.921875 23.269531 78.953125 23.085938 C 78.984375 22.898438 78.785156 22.710938 78.503906 22.664062 C 78.226562 22.617188 77.972656 22.730469 77.941406 22.914062 Z M 77.941406 22.914062 "/>
<path style=" stroke:none;fill-rule:nonzero;fill:rgb(10.588235%,18.431373%,21.176471%);fill-opacity:1;" d="M 77.167969 23 C 77.195312 23 77.21875 22.996094 77.246094 22.988281 C 77.410156 22.941406 77.480469 22.753906 77.484375 22.746094 C 77.492188 22.722656 77.492188 22.695312 77.476562 22.675781 C 77.195312 22.246094 77.273438 21.664062 77.273438 21.660156 C 77.277344 21.617188 77.246094 21.578125 77.203125 21.570312 C 77.160156 21.566406 77.121094 21.59375 77.117188 21.636719 C 77.113281 21.664062 77.039062 22.25 77.324219 22.722656 C 77.300781 22.765625 77.257812 22.820312 77.203125 22.839844 C 77.148438 22.851562 77.085938 22.832031 77.011719 22.777344 C 76.976562 22.75 76.925781 22.757812 76.902344 22.789062 C 76.875 22.824219 76.882812 22.875 76.914062 22.898438 C 77.003906 22.964844 77.085938 23 77.167969 23 Z M 77.167969 23 "/>
<path style=" stroke:none;fill-rule:nonzero;fill:rgb(91.764706%,93.333334%,93.725491%);fill-opacity:1;" d="M 78.050781 24.015625 C 78.050781 24.015625 77.160156 24.417969 76.164062 23.957031 C 75.9375 24.371094 77.121094 25.449219 78.050781 24.015625 Z M 78.050781 24.015625 "/>
<path style=" stroke:none;fill-rule:nonzero;fill:rgb(10.588235%,18.431373%,21.176471%);fill-opacity:1;" d="M 76.125 21.414062 C 76.125 21.660156 75.992188 21.855469 75.824219 21.855469 C 75.65625 21.855469 75.523438 21.660156 75.523438 21.414062 C 75.523438 21.171875 75.65625 20.976562 75.824219 20.976562 C 75.898438 20.976562 75.964844 21.011719 76.019531 21.078125 C 75.960938 21.09375 75.917969 21.144531 75.917969 21.207031 C 75.917969 21.277344 75.976562 21.339844 76.050781 21.339844 C 76.074219 21.339844 76.097656 21.332031 76.117188 21.320312 C 76.121094 21.347656 76.125 21.382812 76.125 21.414062 Z M 76.636719 20.679688 C 76.636719 20.679688 75.304688 20.613281 75.171875 20.480469 C 75.039062 20.351562 75.453125 20.074219 76.039062 20.222656 C 76.628906 20.371094 76.789062 20.675781 76.636719 20.679688 Z M 78.652344 21.414062 C 78.652344 21.660156 78.519531 21.855469 78.351562 21.855469 C 78.1875 21.855469 78.054688 21.660156 78.054688 21.414062 C 78.054688 21.171875 78.1875 20.976562 78.351562 20.976562 C 78.425781 20.976562 78.496094 21.011719 78.546875 21.078125 C 78.488281 21.09375 78.449219 21.144531 78.449219 21.207031 C 78.449219 21.277344 78.507812 21.339844 78.582031 21.339844 C 78.605469 21.339844 78.628906 21.332031 78.648438 21.320312 C 78.652344 21.347656 78.652344 21.382812 78.652344 21.414062 Z M 79.164062 20.679688 C 79.164062 20.679688 77.835938 20.613281 77.703125 20.480469 C 77.566406 20.351562 77.984375 20.074219 78.570312 20.222656 C 79.15625 20.371094 79.316406 20.675781 79.164062 20.679688 Z M 79.164062 20.679688 "/>
<path style=" stroke:none;fill-rule:nonzero;fill:rgb(57.254905%,88.235295%,100%);fill-opacity:1;" d="M 55.933594 64.703125 L 55.933594 64.707031 C 56.003906 64.53125 56.132812 64.300781 56.351562 63.972656 C 56.351562 63.972656 56.351562 63.976562 56.351562 63.980469 C 56.453125 63.816406 56.574219 63.652344 56.703125 63.492188 C 56.921875 63.214844 57.101562 63.027344 57.230469 62.902344 C 57.234375 62.898438 57.234375 62.898438 57.234375 62.898438 C 57.429688 62.710938 57.527344 62.660156 57.527344 62.660156 C 57.527344 62.660156 58.777344 59.445312 59.066406 59.097656 C 59.488281 58.855469 60.820312 59.875 60.820312 59.875 C 60.964844 60.273438 59.453125 62.953125 59.546875 63.628906 C 59.65625 64.417969 60.78125 65.890625 60.183594 65.976562 C 59.582031 66.066406 59.175781 64.859375 59.175781 64.859375 C 59.175781 64.859375 59.171875 64.875 59.164062 64.902344 C 59.125 65.078125 58.953125 65.734375 58.605469 66.253906 C 58.507812 66.394531 58.394531 66.53125 58.269531 66.640625 C 58.246094 66.660156 58.222656 66.679688 58.203125 66.695312 C 58.160156 66.726562 58.117188 66.757812 58.070312 66.785156 C 58.066406 66.789062 58.058594 66.792969 58.050781 66.796875 C 58.027344 66.808594 58.003906 66.820312 57.980469 66.832031 L 57.976562 66.835938 C 57.976562 66.835938 57.976562 66.835938 57.976562 66.832031 C 57.90625 66.84375 57.820312 66.835938 57.71875 66.789062 C 57.378906 66.632812 57.460938 66.351562 57.460938 66.351562 C 57.460938 66.351562 57.242188 66.539062 56.988281 66.375 C 56.71875 66.199219 56.859375 66.003906 56.859375 66.003906 C 56.859375 66.003906 56.574219 66.125 56.367188 65.976562 C 56.148438 65.824219 56.316406 65.597656 56.316406 65.597656 C 56.316406 65.597656 56.125 65.714844 55.871094 65.535156 C 55.636719 65.375 55.933594 64.703125 55.933594 64.703125 Z M 55.933594 64.703125 "/>
<use xlink:href="#surface35" mask="url(#mask10)"/>
<path style=" stroke:none;fill-rule:nonzero;fill:rgb(62.352943%,89.803922%,100%);fill-opacity:1;" d="M 70.683594 28.148438 C 64.195312 32.632812 59.972656 52.128906 57.257812 61.960938 L 60.128906 63.246094 C 60.128906 63.246094 71.21875 37.644531 72.097656 34.53125 C 72.984375 31.378906 73.617188 26.121094 70.683594 28.148438 Z M 70.683594 28.148438 "/>
<path style=" stroke:none;fill-rule:nonzero;fill:rgb(57.254905%,88.235295%,100%);fill-opacity:1;" d="M 88.402344 23.785156 C 88.675781 23.871094 89.121094 23.335938 89.121094 23.335938 C 89.121094 23.335938 88.636719 24.054688 88.890625 24.25 C 89.128906 24.429688 89.488281 23.894531 89.617188 23.722656 C 89.476562 23.925781 89.222656 24.492188 89.496094 24.65625 C 89.753906 24.8125 90.367188 24.050781 90.367188 24.050781 C 90.367188 24.050781 89.941406 24.792969 90.230469 24.980469 C 90.582031 25.207031 91.355469 24.058594 91.628906 23.65625 C 91.832031 23.355469 91.9375 22.402344 91.335938 22.726562 C 91.335938 22.726562 91.472656 22.261719 91.101562 22.121094 C 90.722656 21.972656 90.683594 22.414062 90.683594 22.414062 C 90.683594 22.414062 90.789062 21.980469 90.402344 21.824219 C 90.15625 21.722656 89.984375 22.035156 89.984375 22.035156 C 89.984375 22.035156 89.933594 21.640625 89.566406 21.738281 C 89.023438 21.878906 87.992188 23.65625 88.402344 23.785156 Z M 88.402344 23.785156 "/>
<use xlink:href="#surface38" mask="url(#mask11)"/>
<path style=" stroke:none;fill-rule:nonzero;fill:rgb(43.921569%,83.529413%,98.039216%);fill-opacity:1;" d="M 121.3125 30.957031 L 121.320312 37.449219 C 121.191406 38.289062 120.464844 38.9375 119.589844 38.9375 L 91.371094 39 C 90.433594 39 89.660156 38.265625 89.609375 37.335938 L 89.609375 37.320312 L 89.605469 31.011719 C 89.601562 30.222656 90.242188 29.582031 91.027344 29.582031 L 119.882812 29.53125 C 120.671875 29.53125 121.3125 30.167969 121.3125 30.957031 Z M 121.3125 30.957031 "/>
<path style=" stroke:none;fill-rule:nonzero;fill:rgb(100%,100%,100%);fill-opacity:1;" d="M 94.695312 36.289062 L 94.695312 32.242188 L 95.402344 32.242188 L 95.402344 35.765625 L 96.296875 35.765625 L 96.296875 36.289062 Z M 98.972656 36.042969 C 98.808594 36.238281 98.550781 36.335938 98.195312 36.335938 C 97.839844 36.335938 97.578125 36.238281 97.410156 36.042969 C 97.246094 35.847656 97.164062 35.550781 97.164062 35.160156 L 97.164062 33.308594 C 97.164062 32.566406 97.511719 32.195312 98.203125 32.195312 C 98.5625 32.195312 98.820312 32.289062 98.980469 32.480469 C 99.136719 32.667969 99.214844 32.945312 99.214844 33.308594 L 99.214844 35.160156 C 99.214844 35.554688 99.132812 35.847656 98.972656 36.042969 Z M 97.9375 35.660156 C 97.976562 35.753906 98.0625 35.800781 98.191406 35.800781 C 98.320312 35.800781 98.40625 35.753906 98.445312 35.660156 C 98.484375 35.5625 98.503906 35.398438 98.503906 35.164062 L 98.503906 33.28125 C 98.503906 33.089844 98.484375 32.949219 98.445312 32.863281 C 98.402344 32.773438 98.320312 32.730469 98.199219 32.730469 C 98.082031 32.730469 97.996094 32.773438 97.949219 32.863281 C 97.898438 32.949219 97.875 33.089844 97.875 33.277344 L 97.875 35.164062 C 97.875 35.402344 97.894531 35.570312 97.9375 35.660156 Z M 102.117188 36.054688 C 101.957031 36.242188 101.707031 36.335938 101.363281 36.335938 C 101.019531 36.335938 100.761719 36.234375 100.59375 36.035156 C 100.425781 35.835938 100.339844 35.546875 100.339844 35.171875 L 100.339844 33.410156 C 100.339844 32.808594 100.519531 32.429688 100.882812 32.28125 C 101.015625 32.226562 101.179688 32.199219 101.367188 32.199219 C 102.019531 32.199219 102.347656 32.558594 102.347656 33.273438 L 102.347656 33.828125 L 101.664062 33.828125 L 101.664062 33.3125 C 101.664062 33.105469 101.644531 32.957031 101.601562 32.867188 C 101.5625 32.777344 101.484375 32.730469 101.367188 32.730469 C 101.246094 32.730469 101.164062 32.777344 101.121094 32.875 C 101.074219 32.96875 101.050781 33.113281 101.050781 33.308594 L 101.050781 35.199219 C 101.050781 35.417969 101.074219 35.574219 101.117188 35.667969 C 101.160156 35.761719 101.242188 35.804688 101.359375 35.804688 C 101.472656 35.804688 101.554688 35.757812 101.597656 35.664062 C 101.640625 35.570312 101.664062 35.410156 101.664062 35.191406 L 101.664062 34.613281 L 102.359375 34.613281 L 102.359375 35.1875 C 102.355469 35.578125 102.277344 35.867188 102.117188 36.054688 Z M 103.261719 36.289062 L 103.921875 32.242188 L 104.859375 32.242188 L 105.5625 36.289062 L 104.902344 36.289062 L 104.792969 35.566406 L 104.042969 35.566406 L 103.941406 36.289062 Z M 104.71875 35.074219 L 104.40625 33.042969 L 104.394531 33.042969 L 104.109375 35.074219 Z M 106.773438 36.289062 L 106.773438 32.777344 L 106.230469 32.777344 L 106.230469 32.246094 L 108 32.246094 L 108 32.777344 L 107.476562 32.777344 L 107.476562 36.289062 Z M 108.957031 36.289062 L 108.957031 32.242188 L 109.664062 32.242188 L 109.664062 36.289062 Z M 112.679688 36.042969 C 112.519531 36.238281 112.257812 36.335938 111.902344 36.335938 C 111.546875 36.335938 111.285156 36.238281 111.121094 36.042969 C 110.953125 35.847656 110.871094 35.550781 110.871094 35.160156 L 110.871094 33.308594 C 110.871094 32.566406 111.21875 32.195312 111.910156 32.195312 C 112.269531 32.195312 112.527344 32.289062 112.6875 32.480469 C 112.84375 32.667969 112.921875 32.945312 112.921875 33.308594 L 112.921875 35.160156 C 112.921875 35.554688 112.84375 35.847656 112.679688 36.042969 Z M 111.644531 35.660156 C 111.6875 35.753906 111.769531 35.800781 111.898438 35.800781 C 112.027344 35.800781 112.113281 35.753906 112.152344 35.660156 C 112.191406 35.5625 112.214844 35.398438 112.214844 35.164062 L 112.214844 33.28125 C 112.214844 33.089844 112.191406 32.949219 112.152344 32.863281 C 112.109375 32.773438 112.027344 32.730469 111.910156 32.730469 C 111.789062 32.730469 111.703125 32.773438 111.65625 32.863281 C 111.605469 32.949219 111.582031 33.089844 111.582031 33.277344 L 111.582031 35.164062 C 111.582031 35.402344 111.601562 35.570312 111.644531 35.660156 Z M 114.105469 36.289062 L 114.105469 32.242188 L 114.65625 32.242188 L 115.640625 34.671875 L 115.589844 33.566406 L 115.589844 32.246094 L 116.226562 32.246094 L 116.226562 36.289062 L 115.726562 36.289062 L 114.714844 33.777344 L 114.753906 34.839844 L 114.753906 36.289062 Z M 114.105469 36.289062 "/>
</g>
</svg>
