<?xml version="1.0" encoding="UTF-8"?>
<svg xmlns="http://www.w3.org/2000/svg" xmlns:xlink="http://www.w3.org/1999/xlink" width="350px" height="350px" viewBox="0 0 350 350" version="1.1">
<defs>
<filter id="alpha" filterUnits="objectBoundingBox" x="0%" y="0%" width="100%" height="100%">
  <feColorMatrix type="matrix" in="SourceGraphic" values="0 0 0 0 1 0 0 0 0 1 0 0 0 0 1 0 0 0 1 0"/>
</filter>
<mask id="mask0">
  <g filter="url(#alpha)">
<rect x="0" y="0" width="350" height="350" style="fill:rgb(0%,0%,0%);fill-opacity:0.309804;stroke:none;"/>
  </g>
</mask>
<clipPath id="clip1">
  <rect x="0" y="0" width="350" height="350"/>
</clipPath>
<g id="surface5" clip-path="url(#clip1)">
<path style=" stroke:none;fill-rule:nonzero;fill:rgb(52.941179%,86.666667%,99.215686%);fill-opacity:1;" d="M 291.34375 241.472656 C 290.851562 241.476562 287.84375 237.453125 287.265625 236.894531 C 282.550781 232.332031 279.722656 227.320312 277.59375 221.863281 C 275.976562 217.707031 274.765625 213.289062 273.445312 208.628906 C 272.554688 205.484375 271.121094 201.972656 268.007812 200.980469 C 264.980469 200.019531 261.722656 202.015625 259.863281 204.589844 C 258 207.160156 257.0625 210.28125 255.472656 213.03125 C 252.582031 218.011719 247.472656 220.097656 243.246094 215.71875 C 237.210938 209.464844 234.492188 200.9375 230.667969 193.308594 C 227.890625 187.769531 225.5625 181.285156 222.0625 176.175781 C 216.722656 168.390625 209.402344 161.75 199.671875 161.75 C 193.5 162.683594 188.066406 168.152344 184.386719 174.980469 C 180.707031 181.808594 178.558594 189.933594 176.730469 198.035156 C 175.199219 204.832031 173.851562 211.703125 172.609375 218.605469 C 170.292969 210.285156 167.886719 202.023438 165.28125 193.90625 C 162.457031 185.113281 159.339844 176.355469 155.011719 169.320312 C 150.679688 162.285156 144.949219 157.09375 139.191406 157.128906 C 130.324219 158.847656 124.601562 167.605469 120.847656 177.308594 C 118.386719 183.667969 117.195312 191.375 115.453125 198.097656 C 113.054688 207.355469 111.796875 217.429688 107.1875 225.53125 C 103.964844 231.203125 99.003906 229.757812 95.664062 224.660156 C 93.820312 221.847656 92.519531 218.503906 90.457031 215.9375 C 88.390625 213.371094 85.132812 211.699219 82.515625 213.316406 C 79.824219 214.976562 79.015625 219.1875 78.652344 222.878906 C 78.113281 228.359375 77.644531 233.539062 76.761719 238.503906 C 76.570312 239.585938 76.355469 240.652344 76.117188 241.714844 L 168.726562 241.714844 C 168.660156 242.109375 168.597656 242.507812 168.535156 242.902344 Z M 291.34375 241.472656 "/>
</g>
<mask id="mask1">
  <g filter="url(#alpha)">
<rect x="0" y="0" width="350" height="350" style="fill:rgb(0%,0%,0%);fill-opacity:0.768627;stroke:none;"/>
  </g>
</mask>
<clipPath id="clip2">
  <rect x="0" y="0" width="350" height="350"/>
</clipPath>
<g id="surface8" clip-path="url(#clip2)">
<path style=" stroke:none;fill-rule:nonzero;fill:rgb(33.333334%,81.960785%,100%);fill-opacity:1;" d="M 254.289062 228.882812 C 254.046875 233.65625 248.851562 242.003906 244.078125 241.761719 C 239.304688 241.523438 236.757812 232.785156 237 228.011719 C 237.242188 223.238281 242.328125 199.347656 247.101562 199.589844 C 251.871094 199.832031 254.527344 224.109375 254.289062 228.882812 Z M 254.289062 228.882812 "/>
</g>
<mask id="mask2">
  <g filter="url(#alpha)">
<rect x="0" y="0" width="350" height="350" style="fill:rgb(0%,0%,0%);fill-opacity:0.768627;stroke:none;"/>
  </g>
</mask>
<clipPath id="clip3">
  <rect x="0" y="0" width="350" height="350"/>
</clipPath>
<g id="surface11" clip-path="url(#clip3)">
<path style=" stroke:none;fill-rule:nonzero;fill:rgb(33.333334%,81.960785%,100%);fill-opacity:1;" d="M 243.359375 227.890625 C 242.273438 230.277344 241.445312 232.78125 240.945312 235.394531 C 240.691406 236.714844 240.53125 238.152344 241.128906 239.359375 C 241.785156 240.679688 243.238281 241.449219 244.6875 241.6875 C 248.238281 242.269531 251.785156 240.097656 253.867188 237.164062 C 255.945312 234.230469 256.847656 230.644531 257.675781 227.148438 C 258.324219 224.390625 258.964844 221.59375 260.191406 219.027344 C 260.71875 217.925781 263.800781 213.679688 262.339844 212.578125 C 260.347656 211.011719 254.578125 212.710938 250.886719 216.75 C 247.839844 220.070312 245.21875 223.804688 243.359375 227.890625 Z M 243.359375 227.890625 "/>
</g>
<mask id="mask3">
  <g filter="url(#alpha)">
<rect x="0" y="0" width="350" height="350" style="fill:rgb(0%,0%,0%);fill-opacity:0.768627;stroke:none;"/>
  </g>
</mask>
<clipPath id="clip4">
  <rect x="0" y="0" width="350" height="350"/>
</clipPath>
<g id="surface14" clip-path="url(#clip4)">
<path style=" stroke:none;fill-rule:nonzero;fill:rgb(33.333334%,81.960785%,100%);fill-opacity:1;" d="M 268.453125 223.957031 C 268.085938 224.617188 267.398438 225.0625 266.773438 225.414062 C 266.007812 225.847656 265.1875 226.226562 264.394531 226.597656 C 263.375 227.070312 262.324219 227.558594 261.351562 228.167969 C 260.644531 228.613281 260.019531 229.113281 259.488281 229.652344 C 260.320312 227.757812 261.296875 226.105469 262.445312 224.628906 C 263.957031 222.683594 265.503906 221.699219 267.054688 221.699219 C 267.09375 221.699219 267.128906 221.699219 267.164062 221.703125 C 267.644531 221.714844 268.015625 221.835938 268.273438 222.054688 C 268.800781 222.507812 268.777344 223.375 268.453125 223.957031 Z M 270.183594 234.738281 C 269.570312 235.175781 268.757812 235.289062 268.042969 235.339844 C 267.164062 235.402344 266.257812 235.394531 265.386719 235.390625 C 264.265625 235.382812 263.105469 235.375 261.96875 235.511719 C 261.140625 235.613281 260.355469 235.796875 259.648438 236.054688 C 261.210938 234.699219 262.796875 233.621094 264.46875 232.777344 C 266.664062 231.667969 268.484375 231.441406 269.890625 232.105469 L 269.984375 232.152344 C 270.414062 232.371094 270.699219 232.636719 270.839844 232.949219 C 271.117188 233.578125 270.726562 234.355469 270.183594 234.738281 Z M 270.183594 234.738281 "/>
</g>
<mask id="mask4">
  <g filter="url(#alpha)">
<rect x="0" y="0" width="350" height="350" style="fill:rgb(0%,0%,0%);fill-opacity:0.768627;stroke:none;"/>
  </g>
</mask>
<clipPath id="clip5">
  <rect x="0" y="0" width="350" height="350"/>
</clipPath>
<g id="surface17" clip-path="url(#clip5)">
<path style=" stroke:none;fill-rule:nonzero;fill:rgb(33.333334%,81.960785%,100%);fill-opacity:1;" d="M 266.101562 240.046875 C 265.589844 239.976562 265.132812 239.652344 264.753906 239.339844 C 264.289062 238.960938 263.839844 238.535156 263.410156 238.121094 C 262.855469 237.589844 262.28125 237.042969 261.652344 236.578125 C 261.195312 236.238281 260.71875 235.960938 260.246094 235.761719 C 261.65625 235.820312 262.949219 236.027344 264.179688 236.390625 C 265.792969 236.867188 266.804688 237.609375 267.1875 238.59375 C 267.199219 238.617188 267.207031 238.636719 267.214844 238.660156 C 267.324219 238.96875 267.339844 239.234375 267.265625 239.457031 C 267.113281 239.90625 266.550781 240.109375 266.101562 240.046875 Z M 266.101562 240.046875 "/>
</g>
</defs>
<g id="surface1">
<use xlink:href="#surface5" mask="url(#mask0)"/>
<use xlink:href="#surface8" mask="url(#mask1)"/>
<path style=" stroke:none;fill-rule:nonzero;fill:rgb(3.137255%,65.098041%,87.843138%);fill-opacity:1;" d="M 244.460938 241.507812 L 244.457031 241.507812 C 244.421875 241.503906 244.390625 241.488281 244.371094 241.464844 C 244.347656 241.441406 244.335938 241.40625 244.339844 241.375 L 246.746094 202.6875 C 246.75 202.617188 246.804688 202.558594 246.878906 202.570312 C 246.949219 202.570312 247.003906 202.632812 246.996094 202.703125 L 244.589844 241.390625 C 244.582031 241.457031 244.527344 241.503906 244.460938 241.507812 Z M 244.460938 241.507812 "/>
<use xlink:href="#surface11" mask="url(#mask2)"/>
<path style=" stroke:none;fill-rule:nonzero;fill:rgb(3.137255%,65.098041%,87.843138%);fill-opacity:1;" d="M 244.6875 241.8125 C 244.679688 241.8125 244.667969 241.8125 244.65625 241.808594 C 244.589844 241.789062 244.550781 241.722656 244.566406 241.65625 C 244.609375 241.488281 248.980469 224.832031 259.230469 215.351562 C 259.28125 215.304688 259.359375 215.304688 259.410156 215.355469 C 259.457031 215.410156 259.453125 215.488281 259.402344 215.535156 C 249.203125 224.964844 244.855469 241.550781 244.8125 241.71875 C 244.800781 241.777344 244.746094 241.8125 244.6875 241.8125 Z M 244.6875 241.8125 "/>
<use xlink:href="#surface14" mask="url(#mask3)"/>
<use xlink:href="#surface17" mask="url(#mask4)"/>
<path style=" stroke:none;fill-rule:nonzero;fill:rgb(3.137255%,65.098041%,87.843138%);fill-opacity:1;" d="M 254.484375 241.910156 C 254.421875 241.902344 254.359375 241.851562 254.359375 241.78125 C 254.359375 241.679688 254.550781 231.410156 266.921875 222.808594 C 266.980469 222.769531 267.058594 222.78125 267.097656 222.839844 C 267.136719 222.898438 267.125 222.976562 267.066406 223.015625 C 254.800781 231.542969 254.609375 241.679688 254.609375 241.78125 C 254.613281 241.851562 254.558594 241.910156 254.484375 241.910156 Z M 254.484375 241.910156 "/>
<path style=" stroke:none;fill-rule:nonzero;fill:rgb(3.137255%,65.098041%,87.843138%);fill-opacity:1;" d="M 254.484375 241.910156 C 254.464844 241.910156 254.449219 241.90625 254.429688 241.894531 C 254.398438 241.882812 254.375 241.855469 254.363281 241.824219 C 254.351562 241.792969 254.355469 241.757812 254.367188 241.726562 C 254.40625 241.644531 258.347656 233.457031 268.683594 233.457031 C 268.753906 233.457031 268.808594 233.511719 268.808594 233.582031 C 268.808594 233.652344 268.753906 233.710938 268.683594 233.710938 C 258.515625 233.710938 254.632812 241.753906 254.597656 241.832031 C 254.578125 241.878906 254.535156 241.910156 254.484375 241.910156 Z M 254.484375 241.910156 "/>
<path style=" stroke:none;fill-rule:nonzero;fill:rgb(3.137255%,65.098041%,87.843138%);fill-opacity:1;" d="M 266.332031 239.007812 C 262.167969 235.898438 260.15625 235.988281 260.140625 235.992188 C 260.070312 235.996094 260.011719 235.941406 260.003906 235.875 C 260 235.804688 260.054688 235.746094 260.121094 235.738281 C 260.207031 235.726562 262.222656 235.625 266.410156 238.78125 C 266.464844 238.824219 266.480469 238.902344 266.4375 238.960938 C 266.410156 238.988281 266.371094 239.007812 266.332031 239.007812 Z M 266.332031 239.007812 "/>
<path style=" stroke:none;fill-rule:nonzero;fill:rgb(33.333334%,81.960785%,100%);fill-opacity:1;" d="M 108.03125 226.839844 C 106.230469 224.761719 103.953125 222.972656 103.234375 220.351562 C 102.707031 218.4375 103.125 216.410156 103.328125 214.4375 C 103.53125 212.464844 103.460938 210.277344 102.183594 208.761719 C 101.128906 207.511719 99.46875 206.964844 97.871094 206.625 C 96.273438 206.28125 94.605469 206.0625 93.183594 205.25 C 90.878906 203.925781 91.339844 201.679688 90.101562 199.710938 C 88.714844 197.5 85.484375 194.679688 82.714844 196.144531 C 79.785156 197.703125 80.25 202.421875 82.199219 204.507812 C 83.492188 205.890625 85.148438 207.214844 85.339844 209.101562 C 85.625 211.9375 82.375 214.492188 83.269531 217.199219 C 83.929688 219.199219 86.445312 219.886719 87.695312 221.585938 C 88.925781 223.269531 88.675781 225.621094 87.953125 227.574219 C 87.226562 229.527344 86.085938 231.332031 85.636719 233.367188 C 84.714844 237.527344 87.980469 240.402344 91.699219 241.332031 C 95.117188 242.183594 102.492188 241.78125 102.492188 241.78125 C 105.125 240.863281 108.039062 238.550781 109.488281 236.023438 C 110.582031 234.113281 110.734375 231.695312 109.886719 229.664062 C 109.449219 228.621094 108.78125 227.703125 108.03125 226.839844 Z M 108.03125 226.839844 "/>
<path style=" stroke:none;fill-rule:nonzero;fill:rgb(3.137255%,65.098041%,87.843138%);fill-opacity:1;" d="M 99.953125 241.800781 C 99.890625 241.800781 99.832031 241.75 99.828125 241.679688 C 98.476562 220.367188 86.015625 200.898438 85.890625 200.703125 C 85.871094 200.675781 85.863281 200.640625 85.871094 200.605469 C 85.878906 200.574219 85.898438 200.542969 85.929688 200.527344 C 85.988281 200.488281 86.0625 200.503906 86.101562 200.566406 C 86.230469 200.761719 98.726562 220.289062 100.082031 241.664062 C 100.085938 241.734375 100.035156 241.792969 99.96875 241.796875 C 99.960938 241.800781 99.957031 241.800781 99.953125 241.800781 Z M 99.953125 241.800781 "/>
<path style=" stroke:none;fill-rule:nonzero;fill:rgb(33.333334%,81.960785%,100%);fill-opacity:1;" d="M 74.785156 226.863281 C 74.976562 226.699219 75.257812 226.609375 75.621094 226.597656 L 75.703125 226.597656 C 76.875 226.597656 78.046875 227.34375 79.191406 228.8125 C 80.058594 229.929688 80.792969 231.179688 81.421875 232.609375 C 81.023438 232.203125 80.546875 231.824219 80.015625 231.488281 C 79.28125 231.027344 78.484375 230.660156 77.714844 230.300781 C 77.117188 230.019531 76.496094 229.734375 75.917969 229.40625 C 75.445312 229.140625 74.925781 228.800781 74.648438 228.304688 C 74.402344 227.863281 74.382812 227.207031 74.785156 226.863281 Z M 72.84375 235.097656 C 72.949219 234.867188 73.167969 234.664062 73.492188 234.5 C 73.511719 234.488281 73.539062 234.476562 73.5625 234.464844 C 74.621094 233.960938 76 234.132812 77.660156 234.972656 C 78.925781 235.613281 80.125 236.429688 81.308594 237.453125 C 80.773438 237.253906 80.179688 237.117188 79.554688 237.039062 C 78.691406 236.9375 77.816406 236.945312 76.96875 236.949219 C 76.304688 236.953125 75.621094 236.960938 74.957031 236.910156 C 74.417969 236.871094 73.804688 236.789062 73.339844 236.457031 C 72.925781 236.164062 72.632812 235.574219 72.84375 235.097656 Z M 72.84375 235.097656 "/>
<path style=" stroke:none;fill-rule:nonzero;fill:rgb(33.333334%,81.960785%,100%);fill-opacity:1;" d="M 75.542969 240.027344 C 75.484375 239.859375 75.496094 239.660156 75.582031 239.425781 C 75.585938 239.410156 75.59375 239.390625 75.601562 239.375 C 75.890625 238.628906 76.65625 238.066406 77.878906 237.707031 C 78.804688 237.433594 79.785156 237.277344 80.851562 237.230469 C 80.492188 237.382812 80.132812 237.589844 79.785156 237.851562 C 79.3125 238.203125 78.875 238.617188 78.457031 239.019531 C 78.132812 239.328125 77.792969 239.652344 77.441406 239.941406 C 77.15625 240.175781 76.808594 240.421875 76.421875 240.476562 C 76.082031 240.519531 75.660156 240.363281 75.542969 240.027344 Z M 75.542969 240.027344 "/>
<path style=" stroke:none;fill-rule:nonzero;fill:rgb(3.137255%,65.098041%,87.843138%);fill-opacity:1;" d="M 85.207031 241.910156 C 85.136719 241.910156 85.078125 241.851562 85.078125 241.78125 C 85.078125 241.703125 84.925781 234.050781 75.675781 227.617188 C 75.617188 227.578125 75.601562 227.5 75.640625 227.441406 C 75.679688 227.382812 75.761719 227.371094 75.816406 227.410156 C 85.1875 233.921875 85.332031 241.703125 85.332031 241.78125 C 85.335938 241.851562 85.277344 241.910156 85.207031 241.910156 Z M 85.207031 241.910156 "/>
<path style=" stroke:none;fill-rule:nonzero;fill:rgb(3.137255%,65.098041%,87.843138%);fill-opacity:1;" d="M 85.207031 241.910156 C 85.160156 241.910156 85.113281 241.882812 85.09375 241.835938 C 85.066406 241.777344 82.140625 235.710938 74.472656 235.710938 C 74.402344 235.710938 74.347656 235.65625 74.347656 235.585938 C 74.347656 235.515625 74.402344 235.460938 74.472656 235.460938 C 82.304688 235.460938 85.292969 241.667969 85.320312 241.730469 C 85.351562 241.792969 85.324219 241.871094 85.261719 241.898438 C 85.246094 241.902344 85.226562 241.910156 85.207031 241.910156 Z M 85.207031 241.910156 "/>
<path style=" stroke:none;fill-rule:nonzero;fill:rgb(3.137255%,65.098041%,87.843138%);fill-opacity:1;" d="M 76.25 239.714844 C 76.207031 239.714844 76.171875 239.695312 76.148438 239.664062 C 76.105469 239.605469 76.117188 239.527344 76.171875 239.484375 C 79.347656 237.089844 80.886719 237.171875 80.949219 237.175781 C 81.019531 237.183594 81.074219 237.242188 81.066406 237.3125 C 81.0625 237.382812 81.003906 237.4375 80.929688 237.429688 C 80.914062 237.429688 79.40625 237.363281 76.324219 239.683594 C 76.300781 239.707031 76.273438 239.714844 76.25 239.714844 Z M 76.25 239.714844 "/>
<path style=" stroke:none;fill-rule:nonzero;fill:rgb(33.333334%,81.960785%,100%);fill-opacity:1;" d="M 210.246094 236.5625 L 121.390625 236.5625 C 119.433594 236.5625 117.84375 234.96875 117.84375 233.011719 L 117.84375 113.429688 C 117.84375 111.472656 119.433594 109.878906 121.390625 109.878906 L 147.949219 109.878906 L 147.949219 110.851562 L 121.390625 110.851562 C 119.972656 110.851562 118.816406 112.007812 118.816406 113.429688 L 118.816406 233.011719 C 118.816406 234.433594 119.972656 235.589844 121.390625 235.589844 L 210.246094 235.589844 C 211.664062 235.589844 212.824219 234.433594 212.824219 233.011719 L 212.824219 113.429688 C 212.824219 112.007812 211.664062 110.851562 210.246094 110.851562 L 183.695312 110.851562 L 183.695312 109.878906 L 210.246094 109.878906 C 212.203125 109.878906 213.792969 111.472656 213.792969 113.429688 L 213.792969 233.011719 C 213.792969 234.964844 212.203125 236.5625 210.246094 236.5625 Z M 210.246094 236.5625 "/>
<path style=" stroke:none;fill-rule:nonzero;fill:rgb(94.901961%,94.901961%,94.901961%);fill-opacity:1;" d="M 206.539062 230.273438 L 125.097656 230.273438 C 124.410156 230.273438 123.847656 229.714844 123.847656 229.023438 L 123.847656 117.417969 C 123.847656 116.726562 124.410156 116.167969 125.097656 116.167969 L 206.539062 116.167969 C 207.230469 116.167969 207.789062 116.726562 207.789062 117.417969 L 207.789062 229.023438 C 207.789062 229.714844 207.230469 230.273438 206.539062 230.273438 Z M 206.539062 230.273438 "/>
<path style=" stroke:none;fill-rule:nonzero;fill:rgb(33.333334%,81.960785%,100%);fill-opacity:1;" d="M 184.117188 119.480469 L 147.523438 119.480469 L 147.523438 107.503906 L 158.117188 107.503906 C 158.1875 103.316406 161.617188 99.929688 165.820312 99.929688 C 170.023438 99.929688 173.449219 103.316406 173.523438 107.503906 L 184.117188 107.503906 Z M 148.492188 118.507812 L 183.144531 118.507812 L 183.144531 108.476562 L 172.507812 108.476562 L 172.539062 107.835938 C 172.542969 107.769531 172.550781 107.703125 172.550781 107.632812 C 172.550781 103.925781 169.53125 100.902344 165.820312 100.902344 C 162.109375 100.902344 159.089844 103.925781 159.089844 107.632812 C 159.089844 107.703125 159.09375 107.769531 159.097656 107.835938 L 159.128906 108.476562 L 148.492188 108.476562 Z M 148.492188 118.507812 "/>
<path style=" stroke:none;fill-rule:nonzero;fill:rgb(33.333334%,81.960785%,100%);fill-opacity:1;" d="M 165.820312 112.175781 C 163.316406 112.175781 161.277344 110.140625 161.277344 107.632812 C 161.277344 105.128906 163.3125 103.09375 165.820312 103.09375 C 168.324219 103.09375 170.359375 105.128906 170.359375 107.632812 C 170.359375 110.140625 168.320312 112.175781 165.820312 112.175781 Z M 165.820312 104.070312 C 163.851562 104.070312 162.25 105.671875 162.25 107.636719 C 162.25 109.605469 163.851562 111.207031 165.820312 111.207031 C 167.785156 111.207031 169.386719 109.605469 169.386719 107.636719 C 169.386719 105.671875 167.785156 104.070312 165.820312 104.070312 Z M 165.820312 104.070312 "/>
<path style=" stroke:none;fill-rule:nonzero;fill:rgb(82.745099%,82.745099%,82.745099%);fill-opacity:1;" d="M 293.609375 255.324219 L 56.390625 255.324219 C 52.628906 255.324219 49.582031 252.277344 49.582031 248.519531 C 49.582031 244.761719 52.628906 241.714844 56.390625 241.714844 L 293.609375 241.714844 C 297.371094 241.714844 300.417969 244.761719 300.417969 248.519531 C 300.417969 252.277344 297.371094 255.324219 293.609375 255.324219 Z M 293.609375 255.324219 "/>
<path style=" stroke:none;fill-rule:nonzero;fill:rgb(3.137255%,65.098041%,87.843138%);fill-opacity:1;" d="M 148.453125 147.847656 L 134.429688 147.847656 L 134.429688 133.824219 L 148.453125 133.824219 Z M 134.753906 147.523438 L 148.128906 147.523438 L 148.128906 134.148438 L 134.753906 134.148438 Z M 134.753906 147.523438 "/>
<path style=" stroke:none;fill-rule:nonzero;fill:rgb(3.137255%,65.098041%,87.843138%);fill-opacity:1;" d="M 141.902344 144.753906 L 137.269531 141.113281 L 138.070312 140.097656 L 141.816406 143.035156 L 149.925781 135.222656 L 150.824219 136.15625 Z M 199.5 137.875 L 154.867188 137.875 C 154.574219 137.875 154.335938 137.636719 154.335938 137.347656 C 154.335938 137.054688 154.574219 136.816406 154.867188 136.816406 L 199.5 136.816406 C 199.792969 136.816406 200.027344 137.054688 200.027344 137.347656 C 200.027344 137.636719 199.792969 137.875 199.5 137.875 Z M 199.5 140.199219 L 154.867188 140.199219 C 154.574219 140.199219 154.335938 139.964844 154.335938 139.671875 C 154.335938 139.382812 154.574219 139.144531 154.867188 139.144531 L 199.5 139.144531 C 199.792969 139.144531 200.027344 139.382812 200.027344 139.671875 C 200.027344 139.964844 199.792969 140.199219 199.5 140.199219 Z M 199.5 142.523438 L 154.867188 142.523438 C 154.574219 142.523438 154.335938 142.289062 154.335938 141.996094 C 154.335938 141.703125 154.574219 141.46875 154.867188 141.46875 L 199.5 141.46875 C 199.792969 141.46875 200.027344 141.703125 200.027344 141.996094 C 200.027344 142.289062 199.792969 142.523438 199.5 142.523438 Z M 199.5 144.851562 L 154.867188 144.851562 C 154.574219 144.851562 154.335938 144.613281 154.335938 144.324219 C 154.335938 144.03125 154.574219 143.792969 154.867188 143.792969 L 199.5 143.792969 C 199.792969 143.792969 200.027344 144.03125 200.027344 144.324219 C 200.027344 144.613281 199.792969 144.851562 199.5 144.851562 Z M 148.453125 169.898438 L 134.429688 169.898438 L 134.429688 155.875 L 148.453125 155.875 Z M 134.753906 169.574219 L 148.128906 169.574219 L 148.128906 156.199219 L 134.753906 156.199219 Z M 134.753906 169.574219 "/>
<path style=" stroke:none;fill-rule:nonzero;fill:rgb(3.137255%,65.098041%,87.843138%);fill-opacity:1;" d="M 141.902344 166.808594 L 137.269531 163.167969 L 138.070312 162.152344 L 141.816406 165.089844 L 149.925781 157.277344 L 150.824219 158.210938 Z M 199.5 159.925781 L 154.867188 159.925781 C 154.574219 159.925781 154.335938 159.691406 154.335938 159.398438 C 154.335938 159.105469 154.574219 158.871094 154.867188 158.871094 L 199.5 158.871094 C 199.792969 158.871094 200.027344 159.105469 200.027344 159.398438 C 200.027344 159.691406 199.792969 159.925781 199.5 159.925781 Z M 199.5 162.253906 L 154.867188 162.253906 C 154.574219 162.253906 154.335938 162.019531 154.335938 161.726562 C 154.335938 161.433594 154.574219 161.199219 154.867188 161.199219 L 199.5 161.199219 C 199.792969 161.199219 200.027344 161.433594 200.027344 161.726562 C 200.027344 162.019531 199.792969 162.253906 199.5 162.253906 Z M 199.5 164.578125 L 154.867188 164.578125 C 154.574219 164.578125 154.335938 164.339844 154.335938 164.050781 C 154.335938 163.757812 154.574219 163.519531 154.867188 163.519531 L 199.5 163.519531 C 199.792969 163.519531 200.027344 163.757812 200.027344 164.050781 C 200.027344 164.339844 199.792969 164.578125 199.5 164.578125 Z M 199.5 166.90625 L 154.867188 166.90625 C 154.574219 166.90625 154.335938 166.667969 154.335938 166.375 C 154.335938 166.085938 154.574219 165.847656 154.867188 165.847656 L 199.5 165.847656 C 199.792969 165.847656 200.027344 166.085938 200.027344 166.375 C 200.027344 166.667969 199.792969 166.90625 199.5 166.90625 Z M 148.453125 191.953125 L 134.429688 191.953125 L 134.429688 177.929688 L 148.453125 177.929688 Z M 134.753906 191.628906 L 148.128906 191.628906 L 148.128906 178.253906 L 134.753906 178.253906 Z M 134.753906 191.628906 "/>
<path style=" stroke:none;fill-rule:nonzero;fill:rgb(3.137255%,65.098041%,87.843138%);fill-opacity:1;" d="M 141.902344 188.859375 L 137.269531 185.222656 L 138.070312 184.203125 L 141.816406 187.144531 L 149.925781 179.328125 L 150.824219 180.261719 Z M 199.5 181.980469 L 154.867188 181.980469 C 154.574219 181.980469 154.335938 181.742188 154.335938 181.453125 C 154.335938 181.160156 154.574219 180.925781 154.867188 180.925781 L 199.5 180.925781 C 199.792969 180.925781 200.027344 181.160156 200.027344 181.453125 C 200.027344 181.742188 199.792969 181.980469 199.5 181.980469 Z M 199.5 184.308594 L 154.867188 184.308594 C 154.574219 184.308594 154.335938 184.070312 154.335938 183.777344 C 154.335938 183.488281 154.574219 183.25 154.867188 183.25 L 199.5 183.25 C 199.792969 183.25 200.027344 183.488281 200.027344 183.777344 C 200.027344 184.070312 199.792969 184.308594 199.5 184.308594 Z M 199.5 186.632812 L 154.867188 186.632812 C 154.574219 186.632812 154.335938 186.394531 154.335938 186.101562 C 154.335938 185.8125 154.574219 185.574219 154.867188 185.574219 L 199.5 185.574219 C 199.792969 185.574219 200.027344 185.8125 200.027344 186.101562 C 200.027344 186.394531 199.792969 186.632812 199.5 186.632812 Z M 199.5 188.957031 L 154.867188 188.957031 C 154.574219 188.957031 154.335938 188.722656 154.335938 188.429688 C 154.335938 188.136719 154.574219 187.902344 154.867188 187.902344 L 199.5 187.902344 C 199.792969 187.902344 200.027344 188.136719 200.027344 188.429688 C 200.027344 188.722656 199.792969 188.957031 199.5 188.957031 Z M 148.453125 214.003906 L 134.429688 214.003906 L 134.429688 199.984375 L 148.453125 199.984375 Z M 134.753906 213.679688 L 148.128906 213.679688 L 148.128906 200.308594 L 134.753906 200.308594 Z M 134.753906 213.679688 "/>
<path style=" stroke:none;fill-rule:nonzero;fill:rgb(3.137255%,65.098041%,87.843138%);fill-opacity:1;" d="M 141.902344 210.914062 L 137.269531 207.273438 L 138.070312 206.257812 L 141.816406 209.195312 L 149.925781 201.382812 L 150.824219 202.316406 Z M 199.5 204.035156 L 154.867188 204.035156 C 154.574219 204.035156 154.335938 203.796875 154.335938 203.503906 C 154.335938 203.214844 154.574219 202.976562 154.867188 202.976562 L 199.5 202.976562 C 199.792969 202.976562 200.027344 203.214844 200.027344 203.503906 C 200.027344 203.796875 199.792969 204.035156 199.5 204.035156 Z M 199.5 206.359375 L 154.867188 206.359375 C 154.574219 206.359375 154.335938 206.125 154.335938 205.832031 C 154.335938 205.539062 154.574219 205.304688 154.867188 205.304688 L 199.5 205.304688 C 199.792969 205.304688 200.027344 205.539062 200.027344 205.832031 C 200.027344 206.125 199.792969 206.359375 199.5 206.359375 Z M 199.5 208.683594 L 154.867188 208.683594 C 154.574219 208.683594 154.335938 208.449219 154.335938 208.15625 C 154.335938 207.863281 154.574219 207.628906 154.867188 207.628906 L 199.5 207.628906 C 199.792969 207.628906 200.027344 207.863281 200.027344 208.15625 C 200.027344 208.449219 199.792969 208.683594 199.5 208.683594 Z M 199.5 211.011719 L 154.867188 211.011719 C 154.574219 211.011719 154.335938 210.773438 154.335938 210.484375 C 154.335938 210.191406 154.574219 209.953125 154.867188 209.953125 L 199.5 209.953125 C 199.792969 209.953125 200.027344 210.191406 200.027344 210.484375 C 200.027344 210.773438 199.792969 211.011719 199.5 211.011719 Z M 199.5 211.011719 "/>
<path style=" stroke:none;fill-rule:nonzero;fill:rgb(68.627453%,90.196079%,98.039216%);fill-opacity:1;" d="M 201.757812 188.390625 C 202.484375 187.875 203.152344 187.277344 203.460938 187.105469 C 203.589844 187.03125 203.992188 186.941406 204.105469 186.90625 C 204.441406 186.804688 204.980469 186.703125 205.214844 186.441406 L 206.210938 185.34375 C 206.683594 184.804688 207.304688 184.628906 207.839844 185.101562 C 208.417969 185.613281 208.246094 186.34375 207.667969 186.859375 L 206.984375 187.640625 C 206.527344 188.054688 206.296875 188.636719 206.039062 189.199219 C 205.519531 190.351562 204.34375 191.214844 203.339844 191.824219 C 202.707031 192.203125 201.753906 191.933594 200.5 191.503906 C 199.882812 191.292969 198.992188 190.785156 199.757812 190.496094 C 200.402344 190.257812 202.34375 190.777344 203.199219 188.992188 C 203.238281 188.90625 203.332031 188.671875 203.242188 188.589844 C 202.984375 188.347656 202.410156 188.898438 202.027344 189.074219 C 201.488281 189.320312 201.058594 189.238281 200.925781 189.039062 C 200.785156 188.832031 201.242188 188.761719 201.757812 188.390625 Z M 201.757812 188.390625 "/>
<path style=" stroke:none;fill-rule:nonzero;fill:rgb(33.333334%,81.960785%,100%);fill-opacity:1;" d="M 229.03125 149.214844 C 229.03125 149.214844 227.433594 168.429688 221.6875 174.914062 C 218.226562 178.824219 209.757812 185.527344 207.796875 187.0625 C 207.546875 187.257812 207.195312 187.265625 206.9375 187.085938 C 206.773438 186.96875 206.585938 186.824219 206.421875 186.683594 C 206.257812 186.535156 206.066406 186.328125 205.894531 186.125 C 205.609375 185.792969 205.621094 185.296875 205.917969 184.976562 C 208.117188 182.585938 216.738281 173.121094 217.789062 170.632812 C 218.988281 167.777344 221.0625 150.921875 222.964844 148.480469 C 224.867188 146.035156 228.511719 145.507812 229.03125 149.214844 Z M 229.03125 149.214844 "/>
<path style=" stroke:none;fill-rule:nonzero;fill:rgb(68.627453%,90.196079%,98.039216%);fill-opacity:1;" d="M 221.777344 180.960938 L 226.675781 146.542969 L 239.890625 144.726562 L 246.761719 180.714844 Z M 231.992188 234.292969 L 231.980469 238.171875 C 231.976562 238.960938 232.082031 239.746094 232.296875 240.503906 L 232.632812 241.699219 C 232.910156 242.683594 232.171875 243.65625 231.152344 243.652344 C 228.511719 243.640625 223.992188 243.648438 222.832031 243.652344 C 222.640625 243.652344 222.453125 243.523438 222.4375 243.335938 C 222.339844 242.203125 225.609375 241.441406 228.078125 240.488281 C 229.953125 239.761719 229.851562 236.390625 229.621094 234.417969 C 229.535156 233.671875 230.15625 233.042969 230.902344 233.101562 C 231.519531 233.15625 231.996094 233.671875 231.992188 234.292969 Z M 250.152344 233.203125 L 251.488281 237.640625 C 251.546875 237.839844 251.632812 238.023438 251.75 238.191406 L 252.695312 239.597656 C 253.300781 240.492188 252.867188 241.710938 251.835938 242.023438 C 251.835938 242.023438 249.921875 242.695312 247.957031 243.34375 C 245.941406 244.003906 243.402344 243.453125 243.402344 242.917969 C 243.402344 241.738281 244.503906 242.675781 246.351562 241.441406 C 246.96875 241.027344 247.609375 240.597656 248.179688 240.148438 C 249.765625 238.902344 248.378906 235.746094 247.40625 233.964844 C 247.058594 233.328125 247.429688 232.53125 248.144531 232.378906 L 248.605469 232.285156 C 249.277344 232.144531 249.953125 232.542969 250.152344 233.203125 Z M 250.152344 233.203125 "/>
<path style=" stroke:none;fill-rule:nonzero;fill:rgb(3.137255%,65.098041%,87.843138%);fill-opacity:1;" d="M 236.5 181.292969 L 221.855469 180.066406 C 221.855469 180.066406 220.378906 190.722656 224.082031 210.015625 C 225.816406 219.0625 229.433594 236.355469 229.433594 236.355469 C 230.332031 236.746094 231.242188 236.84375 232.167969 236.613281 C 232.167969 236.613281 232.445312 228.988281 232.613281 220.773438 C 232.777344 212.898438 232.816406 204.480469 233.320312 201.726562 C 234.34375 196.101562 236.5 181.292969 236.5 181.292969 Z M 236.5 181.292969 "/>
<path style=" stroke:none;fill-rule:nonzero;fill:rgb(3.137255%,65.098041%,87.843138%);fill-opacity:1;" d="M 233.476562 181.476562 C 231.960938 189.59375 228.585938 201.726562 235.09375 213.125 C 241.597656 224.523438 248.433594 236.375 248.433594 236.375 C 249.3125 236.410156 250.109375 236.089844 250.851562 235.527344 C 250.851562 235.527344 249.710938 230.363281 248.0625 224.328125 C 246.175781 217.425781 243.789062 209.304688 244.46875 205.074219 C 245.746094 197.140625 247.210938 186.574219 246.765625 181.441406 C 246.320312 176.308594 234.269531 177.214844 233.476562 181.476562 Z M 233.476562 181.476562 "/>
<path style=" stroke:none;fill-rule:nonzero;fill:rgb(94.901961%,94.901961%,94.901961%);fill-opacity:1;" d="M 221.269531 180.085938 L 226.675781 146.542969 L 239.894531 144.726562 L 246.992188 180.144531 C 247.058594 180.464844 246.992188 180.796875 246.8125 181.066406 C 246.628906 181.335938 246.347656 181.523438 246.027344 181.585938 C 243.566406 182.050781 237.632812 183.023438 230.992188 183.023438 C 226.03125 183.023438 223.246094 182.0625 221.976562 181.449219 C 221.464844 181.203125 221.179688 180.644531 221.269531 180.085938 Z M 221.269531 180.085938 "/>
<path style=" stroke:none;fill-rule:nonzero;fill:rgb(68.627453%,90.196079%,98.039216%);fill-opacity:1;" d="M 247.425781 193.066406 C 247.628906 192.203125 247.738281 191.3125 247.851562 190.976562 C 247.902344 190.835938 248.144531 190.503906 248.207031 190.398438 C 248.394531 190.101562 248.726562 189.667969 248.726562 189.316406 L 248.753906 187.835938 C 248.753906 187.121094 249.097656 186.578125 249.8125 186.578125 C 250.585938 186.578125 250.941406 187.242188 250.847656 188.011719 L 250.847656 189.046875 C 250.777344 189.664062 250.992188 190.253906 251.171875 190.847656 C 251.542969 192.054688 251.234375 193.480469 250.882812 194.601562 C 250.660156 195.304688 249.765625 195.734375 248.542969 196.238281 C 247.941406 196.488281 246.933594 196.695312 247.320312 195.972656 C 247.644531 195.367188 249.441406 194.480469 248.90625 192.570312 C 248.878906 192.476562 248.792969 192.242188 248.675781 192.238281 C 248.320312 192.226562 248.253906 193.019531 248.082031 193.402344 C 247.84375 193.945312 247.464844 194.164062 247.230469 194.105469 C 246.988281 194.042969 247.28125 193.6875 247.425781 193.066406 Z M 247.425781 193.066406 "/>
<path style=" stroke:none;fill-rule:nonzero;fill:rgb(33.333334%,81.960785%,100%);fill-opacity:1;" d="M 235.765625 146.820312 C 235.765625 149.234375 236.203125 151.628906 237.027344 153.898438 C 238.640625 158.34375 241.066406 166.742188 239.625 174.144531 C 237.554688 184.804688 234.886719 189.109375 238.339844 191.597656 C 241.792969 194.078125 248.417969 189.9375 248.609375 188.554688 C 248.800781 187.171875 247.320312 170.199219 245.644531 162.847656 C 243.964844 155.492188 239.265625 144.921875 239.265625 144.921875 L 237.277344 145.136719 C 236.417969 145.226562 235.761719 145.953125 235.765625 146.820312 Z M 235.765625 146.820312 "/>
<path style=" stroke:none;fill-rule:nonzero;fill:rgb(33.333334%,81.960785%,100%);fill-opacity:1;" d="M 241.972656 145.640625 C 241.972656 145.640625 253.484375 161.117188 253.460938 169.777344 C 253.449219 175 251.53125 185.625 251.078125 188.078125 C 251.019531 188.386719 250.765625 188.628906 250.449219 188.660156 C 250.246094 188.683594 250.011719 188.699219 249.796875 188.699219 C 249.578125 188.699219 249.292969 188.667969 249.03125 188.628906 C 248.597656 188.566406 248.277344 188.1875 248.289062 187.75 C 248.355469 184.503906 248.566406 171.703125 247.703125 169.140625 C 246.714844 166.203125 237.121094 152.195312 236.933594 149.101562 C 236.742188 146.015625 239.132812 143.207031 241.972656 145.640625 Z M 230.261719 146.050781 C 230.261719 146.050781 227.96875 151.003906 228.765625 158.117188 C 229.566406 165.234375 231.417969 186.90625 224.941406 190.179688 C 222.890625 191.214844 218.207031 186.628906 218.207031 184.921875 C 218.207031 183.21875 219.769531 177.519531 221.25 172.339844 C 222.734375 167.15625 226.300781 146.589844 226.300781 146.589844 Z M 230.261719 146.050781 "/>
<path style=" stroke:none;fill-rule:nonzero;fill:rgb(68.627453%,90.196079%,98.039216%);fill-opacity:1;" d="M 232.105469 130.699219 C 235.054688 130.699219 236.15625 132.800781 236.210938 136.679688 C 236.234375 138.136719 235.578125 139.574219 235.050781 140.496094 C 234.660156 141.179688 234.550781 141.988281 234.777344 142.746094 L 235.421875 144.9375 C 235.863281 146.96875 234.898438 148.085938 233.472656 148.492188 C 232.765625 148.691406 231.921875 148.535156 231.304688 148.136719 C 230.570312 147.664062 230.511719 146.644531 230.648438 145.78125 L 230.816406 145.15625 C 231.042969 144.3125 230.554688 143.40625 229.699219 143.222656 C 227.429688 142.726562 227.105469 140.355469 226.496094 136.679688 C 225.859375 132.851562 229.15625 130.699219 232.105469 130.699219 Z M 232.105469 130.699219 "/>
<path style=" stroke:none;fill-rule:nonzero;fill:rgb(3.137255%,65.098041%,87.843138%);fill-opacity:1;" d="M 225.238281 128.996094 L 226.929688 129.507812 C 227.550781 129.699219 228.214844 129.703125 228.839844 129.523438 L 232.214844 128.542969 C 234.261719 128.542969 237.640625 129.699219 237.210938 132.648438 L 236.835938 134.738281 C 236.6875 135.570312 235.992188 136.195312 235.144531 136.265625 C 235.066406 136.554688 234.804688 136.757812 234.507812 136.757812 C 234.140625 136.757812 233.84375 136.460938 233.84375 136.09375 C 233.84375 135.152344 233.183594 134.351562 232.265625 134.144531 C 231.140625 133.890625 229.9375 133.828125 228.675781 134.167969 C 226.332031 134.800781 223.855469 133.347656 223.621094 130.925781 C 223.605469 130.773438 223.597656 130.617188 223.597656 130.460938 C 223.59375 129.480469 224.402344 128.765625 225.238281 128.996094 Z M 225.238281 128.996094 "/>
<path style=" stroke:none;fill-rule:nonzero;fill:rgb(68.627453%,90.196079%,98.039216%);fill-opacity:1;" d="M 234.585938 136.753906 C 234.585938 137.652344 234.921875 138.382812 235.789062 138.382812 C 236.660156 138.382812 237.210938 137.144531 237.210938 136.242188 C 237.210938 135.34375 236.65625 135.121094 235.789062 135.121094 C 234.921875 135.121094 234.585938 135.855469 234.585938 136.753906 Z M 234.585938 136.753906 "/>
<path style=" stroke:none;fill-rule:nonzero;fill:rgb(54.509807%,81.176472%,90.980393%);fill-opacity:1;" d="M 234.945312 140.707031 C 234.945312 140.707031 232.742188 143.734375 230 143.324219 C 230 143.324219 230.570312 143.597656 230.707031 144.039062 C 230.707031 144.039062 233.3125 143.847656 234.945312 140.707031 Z M 234.945312 140.707031 "/>
<path style=" stroke:none;fill-rule:nonzero;fill:rgb(94.901961%,94.901961%,94.901961%);fill-opacity:1;" d="M 240.785156 98.5 C 240.785156 100.601562 239.398438 102.308594 237.6875 102.308594 L 200.914062 102.308594 C 199.203125 102.308594 197.8125 100.605469 197.8125 98.5 C 197.8125 96.394531 199.199219 94.6875 200.914062 94.6875 L 237.6875 94.6875 C 239.398438 94.691406 240.785156 96.394531 240.785156 98.5 Z M 109.15625 118.902344 C 109.15625 121.007812 107.453125 122.714844 105.347656 122.714844 L 60.164062 122.714844 C 58.0625 122.714844 56.351562 121.007812 56.351562 118.902344 C 56.351562 116.800781 58.058594 115.089844 60.164062 115.089844 L 105.351562 115.089844 C 107.453125 115.089844 109.15625 116.796875 109.15625 118.902344 Z M 127.628906 98.484375 C 127.628906 100.589844 126.21875 102.296875 124.476562 102.296875 L 87.089844 102.296875 C 85.347656 102.296875 83.933594 100.59375 83.933594 98.484375 C 83.933594 96.382812 85.347656 94.675781 87.089844 94.675781 L 124.476562 94.675781 C 126.21875 94.675781 127.628906 96.378906 127.628906 98.484375 Z M 281.042969 115 C 281.042969 117.105469 279.339844 118.8125 277.230469 118.8125 L 232.050781 118.8125 C 229.945312 118.8125 228.238281 117.105469 228.238281 115 C 228.238281 112.898438 229.945312 111.191406 232.050781 111.191406 L 277.234375 111.191406 C 279.339844 111.191406 281.042969 112.898438 281.042969 115 Z M 281.042969 115 "/>
<path style=" stroke:none;fill-rule:nonzero;fill:rgb(3.137255%,65.098041%,87.843138%);fill-opacity:1;" d="M 232.382812 240.808594 C 232.382812 240.808594 230.335938 241.714844 228.425781 240.308594 C 228.425781 240.308594 223.714844 241.0625 222.363281 242.457031 C 221.011719 243.847656 221.992188 244.539062 223.6875 244.511719 C 225.382812 244.480469 231.9375 244.414062 231.9375 244.414062 C 231.9375 244.414062 233.617188 243.386719 232.382812 240.808594 Z M 252.074219 238.523438 C 252.074219 238.523438 251.078125 239.835938 248.839844 239.054688 C 248.839844 239.054688 243.867188 241.328125 242.992188 243.058594 C 242.113281 244.789062 243.25 245.160156 244.863281 244.628906 C 246.476562 244.101562 252.714844 242.097656 252.714844 242.097656 C 252.714844 242.097656 254.015625 240.617188 252.074219 238.523438 Z M 252.074219 238.523438 "/>
</g>
</svg>
