<?xml version="1.0" encoding="UTF-8"?>
<svg xmlns="http://www.w3.org/2000/svg" xmlns:xlink="http://www.w3.org/1999/xlink" width="250px" height="250px" viewBox="0 0 250 250" version="1.1">
<defs>
<filter id="alpha" filterUnits="objectBoundingBox" x="0%" y="0%" width="100%" height="100%">
  <feColorMatrix type="matrix" in="SourceGraphic" values="0 0 0 0 1 0 0 0 0 1 0 0 0 0 1 0 0 0 1 0"/>
</filter>
<mask id="mask0">
  <g filter="url(#alpha)">
<rect x="0" y="0" width="250" height="250" style="fill:rgb(0%,0%,0%);fill-opacity:0.14902;stroke:none;"/>
  </g>
</mask>
<clipPath id="clip1">
  <rect x="0" y="0" width="250" height="250"/>
</clipPath>
<g id="surface5" clip-path="url(#clip1)">
<path style=" stroke:none;fill-rule:nonzero;fill:rgb(52.941179%,86.666667%,99.215686%);fill-opacity:1;" d="M 229.363281 217.984375 L 49.878906 217.984375 C 42.957031 217.984375 36.449219 214.675781 32.378906 209.078125 C 21.691406 194.371094 1.632812 147.398438 20.808594 135.109375 C 39.628906 123.046875 48.515625 134.476562 56.4375 129.265625 C 70.933594 119.726562 41.285156 61.964844 90.195312 61.964844 C 151.710938 65.8125 115.121094 152.90625 124.25 160.507812 C 133.378906 168.105469 160.855469 122.660156 175.242188 148.324219 C 187.222656 169.699219 123.890625 176.09375 138.21875 191.652344 C 143.941406 197.867188 236.617188 176.648438 241.644531 203.398438 C 243.070312 210.996094 237.09375 217.984375 229.363281 217.984375 Z M 229.363281 217.984375 "/>
</g>
<mask id="mask1">
  <g filter="url(#alpha)">
<rect x="0" y="0" width="250" height="250" style="fill:rgb(0%,0%,0%);fill-opacity:0.14902;stroke:none;"/>
  </g>
</mask>
<clipPath id="clip2">
  <rect x="0" y="0" width="250" height="250"/>
</clipPath>
<g id="surface8" clip-path="url(#clip2)">
<path style=" stroke:none;fill-rule:nonzero;fill:rgb(52.941179%,86.666667%,99.215686%);fill-opacity:1;" d="M 76.730469 132.613281 C 76.730469 124.171875 69.890625 117.332031 61.449219 117.332031 C 53.007812 117.332031 46.167969 124.171875 46.167969 132.613281 C 46.167969 141.054688 53.007812 147.894531 61.449219 147.894531 C 69.890625 147.894531 76.730469 141.054688 76.730469 132.613281 Z M 76.730469 132.613281 "/>
</g>
<mask id="mask2">
  <g filter="url(#alpha)">
<rect x="0" y="0" width="250" height="250" style="fill:rgb(0%,0%,0%);fill-opacity:0.501961;stroke:none;"/>
  </g>
</mask>
<clipPath id="clip3">
  <rect x="0" y="0" width="250" height="250"/>
</clipPath>
<g id="surface11" clip-path="url(#clip3)">
<path style=" stroke:none;fill-rule:nonzero;fill:rgb(100%,100%,100%);fill-opacity:1;" d="M 101.878906 192.140625 L 80.578125 192.140625 C 80.40625 192.140625 80.269531 192.277344 80.269531 192.445312 L 80.269531 208.933594 C 80.269531 209.101562 80.40625 209.238281 80.578125 209.238281 L 101.878906 209.238281 C 102.046875 209.238281 102.183594 209.101562 102.183594 208.933594 L 102.183594 192.445312 C 102.183594 192.28125 102.042969 192.140625 101.878906 192.140625 Z M 80.882812 198.246094 L 101.570312 198.246094 L 101.570312 203.132812 L 80.882812 203.132812 Z M 80.882812 192.753906 L 101.570312 192.753906 L 101.570312 197.636719 L 80.882812 197.636719 Z M 101.570312 208.625 L 80.882812 208.625 L 80.882812 203.742188 L 101.570312 203.742188 Z M 101.570312 208.625 "/>
<path style=" stroke:none;fill-rule:nonzero;fill:rgb(100%,100%,100%);fill-opacity:1;" d="M 98.515625 194.453125 C 98.214844 194.453125 97.953125 194.632812 97.839844 194.890625 L 88.21875 194.890625 C 88.046875 194.890625 87.910156 195.027344 87.910156 195.195312 C 87.910156 195.363281 88.046875 195.5 88.21875 195.5 L 97.839844 195.5 C 97.957031 195.757812 98.214844 195.9375 98.515625 195.9375 C 98.929688 195.9375 99.257812 195.605469 99.257812 195.195312 C 99.261719 194.785156 98.929688 194.453125 98.515625 194.453125 Z M 85.15625 193.625 C 84.984375 193.625 84.847656 193.761719 84.847656 193.929688 L 84.847656 196.710938 C 84.847656 196.878906 84.984375 197.015625 85.15625 197.015625 C 85.324219 197.015625 85.460938 196.878906 85.460938 196.710938 L 85.460938 193.929688 C 85.460938 193.761719 85.324219 193.625 85.15625 193.625 Z M 83.832031 193.625 C 83.664062 193.625 83.527344 193.761719 83.527344 193.929688 L 83.527344 196.710938 C 83.527344 196.878906 83.664062 197.015625 83.832031 197.015625 C 84.003906 197.015625 84.140625 196.878906 84.140625 196.710938 L 84.140625 193.929688 C 84.140625 193.761719 84 193.625 83.832031 193.625 Z M 82.507812 193.625 C 82.339844 193.625 82.203125 193.761719 82.203125 193.929688 L 82.203125 196.710938 C 82.203125 196.878906 82.339844 197.015625 82.507812 197.015625 C 82.679688 197.015625 82.816406 196.878906 82.816406 196.710938 L 82.816406 193.929688 C 82.816406 193.761719 82.679688 193.625 82.507812 193.625 Z M 98.515625 199.945312 C 98.214844 199.945312 97.953125 200.125 97.839844 200.382812 L 88.21875 200.382812 C 88.046875 200.382812 87.910156 200.519531 87.910156 200.6875 C 87.910156 200.855469 88.046875 200.992188 88.21875 200.992188 L 97.839844 200.992188 C 97.957031 201.253906 98.214844 201.429688 98.515625 201.429688 C 98.929688 201.429688 99.257812 201.097656 99.257812 200.6875 C 99.261719 200.28125 98.929688 199.945312 98.515625 199.945312 Z M 85.15625 199.121094 C 84.984375 199.121094 84.847656 199.257812 84.847656 199.425781 L 84.847656 202.207031 C 84.847656 202.375 84.984375 202.511719 85.15625 202.511719 C 85.324219 202.511719 85.460938 202.375 85.460938 202.207031 L 85.460938 199.425781 C 85.460938 199.257812 85.324219 199.121094 85.15625 199.121094 Z M 83.832031 199.121094 C 83.664062 199.121094 83.527344 199.257812 83.527344 199.425781 L 83.527344 202.207031 C 83.527344 202.375 83.664062 202.511719 83.832031 202.511719 C 84.003906 202.511719 84.140625 202.375 84.140625 202.207031 L 84.140625 199.425781 C 84.140625 199.257812 84 199.121094 83.832031 199.121094 Z M 82.507812 199.121094 C 82.339844 199.121094 82.203125 199.257812 82.203125 199.425781 L 82.203125 202.207031 C 82.203125 202.375 82.339844 202.511719 82.507812 202.511719 C 82.679688 202.511719 82.816406 202.375 82.816406 202.207031 L 82.816406 199.425781 C 82.816406 199.257812 82.679688 199.121094 82.507812 199.121094 Z M 88.214844 206.492188 L 97.839844 206.492188 C 97.957031 206.75 98.214844 206.929688 98.515625 206.929688 C 98.925781 206.929688 99.257812 206.59375 99.257812 206.183594 C 99.257812 205.773438 98.921875 205.441406 98.515625 205.441406 C 98.214844 205.441406 97.953125 205.621094 97.839844 205.878906 L 88.214844 205.878906 C 88.046875 205.878906 87.910156 206.015625 87.910156 206.183594 C 87.910156 206.355469 88.046875 206.492188 88.214844 206.492188 Z M 85.15625 208.007812 C 85.324219 208.007812 85.460938 207.871094 85.460938 207.703125 L 85.460938 204.921875 C 85.460938 204.753906 85.324219 204.617188 85.15625 204.617188 C 84.984375 204.617188 84.847656 204.753906 84.847656 204.921875 L 84.847656 207.703125 C 84.847656 207.871094 84.984375 208.007812 85.15625 208.007812 Z M 83.832031 208.007812 C 84.003906 208.007812 84.140625 207.871094 84.140625 207.703125 L 84.140625 204.921875 C 84.140625 204.753906 84.003906 204.617188 83.832031 204.617188 C 83.664062 204.617188 83.527344 204.753906 83.527344 204.921875 L 83.527344 207.703125 C 83.527344 207.871094 83.660156 208.007812 83.832031 208.007812 Z M 82.507812 208.007812 C 82.679688 208.007812 82.816406 207.871094 82.816406 207.703125 L 82.816406 204.921875 C 82.816406 204.753906 82.679688 204.617188 82.507812 204.617188 C 82.339844 204.617188 82.203125 204.753906 82.203125 204.921875 L 82.203125 207.703125 C 82.203125 207.871094 82.339844 208.007812 82.507812 208.007812 Z M 82.507812 208.007812 "/>
</g>
<mask id="mask3">
  <g filter="url(#alpha)">
<rect x="0" y="0" width="250" height="250" style="fill:rgb(0%,0%,0%);fill-opacity:0.14902;stroke:none;"/>
  </g>
</mask>
<clipPath id="clip4">
  <rect x="0" y="0" width="250" height="250"/>
</clipPath>
<g id="surface14" clip-path="url(#clip4)">
<path style=" stroke:none;fill-rule:nonzero;fill:rgb(52.941179%,86.666667%,99.215686%);fill-opacity:1;" d="M 216.492188 41.855469 C 216.492188 31.609375 208.1875 23.304688 197.941406 23.304688 C 187.691406 23.304688 179.386719 31.609375 179.386719 41.855469 C 179.386719 52.101562 187.691406 60.410156 197.941406 60.410156 C 208.1875 60.410156 216.492188 52.101562 216.492188 41.855469 Z M 216.492188 41.855469 "/>
</g>
<mask id="mask4">
  <g filter="url(#alpha)">
<rect x="0" y="0" width="250" height="250" style="fill:rgb(0%,0%,0%);fill-opacity:0.0509804;stroke:none;"/>
  </g>
</mask>
<clipPath id="clip5">
  <rect x="0" y="0" width="250" height="250"/>
</clipPath>
<g id="surface17" clip-path="url(#clip5)">
<path style=" stroke:none;fill-rule:nonzero;fill:rgb(52.941179%,86.666667%,99.215686%);fill-opacity:1;" d="M 227.640625 38.964844 C 227.640625 33.464844 223.183594 29.007812 217.683594 29.007812 C 212.1875 29.007812 207.730469 33.464844 207.730469 38.964844 C 207.730469 44.460938 212.1875 48.917969 217.683594 48.917969 C 223.183594 48.917969 227.640625 44.460938 227.640625 38.964844 Z M 227.640625 38.964844 "/>
</g>
</defs>
<g id="surface1">
<use xlink:href="#surface5" mask="url(#mask0)"/>
<use xlink:href="#surface8" mask="url(#mask1)"/>
<use xlink:href="#surface11" mask="url(#mask2)"/>
<path style=" stroke:none;fill-rule:nonzero;fill:rgb(90.196079%,90.196079%,90.196079%);fill-opacity:1;" d="M 32.34375 137.402344 C 32.285156 137.402344 32.222656 137.390625 32.164062 137.359375 C 31.945312 137.261719 31.847656 137.003906 31.945312 136.78125 C 32.253906 136.105469 32.582031 135.410156 32.917969 134.714844 C 33.019531 134.496094 33.28125 134.40625 33.5 134.511719 C 33.71875 134.617188 33.808594 134.878906 33.703125 135.09375 C 33.371094 135.78125 33.046875 136.472656 32.742188 137.144531 C 32.671875 137.304688 32.511719 137.402344 32.34375 137.402344 Z M 35.378906 131.277344 C 35.308594 131.277344 35.238281 131.261719 35.171875 131.226562 C 34.960938 131.113281 34.878906 130.847656 34.996094 130.632812 C 35.714844 129.292969 36.46875 127.953125 37.242188 126.644531 C 37.367188 126.433594 37.632812 126.367188 37.84375 126.492188 C 38.050781 126.613281 38.117188 126.882812 37.996094 127.089844 C 37.226562 128.390625 36.476562 129.71875 35.765625 131.050781 C 35.6875 131.195312 35.535156 131.277344 35.378906 131.277344 Z M 40.023438 123.425781 C 39.941406 123.425781 39.859375 123.402344 39.785156 123.355469 C 39.582031 123.222656 39.527344 122.953125 39.65625 122.75 C 40.484375 121.476562 41.351562 120.203125 42.234375 118.964844 C 42.375 118.765625 42.644531 118.71875 42.84375 118.859375 C 43.039062 119.003906 43.085938 119.273438 42.945312 119.46875 C 42.070312 120.699219 41.210938 121.964844 40.390625 123.226562 C 40.308594 123.355469 40.167969 123.425781 40.023438 123.425781 Z M 45.3125 115.992188 C 45.21875 115.992188 45.125 115.964844 45.042969 115.902344 C 44.855469 115.753906 44.820312 115.476562 44.96875 115.285156 C 45.902344 114.089844 46.871094 112.890625 47.851562 111.730469 C 48.007812 111.546875 48.285156 111.523438 48.46875 111.679688 C 48.652344 111.835938 48.675781 112.113281 48.519531 112.296875 C 47.542969 113.445312 46.582031 114.632812 45.65625 115.824219 C 45.570312 115.933594 45.441406 115.992188 45.3125 115.992188 Z M 51.203125 109.035156 C 51.097656 109.035156 50.992188 108.996094 50.90625 108.917969 C 50.730469 108.753906 50.71875 108.480469 50.882812 108.300781 C 51.910156 107.183594 52.976562 106.074219 54.054688 105 C 54.222656 104.828125 54.5 104.828125 54.671875 105 C 54.84375 105.171875 54.84375 105.445312 54.671875 105.617188 C 53.605469 106.683594 52.546875 107.785156 51.527344 108.894531 C 51.4375 108.984375 51.320312 109.035156 51.203125 109.035156 Z M 57.65625 102.59375 C 57.535156 102.59375 57.417969 102.542969 57.332031 102.453125 C 57.167969 102.273438 57.183594 101.996094 57.359375 101.832031 C 58.476562 100.804688 59.632812 99.785156 60.792969 98.808594 C 60.980469 98.652344 61.253906 98.675781 61.410156 98.859375 C 61.566406 99.042969 61.542969 99.320312 61.359375 99.472656 C 60.207031 100.445312 59.0625 101.457031 57.953125 102.472656 C 57.867188 102.554688 57.757812 102.59375 57.65625 102.59375 Z M 64.617188 96.710938 C 64.488281 96.710938 64.359375 96.652344 64.273438 96.542969 C 64.125 96.351562 64.160156 96.078125 64.351562 95.929688 C 65.554688 94.996094 66.789062 94.082031 68.027344 93.203125 C 68.222656 93.0625 68.496094 93.105469 68.632812 93.304688 C 68.773438 93.503906 68.726562 93.777344 68.53125 93.914062 C 67.304688 94.785156 66.078125 95.695312 64.882812 96.621094 C 64.804688 96.679688 64.714844 96.710938 64.617188 96.710938 Z M 72.046875 91.433594 C 71.90625 91.433594 71.765625 91.363281 71.679688 91.234375 C 71.546875 91.03125 71.605469 90.757812 71.808594 90.628906 C 73.082031 89.804688 74.390625 88.992188 75.699219 88.21875 C 75.90625 88.09375 76.175781 88.164062 76.296875 88.371094 C 76.421875 88.578125 76.351562 88.847656 76.144531 88.96875 C 74.847656 89.734375 73.550781 90.542969 72.289062 91.359375 C 72.214844 91.410156 72.128906 91.433594 72.046875 91.433594 Z M 79.890625 86.792969 C 79.734375 86.792969 79.582031 86.710938 79.503906 86.5625 C 79.390625 86.347656 79.46875 86.085938 79.679688 85.96875 C 81.019531 85.253906 82.390625 84.554688 83.753906 83.890625 C 83.972656 83.785156 84.234375 83.878906 84.339844 84.09375 C 84.441406 84.3125 84.351562 84.574219 84.132812 84.679688 C 82.78125 85.332031 81.417969 86.027344 80.09375 86.738281 C 80.03125 86.777344 79.957031 86.792969 79.890625 86.792969 Z M 88.089844 82.828125 C 87.921875 82.828125 87.757812 82.726562 87.691406 82.5625 C 87.59375 82.339844 87.695312 82.082031 87.917969 81.988281 C 89.308594 81.386719 90.734375 80.804688 92.152344 80.257812 C 92.375 80.171875 92.628906 80.285156 92.714844 80.511719 C 92.800781 80.734375 92.691406 80.992188 92.464844 81.078125 C 91.058594 81.617188 89.644531 82.191406 88.265625 82.792969 C 88.207031 82.816406 88.148438 82.828125 88.089844 82.828125 Z M 96.589844 79.5625 C 96.40625 79.5625 96.238281 79.445312 96.175781 79.265625 C 96.097656 79.035156 96.222656 78.785156 96.453125 78.710938 C 97.890625 78.226562 99.359375 77.765625 100.816406 77.34375 C 101.046875 77.277344 101.289062 77.410156 101.355469 77.644531 C 101.421875 77.875 101.289062 78.117188 101.058594 78.183594 C 99.613281 78.605469 98.15625 79.058594 96.730469 79.539062 C 96.683594 79.554688 96.636719 79.5625 96.589844 79.5625 Z M 163.820312 78.953125 C 163.777344 78.953125 163.730469 78.945312 163.6875 78.933594 C 162.25 78.480469 160.78125 78.054688 159.328125 77.664062 C 159.09375 77.601562 158.957031 77.359375 159.019531 77.128906 C 159.082031 76.894531 159.324219 76.757812 159.554688 76.820312 C 161.023438 77.214844 162.503906 77.644531 163.953125 78.101562 C 164.183594 78.171875 164.308594 78.417969 164.238281 78.652344 C 164.175781 78.832031 164.003906 78.953125 163.820312 78.953125 Z M 105.332031 77.027344 C 105.136719 77.027344 104.957031 76.894531 104.910156 76.695312 C 104.851562 76.460938 104.996094 76.222656 105.230469 76.167969 C 106.703125 75.804688 108.207031 75.472656 109.691406 75.171875 C 109.929688 75.125 110.160156 75.28125 110.207031 75.515625 C 110.253906 75.753906 110.097656 75.984375 109.863281 76.03125 C 108.390625 76.328125 106.902344 76.65625 105.4375 77.015625 C 105.402344 77.023438 105.367188 77.027344 105.332031 77.027344 Z M 155.015625 76.589844 C 154.980469 76.589844 154.949219 76.585938 154.917969 76.578125 C 153.449219 76.246094 151.953125 75.945312 150.46875 75.675781 C 150.230469 75.632812 150.070312 75.40625 150.117188 75.167969 C 150.160156 74.929688 150.382812 74.773438 150.621094 74.816406 C 152.117188 75.089844 153.628906 75.390625 155.109375 75.722656 C 155.34375 75.777344 155.492188 76.011719 155.441406 76.246094 C 155.394531 76.453125 155.214844 76.589844 155.015625 76.589844 Z M 114.257812 75.238281 C 114.046875 75.238281 113.859375 75.082031 113.828125 74.867188 C 113.789062 74.628906 113.953125 74.40625 114.191406 74.367188 C 115.683594 74.132812 117.207031 73.929688 118.714844 73.753906 C 118.953125 73.726562 119.171875 73.902344 119.199219 74.140625 C 119.226562 74.378906 119.054688 74.59375 118.816406 74.621094 C 117.320312 74.792969 115.808594 74.996094 114.324219 75.230469 C 114.300781 75.234375 114.277344 75.238281 114.257812 75.238281 Z M 146.042969 74.96875 C 146.023438 74.96875 146.003906 74.96875 145.984375 74.964844 C 145.085938 74.839844 144.167969 74.726562 143.261719 74.625 C 142.671875 74.558594 142.070312 74.496094 141.472656 74.4375 C 141.234375 74.414062 141.058594 74.203125 141.082031 73.960938 C 141.105469 73.71875 141.316406 73.542969 141.558594 73.566406 C 142.15625 73.625 142.765625 73.6875 143.359375 73.753906 C 144.273438 73.855469 145.195312 73.972656 146.105469 74.097656 C 146.34375 74.128906 146.511719 74.351562 146.476562 74.589844 C 146.445312 74.808594 146.257812 74.96875 146.042969 74.96875 Z M 123.304688 74.207031 C 123.078125 74.207031 122.882812 74.03125 122.867188 73.804688 C 122.851562 73.5625 123.03125 73.355469 123.273438 73.335938 C 124.785156 73.226562 126.328125 73.152344 127.84375 73.105469 C 128.085938 73.101562 128.285156 73.289062 128.292969 73.53125 C 128.296875 73.769531 128.109375 73.972656 127.867188 73.980469 C 126.359375 74.023438 124.839844 74.097656 123.332031 74.207031 C 123.324219 74.207031 123.3125 74.207031 123.304688 74.207031 Z M 136.96875 74.097656 C 136.964844 74.097656 136.953125 74.097656 136.945312 74.097656 C 135.441406 74.015625 133.914062 73.964844 132.410156 73.945312 C 132.167969 73.941406 131.972656 73.742188 131.980469 73.503906 C 131.980469 73.265625 132.179688 73.070312 132.417969 73.070312 C 132.417969 73.070312 132.421875 73.070312 132.421875 73.070312 C 133.941406 73.089844 135.480469 73.144531 136.996094 73.226562 C 137.234375 73.242188 137.421875 73.445312 137.40625 73.6875 C 137.394531 73.917969 137.203125 74.097656 136.96875 74.097656 Z M 170.316406 81.222656 C 170.261719 81.222656 170.207031 81.214844 170.15625 81.191406 C 169.507812 80.941406 168.8125 80.679688 168.035156 80.402344 C 167.808594 80.316406 167.691406 80.066406 167.777344 79.839844 C 167.859375 79.613281 168.109375 79.496094 168.335938 79.578125 C 169.117188 79.859375 169.816406 80.121094 170.472656 80.378906 C 170.695312 80.464844 170.808594 80.71875 170.722656 80.941406 C 170.65625 81.117188 170.492188 81.222656 170.316406 81.222656 Z M 91.226562 139.191406 C 91.191406 139.191406 91.160156 139.183594 91.125 139.179688 C 90.890625 139.121094 90.746094 138.886719 90.800781 138.652344 C 90.972656 137.921875 91.167969 137.179688 91.367188 136.433594 C 91.433594 136.203125 91.671875 136.066406 91.90625 136.128906 C 92.140625 136.195312 92.277344 136.433594 92.210938 136.667969 C 92.007812 137.402344 91.820312 138.140625 91.648438 138.855469 C 91.601562 139.054688 91.421875 139.191406 91.226562 139.191406 Z M 93.160156 132.613281 C 93.109375 132.613281 93.0625 132.605469 93.015625 132.589844 C 92.785156 132.507812 92.667969 132.257812 92.746094 132.03125 C 93.253906 130.585938 93.816406 129.140625 94.421875 127.730469 C 94.519531 127.507812 94.777344 127.40625 94.996094 127.503906 C 95.21875 127.597656 95.320312 127.855469 95.226562 128.078125 C 94.628906 129.464844 94.070312 130.890625 93.570312 132.316406 C 93.507812 132.503906 93.339844 132.613281 93.160156 132.613281 Z M 96.785156 124.199219 C 96.71875 124.199219 96.648438 124.183594 96.585938 124.152344 C 96.371094 124.039062 96.285156 123.777344 96.398438 123.5625 C 97.097656 122.203125 97.855469 120.847656 98.652344 119.535156 C 98.777344 119.328125 99.042969 119.261719 99.25 119.386719 C 99.457031 119.511719 99.523438 119.78125 99.398438 119.984375 C 98.617188 121.28125 97.867188 122.617188 97.175781 123.960938 C 97.09375 124.113281 96.941406 124.199219 96.785156 124.199219 Z M 101.527344 116.359375 C 101.4375 116.359375 101.351562 116.335938 101.277344 116.28125 C 101.078125 116.144531 101.03125 115.871094 101.167969 115.671875 C 102.046875 114.421875 102.984375 113.183594 103.949219 111.992188 C 104.101562 111.804688 104.378906 111.777344 104.566406 111.929688 C 104.753906 112.082031 104.78125 112.355469 104.628906 112.542969 C 103.679688 113.71875 102.753906 114.941406 101.886719 116.179688 C 101.796875 116.296875 101.664062 116.359375 101.527344 116.359375 Z M 107.292969 109.242188 C 107.1875 109.242188 107.082031 109.203125 106.996094 109.125 C 106.820312 108.960938 106.808594 108.683594 106.972656 108.507812 C 108.015625 107.382812 109.109375 106.285156 110.226562 105.238281 C 110.402344 105.074219 110.679688 105.082031 110.84375 105.257812 C 111.007812 105.433594 111.003906 105.714844 110.824219 105.878906 C 109.722656 106.910156 108.640625 107.996094 107.609375 109.105469 C 107.527344 109.195312 107.410156 109.242188 107.292969 109.242188 Z M 113.976562 102.976562 C 113.847656 102.976562 113.722656 102.921875 113.640625 102.816406 C 113.484375 102.628906 113.515625 102.355469 113.703125 102.203125 C 114.886719 101.234375 116.121094 100.292969 117.371094 99.40625 C 117.570312 99.269531 117.84375 99.316406 117.980469 99.511719 C 118.121094 99.707031 118.074219 99.980469 117.878906 100.121094 C 116.644531 100.992188 115.425781 101.921875 114.253906 102.878906 C 114.171875 102.945312 114.074219 102.976562 113.976562 102.976562 Z M 121.453125 97.683594 C 121.304688 97.683594 121.160156 97.609375 121.078125 97.472656 C 120.953125 97.265625 121.019531 96.996094 121.222656 96.871094 C 122.53125 96.074219 123.882812 95.3125 125.242188 94.605469 C 125.457031 94.496094 125.722656 94.578125 125.832031 94.792969 C 125.945312 95.007812 125.859375 95.273438 125.644531 95.382812 C 124.304688 96.078125 122.96875 96.832031 121.679688 97.617188 C 121.609375 97.660156 121.53125 97.683594 121.453125 97.683594 Z M 129.582031 93.46875 C 129.414062 93.46875 129.253906 93.367188 129.183594 93.203125 C 129.089844 92.980469 129.1875 92.722656 129.410156 92.628906 C 130.816406 92.019531 132.257812 91.453125 133.703125 90.941406 C 133.929688 90.859375 134.179688 90.980469 134.257812 91.207031 C 134.339844 91.433594 134.21875 91.683594 133.992188 91.765625 C 132.570312 92.269531 131.144531 92.832031 129.757812 93.429688 C 129.703125 93.457031 129.640625 93.46875 129.582031 93.46875 Z M 138.21875 90.414062 C 138.027344 90.414062 137.847656 90.285156 137.796875 90.09375 C 137.730469 89.859375 137.867188 89.621094 138.097656 89.554688 C 139.574219 89.144531 141.082031 88.78125 142.582031 88.476562 C 142.820312 88.429688 143.050781 88.582031 143.097656 88.816406 C 143.148438 89.054688 142.996094 89.285156 142.757812 89.332031 C 141.277344 89.636719 139.789062 89.996094 138.332031 90.398438 C 138.296875 90.410156 138.257812 90.414062 138.21875 90.414062 Z M 147.191406 88.578125 C 146.976562 88.578125 146.789062 88.417969 146.757812 88.195312 C 146.726562 87.957031 146.894531 87.738281 147.132812 87.707031 C 148.292969 87.550781 149.472656 87.421875 150.640625 87.328125 C 151.003906 87.296875 151.363281 87.269531 151.722656 87.246094 C 151.964844 87.230469 152.171875 87.410156 152.191406 87.652344 C 152.207031 87.894531 152.023438 88.101562 151.78125 88.117188 C 151.425781 88.140625 151.070312 88.167969 150.714844 88.195312 C 149.558594 88.292969 148.394531 88.417969 147.253906 88.570312 C 147.230469 88.574219 147.210938 88.578125 147.191406 88.578125 Z M 160.914062 88.136719 C 160.902344 88.136719 160.894531 88.136719 160.882812 88.136719 C 159.378906 88.03125 157.84375 87.972656 156.332031 87.972656 C 156.089844 87.972656 155.894531 87.777344 155.894531 87.535156 C 155.894531 87.292969 156.089844 87.097656 156.332031 87.097656 C 157.867188 87.097656 159.417969 87.15625 160.941406 87.265625 C 161.183594 87.28125 161.363281 87.492188 161.347656 87.730469 C 161.332031 87.960938 161.140625 88.136719 160.914062 88.136719 Z M 167.738281 88.972656 C 167.714844 88.972656 167.6875 88.972656 167.660156 88.96875 C 166.90625 88.835938 166.15625 88.714844 165.429688 88.617188 C 165.191406 88.582031 165.027344 88.359375 165.058594 88.121094 C 165.089844 87.882812 165.3125 87.71875 165.550781 87.75 C 166.285156 87.851562 167.046875 87.972656 167.8125 88.105469 C 168.050781 88.148438 168.207031 88.375 168.167969 88.613281 C 168.128906 88.824219 167.945312 88.972656 167.738281 88.972656 Z M 167.738281 88.972656 "/>
<path style=" stroke:none;fill-rule:nonzero;fill:rgb(46.666667%,82.352942%,100%);fill-opacity:1;" d="M 97.429688 113.183594 L 104.308594 115.171875 L 105.730469 119.988281 L 94.054688 122.695312 L 92.832031 118.554688 Z M 97.429688 113.183594 "/>
<path style=" stroke:none;fill-rule:nonzero;fill:rgb(94.901961%,94.901961%,94.901961%);fill-opacity:1;" d="M 92.804688 115.269531 L 102.429688 112.429688 L 104.5 119.457031 L 94.871094 122.292969 Z M 92.804688 115.269531 "/>
<path style=" stroke:none;fill-rule:nonzero;fill:rgb(54.11765%,54.509807%,54.509807%);fill-opacity:1;" d="M 94.171875 116.050781 L 101.820312 113.796875 L 101.851562 113.910156 L 94.203125 116.164062 Z M 94.171875 116.050781 "/>
<path style=" stroke:none;fill-rule:nonzero;fill:rgb(54.11765%,54.509807%,54.509807%);fill-opacity:1;" d="M 94.449219 116.996094 L 102.097656 114.742188 L 102.132812 114.855469 L 94.480469 117.109375 Z M 94.449219 116.996094 "/>
<path style=" stroke:none;fill-rule:nonzero;fill:rgb(54.11765%,54.509807%,54.509807%);fill-opacity:1;" d="M 94.726562 117.941406 L 102.378906 115.6875 L 102.410156 115.800781 L 94.761719 118.054688 Z M 94.726562 117.941406 "/>
<path style=" stroke:none;fill-rule:nonzero;fill:rgb(54.11765%,54.509807%,54.509807%);fill-opacity:1;" d="M 95.007812 118.890625 L 102.65625 116.636719 L 102.6875 116.75 L 95.039062 119.003906 Z M 95.007812 118.890625 "/>
<path style=" stroke:none;fill-rule:nonzero;fill:rgb(54.11765%,54.509807%,54.509807%);fill-opacity:1;" d="M 95.285156 119.835938 L 102.9375 117.582031 L 102.96875 117.695312 L 95.320312 119.949219 Z M 95.285156 119.835938 "/>
<path style=" stroke:none;fill-rule:nonzero;fill:rgb(54.11765%,54.509807%,54.509807%);fill-opacity:1;" d="M 95.5625 120.78125 L 103.214844 118.53125 L 103.246094 118.644531 L 95.597656 120.894531 Z M 95.5625 120.78125 "/>
<path style=" stroke:none;fill-rule:nonzero;fill:rgb(66.666669%,87.843138%,100%);fill-opacity:1;" d="M 106.234375 121.707031 L 94.757812 125.085938 L 92.832031 118.554688 L 99.171875 118.90625 L 104.308594 115.171875 Z M 106.234375 121.707031 "/>
<path style=" stroke:none;fill-rule:nonzero;fill:rgb(66.666669%,87.843138%,100%);fill-opacity:1;" d="M 139.828125 174.511719 L 129.683594 169.441406 L 129.683594 171.902344 L 105.957031 171.902344 L 105.957031 177.125 L 129.683594 177.125 L 129.683594 179.582031 Z M 139.828125 174.511719 "/>
<path style=" stroke:none;fill-rule:nonzero;fill:rgb(66.666669%,87.843138%,100%);fill-opacity:1;" d="M 105.957031 184.652344 L 116.097656 189.722656 L 116.097656 187.265625 L 139.828125 187.265625 L 139.828125 182.039062 L 116.097656 182.039062 L 116.097656 179.582031 Z M 105.957031 184.652344 "/>
<path style=" stroke:none;fill-rule:nonzero;fill:rgb(6.27451%,57.254905%,86.666667%);fill-opacity:1;" d="M 119.0625 90.867188 L 139.828125 84.746094 L 139.195312 82.609375 L 119.800781 88.320312 Z M 119.0625 90.867188 "/>
<path style=" stroke:none;fill-rule:nonzero;fill:rgb(94.901961%,94.901961%,94.901961%);fill-opacity:1;" d="M 121.101562 82.375 L 136.898438 77.71875 L 143.277344 99.363281 L 127.480469 104.019531 Z M 121.101562 82.375 "/>
<path style=" stroke:none;fill-rule:nonzero;fill:rgb(54.11765%,54.509807%,54.509807%);fill-opacity:1;" d="M 123.988281 83.761719 L 136.042969 80.210938 L 136.117188 80.460938 L 124.0625 84.011719 Z M 123.988281 83.761719 "/>
<path style=" stroke:none;fill-rule:nonzero;fill:rgb(54.11765%,54.509807%,54.509807%);fill-opacity:1;" d="M 124.617188 85.890625 L 136.671875 82.335938 L 136.746094 82.589844 L 124.691406 86.140625 Z M 124.617188 85.890625 "/>
<path style=" stroke:none;fill-rule:nonzero;fill:rgb(54.11765%,54.509807%,54.509807%);fill-opacity:1;" d="M 125.242188 88.015625 L 137.296875 84.464844 L 137.371094 84.714844 L 125.316406 88.265625 Z M 125.242188 88.015625 "/>
<path style=" stroke:none;fill-rule:nonzero;fill:rgb(54.11765%,54.509807%,54.509807%);fill-opacity:1;" d="M 127.734375 96.480469 L 139.789062 92.929688 L 139.863281 93.179688 L 127.808594 96.734375 Z M 127.734375 96.480469 "/>
<path style=" stroke:none;fill-rule:nonzero;fill:rgb(54.11765%,54.509807%,54.509807%);fill-opacity:1;" d="M 128.367188 98.621094 L 140.421875 95.070312 L 140.496094 95.320312 L 128.441406 98.875 Z M 128.367188 98.621094 "/>
<path style=" stroke:none;fill-rule:nonzero;fill:rgb(54.11765%,54.509807%,54.509807%);fill-opacity:1;" d="M 125.867188 90.144531 L 137.925781 86.59375 L 137.996094 86.84375 L 125.941406 90.398438 Z M 125.867188 90.144531 "/>
<path style=" stroke:none;fill-rule:nonzero;fill:rgb(54.11765%,54.509807%,54.509807%);fill-opacity:1;" d="M 126.496094 92.273438 L 138.550781 88.722656 L 138.625 88.972656 L 126.570312 92.523438 Z M 126.496094 92.273438 "/>
<path style=" stroke:none;fill-rule:nonzero;fill:rgb(54.11765%,54.509807%,54.509807%);fill-opacity:1;" d="M 127.125 94.402344 L 139.179688 90.847656 L 139.253906 91.101562 L 127.199219 94.652344 Z M 127.125 94.402344 "/>
<path style=" stroke:none;fill-rule:nonzero;fill:rgb(6.27451%,65.490198%,99.607843%);fill-opacity:1;" d="M 145.03125 101.152344 L 122.359375 107.832031 L 117.230469 91.40625 L 140.4375 84.570312 Z M 145.03125 101.152344 "/>
<path style=" stroke:none;fill-rule:nonzero;fill:rgb(94.901961%,94.901961%,94.901961%);fill-opacity:1;" d="M 76.347656 74.539062 C 75.804688 74.539062 75.363281 74.980469 75.363281 75.523438 L 75.363281 95.828125 C 75.363281 96.371094 75.804688 96.8125 76.347656 96.8125 L 89.796875 96.8125 C 90.339844 96.8125 90.78125 96.371094 90.78125 95.828125 L 90.78125 76.316406 L 89.042969 74.535156 Z M 76.347656 74.539062 "/>
<path style=" stroke:none;fill-rule:nonzero;fill:rgb(40.000001%,40.000001%,40.000001%);fill-opacity:1;" d="M 78.085938 92.492188 L 88.058594 92.492188 L 88.058594 93.21875 L 78.085938 93.21875 Z M 78.085938 92.492188 "/>
<path style=" stroke:none;fill-rule:nonzero;fill:rgb(40.000001%,40.000001%,40.000001%);fill-opacity:1;" d="M 78.085938 89.621094 L 88.058594 89.621094 L 88.058594 90.347656 L 78.085938 90.347656 Z M 78.085938 89.621094 "/>
<path style=" stroke:none;fill-rule:nonzero;fill:rgb(40.000001%,40.000001%,40.000001%);fill-opacity:1;" d="M 78.085938 86.746094 L 88.058594 86.746094 L 88.058594 87.472656 L 78.085938 87.472656 Z M 78.085938 86.746094 "/>
<path style=" stroke:none;fill-rule:nonzero;fill:rgb(40.000001%,40.000001%,40.000001%);fill-opacity:1;" d="M 78.085938 83.875 L 88.058594 83.875 L 88.058594 84.601562 L 78.085938 84.601562 Z M 78.085938 83.875 "/>
<path style=" stroke:none;fill-rule:nonzero;fill:rgb(40.000001%,40.000001%,40.000001%);fill-opacity:1;" d="M 78.085938 81.003906 L 88.058594 81.003906 L 88.058594 81.730469 L 78.085938 81.730469 Z M 78.085938 81.003906 "/>
<path style=" stroke:none;fill-rule:nonzero;fill:rgb(40.000001%,40.000001%,40.000001%);fill-opacity:1;" d="M 78.085938 78.128906 L 81.929688 78.128906 L 81.929688 78.855469 L 78.085938 78.855469 Z M 78.085938 78.128906 "/>
<path style=" stroke:none;fill-rule:nonzero;fill:rgb(80.000001%,80.000001%,80.000001%);fill-opacity:1;" d="M 90.804688 76.316406 L 89.042969 74.558594 L 89.042969 76.316406 Z M 90.804688 76.316406 "/>
<path style=" stroke:none;fill-rule:nonzero;fill:rgb(94.901961%,94.901961%,94.901961%);fill-opacity:1;" d="M 46.46875 95.753906 C 46.007812 95.753906 45.632812 96.128906 45.632812 96.589844 L 45.632812 113.871094 C 45.632812 114.332031 46.007812 114.707031 46.46875 114.707031 L 57.921875 114.707031 C 58.382812 114.707031 58.757812 114.332031 58.757812 113.871094 L 58.757812 97.269531 L 57.277344 95.753906 Z M 46.46875 95.753906 "/>
<path style=" stroke:none;fill-rule:nonzero;fill:rgb(40.000001%,40.000001%,40.000001%);fill-opacity:1;" d="M 47.949219 111.03125 L 56.441406 111.03125 L 56.441406 111.652344 L 47.949219 111.652344 Z M 47.949219 111.03125 "/>
<path style=" stroke:none;fill-rule:nonzero;fill:rgb(40.000001%,40.000001%,40.000001%);fill-opacity:1;" d="M 47.949219 108.589844 L 56.441406 108.589844 L 56.441406 109.207031 L 47.949219 109.207031 Z M 47.949219 108.589844 "/>
<path style=" stroke:none;fill-rule:nonzero;fill:rgb(40.000001%,40.000001%,40.000001%);fill-opacity:1;" d="M 47.949219 106.144531 L 56.441406 106.144531 L 56.441406 106.761719 L 47.949219 106.761719 Z M 47.949219 106.144531 "/>
<path style=" stroke:none;fill-rule:nonzero;fill:rgb(40.000001%,40.000001%,40.000001%);fill-opacity:1;" d="M 47.949219 103.695312 L 56.441406 103.695312 L 56.441406 104.316406 L 47.949219 104.316406 Z M 47.949219 103.695312 "/>
<path style=" stroke:none;fill-rule:nonzero;fill:rgb(40.000001%,40.000001%,40.000001%);fill-opacity:1;" d="M 47.949219 101.253906 L 56.441406 101.253906 L 56.441406 101.871094 L 47.949219 101.871094 Z M 47.949219 101.253906 "/>
<path style=" stroke:none;fill-rule:nonzero;fill:rgb(40.000001%,40.000001%,40.000001%);fill-opacity:1;" d="M 47.949219 98.808594 L 51.21875 98.808594 L 51.21875 99.425781 L 47.949219 99.425781 Z M 47.949219 98.808594 "/>
<path style=" stroke:none;fill-rule:nonzero;fill:rgb(80.000001%,80.000001%,80.000001%);fill-opacity:1;" d="M 58.773438 97.265625 L 57.273438 95.769531 L 57.273438 97.265625 Z M 58.773438 97.265625 "/>
<path style=" stroke:none;fill-rule:nonzero;fill:rgb(94.901961%,94.901961%,94.901961%);fill-opacity:1;" d="M 29.015625 126.207031 C 28.632812 126.207031 28.320312 126.515625 28.320312 126.902344 L 28.320312 141.285156 C 28.320312 141.667969 28.628906 141.980469 29.015625 141.980469 L 38.542969 141.980469 C 38.925781 141.980469 39.242188 141.671875 39.242188 141.285156 L 39.242188 127.46875 L 38.007812 126.207031 Z M 29.015625 126.207031 "/>
<path style=" stroke:none;fill-rule:nonzero;fill:rgb(40.000001%,40.000001%,40.000001%);fill-opacity:1;" d="M 30.25 138.917969 L 37.3125 138.917969 L 37.3125 139.433594 L 30.25 139.433594 Z M 30.25 138.917969 "/>
<path style=" stroke:none;fill-rule:nonzero;fill:rgb(40.000001%,40.000001%,40.000001%);fill-opacity:1;" d="M 30.25 136.886719 L 37.3125 136.886719 L 37.3125 137.402344 L 30.25 137.402344 Z M 30.25 136.886719 "/>
<path style=" stroke:none;fill-rule:nonzero;fill:rgb(40.000001%,40.000001%,40.000001%);fill-opacity:1;" d="M 30.25 134.851562 L 37.3125 134.851562 L 37.3125 135.367188 L 30.25 135.367188 Z M 30.25 134.851562 "/>
<path style=" stroke:none;fill-rule:nonzero;fill:rgb(40.000001%,40.000001%,40.000001%);fill-opacity:1;" d="M 30.25 132.816406 L 37.3125 132.816406 L 37.3125 133.332031 L 30.25 133.332031 Z M 30.25 132.816406 "/>
<path style=" stroke:none;fill-rule:nonzero;fill:rgb(40.000001%,40.000001%,40.000001%);fill-opacity:1;" d="M 30.25 130.78125 L 37.3125 130.78125 L 37.3125 131.296875 L 30.25 131.296875 Z M 30.25 130.78125 "/>
<path style=" stroke:none;fill-rule:nonzero;fill:rgb(40.000001%,40.000001%,40.000001%);fill-opacity:1;" d="M 30.25 128.75 L 32.972656 128.75 L 32.972656 129.265625 L 30.25 129.265625 Z M 30.25 128.75 "/>
<path style=" stroke:none;fill-rule:nonzero;fill:rgb(80.000001%,80.000001%,80.000001%);fill-opacity:1;" d="M 39.253906 127.46875 L 38.007812 126.21875 L 38.007812 127.46875 Z M 39.253906 127.46875 "/>
<use xlink:href="#surface14" mask="url(#mask3)"/>
<use xlink:href="#surface17" mask="url(#mask4)"/>
<path style=" stroke:none;fill-rule:nonzero;fill:rgb(66.666669%,87.843138%,100%);fill-opacity:1;" d="M 202.546875 51.222656 L 205.539062 51.222656 C 209.929688 51.222656 213.492188 47.660156 213.492188 43.269531 C 213.492188 38.875 209.933594 35.316406 205.539062 35.316406 C 204.476562 35.316406 203.46875 35.523438 202.539062 35.902344 C 202.445312 31.589844 198.921875 28.125 194.589844 28.125 C 190.253906 28.125 186.730469 31.589844 186.636719 35.902344 C 185.710938 35.523438 184.699219 35.316406 183.636719 35.316406 C 179.246094 35.316406 175.683594 38.875 175.683594 43.269531 C 175.683594 47.660156 179.242188 51.222656 183.636719 51.222656 L 186.625 51.222656 "/>
<path style=" stroke:none;fill-rule:nonzero;fill:rgb(100%,100%,100%);fill-opacity:1;" d="M 194.925781 47.847656 L 194.925781 53.390625 L 192.726562 53.390625 L 196.21875 56.882812 L 199.710938 53.390625 L 197.511719 53.390625 L 197.511719 47.847656 "/>
<path style=" stroke:none;fill-rule:nonzero;fill:rgb(100%,100%,100%);fill-opacity:1;" d="M 191.667969 52.351562 L 191.667969 46.816406 L 189.46875 46.816406 L 192.957031 43.328125 L 196.449219 46.816406 L 194.253906 46.816406 L 194.253906 52.34375 "/>
<path style=" stroke:none;fill-rule:nonzero;fill:rgb(94.901961%,94.901961%,94.901961%);fill-opacity:1;" d="M 187.851562 61.964844 C 187.308594 61.964844 186.867188 62.40625 186.867188 62.949219 L 186.867188 83.253906 C 186.867188 83.796875 187.308594 84.238281 187.851562 84.238281 L 201.304688 84.238281 C 201.84375 84.238281 202.285156 83.796875 202.285156 83.253906 L 202.285156 63.746094 L 200.546875 61.964844 Z M 187.851562 61.964844 "/>
<path style=" stroke:none;fill-rule:nonzero;fill:rgb(40.000001%,40.000001%,40.000001%);fill-opacity:1;" d="M 189.589844 79.917969 L 199.5625 79.917969 L 199.5625 80.644531 L 189.589844 80.644531 Z M 189.589844 79.917969 "/>
<path style=" stroke:none;fill-rule:nonzero;fill:rgb(40.000001%,40.000001%,40.000001%);fill-opacity:1;" d="M 189.589844 77.046875 L 199.5625 77.046875 L 199.5625 77.773438 L 189.589844 77.773438 Z M 189.589844 77.046875 "/>
<path style=" stroke:none;fill-rule:nonzero;fill:rgb(40.000001%,40.000001%,40.000001%);fill-opacity:1;" d="M 189.589844 74.171875 L 199.5625 74.171875 L 199.5625 74.902344 L 189.589844 74.902344 Z M 189.589844 74.171875 "/>
<path style=" stroke:none;fill-rule:nonzero;fill:rgb(40.000001%,40.000001%,40.000001%);fill-opacity:1;" d="M 189.589844 71.300781 L 199.5625 71.300781 L 199.5625 72.027344 L 189.589844 72.027344 Z M 189.589844 71.300781 "/>
<path style=" stroke:none;fill-rule:nonzero;fill:rgb(40.000001%,40.000001%,40.000001%);fill-opacity:1;" d="M 189.589844 68.429688 L 199.5625 68.429688 L 199.5625 69.15625 L 189.589844 69.15625 Z M 189.589844 68.429688 "/>
<path style=" stroke:none;fill-rule:nonzero;fill:rgb(40.000001%,40.000001%,40.000001%);fill-opacity:1;" d="M 189.589844 65.554688 L 193.433594 65.554688 L 193.433594 66.28125 L 189.589844 66.28125 Z M 189.589844 65.554688 "/>
<path style=" stroke:none;fill-rule:nonzero;fill:rgb(80.000001%,80.000001%,80.000001%);fill-opacity:1;" d="M 202.308594 63.746094 L 200.546875 61.984375 L 200.546875 63.746094 Z M 202.308594 63.746094 "/>
<path style=" stroke:none;fill-rule:nonzero;fill:rgb(90.196079%,96.470588%,100%);fill-opacity:1;" d="M 68.277344 219.972656 C 68.277344 219.972656 68.253906 220.546875 68.035156 220.703125 L 68.035156 219.972656 Z M 68.277344 219.972656 "/>
<path style=" stroke:none;fill-rule:nonzero;fill:rgb(30.19608%,30.19608%,30.19608%);fill-opacity:1;" d="M 156.894531 101.882812 L 209.679688 101.882812 L 209.679688 224.933594 L 156.894531 224.933594 Z M 156.894531 101.882812 "/>
<path style=" stroke:none;fill-rule:nonzero;fill:rgb(20%,20%,20%);fill-opacity:1;" d="M 209.679688 101.882812 L 220.214844 95.972656 L 220.214844 214.328125 L 209.679688 224.933594 Z M 209.679688 101.882812 "/>
<path style=" stroke:none;fill-rule:nonzero;fill:rgb(50.196081%,50.196081%,50.196081%);fill-opacity:1;" d="M 156.894531 101.882812 L 172.332031 95.972656 L 220.214844 95.972656 L 209.679688 101.882812 Z M 156.894531 101.882812 "/>
<path style=" stroke:none;fill-rule:nonzero;fill:rgb(40.000001%,40.000001%,40.000001%);fill-opacity:1;" d="M 161.273438 107.679688 L 205.304688 107.679688 L 205.304688 117.894531 L 161.273438 117.894531 Z M 161.273438 107.679688 "/>
<path style=" stroke:none;fill-rule:nonzero;fill:rgb(50.196081%,50.196081%,50.196081%);fill-opacity:1;" d="M 179.386719 109.828125 L 201.402344 109.828125 L 201.402344 115.746094 L 179.386719 115.746094 Z M 179.386719 109.828125 "/>
<path style=" stroke:none;fill-rule:nonzero;fill:rgb(0%,77.64706%,100%);fill-opacity:1;" d="M 175.550781 112.785156 C 175.550781 111.691406 174.664062 110.804688 173.570312 110.804688 C 172.476562 110.804688 171.589844 111.691406 171.589844 112.785156 C 171.589844 113.882812 172.476562 114.769531 173.570312 114.769531 C 174.664062 114.769531 175.550781 113.882812 175.550781 112.785156 Z M 175.550781 112.785156 "/>
<path style=" stroke:none;fill-rule:nonzero;fill:rgb(18.039216%,57.254905%,80.000001%);fill-opacity:1;" d="M 169.136719 112.785156 C 169.136719 111.691406 168.25 110.804688 167.15625 110.804688 C 166.0625 110.804688 165.171875 111.691406 165.171875 112.785156 C 165.171875 113.882812 166.0625 114.769531 167.15625 114.769531 C 168.25 114.769531 169.136719 113.882812 169.136719 112.785156 Z M 169.136719 112.785156 "/>
<path style=" stroke:none;fill-rule:nonzero;fill:rgb(40.000001%,40.000001%,40.000001%);fill-opacity:1;" d="M 161.273438 121.84375 L 205.304688 121.84375 L 205.304688 132.058594 L 161.273438 132.058594 Z M 161.273438 121.84375 "/>
<path style=" stroke:none;fill-rule:nonzero;fill:rgb(50.196081%,50.196081%,50.196081%);fill-opacity:1;" d="M 179.386719 123.992188 L 201.402344 123.992188 L 201.402344 129.910156 L 179.386719 129.910156 Z M 179.386719 123.992188 "/>
<path style=" stroke:none;fill-rule:nonzero;fill:rgb(0%,77.64706%,100%);fill-opacity:1;" d="M 175.550781 126.953125 C 175.550781 125.855469 174.664062 124.96875 173.570312 124.96875 C 172.476562 124.96875 171.589844 125.855469 171.589844 126.953125 C 171.589844 128.046875 172.476562 128.933594 173.570312 128.933594 C 174.664062 128.933594 175.550781 128.046875 175.550781 126.953125 Z M 175.550781 126.953125 "/>
<path style=" stroke:none;fill-rule:nonzero;fill:rgb(18.039216%,57.254905%,80.000001%);fill-opacity:1;" d="M 169.136719 126.953125 C 169.136719 125.855469 168.25 124.96875 167.15625 124.96875 C 166.0625 124.96875 165.171875 125.855469 165.171875 126.953125 C 165.171875 128.046875 166.0625 128.933594 167.15625 128.933594 C 168.25 128.933594 169.136719 128.046875 169.136719 126.953125 Z M 169.136719 126.953125 "/>
<path style=" stroke:none;fill-rule:nonzero;fill:rgb(40.000001%,40.000001%,40.000001%);fill-opacity:1;" d="M 161.273438 136.007812 L 205.304688 136.007812 L 205.304688 146.222656 L 161.273438 146.222656 Z M 161.273438 136.007812 "/>
<path style=" stroke:none;fill-rule:nonzero;fill:rgb(50.196081%,50.196081%,50.196081%);fill-opacity:1;" d="M 179.386719 138.152344 L 201.402344 138.152344 L 201.402344 144.070312 L 179.386719 144.070312 Z M 179.386719 138.152344 "/>
<path style=" stroke:none;fill-rule:nonzero;fill:rgb(0%,77.64706%,100%);fill-opacity:1;" d="M 175.550781 141.113281 C 175.550781 140.019531 174.664062 139.132812 173.570312 139.132812 C 172.476562 139.132812 171.589844 140.019531 171.589844 141.113281 C 171.589844 142.207031 172.476562 143.09375 173.570312 143.09375 C 174.664062 143.09375 175.550781 142.207031 175.550781 141.113281 Z M 175.550781 141.113281 "/>
<path style=" stroke:none;fill-rule:nonzero;fill:rgb(18.039216%,57.254905%,80.000001%);fill-opacity:1;" d="M 169.136719 141.113281 C 169.136719 140.019531 168.25 139.132812 167.15625 139.132812 C 166.0625 139.132812 165.171875 140.019531 165.171875 141.113281 C 165.171875 142.207031 166.0625 143.09375 167.15625 143.09375 C 168.25 143.09375 169.136719 142.207031 169.136719 141.113281 Z M 169.136719 141.113281 "/>
<path style=" stroke:none;fill-rule:nonzero;fill:rgb(40.000001%,40.000001%,40.000001%);fill-opacity:1;" d="M 161.273438 150.167969 L 205.304688 150.167969 L 205.304688 160.382812 L 161.273438 160.382812 Z M 161.273438 150.167969 "/>
<path style=" stroke:none;fill-rule:nonzero;fill:rgb(50.196081%,50.196081%,50.196081%);fill-opacity:1;" d="M 179.386719 152.316406 L 201.402344 152.316406 L 201.402344 158.234375 L 179.386719 158.234375 Z M 179.386719 152.316406 "/>
<path style=" stroke:none;fill-rule:nonzero;fill:rgb(0%,77.64706%,100%);fill-opacity:1;" d="M 175.550781 155.277344 C 175.550781 154.183594 174.664062 153.296875 173.570312 153.296875 C 172.476562 153.296875 171.589844 154.183594 171.589844 155.277344 C 171.589844 156.371094 172.476562 157.257812 173.570312 157.257812 C 174.664062 157.257812 175.550781 156.371094 175.550781 155.277344 Z M 175.550781 155.277344 "/>
<path style=" stroke:none;fill-rule:nonzero;fill:rgb(18.039216%,57.254905%,80.000001%);fill-opacity:1;" d="M 169.136719 155.277344 C 169.136719 154.183594 168.25 153.296875 167.15625 153.296875 C 166.0625 153.296875 165.171875 154.183594 165.171875 155.277344 C 165.171875 156.371094 166.0625 157.257812 167.15625 157.257812 C 168.25 157.257812 169.136719 156.371094 169.136719 155.277344 Z M 169.136719 155.277344 "/>
<path style=" stroke:none;fill-rule:nonzero;fill:rgb(40.000001%,40.000001%,40.000001%);fill-opacity:1;" d="M 161.273438 164.332031 L 205.304688 164.332031 L 205.304688 174.546875 L 161.273438 174.546875 Z M 161.273438 164.332031 "/>
<path style=" stroke:none;fill-rule:nonzero;fill:rgb(50.196081%,50.196081%,50.196081%);fill-opacity:1;" d="M 179.386719 166.480469 L 201.402344 166.480469 L 201.402344 172.402344 L 179.386719 172.402344 Z M 179.386719 166.480469 "/>
<path style=" stroke:none;fill-rule:nonzero;fill:rgb(0%,77.64706%,100%);fill-opacity:1;" d="M 175.550781 169.441406 C 175.550781 168.34375 174.664062 167.457031 173.570312 167.457031 C 172.476562 167.457031 171.589844 168.34375 171.589844 169.441406 C 171.589844 170.535156 172.476562 171.421875 173.570312 171.421875 C 174.664062 171.421875 175.550781 170.535156 175.550781 169.441406 Z M 175.550781 169.441406 "/>
<path style=" stroke:none;fill-rule:nonzero;fill:rgb(18.039216%,57.254905%,80.000001%);fill-opacity:1;" d="M 169.136719 169.441406 C 169.136719 168.34375 168.25 167.457031 167.15625 167.457031 C 166.0625 167.457031 165.171875 168.34375 165.171875 169.441406 C 165.171875 170.535156 166.0625 171.421875 167.15625 171.421875 C 168.25 171.421875 169.136719 170.535156 169.136719 169.441406 Z M 169.136719 169.441406 "/>
<path style=" stroke:none;fill-rule:nonzero;fill:rgb(20%,20%,20%);fill-opacity:1;" d="M 64.867188 221.511719 C 64.867188 221.511719 62.792969 226.691406 62.695312 228.476562 C 62.640625 229.527344 62.765625 229.886719 63.121094 230.066406 C 63.394531 230.203125 66.925781 230.234375 68.550781 230.242188 C 69.046875 230.242188 69.46875 229.875 69.539062 229.382812 C 69.59375 229.015625 69.53125 228.269531 69.46875 227.953125 C 69.316406 227.152344 68.671875 223.320312 68.402344 221.632812 C 68.339844 221.253906 68.011719 220.976562 67.625 220.976562 L 65.609375 220.976562 C 65.277344 220.980469 64.976562 221.195312 64.867188 221.511719 Z M 64.867188 221.511719 "/>
<path style=" stroke:none;fill-rule:nonzero;fill:rgb(62.7451%,84.313726%,96.862745%);fill-opacity:1;" d="M 67.691406 222.066406 C 67.035156 222.507812 66.167969 222.492188 65.53125 222.015625 L 65.183594 219.210938 L 68.035156 219.210938 Z M 82.503906 143.480469 C 82.503906 143.480469 83.101562 150.910156 84.589844 151.316406 C 86.070312 151.71875 97.757812 150.492188 97.757812 150.492188 L 102.753906 150.492188 C 102.753906 150.492188 101.605469 152.53125 100.121094 152.328125 C 98.632812 152.121094 97.21875 151.785156 97.21875 151.785156 C 97.21875 151.785156 85.183594 155.433594 82.859375 154.625 C 80.539062 153.816406 79.519531 145.691406 79.519531 145.691406 Z M 82.503906 143.480469 "/>
<path style=" stroke:none;fill-rule:nonzero;fill:rgb(6.27451%,65.490198%,99.607843%);fill-opacity:1;" d="M 80.230469 138.636719 C 81.773438 139.171875 82.703125 142.773438 83.082031 144.394531 C 83.460938 146.015625 83.753906 147.949219 83.753906 147.949219 L 80.234375 148.082031 C 80.234375 148.085938 79.125 138.253906 80.230469 138.636719 Z M 80.230469 138.636719 "/>
<path style=" stroke:none;fill-rule:nonzero;fill:rgb(62.7451%,84.313726%,96.862745%);fill-opacity:1;" d="M 77.023438 218.382812 L 77.378906 223.910156 C 77.378906 223.910156 77.667969 224.621094 78.984375 224.445312 C 80.296875 224.265625 80.230469 223.554688 80.230469 223.554688 L 80.945312 218.382812 Z M 77.023438 218.382812 "/>
<path style=" stroke:none;fill-rule:nonzero;fill:rgb(20%,20%,20%);fill-opacity:1;" d="M 76.953125 222.117188 C 76.753906 222.058594 76.550781 222.191406 76.515625 222.394531 C 76.332031 223.441406 75.839844 226.433594 76.132812 226.578125 C 76.492188 226.757812 79.878906 226.757812 80.769531 227.113281 C 81.660156 227.46875 83.441406 228.359375 85.402344 228.183594 C 87.363281 228.003906 89.855469 228.003906 89.855469 227.46875 C 89.855469 226.933594 89.824219 225.710938 88.59375 225.078125 C 87.359375 224.441406 85.402344 224.441406 84.507812 223.015625 C 83.617188 221.589844 83.105469 220.699219 82.558594 220.34375 C 82.015625 219.984375 80.925781 219.808594 80.667969 220.34375 C 80.410156 220.878906 80.320312 221.679688 80.320312 221.679688 C 80.320312 221.679688 79.519531 221.589844 79.164062 222.125 C 78.808594 222.660156 77.917969 223.195312 77.558594 222.839844 C 77.253906 222.53125 77.535156 222.292969 76.953125 222.117188 Z M 76.953125 222.117188 "/>
<path style=" stroke:none;fill-rule:nonzero;fill:rgb(25.490198%,30.19608%,32.549021%);fill-opacity:1;" d="M 75.417969 190.847656 L 72.570312 172.316406 L 71.679688 164.832031 L 82.191406 165.546875 L 82.726562 191.386719 L 81.300781 219.363281 L 76.570312 219.363281 Z M 75.417969 190.847656 "/>
<path style=" stroke:none;fill-rule:nonzero;fill:rgb(34.117648%,41.568628%,45.09804%);fill-opacity:1;" d="M 77.113281 163.496094 L 73.992188 190.136719 L 68.828125 220.253906 L 64.484375 220.253906 L 64.726562 188.53125 L 64.546875 163.046875 Z M 77.113281 163.496094 "/>
<path style=" stroke:none;fill-rule:nonzero;fill:rgb(6.27451%,65.490198%,99.607843%);fill-opacity:1;" d="M 62.589844 170 C 62.589844 170 75.230469 171.4375 83.082031 169.285156 C 83.082031 169.285156 81.78125 154.53125 81.296875 147.902344 C 80.816406 141.269531 80.230469 138.632812 80.230469 138.632812 L 74.347656 136.496094 C 74.347656 136.496094 74.191406 138.117188 71.367188 137.980469 C 68.542969 137.84375 68.46875 135.605469 68.46875 135.605469 L 62.589844 137.566406 C 62.589844 137.566406 65.050781 146.449219 64.78125 151.824219 C 64.515625 157.203125 62.589844 170 62.589844 170 Z M 62.589844 170 "/>
<path style=" stroke:none;fill-rule:nonzero;fill:rgb(6.27451%,57.254905%,86.666667%);fill-opacity:1;" d="M 69.003906 135.25 C 69.003906 135.25 68.292969 135.25 68.113281 135.429688 C 67.609375 135.933594 68.828125 138.101562 71.5 138.101562 C 74.351562 138.101562 74.753906 136.867188 74.730469 136.503906 C 74.707031 136.140625 69.003906 135.25 69.003906 135.25 Z M 69.003906 135.25 "/>
<path style=" stroke:none;fill-rule:nonzero;fill:rgb(62.7451%,84.313726%,96.862745%);fill-opacity:1;" d="M 69.066406 135.996094 C 69.066406 135.996094 68.988281 130.425781 68.988281 129.738281 C 68.988281 129.738281 70.609375 132.132812 72.3125 132.90625 C 74.011719 133.679688 73.78125 133.605469 73.78125 133.605469 L 73.707031 136.773438 C 73.707031 136.773438 72.933594 137.390625 71.851562 137.390625 C 69.523438 137.386719 69.066406 135.996094 69.066406 135.996094 Z M 69.066406 135.996094 "/>
<path style=" stroke:none;fill-rule:nonzero;fill:rgb(13.725491%,27.058825%,30.980393%);fill-opacity:1;" d="M 71.230469 124.09375 C 71.230469 124.09375 72.554688 124.558594 75.058594 124.945312 C 77.566406 125.332031 77.875 124.714844 77.875 124.714844 C 77.875 124.714844 76.792969 120.539062 73.082031 120.695312 C 69.371094 120.847656 67.789062 123.027344 67.519531 124.714844 C 66.902344 128.578125 68.136719 129.347656 68.136719 129.347656 L 69.0625 132.75 C 69.0625 132.75 69.0625 127.03125 69.371094 127.183594 C 69.683594 127.339844 69.667969 128.707031 69.667969 128.707031 L 70.3125 128.707031 C 70.3125 128.707031 69.988281 127.183594 70.609375 126.410156 C 71.230469 125.640625 71.230469 124.09375 71.230469 124.09375 Z M 71.230469 124.09375 "/>
<path style=" stroke:none;fill-rule:nonzero;fill:rgb(62.7451%,84.313726%,96.862745%);fill-opacity:1;" d="M 69.992188 132.75 C 69.992188 132.75 71.230469 134.757812 73.855469 134.757812 C 75.105469 134.757812 76.019531 133.984375 76.792969 131.667969 C 77.566406 129.347656 77.105469 124.632812 76.792969 124.515625 C 76.484375 124.402344 70.609375 123.472656 70.609375 123.472656 L 68.910156 125.792969 C 68.910156 125.792969 68.292969 130.589844 69.992188 132.75 Z M 69.992188 132.75 "/>
<path style=" stroke:none;fill-rule:nonzero;fill:rgb(13.725491%,27.058825%,30.980393%);fill-opacity:1;" d="M 69.683594 123.167969 C 69.683594 123.167969 70.023438 125.121094 73.46875 125.566406 C 78.261719 126.183594 78.878906 124.019531 78.878906 124.019531 C 78.878906 124.019531 77.953125 124.019531 76.40625 122.160156 C 75.121094 120.621094 69.683594 123.167969 69.683594 123.167969 Z M 69.683594 123.167969 "/>
<path style=" stroke:none;fill-rule:nonzero;fill:rgb(13.725491%,27.058825%,30.980393%);fill-opacity:1;" d="M 72.699219 124.636719 C 72.699219 124.636719 72.082031 126.027344 70.691406 126.957031 C 70.144531 127.320312 70.378906 129.738281 70.378906 129.738281 L 69.847656 129.96875 C 69.847656 129.96875 70.003906 127.867188 69.605469 127.417969 C 69.21875 126.984375 69.144531 128.191406 69.144531 128.191406 L 68.140625 126.414062 C 68.140625 126.414062 68.992188 124.507812 69.492188 123.992188 C 69.992188 123.476562 72.699219 124.636719 72.699219 124.636719 Z M 72.699219 124.636719 "/>
<path style=" stroke:none;fill-rule:nonzero;fill:rgb(62.7451%,84.313726%,96.862745%);fill-opacity:1;" d="M 69.492188 128.152344 C 69.492188 128.152344 69.21875 126.722656 68.292969 127.03125 C 67.367188 127.339844 67.535156 128.957031 67.980469 129.65625 C 68.519531 130.507812 69.453125 130.660156 69.453125 130.660156 M 73.855469 134.761719 C 72.636719 134.84375 71.390625 134.304688 70.558594 133.421875 C 71.546875 134.109375 72.660156 134.597656 73.855469 134.761719 Z M 73.855469 134.761719 "/>
<path style=" stroke:none;fill-rule:nonzero;fill:rgb(62.7451%,84.313726%,96.862745%);fill-opacity:1;" d="M 68.214844 127.574219 C 68.054688 128.535156 68.207031 129.554688 69.140625 130.046875 C 68.054688 129.796875 67.78125 128.476562 68.214844 127.574219 Z M 68.214844 127.574219 "/>
<path style=" stroke:none;fill-rule:nonzero;fill:rgb(6.27451%,57.254905%,86.666667%);fill-opacity:1;" d="M 63.484375 163.667969 C 63.484375 163.667969 65.53125 158.507812 65.886719 154.585938 C 65.976562 153.582031 66.527344 150.390625 66.378906 147.367188 C 66.171875 143.109375 64.105469 142.109375 64.105469 142.109375 C 64.105469 142.109375 65.148438 149.933594 64.714844 153.332031 C 64.28125 156.722656 63.484375 163.667969 63.484375 163.667969 Z M 80.234375 139.261719 C 81.144531 142.105469 81.265625 145.117188 81.300781 148.085938 C 81.046875 146.621094 80.890625 145.144531 80.753906 143.667969 C 80.632812 142.195312 80.378906 140.734375 80.234375 139.261719 Z M 80.234375 139.261719 "/>
<path style=" stroke:none;fill-rule:nonzero;fill:rgb(70.19608%,70.19608%,70.19608%);fill-opacity:1;" d="M 85.902344 150.339844 L 85.902344 150.71875 C 85.902344 150.71875 91.945312 150.957031 93.042969 150.972656 C 94.140625 150.992188 108.929688 150.339844 108.929688 150.339844 L 109.160156 150.175781 L 94.996094 149.371094 Z M 85.902344 150.339844 "/>
<path style=" stroke:none;fill-rule:nonzero;fill:rgb(50.196081%,50.196081%,50.196081%);fill-opacity:1;" d="M 95.117188 149.355469 L 94.996094 149.84375 C 94.996094 149.84375 92.195312 150.347656 90.59375 150.550781 C 88.988281 150.753906 85.902344 150.71875 85.902344 150.71875 L 85.902344 150.339844 Z M 95.117188 149.355469 "/>
<path style=" stroke:none;fill-rule:nonzero;fill:rgb(80.000001%,80.000001%,80.000001%);fill-opacity:1;" d="M 106.972656 137.703125 C 106.972656 137.703125 112.9375 137.953125 113.292969 137.953125 C 113.648438 137.953125 113.652344 138.308594 113.472656 138.84375 C 113.292969 139.378906 109.550781 149.535156 109.375 149.890625 C 109.195312 150.246094 109.195312 150.246094 108.304688 150.246094 C 107.414062 150.246094 95.652344 150.070312 95.296875 150.070312 C 94.941406 150.070312 94.941406 149.890625 95.117188 149.355469 C 95.296875 148.820312 98.859375 138.308594 99.039062 137.773438 C 99.21875 137.238281 99.738281 137.417969 101 137.417969 C 102.957031 137.417969 106.972656 137.703125 106.972656 137.703125 Z M 106.972656 137.703125 "/>
<path style=" stroke:none;fill-rule:nonzero;fill:rgb(62.7451%,84.313726%,96.862745%);fill-opacity:1;" d="M 64.640625 148.085938 C 64.640625 148.085938 63.878906 154.230469 63.878906 155.128906 C 63.878906 156.027344 66.402344 169.402344 66.402344 169.402344 C 66.402344 169.402344 67.613281 170.03125 67.296875 171.160156 C 66.984375 172.285156 65.597656 174.289062 65.394531 173.027344 C 65.191406 171.765625 64.484375 169.539062 64.484375 169.539062 C 64.484375 169.539062 60.679688 156.574219 60.632812 155.042969 C 60.589844 153.515625 60.632812 147.480469 60.632812 147.480469 Z M 64.640625 148.085938 "/>
<path style=" stroke:none;fill-rule:nonzero;fill:rgb(6.27451%,65.490198%,99.607843%);fill-opacity:1;" d="M 62.78125 137.464844 C 63.492188 137.355469 64.304688 138.542969 64.882812 139.617188 C 65.386719 140.554688 65.65625 141.605469 65.679688 142.667969 L 65.621094 149.152344 L 59.5625 149.507812 C 59.558594 149.507812 59.910156 137.917969 62.78125 137.464844 Z M 62.78125 137.464844 "/>
</g>
</svg>
