<?xml version="1.0" encoding="UTF-8"?>
<svg xmlns="http://www.w3.org/2000/svg" xmlns:xlink="http://www.w3.org/1999/xlink" width="450px" height="450px" viewBox="0 0 450 450" version="1.1">
<defs>
<linearGradient id="linear0" gradientUnits="userSpaceOnUse" x1="5611.526855" y1="8407.704102" x2="5630.870117" y2="8407.704102" gradientTransform="matrix(4.419439,7.554788,7.554788,-4.419439,-88263.398681,-5066.778256)">
<stop offset="0" style="stop-color:rgb(85.882353%,94.509804%,97.647059%);stop-opacity:1;"/>
<stop offset="0.61" style="stop-color:rgb(75.686275%,92.156863%,98.039216%);stop-opacity:1;"/>
<stop offset="0.82" style="stop-color:rgb(52.156863%,85.882353%,98.431373%);stop-opacity:1;"/>
<stop offset="1" style="stop-color:rgb(27.45098%,78.039216%,99.215686%);stop-opacity:1;"/>
</linearGradient>
<clipPath id="clip1">
  <path d="M 99 141 L 241 141 L 241 169 L 99 169 Z M 99 141 "/>
</clipPath>
<clipPath id="clip2">
  <path d="M 240.113281 156.601562 C 240.109375 148.296875 233.378906 141.5625 225.070312 141.554688 L 114.097656 141.554688 C 105.789062 141.5625 99.058594 148.296875 99.054688 156.601562 L 99.054688 313.363281 C 99.058594 321.671875 105.789062 328.40625 114.097656 328.414062 L 225.070312 328.414062 C 233.378906 328.40625 240.109375 321.671875 240.113281 313.363281 Z M 240.113281 156.601562 "/>
</clipPath>
<clipPath id="clip3">
  <path d="M 111 151 L 119 151 L 119 159 L 111 159 Z M 111 151 "/>
</clipPath>
<clipPath id="clip4">
  <path d="M 240.113281 156.601562 C 240.109375 148.296875 233.378906 141.5625 225.070312 141.554688 L 114.097656 141.554688 C 105.789062 141.5625 99.058594 148.296875 99.054688 156.601562 L 99.054688 313.363281 C 99.058594 321.671875 105.789062 328.40625 114.097656 328.414062 L 225.070312 328.414062 C 233.378906 328.40625 240.109375 321.671875 240.113281 313.363281 Z M 240.113281 156.601562 "/>
</clipPath>
<clipPath id="clip5">
  <path d="M 122 151 L 131 151 L 131 159 L 122 159 Z M 122 151 "/>
</clipPath>
<clipPath id="clip6">
  <path d="M 240.113281 156.601562 C 240.109375 148.296875 233.378906 141.5625 225.070312 141.554688 L 114.097656 141.554688 C 105.789062 141.5625 99.058594 148.296875 99.054688 156.601562 L 99.054688 313.363281 C 99.058594 321.671875 105.789062 328.40625 114.097656 328.414062 L 225.070312 328.414062 C 233.378906 328.40625 240.109375 321.671875 240.113281 313.363281 Z M 240.113281 156.601562 "/>
</clipPath>
<clipPath id="clip7">
  <path d="M 134 151 L 143 151 L 143 159 L 134 159 Z M 134 151 "/>
</clipPath>
<clipPath id="clip8">
  <path d="M 240.113281 156.601562 C 240.109375 148.296875 233.378906 141.5625 225.070312 141.554688 L 114.097656 141.554688 C 105.789062 141.5625 99.058594 148.296875 99.054688 156.601562 L 99.054688 313.363281 C 99.058594 321.671875 105.789062 328.40625 114.097656 328.414062 L 225.070312 328.414062 C 233.378906 328.40625 240.109375 321.671875 240.113281 313.363281 Z M 240.113281 156.601562 "/>
</clipPath>
<clipPath id="clip9">
  <path d="M 114 204 L 166 204 L 166 235 L 114 235 Z M 114 204 "/>
</clipPath>
<clipPath id="clip10">
  <path d="M 165.554688 209.410156 C 165.554688 195.285156 154.101562 183.835938 139.980469 183.835938 C 125.855469 183.835938 114.40625 195.285156 114.40625 209.410156 C 114.40625 223.53125 125.855469 234.984375 139.980469 234.984375 C 154.101562 234.984375 165.554688 223.53125 165.554688 209.410156 Z M 165.554688 209.410156 "/>
</clipPath>
<linearGradient id="linear1" gradientUnits="userSpaceOnUse" x1="5543.333984" y1="8022.006836" x2="5562.676758" y2="8022.006836" gradientTransform="matrix(-0.917233,1.656367,1.656367,0.917233,-8053.789525,-16327.282794)">
<stop offset="0" style="stop-color:rgb(66.666667%,90.980392%,100%);stop-opacity:1;"/>
<stop offset="1" style="stop-color:rgb(0%,62.745098%,89.019608%);stop-opacity:1;"/>
</linearGradient>
<linearGradient id="linear2" gradientUnits="userSpaceOnUse" x1="5538.454102" y1="8073.809082" x2="5557.796875" y2="8073.809082" gradientTransform="matrix(-0.968658,1.911976,1.911976,0.968658,-9913.969141,-18222.75443)">
<stop offset="0" style="stop-color:rgb(66.666667%,90.980392%,100%);stop-opacity:1;"/>
<stop offset="1" style="stop-color:rgb(0%,62.745098%,89.019608%);stop-opacity:1;"/>
</linearGradient>
<linearGradient id="linear3" gradientUnits="userSpaceOnUse" x1="5375.730957" y1="8464.816406" x2="5395.074219" y2="8464.816406" gradientTransform="matrix(1.258211,1.906295,1.906295,-1.258211,-22583.799094,575.247981)">
<stop offset="0" style="stop-color:rgb(60.392157%,88.235294%,98.431373%);stop-opacity:1;"/>
<stop offset="0.64" style="stop-color:rgb(52.54902%,86.27451%,98.823529%);stop-opacity:1;"/>
<stop offset="0.84" style="stop-color:rgb(31.372549%,80.784314%,99.215686%);stop-opacity:1;"/>
<stop offset="1" style="stop-color:rgb(7.058824%,72.941176%,100%);stop-opacity:1;"/>
</linearGradient>
<linearGradient id="linear4" gradientUnits="userSpaceOnUse" x1="5558.280762" y1="8421.530273" x2="5577.624023" y2="8421.530273" gradientTransform="matrix(2.450355,4.186902,4.186902,-2.450355,-48619.937985,-2409.072768)">
<stop offset="0" style="stop-color:rgb(60.392157%,88.235294%,98.431373%);stop-opacity:1;"/>
<stop offset="0.63" style="stop-color:rgb(51.764706%,85.882353%,98.823529%);stop-opacity:1;"/>
<stop offset="0.83" style="stop-color:rgb(30.588235%,80.784314%,99.215686%);stop-opacity:1;"/>
<stop offset="1" style="stop-color:rgb(7.058824%,72.941176%,100%);stop-opacity:1;"/>
</linearGradient>
<clipPath id="clip11">
  <path d="M 265 208 L 323 208 L 323 274 L 265 274 Z M 265 208 "/>
</clipPath>
<clipPath id="clip12">
  <path d="M 321.316406 227.238281 C 329.882812 247.082031 272.488281 310.664062 253.359375 309.035156 C 234.222656 307.394531 206.503906 217.414062 206.503906 217.414062 L 198.441406 206.855469 L 219.710938 209.546875 L 218.230469 212.433594 C 218.230469 212.433594 248.230469 264.65625 256.382812 268.566406 C 260.4375 270.511719 271.003906 238.546875 293.433594 225.835938 C 317.894531 211.988281 316.417969 215.886719 321.316406 227.238281 Z M 321.316406 227.238281 "/>
</clipPath>
<linearGradient id="linear5" gradientUnits="userSpaceOnUse" x1="5422.76416" y1="8419.123047" x2="5442.105957" y2="8419.123047" gradientTransform="matrix(1.224755,2.234098,2.234098,-1.224755,-25157.023562,-1577.239137)">
<stop offset="0" style="stop-color:rgb(12.54902%,42.352941%,54.901961%);stop-opacity:1;"/>
<stop offset="0.54" style="stop-color:rgb(10.196078%,38.039216%,49.803922%);stop-opacity:1;"/>
<stop offset="1" style="stop-color:rgb(1.960784%,23.137255%,31.764706%);stop-opacity:1;"/>
</linearGradient>
<linearGradient id="linear6" gradientUnits="userSpaceOnUse" x1="5571.575195" y1="8439.413086" x2="5590.917969" y2="8439.413086" gradientTransform="matrix(2.93245,4.189061,4.189061,-2.93245,-51390.197529,1640.416829)">
<stop offset="0" style="stop-color:rgb(12.54902%,42.352941%,54.901961%);stop-opacity:1;"/>
<stop offset="0.51" style="stop-color:rgb(9.803922%,37.647059%,49.411765%);stop-opacity:1;"/>
<stop offset="1" style="stop-color:rgb(1.960784%,23.137255%,31.764706%);stop-opacity:1;"/>
</linearGradient>
<linearGradient id="linear7" gradientUnits="userSpaceOnUse" x1="5888.591797" y1="8676.652344" x2="5907.934082" y2="8676.652344" gradientTransform="matrix(1.148521,-2.178272,-2.178272,-1.148521,12463.912795,22994.991865)">
<stop offset="0" style="stop-color:rgb(0%,0%,0%);stop-opacity:1;"/>
<stop offset="1" style="stop-color:rgb(30.196078%,30.196078%,30.196078%);stop-opacity:1;"/>
</linearGradient>
<linearGradient id="linear8" gradientUnits="userSpaceOnUse" x1="5633.249023" y1="8288.112305" x2="5652.591797" y2="8288.112305" gradientTransform="matrix(-1.675021,3.989004,3.989004,1.675021,-23374.89628,-36038.866667)">
<stop offset="0" style="stop-color:rgb(66.666667%,90.980392%,100%);stop-opacity:1;"/>
<stop offset="0.6" style="stop-color:rgb(52.941176%,86.666667%,99.215686%);stop-opacity:1;"/>
<stop offset="0.81" style="stop-color:rgb(30.980392%,83.921569%,100%);stop-opacity:1;"/>
<stop offset="1" style="stop-color:rgb(1.960784%,74.117647%,90.588235%);stop-opacity:1;"/>
</linearGradient>
<linearGradient id="linear9" gradientUnits="userSpaceOnUse" x1="5527.523926" y1="8348.148438" x2="5546.867188" y2="8348.148438" gradientTransform="matrix(0.485443,3.226979,3.226979,-0.485443,-29296.016679,-13477.808279)">
<stop offset="0" style="stop-color:rgb(60.392157%,88.235294%,98.431373%);stop-opacity:1;"/>
<stop offset="0.47" style="stop-color:rgb(45.882353%,84.313725%,98.823529%);stop-opacity:1;"/>
<stop offset="1" style="stop-color:rgb(7.058824%,72.941176%,100%);stop-opacity:1;"/>
</linearGradient>
<clipPath id="clip13">
  <path d="M 328 219 L 395 219 L 395 274 L 328 274 Z M 328 219 "/>
</clipPath>
<clipPath id="clip14">
  <path d="M 357.761719 219.398438 C 379.292969 221.289062 410.699219 297.117188 397.457031 318.054688 C 384.203125 338.996094 300.613281 341.15625 278.28125 345.035156 C 261.316406 359.855469 254.382812 341.417969 256.816406 341.394531 C 267.617188 341.285156 267.332031 332.621094 267.332031 332.621094 C 267.332031 332.621094 267.507812 331.714844 264.453125 328.027344 C 267.824219 325.65625 275.347656 332.5 275.347656 332.5 C 275.347656 332.5 355.972656 301.488281 363.285156 296.171875 C 366.921875 293.527344 344.210938 269.03125 343.285156 243.269531 C 342.96875 234.4375 345.445312 218.316406 357.761719 219.398438 Z M 357.761719 219.398438 "/>
</clipPath>
<linearGradient id="linear10" gradientUnits="userSpaceOnUse" x1="5553.960938" y1="8280.80957" x2="5573.304199" y2="8280.80957" gradientTransform="matrix(-0.973789,3.152424,3.152424,0.973789,-20327.245003,-25353.463856)">
<stop offset="0" style="stop-color:rgb(12.54902%,42.352941%,54.901961%);stop-opacity:1;"/>
<stop offset="0.49" style="stop-color:rgb(9.803922%,37.647059%,49.019608%);stop-opacity:1;"/>
<stop offset="1" style="stop-color:rgb(1.960784%,23.137255%,31.764706%);stop-opacity:1;"/>
</linearGradient>
</defs>
<g id="surface1">
<path style=" stroke:none;fill-rule:evenodd;fill:rgb(94.901961%,98.039216%,99.215686%);fill-opacity:1;" d="M 223.632812 103.746094 C 304.691406 172.101562 389.777344 145.90625 399.316406 224.582031 C 409.453125 308.207031 382.34375 257.878906 317.054688 310.054688 C 221.765625 386.210938 78.683594 359.640625 73.386719 223.785156 C 69.859375 133.28125 159.234375 49.4375 223.632812 103.746094 Z M 223.632812 103.746094 "/>
<path style=" stroke:none;fill-rule:nonzero;fill:url(#linear0);" d="M 51.667969 287.082031 C 52.382812 285.5 52.8125 283.886719 53.652344 282.550781 C 54.605469 281.25 56.203125 280.246094 57.855469 280.835938 C 65.257812 283.234375 72.699219 283.179688 76.703125 277.0625 C 76.675781 277.15625 76.667969 277.253906 76.671875 277.351562 C 76.671875 277.441406 76.78125 277.476562 76.871094 277.472656 C 76.960938 277.652344 77.304688 277.789062 77.484375 277.878906 C 78.417969 278.296875 79.476562 278.335938 80.492188 278.21875 C 81.78125 278.003906 82.824219 277.152344 83.945312 276.53125 C 84.667969 276.097656 85.429688 275.734375 86.222656 275.445312 C 86.238281 275.863281 86.195312 276.277344 86.09375 276.683594 C 86.050781 276.667969 86.003906 276.675781 85.96875 276.703125 C 85.070312 277.929688 83.195312 278.308594 81.632812 279.207031 C 80.300781 279.847656 79.203125 280.863281 78.269531 282.019531 C 77.382812 283.050781 76.660156 284.214844 76.125 285.464844 C 74.871094 288.179688 74.53125 291.191406 74.390625 294.144531 C 74.378906 294.734375 74.078125 297.90625 75.074219 297.394531 C 76.027344 296.359375 76.53125 295.066406 77.578125 294.390625 C 80.609375 292.242188 84.398438 291.910156 87.085938 289.265625 C 89.789062 286.476562 91.746094 281.105469 88.402344 278.105469 C 87.90625 277.679688 87.335938 277.347656 86.726562 277.121094 C 86.617188 277.085938 86.542969 277.035156 86.4375 277 C 86.589844 276.441406 86.65625 275.859375 86.628906 275.28125 C 87.265625 275.082031 87.929688 274.984375 88.59375 274.988281 C 89.578125 274.976562 90.601562 275.125 91.5625 274.898438 C 93.222656 274.539062 94.53125 273.144531 94.996094 271.511719 C 95.132812 270.988281 95.339844 270.34375 95.332031 269.71875 C 96.160156 270.371094 97.0625 270.984375 98.085938 271.3125 C 99.558594 271.722656 101.402344 271.539062 101.96875 269.851562 C 102.316406 268.773438 102.050781 267.648438 101.949219 266.578125 C 101.851562 265.863281 102.070312 264.804688 102.203125 263.925781 C 102.273438 264.324219 102.425781 264.707031 102.644531 265.046875 C 102.917969 265.492188 103.230469 265.917969 103.539062 266.34375 C 103.386719 268.671875 103.363281 271.25 104.640625 273.289062 C 101.46875 272.808594 100.761719 277.898438 96.332031 275.414062 C 95.753906 275.167969 94.203125 273.988281 94 275.082031 C 93.949219 275.425781 94.097656 275.707031 94.207031 276.011719 C 94.503906 276.761719 94.910156 277.460938 95.414062 278.089844 C 96.9375 279.914062 99.566406 281.261719 101.941406 280.625 C 102.777344 280.417969 103.558594 279.746094 104.070312 279.34375 C 104.683594 278.910156 105.363281 278.574219 106.082031 278.355469 C 107.542969 277.871094 109.113281 277.691406 110.410156 276.886719 C 110.710938 276.691406 110.984375 276.460938 111.226562 276.199219 C 111.4375 277.394531 112.257812 278.546875 114.023438 279.617188 C 116.417969 280.859375 118.789062 281.527344 120.707031 283.507812 C 121.035156 283.792969 121.6875 284.714844 122.125 285.210938 C 122.667969 285.828125 123.058594 285.539062 123.175781 284.804688 C 124 281.949219 124.140625 278.816406 122.820312 276.074219 C 122.210938 274.632812 121.226562 272.980469 120.832031 271.699219 C 120.585938 270.519531 120.613281 269.609375 120.6875 268.355469 C 120.84375 266.550781 121.382812 264.796875 122.269531 263.21875 C 122.585938 262.605469 123.058594 262.046875 123.445312 261.484375 C 124.324219 263.015625 124.492188 265 124.171875 266.558594 C 123.660156 268.800781 122.402344 271.160156 123.359375 273.457031 C 123.75 274.5625 124.496094 275.570312 125.679688 275.863281 C 126.324219 276.070312 127.042969 276.058594 127.671875 276.320312 C 128.03125 276.449219 128.375 276.621094 128.695312 276.828125 L 128.859375 276.878906 C 128.921875 276.863281 128.972656 276.820312 129.003906 276.761719 C 129.035156 276.703125 129.039062 276.632812 129.015625 276.574219 C 129.296875 276.246094 129.5 275.242188 129.625 275.046875 C 131.0625 271.109375 133.25 268.71875 131.761719 264.085938 C 131.582031 263.496094 131.359375 262.917969 131.097656 262.359375 C 131.507812 262.28125 131.902344 262.171875 132.3125 262.09375 C 134.539062 261.53125 136.902344 261.664062 138.816406 262.839844 C 139.445312 263.1875 140.292969 263.695312 140.671875 264.085938 C 140.910156 264.28125 141.039062 264.617188 141.34375 264.6875 C 141.933594 264.605469 141.441406 263.824219 141.398438 263.488281 C 140.875 261.6875 140.605469 259.933594 140.691406 258.179688 C 140.707031 255.066406 142.410156 252.253906 143.265625 249.203125 C 143.878906 246.546875 143.34375 243.671875 142.097656 241.253906 C 140.355469 237.964844 136.484375 235.957031 132.851562 237.289062 L 132.28125 237.582031 C 130.957031 235.878906 128.972656 234.742188 126.941406 234.03125 C 125.648438 233.527344 124.285156 233.332031 122.972656 232.882812 C 120.636719 232.015625 117.902344 230.722656 115.703125 232.21875 C 115.738281 232.109375 115.789062 232.039062 115.804688 231.984375 C 117.210938 229.640625 117.28125 226.8125 117.535156 224.160156 C 117.585938 222.871094 117.804688 221.59375 118.1875 220.359375 C 118.191406 220.371094 118.203125 220.378906 118.210938 220.382812 C 118.222656 220.382812 118.234375 220.382812 118.242188 220.378906 C 119.082031 220.261719 119.875 220.75 120.84375 220.882812 C 121.71875 220.96875 122.597656 220.980469 123.472656 220.921875 C 123.675781 221.402344 123.878906 221.882812 124.1875 222.308594 C 124.914062 223.285156 125.90625 223.988281 127.023438 224.492188 C 129.523438 225.589844 130.660156 223.429688 131.75 221.609375 C 132.152344 220.996094 132.847656 220.59375 133.535156 220.011719 C 134.226562 219.441406 134.796875 218.734375 135.210938 217.933594 C 135.875 216.691406 136.109375 215.132812 135.554688 213.796875 C 135.148438 212.925781 134.214844 212.597656 133.355469 212.320312 C 132.023438 211.925781 130.679688 211.765625 129.386719 211.261719 C 128.453125 210.933594 127.605469 210.421875 126.617188 210.167969 C 125.863281 209.925781 125.042969 209.988281 124.273438 210.070312 C 123.449219 210.25 122.613281 210.351562 121.769531 210.367188 C 122.246094 208.324219 122.632812 206.101562 123.851562 204.707031 C 124.925781 203.386719 126.527344 202.832031 128.15625 202.757812 C 128.398438 202.730469 128.644531 202.757812 128.871094 202.839844 C 129.566406 204.101562 130.441406 205.359375 131.878906 205.792969 C 132.902344 206.207031 134.1875 205.996094 134.96875 205.234375 C 135.097656 205.074219 135.203125 204.898438 135.28125 204.710938 C 135.898438 206.78125 137.199219 207.910156 139.453125 207.738281 C 140.078125 207.730469 140.6875 207.597656 141.3125 207.5 C 141.5625 207.460938 141.847656 207.40625 142.042969 207.261719 C 142.46875 206.949219 142.511719 206.253906 142.0625 205.988281 C 141.414062 205.691406 140.632812 206.007812 139.972656 206.121094 C 139.238281 206.273438 138.777344 206.511719 138.21875 206.304688 C 137.355469 205.9375 136.59375 204.980469 135.832031 204.292969 C 136.992188 204.011719 138.023438 203.390625 138.691406 202.417969 C 139.433594 201.582031 140.269531 201.199219 141.390625 200.933594 C 142.445312 200.707031 143.585938 200.386719 144.308594 199.519531 C 145.332031 198.09375 145.339844 195.839844 143.980469 194.605469 C 141.957031 192.769531 139.554688 193.871094 139.621094 196.625 C 139.613281 197.484375 139.734375 198.59375 139.546875 199.183594 C 139.269531 199.957031 138.597656 200.574219 137.726562 201.066406 C 136.996094 201.398438 136.25 201.785156 135.757812 202.398438 C 135.75 200.375 134.34375 199.390625 132.644531 198.015625 C 131.28125 196.921875 129.714844 196.105469 128.035156 195.621094 C 127.351562 195.433594 126.578125 195.15625 125.867188 195.433594 C 125.101562 195.78125 125.273438 196.726562 125.691406 197.277344 C 126.566406 198.714844 128.296875 199.625 128.386719 201.109375 C 128.480469 201.378906 128.339844 201.808594 128.382812 202.148438 C 126.644531 202.097656 124.828125 202.761719 123.664062 204.082031 C 122.054688 205.765625 121.78125 208.113281 121.269531 210.269531 C 119.875 210.355469 118.445312 210.375 117.050781 210.550781 C 116.996094 210.535156 116.960938 210.554688 116.90625 210.625 C 116.863281 210.601562 116.8125 210.597656 116.765625 210.609375 C 116.675781 210.640625 116.613281 210.71875 116.59375 210.808594 C 116.578125 210.902344 116.609375 210.996094 116.679688 211.058594 C 118.027344 211.738281 119.195312 212.722656 120.097656 213.933594 C 119.179688 216.339844 118.042969 218.679688 117.449219 221.191406 C 116.855469 223.882812 117.085938 226.871094 116.367188 229.3125 C 116.058594 230.550781 115.496094 231.378906 114.972656 232.550781 C 115.027344 232.476562 114.957031 232.601562 114.886719 232.730469 C 114.734375 232.882812 114.613281 233.066406 114.535156 233.269531 L 114.480469 233.253906 C 111.730469 232.375 108.984375 234.464844 106.652344 235.261719 C 105.882812 235.523438 105.042969 235.640625 104.417969 235.738281 C 103.742188 235.816406 101.828125 235.859375 103.179688 236.824219 C 104.550781 237.738281 106.0625 238.492188 107.398438 239.511719 C 108.160156 240.199219 108.871094 241.230469 109.382812 242.226562 C 110.757812 244.980469 111.816406 248.082031 113.777344 250.492188 C 113.761719 250.550781 113.761719 250.613281 113.78125 250.671875 C 114.605469 252.269531 113.855469 253.960938 112.238281 254.839844 C 111.492188 255.226562 110.328125 255.328125 109.421875 255.839844 C 106.832031 254.746094 104.011719 256.605469 102.605469 258.769531 C 102.0625 259.8125 101.882812 261.03125 101.84375 262.175781 C 101.839844 262.53125 101.855469 262.882812 101.890625 263.234375 C 101.769531 263.070312 101.570312 262.984375 101.367188 263.007812 C 100.441406 263.125 99.832031 264.472656 99.460938 264.890625 C 98.964844 265.503906 98.144531 265.746094 97.394531 265.863281 C 98.316406 263.632812 98.679688 260.925781 98.730469 259.28125 C 98.722656 258.746094 98.859375 258.132812 98.78125 257.632812 C 98.847656 257.601562 98.902344 257.542969 98.921875 257.472656 C 98.972656 257.132812 99.753906 256.636719 100.085938 256.0625 C 100.488281 255.359375 100.605469 254.535156 100.59375 253.730469 C 100.679688 252.066406 100 250.480469 98.964844 249.167969 C 97.980469 247.785156 96.203125 247.125 94.960938 246.460938 C 93.246094 245.5 91.855469 244.371094 91.207031 242.589844 C 90.921875 241.777344 90.816406 240.910156 90.890625 240.050781 C 91.074219 238.921875 91 237.117188 89.390625 237.40625 C 87.136719 238.703125 87.21875 244.105469 87.800781 246.371094 C 88.628906 249.8125 90.054688 253.804688 89.503906 257.011719 C 89.300781 258.019531 88.863281 258.738281 88.148438 258.746094 C 88.09375 258.730469 88.058594 258.75 88.003906 258.730469 C 87.269531 257.039062 86.320312 255.460938 85.332031 253.898438 C 85.261719 253.753906 85.171875 253.667969 85.097656 253.523438 C 85.460938 252.996094 85.753906 252.417969 85.96875 251.8125 C 86.257812 251.042969 86.464844 250.242188 86.585938 249.425781 C 86.78125 249.28125 86.667969 248.890625 86.648438 248.675781 C 86.546875 247.601562 85.996094 246.625 85.574219 245.628906 C 84.875 244.097656 84.835938 242.363281 84.171875 240.722656 C 83.292969 238.929688 81.539062 237.445312 79.515625 237.273438 C 79.351562 237.253906 79.191406 237.261719 79.03125 237.296875 C 78.828125 235.972656 78.738281 234.632812 78.769531 233.292969 C 79.730469 232.976562 80.597656 232.304688 80.945312 231.316406 C 81.144531 230.878906 81.234375 230.398438 81.214844 229.917969 C 82.320312 229.617188 83.511719 229.136719 83.980469 228.039062 C 84.085938 227.714844 84.1875 227.394531 84.257812 227.089844 C 84.527344 227.617188 84.871094 228.105469 85.277344 228.542969 C 86.742188 229.8125 88.203125 227.757812 88.867188 226.601562 C 89.816406 225.035156 91.875 223.792969 92.496094 221.761719 C 93.1875 219.785156 92.960938 217.339844 91.472656 215.765625 C 90.476562 214.703125 89.109375 213.96875 87.671875 213.628906 C 86.585938 213.460938 85.472656 213.597656 84.457031 214.023438 L 84.421875 214.042969 C 83.589844 213.515625 82.636719 213.199219 81.652344 213.128906 C 80.222656 212.964844 78.886719 213.609375 77.515625 214 C 77.128906 214.089844 76.726562 214.109375 76.332031 214.070312 L 76.28125 214.050781 C 76.234375 214.027344 76.183594 214.023438 76.136719 214.035156 C 75.550781 212.808594 74.960938 211.582031 74.445312 210.316406 C 74.003906 209.285156 73.542969 208.214844 73.117188 207.128906 C 73.742188 207.214844 74.375 207.164062 74.976562 206.980469 C 75.957031 206.703125 76.714844 205.726562 76.632812 204.6875 C 76.570312 204.046875 76.238281 203.40625 76.269531 202.941406 C 76.246094 202.546875 76.582031 202.238281 76.882812 201.679688 C 77.335938 200.726562 76.855469 199.621094 76.328125 198.769531 C 75.433594 197.386719 73.636719 196.691406 71.992188 196.996094 C 71.402344 197.078125 70.992188 196.972656 70.46875 196.835938 C 71.496094 195.859375 71.796875 194.171875 72.574219 193.144531 C 72.75 192.921875 72.941406 192.714844 73.15625 192.527344 C 73.128906 192.628906 73.164062 192.734375 73.25 192.796875 C 73.253906 192.878906 73.28125 192.957031 73.324219 193.027344 C 73.746094 194.617188 74.492188 196.101562 75.523438 197.382812 C 76.304688 198.464844 77.425781 199.328125 78.804688 199.382812 C 79.539062 199.5 80.214844 199.152344 80.800781 198.804688 C 81.457031 198.421875 82.132812 198.074219 82.808594 197.726562 C 84.558594 196.84375 86.671875 197.109375 88.148438 198.394531 C 88.636719 198.726562 89.019531 199.386719 89.546875 199.878906 C 89.609375 199.988281 89.742188 200.039062 89.863281 199.996094 C 89.980469 199.957031 90.058594 199.839844 90.042969 199.714844 C 90.007812 199.550781 89.84375 199.410156 89.769531 199.269531 C 88.839844 197.902344 88.15625 196.140625 87.121094 194.648438 C 85.773438 192.734375 84.300781 190.746094 82.296875 189.484375 C 80.964844 188.730469 79.386719 188.464844 77.867188 188.480469 C 76.332031 188.507812 74.898438 189.246094 73.988281 190.480469 C 73.699219 190.90625 73.46875 191.375 73.308594 191.863281 C 73.246094 191.890625 73.1875 191.933594 73.148438 191.992188 C 71.855469 192.882812 71.585938 194.285156 70.917969 195.527344 C 70.570312 196.15625 70.304688 196.519531 69.789062 196.828125 L 69.648438 196.902344 C 68.785156 193.746094 68.066406 190.515625 68.296875 187.382812 C 68.308594 187.21875 68.332031 187.058594 68.363281 186.898438 C 68.613281 186.859375 68.882812 186.855469 69.113281 186.78125 C 70.023438 186.539062 70.550781 185.726562 70.808594 184.828125 C 71.222656 183.625 71.257812 182.210938 70.476562 181.128906 C 70.347656 180.96875 70.148438 180.667969 69.949219 180.542969 C 69.972656 180.480469 69.984375 180.414062 69.984375 180.347656 C 70.613281 180.695312 71.238281 180.421875 71.75 180.019531 L 71.769531 180.054688 C 72.003906 180.25 72.363281 180.15625 72.632812 180.242188 C 72.882812 180.292969 73.582031 180.429688 73.796875 180.585938 C 74.484375 180.953125 74.773438 181.433594 75.230469 182.054688 C 75.628906 182.566406 76.160156 182.960938 76.765625 183.199219 C 78.097656 183.863281 79.707031 183.84375 80.417969 184.960938 C 80.984375 185.796875 81.355469 187.132812 82.101562 188.054688 C 82.503906 188.558594 82.953125 189.019531 83.441406 189.433594 C 83.695312 189.664062 84.003906 189.910156 84.34375 189.960938 C 85.222656 190.003906 84.726562 189.132812 84.578125 188.667969 C 84.359375 188.019531 84.234375 187.339844 84.214844 186.652344 C 84.164062 185.507812 84.8125 184.496094 84.78125 183.207031 C 84.839844 182.1875 84.523438 181.226562 84.03125 180.355469 C 83.429688 179.167969 82.558594 178.136719 81.488281 177.34375 C 79.929688 176.207031 77.949219 175.8125 76.070312 176.265625 C 75.179688 176.542969 74.4375 177.109375 73.707031 177.617188 C 72.625 178.398438 71.550781 179.808594 70.625 179.925781 C 70.285156 179.96875 70.28125 179.878906 69.976562 179.71875 C 70.210938 178.339844 70.375 176.996094 70.605469 175.617188 C 70.773438 174.628906 71.277344 173.425781 71.945312 172.359375 C 72 172.378906 72.035156 172.359375 72.105469 172.324219 C 72.78125 171.886719 73.714844 172.304688 74.757812 172.578125 C 76.621094 172.875 78.574219 172.90625 78.542969 170.492188 C 78.535156 169.777344 78.46875 168.863281 78.605469 168.34375 C 78.828125 167.464844 79.121094 166.457031 78.664062 165.570312 C 79.40625 165.003906 80.171875 164.476562 80.953125 163.984375 C 82.277344 163.179688 83.6875 162.515625 85.148438 162 C 85.691406 162.261719 86.230469 162.613281 86.824219 162.714844 C 87.96875 162.933594 89.472656 162.789062 90.441406 162.921875 C 91.605469 163.175781 92.382812 163.808594 93.5 164.316406 C 94.667969 164.75 95.96875 164.484375 97.1875 164.484375 C 97.578125 164.464844 98.441406 164.558594 98.074219 163.9375 C 95.914062 161.40625 93.523438 158.859375 90.394531 157.589844 C 88.144531 156.722656 84.429688 157.019531 83.746094 159.800781 C 83.753906 160.605469 84.085938 161.15625 84.199219 161.816406 C 83.8125 161.960938 83.429688 162.128906 83.0625 162.3125 C 81.410156 163.089844 79.847656 164.042969 78.40625 165.160156 C 77.949219 164.449219 77.246094 163.871094 76.558594 163.414062 C 75.800781 162.902344 75.0625 162.429688 74.183594 162.117188 C 72.457031 161.476562 70.535156 162.554688 69.183594 163.160156 C 68.644531 163.425781 68.054688 163.5625 67.453125 163.558594 C 66.972656 163.582031 66.433594 163.5 66.042969 163.789062 C 65.371094 164.316406 65.523438 165.316406 65.875 165.992188 C 66.109375 166.457031 66.617188 166.734375 67.082031 166.945312 C 67.820312 167.238281 69.070312 167.136719 69.609375 167.21875 C 70.289062 167.316406 70.742188 167.582031 71.070312 168.042969 C 71.207031 168.253906 71.269531 168.503906 71.257812 168.753906 C 71.226562 169.21875 71.089844 169.652344 71.09375 170.097656 C 71.03125 170.671875 71.269531 171.222656 71.597656 171.683594 C 71.625 171.746094 71.667969 171.800781 71.722656 171.84375 C 70.96875 173 70.394531 174.242188 70.160156 175.621094 C 69.890625 177.199219 69.730469 178.722656 69.425781 180.226562 C 69.355469 180.179688 69.277344 180.144531 69.195312 180.125 C 67.375 179.304688 64.933594 177.007812 62.640625 178.324219 C 61.539062 178.804688 60.730469 180.03125 59.949219 180.613281 C 58.421875 181.667969 56.765625 182.027344 55.070312 181.191406 C 53.703125 180.632812 53.339844 181.585938 54.050781 182.707031 C 54.617188 183.539062 55.414062 184.210938 56.277344 184.753906 C 56.964844 185.210938 57.703125 185.59375 58.558594 185.601562 C 59.867188 185.515625 61.273438 184.925781 62.3125 185.109375 C 63.296875 185.277344 64.214844 185.75 65.152344 186.078125 C 65.976562 186.371094 66.910156 186.609375 67.824219 186.636719 C 67.789062 186.796875 67.769531 186.957031 67.757812 187.121094 C 67.632812 188.714844 67.777344 190.304688 68.011719 191.894531 C 68.28125 193.375 68.601562 194.875 68.996094 196.335938 C 68.511719 196.128906 67.976562 196.0625 67.457031 196.140625 C 66.457031 196.296875 65.640625 196.898438 64.714844 197.285156 C 63.859375 197.632812 62.539062 197.777344 61.957031 197.085938 C 61.320312 196.375 60.863281 195.398438 59.890625 195.089844 C 59.136719 194.9375 59.242188 195.917969 59.265625 196.402344 C 59.292969 197.242188 59.695312 198.023438 60.117188 198.753906 C 60.792969 199.945312 61.738281 200.96875 62.871094 201.742188 C 64.261719 202.691406 65.574219 203.140625 66.976562 203.949219 C 68.097656 204.722656 69.199219 205.640625 70.492188 206.140625 C 71.136719 206.421875 71.804688 206.636719 72.488281 206.78125 C 72.820312 207.597656 73.171875 208.453125 73.503906 209.273438 C 74.699219 212.03125 76.035156 214.628906 77 217.371094 C 75.277344 217.089844 73.558594 216.894531 71.9375 216.019531 C 71.039062 215.582031 69.867188 214.972656 68.910156 214.25 C 67.789062 213.386719 65.546875 211.390625 64.824219 213.65625 C 64.550781 214.875 65.03125 216.15625 65.726562 217.152344 C 66.6875 218.410156 67.9375 219.609375 68.527344 220.925781 C 69.675781 224.296875 70.441406 228.222656 73.28125 230.855469 C 74.402344 231.894531 75.632812 233.0625 77.226562 233.183594 C 77.558594 233.195312 77.886719 233.164062 78.210938 233.085938 C 78.195312 233.226562 78.214844 233.351562 78.199219 233.496094 C 78.210938 234.664062 78.316406 235.828125 78.507812 236.980469 C 75.863281 237.265625 73.378906 238.90625 71.703125 240.894531 C 69.789062 243.417969 68.257812 246.210938 67.152344 249.179688 C 66.804688 250.257812 66.121094 251.375 66.476562 252.496094 C 66.792969 253.460938 67.855469 254.125 68.875 254.1875 C 69.644531 254.195312 70.355469 253.828125 71.085938 253.585938 C 71.367188 253.480469 71.652344 253.394531 71.945312 253.324219 C 71.824219 254.171875 71.496094 254.976562 70.988281 255.664062 C 70.230469 256.726562 69.0625 257.871094 68.417969 259.238281 C 67.097656 258.449219 65.5 258.285156 64.046875 258.789062 C 62.175781 259.4375 60.910156 261.082031 59.492188 262.351562 C 58.625 263.203125 58.007812 263.746094 56.792969 263.921875 C 55.703125 264.078125 53.894531 263.886719 52.628906 264.3125 C 51.324219 264.667969 50.425781 265.71875 49.902344 266.886719 C 48.453125 269.75 48.601562 273.09375 48.640625 276.226562 C 48.765625 279.175781 48.730469 282.164062 49.195312 285.074219 C 49.421875 286.128906 49.527344 287.378906 49.96875 288.320312 C 50.820312 289.457031 51.441406 287.425781 51.667969 287.082031 Z M 120.605469 214.570312 C 121.117188 215.476562 121.503906 216.402344 121.945312 217.34375 C 122.367188 218.164062 122.804688 218.925781 123.15625 219.78125 C 123.273438 220.023438 123.375 220.273438 123.453125 220.527344 C 122.484375 220.578125 121.414062 220.589844 120.640625 220.402344 C 119.976562 220.25 119.3125 219.917969 118.613281 219.960938 C 118.585938 219.972656 118.554688 219.972656 118.523438 219.960938 C 119.09375 218.183594 119.875 216.386719 120.605469 214.570312 Z M 115.253906 233.527344 C 115.371094 233.460938 115.457031 233.351562 115.5 233.222656 C 117.355469 231.320312 119.855469 232.238281 122.550781 233.28125 C 124.242188 233.9375 126.050781 234.132812 127.6875 234.863281 C 129.035156 235.382812 130.585938 236.382812 131.511719 237.304688 C 131.710938 237.492188 131.890625 237.703125 132.054688 237.921875 C 130.582031 238.816406 129.433594 240.171875 128.953125 241.863281 C 127.914062 244.738281 127.953125 248.046875 127.289062 250.773438 C 126.722656 252.730469 125.832031 254.496094 124.472656 255.960938 C 123.433594 254.292969 121.789062 254.417969 120.039062 254.960938 C 119.167969 255.183594 118.503906 255.300781 118.070312 254.804688 C 117.742188 254.433594 117.542969 253.953125 117.285156 253.453125 C 117.410156 253.523438 117.574219 253.578125 117.699219 253.644531 C 118.597656 253.902344 119.578125 253.800781 120.472656 253.613281 C 122.449219 252.996094 123.300781 250.714844 123.5625 248.867188 C 123.605469 248.34375 123.519531 247.816406 123.3125 247.332031 C 123.660156 247.277344 124 247.167969 124.308594 247 C 124.96875 246.617188 125.460938 246 125.917969 245.40625 C 127.007812 243.851562 127.253906 241.882812 126.800781 240.042969 C 125.84375 236.171875 122.640625 234.941406 118.957031 234.863281 C 117.703125 234.789062 116.355469 234.265625 115.042969 233.726562 C 115.199219 233.601562 115.21875 233.546875 115.253906 233.527344 Z M 110.804688 256.074219 C 111.714844 255.832031 112.640625 255.621094 113.347656 254.988281 C 114.125 254.308594 114.617188 253.363281 114.730469 252.339844 C 114.746094 252.050781 114.71875 251.761719 114.648438 251.484375 C 114.738281 251.570312 114.828125 251.660156 114.9375 251.785156 C 114.558594 253.058594 114.453125 254.417969 114.378906 255.761719 C 114.351562 256.496094 114.394531 257.195312 114.707031 257.886719 C 114.726562 257.921875 114.691406 257.941406 114.710938 257.976562 C 115.371094 259.347656 116.78125 260.601562 117.472656 261.683594 C 118.261719 263.210938 117.621094 265.117188 116.636719 266.34375 C 115.558594 267.664062 114.214844 268.71875 112.921875 269.878906 L 112.867188 269.773438 C 112.644531 269.363281 112.351562 268.996094 111.996094 268.691406 C 110.65625 267.492188 108.8125 267.316406 107.527344 266.3125 C 106.949219 265.890625 106.691406 265.125 107.023438 264.636719 C 107.058594 264.617188 107.078125 264.566406 107.113281 264.546875 C 107.308594 264.402344 107.523438 264.292969 107.714844 264.144531 C 109.261719 263.214844 110.929688 261.996094 111.226562 260.132812 C 111.332031 259.203125 111.304688 258.261719 111.140625 257.339844 C 111.050781 256.914062 110.9375 256.488281 110.804688 256.074219 Z M 77.640625 267.265625 C 77.796875 267.214844 77.960938 267.175781 78.121094 267.152344 C 78.640625 267.109375 78.910156 267.195312 79.429688 267.332031 C 80.742188 267.78125 82.148438 268.679688 83.605469 269.234375 C 83.570312 269.25 83.570312 269.25 83.550781 269.304688 C 83.171875 270.492188 82.304688 271.253906 80.984375 271.574219 C 79.914062 271.765625 79.117188 272.492188 78.539062 273.375 C 78.382812 273.585938 78.242188 273.808594 78.117188 274.042969 C 78.238281 273.664062 78.394531 273.269531 78.515625 272.890625 C 78.792969 271.839844 78.839844 270.742188 78.652344 269.667969 C 78.5 268.847656 78.117188 268.011719 77.640625 267.265625 Z M 71.621094 256.28125 C 72.203125 255.488281 72.460938 254.589844 72.589844 253.621094 C 72.910156 253.546875 73.25 253.507812 73.535156 253.449219 C 75.199219 253.269531 76.582031 253.679688 77.847656 254.738281 C 78.804688 255.550781 79.921875 256.234375 81.195312 256.253906 C 82.75 256.128906 84.042969 255.234375 84.960938 254.042969 C 86.183594 255.980469 87.351562 257.898438 88.183594 260.125 C 88.644531 261.28125 88.945312 262.386719 89.261719 263.527344 C 88.972656 263.683594 88.640625 263.746094 88.316406 263.703125 C 87.707031 263.65625 86.808594 263.21875 86.070312 263.011719 C 83.753906 262.359375 81.308594 262.675781 79.0625 263.382812 C 77.957031 263.773438 76.785156 264.558594 75.910156 264.691406 C 75.808594 264.691406 75.707031 264.699219 75.605469 264.714844 C 73.796875 264.519531 71.964844 263.847656 70.925781 262.265625 C 70.433594 261.574219 70.066406 260.773438 69.414062 260.207031 C 69.269531 260.101562 69.125 259.996094 68.964844 259.855469 C 69.628906 258.613281 70.6875 257.617188 71.621094 256.28125 Z M 71.621094 256.28125 "/>
<path style=" stroke:none;fill-rule:evenodd;fill:rgb(94.901961%,98.039216%,99.215686%);fill-opacity:1;" d="M 84.941406 303.761719 C 85.339844 306.585938 86.667969 309.488281 88.488281 312.292969 C 90.828125 315.898438 93.898438 319.378906 96.285156 322.34375 C 98.382812 325.007812 100.597656 327.539062 102.902344 329.980469 C 105.210938 332.429688 107.632812 334.761719 110.160156 337 C 113.515625 339.992188 117.0625 342.757812 120.785156 345.28125 C 129.554688 351.199219 139.652344 355.917969 151.570312 359.003906 C 152.820312 359.289062 154.0625 358.507812 154.347656 357.257812 C 154.628906 356.007812 153.847656 354.765625 152.601562 354.480469 C 140.988281 352.160156 130.949219 348.304688 122.289062 342.960938 C 118.566406 340.675781 115.042969 338.074219 111.765625 335.1875 C 109.308594 333.011719 106.992188 330.683594 104.832031 328.214844 C 102.679688 325.746094 100.652344 323.164062 98.761719 320.488281 C 96.65625 317.464844 93.878906 313.917969 91.882812 310.265625 C 90.613281 307.9375 89.695312 305.570312 89.5625 303.3125 C 89.433594 302.039062 88.300781 301.113281 87.027344 301.238281 C 85.757812 301.363281 84.824219 302.492188 84.941406 303.761719 Z M 153.488281 81.902344 C 155.410156 80.390625 157.570312 79.214844 159.855469 78.277344 C 163.429688 76.808594 167.28125 75.886719 170.964844 75.128906 C 179.503906 73.390625 188.367188 72.996094 196.941406 74.296875 C 205.527344 75.597656 213.792969 78.589844 221.15625 83.503906 C 227.296875 87.664062 232.746094 92.769531 238.25 97.761719 C 241.988281 101.164062 245.757812 104.519531 249.824219 107.46875 C 254.195312 110.652344 258.898438 113.378906 264.234375 115.226562 C 268.644531 116.765625 273.089844 117.484375 277.554688 117.828125 C 287.707031 118.605469 297.960938 117.328125 308.085938 119.507812 C 312.273438 120.417969 316.097656 122.003906 319.6875 124.003906 C 325.21875 127.085938 330.203125 131.160156 335.132812 135.332031 C 335.769531 135.863281 336.644531 136.015625 337.425781 135.722656 C 338.207031 135.433594 338.769531 134.75 338.90625 133.929688 C 339.042969 133.109375 338.726562 132.277344 338.082031 131.75 C 332.820312 127.539062 327.492188 123.457031 321.636719 120.394531 C 317.648438 118.316406 313.433594 116.695312 308.832031 115.824219 C 298.492188 113.847656 288.097656 115.363281 277.757812 114.796875 C 273.535156 114.5625 269.320312 113.96875 265.125 112.597656 C 260.023438 110.914062 255.503906 108.390625 251.296875 105.410156 C 247.28125 102.558594 243.550781 99.308594 239.875 95.972656 C 234.285156 90.898438 228.828125 85.636719 222.621094 81.355469 C 215.019531 76.046875 206.40625 72.777344 197.453125 71.1875 C 188.515625 69.597656 179.222656 69.699219 170.238281 71.25 C 166.277344 71.925781 162.136719 72.78125 158.269531 74.21875 C 155.558594 75.222656 152.988281 76.519531 150.675781 78.214844 C 149.65625 78.988281 149.460938 80.445312 150.238281 81.464844 C 151.011719 82.484375 152.46875 82.679688 153.488281 81.902344 Z M 153.488281 81.902344 "/>
<path style=" stroke:none;fill-rule:evenodd;fill:rgb(100%,100%,100%);fill-opacity:1;" d="M 240.113281 156.601562 C 240.109375 148.296875 233.378906 141.5625 225.070312 141.554688 L 114.097656 141.554688 C 105.789062 141.5625 99.058594 148.296875 99.054688 156.601562 L 99.054688 313.363281 C 99.058594 321.671875 105.789062 328.40625 114.097656 328.414062 L 225.070312 328.414062 C 233.378906 328.40625 240.109375 321.671875 240.113281 313.363281 Z M 240.113281 156.601562 "/>
<g clip-path="url(#clip1)" clip-rule="nonzero">
<g clip-path="url(#clip2)" clip-rule="nonzero">
<path style=" stroke:none;fill-rule:evenodd;fill:rgb(13.725491%,57.254905%,75.294119%);fill-opacity:1;" d="M 256.839844 166.0625 L 256.839844 144.480469 C 256.839844 142.867188 255.21875 141.554688 253.226562 141.554688 L 85.945312 141.554688 C 83.953125 141.554688 82.332031 142.867188 82.332031 144.480469 L 82.332031 166.0625 C 82.332031 167.675781 83.953125 168.988281 85.945312 168.988281 L 253.226562 168.988281 C 255.21875 168.988281 256.839844 167.675781 256.839844 166.0625 Z M 256.839844 166.0625 "/>
</g>
</g>
<g clip-path="url(#clip3)" clip-rule="nonzero">
<g clip-path="url(#clip4)" clip-rule="nonzero">
<path style=" stroke:none;fill-rule:nonzero;fill:rgb(100%,100%,100%);fill-opacity:1;" d="M 118.4375 155.269531 C 118.4375 153.21875 116.773438 151.554688 114.71875 151.554688 C 112.667969 151.554688 111.003906 153.21875 111.003906 155.269531 C 111.003906 157.324219 112.667969 158.988281 114.71875 158.988281 C 116.773438 158.988281 118.4375 157.324219 118.4375 155.269531 Z M 118.4375 155.269531 "/>
</g>
</g>
<g clip-path="url(#clip5)" clip-rule="nonzero">
<g clip-path="url(#clip6)" clip-rule="nonzero">
<path style=" stroke:none;fill-rule:nonzero;fill:rgb(100%,100%,100%);fill-opacity:1;" d="M 130.210938 155.269531 C 130.210938 153.21875 128.546875 151.554688 126.496094 151.554688 C 124.441406 151.554688 122.777344 153.21875 122.777344 155.269531 C 122.777344 157.324219 124.441406 158.988281 126.496094 158.988281 C 128.546875 158.988281 130.210938 157.324219 130.210938 155.269531 Z M 130.210938 155.269531 "/>
</g>
</g>
<g clip-path="url(#clip7)" clip-rule="nonzero">
<g clip-path="url(#clip8)" clip-rule="nonzero">
<path style=" stroke:none;fill-rule:nonzero;fill:rgb(100%,100%,100%);fill-opacity:1;" d="M 142.34375 155.269531 C 142.34375 153.21875 140.679688 151.554688 138.628906 151.554688 C 136.574219 151.554688 134.910156 153.21875 134.910156 155.269531 C 134.910156 157.324219 136.574219 158.988281 138.628906 158.988281 C 140.679688 158.988281 142.34375 157.324219 142.34375 155.269531 Z M 142.34375 155.269531 "/>
</g>
</g>
<path style=" stroke:none;fill-rule:nonzero;fill:rgb(89.019608%,96.862745%,99.607843%);fill-opacity:1;" d="M 165.554688 209.410156 C 165.554688 195.285156 154.101562 183.835938 139.980469 183.835938 C 125.855469 183.835938 114.40625 195.285156 114.40625 209.410156 C 114.40625 223.53125 125.855469 234.984375 139.980469 234.984375 C 154.101562 234.984375 165.554688 223.53125 165.554688 209.410156 Z M 165.554688 209.410156 "/>
<g clip-path="url(#clip9)" clip-rule="nonzero">
<g clip-path="url(#clip10)" clip-rule="nonzero">
<path style=" stroke:none;fill-rule:evenodd;fill:url(#linear1);" d="M 114.609375 222.09375 C 127.148438 202.167969 132.941406 201.089844 139.976562 209.011719 C 147.019531 216.933594 149.171875 219.261719 157.21875 215.605469 C 165.257812 211.953125 169.003906 215.914062 171.484375 221.375 C 173.960938 226.835938 140.839844 241.777344 134.714844 241.660156 C 128.585938 241.539062 102.0625 242.019531 114.609375 222.09375 Z M 114.609375 222.09375 "/>
</g>
</g>
<path style=" stroke:none;fill-rule:nonzero;fill:url(#linear2);" d="M 163.367188 195.425781 C 163.367188 190.464844 159.34375 186.441406 154.378906 186.441406 C 149.417969 186.441406 145.394531 190.464844 145.394531 195.425781 C 145.394531 200.390625 149.417969 204.414062 154.378906 204.414062 C 159.34375 204.414062 163.367188 200.390625 163.367188 195.425781 Z M 163.367188 195.425781 "/>
<path style=" stroke:none;fill-rule:evenodd;fill:rgb(89.019608%,96.862745%,99.607843%);fill-opacity:1;" d="M 164.535156 255.246094 C 164.539062 254.644531 164.300781 254.070312 163.875 253.648438 C 163.453125 253.226562 162.878906 252.988281 162.277344 252.992188 L 121.742188 252.992188 C 121.144531 252.992188 120.574219 253.226562 120.152344 253.652344 C 119.730469 254.074219 119.492188 254.648438 119.496094 255.246094 C 119.492188 255.84375 119.730469 256.417969 120.152344 256.839844 C 120.574219 257.265625 121.144531 257.5 121.742188 257.5 L 162.277344 257.5 C 162.878906 257.503906 163.453125 257.265625 163.875 256.84375 C 164.300781 256.421875 164.539062 255.847656 164.535156 255.246094 Z M 164.535156 255.246094 "/>
<path style=" stroke:none;fill-rule:evenodd;fill:rgb(93.725491%,98.039216%,99.607843%);fill-opacity:1;" d="M 233.421875 213.644531 C 233.417969 209.894531 230.375 206.851562 226.625 206.855469 L 179.726562 206.855469 C 175.976562 206.855469 172.9375 209.894531 172.941406 213.644531 C 172.941406 215.445312 173.65625 217.171875 174.925781 218.445312 C 176.199219 219.71875 177.925781 220.433594 179.726562 220.433594 L 226.625 220.433594 C 230.375 220.433594 233.417969 217.398438 233.421875 213.644531 Z M 233.421875 213.644531 "/>
<path style=" stroke:none;fill-rule:evenodd;fill:rgb(89.019608%,96.862745%,99.607843%);fill-opacity:1;" d="M 161.71875 286.691406 C 161.71875 285.449219 160.710938 284.441406 159.46875 284.4375 L 120.488281 284.4375 C 119.246094 284.441406 118.238281 285.449219 118.238281 286.691406 L 118.238281 286.695312 C 118.238281 287.9375 119.246094 288.945312 120.488281 288.949219 L 159.46875 288.949219 C 160.710938 288.945312 161.71875 287.9375 161.71875 286.695312 Z M 214.964844 286.4375 C 214.964844 285.195312 213.957031 284.1875 212.714844 284.183594 L 173.734375 284.183594 C 172.492188 284.1875 171.488281 285.195312 171.484375 286.4375 L 171.484375 286.441406 C 171.484375 287.683594 172.492188 288.691406 173.734375 288.695312 L 212.714844 288.695312 C 213.960938 288.691406 214.964844 287.683594 214.964844 286.441406 Z M 214.964844 263.609375 C 214.964844 263.011719 214.730469 262.4375 214.308594 262.015625 C 213.882812 261.59375 213.304688 261.355469 212.707031 261.355469 L 121.753906 261.355469 C 121.152344 261.355469 120.578125 261.59375 120.152344 262.015625 C 119.730469 262.4375 119.492188 263.011719 119.496094 263.609375 C 119.492188 264.207031 119.730469 264.78125 120.152344 265.203125 C 120.578125 265.628906 121.152344 265.863281 121.753906 265.863281 L 212.707031 265.863281 C 213.304688 265.863281 213.882812 265.625 214.308594 265.203125 C 214.730469 264.78125 214.964844 264.207031 214.964844 263.609375 Z M 161.71875 295.058594 C 161.71875 293.8125 160.710938 292.804688 159.46875 292.804688 L 120.488281 292.804688 C 119.246094 292.804688 118.238281 293.8125 118.238281 295.058594 C 118.238281 296.300781 119.246094 297.308594 120.488281 297.3125 L 159.46875 297.3125 C 160.710938 297.308594 161.71875 296.300781 161.71875 295.058594 Z M 214.964844 294.804688 C 214.964844 293.558594 213.957031 292.550781 212.714844 292.550781 L 173.734375 292.550781 C 172.492188 292.550781 171.484375 293.558594 171.484375 294.804688 C 171.488281 296.046875 172.492188 297.054688 173.734375 297.058594 L 212.714844 297.058594 C 213.960938 297.054688 214.964844 296.046875 214.964844 294.804688 Z M 214.964844 272.480469 C 214.964844 271.882812 214.730469 271.308594 214.308594 270.886719 C 213.882812 270.464844 213.304688 270.226562 212.707031 270.226562 L 121.753906 270.226562 C 121.152344 270.226562 120.578125 270.464844 120.152344 270.886719 C 119.730469 271.308594 119.492188 271.882812 119.496094 272.480469 C 119.492188 273.078125 119.730469 273.652344 120.152344 274.074219 C 120.578125 274.5 121.152344 274.734375 121.753906 274.734375 L 212.707031 274.734375 C 213.304688 274.734375 213.882812 274.5 214.308594 274.074219 C 214.730469 273.652344 214.964844 273.078125 214.964844 272.480469 Z M 161.71875 303.929688 C 161.71875 302.683594 160.710938 301.675781 159.46875 301.675781 L 120.488281 301.675781 C 119.246094 301.675781 118.238281 302.683594 118.238281 303.929688 C 118.238281 305.171875 119.246094 306.183594 120.488281 306.183594 L 159.46875 306.183594 C 160.710938 306.183594 161.71875 305.171875 161.71875 303.929688 Z M 214.964844 303.675781 C 214.964844 302.429688 213.957031 301.421875 212.714844 301.421875 L 173.734375 301.421875 C 172.492188 301.421875 171.484375 302.429688 171.484375 303.675781 C 171.488281 304.917969 172.492188 305.925781 173.734375 305.929688 L 212.714844 305.929688 C 213.960938 305.925781 214.964844 304.917969 214.964844 303.675781 Z M 214.964844 303.675781 "/>
<path style=" stroke:none;fill-rule:evenodd;fill:url(#linear3);" d="M 328.109375 168.019531 C 337.019531 168.019531 343.515625 176.222656 342.246094 187.355469 C 341.347656 195.246094 331.714844 203.460938 322.1875 207.398438 C 313.957031 210.800781 313.910156 198.355469 313.910156 187.148438 C 313.910156 175.941406 319.207031 168.019531 328.109375 168.019531 Z M 328.109375 168.019531 "/>
<path style=" stroke:none;fill-rule:evenodd;fill:url(#linear4);" d="M 321.316406 227.238281 C 329.882812 247.082031 272.488281 310.664062 253.359375 309.035156 C 234.222656 307.394531 206.503906 217.414062 206.503906 217.414062 L 198.441406 206.855469 L 219.710938 209.546875 L 218.230469 212.433594 C 218.230469 212.433594 248.230469 264.65625 256.382812 268.566406 C 260.4375 270.511719 271.003906 238.546875 293.433594 225.835938 C 317.894531 211.988281 316.417969 215.886719 321.316406 227.238281 Z M 321.316406 227.238281 "/>
<g clip-path="url(#clip11)" clip-rule="nonzero">
<g clip-path="url(#clip12)" clip-rule="nonzero">
<path style=" stroke:none;fill-rule:evenodd;fill:url(#linear5);" d="M 267.789062 240.492188 C 274.105469 239.582031 284.566406 241.289062 288.148438 247.136719 C 290.203125 250.488281 289.53125 254.480469 290.511719 258.148438 C 292.695312 266.324219 300.316406 274.179688 309.300781 273.855469 C 320.292969 273.46875 323.863281 258.757812 325.945312 250.398438 C 328.738281 239.144531 331.507812 224.710938 322.082031 215.761719 C 320.398438 214.160156 318.46875 212.894531 316.390625 211.875 C 313.636719 210.53125 310.691406 209.609375 307.664062 209.140625 C 303.882812 208.53125 299.945312 208.507812 296.167969 209.183594 C 289.964844 210.308594 284.191406 213.464844 279.390625 217.492188 C 273.171875 222.726562 268.636719 229.183594 265.035156 236.421875 Z M 267.789062 240.492188 "/>
</g>
</g>
<path style=" stroke:none;fill-rule:evenodd;fill:url(#linear6);" d="M 333.792969 213.058594 C 363.839844 215.703125 373.996094 216.367188 372.390625 271.921875 C 370.769531 328.578125 296.328125 326.589844 296.328125 326.589844 C 296.328125 326.589844 307.261719 291.152344 298.480469 260.933594 C 287.871094 224.457031 312.566406 211.1875 333.792969 213.058594 Z M 333.792969 213.058594 "/>
<path style=" stroke:none;fill-rule:evenodd;fill:rgb(67.058825%,90.980393%,100%);fill-opacity:1;" d="M 260.332031 199.640625 C 260.328125 194.171875 255.898438 189.738281 250.429688 189.734375 L 194.105469 189.734375 C 188.632812 189.734375 184.199219 194.167969 184.199219 199.640625 C 184.199219 205.109375 188.632812 209.542969 194.105469 209.542969 L 250.429688 209.542969 C 255.898438 209.542969 260.328125 205.109375 260.332031 199.640625 Z M 260.332031 199.640625 "/>
<path style=" stroke:none;fill-rule:nonzero;fill:rgb(0%,0%,0%);fill-opacity:1;" d="M 198.910156 195.320312 L 198.910156 196.777344 C 198.554688 196.710938 198.199219 196.675781 197.839844 196.667969 C 196.894531 196.667969 196.199219 196.871094 195.753906 197.277344 C 195.308594 197.679688 195.046875 198.363281 194.992188 199.320312 L 195.066406 199.320312 C 195.445312 198.664062 196.085938 198.332031 196.988281 198.332031 C 197.757812 198.332031 198.371094 198.574219 198.824219 199.058594 C 199.28125 199.542969 199.503906 200.207031 199.503906 201.046875 C 199.503906 201.96875 199.242188 202.699219 198.722656 203.234375 C 198.203125 203.769531 197.488281 204.035156 196.589844 204.035156 C 195.996094 204.050781 195.414062 203.886719 194.917969 203.566406 C 194.429688 203.234375 194.054688 202.761719 193.839844 202.210938 C 193.601562 201.621094 193.480469 200.910156 193.480469 200.078125 C 193.480469 198.488281 193.832031 197.285156 194.554688 196.46875 C 195.28125 195.652344 196.347656 195.242188 197.765625 195.242188 C 198.148438 195.238281 198.53125 195.265625 198.910156 195.320312 Z M 197.90625 201.09375 C 197.90625 200.644531 197.792969 200.300781 197.570312 200.058594 C 197.339844 199.816406 197.015625 199.695312 196.589844 199.695312 C 196.203125 199.683594 195.828125 199.816406 195.539062 200.066406 C 195.273438 200.273438 195.117188 200.585938 195.113281 200.921875 C 195.097656 201.355469 195.238281 201.785156 195.511719 202.125 C 195.765625 202.410156 196.121094 202.585938 196.503906 202.605469 C 196.886719 202.625 197.261719 202.492188 197.542969 202.230469 C 197.785156 201.980469 197.90625 201.601562 197.90625 201.09375 Z M 207.539062 199.410156 L 207.539062 199.453125 C 208.902344 199.625 209.589844 200.308594 209.589844 201.503906 C 209.589844 202.292969 209.304688 202.910156 208.710938 203.359375 C 208.125 203.808594 207.28125 204.035156 206.183594 204.035156 C 205.246094 204.035156 204.429688 203.882812 203.734375 203.574219 L 203.734375 202.050781 C 204.464844 202.40625 205.269531 202.597656 206.082031 202.609375 C 206.703125 202.609375 207.167969 202.511719 207.476562 202.316406 C 207.78125 202.125 207.960938 201.777344 207.9375 201.417969 C 207.9375 200.964844 207.761719 200.644531 207.417969 200.457031 C 207.074219 200.273438 206.527344 200.179688 205.765625 200.179688 L 205.042969 200.179688 L 205.042969 198.839844 L 205.730469 198.839844 C 206.398438 198.839844 206.898438 198.753906 207.242188 198.582031 C 207.585938 198.40625 207.761719 198.101562 207.761719 197.660156 C 207.773438 197.382812 207.65625 197.113281 207.445312 196.929688 C 207.242188 196.757812 206.917969 196.671875 206.480469 196.671875 C 206.160156 196.671875 205.839844 196.722656 205.535156 196.820312 C 205.1875 196.9375 204.855469 197.097656 204.550781 197.300781 L 203.742188 196.074219 C 204.589844 195.535156 205.570312 195.246094 206.574219 195.242188 C 207.445312 195.242188 208.132812 195.425781 208.632812 195.792969 C 209.121094 196.132812 209.40625 196.695312 209.386719 197.285156 C 209.394531 197.78125 209.222656 198.265625 208.902344 198.640625 C 208.589844 199.011719 208.125 199.265625 207.539062 199.410156 Z M 218.074219 199.398438 C 218.703125 199.726562 219.160156 200.082031 219.445312 200.453125 C 220.148438 201.375 219.96875 202.691406 219.046875 203.390625 C 218.492188 203.820312 217.765625 204.035156 216.886719 204.035156 C 215.9375 204.035156 215.195312 203.832031 214.667969 203.425781 C 214.148438 203.019531 213.878906 202.457031 213.878906 201.738281 C 213.871094 201.269531 214.015625 200.808594 214.285156 200.425781 C 214.546875 200.050781 214.964844 199.726562 215.519531 199.453125 C 214.601562 198.882812 214.136719 198.167969 214.136719 197.3125 C 214.125 196.710938 214.414062 196.144531 214.910156 195.804688 C 215.417969 195.429688 216.078125 195.242188 216.886719 195.242188 C 217.691406 195.242188 218.351562 195.425781 218.851562 195.796875 C 219.347656 196.148438 219.632812 196.71875 219.613281 197.324219 C 219.613281 198.210938 219.09375 198.902344 218.074219 199.398438 Z M 216.886719 198.699219 C 217.320312 198.519531 217.617188 198.328125 217.785156 198.132812 C 217.949219 197.945312 218.039062 197.699219 218.035156 197.449219 C 218.046875 197.195312 217.929688 196.949219 217.71875 196.796875 C 217.46875 196.625 217.167969 196.542969 216.867188 196.554688 C 216.574219 196.542969 216.285156 196.625 216.039062 196.789062 C 215.832031 196.945312 215.710938 197.191406 215.726562 197.449219 C 215.722656 197.703125 215.816406 197.945312 215.984375 198.128906 C 216.246094 198.378906 216.550781 198.570312 216.886719 198.699219 Z M 216.785156 200.140625 C 215.890625 200.515625 215.445312 201.015625 215.445312 201.636719 C 215.433594 201.949219 215.570312 202.246094 215.816406 202.4375 C 216.058594 202.632812 216.410156 202.730469 216.855469 202.730469 C 217.320312 202.730469 217.675781 202.632812 217.925781 202.445312 C 218.171875 202.261719 218.3125 201.960938 218.296875 201.652344 C 218.289062 201.378906 218.179688 201.117188 217.988281 200.921875 C 217.777344 200.691406 217.433594 200.460938 216.960938 200.230469 Z M 230.128906 203.910156 L 224.160156 203.910156 L 224.160156 202.644531 L 226.378906 200.453125 C 227.207031 199.632812 227.726562 199.0625 227.929688 198.746094 C 228.128906 198.453125 228.238281 198.113281 228.246094 197.761719 C 228.261719 197.472656 228.148438 197.195312 227.9375 196.996094 C 227.71875 196.804688 227.433594 196.703125 227.140625 196.71875 C 226.800781 196.722656 226.46875 196.789062 226.15625 196.921875 C 225.757812 197.101562 225.386719 197.332031 225.050781 197.609375 L 224.132812 196.460938 C 224.472656 196.195312 224.828125 195.957031 225.199219 195.742188 C 225.484375 195.585938 225.789062 195.464844 226.101562 195.382812 C 226.453125 195.285156 226.820312 195.238281 227.1875 195.242188 C 227.996094 195.242188 228.644531 195.460938 229.136719 195.902344 C 229.621094 196.324219 229.894531 196.941406 229.878906 197.582031 C 229.878906 197.992188 229.796875 198.398438 229.636719 198.773438 C 229.453125 199.1875 229.207031 199.570312 228.902344 199.910156 C 228.429688 200.441406 227.929688 200.949219 227.398438 201.425781 L 226.398438 202.359375 L 226.398438 202.429688 L 230.128906 202.429688 Z M 234.863281 203.960938 L 234.863281 202.496094 C 235.210938 202.574219 235.570312 202.613281 235.929688 202.609375 C 236.886719 202.609375 237.589844 202.398438 238.046875 201.984375 C 238.5 201.566406 238.742188 200.875 238.777344 199.90625 L 238.703125 199.90625 C 238.480469 200.292969 238.222656 200.558594 237.90625 200.707031 C 237.542969 200.871094 237.152344 200.945312 236.753906 200.933594 C 235.976562 200.933594 235.363281 200.691406 234.925781 200.203125 C 234.480469 199.710938 234.257812 199.03125 234.257812 198.15625 C 234.257812 197.253906 234.519531 196.542969 235.046875 196.023438 C 235.566406 195.503906 236.28125 195.242188 237.164062 195.242188 C 238.128906 195.242188 238.890625 195.585938 239.445312 196.269531 C 240.011719 196.957031 240.292969 197.929688 240.292969 199.195312 C 240.292969 200.773438 239.929688 201.976562 239.214844 202.800781 C 238.5 203.625 237.433594 204.039062 236.011719 204.039062 C 235.628906 204.042969 235.242188 204.015625 234.863281 203.960938 Z M 235.855469 198.128906 C 235.855469 199.089844 236.292969 199.570312 237.15625 199.570312 C 237.542969 199.582031 237.925781 199.449219 238.222656 199.195312 C 238.484375 198.992188 238.644531 198.679688 238.648438 198.34375 C 238.660156 197.917969 238.515625 197.503906 238.25 197.171875 C 238 196.875 237.640625 196.695312 237.253906 196.671875 C 236.867188 196.648438 236.492188 196.785156 236.207031 197.050781 C 235.976562 197.304688 235.855469 197.664062 235.855469 198.128906 Z M 247.519531 204.035156 C 246.539062 204.035156 245.792969 203.664062 245.292969 202.925781 C 244.792969 202.1875 244.542969 201.097656 244.542969 199.660156 C 244.542969 198.167969 244.792969 197.0625 245.285156 196.332031 C 245.777344 195.605469 246.527344 195.242188 247.519531 195.242188 C 249.507812 195.242188 250.507812 196.710938 250.507812 199.644531 C 250.507812 201.171875 250.257812 202.285156 249.777344 202.988281 C 249.285156 203.6875 248.53125 204.035156 247.519531 204.035156 Z M 247.519531 202.609375 C 248.003906 202.609375 248.347656 202.375 248.550781 201.914062 C 248.765625 201.449219 248.867188 200.695312 248.867188 199.644531 C 248.867188 198.578125 248.765625 197.816406 248.550781 197.359375 C 248.347656 196.898438 248.003906 196.671875 247.519531 196.667969 C 247.214844 196.652344 246.921875 196.773438 246.714844 197 C 246.519531 197.21875 246.378906 197.546875 246.296875 197.976562 C 246.210938 198.535156 246.167969 199.09375 246.175781 199.660156 C 246.175781 200.699219 246.285156 201.449219 246.492188 201.914062 C 246.703125 202.375 247.046875 202.609375 247.519531 202.609375 Z M 247.519531 202.609375 "/>
<path style=" stroke:none;fill-rule:evenodd;fill:rgb(60.392159%,88.235295%,98.431373%);fill-opacity:1;" d="M 215.195312 209.542969 C 215.105469 208.4375 217.488281 204.625 218.480469 204.035156 C 219.4375 203.472656 221.050781 204.910156 221.152344 206.015625 C 221.246094 207.121094 220.039062 210.074219 219.046875 210.660156 C 218.054688 211.246094 215.289062 210.648438 215.195312 209.542969 Z M 215.195312 209.542969 "/>
<path style=" stroke:none;fill-rule:evenodd;fill:url(#linear7);" d="M 329.054688 168.019531 C 329.054688 168.019531 331.003906 172.328125 329.589844 175.722656 C 329.21875 176.617188 328.347656 177.273438 327.640625 177.921875 C 325.832031 179.566406 323.558594 180.441406 321.601562 181.839844 C 321.015625 182.25 319.773438 183.042969 319.847656 183.898438 C 319.949219 184.894531 321.90625 184.425781 322.445312 184.265625 C 324.5625 183.632812 326.234375 182.882812 327.375 184.605469 C 328.535156 186.367188 327.605469 190.695312 326.410156 193.625 C 326.195312 194.144531 325.230469 196.347656 326.335938 196.570312 C 327.050781 196.707031 327.679688 195.878906 328.070312 195.414062 C 329.191406 194.046875 329.488281 189.378906 330.605469 187.996094 C 331.125 187.355469 331.921875 186.625 332.664062 187.78125 C 334.945312 191.347656 332.644531 195.015625 330.101562 196.238281 C 327.039062 197.71875 326.648438 205.175781 326.648438 205.175781 C 326.648438 205.175781 333.296875 207.257812 335.355469 201.910156 C 339.003906 203.179688 345.917969 202.308594 345.871094 195.277344 C 352.421875 192.5625 355.429688 182.277344 349.285156 178.722656 C 350.175781 178.289062 350.722656 177.019531 350.964844 176.144531 C 353.480469 167.277344 343.113281 157.335938 333.351562 162.894531 C 331.195312 164.121094 329.628906 165.699219 329.054688 168.019531 Z M 329.054688 168.019531 "/>
<path style=" stroke:none;fill-rule:nonzero;fill:url(#linear8);" d="M 270.480469 346.710938 C 270.480469 328.347656 255.597656 313.464844 237.234375 313.464844 C 218.871094 313.464844 203.988281 328.347656 203.988281 346.710938 C 203.988281 365.074219 218.871094 379.960938 237.234375 379.960938 C 255.597656 379.960938 270.480469 365.074219 270.480469 346.710938 Z M 270.480469 346.710938 "/>
<path style=" stroke:none;fill-rule:evenodd;fill:rgb(100%,100%,100%);fill-opacity:1;" d="M 217.753906 349.613281 L 228.761719 363.339844 C 229.679688 364.484375 231.078125 365.128906 232.542969 365.078125 C 234.007812 365.027344 235.359375 364.289062 236.195312 363.085938 L 256.753906 333.464844 C 258.214844 331.355469 257.691406 328.464844 255.585938 327.003906 C 253.476562 325.542969 250.585938 326.066406 249.125 328.171875 L 232.113281 352.6875 L 224.992188 343.808594 C 223.386719 341.824219 220.480469 341.511719 218.488281 343.109375 C 216.496094 344.707031 216.167969 347.613281 217.753906 349.613281 Z M 217.753906 349.613281 "/>
<path style=" stroke:none;fill-rule:evenodd;fill:url(#linear9);" d="M 357.761719 219.398438 C 379.292969 221.289062 410.699219 297.117188 397.457031 318.054688 C 384.203125 338.996094 300.613281 341.15625 278.28125 345.035156 C 261.316406 359.855469 254.382812 341.417969 256.816406 341.394531 C 267.617188 341.285156 267.332031 332.621094 267.332031 332.621094 C 267.332031 332.621094 267.507812 331.714844 264.453125 328.027344 C 267.824219 325.65625 275.347656 332.5 275.347656 332.5 C 275.347656 332.5 355.972656 301.488281 363.285156 296.171875 C 366.921875 293.527344 344.210938 269.03125 343.285156 243.269531 C 342.96875 234.4375 345.445312 218.316406 357.761719 219.398438 Z M 357.761719 219.398438 "/>
<g clip-path="url(#clip13)" clip-rule="nonzero">
<g clip-path="url(#clip14)" clip-rule="nonzero">
<path style=" stroke:none;fill-rule:evenodd;fill:url(#linear10);" d="M 344 272.800781 C 346.199219 266.808594 352.667969 258.414062 359.515625 258.039062 C 363.441406 257.820312 366.636719 260.3125 370.328125 261.191406 C 378.5625 263.152344 389.09375 260.175781 393.078125 252.117188 C 397.957031 242.257812 386.710938 232.128906 380.34375 226.328125 C 371.769531 218.523438 360.378906 209.230469 348.027344 213.273438 C 345.820312 213.992188 343.785156 215.09375 341.902344 216.433594 C 339.410156 218.222656 337.203125 220.375 335.351562 222.816406 C 333.019531 225.855469 331.128906 229.308594 329.929688 232.953125 C 327.972656 238.945312 328.007812 245.523438 329.269531 251.660156 C 330.921875 259.621094 334.449219 266.679688 339.109375 273.285156 Z M 344 272.800781 "/>
</g>
</g>
</g>
</svg>
