<?xml version="1.0" encoding="UTF-8"?>
<svg xmlns="http://www.w3.org/2000/svg" xmlns:xlink="http://www.w3.org/1999/xlink" width="200px" height="200px" viewBox="0 0 200 200" version="1.1">
<defs>
<linearGradient id="linear0" gradientUnits="userSpaceOnUse" x1="5611.526855" y1="8407.704102" x2="5630.870117" y2="8407.704102" gradientTransform="matrix(1.964195,3.357684,3.357684,-1.964195,-39228.177083,-2251.901367)">
<stop offset="0" style="stop-color:rgb(85.882353%,94.509804%,97.647059%);stop-opacity:1;"/>
<stop offset="0.61" style="stop-color:rgb(75.686275%,92.156863%,98.039216%);stop-opacity:1;"/>
<stop offset="0.82" style="stop-color:rgb(52.156863%,85.882353%,98.431373%);stop-opacity:1;"/>
<stop offset="1" style="stop-color:rgb(27.45098%,80%,99.215686%);stop-opacity:1;"/>
</linearGradient>
<clipPath id="clip1">
  <path d="M 44 62.667969 L 107 62.667969 L 107 76 L 44 76 Z M 44 62.667969 "/>
</clipPath>
<clipPath id="clip2">
  <path d="M 106.71875 69.597656 C 106.714844 65.910156 103.722656 62.917969 100.03125 62.910156 L 50.707031 62.910156 C 47.015625 62.917969 44.027344 65.910156 44.027344 69.597656 L 44.027344 139.269531 C 44.027344 142.964844 47.015625 145.957031 50.707031 145.964844 L 100.03125 145.964844 C 103.722656 145.957031 106.714844 142.964844 106.71875 139.269531 Z M 106.71875 69.597656 "/>
</clipPath>
<clipPath id="clip3">
  <path d="M 49.332031 67 L 53 67 L 53 70.667969 L 49.332031 70.667969 Z M 49.332031 67 "/>
</clipPath>
<clipPath id="clip4">
  <path d="M 106.71875 69.597656 C 106.714844 65.910156 103.722656 62.917969 100.03125 62.910156 L 50.707031 62.910156 C 47.015625 62.917969 44.027344 65.910156 44.027344 69.597656 L 44.027344 139.269531 C 44.027344 142.964844 47.015625 145.957031 50.707031 145.964844 L 100.03125 145.964844 C 103.722656 145.957031 106.714844 142.964844 106.71875 139.269531 Z M 106.71875 69.597656 "/>
</clipPath>
<clipPath id="clip5">
  <path d="M 54 67 L 58 67 L 58 70.667969 L 54 70.667969 Z M 54 67 "/>
</clipPath>
<clipPath id="clip6">
  <path d="M 106.71875 69.597656 C 106.714844 65.910156 103.722656 62.917969 100.03125 62.910156 L 50.707031 62.910156 C 47.015625 62.917969 44.027344 65.910156 44.027344 69.597656 L 44.027344 139.269531 C 44.027344 142.964844 47.015625 145.957031 50.707031 145.964844 L 100.03125 145.964844 C 103.722656 145.957031 106.714844 142.964844 106.71875 139.269531 Z M 106.71875 69.597656 "/>
</clipPath>
<clipPath id="clip7">
  <path d="M 59 67 L 64 67 L 64 70.667969 L 59 70.667969 Z M 59 67 "/>
</clipPath>
<clipPath id="clip8">
  <path d="M 106.71875 69.597656 C 106.714844 65.910156 103.722656 62.917969 100.03125 62.910156 L 50.707031 62.910156 C 47.015625 62.917969 44.027344 65.910156 44.027344 69.597656 L 44.027344 139.269531 C 44.027344 142.964844 47.015625 145.957031 50.707031 145.964844 L 100.03125 145.964844 C 103.722656 145.957031 106.714844 142.964844 106.71875 139.269531 Z M 106.71875 69.597656 "/>
</clipPath>
<clipPath id="clip9">
  <path d="M 50.667969 90.667969 L 74 90.667969 L 74 105 L 50.667969 105 Z M 50.667969 90.667969 "/>
</clipPath>
<clipPath id="clip10">
  <path d="M 73.578125 93.074219 C 73.578125 86.792969 68.488281 81.703125 62.214844 81.703125 C 55.9375 81.703125 50.847656 86.792969 50.847656 93.074219 C 50.847656 99.347656 55.9375 104.4375 62.214844 104.4375 C 68.488281 104.4375 73.578125 99.347656 73.578125 93.074219 Z M 73.578125 93.074219 "/>
</clipPath>
<linearGradient id="linear1" gradientUnits="userSpaceOnUse" x1="5543.333984" y1="8022.006836" x2="5562.676758" y2="8022.006836" gradientTransform="matrix(-0.407659,0.736163,0.736163,0.407659,-3579.461914,-7256.570312)">
<stop offset="0" style="stop-color:rgb(66.666667%,90.980392%,100%);stop-opacity:1;"/>
<stop offset="1" style="stop-color:rgb(0%,65.098039%,89.019608%);stop-opacity:1;"/>
</linearGradient>
<linearGradient id="linear2" gradientUnits="userSpaceOnUse" x1="5538.454102" y1="8073.809082" x2="5557.796875" y2="8073.809082" gradientTransform="matrix(-0.430515,0.849767,0.849767,0.430515,-4406.208659,-8099.001953)">
<stop offset="0" style="stop-color:rgb(66.666667%,90.980392%,100%);stop-opacity:1;"/>
<stop offset="1" style="stop-color:rgb(0%,65.098039%,89.019608%);stop-opacity:1;"/>
</linearGradient>
<linearGradient id="linear3" gradientUnits="userSpaceOnUse" x1="5375.730957" y1="8464.816406" x2="5395.074219" y2="8464.816406" gradientTransform="matrix(0.559205,0.847243,0.847243,-0.559205,-10037.244141,255.665771)">
<stop offset="0" style="stop-color:rgb(60.392157%,88.235294%,98.431373%);stop-opacity:1;"/>
<stop offset="0.64" style="stop-color:rgb(52.54902%,86.27451%,98.823529%);stop-opacity:1;"/>
<stop offset="0.84" style="stop-color:rgb(31.372549%,80.784314%,99.215686%);stop-opacity:1;"/>
<stop offset="1" style="stop-color:rgb(7.058824%,74.901961%,100%);stop-opacity:1;"/>
</linearGradient>
<linearGradient id="linear4" gradientUnits="userSpaceOnUse" x1="5558.280762" y1="8421.530273" x2="5577.624023" y2="8421.530273" gradientTransform="matrix(1.089047,1.860845,1.860845,-1.089047,-21608.860677,-1070.698975)">
<stop offset="0" style="stop-color:rgb(60.392157%,88.235294%,98.431373%);stop-opacity:1;"/>
<stop offset="0.63" style="stop-color:rgb(51.764706%,85.882353%,98.823529%);stop-opacity:1;"/>
<stop offset="0.83" style="stop-color:rgb(30.588235%,80.784314%,99.215686%);stop-opacity:1;"/>
<stop offset="1" style="stop-color:rgb(7.058824%,74.901961%,100%);stop-opacity:1;"/>
</linearGradient>
<clipPath id="clip11">
  <path d="M 117.332031 92 L 144 92 L 144 122 L 117.332031 122 Z M 117.332031 92 "/>
</clipPath>
<clipPath id="clip12">
  <path d="M 142.808594 100.996094 C 146.613281 109.8125 121.105469 138.074219 112.605469 137.347656 C 104.097656 136.621094 91.78125 96.628906 91.78125 96.628906 L 88.199219 91.9375 L 97.652344 93.128906 L 96.988281 94.417969 C 96.988281 94.417969 110.324219 117.625 113.949219 119.363281 C 115.75 120.230469 120.449219 106.019531 130.417969 100.371094 C 141.285156 94.21875 140.628906 95.949219 142.808594 100.996094 Z M 142.808594 100.996094 "/>
</clipPath>
<linearGradient id="linear5" gradientUnits="userSpaceOnUse" x1="5422.76416" y1="8419.123047" x2="5442.105957" y2="8419.123047" gradientTransform="matrix(0.544336,0.992932,0.992932,-0.544336,-11180.89974,-700.995199)">
<stop offset="0" style="stop-color:rgb(12.54902%,43.529412%,54.901961%);stop-opacity:1;"/>
<stop offset="0.54" style="stop-color:rgb(10.196078%,39.215686%,49.803922%);stop-opacity:1;"/>
<stop offset="1" style="stop-color:rgb(1.960784%,23.921569%,31.764706%);stop-opacity:1;"/>
</linearGradient>
<linearGradient id="linear6" gradientUnits="userSpaceOnUse" x1="5571.575195" y1="8439.413086" x2="5590.917969" y2="8439.413086" gradientTransform="matrix(1.303311,1.861805,1.861805,-1.303311,-22840.088542,729.074137)">
<stop offset="0" style="stop-color:rgb(12.54902%,43.529412%,54.901961%);stop-opacity:1;"/>
<stop offset="0.51" style="stop-color:rgb(9.803922%,38.823529%,49.411765%);stop-opacity:1;"/>
<stop offset="1" style="stop-color:rgb(1.960784%,23.921569%,31.764706%);stop-opacity:1;"/>
</linearGradient>
<linearGradient id="linear7" gradientUnits="userSpaceOnUse" x1="5888.591797" y1="8676.652344" x2="5907.934082" y2="8676.652344" gradientTransform="matrix(0.510453,-0.968121,-0.968121,-0.510453,5539.516927,10219.996094)">
<stop offset="0" style="stop-color:rgb(0%,0%,0%);stop-opacity:1;"/>
<stop offset="1" style="stop-color:rgb(30.196078%,30.196078%,30.196078%);stop-opacity:1;"/>
</linearGradient>
<linearGradient id="linear8" gradientUnits="userSpaceOnUse" x1="5633.249023" y1="8288.112305" x2="5652.591797" y2="8288.112305" gradientTransform="matrix(-0.744453,1.772891,1.772891,0.744453,-10388.843099,-16017.273438)">
<stop offset="0" style="stop-color:rgb(66.666667%,90.980392%,100%);stop-opacity:1;"/>
<stop offset="0.6" style="stop-color:rgb(52.941176%,86.666667%,99.215686%);stop-opacity:1;"/>
<stop offset="0.81" style="stop-color:rgb(35.686275%,82.745098%,100%);stop-opacity:1;"/>
<stop offset="1" style="stop-color:rgb(3.137255%,65.098039%,87.843137%);stop-opacity:1;"/>
</linearGradient>
<linearGradient id="linear9" gradientUnits="userSpaceOnUse" x1="5527.523926" y1="8348.148438" x2="5546.867188" y2="8348.148438" gradientTransform="matrix(0.215752,1.434213,1.434213,-0.215752,-13020.451823,-5990.136719)">
<stop offset="0" style="stop-color:rgb(60.392157%,88.235294%,98.431373%);stop-opacity:1;"/>
<stop offset="0.47" style="stop-color:rgb(45.882353%,84.313725%,98.823529%);stop-opacity:1;"/>
<stop offset="1" style="stop-color:rgb(7.058824%,74.901961%,100%);stop-opacity:1;"/>
</linearGradient>
<clipPath id="clip13">
  <path d="M 145.332031 97.332031 L 176 97.332031 L 176 122 L 145.332031 122 Z M 145.332031 97.332031 "/>
</clipPath>
<clipPath id="clip14">
  <path d="M 159.003906 97.511719 C 168.574219 98.347656 182.53125 132.050781 176.644531 141.359375 C 170.753906 150.667969 133.605469 151.625 123.683594 153.347656 C 116.140625 159.9375 113.058594 151.738281 114.140625 151.730469 C 118.941406 151.683594 118.8125 147.832031 118.8125 147.832031 C 118.8125 147.832031 118.890625 147.425781 117.535156 145.792969 C 119.03125 144.734375 122.375 147.777344 122.375 147.777344 C 122.375 147.777344 158.207031 133.996094 161.457031 131.628906 C 163.078125 130.457031 152.984375 119.566406 152.574219 108.121094 C 152.433594 104.191406 153.53125 97.03125 159.003906 97.511719 Z M 159.003906 97.511719 "/>
</clipPath>
<linearGradient id="linear10" gradientUnits="userSpaceOnUse" x1="5553.960938" y1="8280.80957" x2="5573.304199" y2="8280.80957" gradientTransform="matrix(-0.432795,1.401077,1.401077,0.432795,-9034.33138,-11268.205729)">
<stop offset="0" style="stop-color:rgb(12.54902%,43.529412%,54.901961%);stop-opacity:1;"/>
<stop offset="0.49" style="stop-color:rgb(9.803922%,38.431373%,49.019608%);stop-opacity:1;"/>
<stop offset="1" style="stop-color:rgb(1.960784%,23.921569%,31.764706%);stop-opacity:1;"/>
</linearGradient>
</defs>
<g id="surface1">
<path style=" stroke:none;fill-rule:evenodd;fill:rgb(94.901961%,98.039216%,99.215686%);fill-opacity:1;" d="M 99.390625 46.109375 C 135.417969 76.488281 173.234375 64.847656 177.472656 99.8125 C 181.980469 136.980469 169.933594 114.613281 140.910156 137.800781 C 98.5625 171.652344 34.96875 159.839844 32.613281 99.457031 C 31.046875 59.234375 70.769531 21.972656 99.390625 46.109375 Z M 99.390625 46.109375 "/>
<path style=" stroke:none;fill-rule:nonzero;fill:url(#linear0);" d="M 22.964844 127.59375 C 23.28125 126.890625 23.472656 126.171875 23.84375 125.578125 C 24.269531 125 24.980469 124.550781 25.714844 124.816406 C 29.003906 125.878906 32.3125 125.859375 34.089844 123.140625 C 34.078125 123.183594 34.074219 123.222656 34.078125 123.265625 C 34.078125 123.308594 34.125 123.324219 34.167969 123.324219 C 34.203125 123.402344 34.359375 123.464844 34.4375 123.5 C 34.855469 123.6875 35.324219 123.703125 35.777344 123.652344 C 36.347656 123.558594 36.8125 123.175781 37.308594 122.902344 C 37.628906 122.707031 37.96875 122.546875 38.324219 122.421875 C 38.328125 122.605469 38.308594 122.792969 38.265625 122.96875 C 38.246094 122.964844 38.222656 122.96875 38.207031 122.980469 C 37.808594 123.527344 36.972656 123.691406 36.28125 124.09375 C 35.6875 124.375 35.203125 124.828125 34.785156 125.34375 C 34.390625 125.800781 34.074219 126.316406 33.832031 126.875 C 33.277344 128.078125 33.125 129.417969 33.0625 130.730469 C 33.058594 130.996094 32.921875 132.402344 33.363281 132.175781 C 33.792969 131.714844 34.015625 131.140625 34.480469 130.839844 C 35.828125 129.886719 37.511719 129.738281 38.703125 128.5625 C 39.90625 127.324219 40.777344 124.9375 39.292969 123.605469 C 39.066406 123.410156 38.816406 123.265625 38.546875 123.167969 C 38.496094 123.152344 38.464844 123.125 38.417969 123.109375 C 38.484375 122.863281 38.515625 122.605469 38.5 122.347656 C 38.785156 122.261719 39.078125 122.214844 39.375 122.21875 C 39.8125 122.214844 40.265625 122.277344 40.691406 122.175781 C 41.433594 122.015625 42.015625 121.394531 42.21875 120.671875 C 42.28125 120.4375 42.375 120.152344 42.371094 119.875 C 42.738281 120.167969 43.140625 120.4375 43.59375 120.582031 C 44.25 120.765625 45.066406 120.683594 45.316406 119.933594 C 45.472656 119.453125 45.355469 118.953125 45.3125 118.480469 C 45.265625 118.160156 45.363281 117.691406 45.421875 117.300781 C 45.453125 117.480469 45.519531 117.644531 45.621094 117.796875 C 45.738281 117.996094 45.878906 118.1875 46.015625 118.375 C 45.949219 119.410156 45.9375 120.558594 46.503906 121.464844 C 45.097656 121.25 44.78125 123.511719 42.8125 122.40625 C 42.558594 122.296875 41.871094 121.769531 41.777344 122.261719 C 41.753906 122.410156 41.824219 122.535156 41.871094 122.671875 C 42 123.003906 42.183594 123.316406 42.40625 123.59375 C 43.082031 124.40625 44.25 125.003906 45.308594 124.722656 C 45.675781 124.628906 46.027344 124.332031 46.253906 124.152344 C 46.527344 123.957031 46.828125 123.8125 47.144531 123.714844 C 47.796875 123.5 48.496094 123.417969 49.074219 123.0625 C 49.203125 122.972656 49.328125 122.871094 49.433594 122.753906 C 49.527344 123.285156 49.890625 123.796875 50.675781 124.277344 C 51.738281 124.828125 52.796875 125.125 53.644531 126.003906 C 53.792969 126.128906 54.082031 126.542969 54.277344 126.761719 C 54.519531 127.035156 54.691406 126.90625 54.746094 126.578125 C 55.109375 125.3125 55.171875 123.917969 54.589844 122.699219 C 54.316406 122.058594 53.878906 121.324219 53.703125 120.753906 C 53.59375 120.230469 53.605469 119.828125 53.640625 119.269531 C 53.707031 118.46875 53.949219 117.6875 54.34375 116.984375 C 54.484375 116.714844 54.691406 116.464844 54.863281 116.214844 C 55.253906 116.894531 55.328125 117.777344 55.1875 118.46875 C 54.957031 119.46875 54.402344 120.515625 54.828125 121.535156 C 55 122.027344 55.332031 122.472656 55.859375 122.605469 C 56.144531 122.699219 56.464844 122.691406 56.746094 122.808594 C 56.902344 122.863281 57.058594 122.941406 57.199219 123.035156 L 57.269531 123.058594 C 57.296875 123.050781 57.324219 123.03125 57.332031 123.003906 C 57.347656 122.980469 57.347656 122.949219 57.339844 122.921875 C 57.464844 122.777344 57.558594 122.328125 57.609375 122.246094 C 58.25 120.496094 59.222656 119.433594 58.5625 117.371094 C 58.480469 117.109375 58.378906 116.855469 58.265625 116.605469 C 58.449219 116.566406 58.625 116.519531 58.808594 116.484375 C 59.796875 116.234375 60.84375 116.296875 61.699219 116.816406 C 61.972656 116.972656 62.355469 117.199219 62.519531 117.371094 C 62.625 117.457031 62.683594 117.609375 62.816406 117.640625 C 63.082031 117.605469 62.863281 117.253906 62.84375 117.105469 C 62.609375 116.308594 62.488281 115.527344 62.53125 114.746094 C 62.535156 113.363281 63.292969 112.113281 63.671875 110.753906 C 63.949219 109.578125 63.707031 108.296875 63.15625 107.222656 C 62.378906 105.761719 60.660156 104.871094 59.046875 105.464844 L 58.792969 105.59375 C 58.203125 104.832031 57.324219 104.328125 56.417969 104.015625 C 55.84375 103.792969 55.238281 103.703125 54.65625 103.503906 C 53.613281 103.121094 52.402344 102.542969 51.421875 103.207031 C 51.4375 103.160156 51.464844 103.128906 51.46875 103.105469 C 52.09375 102.0625 52.125 100.808594 52.238281 99.625 C 52.261719 99.050781 52.359375 98.484375 52.527344 97.9375 C 52.53125 97.941406 52.535156 97.949219 52.535156 97.949219 C 52.542969 97.949219 52.546875 97.949219 52.550781 97.949219 C 52.925781 97.894531 53.277344 98.109375 53.707031 98.171875 C 54.097656 98.207031 54.488281 98.214844 54.875 98.1875 C 54.96875 98.402344 55.058594 98.613281 55.191406 98.800781 C 55.515625 99.238281 55.957031 99.550781 56.453125 99.777344 C 57.566406 100.261719 58.074219 99.300781 58.558594 98.496094 C 58.734375 98.21875 59.042969 98.042969 59.347656 97.78125 C 59.65625 97.53125 59.910156 97.214844 60.09375 96.859375 C 60.390625 96.308594 60.496094 95.613281 60.246094 95.019531 C 60.066406 94.636719 59.652344 94.488281 59.269531 94.363281 C 58.675781 94.1875 58.078125 94.121094 57.503906 93.894531 C 57.089844 93.75 56.714844 93.519531 56.277344 93.40625 C 55.9375 93.300781 55.574219 93.328125 55.234375 93.363281 C 54.863281 93.441406 54.496094 93.488281 54.121094 93.496094 C 54.332031 92.589844 54.503906 91.597656 55.046875 90.980469 C 55.519531 90.394531 56.234375 90.144531 56.957031 90.113281 C 57.066406 90.105469 57.175781 90.113281 57.277344 90.152344 C 57.582031 90.714844 57.972656 91.269531 58.613281 91.464844 C 59.066406 91.644531 59.640625 91.550781 59.984375 91.214844 C 60.042969 91.144531 60.089844 91.066406 60.125 90.984375 C 60.402344 91.902344 60.980469 92.40625 61.980469 92.328125 C 62.253906 92.324219 62.527344 92.265625 62.808594 92.222656 C 62.917969 92.203125 63.042969 92.183594 63.128906 92.113281 C 63.316406 91.980469 63.339844 91.667969 63.140625 91.550781 C 62.847656 91.417969 62.503906 91.558594 62.207031 91.609375 C 61.886719 91.675781 61.675781 91.78125 61.433594 91.691406 C 61.046875 91.527344 60.707031 91.105469 60.371094 90.796875 C 60.886719 90.671875 61.34375 90.394531 61.640625 89.964844 C 61.96875 89.59375 62.34375 89.421875 62.839844 89.300781 C 63.308594 89.203125 63.816406 89.0625 64.136719 88.675781 C 64.59375 88.042969 64.59375 87.042969 63.988281 86.488281 C 63.09375 85.675781 62.027344 86.167969 62.050781 87.390625 C 62.050781 87.769531 62.105469 88.265625 62.019531 88.527344 C 61.894531 88.871094 61.597656 89.144531 61.214844 89.363281 C 60.886719 89.511719 60.558594 89.683594 60.339844 89.953125 C 60.332031 89.058594 59.707031 88.621094 58.953125 88.003906 C 58.347656 87.519531 57.652344 87.15625 56.90625 86.941406 C 56.597656 86.859375 56.253906 86.734375 55.941406 86.859375 C 55.597656 87.015625 55.675781 87.433594 55.863281 87.675781 C 56.25 88.316406 57.019531 88.722656 57.0625 89.378906 C 57.105469 89.5 57.042969 89.691406 57.058594 89.84375 C 56.285156 89.824219 55.480469 90.113281 54.964844 90.703125 C 54.246094 91.453125 54.125 92.496094 53.894531 93.453125 C 53.277344 93.488281 52.640625 93.5 52.019531 93.578125 C 52 93.574219 51.984375 93.578125 51.957031 93.609375 C 51.9375 93.597656 51.917969 93.597656 51.894531 93.605469 C 51.855469 93.621094 51.828125 93.652344 51.816406 93.691406 C 51.8125 93.734375 51.828125 93.777344 51.859375 93.800781 C 52.457031 94.105469 52.972656 94.542969 53.375 95.082031 C 52.96875 96.152344 52.464844 97.191406 52.199219 98.308594 C 51.9375 99.503906 52.035156 100.832031 51.71875 101.917969 C 51.582031 102.46875 51.332031 102.832031 51.097656 103.355469 C 51.125 103.324219 51.09375 103.378906 51.0625 103.4375 C 50.996094 103.503906 50.9375 103.582031 50.90625 103.675781 L 50.878906 103.667969 C 49.65625 103.277344 48.4375 104.207031 47.402344 104.5625 C 47.058594 104.675781 46.6875 104.730469 46.40625 104.769531 C 46.109375 104.808594 45.253906 104.828125 45.859375 105.253906 C 46.46875 105.660156 47.140625 105.996094 47.734375 106.449219 C 48.074219 106.753906 48.386719 107.214844 48.613281 107.65625 C 49.222656 108.878906 49.699219 110.261719 50.566406 111.328125 C 50.5625 111.355469 50.5625 111.386719 50.566406 111.410156 C 50.9375 112.121094 50.605469 112.871094 49.886719 113.261719 C 49.550781 113.433594 49.035156 113.480469 48.628906 113.707031 C 47.480469 113.21875 46.230469 114.046875 45.605469 115.011719 C 45.359375 115.472656 45.28125 116.015625 45.265625 116.519531 C 45.261719 116.683594 45.269531 116.839844 45.285156 116.996094 C 45.230469 116.921875 45.140625 116.878906 45.050781 116.890625 C 44.640625 116.941406 44.371094 117.542969 44.203125 117.730469 C 43.984375 118 43.621094 118.109375 43.285156 118.160156 C 43.699219 117.171875 43.859375 115.96875 43.878906 115.234375 C 43.875 115 43.9375 114.722656 43.902344 114.503906 C 43.933594 114.488281 43.957031 114.464844 43.964844 114.433594 C 43.988281 114.28125 44.332031 114.0625 44.484375 113.808594 C 44.660156 113.496094 44.714844 113.125 44.707031 112.769531 C 44.746094 112.03125 44.441406 111.324219 43.984375 110.738281 C 43.546875 110.125 42.753906 109.832031 42.203125 109.535156 C 41.441406 109.109375 40.824219 108.609375 40.535156 107.816406 C 40.410156 107.457031 40.363281 107.074219 40.394531 106.6875 C 40.480469 106.1875 40.441406 105.386719 39.730469 105.515625 C 38.730469 106.089844 38.765625 108.488281 39.019531 109.5 C 39.390625 111.027344 40.027344 112.800781 39.78125 114.230469 C 39.6875 114.675781 39.496094 114.996094 39.175781 115 C 39.152344 114.988281 39.136719 115 39.113281 114.988281 C 38.785156 114.238281 38.363281 113.535156 37.925781 112.84375 C 37.894531 112.78125 37.855469 112.738281 37.824219 112.675781 C 37.984375 112.441406 38.113281 112.1875 38.207031 111.917969 C 38.339844 111.574219 38.425781 111.21875 38.484375 110.855469 C 38.566406 110.792969 38.519531 110.621094 38.511719 110.519531 C 38.464844 110.046875 38.21875 109.609375 38.03125 109.167969 C 37.722656 108.488281 37.703125 107.71875 37.410156 106.988281 C 37.019531 106.191406 36.238281 105.53125 35.339844 105.453125 C 35.265625 105.449219 35.199219 105.449219 35.125 105.464844 C 35.035156 104.875 34.996094 104.28125 35.011719 103.6875 C 35.4375 103.546875 35.824219 103.246094 35.972656 102.808594 C 36.0625 102.613281 36.105469 102.402344 36.09375 102.1875 C 36.589844 102.050781 37.113281 101.839844 37.324219 101.347656 C 37.371094 101.207031 37.417969 101.0625 37.449219 100.925781 C 37.566406 101.160156 37.71875 101.378906 37.902344 101.574219 C 38.550781 102.140625 39.203125 101.222656 39.496094 100.714844 C 39.917969 100.015625 40.832031 99.464844 41.109375 98.5625 C 41.417969 97.683594 41.316406 96.59375 40.65625 95.894531 C 40.214844 95.421875 39.605469 95.097656 38.964844 94.949219 C 38.484375 94.871094 37.988281 94.933594 37.535156 95.121094 L 37.519531 95.128906 C 37.152344 94.894531 36.730469 94.753906 36.292969 94.722656 C 35.65625 94.652344 35.0625 94.9375 34.453125 95.109375 C 34.28125 95.152344 34.097656 95.160156 33.925781 95.140625 L 33.902344 95.136719 C 33.878906 95.125 33.859375 95.121094 33.839844 95.125 C 33.578125 94.582031 33.316406 94.035156 33.089844 93.472656 C 32.890625 93.015625 32.6875 92.542969 32.496094 92.058594 C 32.777344 92.09375 33.058594 92.074219 33.324219 91.988281 C 33.761719 91.871094 34.09375 91.433594 34.058594 90.972656 C 34.03125 90.6875 33.886719 90.402344 33.894531 90.199219 C 33.886719 90.019531 34.035156 89.886719 34.171875 89.636719 C 34.371094 89.214844 34.15625 88.71875 33.921875 88.34375 C 33.527344 87.730469 32.730469 87.417969 31.996094 87.550781 C 31.734375 87.589844 31.550781 87.542969 31.316406 87.484375 C 31.777344 87.046875 31.910156 86.296875 32.253906 85.84375 C 32.332031 85.746094 32.417969 85.652344 32.515625 85.566406 C 32.5 85.613281 32.515625 85.660156 32.558594 85.6875 C 32.558594 85.722656 32.566406 85.761719 32.589844 85.792969 C 32.777344 86.496094 33.109375 87.15625 33.566406 87.722656 C 33.910156 88.207031 34.410156 88.589844 35.027344 88.613281 C 35.347656 88.667969 35.652344 88.511719 35.910156 88.359375 C 36.203125 88.1875 36.503906 88.03125 36.800781 87.878906 C 37.582031 87.484375 38.519531 87.605469 39.175781 88.175781 C 39.394531 88.324219 39.5625 88.613281 39.796875 88.832031 C 39.828125 88.886719 39.886719 88.90625 39.9375 88.886719 C 39.988281 88.871094 40.027344 88.816406 40.019531 88.761719 C 40.003906 88.6875 39.933594 88.625 39.894531 88.5625 C 39.484375 87.957031 39.183594 87.171875 38.71875 86.511719 C 38.121094 85.660156 37.46875 84.777344 36.578125 84.214844 C 35.984375 83.878906 35.28125 83.761719 34.609375 83.769531 C 33.925781 83.78125 33.285156 84.109375 32.886719 84.65625 C 32.753906 84.847656 32.652344 85.058594 32.582031 85.269531 C 32.550781 85.285156 32.527344 85.300781 32.511719 85.328125 C 31.9375 85.722656 31.816406 86.347656 31.519531 86.902344 C 31.363281 87.183594 31.246094 87.34375 31.015625 87.480469 L 30.953125 87.511719 C 30.574219 86.109375 30.25 84.671875 30.355469 83.28125 C 30.359375 83.207031 30.371094 83.136719 30.386719 83.066406 C 30.496094 83.046875 30.613281 83.046875 30.71875 83.015625 C 31.121094 82.90625 31.355469 82.546875 31.46875 82.144531 C 31.65625 81.609375 31.671875 80.984375 31.324219 80.5 C 31.265625 80.433594 31.175781 80.296875 31.089844 80.238281 C 31.097656 80.214844 31.105469 80.183594 31.105469 80.15625 C 31.386719 80.308594 31.660156 80.1875 31.890625 80.011719 L 31.894531 80.027344 C 32 80.109375 32.160156 80.066406 32.28125 80.109375 C 32.390625 80.128906 32.703125 80.191406 32.796875 80.261719 C 33.105469 80.421875 33.234375 80.636719 33.4375 80.910156 C 33.613281 81.140625 33.847656 81.316406 34.121094 81.421875 C 34.707031 81.71875 35.425781 81.707031 35.738281 82.203125 C 35.996094 82.578125 36.15625 83.171875 36.488281 83.578125 C 36.667969 83.800781 36.871094 84.011719 37.082031 84.191406 C 37.199219 84.296875 37.332031 84.40625 37.484375 84.425781 C 37.875 84.449219 37.65625 84.058594 37.589844 83.855469 C 37.496094 83.5625 37.4375 83.261719 37.425781 82.957031 C 37.40625 82.449219 37.691406 82 37.683594 81.425781 C 37.707031 80.972656 37.566406 80.546875 37.347656 80.15625 C 37.078125 79.628906 36.691406 79.171875 36.21875 78.816406 C 35.527344 78.3125 34.644531 78.140625 33.808594 78.339844 C 33.410156 78.464844 33.082031 78.714844 32.761719 78.941406 C 32.277344 79.285156 31.800781 79.917969 31.390625 79.96875 C 31.238281 79.984375 31.234375 79.949219 31.097656 79.875 C 31.203125 79.261719 31.277344 78.667969 31.378906 78.050781 C 31.453125 77.613281 31.675781 77.078125 31.972656 76.605469 C 32 76.613281 32.015625 76.605469 32.046875 76.589844 C 32.347656 76.394531 32.761719 76.578125 33.222656 76.703125 C 34.050781 76.832031 34.921875 76.847656 34.90625 75.777344 C 34.90625 75.457031 34.875 75.050781 34.9375 74.816406 C 35.035156 74.425781 35.167969 73.980469 34.964844 73.589844 C 35.292969 73.332031 35.628906 73.097656 35.980469 72.878906 C 36.566406 72.527344 37.191406 72.230469 37.84375 72 C 38.082031 72.113281 38.324219 72.269531 38.589844 72.316406 C 39.097656 72.417969 39.765625 72.347656 40.199219 72.410156 C 40.714844 72.519531 41.058594 72.800781 41.558594 73.03125 C 42.074219 73.222656 42.652344 73.105469 43.191406 73.105469 C 43.371094 73.09375 43.75 73.136719 43.589844 72.859375 C 42.628906 71.734375 41.566406 70.605469 40.175781 70.042969 C 39.175781 69.65625 37.527344 69.785156 37.21875 71.019531 C 37.222656 71.378906 37.371094 71.625 37.421875 71.917969 C 37.25 71.984375 37.078125 72.058594 36.917969 72.140625 C 36.183594 72.484375 35.488281 72.90625 34.847656 73.40625 C 34.644531 73.089844 34.332031 72.832031 34.027344 72.628906 C 33.6875 72.402344 33.359375 72.191406 32.96875 72.050781 C 32.203125 71.765625 31.347656 72.246094 30.75 72.515625 C 30.511719 72.636719 30.246094 72.691406 29.980469 72.691406 C 29.765625 72.703125 29.527344 72.667969 29.355469 72.796875 C 29.050781 73.03125 29.121094 73.472656 29.277344 73.777344 C 29.378906 73.980469 29.609375 74.105469 29.8125 74.199219 C 30.140625 74.328125 30.699219 74.28125 30.9375 74.316406 C 31.238281 74.363281 31.441406 74.480469 31.589844 74.6875 C 31.644531 74.78125 31.675781 74.890625 31.671875 75 C 31.65625 75.207031 31.59375 75.402344 31.597656 75.597656 C 31.566406 75.855469 31.675781 76.097656 31.824219 76.300781 C 31.832031 76.332031 31.855469 76.355469 31.875 76.375 C 31.542969 76.890625 31.285156 77.441406 31.183594 78.050781 C 31.0625 78.753906 30.988281 79.433594 30.855469 80.097656 C 30.824219 80.078125 30.792969 80.0625 30.753906 80.058594 C 29.941406 79.691406 28.859375 78.671875 27.839844 79.253906 C 27.347656 79.46875 26.988281 80.015625 26.644531 80.269531 C 25.964844 80.738281 25.230469 80.902344 24.472656 80.53125 C 23.871094 80.28125 23.707031 80.703125 24.019531 81.203125 C 24.277344 81.574219 24.628906 81.871094 25.011719 82.113281 C 25.316406 82.316406 25.644531 82.484375 26.027344 82.488281 C 26.609375 82.453125 27.234375 82.1875 27.691406 82.269531 C 28.128906 82.34375 28.542969 82.558594 28.957031 82.703125 C 29.324219 82.832031 29.738281 82.9375 30.144531 82.949219 C 30.128906 83.019531 30.121094 83.09375 30.113281 83.167969 C 30.058594 83.875 30.125 84.578125 30.230469 85.285156 C 30.347656 85.941406 30.488281 86.609375 30.667969 87.261719 C 30.449219 87.167969 30.214844 87.140625 29.980469 87.171875 C 29.535156 87.246094 29.171875 87.511719 28.761719 87.683594 C 28.378906 87.839844 27.796875 87.902344 27.535156 87.59375 C 27.253906 87.277344 27.050781 86.84375 26.621094 86.707031 C 26.28125 86.640625 26.328125 87.074219 26.339844 87.292969 C 26.355469 87.660156 26.53125 88.011719 26.71875 88.332031 C 27.019531 88.863281 27.4375 89.316406 27.941406 89.660156 C 28.5625 90.082031 29.144531 90.285156 29.765625 90.644531 C 30.265625 90.988281 30.753906 91.394531 31.328125 91.621094 C 31.613281 91.746094 31.910156 91.839844 32.21875 91.902344 C 32.363281 92.265625 32.519531 92.644531 32.667969 93.011719 C 33.199219 94.234375 33.792969 95.390625 34.222656 96.609375 C 33.457031 96.484375 32.691406 96.394531 31.972656 96.011719 C 31.574219 95.8125 31.050781 95.542969 30.625 95.222656 C 30.128906 94.839844 29.128906 93.953125 28.8125 94.957031 C 28.6875 95.5 28.902344 96.066406 29.214844 96.511719 C 29.640625 97.074219 30.191406 97.605469 30.457031 98.1875 C 30.96875 99.6875 31.308594 101.433594 32.566406 102.605469 C 33.066406 103.0625 33.613281 103.582031 34.324219 103.636719 C 34.46875 103.640625 34.613281 103.628906 34.761719 103.59375 C 34.753906 103.65625 34.761719 103.714844 34.753906 103.777344 C 34.761719 104.296875 34.808594 104.8125 34.890625 105.324219 C 33.71875 105.453125 32.613281 106.183594 31.871094 107.0625 C 31.015625 108.1875 30.339844 109.425781 29.84375 110.746094 C 29.691406 111.222656 29.386719 111.722656 29.546875 112.21875 C 29.6875 112.652344 30.15625 112.941406 30.609375 112.972656 C 30.953125 112.972656 31.269531 112.8125 31.59375 112.703125 C 31.71875 112.65625 31.84375 112.621094 31.972656 112.589844 C 31.921875 112.964844 31.777344 113.324219 31.550781 113.628906 C 31.214844 114.097656 30.691406 114.609375 30.40625 115.21875 C 29.824219 114.863281 29.109375 114.792969 28.464844 115.015625 C 27.636719 115.308594 27.074219 116.035156 26.441406 116.597656 C 26.058594 116.980469 25.78125 117.21875 25.238281 117.296875 C 24.753906 117.371094 23.953125 117.28125 23.390625 117.472656 C 22.8125 117.628906 22.410156 118.097656 22.175781 118.613281 C 21.535156 119.890625 21.597656 121.375 21.621094 122.765625 C 21.671875 124.078125 21.65625 125.40625 21.863281 126.699219 C 21.964844 127.167969 22.011719 127.722656 22.207031 128.140625 C 22.589844 128.644531 22.863281 127.746094 22.964844 127.59375 Z M 53.605469 95.363281 C 53.828125 95.765625 54 96.175781 54.199219 96.597656 C 54.386719 96.964844 54.578125 97.300781 54.734375 97.683594 C 54.785156 97.785156 54.832031 97.902344 54.871094 98.011719 C 54.4375 98.035156 53.964844 98.042969 53.621094 97.957031 C 53.324219 97.890625 53.027344 97.738281 52.71875 97.761719 C 52.703125 97.765625 52.691406 97.765625 52.675781 97.761719 C 52.933594 96.96875 53.277344 96.171875 53.605469 95.363281 Z M 51.222656 103.792969 C 51.277344 103.761719 51.3125 103.714844 51.332031 103.65625 C 52.15625 102.808594 53.269531 103.21875 54.46875 103.683594 C 55.21875 103.972656 56.019531 104.058594 56.75 104.386719 C 57.347656 104.613281 58.035156 105.058594 58.449219 105.46875 C 58.535156 105.550781 58.621094 105.644531 58.691406 105.746094 C 58.035156 106.140625 57.527344 106.746094 57.3125 107.496094 C 56.847656 108.769531 56.871094 110.246094 56.574219 111.453125 C 56.324219 112.324219 55.925781 113.109375 55.324219 113.761719 C 54.859375 113.019531 54.128906 113.074219 53.347656 113.316406 C 52.964844 113.417969 52.667969 113.46875 52.472656 113.246094 C 52.328125 113.082031 52.238281 112.871094 52.125 112.644531 C 52.183594 112.675781 52.253906 112.703125 52.3125 112.730469 C 52.707031 112.84375 53.144531 112.800781 53.542969 112.71875 C 54.421875 112.441406 54.800781 111.425781 54.917969 110.609375 C 54.9375 110.375 54.894531 110.140625 54.808594 109.925781 C 54.957031 109.902344 55.109375 109.855469 55.25 109.777344 C 55.542969 109.609375 55.761719 109.332031 55.964844 109.066406 C 56.449219 108.378906 56.558594 107.503906 56.355469 106.6875 C 55.933594 104.964844 54.503906 104.417969 52.871094 104.386719 C 52.3125 104.347656 51.714844 104.121094 51.128906 103.878906 C 51.199219 103.824219 51.207031 103.796875 51.222656 103.792969 Z M 49.246094 113.8125 C 49.652344 113.703125 50.0625 113.609375 50.375 113.328125 C 50.722656 113.027344 50.941406 112.605469 50.988281 112.152344 C 51 112.019531 50.984375 111.894531 50.953125 111.769531 C 50.996094 111.808594 51.035156 111.847656 51.082031 111.90625 C 50.917969 112.46875 50.871094 113.074219 50.832031 113.671875 C 50.824219 114 50.84375 114.308594 50.980469 114.613281 C 50.988281 114.628906 50.972656 114.640625 50.984375 114.65625 C 51.277344 115.265625 51.902344 115.824219 52.207031 116.300781 C 52.5625 116.984375 52.277344 117.828125 51.839844 118.375 C 51.359375 118.964844 50.761719 119.433594 50.1875 119.949219 L 50.160156 119.902344 C 50.0625 119.71875 49.933594 119.550781 49.777344 119.417969 C 49.183594 118.886719 48.359375 118.808594 47.792969 118.359375 C 47.53125 118.171875 47.417969 117.832031 47.566406 117.613281 C 47.582031 117.609375 47.589844 117.582031 47.605469 117.578125 C 47.691406 117.511719 47.785156 117.464844 47.875 117.394531 C 48.5625 116.984375 49.300781 116.441406 49.433594 115.613281 C 49.480469 115.203125 49.46875 114.78125 49.394531 114.375 C 49.355469 114.183594 49.308594 113.996094 49.246094 113.8125 Z M 34.503906 118.785156 C 34.578125 118.761719 34.652344 118.746094 34.71875 118.734375 C 34.953125 118.714844 35.074219 118.753906 35.300781 118.8125 C 35.886719 119.015625 36.511719 119.410156 37.15625 119.660156 C 37.140625 119.667969 37.140625 119.667969 37.136719 119.691406 C 36.964844 120.21875 36.578125 120.558594 35.996094 120.699219 C 35.515625 120.785156 35.160156 121.109375 34.90625 121.5 C 34.839844 121.59375 34.777344 121.691406 34.71875 121.796875 C 34.769531 121.628906 34.84375 121.453125 34.894531 121.285156 C 35.019531 120.816406 35.042969 120.328125 34.957031 119.855469 C 34.890625 119.488281 34.71875 119.113281 34.503906 118.785156 Z M 31.832031 113.902344 C 32.089844 113.550781 32.203125 113.152344 32.261719 112.71875 C 32.40625 112.6875 32.558594 112.671875 32.683594 112.644531 C 33.421875 112.5625 34.035156 112.746094 34.597656 113.21875 C 35.027344 113.578125 35.519531 113.878906 36.089844 113.890625 C 36.777344 113.832031 37.355469 113.4375 37.761719 112.90625 C 38.300781 113.769531 38.824219 114.621094 39.191406 115.609375 C 39.394531 116.125 39.53125 116.613281 39.671875 117.125 C 39.542969 117.191406 39.394531 117.21875 39.25 117.203125 C 38.980469 117.183594 38.582031 116.984375 38.253906 116.894531 C 37.222656 116.605469 36.136719 116.746094 35.140625 117.058594 C 34.644531 117.234375 34.125 117.582031 33.738281 117.640625 C 33.691406 117.640625 33.644531 117.644531 33.605469 117.652344 C 32.796875 117.5625 31.984375 117.265625 31.519531 116.5625 C 31.300781 116.253906 31.140625 115.902344 30.847656 115.644531 C 30.785156 115.597656 30.722656 115.550781 30.652344 115.488281 C 30.949219 114.9375 31.417969 114.496094 31.832031 113.902344 Z M 31.832031 113.902344 "/>
<path style=" stroke:none;fill-rule:evenodd;fill:rgb(94.901961%,98.039216%,99.215686%);fill-opacity:1;" d="M 37.75 135.003906 C 37.925781 136.261719 38.519531 137.550781 39.328125 138.796875 C 40.371094 140.402344 41.734375 141.949219 42.792969 143.265625 C 43.722656 144.449219 44.707031 145.574219 45.734375 146.65625 C 46.761719 147.746094 47.839844 148.78125 48.957031 149.777344 C 50.453125 151.109375 52.027344 152.339844 53.683594 153.457031 C 57.578125 156.089844 62.066406 158.1875 67.363281 159.558594 C 67.921875 159.683594 68.472656 159.339844 68.597656 158.78125 C 68.722656 158.222656 68.375 157.671875 67.824219 157.546875 C 62.660156 156.515625 58.199219 154.800781 54.347656 152.425781 C 52.699219 151.410156 51.128906 150.253906 49.671875 148.972656 C 48.582031 148.003906 47.550781 146.96875 46.59375 145.875 C 45.636719 144.777344 44.734375 143.628906 43.894531 142.4375 C 42.957031 141.09375 41.722656 139.519531 40.839844 137.894531 C 40.269531 136.859375 39.863281 135.808594 39.808594 134.808594 C 39.75 134.238281 39.246094 133.828125 38.675781 133.886719 C 38.113281 133.9375 37.699219 134.441406 37.75 135.003906 Z M 68.21875 36.402344 C 69.074219 35.730469 70.03125 35.207031 71.046875 34.792969 C 72.636719 34.136719 74.347656 33.730469 75.984375 33.390625 C 79.78125 32.621094 83.71875 32.441406 87.53125 33.019531 C 91.34375 33.597656 95.019531 34.925781 98.292969 37.113281 C 101.019531 38.964844 103.441406 41.230469 105.890625 43.449219 C 107.550781 44.964844 109.222656 46.453125 111.03125 47.765625 C 112.972656 49.175781 115.066406 50.390625 117.4375 51.214844 C 119.394531 51.894531 121.375 52.214844 123.359375 52.371094 C 127.871094 52.714844 132.425781 52.144531 136.925781 53.113281 C 138.785156 53.519531 140.488281 54.222656 142.082031 55.113281 C 144.542969 56.484375 146.753906 58.292969 148.949219 60.144531 C 149.230469 60.386719 149.621094 60.453125 149.96875 60.324219 C 150.3125 60.191406 150.5625 59.890625 150.625 59.527344 C 150.6875 59.160156 150.546875 58.792969 150.261719 58.558594 C 147.921875 56.683594 145.550781 54.871094 142.949219 53.511719 C 141.175781 52.582031 139.300781 51.863281 137.261719 51.480469 C 132.660156 50.597656 128.042969 51.269531 123.449219 51.019531 C 121.574219 50.917969 119.699219 50.652344 117.832031 50.042969 C 115.566406 49.296875 113.558594 48.171875 111.6875 46.847656 C 109.902344 45.582031 108.246094 44.136719 106.609375 42.65625 C 104.125 40.402344 101.703125 38.0625 98.941406 36.15625 C 95.5625 33.796875 91.734375 32.34375 87.753906 31.640625 C 83.785156 30.933594 79.65625 30.980469 75.660156 31.667969 C 73.902344 31.96875 72.0625 32.347656 70.34375 32.984375 C 69.136719 33.433594 67.996094 34.011719 66.96875 34.761719 C 66.515625 35.105469 66.425781 35.753906 66.769531 36.207031 C 67.113281 36.660156 67.765625 36.746094 68.21875 36.402344 Z M 68.21875 36.402344 "/>
<path style=" stroke:none;fill-rule:evenodd;fill:rgb(100%,100%,100%);fill-opacity:1;" d="M 106.71875 69.597656 C 106.714844 65.910156 103.722656 62.917969 100.03125 62.910156 L 50.707031 62.910156 C 47.015625 62.917969 44.027344 65.910156 44.027344 69.597656 L 44.027344 139.269531 C 44.027344 142.964844 47.015625 145.957031 50.707031 145.964844 L 100.03125 145.964844 C 103.722656 145.957031 106.714844 142.964844 106.71875 139.269531 Z M 106.71875 69.597656 "/>
<g clip-path="url(#clip1)" clip-rule="nonzero">
<g clip-path="url(#clip2)" clip-rule="nonzero">
<path style=" stroke:none;fill-rule:evenodd;fill:rgb(38.431373%,81.568629%,97.647059%);fill-opacity:1;" d="M 114.152344 73.808594 L 114.152344 64.214844 C 114.152344 63.496094 113.433594 62.910156 112.546875 62.910156 L 38.199219 62.910156 C 37.3125 62.910156 36.59375 63.496094 36.59375 64.214844 L 36.59375 73.808594 C 36.59375 74.519531 37.3125 75.105469 38.199219 75.105469 L 112.546875 75.105469 C 113.433594 75.105469 114.152344 74.519531 114.152344 73.808594 Z M 114.152344 73.808594 "/>
</g>
</g>
<g clip-path="url(#clip3)" clip-rule="nonzero">
<g clip-path="url(#clip4)" clip-rule="nonzero">
<path style=" stroke:none;fill-rule:nonzero;fill:rgb(100%,100%,100%);fill-opacity:1;" d="M 52.640625 69.011719 C 52.640625 68.097656 51.902344 67.359375 50.984375 67.359375 C 50.074219 67.359375 49.332031 68.097656 49.332031 69.011719 C 49.332031 69.921875 50.074219 70.660156 50.984375 70.660156 C 51.902344 70.660156 52.640625 69.921875 52.640625 69.011719 Z M 52.640625 69.011719 "/>
</g>
</g>
<g clip-path="url(#clip5)" clip-rule="nonzero">
<g clip-path="url(#clip6)" clip-rule="nonzero">
<path style=" stroke:none;fill-rule:nonzero;fill:rgb(100%,100%,100%);fill-opacity:1;" d="M 57.871094 69.011719 C 57.871094 68.097656 57.128906 67.359375 56.21875 67.359375 C 55.308594 67.359375 54.566406 68.097656 54.566406 69.011719 C 54.566406 69.921875 55.308594 70.660156 56.21875 70.660156 C 57.128906 70.660156 57.871094 69.921875 57.871094 69.011719 Z M 57.871094 69.011719 "/>
</g>
</g>
<g clip-path="url(#clip7)" clip-rule="nonzero">
<g clip-path="url(#clip8)" clip-rule="nonzero">
<path style=" stroke:none;fill-rule:nonzero;fill:rgb(100%,100%,100%);fill-opacity:1;" d="M 63.265625 69.011719 C 63.265625 68.097656 62.527344 67.359375 61.613281 67.359375 C 60.699219 67.359375 59.957031 68.097656 59.957031 69.011719 C 59.957031 69.921875 60.699219 70.660156 61.613281 70.660156 C 62.527344 70.660156 63.265625 69.921875 63.265625 69.011719 Z M 63.265625 69.011719 "/>
</g>
</g>
<path style=" stroke:none;fill-rule:nonzero;fill:rgb(89.019608%,96.862745%,99.607843%);fill-opacity:1;" d="M 73.578125 93.074219 C 73.578125 86.792969 68.488281 81.703125 62.214844 81.703125 C 55.9375 81.703125 50.847656 86.792969 50.847656 93.074219 C 50.847656 99.347656 55.9375 104.4375 62.214844 104.4375 C 68.488281 104.4375 73.578125 99.347656 73.578125 93.074219 Z M 73.578125 93.074219 "/>
<g clip-path="url(#clip9)" clip-rule="nonzero">
<g clip-path="url(#clip10)" clip-rule="nonzero">
<path style=" stroke:none;fill-rule:evenodd;fill:url(#linear1);" d="M 50.9375 98.707031 C 56.511719 89.855469 59.082031 89.375 62.214844 92.894531 C 65.34375 96.417969 66.296875 97.449219 69.875 95.824219 C 73.449219 94.203125 75.113281 95.964844 76.214844 98.390625 C 77.316406 100.816406 62.59375 107.457031 59.875 107.40625 C 57.152344 107.347656 45.359375 107.5625 50.9375 98.707031 Z M 50.9375 98.707031 "/>
</g>
</g>
<path style=" stroke:none;fill-rule:nonzero;fill:url(#linear2);" d="M 72.609375 86.855469 C 72.609375 84.652344 70.816406 82.863281 68.613281 82.863281 C 66.40625 82.863281 64.621094 84.652344 64.621094 86.855469 C 64.621094 89.0625 66.40625 90.847656 68.613281 90.847656 C 70.816406 90.847656 72.609375 89.0625 72.609375 86.855469 Z M 72.609375 86.855469 "/>
<path style=" stroke:none;fill-rule:evenodd;fill:rgb(89.019608%,96.862745%,99.607843%);fill-opacity:1;" d="M 73.125 113.441406 C 73.128906 113.175781 73.019531 112.921875 72.832031 112.734375 C 72.644531 112.546875 72.390625 112.4375 72.125 112.441406 L 54.109375 112.441406 C 53.84375 112.441406 53.589844 112.546875 53.402344 112.734375 C 53.214844 112.921875 53.109375 113.175781 53.109375 113.441406 C 53.109375 113.707031 53.214844 113.964844 53.402344 114.152344 C 53.589844 114.339844 53.84375 114.441406 54.109375 114.441406 L 72.125 114.441406 C 72.390625 114.449219 72.644531 114.339844 72.832031 114.152344 C 73.019531 113.964844 73.128906 113.707031 73.125 113.441406 Z M 73.125 113.441406 "/>
<path style=" stroke:none;fill-rule:evenodd;fill:rgb(93.725491%,98.039216%,99.607843%);fill-opacity:1;" d="M 103.746094 94.953125 C 103.738281 93.285156 102.390625 91.933594 100.722656 91.9375 L 79.878906 91.9375 C 78.214844 91.9375 76.859375 93.285156 76.863281 94.953125 C 76.863281 95.753906 77.183594 96.519531 77.746094 97.089844 C 78.3125 97.652344 79.078125 97.96875 79.878906 97.96875 L 100.722656 97.96875 C 102.390625 97.96875 103.738281 96.621094 103.746094 94.953125 Z M 103.746094 94.953125 "/>
<path style=" stroke:none;fill-rule:evenodd;fill:rgb(89.019608%,96.862745%,99.607843%);fill-opacity:1;" d="M 71.875 127.417969 C 71.875 126.863281 71.425781 126.417969 70.875 126.417969 L 53.550781 126.417969 C 53 126.417969 52.550781 126.863281 52.550781 127.417969 L 52.550781 127.421875 C 52.550781 127.972656 53 128.421875 53.550781 128.421875 L 70.875 128.421875 C 71.425781 128.421875 71.875 127.972656 71.875 127.421875 Z M 95.542969 127.308594 C 95.542969 126.753906 95.09375 126.308594 94.542969 126.300781 L 77.214844 126.300781 C 76.660156 126.308594 76.21875 126.753906 76.214844 127.308594 C 76.214844 127.859375 76.660156 128.308594 77.214844 128.308594 L 94.542969 128.308594 C 95.09375 128.308594 95.542969 127.859375 95.542969 127.308594 Z M 95.542969 117.160156 C 95.542969 116.894531 95.4375 116.640625 95.25 116.453125 C 95.058594 116.265625 94.800781 116.15625 94.535156 116.15625 L 54.113281 116.15625 C 53.84375 116.15625 53.589844 116.265625 53.402344 116.453125 C 53.214844 116.640625 53.109375 116.894531 53.109375 117.160156 C 53.109375 117.425781 53.214844 117.683594 53.402344 117.871094 C 53.589844 118.058594 53.84375 118.160156 54.113281 118.160156 L 94.535156 118.160156 C 94.800781 118.160156 95.058594 118.058594 95.25 117.871094 C 95.4375 117.683594 95.542969 117.425781 95.542969 117.160156 Z M 71.875 131.136719 C 71.875 130.582031 71.425781 130.136719 70.875 130.136719 L 53.550781 130.136719 C 53 130.136719 52.550781 130.582031 52.550781 131.136719 C 52.550781 131.6875 53 132.136719 53.550781 132.140625 L 70.875 132.140625 C 71.425781 132.136719 71.875 131.6875 71.875 131.136719 Z M 95.542969 131.027344 C 95.542969 130.46875 95.09375 130.019531 94.542969 130.019531 L 77.214844 130.019531 C 76.660156 130.019531 76.214844 130.46875 76.214844 131.027344 C 76.21875 131.578125 76.660156 132.027344 77.214844 132.027344 L 94.542969 132.027344 C 95.09375 132.027344 95.542969 131.578125 95.542969 131.027344 Z M 95.542969 121.105469 C 95.542969 120.839844 95.4375 120.582031 95.25 120.394531 C 95.058594 120.207031 94.800781 120.097656 94.535156 120.097656 L 54.113281 120.097656 C 53.84375 120.097656 53.589844 120.207031 53.402344 120.394531 C 53.214844 120.582031 53.109375 120.839844 53.109375 121.105469 C 53.109375 121.371094 53.214844 121.625 53.402344 121.8125 C 53.589844 122 53.84375 122.105469 54.113281 122.105469 L 94.535156 122.105469 C 94.800781 122.105469 95.058594 122 95.25 121.8125 C 95.4375 121.625 95.542969 121.371094 95.542969 121.105469 Z M 71.875 135.078125 C 71.875 134.527344 71.425781 134.078125 70.875 134.078125 L 53.550781 134.078125 C 53 134.078125 52.550781 134.527344 52.550781 135.078125 C 52.550781 135.628906 53 136.082031 53.550781 136.082031 L 70.875 136.082031 C 71.425781 136.082031 71.875 135.628906 71.875 135.078125 Z M 95.542969 134.96875 C 95.542969 134.410156 95.09375 133.964844 94.542969 133.964844 L 77.214844 133.964844 C 76.660156 133.964844 76.214844 134.410156 76.214844 134.96875 C 76.21875 135.519531 76.660156 135.96875 77.214844 135.96875 L 94.542969 135.96875 C 95.09375 135.96875 95.542969 135.519531 95.542969 134.96875 Z M 95.542969 134.96875 "/>
<path style=" stroke:none;fill-rule:evenodd;fill:url(#linear3);" d="M 145.828125 74.675781 C 149.785156 74.675781 152.671875 78.324219 152.109375 83.269531 C 151.707031 86.777344 147.425781 90.425781 143.191406 92.175781 C 139.535156 93.6875 139.515625 88.15625 139.515625 83.175781 C 139.515625 78.199219 141.871094 74.675781 145.828125 74.675781 Z M 145.828125 74.675781 "/>
<path style=" stroke:none;fill-rule:evenodd;fill:url(#linear4);" d="M 142.808594 100.996094 C 146.613281 109.8125 121.105469 138.074219 112.605469 137.347656 C 104.097656 136.621094 91.78125 96.628906 91.78125 96.628906 L 88.199219 91.9375 L 97.652344 93.128906 L 96.988281 94.417969 C 96.988281 94.417969 110.324219 117.625 113.949219 119.363281 C 115.75 120.230469 120.449219 106.019531 130.417969 100.371094 C 141.285156 94.21875 140.628906 95.949219 142.808594 100.996094 Z M 142.808594 100.996094 "/>
<g clip-path="url(#clip11)" clip-rule="nonzero">
<g clip-path="url(#clip12)" clip-rule="nonzero">
<path style=" stroke:none;fill-rule:evenodd;fill:url(#linear5);" d="M 119.015625 106.886719 C 121.824219 106.480469 126.472656 107.238281 128.066406 109.839844 C 128.980469 111.328125 128.683594 113.105469 129.113281 114.734375 C 130.089844 118.363281 133.472656 121.859375 137.46875 121.714844 C 142.355469 121.542969 143.9375 115.003906 144.863281 111.285156 C 146.105469 106.285156 147.339844 99.871094 143.144531 95.894531 C 142.402344 95.183594 141.542969 94.621094 140.621094 94.167969 C 139.394531 93.566406 138.082031 93.160156 136.738281 92.953125 C 135.058594 92.683594 133.308594 92.671875 131.628906 92.96875 C 128.875 93.46875 126.308594 94.875 124.171875 96.660156 C 121.410156 98.988281 119.394531 101.859375 117.792969 105.078125 Z M 119.015625 106.886719 "/>
</g>
</g>
<path style=" stroke:none;fill-rule:evenodd;fill:url(#linear6);" d="M 148.355469 94.691406 C 161.707031 95.871094 166.21875 96.160156 165.503906 120.855469 C 164.785156 146.035156 131.703125 145.152344 131.703125 145.152344 C 131.703125 145.152344 136.5625 129.402344 132.65625 115.96875 C 127.941406 99.761719 138.917969 93.859375 148.355469 94.691406 Z M 148.355469 94.691406 "/>
<path style=" stroke:none;fill-rule:evenodd;fill:rgb(67.058825%,90.980393%,100%);fill-opacity:1;" d="M 115.703125 88.730469 C 115.703125 86.296875 113.734375 84.328125 111.300781 84.328125 L 86.269531 84.328125 C 83.839844 84.328125 81.863281 86.296875 81.863281 88.730469 C 81.863281 91.160156 83.839844 93.128906 86.269531 93.128906 L 111.300781 93.128906 C 113.734375 93.128906 115.703125 91.160156 115.703125 88.730469 Z M 115.703125 88.730469 "/>
<path style=" stroke:none;fill-rule:nonzero;fill:rgb(0%,0%,0%);fill-opacity:1;" d="M 88.40625 86.808594 L 88.40625 87.457031 C 88.246094 87.425781 88.089844 87.410156 87.925781 87.40625 C 87.511719 87.40625 87.199219 87.5 87 87.675781 C 86.800781 87.859375 86.6875 88.160156 86.660156 88.589844 L 86.699219 88.589844 C 86.863281 88.296875 87.152344 88.144531 87.550781 88.144531 C 87.890625 88.144531 88.167969 88.253906 88.363281 88.46875 C 88.566406 88.6875 88.667969 88.980469 88.667969 89.355469 C 88.667969 89.765625 88.550781 90.089844 88.324219 90.328125 C 88.089844 90.5625 87.769531 90.683594 87.375 90.683594 C 87.109375 90.6875 86.847656 90.613281 86.628906 90.472656 C 86.410156 90.328125 86.246094 90.113281 86.152344 89.871094 C 86.046875 89.609375 85.988281 89.292969 85.988281 88.921875 C 85.988281 88.21875 86.144531 87.683594 86.46875 87.316406 C 86.792969 86.957031 87.265625 86.777344 87.894531 86.777344 C 88.066406 86.769531 88.234375 86.785156 88.40625 86.808594 Z M 87.957031 89.375 C 87.957031 89.175781 87.90625 89.019531 87.808594 88.917969 C 87.707031 88.808594 87.5625 88.753906 87.375 88.753906 C 87.203125 88.75 87.035156 88.808594 86.90625 88.917969 C 86.785156 89.011719 86.71875 89.152344 86.71875 89.296875 C 86.707031 89.488281 86.769531 89.683594 86.894531 89.832031 C 87.003906 89.957031 87.167969 90.035156 87.332031 90.046875 C 87.503906 90.058594 87.671875 89.996094 87.796875 89.878906 C 87.90625 89.769531 87.957031 89.597656 87.957031 89.375 Z M 92.238281 88.625 L 92.238281 88.644531 C 92.84375 88.722656 93.152344 89.027344 93.152344 89.558594 C 93.152344 89.90625 93.027344 90.183594 92.761719 90.378906 C 92.5 90.582031 92.125 90.683594 91.636719 90.683594 C 91.21875 90.683594 90.859375 90.613281 90.546875 90.480469 L 90.546875 89.800781 C 90.875 89.957031 91.230469 90.042969 91.59375 90.046875 C 91.871094 90.046875 92.074219 90.003906 92.214844 89.917969 C 92.347656 89.832031 92.425781 89.675781 92.417969 89.519531 C 92.417969 89.316406 92.339844 89.175781 92.1875 89.09375 C 92.03125 89.011719 91.792969 88.96875 91.453125 88.96875 L 91.128906 88.96875 L 91.128906 88.375 L 91.4375 88.375 C 91.734375 88.375 91.953125 88.332031 92.109375 88.261719 C 92.261719 88.183594 92.339844 88.046875 92.339844 87.847656 C 92.34375 87.722656 92.292969 87.605469 92.199219 87.527344 C 92.109375 87.449219 91.964844 87.410156 91.769531 87.410156 C 91.625 87.410156 91.484375 87.433594 91.347656 87.472656 C 91.191406 87.527344 91.046875 87.597656 90.910156 87.6875 L 90.550781 87.144531 C 90.925781 86.90625 91.363281 86.777344 91.8125 86.777344 C 92.199219 86.777344 92.503906 86.855469 92.722656 87.019531 C 92.941406 87.171875 93.066406 87.421875 93.0625 87.683594 C 93.0625 87.902344 92.988281 88.121094 92.84375 88.285156 C 92.707031 88.449219 92.5 88.5625 92.238281 88.625 Z M 96.921875 88.621094 C 97.203125 88.765625 97.40625 88.925781 97.53125 89.089844 C 97.84375 89.5 97.765625 90.082031 97.355469 90.394531 C 97.109375 90.589844 96.785156 90.683594 96.394531 90.683594 C 95.972656 90.683594 95.640625 90.59375 95.40625 90.410156 C 95.175781 90.230469 95.058594 89.980469 95.058594 89.660156 C 95.050781 89.453125 95.121094 89.25 95.238281 89.078125 C 95.355469 88.910156 95.542969 88.765625 95.785156 88.644531 C 95.378906 88.390625 95.171875 88.074219 95.171875 87.691406 C 95.167969 87.425781 95.296875 87.175781 95.515625 87.027344 C 95.738281 86.859375 96.035156 86.777344 96.394531 86.777344 C 96.75 86.777344 97.046875 86.855469 97.265625 87.019531 C 97.488281 87.175781 97.613281 87.433594 97.605469 87.699219 C 97.605469 88.09375 97.375 88.402344 96.921875 88.621094 Z M 96.394531 88.3125 C 96.589844 88.230469 96.71875 88.144531 96.792969 88.058594 C 96.863281 87.972656 96.90625 87.863281 96.90625 87.753906 C 96.910156 87.640625 96.859375 87.53125 96.765625 87.464844 C 96.652344 87.390625 96.519531 87.355469 96.386719 87.359375 C 96.253906 87.355469 96.125 87.390625 96.015625 87.464844 C 95.925781 87.53125 95.871094 87.640625 95.878906 87.753906 C 95.875 87.871094 95.917969 87.972656 95.996094 88.058594 C 96.109375 88.167969 96.246094 88.253906 96.394531 88.3125 Z M 96.347656 88.953125 C 95.953125 89.121094 95.753906 89.339844 95.753906 89.613281 C 95.75 89.753906 95.808594 89.886719 95.917969 89.972656 C 96.027344 90.058594 96.183594 90.105469 96.378906 90.105469 C 96.589844 90.105469 96.746094 90.058594 96.855469 89.972656 C 96.964844 89.894531 97.027344 89.761719 97.019531 89.625 C 97.015625 89.5 96.96875 89.386719 96.886719 89.296875 C 96.792969 89.199219 96.636719 89.09375 96.425781 88.988281 Z M 102.28125 90.625 L 99.625 90.625 L 99.625 90.0625 L 100.613281 89.089844 C 100.980469 88.722656 101.214844 88.472656 101.300781 88.332031 C 101.390625 88.203125 101.4375 88.050781 101.441406 87.894531 C 101.449219 87.765625 101.402344 87.640625 101.308594 87.550781 C 101.207031 87.46875 101.082031 87.421875 100.953125 87.433594 C 100.800781 87.433594 100.652344 87.464844 100.515625 87.519531 C 100.339844 87.597656 100.171875 87.703125 100.019531 87.828125 L 99.613281 87.316406 C 99.765625 87.199219 99.921875 87.09375 100.089844 86.996094 C 100.214844 86.925781 100.347656 86.875 100.488281 86.839844 C 100.644531 86.792969 100.808594 86.769531 100.972656 86.777344 C 101.332031 86.777344 101.621094 86.871094 101.839844 87.066406 C 102.050781 87.253906 102.175781 87.53125 102.167969 87.8125 C 102.167969 87.996094 102.128906 88.175781 102.0625 88.34375 C 101.980469 88.527344 101.871094 88.699219 101.734375 88.847656 C 101.527344 89.082031 101.300781 89.3125 101.066406 89.519531 L 100.621094 89.9375 L 100.621094 89.96875 L 102.28125 89.96875 Z M 104.386719 90.652344 L 104.386719 90 C 104.535156 90.03125 104.699219 90.050781 104.859375 90.046875 C 105.28125 90.046875 105.59375 89.953125 105.796875 89.769531 C 106 89.582031 106.109375 89.277344 106.125 88.847656 L 106.089844 88.847656 C 105.988281 89.019531 105.875 89.136719 105.734375 89.203125 C 105.574219 89.277344 105.402344 89.308594 105.222656 89.300781 C 104.878906 89.300781 104.605469 89.199219 104.410156 88.980469 C 104.214844 88.761719 104.113281 88.457031 104.113281 88.066406 C 104.113281 87.667969 104.230469 87.355469 104.464844 87.121094 C 104.699219 86.890625 105.015625 86.777344 105.40625 86.777344 C 105.832031 86.777344 106.171875 86.925781 106.421875 87.230469 C 106.671875 87.535156 106.796875 87.96875 106.796875 88.53125 C 106.796875 89.234375 106.636719 89.765625 106.316406 90.136719 C 106 90.5 105.527344 90.683594 104.894531 90.683594 C 104.722656 90.6875 104.550781 90.671875 104.386719 90.652344 Z M 104.824219 88.058594 C 104.824219 88.484375 105.019531 88.699219 105.402344 88.699219 C 105.574219 88.703125 105.746094 88.644531 105.875 88.53125 C 105.996094 88.441406 106.0625 88.300781 106.066406 88.152344 C 106.074219 87.964844 106.003906 87.78125 105.890625 87.628906 C 105.777344 87.5 105.621094 87.421875 105.449219 87.410156 C 105.277344 87.402344 105.109375 87.457031 104.980469 87.578125 C 104.878906 87.691406 104.824219 87.847656 104.824219 88.058594 Z M 110.011719 90.683594 C 109.574219 90.683594 109.238281 90.515625 109.019531 90.1875 C 108.796875 89.859375 108.6875 89.375 108.6875 88.738281 C 108.6875 88.074219 108.796875 87.582031 109.015625 87.261719 C 109.234375 86.9375 109.566406 86.777344 110.011719 86.777344 C 110.890625 86.777344 111.339844 87.425781 111.339844 88.730469 C 111.339844 89.410156 111.222656 89.90625 111.011719 90.21875 C 110.792969 90.527344 110.457031 90.683594 110.011719 90.683594 Z M 110.011719 90.046875 C 110.222656 90.046875 110.375 89.941406 110.46875 89.738281 C 110.5625 89.53125 110.609375 89.199219 110.609375 88.730469 C 110.609375 88.253906 110.5625 87.917969 110.46875 87.714844 C 110.375 87.511719 110.222656 87.410156 110.011719 87.40625 C 109.875 87.402344 109.746094 87.453125 109.652344 87.558594 C 109.5625 87.652344 109.5 87.796875 109.464844 87.988281 C 109.425781 88.238281 109.40625 88.484375 109.410156 88.738281 C 109.410156 89.199219 109.457031 89.53125 109.550781 89.738281 C 109.644531 89.941406 109.796875 90.046875 110.011719 90.046875 Z M 110.011719 90.046875 "/>
<path style=" stroke:none;fill-rule:evenodd;fill:rgb(60.392159%,88.235295%,98.431373%);fill-opacity:1;" d="M 95.640625 93.128906 C 95.605469 92.640625 96.660156 90.941406 97.105469 90.683594 C 97.527344 90.433594 98.246094 91.074219 98.292969 91.5625 C 98.332031 92.050781 97.796875 93.363281 97.355469 93.625 C 96.910156 93.886719 95.683594 93.621094 95.640625 93.128906 Z M 95.640625 93.128906 "/>
<path style=" stroke:none;fill-rule:evenodd;fill:url(#linear7);" d="M 146.246094 74.675781 C 146.246094 74.675781 147.113281 76.589844 146.484375 78.097656 C 146.316406 78.496094 145.933594 78.785156 145.621094 79.078125 C 144.8125 79.808594 143.800781 80.199219 142.933594 80.816406 C 142.671875 81 142.121094 81.355469 142.15625 81.734375 C 142.199219 82.175781 143.066406 81.96875 143.308594 81.894531 C 144.25 81.613281 144.996094 81.28125 145.5 82.046875 C 146.015625 82.828125 145.605469 84.753906 145.074219 86.058594 C 144.972656 86.285156 144.546875 87.265625 145.035156 87.363281 C 145.355469 87.425781 145.636719 87.058594 145.808594 86.847656 C 146.308594 86.246094 146.4375 84.167969 146.9375 83.550781 C 147.167969 83.269531 147.519531 82.941406 147.847656 83.457031 C 148.863281 85.042969 147.84375 86.671875 146.714844 87.21875 C 145.347656 87.875 145.175781 91.1875 145.175781 91.1875 C 145.175781 91.1875 148.128906 92.113281 149.046875 89.738281 C 150.667969 90.300781 153.738281 89.917969 153.71875 86.792969 C 156.628906 85.582031 157.96875 81.011719 155.238281 79.433594 C 155.636719 79.238281 155.875 78.675781 155.984375 78.285156 C 157.105469 74.34375 152.496094 69.925781 148.15625 72.394531 C 147.199219 72.941406 146.5 73.644531 146.246094 74.675781 Z M 146.246094 74.675781 "/>
<path style=" stroke:none;fill-rule:nonzero;fill:url(#linear8);" d="M 120.214844 154.09375 C 120.214844 145.933594 113.597656 139.316406 105.4375 139.316406 C 97.277344 139.316406 90.660156 145.933594 90.660156 154.09375 C 90.660156 162.253906 97.277344 168.871094 105.4375 168.871094 C 113.597656 168.871094 120.214844 162.253906 120.214844 154.09375 Z M 120.214844 154.09375 "/>
<path style=" stroke:none;fill-rule:evenodd;fill:rgb(100%,100%,100%);fill-opacity:1;" d="M 96.78125 155.386719 L 101.671875 161.484375 C 102.078125 161.996094 102.703125 162.28125 103.355469 162.253906 C 104.003906 162.234375 104.605469 161.90625 104.972656 161.371094 L 114.113281 148.207031 C 114.761719 147.269531 114.53125 145.984375 113.59375 145.332031 C 112.65625 144.6875 111.371094 144.917969 110.722656 145.855469 L 103.160156 156.75 L 99.996094 152.800781 C 99.28125 151.921875 97.988281 151.78125 97.105469 152.496094 C 96.21875 153.203125 96.074219 154.496094 96.78125 155.386719 Z M 96.78125 155.386719 "/>
<path style=" stroke:none;fill-rule:evenodd;fill:url(#linear9);" d="M 159.003906 97.511719 C 168.574219 98.347656 182.53125 132.050781 176.644531 141.359375 C 170.753906 150.667969 133.605469 151.625 123.683594 153.347656 C 116.140625 159.9375 113.058594 151.738281 114.140625 151.730469 C 118.941406 151.683594 118.8125 147.832031 118.8125 147.832031 C 118.8125 147.832031 118.890625 147.425781 117.535156 145.792969 C 119.03125 144.734375 122.375 147.777344 122.375 147.777344 C 122.375 147.777344 158.207031 133.996094 161.457031 131.628906 C 163.078125 130.457031 152.984375 119.566406 152.574219 108.121094 C 152.433594 104.191406 153.53125 97.03125 159.003906 97.511719 Z M 159.003906 97.511719 "/>
<g clip-path="url(#clip13)" clip-rule="nonzero">
<g clip-path="url(#clip14)" clip-rule="nonzero">
<path style=" stroke:none;fill-rule:evenodd;fill:url(#linear10);" d="M 152.890625 121.246094 C 153.863281 118.582031 156.738281 114.847656 159.785156 114.683594 C 161.53125 114.589844 162.949219 115.691406 164.589844 116.082031 C 168.25 116.957031 172.933594 115.636719 174.703125 112.050781 C 176.871094 107.671875 171.871094 103.167969 169.042969 100.589844 C 165.230469 97.121094 160.167969 92.988281 154.675781 94.785156 C 153.699219 95.109375 152.792969 95.597656 151.957031 96.191406 C 150.847656 96.988281 149.871094 97.941406 149.046875 99.03125 C 148.011719 100.378906 147.167969 101.917969 146.636719 103.535156 C 145.765625 106.199219 145.78125 109.121094 146.34375 111.847656 C 147.078125 115.386719 148.644531 118.527344 150.714844 121.457031 Z M 152.890625 121.246094 "/>
</g>
</g>
</g>
</svg>
