<?xml version="1.0" encoding="UTF-8"?>
<svg xmlns="http://www.w3.org/2000/svg" xmlns:xlink="http://www.w3.org/1999/xlink" width="350px" height="275px" viewBox="0 0 350 275" version="1.1">
<g id="surface1">
<path style=" stroke:none;fill-rule:nonzero;fill:rgb(96.862745%,97.254902%,97.647059%);fill-opacity:1;" d="M 98.574219 227.265625 C 82.023438 214.828125 65.851562 190.382812 71.078125 169.820312 C 75.550781 152.21875 92.277344 150.914062 97.28125 130.117188 C 101.503906 112.5625 91.4375 105.800781 93.707031 91.605469 C 99.378906 56.132812 173.636719 26.851562 195.347656 46.742188 C 211.132812 61.203125 190.90625 94.132812 208.398438 108.5625 C 225.0625 122.308594 250.867188 98.417969 268.683594 110.429688 C 293.691406 127.289062 289.671875 204.359375 249.988281 231.003906 C 237.734375 239.234375 217.984375 239.449219 178.488281 239.882812 C 136.785156 240.34375 115.582031 240.050781 98.570312 227.265625 "/>
<path style=" stroke:none;fill-rule:nonzero;fill:rgb(22.745098%,74.509805%,93.725491%);fill-opacity:1;" d="M 306.582031 206.882812 C 302.300781 198.609375 286.792969 168.890625 283.535156 165.980469 L 288.828125 152.890625 C 291.003906 147.511719 287.425781 141.355469 281.632812 140.960938 C 281.429688 140.949219 281.226562 140.941406 281.019531 140.941406 L 280.371094 140.941406 C 279.679688 136.539062 277.75 133.367188 275.476562 133.367188 L 260.988281 133.367188 C 258.714844 133.367188 256.785156 136.539062 256.09375 140.941406 L 255.820312 140.941406 C 255.613281 140.941406 255.40625 140.949219 255.203125 140.960938 C 249.414062 141.355469 245.832031 147.511719 248.007812 152.890625 L 253.300781 165.980469 L 231.054688 206.25 C 228.082031 211.503906 227.375 217.738281 229.101562 223.523438 C 231.730469 231.976562 239.261719 238.625 248.980469 239.019531 C 249.296875 239.03125 249.613281 239.039062 249.929688 239.039062 L 287.28125 239.039062 C 287.597656 239.039062 287.914062 239.03125 288.230469 239.019531 C 300.371094 238.527344 309.101562 228.265625 309.121094 216.925781 C 309.09375 213.421875 308.222656 209.980469 306.582031 206.882812 Z M 306.582031 206.882812 "/>
<path style=" stroke:none;fill-rule:nonzero;fill:rgb(15.686275%,60.784316%,77.64706%);fill-opacity:1;" d="M 251.785156 141.90625 C 253.015625 149.816406 261.445312 165.269531 261.445312 165.269531 C 258.179688 155.15625 256.09375 140.941406 256.09375 140.941406 L 255.820312 140.941406 C 254.417969 140.941406 253.035156 141.273438 251.785156 141.90625 Z M 284.570312 141.898438 C 284.582031 141.824219 284.589844 141.757812 284.597656 141.6875 C 283.46875 141.195312 282.25 140.941406 281.019531 140.941406 L 280.371094 140.941406 C 280.367188 140.902344 280.359375 140.867188 280.351562 140.828125 L 280.257812 140.941406 C 280.257812 140.941406 278.175781 155.15625 274.90625 165.269531 C 274.90625 165.269531 283.339844 149.804688 284.570312 141.898438 Z M 284.597656 188.636719 C 283.363281 180.726562 274.9375 165.269531 274.9375 165.269531 C 278.203125 175.386719 280.289062 189.601562 280.289062 189.601562 L 280.5625 189.601562 C 281.964844 189.601562 283.347656 189.269531 284.597656 188.636719 Z M 251.8125 188.644531 C 251.800781 188.71875 251.792969 188.785156 251.785156 188.855469 C 252.914062 189.347656 254.132812 189.601562 255.363281 189.601562 L 256.007812 189.601562 C 256.015625 189.640625 256.023438 189.675781 256.03125 189.714844 L 256.121094 189.601562 C 256.121094 189.601562 258.207031 175.386719 261.476562 165.269531 C 261.476562 165.269531 253.042969 180.734375 251.8125 188.644531 Z M 251.8125 188.644531 "/>
<path style=" stroke:none;fill-rule:nonzero;fill:rgb(19.607843%,22.352941%,23.529412%);fill-opacity:1;" d="M 268.636719 169.136719 L 268.167969 169.136719 C 262.726562 169.117188 257.292969 168.789062 251.890625 168.152344 C 251.375 168.085938 250.90625 167.820312 250.589844 167.410156 C 250.273438 166.996094 250.132812 166.476562 250.203125 165.960938 C 250.34375 164.90625 251.308594 164.160156 252.367188 164.289062 C 263.175781 165.566406 274.101562 165.566406 284.914062 164.289062 C 285.972656 164.160156 286.9375 164.90625 287.082031 165.964844 C 287.148438 166.476562 287.011719 167 286.691406 167.410156 C 286.375 167.820312 285.90625 168.089844 285.390625 168.152344 C 279.832031 168.808594 274.234375 169.136719 268.636719 169.136719 Z M 263.023438 212.21875 C 264.480469 213.09375 266.140625 213.5625 267.839844 213.578125 C 270.585938 213.578125 272.191406 212.128906 272.191406 210.03125 C 272.191406 208.085938 271.078125 206.972656 268.269531 205.894531 C 264.878906 204.691406 262.777344 202.929688 262.777344 200 C 262.777344 196.757812 265.460938 194.351562 269.503906 194.351562 C 271.097656 194.296875 272.683594 194.648438 274.105469 195.371094 L 273.363281 197.5625 C 272.148438 196.910156 270.792969 196.570312 269.414062 196.574219 C 266.574219 196.574219 265.492188 198.273438 265.492188 199.691406 C 265.492188 201.636719 266.757812 202.589844 269.628906 203.703125 C 273.148438 205.058594 274.9375 206.757812 274.9375 209.8125 C 274.9375 213.023438 272.558594 215.800781 267.652344 215.800781 C 265.648438 215.800781 263.457031 215.214844 262.347656 214.472656 Z M 263.023438 212.21875 "/>
<path style=" stroke:none;fill-rule:nonzero;fill:rgb(19.607843%,22.352941%,23.529412%);fill-opacity:1;" d="M 267.742188 190.703125 L 270.140625 190.703125 L 270.140625 219.597656 L 267.742188 219.597656 Z M 267.742188 190.703125 "/>
<path style=" stroke:none;fill-rule:nonzero;fill:rgb(34.509805%,38.431373%,40.000001%);fill-opacity:1;" d="M 165.492188 216.171875 L 40.160156 216.171875 C 37.359375 216.136719 35.117188 213.835938 35.144531 211.035156 L 35.144531 125.992188 C 35.117188 123.191406 37.359375 120.894531 40.160156 120.855469 L 165.492188 120.855469 C 168.292969 120.894531 170.535156 123.191406 170.503906 125.992188 L 170.503906 211.035156 C 170.535156 213.835938 168.292969 216.136719 165.492188 216.171875 Z M 45.714844 210.464844 L 164.933594 210.464844 L 164.933594 126.5625 L 45.714844 126.5625 Z M 45.714844 210.464844 "/>
<path style=" stroke:none;fill-rule:nonzero;fill:rgb(62.352943%,72.156864%,75.686276%);fill-opacity:1;" d="M 90.949219 213.761719 C 90.949219 224.222656 82.472656 232.699219 72.011719 232.699219 L 143.867188 232.699219 C 133.410156 232.699219 124.929688 224.222656 124.929688 213.761719 Z M 72.011719 232.699219 L 151.152344 232.699219 C 151.707031 232.699219 152.152344 233.148438 152.152344 233.699219 L 152.152344 239.039062 L 71.011719 239.039062 L 71.011719 233.699219 C 71.011719 233.148438 71.457031 232.699219 72.011719 232.699219 Z M 72.011719 232.699219 "/>
<path style=" stroke:none;fill-rule:nonzero;fill:rgb(83.92157%,91.37255%,94.117647%);fill-opacity:1;" d="M 97.046875 213.285156 C 97.046875 224 88.363281 232.683594 77.648438 232.683594 L 151.246094 232.683594 C 140.535156 232.683594 131.851562 224 131.851562 213.285156 Z M 97.046875 213.285156 "/>
<path style=" stroke:none;fill-rule:nonzero;fill:rgb(86.666667%,86.666667%,86.666667%);fill-opacity:1;" d="M 150.132812 232.683594 L 151.25 232.683594 C 150.855469 232.683594 150.464844 232.667969 150.078125 232.644531 Z M 150.132812 232.683594 "/>
<path style=" stroke:none;fill-rule:nonzero;fill:rgb(69.411767%,81.176472%,85.490197%);fill-opacity:1;" d="M 108.441406 221.175781 L 132.207031 216.984375 C 131.96875 215.765625 131.851562 214.527344 131.851562 213.285156 L 97.046875 213.285156 C 97.046875 224 88.359375 232.683594 77.648438 232.683594 L 99.304688 232.683594 C 98.492188 228.066406 99.964844 225.46875 102.789062 223.460938 C 104.480469 222.289062 106.410156 221.507812 108.441406 221.175781 Z M 108.441406 221.175781 "/>
<path style=" stroke:none;fill-rule:nonzero;fill:rgb(67.843139%,81.176472%,86.274511%);fill-opacity:1;" d="M 47.410156 212.375 L 174.640625 212.375 L 174.640625 128.507812 L 47.410156 128.507812 Z M 47.410156 212.375 "/>
<path style=" stroke:none;fill-rule:nonzero;fill:rgb(52.941179%,86.666667%,99.215686%);fill-opacity:1;" d="M 49.121094 123.710938 L 177.492188 123.710938 C 178.753906 123.710938 179.777344 124.730469 179.777344 125.992188 L 179.777344 211.003906 C 179.777344 212.265625 178.753906 213.285156 177.492188 213.285156 L 49.121094 213.285156 C 47.859375 213.285156 46.839844 212.265625 46.839844 211.003906 L 46.839844 125.992188 C 46.839844 124.730469 47.859375 123.710938 49.121094 123.710938 Z M 49.121094 123.710938 "/>
<path style=" stroke:none;fill-rule:nonzero;fill:rgb(3.137255%,65.098041%,87.843138%);fill-opacity:1;" d="M 54.539062 123.996094 C 54.292969 127.492188 54.1875 131 54.222656 134.507812 C 54.414062 163.167969 64.277344 190.925781 82.210938 213.285156 L 49.121094 213.285156 C 47.859375 213.289062 46.835938 212.265625 46.839844 211.003906 L 46.839844 125.992188 C 46.839844 124.734375 47.859375 123.710938 49.121094 123.710938 L 179.777344 123.710938 L 179.777344 123.996094 Z M 54.539062 123.996094 "/>
<path style=" stroke:none;fill-rule:nonzero;fill:rgb(19.607843%,22.352941%,23.529412%);fill-opacity:1;" d="M 177.492188 216.136719 L 49.121094 216.136719 C 46.285156 216.136719 43.988281 213.835938 43.984375 211.003906 L 43.984375 125.992188 C 43.988281 123.15625 46.285156 120.859375 49.121094 120.855469 L 177.492188 120.855469 C 180.328125 120.859375 182.625 123.15625 182.628906 125.992188 L 182.628906 211.003906 C 182.625 213.835938 180.328125 216.136719 177.492188 216.136719 Z M 49.691406 210.433594 L 176.921875 210.433594 L 176.921875 126.5625 L 49.691406 126.5625 Z M 49.691406 210.433594 "/>
<path style=" stroke:none;fill-rule:nonzero;fill:rgb(100%,100%,100%);fill-opacity:1;" d="M 220.277344 95.410156 C 221.292969 96.019531 222.453125 96.347656 223.640625 96.359375 C 225.558594 96.359375 226.679688 95.34375 226.679688 93.878906 C 226.679688 92.519531 225.902344 91.746094 223.941406 90.988281 C 221.570312 90.148438 220.105469 88.921875 220.105469 86.871094 C 220.105469 84.609375 221.980469 82.925781 224.804688 82.925781 C 225.917969 82.886719 227.023438 83.132812 228.015625 83.636719 L 227.5 85.167969 C 226.652344 84.710938 225.703125 84.476562 224.738281 84.476562 C 222.757812 84.476562 222 85.664062 222 86.65625 C 222 88.015625 222.886719 88.683594 224.890625 89.460938 C 227.347656 90.40625 228.597656 91.59375 228.597656 93.726562 C 228.597656 95.96875 226.9375 97.910156 223.511719 97.910156 C 222.214844 97.925781 220.9375 97.609375 219.800781 96.984375 Z M 220.277344 95.410156 "/>
<path style=" stroke:none;fill-rule:nonzero;fill:rgb(36.078432%,82.745099%,100%);fill-opacity:1;" d="M 160.371094 173.28125 L 248.265625 173.28125 L 248.265625 239.035156 L 160.371094 239.035156 Z M 160.371094 173.28125 "/>
<path style=" stroke:none;fill-rule:nonzero;fill:rgb(12.54902%,72.549021%,94.901961%);fill-opacity:1;" d="M 209.753906 173.28125 L 160.371094 173.28125 L 160.371094 239.035156 L 248.265625 239.035156 C 212.257812 234.535156 209.753906 173.28125 209.753906 173.28125 Z M 209.753906 173.28125 "/>
<path style=" stroke:none;fill-rule:nonzero;fill:rgb(22.745098%,74.509805%,93.725491%);fill-opacity:1;" d="M 181.339844 142.757812 L 227.296875 142.757812 C 228.371094 142.757812 229.246094 143.632812 229.246094 144.707031 L 229.246094 150.285156 C 229.246094 151.363281 228.371094 152.238281 227.296875 152.238281 L 181.339844 152.238281 C 180.265625 152.238281 179.390625 151.363281 179.390625 150.285156 L 179.390625 144.707031 C 179.390625 143.632812 180.265625 142.757812 181.339844 142.757812 Z M 181.339844 142.757812 "/>
<path style=" stroke:none;fill-rule:nonzero;fill:rgb(15.686275%,60.784316%,77.64706%);fill-opacity:1;" d="M 188.238281 150.285156 L 188.238281 144.707031 C 188.238281 143.632812 189.113281 142.757812 190.191406 142.757812 L 181.339844 142.757812 C 180.265625 142.757812 179.390625 143.632812 179.390625 144.707031 L 179.390625 150.285156 C 179.390625 151.363281 180.265625 152.238281 181.339844 152.238281 L 190.191406 152.238281 C 189.113281 152.238281 188.238281 151.363281 188.238281 150.285156 Z M 188.238281 150.285156 "/>
<path style=" stroke:none;fill-rule:nonzero;fill:rgb(67.843139%,81.176472%,86.274511%);fill-opacity:1;" d="M 184.320312 135.96875 L 224.316406 135.96875 C 225.164062 135.96875 225.851562 136.65625 225.851562 137.503906 L 225.851562 141.222656 C 225.851562 142.070312 225.164062 142.757812 224.316406 142.757812 L 184.320312 142.757812 C 183.472656 142.757812 182.785156 142.070312 182.785156 141.222656 L 182.785156 137.503906 C 182.785156 136.65625 183.472656 135.96875 184.320312 135.96875 Z M 184.320312 135.96875 "/>
<path style=" stroke:none;fill-rule:nonzero;fill:rgb(59.215689%,72.156864%,76.862746%);fill-opacity:1;" d="M 189.503906 141.222656 L 189.503906 137.503906 C 189.503906 136.65625 190.191406 135.96875 191.039062 135.96875 L 184.320312 135.96875 C 183.472656 135.96875 182.785156 136.65625 182.785156 137.503906 L 182.785156 141.222656 C 182.785156 142.070312 183.472656 142.757812 184.320312 142.757812 L 191.039062 142.757812 C 190.191406 142.757812 189.503906 142.070312 189.503906 141.222656 Z M 189.503906 141.222656 "/>
<path style=" stroke:none;fill-rule:nonzero;fill:rgb(22.745098%,74.509805%,93.725491%);fill-opacity:1;" d="M 204.316406 87.988281 C 215.238281 87.988281 224.089844 96.839844 224.089844 107.757812 L 224.089844 135.96875 L 184.546875 135.96875 L 184.546875 107.757812 C 184.546875 96.839844 193.398438 87.988281 204.316406 87.988281 Z M 204.316406 87.988281 "/>
<path style=" stroke:none;fill-rule:nonzero;fill:rgb(15.686275%,60.784316%,77.64706%);fill-opacity:1;" d="M 204.605469 88.128906 L 204.597656 88.128906 C 204.601562 88.09375 204.609375 88.058594 204.613281 88.019531 L 204.613281 87.996094 C 205.554688 88.007812 206.496094 88.089844 207.425781 88.238281 L 207.445312 88.234375 C 206.410156 88.070312 205.363281 87.988281 204.316406 87.988281 C 193.398438 87.988281 184.546875 96.839844 184.546875 107.757812 L 184.546875 135.96875 L 190.796875 135.96875 L 190.796875 107.757812 C 190.800781 99.15625 196.359375 91.542969 204.554688 88.925781 C 204.566406 88.660156 204.582031 88.394531 204.601562 88.128906 Z M 204.605469 88.128906 "/>
<path style=" stroke:none;fill-rule:nonzero;fill:rgb(100%,100%,100%);fill-opacity:1;" d="M 216.898438 118.003906 C 216.898438 111.058594 211.265625 105.425781 204.316406 105.425781 C 197.371094 105.425781 191.738281 111.058594 191.738281 118.003906 C 191.738281 124.953125 197.371094 130.585938 204.316406 130.585938 C 211.265625 130.585938 216.898438 124.953125 216.898438 118.003906 Z M 216.898438 118.003906 "/>
<path style=" stroke:none;fill-rule:nonzero;fill:rgb(86.666667%,86.666667%,86.666667%);fill-opacity:1;" d="M 196.886719 118.003906 C 196.886719 112.050781 201.0625 106.910156 206.894531 105.691406 C 201.882812 104.644531 196.742188 106.738281 193.886719 110.984375 C 191.03125 115.230469 191.03125 120.78125 193.886719 125.027344 C 196.742188 129.273438 201.882812 131.367188 206.894531 130.320312 C 201.0625 129.101562 196.886719 123.960938 196.886719 118.003906 Z M 196.886719 118.003906 "/>
<path style=" stroke:none;fill-rule:nonzero;fill:rgb(19.607843%,22.352941%,23.529412%);fill-opacity:1;" d="M 201.71875 110.457031 L 206.917969 110.457031 L 206.917969 125.320312 L 201.71875 125.320312 Z M 201.71875 110.457031 "/>
<path style=" stroke:none;fill-rule:nonzero;fill:rgb(19.607843%,22.352941%,23.529412%);fill-opacity:1;" d="M 196.886719 115.289062 L 211.75 115.289062 L 211.75 120.488281 L 196.886719 120.488281 Z M 196.886719 115.289062 "/>
<path style=" stroke:none;fill-rule:nonzero;fill:rgb(29.803923%,54.509807%,63.529414%);fill-opacity:1;" d="M 243.46875 199.914062 L 219.402344 204.292969 L 212.492188 166.292969 L 236.558594 161.914062 Z M 243.46875 199.914062 "/>
<path style=" stroke:none;fill-rule:nonzero;fill:rgb(42.745098%,67.843139%,77.254903%);fill-opacity:1;" d="M 240.566406 197.679688 L 221.332031 201.179688 L 215.808594 170.808594 L 235.042969 167.3125 Z M 240.566406 197.679688 "/>
<path style=" stroke:none;fill-rule:nonzero;fill:rgb(29.803923%,54.509807%,63.529414%);fill-opacity:1;" d="M 243.46875 199.914062 L 242.480469 194.480469 C 239.566406 195.050781 237.652344 197.855469 238.183594 200.777344 L 238.199219 200.871094 Z M 219.402344 204.292969 L 218.414062 198.855469 C 221.34375 198.363281 224.121094 200.316406 224.652344 203.238281 L 224.671875 203.332031 Z M 219.402344 204.292969 "/>
<path style=" stroke:none;fill-rule:nonzero;fill:rgb(29.803923%,54.509807%,63.529414%);fill-opacity:1;" d="M 233.792969 187.308594 C 233.792969 184.519531 231.53125 182.261719 228.746094 182.261719 C 225.957031 182.261719 223.699219 184.519531 223.699219 187.308594 C 223.699219 190.09375 225.957031 192.351562 228.746094 192.351562 C 231.53125 192.351562 233.792969 190.09375 233.792969 187.308594 Z M 233.792969 187.308594 "/>
<path style=" stroke:none;fill-rule:nonzero;fill:rgb(29.803923%,54.509807%,63.529414%);fill-opacity:1;" d="M 167.15625 200.324219 L 146.539062 187.15625 L 167.328125 154.605469 L 187.945312 167.773438 Z M 167.15625 200.324219 "/>
<path style=" stroke:none;fill-rule:nonzero;fill:rgb(42.745098%,67.843139%,77.254903%);fill-opacity:1;" d="M 166.546875 196.710938 L 150.070312 186.1875 L 166.6875 160.175781 L 183.164062 170.699219 Z M 166.546875 196.710938 "/>
<path style=" stroke:none;fill-rule:nonzero;fill:rgb(29.803923%,54.509807%,63.529414%);fill-opacity:1;" d="M 167.15625 200.324219 L 170.128906 195.667969 C 167.605469 194.101562 164.292969 194.855469 162.695312 197.359375 L 162.640625 197.441406 Z M 146.539062 187.15625 L 149.511719 182.5 C 151.992188 184.132812 152.703125 187.453125 151.105469 189.957031 L 151.050781 190.039062 Z M 146.539062 187.15625 "/>
<path style=" stroke:none;fill-rule:nonzero;fill:rgb(29.803923%,54.509807%,63.529414%);fill-opacity:1;" d="M 169.988281 181.066406 C 169.988281 178.277344 167.730469 176.019531 164.941406 176.019531 C 162.15625 176.019531 159.894531 178.277344 159.894531 181.066406 C 159.894531 183.851562 162.15625 186.113281 164.941406 186.113281 C 167.730469 186.113281 169.988281 183.851562 169.988281 181.066406 Z M 169.988281 181.066406 "/>
<path style=" stroke:none;fill-rule:nonzero;fill:rgb(36.078432%,82.745099%,100%);fill-opacity:1;" d="M 149.765625 152.238281 L 258.871094 152.238281 C 259.972656 152.238281 260.871094 153.132812 260.871094 154.238281 L 260.871094 171.28125 C 260.871094 172.382812 259.972656 173.28125 258.871094 173.28125 L 149.765625 173.28125 C 148.660156 173.28125 147.765625 172.382812 147.765625 171.28125 L 147.765625 154.238281 C 147.765625 153.132812 148.660156 152.238281 149.765625 152.238281 Z M 149.765625 152.238281 "/>
<path style=" stroke:none;fill-rule:nonzero;fill:rgb(36.078432%,82.745099%,100%);fill-opacity:1;" d="M 193.136719 172.992188 L 193.136719 176.914062 C 193.136719 180.964844 196.417969 184.246094 200.464844 184.246094 C 204.515625 184.246094 207.796875 180.964844 207.796875 176.914062 L 207.796875 172.992188 L 236.171875 172.992188 L 236.171875 163.335938 L 164.761719 163.335938 L 164.761719 172.992188 Z M 200.464844 180.277344 C 198.941406 180.277344 197.707031 179.042969 197.707031 177.519531 C 197.707031 175.992188 198.941406 174.757812 200.464844 174.757812 C 201.992188 174.757812 203.226562 175.992188 203.226562 177.519531 C 203.226562 179.042969 201.988281 180.277344 200.464844 180.277344 Z M 200.464844 180.277344 "/>
<path style=" stroke:none;fill-rule:nonzero;fill:rgb(12.54902%,72.549021%,94.901961%);fill-opacity:1;" d="M 177.242188 171.28125 L 177.242188 154.238281 C 177.242188 153.132812 178.136719 152.238281 179.242188 152.238281 L 149.765625 152.238281 C 148.660156 152.238281 147.765625 153.132812 147.765625 154.238281 L 147.765625 171.28125 C 147.765625 172.382812 148.660156 173.28125 149.765625 173.28125 L 179.242188 173.28125 C 178.136719 173.28125 177.242188 172.382812 177.242188 171.28125 Z M 177.242188 171.28125 "/>
<path style=" stroke:none;fill-rule:nonzero;fill:rgb(15.686275%,60.784316%,77.64706%);fill-opacity:1;" d="M 204.613281 87.996094 L 204.613281 88.019531 C 204.609375 88.058594 204.601562 88.09375 204.597656 88.128906 L 204.605469 88.128906 C 204.558594 88.652344 204.535156 89.179688 204.535156 89.703125 C 204.535156 91.121094 204.691406 92.53125 204.996094 93.914062 L 204.992188 93.914062 C 204.996094 93.929688 205 93.941406 205.003906 93.957031 C 205.085938 94.328125 205.179688 94.695312 205.285156 95.058594 C 205.292969 95.097656 205.300781 95.132812 205.3125 95.171875 L 205.316406 95.171875 C 205.859375 97.042969 206.679688 98.820312 207.753906 100.449219 L 207.75 100.449219 L 207.804688 100.527344 C 207.875 100.632812 207.949219 100.738281 208.019531 100.84375 C 208.113281 100.980469 208.210938 101.113281 208.308594 101.246094 C 208.382812 101.351562 208.460938 101.453125 208.539062 101.554688 C 208.578125 101.605469 208.613281 101.65625 208.648438 101.703125 L 208.65625 101.703125 C 209.882812 103.28125 211.339844 104.660156 212.984375 105.796875 L 212.976562 105.796875 L 213.019531 105.820312 C 213.648438 106.253906 214.300781 106.648438 214.972656 107.003906 L 215.054688 107.050781 L 215.070312 107.050781 C 217.851562 108.503906 220.949219 109.261719 224.089844 109.257812 L 224.089844 107.757812 C 224.089844 96.957031 215.417969 88.15625 204.613281 87.996094 Z M 204.613281 87.996094 "/>
<path style=" stroke:none;fill-rule:nonzero;fill:rgb(36.078432%,82.745099%,100%);fill-opacity:1;" d="M 240.054688 89.703125 C 240.054688 80.886719 232.90625 73.738281 224.089844 73.738281 C 215.273438 73.738281 208.125 80.886719 208.125 89.703125 C 208.125 98.523438 215.273438 105.667969 224.089844 105.667969 C 232.90625 105.667969 240.054688 98.523438 240.054688 89.703125 Z M 240.054688 89.703125 "/>
<path style=" stroke:none;fill-rule:nonzero;fill:rgb(12.54902%,72.549021%,94.901961%);fill-opacity:1;" d="M 220.976562 94.363281 C 221.808594 94.859375 222.753906 95.128906 223.722656 95.136719 C 225.289062 95.136719 226.203125 94.308594 226.203125 93.113281 C 226.203125 92.003906 225.570312 91.371094 223.96875 90.753906 C 222.035156 90.066406 220.835938 89.066406 220.835938 87.390625 C 220.835938 85.542969 222.367188 84.171875 224.671875 84.171875 C 225.582031 84.140625 226.484375 84.339844 227.296875 84.753906 L 226.875 86.003906 C 226.179688 85.628906 225.40625 85.4375 224.621094 85.4375 C 223 85.4375 222.386719 86.40625 222.386719 87.214844 C 222.386719 88.324219 223.105469 88.871094 224.742188 89.503906 C 226.75 90.28125 227.773438 91.246094 227.773438 92.988281 C 227.773438 94.820312 226.414062 96.40625 223.617188 96.40625 C 222.558594 96.417969 221.515625 96.15625 220.589844 95.648438 Z M 220.976562 94.363281 "/>
<path style=" stroke:none;fill-rule:nonzero;fill:rgb(12.54902%,72.549021%,94.901961%);fill-opacity:1;" d="M 223.667969 82.089844 L 225.035156 82.089844 L 225.035156 98.570312 L 223.667969 98.570312 Z M 223.667969 82.089844 "/>
<path style=" stroke:none;fill-rule:nonzero;fill:rgb(12.54902%,72.549021%,94.901961%);fill-opacity:1;" d="M 214.585938 89.703125 C 214.585938 82.132812 219.90625 75.601562 227.320312 74.066406 C 220.96875 72.761719 214.460938 75.421875 210.847656 80.804688 C 207.234375 86.1875 207.234375 93.222656 210.847656 98.601562 C 214.460938 103.984375 220.96875 106.648438 227.320312 105.34375 C 219.90625 103.808594 214.585938 97.277344 214.585938 89.703125 Z M 214.585938 89.703125 "/>
<path style=" stroke:none;fill-rule:nonzero;fill:rgb(36.078432%,82.745099%,100%);fill-opacity:1;" d="M 223.917969 75.179688 C 223.265625 75.476562 222.632812 75.820312 222.027344 76.203125 L 215.5625 76.203125 C 215.84375 76.027344 216.128906 75.859375 216.417969 75.699219 L 217.453125 75.179688 Z M 219.664062 78.027344 C 219.3125 78.351562 218.976562 78.695312 218.660156 79.054688 L 212.199219 79.054688 C 212.515625 78.699219 212.851562 78.355469 213.199219 78.027344 Z M 216.238281 82.625 C 216.070312 82.960938 215.914062 83.304688 215.777344 83.652344 L 209.316406 83.652344 C 209.457031 83.304688 209.609375 82.960938 209.777344 82.625 Z M 214.753906 87.394531 C 214.703125 87.730469 214.664062 88.074219 214.636719 88.417969 L 208.179688 88.417969 C 208.207031 88.074219 208.242188 87.730469 208.292969 87.394531 Z M 215.21875 94.167969 L 208.757812 94.167969 C 208.660156 93.832031 208.574219 93.488281 208.5 93.140625 L 214.957031 93.140625 C 215.035156 93.488281 215.121094 93.828125 215.21875 94.167969 Z M 217.941406 99.5 L 211.484375 99.5 C 211.226562 99.167969 210.980469 98.828125 210.75 98.476562 L 217.207031 98.476562 C 217.4375 98.828125 217.683594 99.167969 217.941406 99.5 Z M 216.710938 103.867188 L 223.179688 103.867188 C 222.589844 103.5625 222.019531 103.21875 221.476562 102.839844 L 215.015625 102.839844 Z M 216.710938 103.867188 "/>
<path style=" stroke:none;fill-rule:nonzero;fill:rgb(36.078432%,82.745099%,100%);fill-opacity:1;" d="M 133.597656 173.128906 C 133.597656 161.230469 123.953125 151.585938 112.054688 151.585938 C 100.160156 151.585938 90.515625 161.230469 90.515625 173.128906 C 90.515625 185.027344 100.160156 194.671875 112.054688 194.671875 C 123.953125 194.671875 133.597656 185.027344 133.597656 173.128906 Z M 133.597656 173.128906 "/>
<path style=" stroke:none;fill-rule:nonzero;fill:rgb(12.54902%,72.549021%,94.901961%);fill-opacity:1;" d="M 107.855469 179.414062 C 108.976562 180.085938 110.253906 180.445312 111.558594 180.457031 C 113.675781 180.457031 114.910156 179.34375 114.910156 177.726562 C 114.910156 176.230469 114.054688 175.375 111.894531 174.542969 C 109.28125 173.617188 107.664062 172.265625 107.664062 170.007812 C 107.664062 167.515625 109.730469 165.660156 112.84375 165.660156 C 114.070312 165.621094 115.285156 165.890625 116.382812 166.445312 L 115.8125 168.132812 C 114.878906 167.628906 113.832031 167.367188 112.773438 167.371094 C 110.585938 167.371094 109.753906 168.679688 109.753906 169.769531 C 109.753906 171.265625 110.730469 172.003906 112.9375 172.859375 C 115.644531 173.902344 117.023438 175.210938 117.023438 177.5625 C 117.023438 180.03125 115.195312 182.167969 111.417969 182.167969 C 109.992188 182.1875 108.582031 181.832031 107.332031 181.148438 Z M 107.855469 179.414062 "/>
<path style=" stroke:none;fill-rule:nonzero;fill:rgb(12.54902%,72.549021%,94.901961%);fill-opacity:1;" d="M 111.484375 162.851562 L 113.332031 162.851562 L 113.332031 185.089844 L 111.484375 185.089844 Z M 111.484375 162.851562 "/>
<path style=" stroke:none;fill-rule:nonzero;fill:rgb(12.54902%,72.549021%,94.901961%);fill-opacity:1;" d="M 99.230469 173.128906 C 99.230469 162.910156 106.40625 154.097656 116.414062 152.027344 C 107.847656 150.265625 99.0625 153.859375 94.1875 161.121094 C 89.3125 168.382812 89.3125 177.871094 94.1875 185.136719 C 99.0625 192.398438 107.847656 195.988281 116.414062 194.226562 C 106.40625 192.160156 99.230469 183.347656 99.230469 173.128906 Z M 99.230469 173.128906 "/>
<path style=" stroke:none;fill-rule:nonzero;fill:rgb(36.078432%,82.745099%,100%);fill-opacity:1;" d="M 111.824219 153.53125 C 110.941406 153.933594 110.089844 154.394531 109.269531 154.914062 L 100.550781 154.914062 C 100.929688 154.671875 101.3125 154.449219 101.703125 154.230469 L 103.101562 153.53125 Z M 106.082031 157.371094 C 105.613281 157.8125 105.15625 158.273438 104.726562 158.757812 L 96.011719 158.757812 C 96.441406 158.277344 96.890625 157.816406 97.363281 157.371094 Z M 101.460938 163.578125 C 101.234375 164.03125 101.027344 164.492188 100.835938 164.960938 L 92.121094 164.960938 C 92.3125 164.492188 92.519531 164.03125 92.746094 163.578125 Z M 99.457031 170.011719 C 99.386719 170.464844 99.335938 170.929688 99.300781 171.394531 L 90.585938 171.394531 C 90.621094 170.929688 90.671875 170.464844 90.742188 170.011719 Z M 100.085938 179.148438 L 91.371094 179.148438 C 91.234375 178.691406 91.117188 178.230469 91.019531 177.765625 L 99.734375 177.765625 C 99.835938 178.234375 99.949219 178.691406 100.085938 179.148438 Z M 103.757812 186.347656 L 95.046875 186.347656 C 94.699219 185.898438 94.367188 185.4375 94.054688 184.964844 L 102.769531 184.964844 C 103.078125 185.4375 103.410156 185.898438 103.757812 186.347656 Z M 102.101562 192.238281 L 110.824219 192.238281 C 110.03125 191.824219 109.265625 191.363281 108.527344 190.855469 L 99.8125 190.855469 Z M 102.101562 192.238281 "/>
<path style=" stroke:none;fill-rule:nonzero;fill:rgb(13.333334%,14.901961%,15.686275%);fill-opacity:1;" d="M 39.570312 239 L 42.265625 239 L 42.265625 241 L 39.570312 241 Z M 43.703125 239 L 49.542969 239 L 49.542969 241 L 43.703125 241 Z M 50.964844 239 L 156.542969 239 L 156.542969 241 L 50.964844 241 Z M 158.464844 239 L 307.144531 239 L 307.144531 241 L 158.464844 241 Z M 309.863281 239 L 314.855469 239 L 314.855469 241 L 309.863281 241 Z M 309.863281 239 "/>
</g>
</svg>
