<?xml version="1.0" encoding="UTF-8"?>
<svg xmlns="http://www.w3.org/2000/svg" xmlns:xlink="http://www.w3.org/1999/xlink" width="350px" height="263px" viewBox="0 0 350 263" version="1.1">
<g id="surface1">
<path style=" stroke:none;fill-rule:nonzero;fill:rgb(93.725491%,96.470588%,97.647059%);fill-opacity:1;" d="M 232.59375 18.53125 C 241.230469 21.046875 279.84375 33.402344 296.308594 66.703125 C 319.421875 113.421875 280.292969 163.578125 269.554688 177.335938 C 244.949219 208.878906 179.140625 267.675781 113.648438 243.960938 C 61.1875 224.96875 39.65625 160.679688 49.746094 115.144531 C 66.378906 40.09375 164.046875 -1.4375 232.59375 18.53125 Z M 232.59375 18.53125 "/>
<path style="fill:none;stroke-width:2;stroke-linecap:butt;stroke-linejoin:miter;stroke:rgb(78.823531%,92.941177%,98.431373%);stroke-opacity:1;stroke-miterlimit:10;" d="M 947.223214 331.979266 L 1008.107143 331.979266 C 1009.21875 331.979266 1010.116071 332.874881 1010.116071 333.984375 L 1010.116071 358.914567 C 1010.116071 360.010694 1009.21875 360.906309 1008.107143 360.906309 L 947.223214 360.906309 C 946.111607 360.906309 945.214286 360.010694 945.214286 358.914567 L 945.214286 333.984375 C 945.214286 332.874881 946.111607 331.979266 947.223214 331.979266 Z M 947.223214 331.979266 " transform="matrix(0.291667,0,0,0.292222,0,0)"/>
<path style="fill:none;stroke-width:2;stroke-linecap:butt;stroke-linejoin:miter;stroke:rgb(78.823531%,92.941177%,98.431373%);stroke-opacity:1;stroke-miterlimit:10;" d="M 947.223214 389.726414 L 1008.107143 389.726414 C 1009.21875 389.726414 1010.116071 390.622029 1010.116071 391.731523 L 1010.116071 416.661716 C 1010.116071 417.77121 1009.21875 418.653458 1008.107143 418.653458 L 947.223214 418.653458 C 946.111607 418.653458 945.214286 417.77121 945.214286 416.661716 L 945.214286 391.731523 C 945.214286 390.622029 946.111607 389.726414 947.223214 389.726414 Z M 947.223214 389.726414 " transform="matrix(0.291667,0,0,0.292222,0,0)"/>
<path style=" stroke:none;fill-rule:nonzero;fill:rgb(78.823531%,92.941177%,98.431373%);fill-opacity:1;" d="M 285.734375 105.464844 L 303.492188 105.464844 C 303.816406 105.464844 304.078125 105.726562 304.078125 106.050781 L 304.078125 113.335938 C 304.078125 113.660156 303.816406 113.917969 303.492188 113.917969 L 285.734375 113.917969 C 285.410156 113.917969 285.152344 113.660156 285.152344 113.335938 L 285.152344 106.050781 C 285.152344 105.726562 285.410156 105.464844 285.734375 105.464844 Z M 285.734375 105.464844 "/>
<path style=" stroke:none;fill-rule:nonzero;fill:rgb(78.823531%,92.941177%,98.431373%);fill-opacity:1;" d="M 266.8125 105.464844 L 284.570312 105.464844 C 284.894531 105.464844 285.152344 105.726562 285.152344 106.050781 L 285.152344 113.335938 C 285.152344 113.660156 284.894531 113.917969 284.570312 113.917969 L 266.8125 113.917969 C 266.488281 113.917969 266.226562 113.660156 266.226562 113.335938 L 266.226562 106.050781 C 266.226562 105.726562 266.488281 105.464844 266.8125 105.464844 Z M 266.8125 105.464844 "/>
<path style="fill:none;stroke-width:2;stroke-linecap:butt;stroke-linejoin:miter;stroke:rgb(78.823531%,92.941177%,98.431373%);stroke-opacity:1;stroke-miterlimit:10;" d="M 235.446429 474.970295 L 296.330357 474.970295 C 297.428571 474.970295 298.325893 475.86591 298.325893 476.975404 L 298.325893 501.905596 C 298.325893 503.001723 297.428571 503.897338 296.330357 503.897338 L 235.446429 503.897338 C 234.334821 503.897338 233.4375 503.001723 233.4375 501.905596 L 233.4375 476.975404 C 233.4375 475.86591 234.334821 474.970295 235.446429 474.970295 Z M 235.446429 474.970295 " transform="matrix(0.291667,0,0,0.292222,0,0)"/>
<path style="fill:none;stroke-width:2;stroke-linecap:butt;stroke-linejoin:miter;stroke:rgb(78.823531%,92.941177%,98.431373%);stroke-opacity:1;stroke-miterlimit:10;" d="M 267.883929 532.73081 L 328.767857 532.73081 C 329.879464 532.73081 330.763393 533.626426 330.763393 534.73592 L 330.763393 559.666112 C 330.763393 560.762239 329.879464 561.657854 328.767857 561.657854 L 267.883929 561.657854 C 266.772321 561.657854 265.875 560.762239 265.875 559.666112 L 265.875 534.73592 C 265.875 533.626426 266.772321 532.73081 267.883929 532.73081 Z M 267.883929 532.73081 " transform="matrix(0.291667,0,0,0.292222,0,0)"/>
<path style=" stroke:none;fill-rule:nonzero;fill:rgb(78.823531%,92.941177%,98.431373%);fill-opacity:1;" d="M 82.066406 147.25 L 99.824219 147.25 C 100.148438 147.25 100.410156 147.511719 100.410156 147.835938 L 100.410156 155.121094 C 100.410156 155.441406 100.148438 155.703125 99.824219 155.703125 L 82.066406 155.703125 C 81.742188 155.703125 81.484375 155.441406 81.484375 155.121094 L 81.484375 147.835938 C 81.484375 147.511719 81.742188 147.25 82.066406 147.25 Z M 82.066406 147.25 "/>
<path style=" stroke:none;fill-rule:nonzero;fill:rgb(78.823531%,92.941177%,98.431373%);fill-opacity:1;" d="M 63.140625 147.25 L 80.898438 147.25 C 81.222656 147.25 81.484375 147.511719 81.484375 147.835938 L 81.484375 155.121094 C 81.484375 155.441406 81.222656 155.703125 80.898438 155.703125 L 63.140625 155.703125 C 62.816406 155.703125 62.558594 155.441406 62.558594 155.121094 L 62.558594 147.835938 C 62.558594 147.511719 62.816406 147.25 63.140625 147.25 Z M 63.140625 147.25 "/>
<path style=" stroke:none;fill-rule:nonzero;fill:rgb(78.823531%,92.941177%,98.431373%);fill-opacity:1;" d="M 178.742188 26.164062 L 196.5 26.164062 C 196.824219 26.164062 197.085938 26.425781 197.085938 26.75 L 197.085938 34.035156 C 197.085938 34.359375 196.824219 34.621094 196.5 34.621094 L 178.742188 34.621094 C 178.421875 34.621094 178.160156 34.359375 178.160156 34.035156 L 178.160156 26.75 C 178.160156 26.425781 178.421875 26.164062 178.742188 26.164062 Z M 178.742188 26.164062 "/>
<path style=" stroke:none;fill-rule:nonzero;fill:rgb(78.823531%,92.941177%,98.431373%);fill-opacity:1;" d="M 185.136719 43.074219 L 202.894531 43.074219 C 203.21875 43.074219 203.476562 43.335938 203.476562 43.65625 L 203.476562 50.941406 C 203.476562 51.265625 203.21875 51.527344 202.894531 51.527344 L 185.136719 51.527344 C 184.8125 51.527344 184.550781 51.265625 184.550781 50.941406 L 184.550781 43.65625 C 184.550781 43.335938 184.8125 43.074219 185.136719 43.074219 Z M 185.136719 43.074219 "/>
<path style="fill:none;stroke-width:2;stroke-linecap:butt;stroke-linejoin:miter;stroke:rgb(78.823531%,92.941177%,98.431373%);stroke-opacity:1;stroke-miterlimit:10;" d="M 658.754464 118.475226 L 719.651786 118.475226 C 720.75 118.475226 721.647321 119.370841 721.647321 120.466968 L 721.647321 145.39716 C 721.647321 146.506654 720.75 147.402269 719.651786 147.402269 L 658.754464 147.402269 C 657.65625 147.402269 656.758929 146.506654 656.758929 145.39716 L 656.758929 120.466968 C 656.758929 119.370841 657.65625 118.475226 658.754464 118.475226 Z M 658.754464 118.475226 " transform="matrix(0.291667,0,0,0.292222,0,0)"/>
<path style="fill:none;stroke-width:2;stroke-linecap:butt;stroke-linejoin:miter;stroke:rgb(78.823531%,92.941177%,98.431373%);stroke-opacity:1;stroke-miterlimit:10;" d="M 593.866071 118.475226 L 654.763393 118.475226 C 655.861607 118.475226 656.758929 119.370841 656.758929 120.466968 L 656.758929 145.39716 C 656.758929 146.506654 655.861607 147.402269 654.763393 147.402269 L 593.866071 147.402269 C 592.767857 147.402269 591.870536 146.506654 591.870536 145.39716 L 591.870536 120.466968 C 591.870536 119.370841 592.767857 118.475226 593.866071 118.475226 Z M 593.866071 118.475226 " transform="matrix(0.291667,0,0,0.292222,0,0)"/>
<path style=" stroke:none;fill-rule:nonzero;fill:rgb(49.019608%,80.000001%,91.764706%);fill-opacity:1;" d="M 99.167969 161.417969 C 99.738281 161.320312 100.316406 161.265625 100.894531 161.261719 C 104.273438 161.21875 104.859375 161.636719 107.214844 159.613281 C 107.214844 159.613281 109.515625 158.179688 109.390625 160.78125 C 109.390625 160.78125 109.703125 161 110.800781 161.019531 C 111.84375 161.039062 116.945312 159.914062 115.296875 167.210938 C 115.234375 167.480469 115.308594 167.765625 115.496094 167.976562 C 115.679688 168.1875 115.953125 168.296875 116.230469 168.269531 L 124.980469 166.675781 L 124.75 176.027344 L 108.679688 175.492188 C 108.679688 175.492188 108.296875 173.023438 108.304688 172.699219 C 108.304688 172.699219 104.390625 175.207031 104.015625 172.78125 C 103.636719 170.351562 105.832031 170.015625 105.832031 170.015625 L 105.753906 169.101562 L 98.957031 168.960938 Z M 99.167969 161.417969 "/>
<path style=" stroke:none;fill-rule:nonzero;fill:rgb(0%,0.392157%,0.392157%);fill-opacity:1;" d="M 109.113281 175.75 L 112.050781 175.5625 C 112.050781 175.5625 110.0625 173.664062 109.277344 172.746094 C 109.066406 172.503906 108.714844 172.445312 108.4375 172.601562 C 107.230469 173.28125 104.332031 174.699219 104.035156 172.78125 C 103.738281 170.867188 105.894531 170.25 106.851562 170.0625 C 107.101562 170.015625 107.277344 169.785156 107.253906 169.53125 C 107.230469 169.277344 107.019531 169.082031 106.765625 169.078125 L 102.828125 169.046875 C 101.808594 169.027344 100.839844 168.597656 100.136719 167.859375 C 99.433594 167.117188 99.050781 166.128906 99.078125 165.105469 L 99.144531 162.570312 C 99.167969 161.882812 99.710938 161.324219 100.398438 161.285156 C 98.882812 160.664062 97.457031 161.578125 96.976562 161.898438 C 93.957031 163.902344 93.960938 168.035156 93.960938 168.945312 C 93.960938 171.425781 94.871094 174.917969 96.699219 175.429688 C 97.152344 175.554688 98.335938 175.863281 98.335938 175.863281 C 98.335938 175.863281 98.679688 177.285156 99.316406 177.796875 C 100.480469 178.746094 103.136719 177.925781 106.398438 176.886719 C 107.9375 176.394531 108.707031 176.019531 109.113281 175.75 Z M 109.113281 175.75 "/>
<path style=" stroke:none;fill-rule:nonzero;fill:rgb(0%,0.392157%,0.392157%);fill-opacity:1;" d="M 102.714844 165.355469 C 102.464844 164.671875 102.3125 164.019531 102.132812 163.367188 L 101.878906 162.390625 C 101.796875 162.058594 101.695312 161.734375 101.621094 161.375 C 101.898438 161.609375 102.132812 161.894531 102.304688 162.214844 C 102.480469 162.53125 102.609375 162.871094 102.699219 163.222656 C 102.789062 163.570312 102.835938 163.925781 102.84375 164.285156 C 102.863281 164.648438 102.816406 165.007812 102.714844 165.355469 Z M 104.4375 163.519531 C 104.375 163.3125 104.3125 163.152344 104.257812 162.988281 C 104.207031 162.824219 104.152344 162.664062 104.109375 162.5 C 104.066406 162.332031 104.03125 162.160156 104.003906 161.988281 C 103.972656 161.792969 103.96875 161.597656 103.988281 161.402344 C 104.164062 161.503906 104.316406 161.648438 104.429688 161.816406 C 104.542969 161.980469 104.625 162.164062 104.675781 162.355469 C 104.726562 162.550781 104.742188 162.757812 104.714844 162.957031 C 104.695312 163.171875 104.59375 163.371094 104.4375 163.519531 Z M 104.4375 163.519531 "/>
<path style=" stroke:none;fill-rule:nonzero;fill:rgb(24.313726%,60.784316%,74.509805%);fill-opacity:1;" d="M 111.585938 162.953125 C 111.214844 162.59375 110.527344 161.203125 110.710938 161.023438 L 110.8125 161.023438 C 111.417969 160.976562 112.023438 160.96875 112.628906 160.996094 C 112.816406 161.890625 111.597656 162.964844 111.585938 162.953125 Z M 111.585938 162.953125 "/>
<path style=" stroke:none;fill-rule:nonzero;fill:rgb(39.607844%,70.588237%,81.960785%);fill-opacity:1;" d="M 105.292969 171.363281 C 105.078125 171.660156 104.96875 172.023438 104.984375 172.390625 C 105.003906 172.542969 105.097656 172.675781 105.234375 172.746094 C 105.390625 172.808594 105.558594 172.828125 105.722656 172.808594 C 106.085938 172.773438 106.445312 172.679688 106.777344 172.535156 C 106.949219 172.460938 107.113281 172.371094 107.261719 172.269531 C 107.425781 172.175781 107.554688 172.027344 107.621094 171.851562 C 107.601562 172.050781 107.507812 172.238281 107.355469 172.375 C 107.21875 172.519531 107.058594 172.640625 106.882812 172.734375 C 106.53125 172.941406 106.144531 173.0625 105.742188 173.097656 C 105.523438 173.121094 105.300781 173.085938 105.105469 172.988281 C 104.894531 172.867188 104.765625 172.648438 104.757812 172.40625 C 104.777344 171.996094 104.972656 171.617188 105.292969 171.363281 Z M 124.5625 168.613281 C 124.285156 170.074219 117.703125 172.433594 115.230469 172.878906 C 112.753906 173.324219 112.585938 172.265625 112.585938 172.265625 C 113.96875 171.148438 115.300781 167.492188 115.300781 167.492188 C 115.347656 167.972656 115.769531 168.324219 116.246094 168.285156 L 123.992188 166.796875 C 124.382812 167.382812 124.671875 168.027344 124.5625 168.613281 Z M 124.5625 168.613281 "/>
<path style=" stroke:none;fill-rule:nonzero;fill:rgb(0%,0.392157%,0.392157%);fill-opacity:1;" d="M 108.921875 172.535156 L 124.863281 172.28125 L 124.769531 176.03125 L 109.113281 175.75 Z M 108.921875 172.535156 "/>
<path style=" stroke:none;fill-rule:nonzero;fill:rgb(0%,0.392157%,0.392157%);fill-opacity:1;" d="M 99.167969 161.890625 C 101.308594 163.808594 102.859375 166.292969 103.648438 169.054688 C 105.015625 173.734375 99.457031 171.242188 99.457031 171.242188 C 99.457031 171.242188 95.398438 163.554688 99.167969 161.890625 Z M 99.167969 161.890625 "/>
<path style=" stroke:none;fill-rule:nonzero;fill:rgb(39.607844%,70.588237%,81.960785%);fill-opacity:1;" d="M 112.558594 163.394531 C 112.347656 163.371094 112.175781 163.363281 112.003906 163.347656 C 111.832031 163.328125 111.667969 163.3125 111.5 163.289062 C 111.328125 163.265625 111.15625 163.226562 110.988281 163.183594 C 110.796875 163.132812 110.613281 163.0625 110.441406 162.964844 C 110.605469 162.84375 110.796875 162.761719 111 162.722656 C 111.191406 162.691406 111.390625 162.691406 111.582031 162.722656 C 111.789062 162.75 111.988281 162.820312 112.167969 162.929688 C 112.347656 163.03125 112.488281 163.199219 112.558594 163.394531 Z M 112.558594 163.394531 "/>
<path style=" stroke:none;fill-rule:nonzero;fill:rgb(78.823531%,92.941177%,98.431373%);fill-opacity:1;" d="M 66.5 167.664062 C 66.5 167.34375 66.371094 167.035156 66.144531 166.808594 C 65.917969 166.582031 65.613281 166.453125 65.292969 166.457031 L 29.347656 166.457031 L 29.347656 247.964844 L 65.296875 247.964844 C 65.960938 247.964844 66.503906 247.421875 66.503906 246.753906 Z M 66.5 167.664062 "/>
<path style=" stroke:none;fill-rule:nonzero;fill:rgb(50.196081%,80.000001%,90.980393%);fill-opacity:1;" d="M 29.351562 166.453125 L 29.351562 247.964844 L 20.34375 247.964844 C 19.675781 247.964844 19.136719 247.421875 19.136719 246.753906 L 19.136719 167.664062 C 19.136719 166.996094 19.675781 166.453125 20.34375 166.453125 Z M 29.351562 166.453125 "/>
<path style=" stroke:none;fill-rule:nonzero;fill:rgb(52.941179%,86.666667%,99.215686%);fill-opacity:1;" d="M 33.585938 170.886719 L 36.554688 170.886719 C 35.917969 170.921875 35.429688 171.457031 35.453125 172.09375 L 35.453125 180.996094 C 35.429688 181.632812 35.917969 182.171875 36.554688 182.207031 L 33.585938 182.207031 C 32.953125 182.171875 32.460938 181.632812 32.484375 180.996094 L 32.484375 172.09375 C 32.460938 171.460938 32.953125 170.921875 33.585938 170.886719 Z M 33.585938 186.21875 L 36.554688 186.21875 C 35.917969 186.253906 35.429688 186.792969 35.453125 187.429688 L 35.453125 196.328125 C 35.429688 196.964844 35.917969 197.503906 36.554688 197.539062 L 33.585938 197.539062 C 32.953125 197.503906 32.460938 196.964844 32.484375 196.328125 L 32.484375 187.429688 C 32.460938 186.792969 32.953125 186.253906 33.585938 186.21875 Z M 33.585938 201.550781 L 36.554688 201.550781 C 35.921875 201.585938 35.429688 202.121094 35.453125 202.757812 L 35.453125 211.660156 C 35.429688 212.296875 35.917969 212.835938 36.554688 212.871094 L 33.585938 212.871094 C 32.953125 212.832031 32.460938 212.296875 32.484375 211.660156 L 32.484375 202.757812 C 32.464844 202.125 32.953125 201.585938 33.585938 201.550781 Z M 33.585938 216.882812 L 36.554688 216.882812 C 35.917969 216.917969 35.429688 217.453125 35.453125 218.089844 L 35.453125 226.992188 C 35.429688 227.628906 35.917969 228.167969 36.554688 228.203125 L 33.585938 228.203125 C 32.953125 228.164062 32.460938 227.628906 32.484375 226.992188 L 32.484375 218.089844 C 32.460938 217.457031 32.953125 216.917969 33.585938 216.882812 Z M 33.585938 232.214844 L 36.554688 232.214844 C 35.917969 232.25 35.429688 232.789062 35.453125 233.425781 L 35.453125 242.324219 C 35.429688 242.960938 35.917969 243.5 36.554688 243.535156 L 33.585938 243.535156 C 32.953125 243.5 32.460938 242.960938 32.484375 242.324219 L 32.484375 233.425781 C 32.460938 232.789062 32.953125 232.25 33.585938 232.214844 Z M 33.585938 232.214844 "/>
<path style=" stroke:none;fill-rule:nonzero;fill:rgb(65.882355%,89.019608%,97.647059%);fill-opacity:1;" d="M 62.214844 182.207031 L 36.605469 182.207031 C 35.972656 182.207031 35.453125 181.691406 35.453125 181.050781 L 35.453125 172.039062 C 35.453125 171.402344 35.972656 170.886719 36.605469 170.886719 L 62.214844 170.886719 C 62.851562 170.886719 63.367188 171.402344 63.367188 172.039062 L 63.367188 181.050781 C 63.367188 181.691406 62.851562 182.207031 62.214844 182.207031 Z M 62.214844 182.207031 "/>
<path style=" stroke:none;fill-rule:nonzero;fill:rgb(52.941179%,86.666667%,99.215686%);fill-opacity:1;" d="M 51.171875 176.546875 C 51.171875 175.476562 50.382812 174.609375 49.410156 174.609375 C 48.433594 174.609375 47.648438 175.476562 47.648438 176.546875 C 47.648438 177.617188 48.433594 178.484375 49.410156 178.484375 C 50.382812 178.484375 51.171875 177.617188 51.171875 176.546875 Z M 51.171875 176.546875 "/>
<path style=" stroke:none;fill-rule:nonzero;fill:rgb(65.882355%,89.019608%,97.647059%);fill-opacity:1;" d="M 62.214844 197.535156 L 36.605469 197.535156 C 35.972656 197.535156 35.453125 197.019531 35.453125 196.382812 L 35.453125 187.371094 C 35.453125 186.734375 35.972656 186.214844 36.605469 186.214844 L 62.214844 186.214844 C 62.851562 186.214844 63.367188 186.734375 63.367188 187.371094 L 63.367188 196.382812 C 63.367188 197.019531 62.851562 197.535156 62.214844 197.535156 Z M 62.214844 197.535156 "/>
<path style=" stroke:none;fill-rule:nonzero;fill:rgb(52.941179%,86.666667%,99.215686%);fill-opacity:1;" d="M 51.171875 191.878906 C 51.171875 190.808594 50.382812 189.941406 49.410156 189.941406 C 48.433594 189.941406 47.648438 190.808594 47.648438 191.878906 C 47.648438 192.949219 48.433594 193.816406 49.410156 193.816406 C 50.382812 193.816406 51.171875 192.949219 51.171875 191.878906 Z M 51.171875 191.878906 "/>
<path style=" stroke:none;fill-rule:nonzero;fill:rgb(65.882355%,89.019608%,97.647059%);fill-opacity:1;" d="M 62.214844 212.871094 L 36.605469 212.871094 C 35.972656 212.871094 35.453125 212.351562 35.453125 211.714844 L 35.453125 202.703125 C 35.453125 202.066406 35.972656 201.546875 36.605469 201.546875 L 62.214844 201.546875 C 62.851562 201.546875 63.367188 202.066406 63.367188 202.703125 L 63.367188 211.714844 C 63.367188 212.351562 62.851562 212.871094 62.214844 212.871094 Z M 62.214844 212.871094 "/>
<path style=" stroke:none;fill-rule:nonzero;fill:rgb(52.941179%,86.666667%,99.215686%);fill-opacity:1;" d="M 51.171875 207.207031 C 51.171875 206.140625 50.382812 205.273438 49.410156 205.273438 C 48.433594 205.273438 47.648438 206.140625 47.648438 207.207031 C 47.648438 208.277344 48.433594 209.144531 49.410156 209.144531 C 50.382812 209.144531 51.171875 208.277344 51.171875 207.207031 Z M 51.171875 207.207031 "/>
<path style=" stroke:none;fill-rule:nonzero;fill:rgb(65.882355%,89.019608%,97.647059%);fill-opacity:1;" d="M 62.214844 228.203125 L 36.605469 228.203125 C 35.972656 228.203125 35.453125 227.683594 35.453125 227.046875 L 35.453125 218.035156 C 35.453125 217.398438 35.972656 216.882812 36.605469 216.882812 L 62.214844 216.882812 C 62.851562 216.882812 63.367188 217.398438 63.367188 218.035156 L 63.367188 227.046875 C 63.367188 227.683594 62.851562 228.203125 62.214844 228.203125 Z M 62.214844 228.203125 "/>
<path style=" stroke:none;fill-rule:nonzero;fill:rgb(52.941179%,86.666667%,99.215686%);fill-opacity:1;" d="M 51.171875 222.542969 C 51.171875 221.472656 50.382812 220.605469 49.410156 220.605469 C 48.433594 220.605469 47.648438 221.472656 47.648438 222.542969 C 47.648438 223.613281 48.433594 224.480469 49.410156 224.480469 C 50.382812 224.480469 51.171875 223.613281 51.171875 222.542969 Z M 51.171875 222.542969 "/>
<path style=" stroke:none;fill-rule:nonzero;fill:rgb(65.882355%,89.019608%,97.647059%);fill-opacity:1;" d="M 62.214844 243.53125 L 36.605469 243.53125 C 35.972656 243.53125 35.453125 243.015625 35.453125 242.378906 L 35.453125 233.367188 C 35.453125 232.726562 35.972656 232.210938 36.605469 232.210938 L 62.214844 232.210938 C 62.851562 232.210938 63.367188 232.726562 63.367188 233.367188 L 63.367188 242.378906 C 63.367188 243.015625 62.851562 243.53125 62.214844 243.53125 Z M 62.214844 243.53125 "/>
<path style=" stroke:none;fill-rule:nonzero;fill:rgb(52.941179%,86.666667%,99.215686%);fill-opacity:1;" d="M 51.171875 237.875 C 51.171875 236.804688 50.382812 235.9375 49.410156 235.9375 C 48.433594 235.9375 47.648438 236.804688 47.648438 237.875 C 47.648438 238.945312 48.433594 239.8125 49.410156 239.8125 C 50.382812 239.8125 51.171875 238.945312 51.171875 237.875 Z M 51.171875 237.875 "/>
<path style=" stroke:none;fill-rule:nonzero;fill:rgb(27.058825%,30.588236%,31.764707%);fill-opacity:1;" d="M 133.132812 241.632812 C 133.132812 238.179688 130.335938 235.378906 126.890625 235.378906 C 123.441406 235.378906 120.648438 238.179688 120.648438 241.632812 C 120.648438 245.085938 123.441406 247.886719 126.890625 247.886719 C 130.335938 247.886719 133.132812 245.085938 133.132812 241.632812 Z M 133.132812 241.632812 "/>
<path style=" stroke:none;fill-rule:nonzero;fill:rgb(27.058825%,30.588236%,31.764707%);fill-opacity:1;" d="M 177.671875 241.632812 C 177.671875 238.179688 174.878906 235.378906 171.429688 235.378906 C 167.984375 235.378906 165.1875 238.179688 165.1875 241.632812 C 165.1875 245.085938 167.984375 247.886719 171.429688 247.886719 C 174.878906 247.886719 177.671875 245.085938 177.671875 241.632812 Z M 177.671875 241.632812 "/>
<path style=" stroke:none;fill-rule:nonzero;fill:rgb(61.56863%,61.960787%,62.352943%);fill-opacity:1;" d="M 130.980469 241.632812 C 130.980469 239.367188 129.148438 237.53125 126.890625 237.53125 C 124.628906 237.53125 122.796875 239.367188 122.796875 241.632812 C 122.796875 243.898438 124.628906 245.734375 126.890625 245.734375 C 129.148438 245.734375 130.980469 243.898438 130.980469 241.632812 Z M 130.980469 241.632812 "/>
<path style=" stroke:none;fill-rule:nonzero;fill:rgb(61.56863%,61.960787%,62.352943%);fill-opacity:1;" d="M 175.523438 241.632812 C 175.523438 239.367188 173.691406 237.53125 171.429688 237.53125 C 169.171875 237.53125 167.339844 239.367188 167.339844 241.632812 C 167.339844 243.898438 169.171875 245.734375 171.429688 245.734375 C 173.691406 245.734375 175.523438 243.898438 175.523438 241.632812 Z M 175.523438 241.632812 "/>
<path style=" stroke:none;fill-rule:nonzero;fill:rgb(89.019608%,93.725491%,95.294118%);fill-opacity:1;" d="M 126.890625 127.214844 L 171.429688 127.214844 L 171.429688 224.917969 L 126.890625 224.917969 Z M 126.890625 127.214844 "/>
<path style=" stroke:none;fill-rule:nonzero;fill:rgb(16.078432%,62.7451%,80.000001%);fill-opacity:1;" d="M 118.359375 224.917969 L 179.960938 224.917969 C 180.765625 224.917969 181.417969 225.570312 181.417969 226.378906 L 181.417969 231.488281 C 181.417969 232.292969 180.765625 232.949219 179.960938 232.949219 L 118.359375 232.949219 C 117.554688 232.949219 116.898438 232.292969 116.898438 231.488281 L 116.898438 226.378906 C 116.898438 225.570312 117.554688 224.917969 118.359375 224.917969 Z M 118.359375 224.917969 "/>
<path style=" stroke:none;fill-rule:nonzero;fill:rgb(16.078432%,62.7451%,80.000001%);fill-opacity:1;" d="M 116.460938 118.34375 L 181.855469 118.34375 C 182.664062 118.34375 183.316406 119 183.316406 119.804688 L 183.316406 125.757812 C 183.316406 126.566406 182.664062 127.21875 181.855469 127.21875 L 116.460938 127.21875 C 115.652344 127.21875 115 126.566406 115 125.757812 L 115 119.804688 C 115 119 115.652344 118.34375 116.460938 118.34375 Z M 116.460938 118.34375 "/>
<path style=" stroke:none;fill-rule:nonzero;fill:rgb(20%,51.372552%,62.7451%);fill-opacity:1;" d="M 116.746094 224.917969 L 165.703125 224.917969 L 165.703125 232.949219 L 116.746094 232.949219 C 116.023438 232.949219 115.4375 232.363281 115.4375 231.640625 L 115.4375 226.226562 C 115.4375 225.503906 116.023438 224.917969 116.746094 224.917969 Z M 115.703125 118.351562 L 130.808594 118.351562 L 130.808594 127.226562 L 115.703125 127.226562 C 115.316406 127.226562 115.003906 126.910156 115.003906 126.523438 L 115.003906 119.046875 C 115.007812 118.660156 115.320312 118.351562 115.703125 118.351562 Z M 115.703125 118.351562 "/>
<path style=" stroke:none;fill-rule:nonzero;fill:rgb(67.058825%,76.078433%,79.215688%);fill-opacity:1;" d="M 130.804688 127.214844 C 130.804688 127.214844 134.515625 207.695312 165.183594 224.917969 L 126.890625 224.917969 L 126.890625 127.214844 Z M 130.804688 127.214844 "/>
<path style=" stroke:none;fill-rule:nonzero;fill:rgb(89.019608%,93.725491%,95.294118%);fill-opacity:1;" d="M 45.726562 57.746094 L 79.386719 57.746094 L 79.386719 88.964844 L 45.726562 88.964844 Z M 45.726562 57.746094 "/>
<path style=" stroke:none;fill-rule:nonzero;fill:rgb(27.058825%,30.588236%,31.764707%);fill-opacity:1;" d="M 42.464844 55.886719 L 42.464844 90.824219 C 42.464844 91.46875 42.984375 91.992188 43.628906 91.992188 L 81.484375 91.992188 C 82.128906 91.992188 82.648438 91.46875 82.648438 90.824219 L 82.648438 55.886719 C 82.648438 55.242188 82.128906 54.71875 81.484375 54.71875 L 43.628906 54.71875 C 42.984375 54.71875 42.464844 55.242188 42.464844 55.886719 Z M 78.21875 88.964844 L 46.894531 88.964844 C 46.25 88.964844 45.726562 88.441406 45.726562 87.796875 L 45.726562 58.914062 C 45.726562 58.269531 46.25 57.746094 46.894531 57.746094 L 78.21875 57.746094 C 78.863281 57.746094 79.386719 58.269531 79.386719 58.914062 L 79.386719 87.796875 C 79.386719 88.441406 78.863281 88.964844 78.21875 88.964844 Z M 78.21875 88.964844 "/>
<path style=" stroke:none;fill-rule:nonzero;fill:rgb(23.137255%,74.509805%,93.725491%);fill-opacity:1;" d="M 73.472656 80.132812 C 73.332031 80 73.160156 80.171875 72.890625 80.117188 C 72.226562 79.988281 72.339844 78.855469 71.398438 77.859375 C 70.917969 77.351562 70.453125 77.183594 70.523438 76.984375 C 70.613281 76.691406 71.535156 76.984375 72.058594 76.453125 C 72.128906 76.382812 72.300781 76.1875 72.40625 75.4375 C 72.589844 74.078125 72.285156 72.808594 72.113281 72.808594 C 72.019531 72.808594 72.066406 73.175781 71.761719 73.46875 C 71.550781 73.648438 71.28125 73.75 71.003906 73.761719 C 70.363281 73.816406 68.378906 74.023438 67.460938 74.210938 C 66.539062 74.398438 65.445312 74.625 64.796875 75.535156 C 64.289062 76.246094 64.464844 76.828125 63.871094 77.285156 C 64.089844 76.058594 64.746094 73.847656 66.738281 72.273438 C 68.402344 70.957031 69.65625 68.394531 69.949219 65.742188 C 70.167969 63.652344 69.769531 61.875 68.828125 60.738281 C 68.726562 60.613281 68.542969 60.597656 68.417969 60.699219 C 68.359375 60.746094 68.320312 60.816406 68.3125 60.894531 C 68.304688 60.972656 68.328125 61.050781 68.378906 61.109375 C 69.207031 62.113281 69.566406 63.777344 69.367188 65.679688 C 69.105469 68.183594 67.9375 70.59375 66.390625 71.816406 C 63.984375 73.722656 63.386719 76.441406 63.238281 77.609375 C 62.742188 77.753906 62.253906 77.703125 62.148438 77.5 C 62.042969 77.296875 62.441406 76.980469 62.8125 76.355469 C 63.253906 75.582031 63.496094 74.714844 63.519531 73.824219 C 63.585938 72.988281 63.714844 71.378906 62.710938 70.382812 C 62.28125 69.957031 61.542969 69.539062 61.128906 69.78125 C 60.820312 69.964844 60.808594 70.46875 60.796875 71.058594 C 60.796875 71.734375 60.890625 72.410156 61.074219 73.0625 C 61.21875 73.5625 61.324219 73.742188 61.222656 73.996094 C 61.15625 74.160156 61.039062 74.253906 60.316406 74.660156 C 59.515625 75.109375 59.339844 75.175781 59.210938 75.417969 C 59.019531 75.777344 59.160156 76.078125 59.03125 76.125 C 58.835938 76.195312 58.261719 75.582031 58.355469 75.058594 C 58.410156 74.722656 58.699219 74.644531 59.125 74.269531 C 59.644531 73.8125 60.457031 72.832031 60.289062 72.03125 C 60.183594 71.566406 59.847656 71.597656 59.574219 70.941406 C 59.296875 70.289062 59.472656 69.933594 59.398438 69.480469 C 59.199219 68.335938 57.417969 67.257812 55.710938 67.296875 C 53.4375 67.351562 52.253906 69.363281 52.175781 69.507812 C 52.03125 69.769531 51.300781 71.074219 51.714844 72.429688 C 51.96875 73.230469 52.574219 73.855469 53.464844 74.769531 C 53.746094 75.046875 54.007812 75.34375 54.25 75.65625 C 54.757812 76.324219 55.09375 77.109375 55.230469 77.9375 C 55.578125 79.675781 57.214844 82.402344 59.101562 83.882812 C 59.832031 84.46875 62.890625 86.644531 65.863281 85.367188 C 67.550781 84.640625 69.074219 82.855469 69.128906 81.054688 C 69.160156 79.71875 68.371094 78.535156 68.671875 78.351562 C 68.917969 78.203125 69.59375 78.890625 69.8125 79.117188 C 71.113281 80.441406 71.066406 81.527344 71.90625 81.746094 C 72.398438 81.847656 72.90625 81.683594 73.242188 81.3125 C 73.566406 80.945312 73.691406 80.328125 73.472656 80.132812 Z M 73.472656 80.132812 "/>
<path style=" stroke:none;fill-rule:nonzero;fill:rgb(15.686275%,61.56863%,78.431374%);fill-opacity:1;" d="M 69.125 81.054688 C 69.15625 79.761719 68.421875 78.617188 68.648438 78.375 C 68.214844 78.015625 67.5 77.5 66.972656 77.722656 C 65.871094 78.195312 67.296875 81.375 65.804688 82.507812 C 63.949219 83.933594 61.027344 82.472656 59.664062 81.246094 C 58.296875 80.023438 57.746094 78.421875 57.300781 77.195312 C 56.589844 75.226562 56.890625 74.617188 56.039062 73.355469 C 55.0625 71.894531 54.324219 72.21875 53.519531 70.882812 C 53.109375 70.175781 52.898438 69.367188 52.914062 68.546875 C 52.605469 68.84375 52.339844 69.179688 52.121094 69.550781 C 51.976562 69.808594 51.246094 71.113281 51.660156 72.472656 C 51.914062 73.273438 52.515625 73.898438 53.410156 74.808594 C 53.707031 75.074219 53.988281 75.355469 54.25 75.65625 C 54.757812 76.324219 55.09375 77.109375 55.230469 77.9375 C 55.578125 79.675781 57.214844 82.402344 59.101562 83.882812 C 59.832031 84.46875 62.890625 86.644531 65.863281 85.367188 C 67.550781 84.640625 69.082031 82.855469 69.125 81.054688 Z M 69.125 81.054688 "/>
<path style=" stroke:none;fill-rule:nonzero;fill:rgb(32.941177%,67.450982%,80.000001%);fill-opacity:1;" d="M 318.171875 17.972656 L 323.367188 17.972656 L 323.367188 248.460938 L 318.171875 248.460938 Z M 318.171875 17.972656 "/>
<path style=" stroke:none;fill-rule:nonzero;fill:rgb(32.941177%,67.450982%,80.000001%);fill-opacity:1;" d="M 296.945312 76.890625 L 327.757812 76.890625 C 329.472656 76.890625 330.859375 78.285156 330.859375 80 L 330.859375 80.003906 C 330.859375 81.722656 329.472656 83.113281 327.757812 83.113281 L 296.945312 83.113281 C 295.230469 83.113281 293.84375 81.722656 293.84375 80.003906 L 293.84375 80 C 293.84375 78.285156 295.230469 76.890625 296.945312 76.890625 Z M 296.945312 76.890625 "/>
<path style=" stroke:none;fill-rule:nonzero;fill:rgb(32.941177%,67.450982%,80.000001%);fill-opacity:1;" d="M 296.945312 114.707031 L 327.757812 114.707031 C 329.472656 114.707031 330.859375 116.097656 330.859375 117.816406 C 330.859375 119.535156 329.472656 120.925781 327.757812 120.925781 L 296.945312 120.925781 C 295.230469 120.925781 293.84375 119.535156 293.84375 117.816406 C 293.84375 116.097656 295.230469 114.707031 296.945312 114.707031 Z M 296.945312 114.707031 "/>
<path style=" stroke:none;fill-rule:nonzero;fill:rgb(32.941177%,67.450982%,80.000001%);fill-opacity:1;" d="M 296.945312 39.078125 L 327.757812 39.078125 C 329.472656 39.078125 330.859375 40.472656 330.859375 42.1875 L 330.859375 42.191406 C 330.859375 43.910156 329.472656 45.300781 327.757812 45.300781 L 296.945312 45.300781 C 295.230469 45.300781 293.84375 43.910156 293.84375 42.191406 L 293.84375 42.1875 C 293.84375 40.472656 295.230469 39.078125 296.945312 39.078125 Z M 296.945312 39.078125 "/>
<path style=" stroke:none;fill-rule:nonzero;fill:rgb(27.058825%,30.588236%,31.764707%);fill-opacity:1;" d="M 262.800781 242.207031 C 262.800781 238.75 260.007812 235.953125 256.558594 235.953125 C 253.113281 235.953125 250.316406 238.75 250.316406 242.207031 C 250.316406 245.660156 253.113281 248.460938 256.558594 248.460938 C 260.007812 248.460938 262.800781 245.660156 262.800781 242.207031 Z M 262.800781 242.207031 "/>
<path style=" stroke:none;fill-rule:nonzero;fill:rgb(27.058825%,30.588236%,31.764707%);fill-opacity:1;" d="M 307.339844 242.207031 C 307.339844 238.75 304.546875 235.953125 301.097656 235.953125 C 297.652344 235.953125 294.859375 238.75 294.859375 242.207031 C 294.859375 245.660156 297.652344 248.460938 301.097656 248.460938 C 304.546875 248.460938 307.339844 245.660156 307.339844 242.207031 Z M 307.339844 242.207031 "/>
<path style=" stroke:none;fill-rule:nonzero;fill:rgb(61.56863%,61.960787%,62.352943%);fill-opacity:1;" d="M 260.652344 242.207031 C 260.652344 239.941406 258.820312 238.105469 256.558594 238.105469 C 254.296875 238.105469 252.464844 239.941406 252.464844 242.207031 C 252.464844 244.46875 254.296875 246.304688 256.558594 246.304688 C 258.820312 246.304688 260.652344 244.46875 260.652344 242.207031 Z M 260.652344 242.207031 "/>
<path style=" stroke:none;fill-rule:nonzero;fill:rgb(61.56863%,61.960787%,62.352943%);fill-opacity:1;" d="M 305.191406 242.207031 C 305.191406 239.941406 303.359375 238.105469 301.097656 238.105469 C 298.839844 238.105469 297.007812 239.941406 297.007812 242.207031 C 297.007812 244.46875 298.839844 246.304688 301.097656 246.304688 C 303.359375 246.304688 305.191406 244.46875 305.191406 242.207031 Z M 305.191406 242.207031 "/>
<path style=" stroke:none;fill-rule:nonzero;fill:rgb(89.019608%,93.725491%,95.294118%);fill-opacity:1;" d="M 263.8125 191.175781 L 293.84375 191.175781 L 293.84375 224.136719 L 263.8125 224.136719 Z M 263.8125 191.175781 "/>
<path style=" stroke:none;fill-rule:nonzero;fill:rgb(32.941177%,67.450982%,80.000001%);fill-opacity:1;" d="M 274.949219 76.410156 L 282.710938 76.410156 L 282.710938 184.078125 L 274.949219 184.078125 Z M 274.949219 76.410156 "/>
<path style=" stroke:none;fill-rule:nonzero;fill:rgb(32.941177%,67.450982%,80.000001%);fill-opacity:1;" d="M 256.078125 184.078125 L 301.582031 184.078125 C 302.386719 184.078125 303.039062 184.734375 303.039062 185.539062 L 303.039062 189.714844 C 303.039062 190.523438 302.386719 191.175781 301.582031 191.175781 L 256.078125 191.175781 C 255.273438 191.175781 254.621094 190.523438 254.621094 189.714844 L 254.621094 185.539062 C 254.621094 184.734375 255.273438 184.078125 256.078125 184.078125 Z M 256.078125 184.078125 "/>
<path style=" stroke:none;fill-rule:nonzero;fill:rgb(32.941177%,67.450982%,80.000001%);fill-opacity:1;" d="M 253.628906 224.140625 L 304.027344 224.140625 C 304.832031 224.140625 305.484375 224.792969 305.484375 225.601562 L 305.484375 233.496094 C 305.484375 234.304688 304.832031 234.957031 304.027344 234.957031 L 253.628906 234.957031 C 252.824219 234.957031 252.171875 234.304688 252.171875 233.496094 L 252.171875 225.601562 C 252.171875 224.792969 252.824219 224.140625 253.628906 224.140625 Z M 253.628906 224.140625 "/>
<path style=" stroke:none;fill-rule:nonzero;fill:rgb(22.352941%,46.666667%,55.686277%);fill-opacity:1;" d="M 263.421875 57.601562 L 294.234375 57.601562 C 295.945312 57.601562 297.335938 58.992188 297.335938 60.710938 C 297.335938 62.429688 295.945312 63.820312 294.234375 63.820312 L 263.421875 63.820312 C 261.707031 63.820312 260.316406 62.429688 260.316406 60.710938 C 260.316406 58.992188 261.707031 57.601562 263.421875 57.601562 Z M 263.421875 57.601562 "/>
<path style=" stroke:none;fill-rule:nonzero;fill:rgb(22.352941%,46.666667%,55.686277%);fill-opacity:1;" d="M 263.421875 75.917969 L 294.234375 75.917969 C 295.945312 75.917969 297.335938 77.308594 297.335938 79.027344 C 297.335938 80.746094 295.945312 82.136719 294.234375 82.136719 L 263.421875 82.136719 C 261.707031 82.136719 260.316406 80.746094 260.316406 79.027344 C 260.316406 77.308594 261.707031 75.917969 263.421875 75.917969 Z M 263.421875 75.917969 "/>
<path style=" stroke:none;fill-rule:nonzero;fill:rgb(50.196081%,80.000001%,90.980393%);fill-opacity:1;" d="M 301.957031 51.265625 L 255.703125 51.265625 C 254.378906 51.265625 253.308594 52.339844 253.308594 53.667969 L 253.308594 89.179688 C 253.308594 90.503906 254.378906 91.578125 255.703125 91.578125 L 301.957031 91.578125 C 303.277344 91.578125 304.351562 90.503906 304.351562 89.179688 L 304.351562 53.667969 C 304.351562 52.339844 303.277344 51.265625 301.957031 51.265625 Z M 301.082031 85.871094 C 301.078125 86.988281 300.175781 87.894531 299.058594 87.894531 L 258.601562 87.894531 C 257.488281 87.894531 256.582031 86.988281 256.582031 85.871094 L 256.582031 56.984375 C 256.582031 55.863281 257.488281 54.957031 258.601562 54.957031 L 299.050781 54.957031 C 300.167969 54.957031 301.074219 55.863281 301.074219 56.984375 Z M 301.082031 85.871094 "/>
<path style=" stroke:none;fill-rule:nonzero;fill:rgb(89.019608%,93.725491%,95.294118%);fill-opacity:1;" d="M 258.601562 54.953125 L 299.050781 54.953125 C 300.167969 54.953125 301.074219 55.859375 301.074219 56.976562 L 301.074219 85.871094 C 301.074219 86.988281 300.167969 87.894531 299.050781 87.894531 L 258.601562 87.894531 C 257.488281 87.894531 256.582031 86.988281 256.582031 85.871094 L 256.582031 56.976562 C 256.582031 55.859375 257.488281 54.953125 258.601562 54.953125 Z M 258.601562 54.953125 "/>
<path style=" stroke:none;fill-rule:nonzero;fill:rgb(50.196081%,80.000001%,90.980393%);fill-opacity:1;" d="M 286.617188 84.816406 C 286.617188 83.90625 285.882812 83.171875 284.980469 83.171875 C 284.074219 83.171875 283.339844 83.90625 283.339844 84.816406 C 283.339844 85.722656 284.074219 86.457031 284.980469 86.457031 C 285.882812 86.457031 286.617188 85.722656 286.617188 84.816406 Z M 286.617188 84.816406 "/>
<path style=" stroke:none;fill-rule:nonzero;fill:rgb(50.196081%,80.000001%,90.980393%);fill-opacity:1;" d="M 298.75 84.816406 C 298.75 83.90625 298.015625 83.171875 297.109375 83.171875 C 296.203125 83.171875 295.46875 83.90625 295.46875 84.816406 C 295.46875 85.722656 296.203125 86.457031 297.109375 86.457031 C 298.015625 86.457031 298.75 85.722656 298.75 84.816406 Z M 298.75 84.816406 "/>
<path style=" stroke:none;fill-rule:nonzero;fill:rgb(50.196081%,80.000001%,90.980393%);fill-opacity:1;" d="M 292.683594 84.816406 C 292.683594 83.90625 291.949219 83.171875 291.042969 83.171875 C 290.136719 83.171875 289.402344 83.90625 289.402344 84.816406 C 289.402344 85.722656 290.136719 86.457031 291.042969 86.457031 C 291.949219 86.457031 292.683594 85.722656 292.683594 84.816406 Z M 292.683594 84.816406 "/>
<path style=" stroke:none;fill-rule:nonzero;fill:rgb(50.196081%,80.000001%,90.980393%);fill-opacity:1;" d="M 269.34375 57.703125 C 271.386719 60.671875 274.953125 62.480469 278.796875 62.480469 C 282.679688 62.480469 286.296875 60.628906 288.3125 57.601562 L 293.5625 74.964844 C 290.429688 79.667969 284.8125 82.550781 278.765625 82.550781 C 272.796875 82.550781 267.234375 79.734375 264.074219 75.121094 Z M 269.34375 57.703125 "/>
<path style=" stroke:none;fill-rule:nonzero;fill:rgb(23.137255%,74.509805%,93.725491%);fill-opacity:1;" d="M 278.117188 69.933594 C 278.339844 69.792969 278.539062 69.917969 278.992188 69.964844 C 279.535156 70.03125 280.539062 69.988281 280.914062 69.457031 C 281.132812 69.148438 280.933594 68.964844 281.167969 68.457031 C 281.40625 67.949219 281.710938 67.871094 281.925781 67.578125 C 282.492188 66.855469 282.175781 65.242188 281.246094 64.253906 C 280.007812 62.949219 278.203125 63.320312 278.078125 63.351562 C 277.847656 63.402344 276.691406 63.660156 276.125 64.625 C 275.792969 65.210938 275.746094 65.882812 275.683594 66.894531 C 275.683594 67.210938 275.667969 67.53125 275.628906 67.84375 C 275.507812 68.496094 275.226562 69.109375 274.8125 69.628906 C 273.984375 70.753906 273.253906 73.167969 273.386719 75.058594 C 273.441406 75.792969 273.785156 78.753906 276.109375 79.820312 C 277.429688 80.425781 279.289062 80.378906 280.367188 79.449219 C 281.167969 78.757812 281.4375 77.667969 281.707031 77.75 C 281.925781 77.8125 281.878906 78.574219 281.863281 78.828125 C 281.777344 80.289062 281.117188 80.835938 281.433594 81.457031 C 281.636719 81.800781 282.003906 82.011719 282.402344 82.011719 C 282.785156 82.011719 283.210938 81.753906 283.210938 81.519531 C 283.210938 81.367188 283.023438 81.359375 282.917969 81.164062 C 282.628906 80.703125 283.367188 80.171875 283.449219 79.089844 C 283.492188 78.539062 283.34375 78.175781 283.496094 78.105469 C 283.703125 78.007812 284.023438 78.691406 284.617188 78.726562 C 284.691406 78.726562 284.910156 78.726562 285.394531 78.390625 C 286.289062 77.777344 286.855469 76.929688 286.769531 76.824219 C 286.71875 76.769531 286.527344 76.992188 286.1875 76.96875 C 285.964844 76.941406 285.757812 76.839844 285.601562 76.675781 C 285.230469 76.332031 284.050781 75.265625 283.460938 74.832031 C 282.867188 74.398438 282.148438 73.867188 281.269531 73.96875 C 280.570312 74.050781 280.328125 74.480469 279.710938 74.355469 C 279.09375 74.234375 278.613281 73.695312 278.699219 73.457031 C 278.765625 73.273438 279.152344 73.34375 279.722656 73.238281 C 280.410156 73.089844 281.046875 72.769531 281.578125 72.308594 C 282.101562 71.90625 283.113281 71.125 283.164062 70.007812 C 283.183594 69.53125 283.035156 68.871094 282.675781 68.761719 C 282.40625 68.679688 282.09375 68.9375 281.753906 69.242188 C 281.359375 69.605469 281.011719 70.015625 280.726562 70.46875 C 280.511719 70.816406 280.460938 70.976562 280.257812 71.054688 C 280.128906 71.101562 280.011719 71.082031 279.382812 70.871094 C 278.695312 70.640625 278.566406 70.582031 278.351562 70.625 C 278.039062 70.703125 277.941406 70.945312 277.84375 70.894531 C 277.703125 70.820312 277.757812 70.15625 278.117188 69.933594 Z M 278.117188 69.933594 "/>
<path style=" stroke:none;fill-rule:nonzero;fill:rgb(89.019608%,93.725491%,95.294118%);fill-opacity:1;" d="M 258.601562 102.546875 L 299.050781 102.546875 C 300.167969 102.546875 301.074219 103.453125 301.074219 104.570312 L 301.074219 133.464844 C 301.074219 134.582031 300.167969 135.488281 299.050781 135.488281 L 258.601562 135.488281 C 257.488281 135.488281 256.582031 134.582031 256.582031 133.464844 L 256.582031 104.570312 C 256.582031 103.453125 257.488281 102.546875 258.601562 102.546875 Z M 258.601562 102.546875 "/>
<path style=" stroke:none;fill-rule:nonzero;fill:rgb(50.196081%,80.000001%,90.980393%);fill-opacity:1;" d="M 286.617188 127.613281 C 286.617188 126.707031 285.882812 125.972656 284.980469 125.972656 C 284.074219 125.972656 283.339844 126.707031 283.339844 127.613281 C 283.339844 128.519531 284.074219 129.253906 284.980469 129.253906 C 285.882812 129.253906 286.617188 128.519531 286.617188 127.613281 Z M 286.617188 127.613281 "/>
<path style=" stroke:none;fill-rule:nonzero;fill:rgb(50.196081%,80.000001%,90.980393%);fill-opacity:1;" d="M 298.75 127.613281 C 298.75 126.707031 298.015625 125.972656 297.109375 125.972656 C 296.203125 125.972656 295.46875 126.707031 295.46875 127.613281 C 295.46875 128.519531 296.203125 129.253906 297.109375 129.253906 C 298.015625 129.253906 298.75 128.519531 298.75 127.613281 Z M 298.75 127.613281 "/>
<path style=" stroke:none;fill-rule:nonzero;fill:rgb(50.196081%,80.000001%,90.980393%);fill-opacity:1;" d="M 292.683594 127.613281 C 292.683594 126.707031 291.949219 125.972656 291.042969 125.972656 C 290.136719 125.972656 289.402344 126.707031 289.402344 127.613281 C 289.402344 128.519531 290.136719 129.253906 291.042969 129.253906 C 291.949219 129.253906 292.683594 128.519531 292.683594 127.613281 Z M 292.683594 127.613281 "/>
<path style=" stroke:none;fill-rule:nonzero;fill:rgb(50.196081%,80.000001%,90.980393%);fill-opacity:1;" d="M 285.625 105.195312 L 296.75 105.195312 C 298.15625 105.195312 299.292969 106.339844 299.292969 107.746094 L 299.292969 112.929688 C 299.292969 114.335938 298.15625 115.476562 296.75 115.476562 L 285.625 115.476562 C 284.222656 115.476562 283.082031 114.335938 283.082031 112.929688 L 283.082031 107.746094 C 283.082031 106.339844 284.222656 105.195312 285.625 105.195312 Z M 285.625 105.195312 "/>
<path style=" stroke:none;fill-rule:nonzero;fill:rgb(50.196081%,80.000001%,90.980393%);fill-opacity:1;" d="M 261.652344 122.472656 L 272.777344 122.472656 C 274.183594 122.472656 275.320312 123.613281 275.320312 125.019531 L 275.320312 130.207031 C 275.320312 131.613281 274.183594 132.753906 272.777344 132.753906 L 261.652344 132.753906 C 260.25 132.753906 259.109375 131.613281 259.109375 130.207031 L 259.109375 125.019531 C 259.109375 123.613281 260.25 122.472656 261.652344 122.472656 Z M 261.652344 122.472656 "/>
<path style=" stroke:none;fill-rule:nonzero;fill:rgb(50.196081%,80.000001%,90.980393%);fill-opacity:1;" d="M 261.652344 105.195312 L 272.777344 105.195312 C 274.183594 105.195312 275.320312 106.339844 275.320312 107.746094 L 275.320312 112.929688 C 275.320312 114.335938 274.183594 115.476562 272.777344 115.476562 L 261.652344 115.476562 C 260.25 115.476562 259.109375 114.335938 259.109375 112.929688 L 259.109375 107.746094 C 259.109375 106.339844 260.25 105.195312 261.652344 105.195312 Z M 261.652344 105.195312 "/>
<path style=" stroke:none;fill-rule:nonzero;fill:rgb(50.196081%,80.000001%,90.980393%);fill-opacity:1;" d="M 277.738281 102.546875 L 279.921875 102.546875 L 279.921875 135.488281 L 277.738281 135.488281 Z M 277.738281 102.546875 "/>
<path style=" stroke:none;fill-rule:nonzero;fill:rgb(50.196081%,80.000001%,90.980393%);fill-opacity:1;" d="M 301.074219 117.921875 L 301.074219 120.113281 L 256.582031 120.113281 L 256.582031 117.921875 Z M 301.074219 117.921875 "/>
<path style=" stroke:none;fill-rule:nonzero;fill:rgb(50.196081%,80.000001%,90.980393%);fill-opacity:1;" d="M 301.957031 98.863281 L 255.703125 98.863281 C 254.378906 98.863281 253.308594 99.9375 253.308594 101.261719 L 253.308594 136.777344 C 253.308594 138.101562 254.378906 139.175781 255.703125 139.175781 L 301.957031 139.175781 C 303.277344 139.175781 304.351562 138.101562 304.351562 136.777344 L 304.351562 101.261719 C 304.351562 99.9375 303.277344 98.863281 301.957031 98.863281 Z M 301.082031 133.464844 C 301.078125 134.582031 300.175781 135.488281 299.058594 135.488281 L 258.601562 135.488281 C 257.488281 135.488281 256.582031 134.582031 256.582031 133.464844 L 256.582031 104.570312 C 256.582031 103.453125 257.488281 102.546875 258.601562 102.546875 L 299.050781 102.546875 C 300.167969 102.546875 301.074219 103.453125 301.074219 104.570312 Z M 301.082031 133.464844 "/>
<path style=" stroke:none;fill-rule:nonzero;fill:rgb(16.078432%,62.7451%,80.000001%);fill-opacity:1;" d="M 219.722656 247.21875 C 220.910156 243.175781 226.214844 235.996094 225.136719 230.894531 C 226.917969 231.386719 231.878906 227.257812 233.789062 225.734375 C 233.789062 225.734375 236.78125 228.480469 238.257812 230.855469 C 239.738281 233.230469 240.09375 233.957031 240.09375 233.957031 L 236.542969 236.765625 L 235.929688 235.730469 C 235.929688 235.730469 233.734375 237.191406 233.265625 239.175781 C 232.800781 241.160156 230.300781 244.890625 226.441406 246.949219 C 222.582031 249.011719 218.527344 251.253906 219.722656 247.21875 Z M 219.722656 247.21875 "/>
<path style=" stroke:none;fill-rule:nonzero;fill:rgb(89.019608%,93.725491%,95.294118%);fill-opacity:1;" d="M 233.789062 225.726562 C 233.789062 225.726562 236.78125 228.472656 238.257812 230.851562 C 238.605469 231.40625 238.890625 231.871094 239.132812 232.257812 C 237.867188 233.234375 236.289062 234.234375 236.347656 233.066406 C 236.445312 231.136719 233.007812 226.347656 233.007812 226.347656 Z M 219.527344 248.109375 C 219.566406 247.808594 219.632812 247.507812 219.722656 247.214844 C 220.222656 245.511719 221.300781 243.3125 222.308594 240.957031 C 224.011719 240.328125 225.867188 240.230469 227.625 240.6875 C 229.191406 241.117188 230.480469 242.75 230.90625 242.867188 C 230.695312 244.480469 220.679688 250.070312 219.824219 249.253906 L 219.792969 249.226562 C 219.578125 248.894531 219.484375 248.5 219.527344 248.109375 Z M 219.527344 248.109375 "/>
<path style=" stroke:none;fill-rule:nonzero;fill:rgb(7.450981%,37.64706%,48.627451%);fill-opacity:1;" d="M 226.433594 246.949219 C 223.335938 248.601562 220.121094 250.375 219.585938 248.917969 C 230.417969 245.667969 231.875 239.621094 231.875 238.054688 C 231.875 236.484375 233.480469 235.394531 233.480469 235.394531 C 236.515625 233.542969 237.5625 231.566406 237.902344 230.3125 C 238.027344 230.492188 238.148438 230.675781 238.257812 230.851562 C 239.738281 233.226562 240.089844 233.949219 240.089844 233.949219 L 236.542969 236.765625 L 235.929688 235.730469 C 235.929688 235.730469 233.734375 237.191406 233.265625 239.175781 C 232.800781 241.160156 230.292969 244.882812 226.433594 246.949219 Z M 226.433594 246.949219 "/>
<path style=" stroke:none;fill-rule:nonzero;fill:rgb(21.568628%,67.058825%,83.92157%);fill-opacity:1;" d="M 195.125 150.148438 C 195.125 150.148438 190.570312 190.628906 190.429688 194.191406 C 190.285156 197.757812 192.351562 234.851562 192.351562 234.851562 C 192.351562 234.851562 197.894531 237.082031 201.867188 235.5625 C 201.867188 235.5625 204.996094 207.128906 204.527344 199.914062 L 205.570312 186.214844 C 205.570312 186.214844 206.425781 197.628906 207.277344 198.960938 C 208.128906 200.289062 224.742188 231.582031 224.742188 231.582031 C 224.742188 231.582031 234.234375 227.300781 234.234375 226.0625 C 234.234375 226.0625 228.726562 203.242188 221.691406 196.867188 C 221.660156 188.039062 221.628906 179.210938 221.597656 170.382812 C 223.171875 166.394531 223.757812 162.082031 223.304688 157.816406 C 223.007812 155.105469 222.289062 152.457031 221.171875 149.972656 C 221.171875 149.972656 200.820312 153 195.125 150.148438 Z M 195.125 150.148438 "/>
<path style=" stroke:none;fill-rule:nonzero;fill:rgb(3.921569%,48.627451%,65.098041%);fill-opacity:1;" d="M 205.238281 181.78125 C 204.476562 173.015625 202.902344 164.613281 202.386719 164.664062 C 201.996094 164.707031 202.402344 169.066406 202.53125 179.074219 C 202.636719 187.234375 202.476562 192.714844 202.238281 200.46875 C 201.792969 215.605469 201.1875 218.207031 200.539062 220.296875 C 198.839844 225.664062 196.046875 230.617188 192.34375 234.851562 C 194.210938 235.691406 197.234375 236.660156 200.617188 235.914062 C 201.035156 235.820312 201.449219 235.703125 201.855469 235.5625 C 201.855469 235.5625 204.988281 207.128906 204.515625 199.914062 L 205.527344 186.65625 C 205.496094 185.3125 205.414062 183.851562 205.238281 181.78125 Z M 205.238281 181.78125 "/>
<path style=" stroke:none;fill-rule:nonzero;fill:rgb(3.921569%,48.627451%,65.098041%);fill-opacity:1;" d="M 227.171875 217.089844 C 226.003906 210.820312 222.464844 209.585938 219.550781 202.246094 C 217.800781 197.832031 217.59375 192.757812 217.191406 182.617188 C 216.566406 167.066406 218.203125 165.878906 216.160156 162.09375 C 210.773438 152.140625 194.902344 151.808594 195.125 150.148438 C 201.277344 152.261719 218.347656 150.335938 220.867188 150.011719 L 221.074219 149.984375 L 221.171875 149.984375 C 222.289062 152.472656 223.007812 155.121094 223.304688 157.832031 C 223.757812 162.097656 223.171875 166.410156 221.597656 170.398438 C 221.628906 179.226562 221.660156 188.054688 221.691406 196.882812 C 228.714844 203.253906 234.234375 226.078125 234.234375 226.078125 C 234.015625 226.363281 233.78125 226.644531 233.527344 226.917969 C 231.617188 228.402344 226.410156 230.828125 225.066406 231.449219 L 225.015625 231.449219 L 224.945312 231.480469 L 224.902344 231.5 L 224.875 231.5 L 224.835938 231.515625 L 224.820312 231.515625 L 224.742188 231.550781 C 226.429688 228.09375 228.257812 222.875 227.171875 217.089844 Z M 227.171875 217.089844 "/>
<path style=" stroke:none;fill-rule:nonzero;fill:rgb(89.019608%,93.725491%,95.294118%);fill-opacity:1;" d="M 211.320312 153.707031 C 211.414062 155.460938 211.496094 157.214844 211.570312 158.96875 L 211.796875 164.230469 L 212.171875 174.773438 C 212.296875 178.28125 212.394531 181.804688 212.496094 185.320312 L 212.761719 195.871094 L 212.722656 195.699219 C 214.03125 198.539062 215.347656 201.375 216.652344 204.222656 C 217.960938 207.070312 219.261719 209.910156 220.539062 212.765625 L 224.394531 221.328125 C 225.652344 224.191406 226.933594 227.046875 228.171875 229.921875 C 226.765625 227.125 225.40625 224.308594 224.027344 221.5 L 219.941406 213.039062 C 218.582031 210.222656 217.246094 207.394531 215.910156 204.5625 C 214.574219 201.734375 213.265625 198.914062 211.9375 196.082031 L 211.894531 196 L 211.894531 195.90625 L 211.65625 185.355469 C 211.59375 181.851562 211.519531 178.324219 211.476562 174.808594 L 211.351562 164.253906 L 211.328125 158.96875 C 211.316406 157.214844 211.3125 155.460938 211.320312 153.707031 Z M 211.320312 153.707031 "/>
<path style=" stroke:none;fill-rule:nonzero;fill:rgb(89.019608%,93.725491%,95.294118%);fill-opacity:1;" d="M 222.078125 152.246094 C 220.988281 152.605469 219.875 152.898438 218.75 153.125 C 217.625 153.359375 216.488281 153.546875 215.351562 153.707031 C 214.214844 153.871094 213.070312 153.988281 211.925781 154.078125 C 211.339844 154.136719 210.777344 154.167969 210.207031 154.195312 C 209.636719 154.21875 209.058594 154.261719 208.484375 154.277344 C 206.1875 154.335938 203.890625 154.3125 201.601562 154.167969 C 200.453125 154.113281 199.3125 153.980469 198.171875 153.875 C 197.027344 153.769531 195.894531 153.582031 194.761719 153.402344 C 195.914062 153.402344 197.054688 153.429688 198.199219 153.445312 L 199.910156 153.445312 C 200.496094 153.445312 201.050781 153.472656 201.625 153.464844 C 202.195312 153.453125 202.765625 153.464844 203.332031 153.464844 C 203.902344 153.464844 204.472656 153.464844 205.042969 153.445312 C 206.183594 153.445312 207.320312 153.410156 208.457031 153.378906 C 209.027344 153.378906 209.59375 153.335938 210.164062 153.316406 L 211.019531 153.28125 L 211.871094 153.234375 C 213.007812 153.1875 214.140625 153.089844 215.277344 153.011719 C 217.546875 152.832031 219.816406 152.609375 222.078125 152.246094 Z M 222.078125 152.246094 "/>
<path style=" stroke:none;fill-rule:nonzero;fill:rgb(16.078432%,62.7451%,80.000001%);fill-opacity:1;" d="M 179.082031 244.140625 C 182.257812 241.703125 190.34375 239.171875 192.367188 234.640625 C 193.460938 236.015625 199.574219 235.628906 201.898438 235.515625 C 201.898438 235.515625 202.660156 239.316406 202.480469 241.945312 C 202.304688 244.574219 202.125 245.382812 202.125 245.382812 L 197.816406 245.546875 L 197.925781 244.410156 C 197.925781 244.410156 195.417969 244.296875 193.953125 245.558594 C 192.484375 246.816406 188.480469 248.285156 184.367188 247.707031 C 180.25 247.125 175.898438 246.578125 179.082031 244.140625 Z M 179.082031 244.140625 "/>
<path style=" stroke:none;fill-rule:nonzero;fill:rgb(89.019608%,93.725491%,95.294118%);fill-opacity:1;" d="M 201.890625 235.53125 C 201.890625 235.53125 202.648438 239.328125 202.472656 241.960938 C 202.425781 242.582031 202.382812 243.097656 202.347656 243.523438 C 200.828125 243.5625 199.058594 243.445312 199.753906 242.582031 C 200.921875 241.152344 200.941406 235.550781 200.941406 235.550781 Z M 178.425781 244.722656 C 178.625 244.511719 178.839844 244.316406 179.074219 244.140625 C 180.410156 243.113281 182.46875 242.03125 184.554688 240.789062 C 186.21875 241.257812 187.699219 242.226562 188.796875 243.5625 C 189.753906 244.769531 189.835938 246.742188 190.09375 247.066406 C 189.027344 248.1875 178.214844 246.863281 178.007812 245.75 L 178.007812 245.710938 C 178.027344 245.34375 178.175781 244.996094 178.425781 244.722656 Z M 178.425781 244.722656 "/>
<path style=" stroke:none;fill-rule:nonzero;fill:rgb(7.450981%,37.64706%,48.627451%);fill-opacity:1;" d="M 184.378906 247.707031 C 181.074219 247.234375 177.613281 246.792969 178.019531 245.367188 C 188.148438 248.941406 192.65625 245.105469 193.53125 243.90625 C 194.40625 242.707031 196.25 242.761719 196.25 242.761719 C 199.613281 243.054688 201.5 242.105469 202.488281 241.339844 C 202.488281 241.546875 202.488281 241.753906 202.460938 241.953125 C 202.269531 244.613281 202.136719 245.363281 202.136719 245.363281 L 197.828125 245.527344 L 197.9375 244.390625 C 197.9375 244.390625 195.429688 244.28125 193.964844 245.539062 C 192.496094 246.800781 188.492188 248.285156 184.378906 247.707031 Z M 184.378906 247.707031 "/>
<path style=" stroke:none;fill-rule:nonzero;fill:rgb(0%,0%,0%);fill-opacity:1;" d="M 222.246094 105.128906 C 222.246094 101.097656 218.984375 97.832031 214.960938 97.832031 C 210.9375 97.832031 207.675781 101.097656 207.675781 105.128906 C 207.675781 109.160156 210.9375 112.429688 214.960938 112.429688 C 218.984375 112.429688 222.246094 109.160156 222.246094 105.128906 Z M 222.246094 105.128906 "/>
<path style=" stroke:none;fill-rule:nonzero;fill:rgb(0%,0%,0%);fill-opacity:1;" d="M 206.136719 106.484375 C 214.886719 108.53125 216.953125 104.015625 217.203125 100.21875 C 217.449219 96.425781 216 90.066406 210.476562 88 C 204.957031 85.933594 188.335938 102.332031 206.136719 106.484375 Z M 206.136719 106.484375 "/>
<path style=" stroke:none;fill-rule:nonzero;fill:rgb(49.019608%,80.000001%,91.764706%);fill-opacity:1;" d="M 205.585938 87.609375 C 209.199219 88.316406 211.417969 92.933594 210.90625 98.289062 L 210.9375 98.289062 C 211.921875 98.480469 212.503906 99.75 212.238281 101.144531 C 211.96875 102.539062 210.949219 103.480469 209.960938 103.296875 C 209.828125 103.273438 209.699219 103.226562 209.582031 103.160156 C 207.578125 107.214844 203.675781 109.476562 200.464844 108.847656 C 196.484375 108.070312 195.074219 103.144531 196.246094 97.117188 C 197.421875 91.089844 201.601562 86.832031 205.585938 87.609375 Z M 205.585938 87.609375 "/>
<path style=" stroke:none;fill-rule:nonzero;fill:rgb(49.019608%,80.000001%,91.764706%);fill-opacity:1;" d="M 201.734375 112.015625 C 201.917969 111.367188 201.164062 109.789062 200.683594 108.882812 C 203.851562 109.367188 207.621094 107.128906 209.582031 103.164062 C 209.699219 103.226562 209.828125 103.273438 209.960938 103.300781 C 209.960938 103.300781 210.269531 111.542969 212.050781 111.644531 C 214.136719 113.441406 220.949219 119.507812 219.5625 122.320312 C 218.394531 124.683594 212.105469 123.464844 202.730469 121.648438 C 201.816406 121.507812 200.964844 121.101562 200.28125 120.480469 C 198.3125 118.597656 198.851562 115.21875 199.128906 114.457031 C 199.5 113.460938 201.472656 112.945312 201.734375 112.015625 Z M 201.734375 112.015625 "/>
<path style=" stroke:none;fill-rule:nonzero;fill:rgb(39.607844%,70.588237%,81.960785%);fill-opacity:1;" d="M 210.222656 106.585938 C 210.015625 104.832031 209.960938 103.300781 209.960938 103.300781 C 209.828125 103.273438 209.699219 103.226562 209.582031 103.164062 C 207.621094 107.128906 203.851562 109.367188 200.683594 108.878906 C 201.046875 109.539062 201.351562 110.230469 201.601562 110.941406 L 201.839844 111 C 204.695312 111.558594 208.09375 109.828125 210.222656 106.585938 Z M 210.222656 106.585938 "/>
<path style=" stroke:none;fill-rule:nonzero;fill:rgb(24.313726%,60.784316%,74.509805%);fill-opacity:1;" d="M 201.644531 104.589844 C 200.539062 104.664062 199.4375 104.816406 198.351562 105.039062 C 198.351562 105.039062 198.460938 103.472656 199.765625 103.285156 C 201.070312 103.097656 201.644531 104.589844 201.644531 104.589844 Z M 201.644531 104.589844 "/>
<path style=" stroke:none;fill-rule:nonzero;fill:rgb(39.607844%,70.588237%,81.960785%);fill-opacity:1;" d="M 198.847656 96.726562 C 198.960938 97.328125 198.972656 97.945312 198.886719 98.554688 C 198.847656 98.875 198.757812 99.191406 198.621094 99.484375 C 198.539062 99.652344 198.457031 99.757812 198.382812 99.886719 C 198.308594 100.019531 198.234375 100.132812 198.171875 100.253906 C 198.039062 100.464844 197.960938 100.699219 197.933594 100.945312 C 197.929688 101.03125 197.960938 101.117188 198.019531 101.183594 C 198.101562 101.265625 198.199219 101.328125 198.308594 101.367188 C 198.863281 101.539062 199.4375 101.636719 200.011719 101.660156 C 199.417969 101.867188 198.78125 101.910156 198.164062 101.792969 C 197.980469 101.75 197.8125 101.660156 197.671875 101.535156 C 197.511719 101.390625 197.414062 101.1875 197.398438 100.972656 C 197.390625 100.621094 197.484375 100.273438 197.667969 99.96875 C 197.746094 99.828125 197.828125 99.695312 197.914062 99.570312 C 197.996094 99.441406 198.09375 99.308594 198.148438 99.210938 C 198.28125 98.96875 198.386719 98.714844 198.457031 98.449219 C 198.605469 97.910156 198.71875 97.324219 198.847656 96.726562 Z M 198.847656 96.726562 "/>
<path style=" stroke:none;fill-rule:nonzero;fill:rgb(0%,0%,0%);fill-opacity:1;" d="M 204.136719 95.945312 C 203.550781 95.929688 202.964844 95.871094 202.386719 95.777344 C 202.105469 95.726562 201.832031 95.65625 201.5625 95.5625 C 201.285156 95.476562 201.027344 95.347656 200.734375 95.226562 C 200.90625 95.496094 201.136719 95.71875 201.414062 95.878906 C 201.6875 96.042969 201.988281 96.160156 202.304688 96.214844 C 202.617188 96.273438 202.9375 96.28125 203.253906 96.238281 C 203.566406 96.199219 203.867188 96.101562 204.136719 95.945312 Z M 196.792969 95.042969 C 196.746094 95.183594 196.699219 95.335938 196.65625 95.46875 L 196.695312 95.46875 C 197.011719 95.527344 197.328125 95.53125 197.644531 95.488281 C 197.957031 95.453125 198.261719 95.351562 198.535156 95.195312 C 197.953125 95.183594 197.371094 95.132812 196.792969 95.042969 Z M 197.007812 98.941406 C 197.25 98.988281 197.484375 98.828125 197.53125 98.585938 L 197.78125 97.300781 C 197.816406 97.066406 197.65625 96.847656 197.425781 96.800781 C 197.191406 96.757812 196.964844 96.902344 196.90625 97.132812 L 196.65625 98.417969 C 196.609375 98.660156 196.765625 98.890625 197.007812 98.941406 Z M 201.503906 99.214844 C 201.621094 99.238281 201.742188 99.214844 201.839844 99.148438 C 201.9375 99.082031 202.003906 98.976562 202.027344 98.863281 L 202.277344 97.574219 C 202.308594 97.339844 202.152344 97.121094 201.917969 97.074219 C 201.6875 97.03125 201.460938 97.175781 201.402344 97.40625 L 201.152344 98.691406 C 201.105469 98.933594 201.261719 99.167969 201.503906 99.214844 Z M 201.503906 99.214844 "/>
<path style=" stroke:none;fill-rule:nonzero;fill:rgb(39.607844%,70.588237%,81.960785%);fill-opacity:1;" d="M 210.96875 99.519531 C 211.210938 99.6875 211.394531 99.925781 211.492188 100.207031 C 211.710938 100.789062 211.578125 101.449219 211.148438 101.902344 C 211.050781 102.011719 210.9375 102.109375 210.8125 102.191406 C 210.6875 102.265625 210.554688 102.324219 210.417969 102.367188 C 210.476562 102.226562 210.546875 102.113281 210.605469 101.996094 C 210.667969 101.878906 210.730469 101.769531 210.769531 101.65625 C 210.871094 101.445312 210.945312 101.226562 210.992188 101 C 211.074219 100.507812 211.066406 100.007812 210.96875 99.519531 Z M 210.96875 99.519531 "/>
<path style=" stroke:none;fill-rule:nonzero;fill:rgb(0%,0%,0%);fill-opacity:1;" d="M 197.65625 92.953125 C 197.65625 92.953125 199.484375 90.101562 200.015625 90.742188 C 200.546875 91.378906 201.566406 93.097656 205.042969 92.910156 C 205.042969 92.910156 207.359375 95.949219 207.855469 99.515625 C 208.351562 103.082031 210.9375 98.292969 210.9375 98.292969 C 210.9375 98.292969 214.257812 89.992188 210.667969 88.015625 C 207.078125 86.042969 203.480469 86 199.894531 88.015625 C 196.304688 90.035156 197.65625 92.953125 197.65625 92.953125 Z M 197.65625 92.953125 "/>
<path style=" stroke:none;fill-rule:nonzero;fill:rgb(39.607844%,70.588237%,81.960785%);fill-opacity:1;" d="M 212.042969 111.644531 C 210.953125 111.585938 210.417969 108.496094 210.164062 106.09375 L 208.566406 106.8125 L 207.195312 109.675781 C 207.195312 109.675781 209.820312 110.261719 208.566406 112.949219 C 207.449219 115.371094 204.480469 120.871094 200.195312 120.402344 C 200.816406 120.746094 201.671875 121.191406 202.71875 121.644531 C 209.585938 124.636719 218.957031 125.585938 220.320312 122.878906 C 221.6875 120.171875 214.875 114.050781 212.042969 111.644531 Z M 212.042969 111.644531 "/>
<path style=" stroke:none;fill-rule:nonzero;fill:rgb(21.568628%,67.058825%,83.92157%);fill-opacity:1;" d="M 206.925781 96.265625 C 206.925781 96.265625 202.171875 93.722656 197.214844 93.675781 C 197.214844 93.675781 195.691406 87.808594 203.25 86.664062 C 210.8125 85.519531 217.339844 91.074219 217.226562 98.144531 C 217.226562 98.144531 215.476562 101.238281 212.238281 101.160156 C 208.996094 101.078125 209.707031 96.585938 206.925781 96.265625 Z M 206.925781 96.265625 "/>
<path style=" stroke:none;fill-rule:nonzero;fill:rgb(3.921569%,48.627451%,65.098041%);fill-opacity:1;" d="M 197.167969 93.410156 C 197.277344 93.277344 197.414062 93.164062 197.566406 93.082031 C 197.738281 92.996094 197.925781 92.941406 198.117188 92.921875 C 198.574219 92.84375 198.839844 92.800781 198.992188 92.949219 C 199.148438 93.097656 199.03125 93.144531 199.148438 93.292969 C 199.300781 93.476562 199.550781 93.550781 199.78125 93.476562 C 199.953125 93.394531 199.90625 93.226562 200.09375 93.109375 C 200.28125 93.003906 200.511719 93.003906 200.699219 93.109375 C 200.894531 93.21875 200.839844 93.359375 201.039062 93.554688 C 201.25 93.742188 201.519531 93.84375 201.800781 93.847656 C 202.1875 93.847656 202.257812 93.652344 202.511719 93.714844 C 202.765625 93.78125 202.726562 93.972656 203.113281 94.320312 C 203.746094 94.882812 203.925781 94.859375 203.988281 94.847656 C 204.222656 94.792969 204.253906 94.523438 204.515625 94.503906 C 204.648438 94.503906 204.777344 94.550781 204.882812 94.636719 C 205.261719 94.863281 205.300781 95.089844 205.511719 95.21875 C 205.667969 95.3125 205.953125 95.367188 206.484375 95.117188 C 206.484375 95.117188 207.027344 94.941406 207.191406 95.117188 C 207.355469 95.289062 207.050781 95.59375 207.21875 95.851562 C 207.328125 95.980469 207.492188 96.058594 207.664062 96.0625 C 208.058594 96.085938 208.300781 95.882812 208.539062 95.855469 C 208.667969 95.855469 208.464844 96.078125 208.59375 96.378906 C 208.648438 96.496094 208.769531 96.773438 208.988281 96.824219 C 209.28125 96.890625 209.488281 96.53125 209.671875 96.640625 C 209.855469 96.75 209.734375 96.949219 209.878906 97.007812 C 210.078125 97.089844 210.246094 96.804688 210.464844 96.824219 C 210.882812 96.863281 210.835938 97.992188 211.355469 98.324219 C 211.988281 98.710938 213.230469 97.757812 213.507812 97.535156 C 215.378906 96.046875 215.761719 94.140625 216.292969 93.429688 C 216.957031 94.910156 217.292969 96.519531 217.265625 98.144531 C 217.265625 98.144531 215.515625 101.234375 212.273438 101.15625 C 209.035156 101.078125 209.753906 96.59375 206.964844 96.273438 C 206.964844 96.273438 202.210938 93.730469 197.253906 93.6875 C 197.214844 93.675781 197.191406 93.578125 197.167969 93.410156 Z M 197.167969 93.410156 "/>
<path style=" stroke:none;fill-rule:nonzero;fill:rgb(3.921569%,48.627451%,65.098041%);fill-opacity:1;" d="M 208.128906 95.976562 C 208.128906 95.976562 208.082031 96.5 208.34375 96.652344 C 208.617188 96.839844 208.882812 97.042969 209.136719 97.261719 C 209.136719 97.261719 210.203125 96.988281 210.71875 95.289062 C 210.875 94.671875 210.945312 94.035156 210.933594 93.398438 C 210.9375 93.304688 210.875 93.222656 210.78125 93.203125 C 210.691406 93.183594 210.597656 93.230469 210.5625 93.316406 C 210.132812 94.277344 209.3125 95.707031 208.128906 95.976562 Z M 205.332031 95.242188 C 205.332031 95.242188 205.484375 95.667969 205.78125 95.707031 C 206.109375 95.769531 206.433594 95.847656 206.753906 95.949219 C 206.753906 95.949219 207.628906 95.277344 207.425781 93.507812 C 207.324219 92.882812 207.140625 92.277344 206.882812 91.699219 C 206.84375 91.617188 206.753906 91.570312 206.667969 91.585938 C 206.578125 91.605469 206.511719 91.683594 206.507812 91.773438 C 206.5 92.84375 206.308594 94.519531 205.332031 95.242188 Z M 200.925781 93.433594 C 200.925781 93.433594 200.667969 93.804688 200.375 93.761719 C 200.082031 93.722656 199.175781 93.675781 199.175781 93.675781 C 199.175781 93.675781 198.707031 92.867188 199.355469 91.214844 C 199.617188 90.636719 199.953125 90.097656 200.359375 89.609375 C 200.414062 89.539062 200.511719 89.519531 200.59375 89.558594 C 200.675781 89.597656 200.71875 89.6875 200.699219 89.777344 C 200.425781 90.8125 200.164062 92.480469 200.925781 93.433594 Z M 200.925781 93.433594 "/>
<path style=" stroke:none;fill-rule:nonzero;fill:rgb(49.019608%,80.000001%,91.764706%);fill-opacity:1;" d="M 170.503906 144.980469 L 167.492188 145.101562 C 167.492188 145.101562 166.835938 144.578125 165.949219 143.902344 C 164.273438 142.617188 161.757812 140.769531 161.242188 140.800781 C 160.453125 140.847656 159.074219 141.425781 162.496094 144.0625 L 162.46875 144.085938 C 162.351562 144.171875 161.824219 144.519531 160.476562 144.601562 C 158.921875 144.695312 153.683594 145.054688 152.835938 145.375 C 152.371094 145.546875 151.339844 146.9375 159.101562 146.664062 C 159.222656 146.65625 159.34375 146.703125 159.429688 146.792969 C 159.511719 146.886719 159.554688 147.007812 159.539062 147.132812 C 159.515625 147.277344 159.410156 147.40625 159.128906 147.421875 C 158.425781 147.46875 152.355469 147.570312 152.460938 148.667969 C 152.539062 149.46875 154.125 149.269531 159.460938 149.035156 C 159.460938 149.035156 160.304688 149.253906 159.628906 149.6875 C 159.394531 149.839844 153.382812 150.402344 153.089844 150.878906 C 152.796875 151.359375 152.019531 152.140625 161.039062 151.148438 C 161.039062 151.148438 161.203125 151.242188 160.414062 151.703125 C 159.578125 152.1875 157.113281 152.847656 156.480469 153.765625 C 155.851562 154.6875 157.683594 153.957031 162.316406 152.398438 L 168.816406 151.574219 C 173.109375 152.175781 189.1875 153.550781 193.183594 149.394531 C 196.921875 145.503906 198.9375 131.570312 198.9375 131.570312 L 189.785156 131.261719 L 185.953125 141.648438 C 185.699219 142.34375 185.082031 142.839844 184.355469 142.945312 L 169.96875 145.027344 "/>
<path style="fill:none;stroke-width:2;stroke-linecap:butt;stroke-linejoin:miter;stroke:rgb(4.313726%,14.509805%,18.431373%);stroke-opacity:1;stroke-miterlimit:10;" d="M 556.808036 493.002911 C 556.808036 493.002911 561.120536 509.17746 575.892857 504.71275 " transform="matrix(0.291667,0,0,0.292222,0,0)"/>
<path style=" stroke:none;fill-rule:nonzero;fill:rgb(21.568628%,67.058825%,83.92157%);fill-opacity:1;" d="M 188.195312 131.9375 L 191.695312 120.964844 C 192.375 118.773438 193.695312 116.839844 195.488281 115.414062 C 195.945312 115.046875 196.441406 114.730469 196.964844 114.472656 C 197.058594 114.429688 197.164062 114.4375 197.25 114.492188 C 197.335938 114.546875 197.386719 114.644531 197.382812 114.746094 L 196.828125 131.929688 L 195.683594 145.59375 C 195.613281 147.625 194.730469 149.546875 193.226562 150.914062 C 191.726562 152.285156 189.738281 152.988281 187.710938 152.871094 L 170.378906 152.097656 L 170.527344 144.972656 L 183.027344 141.726562 C 184.019531 141.46875 184.824219 140.746094 185.191406 139.789062 Z M 188.195312 131.9375 "/>
<path style=" stroke:none;fill-rule:nonzero;fill:rgb(3.921569%,48.627451%,65.098041%);fill-opacity:1;" d="M 197.242188 118.398438 C 197.085938 118.230469 196.871094 118.128906 196.640625 118.109375 C 196.324219 118.109375 195.566406 118.230469 194.261719 120.984375 C 193.722656 122.058594 193.300781 123.1875 192.996094 124.347656 C 191.777344 130.09375 191.207031 140.195312 188.878906 144.539062 C 187.171875 147.714844 182.730469 151.144531 170.367188 151.597656 L 170.367188 152.113281 L 187.691406 152.886719 C 189.71875 153.003906 191.710938 152.300781 193.210938 150.929688 C 194.714844 149.5625 195.601562 147.640625 195.671875 145.609375 L 196.582031 134.601562 C 196.21875 133.582031 195.878906 132.664062 195.605469 131.9375 L 196.808594 131.9375 Z M 197.242188 118.398438 "/>
<path style=" stroke:none;fill-rule:nonzero;fill:rgb(49.019608%,80.000001%,91.764706%);fill-opacity:1;" d="M 239.375 171.191406 C 239.246094 170.664062 239.171875 170.125 239.164062 169.582031 C 239.097656 165.035156 238.664062 147.664062 236.050781 139.777344 C 235.21875 137.257812 227.574219 124.421875 227.574219 124.421875 L 216.652344 126.738281 L 226.277344 142.746094 C 226.703125 143.457031 227.015625 144.230469 227.207031 145.035156 L 233.066406 170.074219 C 233.230469 170.769531 233.070312 171.5 232.628906 172.0625 C 231.398438 173.648438 228.953125 176.875 228.992188 177.464844 C 229.046875 178.257812 229.628906 179.632812 232.238281 176.191406 C 232.238281 176.191406 232.6875 176.652344 232.789062 178.207031 C 232.894531 179.765625 233.117188 185.75 233.625 185.851562 C 234.132812 185.957031 235.226562 187.382812 234.859375 179.234375 C 234.859375 179.234375 235.582031 178.832031 235.628906 179.527344 C 235.675781 180.222656 236.078125 186.921875 236.910156 186.199219 C 237.746094 185.480469 237.496094 184.527344 237.238281 179.1875 C 237.238281 179.1875 237.78125 178.753906 237.886719 179.007812 C 237.992188 179.265625 238.59375 185.589844 239.117188 185.554688 C 239.640625 185.519531 240.378906 186.617188 239.335938 177.589844 C 239.335938 177.589844 239.628906 177.433594 239.960938 178.339844 C 240.292969 179.246094 241.5625 183.226562 241.976562 182.140625 C 242.386719 181.050781 242.160156 180.933594 240.574219 176.3125 L 239.40625 171.179688 Z M 239.375 171.191406 "/>
<path style=" stroke:none;fill-rule:nonzero;fill:rgb(39.607844%,70.588237%,81.960785%);fill-opacity:1;" d="M 216.652344 126.734375 L 219.230469 126.1875 C 221.152344 128.636719 223.546875 130.414062 226.664062 134.984375 C 229.089844 138.546875 230.660156 142.167969 231.363281 143.699219 C 233.273438 147.898438 232.882812 150.039062 234.160156 160.390625 C 234.925781 166.609375 235.3125 169.71875 235.714844 171.34375 C 235.714844 171.34375 238.070312 182.195312 237.1875 185.875 C 237.144531 186.023438 237.039062 186.144531 236.894531 186.203125 C 236.058594 186.921875 235.65625 180.234375 235.609375 179.53125 C 235.566406 178.824219 234.839844 179.238281 234.839844 179.238281 C 235.207031 187.382812 234.097656 185.957031 233.609375 185.855469 C 233.117188 185.753906 232.894531 179.789062 232.789062 178.21875 C 232.683594 176.660156 232.238281 176.199219 232.238281 176.199219 C 229.613281 179.640625 229.027344 178.265625 228.992188 177.476562 C 228.949219 176.890625 231.394531 173.660156 232.628906 172.070312 C 233.070312 171.511719 233.226562 170.777344 233.0625 170.082031 L 227.207031 145.03125 C 227.019531 144.226562 226.707031 143.453125 226.28125 142.746094 Z M 216.652344 126.734375 "/>
<path style=" stroke:none;fill-rule:nonzero;fill:rgb(21.568628%,67.058825%,83.92157%);fill-opacity:1;" d="M 190.386719 182 C 190.835938 182.445312 191.441406 182.691406 192.074219 182.6875 L 226.285156 182.6875 C 227.003906 182.683594 227.683594 182.371094 228.148438 181.828125 C 228.617188 181.285156 228.824219 180.5625 228.714844 179.855469 L 216.984375 113.746094 L 212.117188 111.902344 C 211.417969 111.519531 211.117188 110.351562 211 109.6875 C 210.976562 109.558594 210.90625 109.445312 210.800781 109.371094 C 210.695312 109.296875 210.5625 109.269531 210.4375 109.292969 L 201.722656 110.851562 C 201.457031 110.902344 201.28125 111.152344 201.328125 111.417969 C 201.429688 111.972656 201.5 112.828125 201.003906 112.90625 L 197.375 114.289062 C 195.890625 114.648438 194.875 116.019531 194.953125 117.546875 L 194.996094 118.863281 C 195.136719 123.140625 196.113281 137.941406 195.097656 148.214844 C 193.597656 163.382812 189.882812 175.15625 190.089844 181.472656 C 190.089844 181.53125 190.101562 181.710938 190.386719 182 Z M 190.386719 182 "/>
<path style=" stroke:none;fill-rule:nonzero;fill:rgb(21.568628%,67.058825%,83.92157%);fill-opacity:1;" d="M 240.257812 169.464844 C 240.667969 169.171875 239.261719 152.808594 237.875 143.789062 C 237.386719 140.625 235.902344 135.789062 234.167969 133.101562 C 234.167969 133.101562 228.472656 123.269531 224.71875 118.933594 C 223.375 117.382812 220.886719 114.550781 216.984375 113.746094 L 214.761719 125.363281 L 225.664062 143.378906 C 225.78125 143.566406 232.058594 169.597656 232.238281 169.46875 Z M 240.257812 169.464844 "/>
<path style=" stroke:none;fill-rule:nonzero;fill:rgb(3.921569%,48.627451%,65.098041%);fill-opacity:1;" d="M 215.105469 124.746094 C 214.925781 124.886719 214.824219 125.105469 214.828125 125.332031 L 214.8125 125.445312 L 219.585938 133.335938 L 225.664062 143.378906 C 225.78125 143.566406 232.058594 169.597656 232.238281 169.46875 L 235.15625 169.46875 L 235.140625 169.390625 C 231.324219 152.265625 229.402344 143.675781 228.789062 142.152344 C 224.667969 132.003906 216.519531 123.960938 215.105469 124.746094 Z M 215.105469 124.746094 "/>
<path style="fill:none;stroke-width:6;stroke-linecap:round;stroke-linejoin:round;stroke:rgb(4.313726%,14.509805%,18.431373%);stroke-opacity:1;stroke-miterlimit:4;" d="M 584.035714 496.130882 L 584.035714 518.307391 " transform="matrix(0.291667,0,0,0.292222,0,0)"/>
<path style=" stroke:none;fill-rule:nonzero;fill:rgb(3.921569%,48.627451%,65.098041%);fill-opacity:1;" d="M 228.714844 179.855469 L 228.636719 179.402344 L 220.253906 132.226562 C 218.289062 128.132812 215.78125 124.496094 215.105469 124.746094 C 214.519531 124.964844 214.832031 127.695312 214.8125 128.015625 C 213.9375 142.730469 195.5 134.53125 195.316406 134.222656 C 195.566406 135.496094 196.175781 137.515625 197.835938 139.117188 C 201.816406 142.953125 208.433594 141.125 210.394531 140.578125 L 210.484375 140.554688 C 212.34375 140.011719 214.347656 140.417969 215.855469 141.632812 C 217.359375 142.851562 218.175781 144.730469 218.042969 146.667969 C 217.097656 159.230469 210.433594 167.953125 210.433594 167.953125 C 204.625 175.550781 195.300781 179.207031 190.078125 180.84375 C 190.0625 181.054688 190.0625 181.265625 190.078125 181.472656 C 190.203125 182.273438 191.320312 182.679688 192.027344 182.710938 C 195.15625 182.859375 208.796875 182.679688 208.796875 182.679688 L 226.273438 182.679688 C 226.988281 182.683594 227.671875 182.371094 228.140625 181.828125 C 228.613281 181.285156 228.820312 180.566406 228.714844 179.855469 Z M 201.003906 112.910156 C 201.902344 112.828125 202.789062 112.75 203.671875 112.652344 C 204.558594 112.554688 205.441406 112.453125 206.320312 112.320312 C 207.195312 112.191406 208.070312 112.050781 208.945312 111.890625 C 209.820312 111.726562 210.695312 111.527344 211.570312 111.355469 C 210.757812 111.761719 209.914062 112.089844 209.042969 112.332031 C 208.613281 112.472656 208.167969 112.554688 207.730469 112.667969 C 207.292969 112.777344 206.855469 112.835938 206.394531 112.898438 C 205.5 113.027344 204.597656 113.097656 203.695312 113.109375 C 202.792969 113.125 201.890625 113.0625 201.003906 112.910156 Z M 201.003906 112.910156 "/>
<path style=" stroke:none;fill-rule:nonzero;fill:rgb(49.019608%,80.000001%,91.764706%);fill-opacity:1;" d="M 263.007812 167.152344 C 263.34375 171.269531 261.726562 175.160156 260.445312 176.546875 C 259.535156 177.527344 259.433594 179.019531 259.449219 179.804688 C 259.464844 180.34375 259.417969 180.878906 259.304688 181.40625 C 259.015625 182.710938 258.292969 184.75 256.5625 184.773438 C 255.289062 184.789062 254.609375 184.332031 253.398438 184.09375 C 252.191406 183.855469 250.273438 182.847656 250.273438 182.847656 C 250.492188 180.550781 251.441406 174.722656 250.183594 173.558594 C 251.027344 173.222656 251.589844 172.609375 252.339844 171.957031 C 252.582031 171.746094 252.816406 171.527344 253.046875 171.300781 C 253.230469 171.105469 253.414062 170.910156 253.589844 170.714844 C 253.816406 170.460938 254.042969 170.199219 254.269531 169.921875 C 256.507812 167.140625 258.304688 163.597656 259.890625 161.679688 C 262.390625 158.660156 262.671875 163.023438 263.007812 167.152344 Z M 263.007812 167.152344 "/>
<path style=" stroke:none;fill-rule:nonzero;fill:rgb(3.137255%,65.098041%,87.843138%);fill-opacity:1;" d="M 165.105469 163.605469 C 165.105469 163.605469 205.753906 162.546875 209.3125 162.710938 C 212.871094 162.878906 250.570312 173.375 250.570312 173.375 C 250.570312 173.375 252.320312 179.085938 250.464844 182.933594 C 250.464844 182.933594 220.179688 179.945312 213.035156 178.84375 L 200.066406 177.128906 C 200.066406 177.128906 171.484375 187.144531 165.941406 186.042969 C 163.269531 185.511719 160.699219 184.566406 158.324219 183.238281 C 158.324219 183.238281 167.453125 169.539062 165.105469 163.605469 Z M 165.105469 163.605469 "/>
<path style=" stroke:none;fill-rule:nonzero;fill:rgb(10.196079%,58.823532%,76.862746%);fill-opacity:1;" d="M 165.9375 186.050781 C 163.269531 185.519531 160.699219 184.570312 158.320312 183.242188 C 158.320312 183.242188 167.453125 169.539062 165.105469 163.605469 L 166.527344 163.570312 C 166.890625 165.742188 167.773438 167.796875 169.097656 169.554688 C 172.886719 174.605469 179.011719 175.898438 180.472656 176.164062 C 187.886719 177.511719 190.972656 173.386719 199.648438 172.292969 C 201.085938 172.144531 202.53125 172.09375 203.976562 172.152344 C 210.328125 172.152344 216.648438 172.96875 222.792969 174.578125 C 228.367188 175.953125 237.183594 179.050781 251.28125 177.453125 C 251.398438 179.207031 251.28125 181.25 250.464844 182.933594 C 250.464844 182.933594 220.183594 179.945312 213.035156 178.84375 L 201.417969 179.0625 C 201.417969 179.0625 171.5 187.152344 165.9375 186.050781 Z M 165.9375 186.050781 "/>
<path style=" stroke:none;fill-rule:nonzero;fill:rgb(100%,100%,100%);fill-opacity:1;" d="M 166.542969 163.570312 C 166.90625 165.457031 167.652344 167.246094 168.738281 168.832031 C 169.835938 170.386719 171.210938 171.726562 172.796875 172.78125 C 173.578125 173.3125 174.402344 173.785156 175.257812 174.1875 C 176.109375 174.59375 176.984375 174.941406 177.882812 175.222656 C 179.675781 175.816406 181.554688 176.113281 183.441406 176.097656 L 184.140625 176.074219 C 184.375 176.074219 184.609375 176.023438 184.839844 176 C 185.304688 175.949219 185.765625 175.871094 186.222656 175.769531 C 187.144531 175.5625 188.050781 175.296875 188.9375 174.976562 C 190.722656 174.34375 192.503906 173.601562 194.359375 173.035156 C 196.21875 172.457031 198.125 172.054688 200.058594 171.828125 C 201.027344 171.734375 202 171.695312 202.972656 171.71875 L 205.851562 171.746094 C 209.707031 171.847656 213.550781 172.253906 217.34375 172.957031 C 219.234375 173.3125 221.117188 173.753906 222.96875 174.238281 C 224.824219 174.71875 226.671875 175.25 228.511719 175.714844 C 230.351562 176.179688 232.226562 176.59375 234.109375 176.902344 C 235.992188 177.210938 237.902344 177.425781 239.792969 177.578125 C 243.613281 177.847656 247.445312 177.808594 251.257812 177.460938 C 247.453125 177.980469 243.605469 178.160156 239.765625 178.007812 C 237.847656 177.898438 235.929688 177.734375 234.023438 177.449219 C 232.121094 177.164062 230.234375 176.804688 228.355469 176.375 C 226.476562 175.945312 224.621094 175.441406 222.773438 174.984375 C 220.921875 174.53125 219.054688 174.109375 217.179688 173.773438 C 213.425781 173.089844 209.628906 172.699219 205.816406 172.605469 L 202.949219 172.570312 C 202.007812 172.542969 201.066406 172.574219 200.128906 172.664062 C 198.25 172.878906 196.394531 173.261719 194.585938 173.804688 C 192.769531 174.335938 191 175.054688 189.167969 175.679688 C 188.25 176.003906 187.308594 176.265625 186.355469 176.464844 C 185.871094 176.558594 185.386719 176.632812 184.894531 176.675781 C 184.652344 176.695312 184.40625 176.730469 184.160156 176.738281 L 183.425781 176.738281 C 181.472656 176.714844 179.535156 176.375 177.691406 175.726562 C 176.773438 175.414062 175.875 175.042969 175.007812 174.605469 C 174.136719 174.175781 173.304688 173.675781 172.515625 173.105469 C 170.933594 171.976562 169.578125 170.5625 168.511719 168.9375 C 167.984375 168.125 167.550781 167.257812 167.214844 166.351562 C 166.902344 165.449219 166.675781 164.515625 166.542969 163.570312 Z M 166.542969 163.570312 "/>
<path style=" stroke:none;fill-rule:nonzero;fill:rgb(3.137255%,65.098041%,87.843138%);fill-opacity:1;" d="M 146.707031 160.671875 C 135.625 160.042969 131.898438 160.886719 127.132812 163.070312 C 124.675781 164.15625 122.417969 165.648438 120.457031 167.488281 C 122.238281 167.503906 122.652344 167.367188 123.292969 167.519531 C 124.253906 167.75 122.183594 170.90625 118.335938 175.820312 C 118.84375 175.921875 119.335938 176.101562 119.792969 176.351562 C 120.273438 176.65625 120.6875 177.054688 121.019531 177.519531 C 122.320312 179.320312 124.1875 180.632812 126.316406 181.25 C 127.84375 181.699219 129.394531 182.066406 130.957031 182.347656 C 134.898438 182.992188 138.886719 183.285156 142.878906 183.222656 C 146.636719 183.132812 149.003906 182.714844 153.1875 183.40625 C 155.582031 183.800781 155.964844 184.125 156.6875 183.914062 C 158.957031 183.265625 160.925781 178.511719 160.027344 161.179688 C 160.007812 160.769531 159.785156 160.394531 159.433594 160.179688 C 159.082031 159.96875 158.648438 159.945312 158.277344 160.121094 C 154.792969 161.109375 150.355469 160.878906 146.707031 160.671875 Z M 146.707031 160.671875 "/>
<path style=" stroke:none;fill-rule:nonzero;fill:rgb(10.196079%,58.823532%,76.862746%);fill-opacity:1;" d="M 160.390625 171.6875 L 160.007812 179.390625 C 159.863281 180.753906 159.597656 182.101562 159.207031 183.414062 C 156.652344 183.996094 146.394531 184.386719 145.695312 184.25 L 130.867188 181.351562 C 129.167969 181.078125 127.636719 180.164062 126.582031 178.800781 C 125.074219 176.839844 123.898438 173.777344 127.066406 170.503906 L 128.6875 169.335938 C 130.988281 167.675781 133.84375 166.984375 136.644531 167.402344 L 148.261719 168.863281 C 149.203125 168.90625 149.515625 168.359375 150.132812 169.066406 C 150.289062 169.28125 150.496094 169.449219 150.734375 169.554688 C 153.898438 170.230469 157.148438 170.394531 160.359375 170.035156 C 160.386719 170.609375 160.390625 171.15625 160.390625 171.6875 Z M 160.390625 171.6875 "/>
<path style=" stroke:none;fill-rule:nonzero;fill:rgb(3.137255%,65.098041%,87.843138%);fill-opacity:1;" d="M 148.371094 160.761719 L 146.707031 160.671875 C 145.09375 160.582031 143.648438 160.523438 142.332031 160.496094 C 142.347656 161.957031 142.746094 168.417969 148.164062 171.015625 C 149.222656 171.207031 150.296875 171.304688 151.371094 171.304688 C 153.121094 171.304688 149.332031 163.707031 149.332031 163.707031 C 149.332031 163.707031 148.949219 162.339844 148.371094 160.761719 Z M 148.371094 160.761719 "/>
<path style=" stroke:none;fill-rule:nonzero;fill:rgb(49.019608%,80.000001%,91.764706%);fill-opacity:1;" d="M 170.625 164.398438 C 170.625 170.917969 168.832031 177.546875 155.351562 174.160156 C 148.519531 172.445312 145.25 170.917969 145.25 164.398438 C 145.25 157.878906 150.933594 152.59375 157.9375 152.59375 C 164.941406 152.59375 170.625 157.878906 170.625 164.398438 Z M 170.625 164.398438 "/>
<path style=" stroke:none;fill-rule:nonzero;fill:rgb(39.607844%,70.588237%,81.960785%);fill-opacity:1;" d="M 167.53125 156.691406 C 167.546875 156.910156 167.554688 157.128906 167.554688 157.351562 C 167.554688 163.871094 165.761719 170.503906 152.28125 167.117188 C 149.234375 166.351562 146.898438 165.621094 145.242188 164.488281 C 145.265625 170.941406 148.535156 172.464844 155.34375 174.175781 C 168.824219 177.5625 170.617188 170.933594 170.617188 164.414062 C 170.609375 161.539062 169.503906 158.777344 167.53125 156.691406 Z M 167.53125 156.691406 "/>
<path style=" stroke:none;fill-rule:nonzero;fill:rgb(3.137255%,65.098041%,87.843138%);fill-opacity:1;" d="M 142.332031 160.496094 C 143.351562 159.835938 144.675781 159.882812 145.644531 160.617188 L 144.746094 161.367188 Z M 142.332031 160.496094 "/>
<path style=" stroke:none;fill-rule:nonzero;fill:rgb(49.019608%,80.000001%,91.764706%);fill-opacity:1;" d="M 180.289062 181.0625 C 179.753906 181 179.210938 181 178.671875 181.0625 C 174.164062 181.617188 156.945312 183.550781 148.769531 182.035156 C 146.164062 181.550781 132.4375 175.710938 132.4375 175.710938 L 133.019531 167.464844 L 150.367188 171.921875 C 151.128906 172.25 151.9375 172.453125 152.761719 172.53125 L 178.304688 174.945312 C 179.015625 175.015625 179.71875 174.753906 180.214844 174.242188 C 181.617188 172.800781 184.46875 169.9375 185.0625 169.894531 C 185.851562 169.839844 187.289062 170.230469 184.242188 173.289062 C 184.242188 173.289062 184.757812 173.671875 186.3125 173.5625 C 187.867188 173.453125 193.824219 172.859375 193.992188 173.335938 C 194.15625 173.8125 195.71875 174.714844 187.613281 175.460938 C 187.613281 175.460938 187.320312 176.234375 188.015625 176.183594 C 188.714844 176.132812 195.382812 175.621094 194.789062 176.546875 C 194.195312 177.46875 193.214844 177.363281 187.910156 177.824219 C 187.910156 177.824219 187.554688 178.425781 187.824219 178.496094 C 188.09375 178.566406 194.425781 178.296875 194.464844 178.824219 C 194.5 179.347656 195.6875 179.929688 186.613281 180.125 C 186.613281 180.125 186.507812 180.441406 187.445312 180.640625 C 188.382812 180.839844 192.496094 181.570312 191.472656 182.128906 C 190.453125 182.6875 190.308594 182.472656 185.523438 181.542969 L 180.273438 181.070312 Z M 180.289062 181.0625 "/>
<path style=" stroke:none;fill-rule:nonzero;fill:rgb(3.137255%,65.098041%,87.843138%);fill-opacity:1;" d="M 144.203125 180.109375 C 144.117188 180.433594 143.90625 180.703125 143.617188 180.867188 C 143.328125 181.035156 142.988281 181.078125 142.667969 180.988281 L 128.378906 176.992188 L 128.332031 176.980469 C 124.449219 175.679688 123.886719 170.402344 127.398438 168.289062 L 128.605469 167.558594 C 130.816406 166.226562 133.457031 165.804688 135.972656 166.390625 L 146.882812 169.488281 C 147.109375 169.542969 146.882812 170.027344 146.820312 170.253906 Z M 144.203125 180.109375 "/>
<path style=" stroke:none;fill-rule:nonzero;fill:rgb(3.137255%,65.098041%,87.843138%);fill-opacity:1;" d="M 145.636719 160.617188 C 145.636719 160.617188 146.996094 163.777344 147.074219 166.144531 C 147.15625 168.507812 146.882812 169.488281 146.882812 169.488281 L 144.375 168.785156 Z M 145.636719 160.617188 "/>
<path style=" stroke:none;fill-rule:nonzero;fill:rgb(3.137255%,65.098041%,87.843138%);fill-opacity:1;" d="M 145.636719 160.617188 C 145.636719 160.617188 146.246094 157.863281 146.980469 158.132812 C 147.710938 158.402344 147.855469 158.582031 147.855469 160.28125 C 147.855469 161.980469 147.191406 163.917969 148.117188 165.894531 C 149.042969 167.871094 147.207031 170.917969 146.628906 170.96875 C 146.050781 171.015625 146.15625 163.835938 146.15625 163.835938 Z M 145.636719 160.617188 "/>
<path style=" stroke:none;fill-rule:nonzero;fill:rgb(78.823531%,92.941177%,98.431373%);fill-opacity:1;" d="M 117.648438 183.242188 L 91.488281 183.242188 C 90.203125 183.242188 89.15625 182.195312 89.15625 180.90625 L 89.15625 176.578125 C 89.15625 170.824219 108.40625 174.824219 108.40625 174.824219 C 108.40625 174.824219 119.992188 174.644531 119.992188 176.578125 L 119.992188 180.90625 C 119.992188 181.527344 119.746094 182.125 119.304688 182.5625 C 118.863281 183.003906 118.265625 183.246094 117.648438 183.242188 Z M 117.648438 183.242188 "/>
<path style=" stroke:none;fill-rule:nonzero;fill:rgb(50.196081%,80.000001%,90.980393%);fill-opacity:1;" d="M 117.648438 179.601562 L 91.488281 179.601562 C 90.203125 179.601562 89.15625 178.554688 89.15625 177.265625 L 89.15625 180.90625 C 89.15625 182.195312 90.203125 183.242188 91.488281 183.242188 L 117.648438 183.242188 C 118.933594 183.242188 119.980469 182.195312 119.980469 180.90625 L 119.980469 177.265625 C 119.980469 178.554688 118.933594 179.601562 117.648438 179.601562 Z M 117.648438 179.601562 "/>
<path style=" stroke:none;fill-rule:nonzero;fill:rgb(78.823531%,92.941177%,98.431373%);fill-opacity:1;" d="M 71.144531 183.242188 L 284.8125 183.242188 C 286.421875 183.242188 287.730469 184.550781 287.730469 186.164062 L 287.730469 191.140625 C 287.730469 192.753906 286.421875 194.0625 284.8125 194.0625 L 71.144531 194.0625 C 69.53125 194.0625 68.226562 192.753906 68.226562 191.140625 L 68.226562 186.164062 C 68.226562 184.550781 69.53125 183.242188 71.144531 183.242188 Z M 71.144531 183.242188 "/>
<path style="fill:none;stroke-width:4;stroke-linecap:butt;stroke-linejoin:round;stroke:rgb(4.313726%,14.509805%,18.431373%);stroke-opacity:1;stroke-miterlimit:4;" d="M 548.90625 498.643952 L 548.116071 475.999584 C 548.116071 465.078422 539.263393 456.229206 528.334821 456.215839 L 502.848214 456.215839 C 491.919643 456.215839 483.066964 447.366623 483.066964 436.445461 C 483.066964 425.510932 491.919643 416.661716 502.848214 416.661716 L 595.151786 416.661716 C 606.066964 416.648348 614.919643 407.799133 614.933036 396.877971 L 614.933036 345.881357 C 614.933036 334.960195 606.080357 326.097612 595.151786 326.097612 L 586.754464 326.097612 " transform="matrix(0.291667,0,0,0.292222,0,0)"/>
<path style=" stroke:none;fill-rule:nonzero;fill:rgb(89.019608%,93.725491%,95.294118%);fill-opacity:1;" d="M 144.65625 108.558594 L 153.078125 108.558594 L 153.078125 118.296875 L 144.65625 118.296875 Z M 144.65625 108.558594 "/>
<path style=" stroke:none;fill-rule:nonzero;fill:rgb(89.019608%,93.725491%,95.294118%);fill-opacity:1;" d="M 131.433594 73.355469 L 166.304688 73.355469 L 166.304688 104.582031 L 131.433594 104.582031 Z M 131.433594 73.355469 "/>
<path style=" stroke:none;fill-rule:nonzero;fill:rgb(20%,51.372552%,62.7451%);fill-opacity:1;" d="M 126.40625 71.199219 L 126.40625 106.738281 C 126.40625 108.027344 127.449219 109.074219 128.738281 109.074219 L 168.988281 109.074219 C 170.277344 109.074219 171.320312 108.027344 171.320312 106.738281 L 171.320312 71.199219 C 171.320312 69.910156 170.277344 68.863281 168.988281 68.863281 L 128.738281 68.863281 C 127.449219 68.863281 126.40625 69.910156 126.40625 71.199219 Z M 163.964844 104.582031 L 133.769531 104.582031 C 132.480469 104.582031 131.4375 103.535156 131.4375 102.242188 L 131.4375 75.699219 C 131.4375 74.410156 132.480469 73.363281 133.769531 73.363281 L 163.964844 73.363281 C 165.253906 73.363281 166.300781 74.410156 166.300781 75.699219 L 166.300781 102.238281 C 166.300781 102.859375 166.054688 103.453125 165.617188 103.894531 C 165.179688 104.332031 164.585938 104.582031 163.964844 104.582031 Z M 163.964844 104.582031 "/>
<path style=" stroke:none;fill-rule:nonzero;fill:rgb(50.196081%,80.000001%,90.980393%);fill-opacity:1;" d="M 139.382812 76.59375 C 141.425781 79.5625 144.992188 81.371094 148.835938 81.371094 C 152.675781 81.371094 156.335938 79.519531 158.351562 76.496094 L 163.601562 93.859375 C 160.46875 98.5625 154.851562 101.441406 148.804688 101.441406 C 142.835938 101.441406 137.273438 98.628906 134.113281 94.015625 Z M 139.382812 76.59375 "/>
<path style=" stroke:none;fill-rule:nonzero;fill:rgb(22.352941%,46.666667%,55.686277%);fill-opacity:1;" d="M 146.8125 89.804688 C 146.9375 89.566406 147.171875 89.578125 147.582031 89.398438 C 148.085938 89.179688 148.933594 88.644531 148.996094 87.992188 C 149.027344 87.617188 148.765625 87.5625 148.71875 87 C 148.667969 86.4375 148.890625 86.214844 148.9375 85.867188 C 149.066406 84.953125 147.988281 83.714844 146.695312 83.328125 C 144.96875 82.8125 143.589844 84.039062 143.484375 84.128906 C 143.308594 84.285156 142.441406 85.089844 142.433594 86.207031 C 142.433594 86.871094 142.722656 87.488281 143.175781 88.398438 C 143.335938 88.671875 143.480469 88.953125 143.605469 89.246094 C 143.824219 89.871094 143.886719 90.542969 143.789062 91.203125 C 143.628906 92.59375 144.199219 95.046875 145.246094 96.617188 C 145.660156 97.226562 147.433594 99.621094 149.976562 99.382812 C 151.4375 99.246094 153.007812 98.273438 153.476562 96.933594 C 153.828125 95.9375 153.523438 94.851562 153.792969 94.789062 C 154.015625 94.734375 154.355469 95.417969 154.464844 95.640625 C 155.121094 96.957031 154.824219 97.761719 155.402344 98.132812 C 155.746094 98.328125 156.171875 98.328125 156.515625 98.132812 C 156.847656 97.933594 157.097656 97.503906 156.976562 97.300781 C 156.894531 97.167969 156.730469 97.25 156.535156 97.144531 C 156.066406 96.882812 156.421875 96.0625 155.953125 95.082031 C 155.714844 94.582031 155.40625 94.34375 155.503906 94.203125 C 155.636719 94.015625 156.257812 94.453125 156.785156 94.179688 C 156.851562 94.144531 157.03125 94.039062 157.289062 93.5 C 157.757812 92.523438 157.839844 91.496094 157.703125 91.453125 C 157.628906 91.433594 157.574219 91.71875 157.277344 91.867188 C 157.070312 91.949219 156.84375 91.960938 156.632812 91.902344 C 156.136719 91.789062 154.59375 91.457031 153.855469 91.375 C 153.117188 91.292969 152.238281 91.199219 151.519531 91.726562 C 150.957031 92.144531 150.960938 92.632812 150.355469 92.839844 C 149.746094 93.042969 149.074219 92.816406 149.03125 92.5625 C 148.996094 92.371094 149.367188 92.242188 149.808594 91.863281 C 150.324219 91.390625 150.71875 90.796875 150.953125 90.132812 C 151.207031 89.519531 151.695312 88.339844 151.179688 87.34375 C 150.960938 86.917969 150.503906 86.421875 150.136719 86.507812 C 149.859375 86.570312 149.730469 86.949219 149.574219 87.382812 C 149.40625 87.894531 149.308594 88.421875 149.285156 88.957031 C 149.285156 89.367188 149.308594 89.542969 149.171875 89.699219 C 149.078125 89.804688 148.96875 89.847656 148.328125 89.988281 C 147.613281 90.132812 147.464844 90.140625 147.308594 90.28125 C 147.074219 90.503906 147.109375 90.765625 147.015625 90.769531 C 146.898438 90.777344 146.613281 90.175781 146.8125 89.804688 Z M 146.8125 89.804688 "/>
<path style=" stroke:none;fill-rule:nonzero;fill:rgb(25.098041%,79.215688%,99.607843%);fill-opacity:1;" d="M 163.847656 150.335938 C 165.09375 152.015625 162.15625 154.136719 160.054688 154.136719 C 157.953125 154.136719 155.203125 152.144531 156.261719 150.335938 C 157.320312 148.527344 157.957031 146.539062 160.054688 146.539062 C 162.152344 146.539062 162.265625 148.210938 163.847656 150.335938 Z M 163.847656 150.335938 "/>
<path style=" stroke:none;fill-rule:nonzero;fill:rgb(4.313726%,14.509805%,18.431373%);fill-opacity:1;" d="M 164.523438 150.695312 C 164.613281 150.84375 164.589844 151.035156 164.46875 151.15625 C 164.34375 151.277344 164.15625 151.300781 164.007812 151.214844 C 162.941406 150.570312 161.410156 149.824219 160.085938 149.824219 C 158.691406 149.824219 157.230469 150.523438 156.199219 151.152344 C 156.050781 151.242188 155.863281 151.222656 155.738281 151.101562 C 155.617188 150.980469 155.589844 150.789062 155.675781 150.640625 L 158.703125 145.4375 C 158.988281 144.945312 159.515625 144.644531 160.085938 144.644531 C 160.652344 144.644531 161.179688 144.945312 161.464844 145.4375 Z M 164.523438 150.695312 "/>
</g>
</svg>
