<?xml version="1.0" encoding="UTF-8"?>
<svg xmlns="http://www.w3.org/2000/svg" xmlns:xlink="http://www.w3.org/1999/xlink" width="360px" height="360px" viewBox="0 0 360 360" version="1.1">
<defs>
<filter id="alpha" filterUnits="objectBoundingBox" x="0%" y="0%" width="100%" height="100%">
  <feColorMatrix type="matrix" in="SourceGraphic" values="0 0 0 0 1 0 0 0 0 1 0 0 0 0 1 0 0 0 1 0"/>
</filter>
<mask id="mask0">
  <g filter="url(#alpha)">
<rect x="0" y="0" width="360" height="360" style="fill:rgb(0%,0%,0%);fill-opacity:0.101961;stroke:none;"/>
  </g>
</mask>
<clipPath id="clip1">
  <rect x="0" y="0" width="360" height="360"/>
</clipPath>
<g id="surface5" clip-path="url(#clip1)">
<path style=" stroke:none;fill-rule:nonzero;fill:rgb(0%,0%,0%);fill-opacity:1;" d="M 250.546875 234.769531 C 250.546875 228.921875 218.117188 224.179688 178.105469 224.179688 C 138.097656 224.179688 105.664062 228.921875 105.664062 234.769531 C 105.664062 240.621094 138.097656 245.363281 178.105469 245.363281 C 218.117188 245.363281 250.546875 240.621094 250.546875 234.769531 Z M 250.546875 234.769531 "/>
</g>
<mask id="mask1">
  <g filter="url(#alpha)">
<rect x="0" y="0" width="360" height="360" style="fill:rgb(0%,0%,0%);fill-opacity:0.698039;stroke:none;"/>
  </g>
</mask>
<clipPath id="clip2">
  <rect x="0" y="0" width="360" height="360"/>
</clipPath>
<g id="surface8" clip-path="url(#clip2)">
<path style=" stroke:none;fill-rule:nonzero;fill:rgb(56.862748%,63.921571%,66.666669%);fill-opacity:1;" d="M 145.933594 143.8125 C 145.933594 143.8125 146.683594 142.253906 149.1875 141.363281 C 151.6875 140.476562 154.859375 142.980469 155.074219 144.699219 C 155.289062 146.421875 156.136719 149.292969 154.929688 151.378906 C 154.929688 151.378906 148.941406 148.089844 145.933594 143.8125 Z M 145.933594 143.8125 "/>
</g>
<mask id="mask2">
  <g filter="url(#alpha)">
<rect x="0" y="0" width="360" height="360" style="fill:rgb(0%,0%,0%);fill-opacity:0.6;stroke:none;"/>
  </g>
</mask>
<clipPath id="clip3">
  <rect x="0" y="0" width="360" height="360"/>
</clipPath>
<g id="surface11" clip-path="url(#clip3)">
<path style=" stroke:none;fill-rule:nonzero;fill:rgb(100%,100%,100%);fill-opacity:1;" d="M 122.589844 74.921875 L 149.878906 74.921875 L 149.878906 84.933594 L 122.589844 84.933594 Z M 122.589844 74.921875 "/>
</g>
<mask id="mask3">
  <g filter="url(#alpha)">
<rect x="0" y="0" width="360" height="360" style="fill:rgb(0%,0%,0%);fill-opacity:0.6;stroke:none;"/>
  </g>
</mask>
<clipPath id="clip4">
  <rect x="0" y="0" width="360" height="360"/>
</clipPath>
<g id="surface14" clip-path="url(#clip4)">
<path style=" stroke:none;fill-rule:nonzero;fill:rgb(7.450981%,40.000001%,51.764709%);fill-opacity:1;" d="M 122.625 91.972656 L 130.984375 99.738281 L 130.984375 108.714844 L 141.648438 108.714844 L 141.648438 99.738281 L 141.554688 99.738281 L 149.914062 91.972656 L 149.914062 84.933594 L 122.625 84.933594 Z M 122.625 91.972656 "/>
</g>
<mask id="mask4">
  <g filter="url(#alpha)">
<rect x="0" y="0" width="360" height="360" style="fill:rgb(0%,0%,0%);fill-opacity:0.6;stroke:none;"/>
  </g>
</mask>
<clipPath id="clip5">
  <rect x="0" y="0" width="360" height="360"/>
</clipPath>
<g id="surface17" clip-path="url(#clip5)">
<path style=" stroke:none;fill-rule:nonzero;fill:rgb(10.588235%,32.549021%,40.784314%);fill-opacity:1;" d="M 139.261719 89.316406 C 139.261719 88.320312 138.449219 87.515625 137.453125 87.515625 C 136.453125 87.515625 135.644531 88.320312 135.644531 89.316406 C 135.644531 90.308594 136.453125 91.113281 137.453125 91.113281 C 138.449219 91.113281 139.261719 90.308594 139.261719 89.316406 Z M 139.261719 89.316406 "/>
</g>
<mask id="mask5">
  <g filter="url(#alpha)">
<rect x="0" y="0" width="360" height="360" style="fill:rgb(0%,0%,0%);fill-opacity:0.6;stroke:none;"/>
  </g>
</mask>
<clipPath id="clip6">
  <rect x="0" y="0" width="360" height="360"/>
</clipPath>
<g id="surface20" clip-path="url(#clip6)">
<path style=" stroke:none;fill-rule:nonzero;fill:rgb(10.588235%,32.549021%,40.784314%);fill-opacity:1;" d="M 139.171875 93.851562 C 139.171875 93.332031 138.789062 92.914062 138.3125 92.914062 C 137.835938 92.914062 137.453125 93.332031 137.453125 93.851562 C 137.453125 94.371094 137.835938 94.789062 138.3125 94.789062 C 138.789062 94.789062 139.171875 94.371094 139.171875 93.851562 Z M 139.171875 93.851562 "/>
</g>
<mask id="mask6">
  <g filter="url(#alpha)">
<rect x="0" y="0" width="360" height="360" style="fill:rgb(0%,0%,0%);fill-opacity:0.6;stroke:none;"/>
  </g>
</mask>
<clipPath id="clip7">
  <rect x="0" y="0" width="360" height="360"/>
</clipPath>
<g id="surface23" clip-path="url(#clip7)">
<path style=" stroke:none;fill-rule:nonzero;fill:rgb(10.588235%,32.549021%,40.784314%);fill-opacity:1;" d="M 145.933594 90.566406 C 145.933594 89.269531 144.96875 88.21875 143.773438 88.21875 C 142.578125 88.21875 141.613281 89.269531 141.613281 90.566406 C 141.613281 91.863281 142.578125 92.914062 143.773438 92.914062 C 144.96875 92.914062 145.933594 91.863281 145.933594 90.566406 Z M 145.933594 90.566406 "/>
</g>
<mask id="mask7">
  <g filter="url(#alpha)">
<rect x="0" y="0" width="360" height="360" style="fill:rgb(0%,0%,0%);fill-opacity:0.6;stroke:none;"/>
  </g>
</mask>
<clipPath id="clip8">
  <rect x="0" y="0" width="360" height="360"/>
</clipPath>
<g id="surface26" clip-path="url(#clip8)">
<path style=" stroke:none;fill-rule:nonzero;fill:rgb(10.588235%,32.549021%,40.784314%);fill-opacity:1;" d="M 137.453125 98.390625 C 137.453125 97.957031 137.1875 97.605469 136.859375 97.605469 C 136.535156 97.605469 136.269531 97.957031 136.269531 98.390625 C 136.269531 98.820312 136.535156 99.171875 136.859375 99.171875 C 137.1875 99.171875 137.453125 98.820312 137.453125 98.390625 Z M 137.453125 98.390625 "/>
</g>
<mask id="mask8">
  <g filter="url(#alpha)">
<rect x="0" y="0" width="360" height="360" style="fill:rgb(0%,0%,0%);fill-opacity:0.129412;stroke:none;"/>
  </g>
</mask>
<clipPath id="clip9">
  <rect x="0" y="0" width="360" height="360"/>
</clipPath>
<g id="surface29" clip-path="url(#clip9)">
<path style=" stroke:none;fill-rule:nonzero;fill:rgb(0%,0%,0%);fill-opacity:1;" d="M 130.582031 299.085938 C 130.582031 294.910156 109.65625 291.527344 83.847656 291.527344 C 58.035156 291.527344 37.109375 294.910156 37.109375 299.085938 C 37.109375 303.261719 58.035156 306.644531 83.847656 306.644531 C 109.65625 306.644531 130.582031 303.261719 130.582031 299.085938 Z M 130.582031 299.085938 "/>
</g>
<mask id="mask9">
  <g filter="url(#alpha)">
<rect x="0" y="0" width="360" height="360" style="fill:rgb(0%,0%,0%);fill-opacity:0.129412;stroke:none;"/>
  </g>
</mask>
<clipPath id="clip10">
  <rect x="0" y="0" width="360" height="360"/>
</clipPath>
<g id="surface32" clip-path="url(#clip10)">
<path style=" stroke:none;fill-rule:nonzero;fill:rgb(0%,0%,0%);fill-opacity:1;" d="M 322.890625 295.742188 C 322.890625 291.570312 301.964844 288.183594 276.152344 288.183594 C 250.34375 288.183594 229.417969 291.570312 229.417969 295.742188 C 229.417969 299.917969 250.34375 303.304688 276.152344 303.304688 C 301.964844 303.304688 322.890625 299.917969 322.890625 295.742188 Z M 322.890625 295.742188 "/>
</g>
</defs>
<g id="surface1">
<path style=" stroke:none;fill-rule:nonzero;fill:rgb(80.392158%,92.156863%,96.470588%);fill-opacity:1;" d="M 42.03125 89.773438 C 12.585938 114.257812 239.160156 -91.304688 330.023438 143.105469 C 334.378906 154.335938 334.046875 167.582031 328.242188 178.257812 C 296.460938 236.695312 358.082031 283.796875 333.886719 319.5 C 315.289062 346.941406 125.976562 370.460938 63.210938 337.660156 C 0.449219 304.863281 43.597656 248.320312 34.96875 198.871094 C 26.339844 149.425781 9.171875 132.226562 42.03125 89.773438 Z M 42.03125 89.773438 "/>
<use xlink:href="#surface5" mask="url(#mask0)"/>
<path style=" stroke:none;fill-rule:nonzero;fill:rgb(70.19608%,70.19608%,70.19608%);fill-opacity:1;" d="M 134.425781 108.714844 L 138.28125 108.714844 L 138.28125 224.179688 L 134.425781 224.179688 Z M 134.425781 108.714844 "/>
<path style=" stroke:none;fill-rule:nonzero;fill:rgb(70.19608%,70.19608%,70.19608%);fill-opacity:1;" d="M 145.390625 224.179688 L 149.34375 224.179688 L 149.34375 233.054688 L 145.390625 233.054688 Z M 145.390625 224.179688 "/>
<path style=" stroke:none;fill-rule:nonzero;fill:rgb(70.19608%,70.19608%,70.19608%);fill-opacity:1;" d="M 267.015625 176.929688 L 267.015625 184.4375 L 113.535156 184.4375 L 113.535156 136.878906 L 121.042969 136.878906 L 121.042969 176.929688 Z M 267.015625 176.929688 "/>
<path style=" stroke:none;fill-rule:nonzero;fill:rgb(70.19608%,70.19608%,70.19608%);fill-opacity:1;" d="M 186.871094 184.4375 L 193.675781 184.4375 L 193.675781 191.949219 L 186.871094 191.949219 Z M 186.871094 184.4375 "/>
<path style=" stroke:none;fill-rule:nonzero;fill:rgb(70.19608%,70.19608%,70.19608%);fill-opacity:1;" d="M 229.023438 191.949219 L 229.023438 195.351562 L 151.527344 195.351562 L 151.527344 191.949219 Z M 229.023438 191.949219 "/>
<path style=" stroke:none;fill-rule:nonzero;fill:rgb(70.19608%,70.19608%,70.19608%);fill-opacity:1;" d="M 154.929688 230.695312 L 151.527344 230.695312 L 151.527344 191.949219 L 154.929688 191.949219 Z M 154.929688 230.695312 "/>
<path style="fill-rule:nonzero;fill:rgb(0%,0%,0%);fill-opacity:1;stroke-width:1.408;stroke-linecap:butt;stroke-linejoin:miter;stroke:rgb(0%,0%,0%);stroke-opacity:1;stroke-miterlimit:10;" d="M 465.972656 699.164062 C 465.972656 695.695312 463.160156 692.871094 459.691406 692.871094 C 456.210938 692.871094 453.398438 695.695312 453.398438 699.164062 C 453.398438 702.632812 456.210938 705.457031 459.691406 705.457031 C 463.160156 705.457031 465.972656 702.632812 465.972656 699.164062 Z M 465.972656 699.164062 " transform="matrix(0.333333,0,0,0.333333,0,0)"/>
<path style="fill-rule:nonzero;fill:rgb(0%,0%,0%);fill-opacity:1;stroke-width:1.408;stroke-linecap:butt;stroke-linejoin:miter;stroke:rgb(0%,0%,0%);stroke-opacity:1;stroke-miterlimit:10;" d="M 474.914062 699.164062 C 474.914062 690.75 468.09375 683.929688 459.691406 683.929688 C 451.277344 683.929688 444.457031 690.75 444.457031 699.164062 C 444.457031 707.578125 451.277344 714.398438 459.691406 714.398438 C 468.09375 714.398438 474.914062 707.578125 474.914062 699.164062 Z M 474.914062 699.164062 " transform="matrix(0.333333,0,0,0.333333,0,0)"/>
<path style=" stroke:none;fill-rule:nonzero;fill:rgb(5.882353%,71.764708%,96.470588%);fill-opacity:1;" d="M 160.519531 151.664062 C 160.519531 151.664062 174.84375 140.324219 180.632812 142.746094 C 186.421875 145.167969 197.375 145.480469 200.660156 145.011719 L 203.945312 144.542969 L 205.351562 166.289062 L 160.519531 166.289062 L 155.5625 161.597656 Z M 160.519531 151.664062 "/>
<path style=" stroke:none;fill-rule:nonzero;fill:rgb(3.137255%,65.098041%,87.843138%);fill-opacity:1;" d="M 160.519531 155.941406 C 160.519531 155.941406 174.84375 144.605469 180.632812 147.027344 C 186.421875 149.449219 197.375 149.761719 200.660156 149.292969 L 203.945312 148.824219 L 205.074219 166.289062 L 205.351562 166.289062 L 203.945312 144.542969 L 200.660156 145.011719 C 197.375 145.480469 186.421875 145.167969 180.632812 142.746094 C 174.84375 140.324219 160.519531 151.664062 160.519531 151.664062 L 155.5625 161.597656 L 157.015625 162.96875 Z M 160.519531 155.941406 "/>
<path style=" stroke:none;fill-rule:nonzero;fill:rgb(70.19608%,70.19608%,70.19608%);fill-opacity:1;" d="M 229.023438 230.695312 L 225.617188 230.695312 L 225.617188 191.949219 L 229.023438 191.949219 Z M 229.023438 230.695312 "/>
<path style=" stroke:none;fill-rule:nonzero;fill:rgb(56.078434%,79.607844%,88.627452%);fill-opacity:1;" d="M 153.28125 151.664062 C 155.589844 152.65625 158.210938 152.65625 160.519531 151.664062 C 160.519531 151.664062 162.769531 155.589844 159.375 160.144531 C 156.507812 158.476562 153.15625 157.835938 149.878906 158.332031 C 149.878906 158.332031 154.019531 157.558594 153.28125 151.664062 Z M 153.28125 151.664062 "/>
<path style="fill-rule:nonzero;fill:rgb(0%,0%,0%);fill-opacity:1;stroke-width:1.408;stroke-linecap:butt;stroke-linejoin:miter;stroke:rgb(0%,0%,0%);stroke-opacity:1;stroke-miterlimit:10;" d="M 688.253906 699.164062 C 688.253906 695.695312 685.429688 692.871094 681.960938 692.871094 C 678.492188 692.871094 675.667969 695.695312 675.667969 699.164062 C 675.667969 702.632812 678.492188 705.457031 681.960938 705.457031 C 685.429688 705.457031 688.253906 702.632812 688.253906 699.164062 Z M 688.253906 699.164062 " transform="matrix(0.333333,0,0,0.333333,0,0)"/>
<path style="fill-rule:nonzero;fill:rgb(0%,0%,0%);fill-opacity:1;stroke-width:1.408;stroke-linecap:butt;stroke-linejoin:miter;stroke:rgb(0%,0%,0%);stroke-opacity:1;stroke-miterlimit:10;" d="M 697.195312 699.164062 C 697.195312 690.75 690.375 683.929688 681.960938 683.929688 C 673.546875 683.929688 666.726562 690.75 666.726562 699.164062 C 666.726562 707.578125 673.546875 714.398438 681.960938 714.398438 C 690.375 714.398438 697.195312 707.578125 697.195312 699.164062 Z M 697.195312 699.164062 " transform="matrix(0.333333,0,0,0.333333,0,0)"/>
<path style=" stroke:none;fill-rule:nonzero;fill:rgb(56.078434%,79.607844%,88.627452%);fill-opacity:1;" d="M 143.234375 143.132812 C 135.929688 141.761719 129.347656 144.160156 128.535156 148.492188 C 127.722656 152.824219 132.984375 157.445312 140.289062 158.816406 C 147.597656 160.1875 154.175781 157.789062 154.988281 153.457031 C 155.804688 149.125 150.539062 144.503906 143.234375 143.132812 Z M 143.234375 143.132812 "/>
<path style=" stroke:none;fill-rule:nonzero;fill:rgb(40.000001%,74.117649%,86.666667%);fill-opacity:1;" d="M 146.640625 144.054688 C 150.644531 146.15625 153.054688 149.328125 152.488281 152.363281 C 151.675781 156.691406 145.09375 159.09375 137.789062 157.722656 C 136.628906 157.503906 135.488281 157.199219 134.378906 156.800781 C 136.238281 157.761719 138.230469 158.441406 140.289062 158.816406 C 147.597656 160.1875 154.175781 157.789062 154.988281 153.457031 C 155.667969 149.835938 152.101562 146.011719 146.640625 144.054688 Z M 146.640625 144.054688 "/>
<path style="fill-rule:nonzero;fill:rgb(0%,0%,0%);fill-opacity:1;stroke-width:0.992;stroke-linecap:butt;stroke-linejoin:miter;stroke:rgb(0%,0%,0%);stroke-opacity:1;stroke-miterlimit:10;" d="M 405.316406 428.238281 C 405.316406 428.238281 406.769531 455.695312 425.285156 459.445312 C 443.800781 463.195312 438.175781 467.707031 438.175781 467.707031 L 443.800781 463.195312 L 425.285156 464.132812 C 425.285156 464.132812 417.539062 471.363281 432.539062 473.53125 C 441.539062 474.832031 450.679688 474.832031 459.691406 473.53125 C 459.691406 473.53125 474.785156 475.125 478.535156 477.609375 C 482.285156 480.09375 494.496094 481.96875 497.308594 487.605469 L 503.882812 500.753906 L 448.5 500.753906 L 400.617188 481.980469 C 400.617188 481.980469 375.714844 466.019531 385.359375 439.734375 C 394.992188 413.449219 405.316406 428.238281 405.316406 428.238281 Z M 405.316406 428.238281 " transform="matrix(0.333333,0,0,0.333333,0,0)"/>
<path style=" stroke:none;fill-rule:nonzero;fill:rgb(23.137255%,78.039217%,98.431373%);fill-opacity:1;" d="M 186.871094 166.289062 C 186.871094 166.289062 188.027344 151.066406 186.871094 142.40625 C 186.871094 142.40625 246.03125 140.976562 254.714844 142.40625 C 254.714844 142.40625 258.703125 156.902344 254.714844 166.917969 Z M 186.871094 166.289062 "/>
<path style=" stroke:none;fill-rule:nonzero;fill:rgb(10.980392%,73.725492%,96.862745%);fill-opacity:1;" d="M 254.714844 146.226562 C 255.671875 150.011719 256.25 153.882812 256.4375 157.78125 C 256.828125 149.734375 254.714844 142.046875 254.714844 142.046875 C 246.03125 140.613281 186.875 142.046875 186.875 142.046875 C 187.042969 143.316406 187.160156 144.734375 187.242188 146.21875 C 192.226562 146.101562 246.433594 144.863281 254.714844 146.226562 Z M 187.371094 154.257812 C 187.285156 160.484375 186.875 165.929688 186.875 165.929688 L 187.125 165.929688 C 187.277344 162.863281 187.433594 158.507812 187.371094 154.257812 Z M 187.371094 154.257812 "/>
<path style=" stroke:none;fill-rule:nonzero;fill:rgb(100%,100%,100%);fill-opacity:1;" d="M 126.589844 164.414062 L 258.144531 164.414062 C 260.355469 164.414062 262.144531 166.203125 262.144531 168.414062 L 262.144531 172.929688 C 262.144531 175.136719 260.355469 176.929688 258.144531 176.929688 L 126.589844 176.929688 C 124.378906 176.929688 122.589844 175.136719 122.589844 172.929688 L 122.589844 168.414062 C 122.589844 166.203125 124.378906 164.414062 126.589844 164.414062 Z M 126.589844 164.414062 "/>
<path style=" stroke:none;fill-rule:nonzero;fill:rgb(90.196079%,90.196079%,90.196079%);fill-opacity:1;" d="M 256.515625 164.492188 L 128.222656 164.492188 C 125.113281 164.5 122.597656 167.015625 122.589844 170.125 L 122.589844 171.375 C 122.589844 171.519531 122.597656 171.664062 122.609375 171.804688 C 122.84375 168.875 125.28125 166.613281 128.222656 166.605469 L 256.515625 166.605469 C 259.453125 166.613281 261.894531 168.875 262.125 171.804688 C 262.136719 171.664062 262.144531 171.519531 262.144531 171.375 L 262.144531 170.125 C 262.136719 167.015625 259.621094 164.5 256.515625 164.492188 Z M 256.515625 164.492188 "/>
<path style=" stroke:none;fill-rule:nonzero;fill:rgb(100%,100%,100%);fill-opacity:1;" d="M 132.449219 156.335938 C 128.753906 155.46875 125.132812 155.949219 122.335938 157.414062 C 123.878906 160.523438 127.171875 163.101562 131.367188 164.085938 C 135.171875 164.976562 138.890625 164.359375 141.609375 162.671875 C 139.847656 159.710938 136.558594 157.296875 132.449219 156.335938 Z M 132.449219 156.335938 "/>
<path style=" stroke:none;fill-rule:nonzero;fill:rgb(90.196079%,90.196079%,90.196079%);fill-opacity:1;" d="M 131.277344 158.558594 C 134.5 159.265625 137.394531 161.027344 139.507812 163.5625 C 140.242188 163.296875 140.945312 162.957031 141.609375 162.550781 C 139.847656 159.589844 136.558594 157.171875 132.449219 156.210938 C 128.753906 155.34375 125.132812 155.828125 122.335938 157.292969 C 122.597656 157.8125 122.902344 158.3125 123.242188 158.78125 C 125.851562 157.992188 128.625 157.914062 131.277344 158.558594 Z M 131.277344 158.558594 "/>
<use xlink:href="#surface8" mask="url(#mask1)"/>
<use xlink:href="#surface11" mask="url(#mask2)"/>
<use xlink:href="#surface14" mask="url(#mask3)"/>
<use xlink:href="#surface17" mask="url(#mask4)"/>
<use xlink:href="#surface20" mask="url(#mask5)"/>
<use xlink:href="#surface23" mask="url(#mask6)"/>
<use xlink:href="#surface26" mask="url(#mask7)"/>
<path style=" stroke:none;fill-rule:nonzero;fill:rgb(70.19608%,70.19608%,70.19608%);fill-opacity:1;" d="M 123.679688 224.179688 L 149.023438 224.179688 L 149.023438 227.976562 L 123.679688 227.976562 Z M 123.679688 224.179688 "/>
<path style=" stroke:none;fill-rule:nonzero;fill:rgb(70.19608%,70.19608%,70.19608%);fill-opacity:1;" d="M 123.761719 224.179688 L 127.710938 224.179688 L 127.710938 233.054688 L 123.761719 233.054688 Z M 123.761719 224.179688 "/>
<use xlink:href="#surface29" mask="url(#mask8)"/>
<use xlink:href="#surface32" mask="url(#mask9)"/>
<path style=" stroke:none;fill-rule:nonzero;fill:rgb(4.313726%,20%,25.882354%);fill-opacity:1;" d="M 298.347656 293.980469 C 298.347656 289.449219 294.816406 285.777344 290.460938 285.777344 C 286.101562 285.777344 282.570312 289.449219 282.570312 293.980469 C 282.570312 294.570312 282.632812 295.164062 282.757812 295.742188 L 298.160156 295.742188 C 298.285156 295.164062 298.347656 294.570312 298.347656 293.980469 Z M 273.90625 293.980469 C 273.90625 289.449219 270.375 285.777344 266.015625 285.777344 C 261.660156 285.777344 258.125 289.449219 258.125 293.980469 C 258.128906 294.570312 258.191406 295.164062 258.316406 295.742188 L 273.71875 295.742188 C 273.839844 295.164062 273.902344 294.570312 273.90625 293.980469 Z M 273.90625 293.980469 "/>
<path style=" stroke:none;fill-rule:nonzero;fill:rgb(5.882353%,71.764708%,96.470588%);fill-opacity:1;" d="M 273.59375 184.503906 C 273.59375 184.503906 277.269531 233.046875 275.535156 250.277344 C 273.800781 267.511719 275.535156 255.261719 275.535156 255.261719 L 272.347656 288.273438 C 272.347656 288.273438 258.4375 290.347656 258.125 289.519531 C 257.816406 288.6875 255.324219 248.824219 254.285156 240.9375 C 253.246094 233.046875 249.71875 189.113281 250.964844 184.503906 Z M 273.59375 184.503906 "/>
<path style=" stroke:none;fill-rule:nonzero;fill:rgb(3.137255%,65.098041%,87.843138%);fill-opacity:1;" d="M 273.59375 184.503906 L 270.894531 184.503906 C 270.894531 184.503906 274.570312 233.046875 272.835938 250.277344 C 271.101562 267.511719 272.835938 255.261719 272.835938 255.261719 L 269.648438 288.273438 C 269.648438 288.273438 262.492188 289.339844 258.328125 289.636719 C 260.078125 290.105469 272.347656 288.273438 272.347656 288.273438 L 275.535156 255.261719 C 275.535156 255.261719 273.800781 267.511719 275.535156 250.277344 C 277.269531 233.046875 273.59375 184.503906 273.59375 184.503906 Z M 273.59375 184.503906 "/>
<path style=" stroke:none;fill-rule:nonzero;fill:rgb(5.882353%,71.764708%,96.470588%);fill-opacity:1;" d="M 267.351562 107.492188 L 283.699219 107.492188 L 285.300781 183.011719 C 285.300781 183.011719 269.15625 185.503906 265.769531 184.050781 Z M 267.351562 107.492188 "/>
<path style=" stroke:none;fill-rule:nonzero;fill:rgb(3.137255%,65.098041%,87.843138%);fill-opacity:1;" d="M 281.179688 107.492188 L 277.859375 107.492188 L 279.460938 183.011719 C 279.460938 183.011719 271.558594 184.230469 265.652344 184.464844 C 271.273438 184.789062 282.78125 183.011719 282.78125 183.011719 Z M 281.179688 107.492188 "/>
<path style=" stroke:none;fill-rule:nonzero;fill:rgb(100%,100%,100%);fill-opacity:1;" d="M 247.847656 167.855469 C 247.847656 167.855469 245.773438 170.347656 243.90625 212.285156 L 272.347656 210.625 C 272.347656 210.625 267.78125 175.253906 268.402344 166.988281 Z M 247.847656 167.855469 "/>
<path style=" stroke:none;fill-rule:nonzero;fill:rgb(43.137255%,77.254903%,89.803922%);fill-opacity:1;" d="M 291.121094 84.1875 C 291.121094 72.261719 283.625 62.59375 274.375 62.59375 C 265.125 62.59375 257.625 72.261719 257.625 84.1875 C 257.625 91.574219 260.503906 98.089844 264.894531 101.984375 L 264.894531 95.953125 L 283.855469 95.953125 L 283.855469 101.984375 C 288.242188 98.089844 291.121094 91.574219 291.121094 84.1875 Z M 291.121094 84.1875 "/>
<path style=" stroke:none;fill-rule:nonzero;fill:rgb(43.137255%,77.254903%,89.803922%);fill-opacity:1;" d="M 294.683594 84.625 C 294.683594 82.703125 293.273438 81.144531 291.535156 81.144531 C 289.792969 81.144531 288.382812 82.703125 288.382812 84.625 C 288.382812 86.546875 289.792969 88.105469 291.535156 88.105469 C 293.273438 88.105469 294.683594 86.546875 294.683594 84.625 Z M 294.683594 84.625 "/>
<path style=" stroke:none;fill-rule:nonzero;fill:rgb(25.098041%,71.372551%,88.627452%);fill-opacity:1;" d="M 292.585938 84.78125 C 292.585938 83.847656 292.0625 83.089844 291.417969 83.089844 C 290.773438 83.089844 290.25 83.847656 290.25 84.78125 C 290.25 85.714844 290.773438 86.472656 291.417969 86.472656 C 292.0625 86.472656 292.585938 85.714844 292.585938 84.78125 Z M 292.585938 84.78125 "/>
<path style=" stroke:none;fill-rule:nonzero;fill:rgb(43.137255%,77.254903%,89.803922%);fill-opacity:1;" d="M 260.050781 84.625 C 260.050781 82.703125 258.640625 81.144531 256.898438 81.144531 C 255.160156 81.144531 253.75 82.703125 253.75 84.625 C 253.75 86.546875 255.160156 88.105469 256.898438 88.105469 C 258.640625 88.105469 260.050781 86.546875 260.050781 84.625 Z M 260.050781 84.625 "/>
<path style=" stroke:none;fill-rule:nonzero;fill:rgb(25.098041%,71.372551%,88.627452%);fill-opacity:1;" d="M 257.949219 84.78125 C 257.949219 83.847656 257.425781 83.089844 256.78125 83.089844 C 256.136719 83.089844 255.617188 83.847656 255.617188 84.78125 C 255.617188 85.714844 256.136719 86.472656 256.78125 86.472656 C 257.425781 86.472656 257.949219 85.714844 257.949219 84.78125 Z M 257.949219 84.78125 "/>
<path style=" stroke:none;fill-rule:nonzero;fill:rgb(25.098041%,71.372551%,88.627452%);fill-opacity:1;" d="M 283.839844 66.519531 C 286.546875 70.355469 288.195312 75.453125 288.195312 81.046875 C 288.195312 92.96875 280.699219 102.636719 271.449219 102.636719 C 267.867188 102.636719 264.546875 101.183594 261.824219 98.710938 C 264.890625 103.054688 269.304688 105.777344 274.214844 105.777344 C 283.464844 105.777344 290.964844 96.113281 290.964844 84.1875 C 290.964844 76.878906 288.148438 70.425781 283.839844 66.519531 Z M 283.839844 66.519531 "/>
<path style="fill-rule:nonzero;fill:rgb(0%,0%,0%);fill-opacity:1;stroke-width:1.367;stroke-linecap:butt;stroke-linejoin:miter;stroke:rgb(0%,0%,0%);stroke-opacity:1;stroke-miterlimit:10;" d="M 776.976562 257.953125 C 776.976562 257.953125 774.480469 235.945312 788.601562 235.945312 C 788.601562 235.945312 786.527344 228.058594 788.601562 220.582031 L 829.710938 217.265625 L 857.109375 217.265625 C 857.109375 217.265625 860.4375 218.507812 860.015625 229.3125 C 860.015625 229.3125 859.605469 235.125 868.746094 237.609375 L 870.398438 249.234375 L 872.894531 248.402344 C 872.894531 248.402344 882.445312 228.480469 869.15625 203.144531 C 855.867188 177.820312 816.832031 177.398438 816.832031 177.398438 C 816.832031 177.398438 796.078125 176.988281 779.050781 196.921875 C 765.023438 213.339844 764.519531 243.011719 764.519531 243.011719 C 764.519531 243.011719 771.9375 240.105469 772.582031 257.953125 Z M 776.976562 257.953125 " transform="matrix(0.333333,0,0,0.333333,0,0)"/>
<path style="fill-rule:nonzero;fill:rgb(0%,0%,0%);fill-opacity:1;stroke-width:1.367;stroke-linecap:butt;stroke-linejoin:miter;stroke:rgb(0%,0%,0%);stroke-opacity:1;stroke-miterlimit:10;" d="M 866.8125 201.597656 C 866.8125 190.535156 856.921875 181.558594 844.734375 181.558594 C 832.535156 181.558594 822.65625 190.535156 822.65625 201.597656 C 822.65625 212.671875 832.535156 221.648438 844.734375 221.648438 C 856.921875 221.648438 866.8125 212.671875 866.8125 201.597656 Z M 866.8125 201.597656 " transform="matrix(0.333333,0,0,0.333333,0,0)"/>
<path style="fill-rule:nonzero;fill:rgb(0%,0%,0%);fill-opacity:1;stroke-width:1.453;stroke-linecap:butt;stroke-linejoin:miter;stroke:rgb(0%,0%,0%);stroke-opacity:1;stroke-miterlimit:10;" d="M 844.734375 197.203125 C 844.734375 182.226562 831.796875 170.085938 815.835938 170.085938 C 799.875 170.085938 786.9375 182.226562 786.9375 197.203125 C 786.9375 212.179688 799.875 224.320312 815.835938 224.320312 C 831.796875 224.320312 844.734375 212.179688 844.734375 197.203125 Z M 844.734375 197.203125 " transform="matrix(0.333333,0,0,0.333333,0,0)"/>
<path style="fill-rule:nonzero;fill:rgb(0%,0%,0%);fill-opacity:1;stroke-width:1.367;stroke-linecap:butt;stroke-linejoin:miter;stroke:rgb(0%,0%,0%);stroke-opacity:1;stroke-miterlimit:10;" d="M 805.230469 203.519531 C 805.230469 194.824219 797.882812 187.78125 788.824219 187.78125 C 779.753906 187.78125 772.40625 194.824219 772.40625 203.519531 C 772.40625 212.203125 779.753906 219.246094 788.824219 219.246094 C 797.882812 219.246094 805.230469 212.203125 805.230469 203.519531 Z M 805.230469 203.519531 " transform="matrix(0.333333,0,0,0.333333,0,0)"/>
<path style="fill-rule:nonzero;fill:rgb(0%,0%,0%);fill-opacity:1;stroke-width:1.367;stroke-linecap:butt;stroke-linejoin:miter;stroke:rgb(0%,0%,0%);stroke-opacity:1;stroke-miterlimit:10;" d="M 872.894531 207.445312 C 872.894531 201.785156 870.105469 197.203125 866.660156 197.203125 C 863.226562 197.203125 860.4375 201.785156 860.4375 207.445312 C 860.4375 213.09375 863.226562 217.675781 866.660156 217.675781 C 870.105469 217.675781 872.894531 213.09375 872.894531 207.445312 Z M 872.894531 207.445312 " transform="matrix(0.333333,0,0,0.333333,0,0)"/>
<path style=" stroke:none;fill-rule:nonzero;fill:rgb(43.137255%,77.254903%,89.803922%);fill-opacity:1;" d="M 267.351562 101.984375 L 267.351562 109.652344 C 267.351562 109.652344 275.097656 117.542969 281.578125 109.101562 L 281 101.984375 Z M 267.351562 101.984375 "/>
<path style=" stroke:none;fill-rule:nonzero;fill:rgb(25.098041%,71.372551%,88.627452%);fill-opacity:1;" d="M 281.273438 101.984375 L 279.058594 101.984375 L 279.636719 109.101562 C 277.746094 111.5625 275.75 112.632812 273.871094 112.917969 C 276.332031 113.277344 279.195312 112.558594 281.851562 109.101562 Z M 281.273438 101.984375 "/>
<path style=" stroke:none;fill-rule:nonzero;fill:rgb(7.058824%,61.56863%,89.411765%);fill-opacity:1;" d="M 264.734375 95.953125 L 264.734375 101.984375 C 267.433594 104.375 270.695312 105.777344 274.214844 105.777344 C 277.738281 105.777344 281 104.375 283.699219 101.984375 L 283.699219 95.953125 Z M 257.527344 85.984375 C 257.527344 85.984375 259.40625 94.289062 264.734375 95.953125 L 264.734375 96.78125 C 264.734375 96.78125 258.558594 94.152344 257.527344 85.984375 Z M 283.699219 95.953125 C 283.699219 95.953125 289.164062 92.628906 290.964844 82.800781 C 290.964844 82.800781 290.6875 92.351562 283.699219 96.78125 Z M 283.699219 95.953125 "/>
<path style=" stroke:none;fill-rule:nonzero;fill:rgb(5.882353%,71.764708%,96.470588%);fill-opacity:1;" d="M 269.386719 184.503906 L 295.632812 181.144531 C 295.632812 181.144531 299.339844 220.589844 298.09375 240.519531 C 296.847656 260.453125 298.347656 285.574219 298.347656 285.574219 C 298.347656 285.574219 283.144531 290.140625 280.238281 287.648438 C 277.332031 285.160156 276.953125 223.703125 276 215.191406 C 275.046875 206.679688 269.386719 184.503906 269.386719 184.503906 Z M 269.386719 184.503906 "/>
<path style=" stroke:none;fill-rule:nonzero;fill:rgb(3.137255%,65.098041%,87.843138%);fill-opacity:1;" d="M 298.09375 240.519531 C 299.339844 220.589844 295.632812 181.144531 295.632812 181.144531 L 289.5 181.929688 C 289.78125 183.847656 295.246094 221.554688 295.050781 241.015625 C 294.863281 259.917969 297.375 283.332031 297.644531 285.777344 C 298.089844 285.652344 298.347656 285.574219 298.347656 285.574219 C 298.347656 285.574219 296.847656 260.453125 298.09375 240.519531 Z M 298.09375 240.519531 "/>
<path style=" stroke:none;fill-rule:nonzero;fill:rgb(100%,100%,100%);fill-opacity:1;" d="M 267.351562 107.492188 C 267.351562 107.492188 253.730469 107.441406 240.03125 115.605469 C 240.03125 115.605469 234.90625 148.269531 245.011719 169.03125 C 245.011719 169.03125 269.003906 173.601562 285.058594 164.464844 C 285.058594 164.464844 269.371094 154.914062 254.148438 158.234375 C 254.148438 158.234375 261.484375 151.453125 269.648438 152.007812 L 267.464844 109.648438 Z M 267.351562 107.492188 "/>
<path style=" stroke:none;fill-rule:nonzero;fill:rgb(100%,100%,100%);fill-opacity:1;" d="M 281.578125 161.417969 C 281.578125 161.417969 283.878906 204.1875 281.851562 210.832031 C 281.851562 210.832031 307.171875 210 309.691406 210.832031 C 309.691406 210.832031 304.753906 163.703125 302.046875 161.417969 Z M 281.578125 161.417969 "/>
<path style=" stroke:none;fill-rule:nonzero;fill:rgb(100%,100%,100%);fill-opacity:1;" d="M 281.851562 107.492188 C 281.851562 107.492188 303.28125 110.8125 304.527344 113 C 305.773438 115.191406 313.523438 135.953125 307.296875 165.988281 C 307.296875 165.988281 299.121094 171.160156 265.769531 157.984375 L 264.78125 152.476562 C 264.792969 151.984375 278.304688 150.414062 281.414062 149.65625 C 283.882812 149.050781 280.210938 125.125 281.851562 107.492188 Z M 281.851562 107.492188 "/>
<path style=" stroke:none;fill-rule:nonzero;fill:rgb(7.058824%,61.56863%,89.411765%);fill-opacity:1;" d="M 267.464844 109.648438 C 267.464844 109.648438 262.453125 122.941406 259.820312 126.539062 C 259.820312 126.539062 269.132812 148.671875 269.597656 151.03125 C 269.597656 151.03125 269.984375 114.761719 267.464844 109.648438 Z M 281.78125 108.261719 C 281.78125 108.261719 288.058594 119.066406 290.273438 121.140625 C 290.128906 121.886719 281.214844 151.042969 281.726562 149.390625 C 282.652344 149.476562 278.117188 122.144531 281.78125 108.261719 Z M 281.78125 108.261719 "/>
<path style=" stroke:none;fill-rule:nonzero;fill:rgb(43.137255%,77.254903%,89.803922%);fill-opacity:1;" d="M 264.78125 152.476562 C 264.78125 152.476562 256.085938 154.082031 254.425781 156.296875 C 252.761719 158.511719 253.890625 158.167969 255.824219 157.921875 C 257.757812 157.679688 265.765625 156.902344 265.769531 157.984375 Z M 293.179688 148.824219 C 293.179688 148.824219 304.390625 139.6875 304.667969 145.777344 L 300.652344 150.347656 C 300.652344 150.347656 298.855469 149.238281 293.179688 148.824219 Z M 293.179688 148.824219 "/>
<path style=" stroke:none;fill-rule:nonzero;fill:rgb(50.196081%,50.196081%,50.196081%);fill-opacity:1;" d="M 259.695312 135.679688 C 259.695312 133.15625 257.648438 131.109375 255.121094 131.109375 C 252.597656 131.109375 250.546875 133.15625 250.546875 135.679688 C 250.546875 138.207031 252.597656 140.253906 255.121094 140.253906 C 257.648438 140.253906 259.695312 138.207031 259.695312 135.679688 Z M 259.695312 135.679688 "/>
<path style=" stroke:none;fill-rule:nonzero;fill:rgb(10.196079%,10.196079%,10.196079%);fill-opacity:1;" d="M 256.898438 135.679688 C 256.898438 134.699219 256.101562 133.902344 255.121094 133.902344 C 254.140625 133.902344 253.34375 134.699219 253.34375 135.679688 C 253.34375 136.664062 254.140625 137.457031 255.121094 137.457031 C 256.101562 137.457031 256.898438 136.664062 256.898438 135.679688 Z M 256.898438 135.679688 "/>
<path style=" stroke:none;fill-rule:nonzero;fill:rgb(0%,72.941178%,100%);fill-opacity:1;" d="M 292.972656 136.363281 L 289.441406 136.363281 L 289.441406 125.613281 L 287.574219 125.613281 L 287.574219 138.53125 L 289.441406 138.53125 L 289.441406 138.503906 L 292.972656 138.503906 Z M 292.972656 136.363281 "/>
<path style=" stroke:none;fill-rule:nonzero;fill:rgb(0%,0%,0%);fill-opacity:1;" d="M 281.578125 105.363281 C 281.578125 105.363281 291.449219 105.710938 295.445312 115.085938 L 293.058594 115.433594 C 293.058594 115.433594 289.277344 108.066406 281.851562 107.492188 "/>
<path style=" stroke:none;fill-rule:nonzero;fill:rgb(50.196081%,50.196081%,50.196081%);fill-opacity:1;" d="M 287.609375 125.613281 L 289.796875 125.613281 C 289.796875 125.613281 289.683594 117.308594 294.980469 117.726562 C 300.273438 118.140625 299.859375 125.199219 299.859375 125.199219 L 302.140625 125.09375 C 302.140625 125.09375 302.347656 115.441406 294.980469 114.714844 C 287.609375 113.988281 287.609375 125.613281 287.609375 125.613281 Z M 287.609375 125.613281 "/>
<path style=" stroke:none;fill-rule:nonzero;fill:rgb(0%,72.941178%,100%);fill-opacity:1;" d="M 300.175781 125.097656 L 300.175781 136.261719 L 297.269531 136.261719 L 297.269531 138.429688 L 302.046875 138.429688 L 302.046875 125.097656 Z M 300.175781 125.097656 "/>
<path style=" stroke:none;fill-rule:nonzero;fill:rgb(50.196081%,50.196081%,50.196081%);fill-opacity:1;" d="M 294.863281 137.449219 C 294.863281 135.902344 294.417969 134.648438 293.875 134.648438 C 293.332031 134.648438 292.886719 135.902344 292.886719 137.449219 C 292.886719 139 293.332031 140.253906 293.875 140.253906 C 294.417969 140.253906 294.863281 139 294.863281 137.449219 Z M 294.863281 137.449219 "/>
<path style=" stroke:none;fill-rule:nonzero;fill:rgb(50.196081%,50.196081%,50.196081%);fill-opacity:1;" d="M 297.664062 137.449219 C 297.664062 135.902344 297.222656 134.648438 296.679688 134.648438 C 296.132812 134.648438 295.691406 135.902344 295.691406 137.449219 C 295.691406 139 296.132812 140.253906 296.679688 140.253906 C 297.222656 140.253906 297.664062 139 297.664062 137.449219 Z M 297.664062 137.449219 "/>
<path style=" stroke:none;fill-rule:nonzero;fill:rgb(0%,0%,0%);fill-opacity:1;" d="M 253.617188 131.363281 C 253.617188 131.363281 252.597656 111.074219 267.351562 105.363281 L 267.351562 107.492188 C 267.351562 107.492188 255.945312 112.007812 255.636719 131.109375 Z M 253.617188 131.363281 "/>
<path style=" stroke:none;fill-rule:nonzero;fill:rgb(90.196079%,90.196079%,90.196079%);fill-opacity:1;" d="M 252.210938 146 C 252.210938 146 252.316406 146.167969 252.472656 146.472656 C 252.6875 146.894531 252.882812 147.328125 253.050781 147.769531 C 253.292969 148.390625 253.5 149.027344 253.667969 149.671875 C 253.757812 150.027344 253.855469 150.390625 253.921875 150.769531 C 254 151.148438 254.066406 151.53125 254.117188 151.921875 C 254.171875 152.308594 254.214844 152.699219 254.234375 153.085938 C 254.273438 153.46875 254.269531 153.855469 254.265625 154.226562 C 254.273438 154.59375 254.230469 154.957031 254.203125 155.292969 C 254.171875 155.613281 254.121094 155.933594 254.050781 156.246094 C 254 156.515625 253.925781 156.78125 253.835938 157.039062 C 253.796875 157.152344 253.765625 157.261719 253.726562 157.359375 C 253.679688 157.453125 253.636719 157.542969 253.597656 157.621094 C 253.445312 157.9375 253.34375 158.101562 253.34375 158.101562 C 253.34375 158.101562 253.339844 157.898438 253.359375 157.5625 C 253.363281 157.480469 253.367188 157.386719 253.375 157.289062 C 253.371094 157.1875 253.367188 157.078125 253.363281 156.960938 C 253.351562 156.726562 253.367188 156.472656 253.339844 156.1875 C 253.308594 155.90625 253.308594 155.605469 253.265625 155.285156 C 253.230469 154.960938 253.214844 154.628906 253.164062 154.277344 C 253.121094 153.925781 253.085938 153.566406 253.03125 153.199219 C 252.984375 152.835938 252.941406 152.460938 252.882812 152.089844 C 252.785156 151.339844 252.683594 150.589844 252.589844 149.886719 C 252.496094 149.179688 252.414062 148.515625 252.359375 147.941406 C 252.292969 147.367188 252.257812 146.882812 252.234375 146.539062 C 252.214844 146.199219 252.210938 146 252.210938 146 Z M 300.652344 150.347656 C 300.652344 150.347656 300.523438 150.285156 300.273438 150.191406 C 300.023438 150.101562 299.648438 149.988281 299.167969 149.871094 C 298.933594 149.800781 298.660156 149.761719 298.367188 149.699219 C 298.078125 149.636719 297.761719 149.582031 297.417969 149.539062 C 296.742188 149.421875 295.964844 149.375 295.128906 149.285156 C 294.707031 149.265625 294.265625 149.242188 293.808594 149.222656 C 293.355469 149.195312 292.882812 149.1875 292.398438 149.1875 C 291.914062 149.1875 291.417969 149.175781 290.910156 149.183594 C 290.398438 149.207031 289.878906 149.214844 289.351562 149.234375 C 288.296875 149.234375 287.203125 149.375 286.097656 149.421875 C 284.988281 149.492188 283.863281 149.632812 282.738281 149.738281 C 281.613281 149.851562 280.492188 150.011719 279.386719 150.144531 C 278.28125 150.277344 277.199219 150.464844 276.144531 150.613281 C 275.621094 150.691406 275.105469 150.773438 274.597656 150.839844 C 274.089844 150.925781 273.597656 151.007812 273.117188 151.089844 C 272.15625 151.257812 271.242188 151.402344 270.398438 151.53125 C 269.558594 151.664062 268.792969 151.824219 268.105469 151.933594 C 267.421875 152.050781 266.824219 152.152344 266.332031 152.238281 C 265.347656 152.394531 264.78125 152.476562 264.78125 152.476562 C 264.78125 152.476562 265.320312 152.292969 266.273438 151.996094 C 266.753906 151.851562 267.332031 151.671875 268 151.472656 C 268.667969 151.277344 269.417969 151.03125 270.25 150.832031 C 271.078125 150.625 271.980469 150.398438 272.9375 150.175781 C 273.414062 150.066406 273.90625 149.949219 274.410156 149.832031 C 274.914062 149.726562 275.433594 149.636719 275.960938 149.53125 C 276.484375 149.433594 277.019531 149.332031 277.5625 149.230469 C 277.835938 149.179688 278.109375 149.125 278.382812 149.074219 C 278.660156 149.035156 278.9375 148.996094 279.214844 148.957031 C 280.332031 148.808594 281.464844 148.625 282.605469 148.5 C 283.75 148.410156 284.886719 148.28125 286.015625 148.222656 C 286.582031 148.191406 287.140625 148.171875 287.695312 148.15625 C 287.972656 148.148438 288.246094 148.140625 288.519531 148.128906 C 288.792969 148.132812 289.066406 148.136719 289.335938 148.140625 C 289.875 148.144531 290.40625 148.144531 290.921875 148.160156 C 291.441406 148.183594 291.949219 148.230469 292.441406 148.261719 C 293.429688 148.304688 294.355469 148.46875 295.210938 148.578125 C 296.0625 148.734375 296.839844 148.875 297.515625 149.074219 C 297.835938 149.148438 298.152344 149.242188 298.460938 149.351562 C 298.746094 149.457031 299.015625 149.53125 299.246094 149.636719 C 299.609375 149.777344 299.960938 149.941406 300.304688 150.128906 C 300.539062 150.265625 300.652344 150.347656 300.652344 150.347656 Z M 307.296875 165.988281 C 307.296875 165.988281 307.144531 166.0625 306.855469 166.1875 C 306.5625 166.3125 306.132812 166.492188 305.570312 166.679688 C 304.890625 166.90625 304.203125 167.097656 303.503906 167.25 C 302.597656 167.457031 301.675781 167.601562 300.75 167.683594 C 300.238281 167.746094 299.703125 167.75 299.152344 167.78125 C 298.597656 167.789062 298.023438 167.773438 297.433594 167.746094 C 296.847656 167.6875 296.238281 167.667969 295.625 167.554688 C 295.316406 167.507812 295.007812 167.457031 294.691406 167.410156 C 294.382812 167.335938 294.070312 167.261719 293.757812 167.1875 C 293.117188 167.035156 292.484375 166.851562 291.863281 166.636719 C 291.238281 166.4375 290.625 166.210938 290 165.984375 C 288.761719 165.550781 287.492188 165.128906 286.214844 164.714844 C 284.9375 164.296875 283.664062 163.878906 282.402344 163.476562 C 281.140625 163.074219 279.902344 162.675781 278.703125 162.289062 C 276.300781 161.519531 274.0625 160.792969 272.144531 160.160156 C 268.308594 158.898438 265.769531 157.984375 265.769531 157.984375 C 265.769531 157.984375 268.421875 158.496094 272.34375 159.472656 C 273.324219 159.714844 274.386719 159.980469 275.503906 160.28125 C 276.625 160.578125 277.804688 160.886719 279.019531 161.238281 C 280.234375 161.585938 281.492188 161.9375 282.761719 162.328125 C 284.027344 162.71875 285.316406 163.121094 286.601562 163.535156 C 287.878906 163.960938 289.160156 164.402344 290.417969 164.859375 C 291.039062 165.082031 291.652344 165.332031 292.257812 165.550781 C 292.839844 165.773438 293.429688 165.964844 294.03125 166.128906 C 294.328125 166.210938 294.625 166.289062 294.914062 166.367188 C 295.210938 166.429688 295.503906 166.488281 295.796875 166.546875 C 296.371094 166.6875 296.953125 166.734375 297.511719 166.820312 C 298.574219 166.9375 299.640625 166.988281 300.710938 166.972656 C 300.957031 166.964844 301.203125 166.960938 301.441406 166.953125 C 301.679688 166.9375 301.910156 166.921875 302.136719 166.90625 C 302.59375 166.886719 303.019531 166.824219 303.425781 166.785156 C 304.230469 166.675781 304.933594 166.5625 305.503906 166.441406 C 306.078125 166.316406 306.53125 166.210938 306.832031 166.125 C 307.136719 166.042969 307.296875 165.988281 307.296875 165.988281 Z M 295.445312 141.488281 C 295.445312 141.488281 295.464844 141.601562 295.480469 141.785156 C 295.496094 141.96875 295.503906 142.226562 295.503906 142.53125 C 295.496094 142.832031 295.476562 143.175781 295.4375 143.539062 C 295.402344 143.898438 295.34375 144.277344 295.28125 144.652344 C 295.246094 144.839844 295.214844 145.023438 295.179688 145.207031 L 295.070312 145.738281 C 294.996094 146.085938 294.925781 146.40625 294.867188 146.683594 C 294.828125 146.828125 294.808594 146.953125 294.785156 147.070312 C 294.761719 147.175781 294.742188 147.277344 294.730469 147.382812 C 294.707031 147.558594 294.683594 147.675781 294.683594 147.675781 C 294.613281 147.601562 294.546875 147.527344 294.488281 147.445312 C 294.417969 147.351562 294.359375 147.253906 294.3125 147.144531 C 294.242188 147.011719 294.1875 146.875 294.144531 146.730469 C 294.039062 146.382812 293.980469 146.019531 293.96875 145.652344 C 293.957031 145.246094 293.984375 144.839844 294.054688 144.441406 C 294.179688 143.699219 294.4375 142.988281 294.8125 142.335938 C 294.9375 142.113281 295.082031 141.90625 295.246094 141.710938 C 295.304688 141.632812 295.375 141.558594 295.445312 141.488281 Z M 245.011719 169.03125 L 246.777344 169.113281 C 247.898438 169.164062 249.5 169.222656 251.421875 169.277344 L 254.519531 169.34375 C 255.617188 169.359375 256.773438 169.355469 257.972656 169.359375 C 259.167969 169.359375 260.40625 169.332031 261.660156 169.300781 C 262.914062 169.273438 264.1875 169.210938 265.457031 169.132812 L 267.359375 169.007812 C 267.992188 168.953125 268.621094 168.902344 269.242188 168.835938 C 270.488281 168.695312 271.710938 168.574219 272.886719 168.382812 C 273.476562 168.292969 274.050781 168.195312 274.613281 168.089844 L 275.453125 167.9375 C 275.722656 167.878906 275.992188 167.820312 276.261719 167.761719 L 277.046875 167.589844 L 277.804688 167.394531 L 278.539062 167.207031 L 279.234375 167 L 279.902344 166.796875 L 280.53125 166.574219 C 280.941406 166.429688 281.335938 166.308594 281.6875 166.148438 C 282.046875 165.996094 282.378906 165.855469 282.6875 165.726562 C 282.992188 165.578125 283.269531 165.445312 283.519531 165.320312 C 283.644531 165.257812 283.761719 165.203125 283.875 165.144531 L 284.179688 164.972656 C 284.367188 164.863281 284.527344 164.773438 284.65625 164.695312 L 285.058594 164.464844 L 284.695312 164.753906 L 284.257812 165.097656 L 283.980469 165.316406 L 283.644531 165.535156 C 283.40625 165.6875 283.144531 165.859375 282.855469 166.046875 C 282.5625 166.21875 282.234375 166.390625 281.886719 166.578125 C 281.542969 166.777344 281.15625 166.941406 280.757812 167.132812 C 280.554688 167.226562 280.347656 167.324219 280.132812 167.414062 C 279.917969 167.5 279.695312 167.585938 279.46875 167.675781 L 278.773438 167.945312 C 278.535156 168.027344 278.289062 168.109375 278.039062 168.191406 L 277.28125 168.441406 L 276.484375 168.664062 L 275.667969 168.890625 C 275.390625 168.957031 275.109375 169.027344 274.824219 169.09375 C 274.257812 169.242188 273.667969 169.347656 273.074219 169.460938 C 271.878906 169.6875 270.640625 169.890625 269.375 170.035156 C 268.742188 170.109375 268.101562 170.164062 267.460938 170.230469 C 266.820312 170.277344 266.175781 170.335938 265.53125 170.375 C 264.242188 170.441406 262.953125 170.488281 261.679688 170.5 C 261.046875 170.515625 260.417969 170.507812 259.792969 170.496094 C 259.171875 170.492188 258.558594 170.46875 257.953125 170.453125 C 256.746094 170.421875 255.582031 170.34375 254.476562 170.269531 C 253.375 170.191406 252.332031 170.09375 251.371094 169.988281 C 249.453125 169.785156 247.859375 169.546875 246.75 169.359375 C 246.195312 169.269531 245.761719 169.179688 245.464844 169.121094 Z M 245.011719 169.03125 "/>
<path style=" stroke:none;fill-rule:nonzero;fill:rgb(0%,0%,0%);fill-opacity:1;" d="M 262.785156 84.113281 C 262.84375 84.019531 262.910156 83.929688 262.984375 83.847656 C 263.179688 83.625 263.390625 83.421875 263.625 83.242188 C 263.777344 83.121094 263.941406 83.007812 264.109375 82.90625 C 264.300781 82.789062 264.5 82.6875 264.703125 82.601562 C 264.925781 82.503906 265.15625 82.425781 265.386719 82.363281 C 265.636719 82.304688 265.886719 82.265625 266.136719 82.246094 C 266.394531 82.230469 266.652344 82.242188 266.90625 82.28125 C 267.03125 82.300781 267.15625 82.316406 267.277344 82.347656 L 267.625 82.46875 C 267.84375 82.542969 268.050781 82.644531 268.242188 82.777344 C 268.332031 82.828125 268.421875 82.886719 268.507812 82.949219 L 268.722656 83.148438 C 268.851562 83.257812 268.96875 83.378906 269.070312 83.511719 C 269.160156 83.632812 269.230469 83.742188 269.289062 83.832031 C 269.40625 84.007812 269.460938 84.113281 269.460938 84.113281 C 269.460938 84.113281 269.351562 84.054688 269.175781 83.949219 C 269.085938 83.894531 268.980469 83.832031 268.863281 83.753906 C 268.75 83.671875 268.59375 83.625 268.449219 83.542969 L 268.21875 83.425781 C 268.140625 83.390625 268.050781 83.367188 267.960938 83.335938 C 267.785156 83.261719 267.601562 83.207031 267.410156 83.171875 C 267.3125 83.152344 267.21875 83.128906 267.121094 83.105469 L 266.8125 83.082031 C 266.605469 83.0625 266.398438 83.0625 266.191406 83.074219 C 266.085938 83.078125 265.980469 83.089844 265.875 83.105469 C 265.769531 83.125 265.664062 83.125 265.5625 83.148438 C 265.355469 83.203125 265.148438 83.226562 264.949219 83.292969 C 264.75 83.34375 264.558594 83.40625 264.378906 83.46875 C 264.191406 83.527344 264.023438 83.601562 263.859375 83.652344 L 263.425781 83.832031 L 263.085938 83.980469 Z M 286.121094 84.113281 L 285.820312 83.980469 L 285.480469 83.832031 C 285.351562 83.78125 285.203125 83.71875 285.042969 83.652344 C 284.882812 83.601562 284.710938 83.527344 284.527344 83.46875 C 284.34375 83.40625 284.15625 83.34375 283.953125 83.292969 C 283.757812 83.226562 283.550781 83.203125 283.34375 83.148438 C 283.242188 83.125 283.132812 83.125 283.03125 83.105469 C 282.925781 83.089844 282.820312 83.078125 282.714844 83.074219 C 282.507812 83.058594 282.296875 83.0625 282.089844 83.082031 L 281.785156 83.105469 C 281.6875 83.128906 281.589844 83.152344 281.492188 83.171875 C 281.304688 83.207031 281.121094 83.261719 280.941406 83.335938 C 280.855469 83.367188 280.765625 83.390625 280.683594 83.425781 L 280.453125 83.542969 C 280.308594 83.625 280.152344 83.671875 280.042969 83.753906 C 279.925781 83.832031 279.820312 83.894531 279.730469 83.949219 C 279.554688 84.054688 279.441406 84.113281 279.441406 84.113281 C 279.441406 84.113281 279.5 84.007812 279.613281 83.832031 C 279.671875 83.742188 279.742188 83.632812 279.832031 83.511719 C 279.9375 83.378906 280.054688 83.257812 280.183594 83.148438 L 280.398438 82.949219 C 280.484375 82.886719 280.570312 82.828125 280.664062 82.777344 C 280.851562 82.644531 281.0625 82.542969 281.277344 82.46875 L 281.628906 82.347656 C 281.75 82.316406 281.875 82.300781 282 82.28125 C 282.253906 82.242188 282.511719 82.230469 282.765625 82.246094 C 283.019531 82.265625 283.269531 82.304688 283.515625 82.363281 C 283.75 82.425781 283.980469 82.503906 284.199219 82.601562 C 284.40625 82.6875 284.605469 82.789062 284.792969 82.90625 C 284.964844 83.007812 285.125 83.121094 285.28125 83.242188 C 285.511719 83.421875 285.726562 83.625 285.917969 83.847656 C 285.992188 83.929688 286.0625 84.019531 286.121094 84.113281 Z M 286.121094 84.113281 "/>
<path style=" stroke:none;fill-rule:nonzero;fill:rgb(0%,0%,0%);fill-opacity:1;" d="M 268.410156 86.214844 C 268.410156 85.296875 267.597656 84.550781 266.597656 84.550781 C 265.59375 84.550781 264.78125 85.296875 264.78125 86.214844 C 264.78125 87.132812 265.59375 87.875 266.597656 87.875 C 267.597656 87.875 268.410156 87.132812 268.410156 86.214844 Z M 268.410156 86.214844 "/>
<path style=" stroke:none;fill-rule:nonzero;fill:rgb(0%,0%,0%);fill-opacity:1;" d="M 284.441406 86.214844 C 284.441406 85.296875 283.628906 84.550781 282.625 84.550781 C 281.621094 84.550781 280.808594 85.296875 280.808594 86.214844 C 280.808594 87.132812 281.621094 87.875 282.625 87.875 C 283.628906 87.875 284.441406 87.132812 284.441406 86.214844 Z M 284.441406 86.214844 "/>
<path style=" stroke:none;fill-rule:nonzero;fill:rgb(4.313726%,20%,25.882354%);fill-opacity:1;" d="M 78.824219 301.703125 C 78.914062 301.238281 78.960938 300.769531 78.964844 300.300781 C 78.964844 295.453125 74.4375 291.527344 68.851562 291.527344 C 63.265625 291.527344 58.734375 295.453125 58.734375 300.300781 C 58.738281 300.769531 58.785156 301.238281 58.875 301.703125 Z M 107.792969 301.703125 C 107.882812 301.238281 107.929688 300.769531 107.933594 300.300781 C 107.933594 295.453125 103.402344 291.527344 97.816406 291.527344 C 92.230469 291.527344 87.703125 295.453125 87.703125 300.300781 C 87.707031 300.769531 87.753906 301.238281 87.84375 301.703125 Z M 107.792969 301.703125 "/>
<path style=" stroke:none;fill-rule:nonzero;fill:rgb(5.882353%,71.764708%,96.470588%);fill-opacity:1;" d="M 59.5625 203.546875 C 59.5625 203.546875 54.285156 228.21875 58.445312 246.441406 C 58.636719 247.292969 58.71875 248.164062 58.699219 249.039062 C 58.570312 256.261719 57.941406 288.289062 56.847656 292.003906 C 56.847656 292.003906 71.53125 296.074219 83.621094 293.679688 C 83.621094 293.679688 82.304688 249.746094 81.46875 246.039062 C 80.769531 242.941406 78.59375 206.179688 78.714844 204.503906 Z M 59.5625 203.546875 "/>
<path style=" stroke:none;fill-rule:nonzero;fill:rgb(43.137255%,77.254903%,89.803922%);fill-opacity:1;" d="M 95.402344 97.351562 C 95.402344 87.882812 89.257812 80.210938 81.675781 80.210938 C 74.09375 80.210938 67.949219 87.882812 67.949219 97.351562 C 67.949219 103.136719 70.25 108.25 73.765625 111.351562 L 73.765625 104.753906 L 88.570312 104.753906 L 88.570312 112.167969 C 92.652344 109.199219 95.402344 103.675781 95.402344 97.351562 Z M 95.402344 97.351562 "/>
<path style=" stroke:none;fill-rule:nonzero;fill:rgb(25.098041%,71.372551%,88.627452%);fill-opacity:1;" d="M 85.625 80.933594 C 89.144531 84.039062 91.441406 89.152344 91.441406 94.9375 C 91.441406 104.402344 85.296875 112.078125 77.71875 112.078125 C 76.367188 112.074219 75.027344 111.832031 73.765625 111.351562 C 75.925781 113.335938 78.742188 114.453125 81.675781 114.488281 C 89.257812 114.488281 95.402344 106.816406 95.402344 97.351562 C 95.402344 89.601562 91.28125 83.054688 85.625 80.933594 Z M 85.625 80.933594 "/>
<path style=" stroke:none;fill-rule:nonzero;fill:rgb(7.058824%,61.56863%,89.411765%);fill-opacity:1;" d="M 88.570312 104.707031 L 93.597656 101.386719 L 93.40625 103.046875 L 88.570312 106.464844 Z M 88.570312 104.707031 "/>
<path style=" stroke:none;fill-rule:nonzero;fill:rgb(7.058824%,61.56863%,89.411765%);fill-opacity:1;" d="M 73.738281 104.578125 L 68.710938 101.257812 L 68.902344 102.917969 L 73.738281 106.335938 Z M 73.738281 104.578125 "/>
<path style="fill-rule:nonzero;fill:rgb(0%,0%,0%);fill-opacity:1;stroke-width:1.488;stroke-linecap:butt;stroke-linejoin:miter;stroke:rgb(0%,0%,0%);stroke-opacity:1;stroke-miterlimit:10;" d="M 245.273438 247.710938 C 248.214844 247.839844 276.421875 249.972656 282.9375 288.070312 C 282.996094 288.398438 282.996094 288.726562 282.9375 289.042969 C 282.199219 293.636719 276.492188 330.011719 280.078125 340.113281 C 283.804688 350.648438 302.625 363.75 324.011719 348.046875 C 327.199219 345.644531 329.179688 341.953125 329.425781 337.96875 C 329.683594 333.972656 328.171875 330.070312 325.3125 327.28125 C 316.511719 318.492188 307.265625 303.878906 304.007812 287.929688 C 299.308594 264.808594 291.46875 209.285156 245.027344 209.402344 C 192.445312 209.53125 187.617188 249.316406 187.183594 265.417969 C 186.75 281.953125 174.117188 310.136719 163.980469 325.371094 C 159.585938 331.945312 159.761719 340.558594 164.414062 346.945312 C 171.738281 356.953125 184.933594 366.269531 204.445312 347.90625 C 209.050781 343.605469 210.820312 337.078125 209.015625 331.042969 C 205.957031 321.105469 202.429688 304.5 207.773438 292.054688 C 215.894531 273.128906 210.960938 251.636719 244.804688 247.734375 C 244.957031 247.710938 245.121094 247.710938 245.273438 247.710938 Z M 245.273438 247.710938 " transform="matrix(0.333333,0,0,0.333333,0,0)"/>
<path style="fill-rule:nonzero;fill:rgb(0%,0%,0%);fill-opacity:1;stroke-width:1.488;stroke-linecap:butt;stroke-linejoin:miter;stroke:rgb(0%,0%,0%);stroke-opacity:1;stroke-miterlimit:10;" d="M 212.085938 343.230469 C 212.085938 330.140625 199.757812 319.523438 184.558594 319.523438 C 169.347656 319.523438 157.019531 330.140625 157.019531 343.230469 C 157.019531 356.320312 169.347656 366.925781 184.558594 366.925781 C 199.757812 366.925781 212.085938 356.320312 212.085938 343.230469 Z M 212.085938 343.230469 " transform="matrix(0.333333,0,0,0.333333,0,0)"/>
<path style="fill-rule:nonzero;fill:rgb(0%,0%,0%);fill-opacity:1;stroke-width:1.488;stroke-linecap:butt;stroke-linejoin:miter;stroke:rgb(0%,0%,0%);stroke-opacity:1;stroke-miterlimit:10;" d="M 212.320312 257.390625 C 212.320312 248.132812 204.714844 240.632812 195.328125 240.632812 C 185.941406 240.632812 178.324219 248.132812 178.324219 257.390625 C 178.324219 266.648438 185.941406 274.148438 195.328125 274.148438 C 204.714844 274.148438 212.320312 266.648438 212.320312 257.390625 Z M 212.320312 257.390625 " transform="matrix(0.333333,0,0,0.333333,0,0)"/>
<path style="fill-rule:nonzero;fill:rgb(0%,0%,0%);fill-opacity:1;stroke-width:1.488;stroke-linecap:butt;stroke-linejoin:miter;stroke:rgb(0%,0%,0%);stroke-opacity:1;stroke-miterlimit:10;" d="M 195.328125 283.898438 C 195.328125 275.835938 188.894531 269.296875 180.960938 269.296875 C 173.027344 269.296875 166.59375 275.835938 166.59375 283.898438 C 166.59375 291.960938 173.027344 298.5 180.960938 298.5 C 188.894531 298.5 195.328125 291.960938 195.328125 283.898438 Z M 195.328125 283.898438 " transform="matrix(0.333333,0,0,0.333333,0,0)"/>
<path style="fill-rule:nonzero;fill:rgb(0%,0%,0%);fill-opacity:1;stroke-width:2.063;stroke-linecap:butt;stroke-linejoin:miter;stroke:rgb(0%,0%,0%);stroke-opacity:1;stroke-miterlimit:10;" d="M 192.046875 316.042969 C 192.046875 304.863281 183.140625 295.804688 172.148438 295.804688 C 161.144531 295.804688 152.238281 304.863281 152.238281 316.042969 C 152.238281 327.222656 161.144531 336.28125 172.148438 336.28125 C 183.140625 336.28125 192.046875 327.222656 192.046875 316.042969 Z M 192.046875 316.042969 " transform="matrix(0.333333,0,0,0.333333,0,0)"/>
<path style="fill-rule:nonzero;fill:rgb(0%,0%,0%);fill-opacity:1;stroke-width:2.063;stroke-linecap:butt;stroke-linejoin:miter;stroke:rgb(0%,0%,0%);stroke-opacity:1;stroke-miterlimit:10;" d="M 208.335938 319.523438 C 208.335938 308.34375 199.417969 299.285156 188.425781 299.285156 C 177.421875 299.285156 168.515625 308.34375 168.515625 319.523438 C 168.515625 330.703125 177.421875 339.773438 188.425781 339.773438 C 199.417969 339.773438 208.335938 330.703125 208.335938 319.523438 Z M 208.335938 319.523438 " transform="matrix(0.333333,0,0,0.333333,0,0)"/>
<path style=" stroke:none;fill-rule:nonzero;fill:rgb(5.882353%,71.764708%,96.470588%);fill-opacity:1;" d="M 80.058594 206.296875 C 80.058594 206.296875 84.3125 245.105469 88.214844 251.46875 C 88.636719 252.148438 88.835938 252.945312 88.785156 253.746094 C 88.550781 257.347656 87.878906 265.128906 86.496094 293.695312 C 86.496094 293.695312 98.34375 297.140625 111.390625 294.746094 C 111.390625 294.746094 108.160156 253.460938 107.800781 250.585938 C 107.441406 247.714844 100.648438 202.109375 99.808594 201.511719 Z M 80.058594 206.296875 "/>
<path style="fill-rule:nonzero;fill:rgb(0%,0%,0%);fill-opacity:1;stroke-width:1.488;stroke-linecap:butt;stroke-linejoin:miter;stroke:rgb(0%,0%,0%);stroke-opacity:1;stroke-miterlimit:10;" d="M 331.03125 336.28125 C 331.03125 322.230469 319.863281 310.839844 306.082031 310.839844 C 292.3125 310.839844 281.144531 322.230469 281.144531 336.28125 C 281.144531 350.332031 292.3125 361.722656 306.082031 361.722656 C 319.863281 361.722656 331.03125 350.332031 331.03125 336.28125 Z M 331.03125 336.28125 " transform="matrix(0.333333,0,0,0.333333,0,0)"/>
<path style=" stroke:none;fill-rule:nonzero;fill:rgb(3.137255%,65.098041%,87.843138%);fill-opacity:1;" d="M 81.558594 246.039062 C 80.859375 242.941406 78.6875 210.847656 78.804688 209.171875 L 73.742188 209.171875 C 73.621094 210.847656 75.792969 242.941406 76.496094 246.039062 C 77.332031 249.746094 78.648438 293.679688 78.648438 293.679688 C 76.492188 294.03125 74.316406 294.253906 72.132812 294.351562 C 75.894531 294.542969 79.929688 294.429688 83.714844 293.679688 C 83.714844 293.679688 82.394531 249.746094 81.558594 246.039062 Z M 81.558594 246.039062 "/>
<path style="fill-rule:nonzero;fill:rgb(0%,0%,0%);fill-opacity:1;stroke-width:1.488;stroke-linecap:butt;stroke-linejoin:miter;stroke:rgb(0%,0%,0%);stroke-opacity:1;stroke-miterlimit:10;" d="M 325.078125 311.777344 C 325.078125 300.878906 317.25 292.054688 307.605469 292.054688 C 297.949219 292.054688 290.132812 300.878906 290.132812 311.777344 C 290.132812 322.664062 297.949219 331.5 307.605469 331.5 C 317.25 331.5 325.078125 322.664062 325.078125 311.777344 Z M 325.078125 311.777344 " transform="matrix(0.333333,0,0,0.333333,0,0)"/>
<path style=" stroke:none;fill-rule:nonzero;fill:rgb(43.137255%,77.254903%,89.803922%);fill-opacity:1;" d="M 109.816406 159.976562 C 109.816406 159.976562 111.476562 184.941406 109.242188 202.335938 C 109.242188 202.335938 112.953125 213.195312 108.753906 217.292969 C 108.359375 217.664062 107.773438 217.742188 107.300781 217.484375 C 106.824219 217.230469 106.570312 216.695312 106.664062 216.164062 C 107.09375 213.75 107.429688 210.449219 106.125 210.25 C 106.125 210.25 105.859375 210.839844 105.59375 211.617188 C 105.484375 211.941406 105.167969 212.15625 104.824219 212.140625 C 104.476562 212.125 104.183594 211.882812 104.101562 211.546875 C 103.332031 208.300781 103.152344 204.941406 103.570312 201.628906 C 103.570312 201.628906 100.0625 164.285156 101.496094 159.976562 Z M 109.816406 159.976562 "/>
<path style=" stroke:none;fill-rule:nonzero;fill:rgb(25.098041%,71.372551%,88.627452%);fill-opacity:1;" d="M 110.25 202.335938 C 112.484375 184.941406 110.824219 159.976562 110.824219 159.976562 L 108.910156 159.976562 C 108.910156 159.976562 108.476562 193.167969 109.890625 209.75 C 109.890625 209.75 108.183594 217.847656 108.753906 217.292969 C 112.953125 213.195312 110.25 202.335938 110.25 202.335938 Z M 110.25 202.335938 "/>
<path style=" stroke:none;fill-rule:nonzero;fill:rgb(3.137255%,65.098041%,87.843138%);fill-opacity:1;" d="M 97.164062 206.832031 C 98 207.433594 103.570312 249.5625 103.929688 252.433594 C 104.257812 255.035156 106.9375 288.273438 107.441406 295.148438 C 108.738281 295.011719 110.058594 294.824219 111.390625 294.582031 C 111.390625 294.582031 108.160156 253.628906 107.800781 250.753906 C 107.441406 247.882812 101.335938 205.90625 100.496094 205.304688 Z M 97.164062 206.832031 "/>
<path style=" stroke:none;fill-rule:nonzero;fill:rgb(5.882353%,71.764708%,96.470588%);fill-opacity:1;" d="M 78.195312 120.574219 C 78.195312 120.574219 75.03125 119.578125 73.738281 123.417969 C 73.738281 123.417969 61.597656 123.746094 55.53125 125.660156 C 55.53125 125.660156 47.074219 136.195312 37.816406 155.1875 C 38.734375 154.648438 41.074219 155.972656 41.964844 156.324219 C 45.460938 157.71875 48.417969 159.285156 50.746094 159.816406 C 50.746094 159.816406 54.921875 151.835938 57.382812 150.558594 C 57.382812 150.558594 54.734375 185.671875 47.394531 197.480469 C 47.394531 197.480469 47.710938 199.234375 51.222656 201.152344 C 51.222656 201.152344 49.308594 211.207031 67.183594 209.609375 C 67.183594 209.609375 68.140625 211.367188 79.152344 208.8125 C 90.164062 206.257812 80.238281 208.332031 80.238281 208.332031 C 80.238281 208.332031 85.347656 204.335938 92.027344 205.832031 C 98.3125 207.242188 100.21875 204.023438 104.847656 204.023438 C 109.476562 204.023438 112.03125 198.917969 112.03125 198.917969 C 112.03125 198.917969 108.359375 187.105469 105.964844 184.394531 C 103.570312 181.679688 99.261719 170.988281 100.0625 166.679688 C 100.859375 162.367188 99.9375 164.128906 99.9375 164.128906 L 112.542969 162.082031 C 112.542969 162.082031 111.527344 159.496094 110.34375 155.984375 C 109.15625 152.472656 109.714844 131.316406 103.730469 125.34375 L 91.082031 123.417969 C 91.082031 123.417969 90.015625 120.933594 84.585938 119.464844 Z M 78.195312 120.574219 "/>
<path style=" stroke:none;fill-rule:nonzero;fill:rgb(43.137255%,77.254903%,89.803922%);fill-opacity:1;" d="M 77.71875 112.078125 C 77.71875 112.078125 78.355469 120.875 76.601562 123.265625 C 76.601562 123.265625 77.117188 130.609375 81.167969 134.757812 C 81.167969 134.757812 84.738281 131.546875 87.453125 123.417969 C 87.453125 123.417969 85.21875 120.199219 85.855469 112.078125 Z M 77.71875 112.078125 "/>
<path style=" stroke:none;fill-rule:nonzero;fill:rgb(77.254903%,85.490197%,88.627452%);fill-opacity:1;" d="M 49.195312 148.644531 L 57.816406 181.679688 L 81.339844 179.125 L 71.859375 145.292969 Z M 49.195312 148.644531 "/>
<path style=" stroke:none;fill-rule:nonzero;fill:rgb(43.137255%,77.254903%,89.803922%);fill-opacity:1;" d="M 39.464844 155.253906 C 39.464844 155.253906 36.6875 162.644531 39.136719 170.25 C 39.585938 171.628906 40.753906 172.652344 42.179688 172.917969 C 47.542969 173.929688 62.324219 175.734375 75.367188 168.316406 C 75.367188 168.316406 85.902344 161.5 75.527344 158.683594 L 76.15625 160.933594 C 76.15625 160.933594 72.65625 162.570312 71.058594 158.421875 C 69.460938 154.273438 68.503906 160.816406 70.738281 163.210938 C 72.972656 165.605469 56.375 160.816406 49.035156 164.007812 C 49.035156 164.007812 49.835938 160.359375 48.402344 159.085938 Z M 39.464844 155.253906 "/>
<path style=" stroke:none;fill-rule:nonzero;fill:rgb(25.098041%,71.372551%,88.627452%);fill-opacity:1;" d="M 70.703125 157.789062 C 70.597656 157.542969 70.433594 157.328125 70.230469 157.15625 C 70.371094 157.378906 70.527344 157.589844 70.703125 157.789062 Z M 78.742188 160.125 C 78.664062 162.972656 74.332031 167.332031 74.332031 167.332031 C 60.667969 173.609375 46.191406 171.59375 40.824219 170.585938 C 40.117188 170.449219 39.464844 170.109375 38.945312 169.605469 C 39.003906 169.824219 38.992188 170.027344 39.0625 170.242188 C 39.507812 171.621094 40.675781 172.648438 42.101562 172.914062 C 47.46875 173.921875 62.25 175.726562 75.292969 168.3125 C 75.292969 168.3125 82.984375 163.332031 78.742188 160.125 Z M 85.855469 112.078125 L 83.941406 112.078125 C 83.304688 120.199219 85.539062 123.417969 85.539062 123.417969 C 83.707031 128.898438 81.492188 132.140625 80.238281 133.671875 C 80.527344 134.054688 80.835938 134.414062 81.167969 134.757812 C 81.167969 134.757812 84.738281 131.546875 87.453125 123.417969 C 87.453125 123.417969 85.21875 120.199219 85.855469 112.078125 Z M 85.855469 112.078125 "/>
<path style=" stroke:none;fill-rule:nonzero;fill:rgb(7.058824%,61.56863%,89.411765%);fill-opacity:1;" d="M 73.765625 104.753906 L 73.765625 111.351562 C 75.925781 113.335938 78.742188 114.453125 81.675781 114.488281 C 84.164062 114.46875 86.578125 113.65625 88.570312 112.167969 L 88.570312 104.753906 Z M 73.765625 104.753906 "/>
<path style="fill-rule:nonzero;fill:rgb(0%,0%,0%);fill-opacity:1;stroke-width:1.488;stroke-linecap:butt;stroke-linejoin:miter;stroke:rgb(0%,0%,0%);stroke-opacity:1;stroke-miterlimit:10;" d="M 316.464844 286.324219 C 316.464844 279.597656 311.097656 274.148438 304.488281 274.148438 C 297.878906 274.148438 292.523438 279.597656 292.523438 286.324219 C 292.523438 293.050781 297.878906 298.5 304.488281 298.5 C 311.097656 298.5 316.464844 293.050781 316.464844 286.324219 Z M 316.464844 286.324219 " transform="matrix(0.333333,0,0,0.333333,0,0)"/>
<path style="fill-rule:nonzero;fill:rgb(0%,0%,0%);fill-opacity:1;stroke-width:1.488;stroke-linecap:butt;stroke-linejoin:miter;stroke:rgb(0%,0%,0%);stroke-opacity:1;stroke-miterlimit:10;" d="M 307.605469 266.625 C 307.605469 258.820312 302.8125 252.492188 296.90625 252.492188 C 291 252.492188 286.207031 258.820312 286.207031 266.625 C 286.207031 274.417969 291 280.746094 296.90625 280.746094 C 302.8125 280.746094 307.605469 274.417969 307.605469 266.625 Z M 307.605469 266.625 " transform="matrix(0.333333,0,0,0.333333,0,0)"/>
<path style=" stroke:none;fill-rule:nonzero;fill:rgb(100%,100%,100%);fill-opacity:1;" d="M 57.515625 147.867188 L 58.882812 151.835938 L 65.269531 150.558594 L 63.996094 146.910156 Z M 57.515625 147.867188 "/>
<path style=" stroke:none;fill-rule:nonzero;fill:rgb(0%,0%,0%);fill-opacity:1;" d="M 66.863281 137.949219 C 66.863281 137.949219 67.449219 126.359375 73.738281 123.417969 C 73.738281 123.417969 64.28125 123.226562 64.015625 137.949219 Z M 66.863281 137.949219 "/>
<path style=" stroke:none;fill-rule:nonzero;fill:rgb(60.000002%,60.000002%,60.000002%);fill-opacity:1;" d="M 69.976562 141.183594 C 69.976562 138.800781 68.046875 136.871094 65.667969 136.871094 C 63.289062 136.871094 61.359375 138.800781 61.359375 141.183594 C 61.359375 143.5625 63.289062 145.492188 65.667969 145.492188 C 68.046875 145.492188 69.976562 143.5625 69.976562 141.183594 Z M 69.976562 141.183594 "/>
<path style=" stroke:none;fill-rule:nonzero;fill:rgb(0%,0%,0%);fill-opacity:1;" d="M 67.773438 141.183594 C 67.773438 140.019531 66.832031 139.074219 65.667969 139.074219 C 64.503906 139.074219 63.558594 140.019531 63.558594 141.183594 C 63.558594 142.34375 64.503906 143.289062 65.667969 143.289062 C 66.832031 143.289062 67.773438 142.34375 67.773438 141.183594 Z M 67.773438 141.183594 "/>
<path style=" stroke:none;fill-rule:nonzero;fill:rgb(0%,72.941178%,100%);fill-opacity:1;" d="M 88.570312 143.289062 L 84.585938 152.3125 L 89.128906 154.828125 L 90.445312 152.671875 L 88.171875 151.515625 L 91.082031 144.773438 Z M 88.570312 143.289062 "/>
<path style=" stroke:none;fill-rule:nonzero;fill:rgb(60.000002%,60.000002%,60.000002%);fill-opacity:1;" d="M 91.566406 151.453125 C 91.097656 151.238281 90.039062 152.554688 89.207031 154.390625 C 88.375 156.226562 88.082031 157.890625 88.554688 158.101562 C 89.023438 158.316406 90.082031 157 90.914062 155.164062 C 91.746094 153.328125 92.039062 151.664062 91.566406 151.453125 Z M 91.566406 151.453125 "/>
<path style=" stroke:none;fill-rule:nonzero;fill:rgb(0%,72.941178%,100%);fill-opacity:1;" d="M 98.824219 148.246094 L 101.152344 149.800781 L 96.710938 158.777344 L 92.957031 157.101562 L 94.273438 154.828125 L 96.011719 155.308594 Z M 98.824219 148.246094 "/>
<path style=" stroke:none;fill-rule:nonzero;fill:rgb(60.000002%,60.000002%,60.000002%);fill-opacity:1;" d="M 94.464844 152.820312 C 93.996094 152.605469 92.9375 153.921875 92.105469 155.757812 C 91.273438 157.59375 90.980469 159.257812 91.449219 159.46875 C 91.921875 159.683594 92.980469 158.367188 93.8125 156.53125 C 94.644531 154.695312 94.9375 153.035156 94.464844 152.820312 Z M 94.464844 152.820312 "/>
<path style=" stroke:none;fill-rule:nonzero;fill:rgb(0%,0%,0%);fill-opacity:1;" d="M 91.082031 123.417969 C 91.082031 123.417969 98.945312 127.417969 97.867188 136.871094 L 100.378906 137.949219 C 100.378906 137.949219 101.417969 123.488281 91.082031 123.417969 Z M 91.082031 123.417969 "/>
<path style=" stroke:none;fill-rule:nonzero;fill:rgb(60.000002%,60.000002%,60.000002%);fill-opacity:1;" d="M 91.082031 144.773438 L 88.570312 143.289062 C 88.570312 143.289062 92.359375 133.761719 99.0625 136.871094 C 105.765625 139.984375 103.359375 146.089844 101.152344 149.800781 L 98.824219 148.246094 C 98.824219 148.246094 102.65625 142.5 98.464844 140.582031 C 98.464844 140.582031 94.59375 136.871094 91.082031 144.773438 Z M 91.082031 144.773438 "/>
<path style=" stroke:none;fill-rule:nonzero;fill:rgb(3.137255%,65.098041%,87.843138%);fill-opacity:1;" d="M 73.738281 123.417969 C 73.738281 123.417969 72.609375 132.378906 76.601562 139.074219 C 76.601562 139.074219 77.4375 135.398438 81.167969 134.757812 C 78.675781 131.386719 77.101562 127.429688 76.601562 123.265625 C 76.601562 123.265625 77.683594 123.152344 77.378906 120.574219 C 77.378906 120.574219 75.347656 119.097656 73.738281 123.417969 Z M 73.738281 123.417969 "/>
<path style=" stroke:none;fill-rule:nonzero;fill:rgb(3.137255%,65.098041%,87.843138%);fill-opacity:1;" d="M 91.082031 123.417969 C 91.082031 123.417969 89.6875 134.597656 87.453125 137.949219 C 87.453125 137.949219 86.535156 134.28125 81.167969 134.757812 C 81.167969 134.757812 86.65625 127.398438 87.453125 123.417969 C 87.453125 123.417969 86.675781 123.710938 86.222656 119.984375 C 86.226562 119.984375 89.925781 120.855469 91.082031 123.417969 Z M 106.414062 185.417969 C 102.78125 181.367188 97.515625 168.398438 97.273438 167.859375 C 97.332031 167.988281 103.023438 181.28125 106.605469 185.277344 Z M 99.742188 170.523438 C 99.390625 165.695312 101.914062 156.585938 102.003906 156.195312 C 101.980469 156.292969 99.875 165.734375 100.21875 170.488281 Z M 51.171875 201.386719 C 48.851562 200.886719 47.246094 197.722656 47.179688 197.585938 L 47.101562 197.433594 L 47.222656 197.3125 C 48.445312 196.089844 50.441406 190.628906 50.460938 190.574219 C 50.386719 190.800781 48.972656 196.015625 47.683594 197.515625 C 48.023438 198.132812 49.441406 200.523438 51.273438 200.917969 Z M 51.171875 201.386719 "/>
<path style=" stroke:none;fill-rule:nonzero;fill:rgb(3.137255%,65.098041%,87.843138%);fill-opacity:1;" d="M 67.347656 210.84375 C 65.355469 210.851562 63.371094 210.550781 61.472656 209.953125 C 60.898438 209.921875 54.976562 209.535156 52.152344 205.90625 C 49.21875 202.136719 53.640625 194.570312 53.8125 194.238281 C 53.773438 194.316406 49.785156 202.085938 52.53125 205.613281 C 55.300781 209.171875 61.464844 209.472656 61.527344 209.476562 L 61.601562 209.488281 C 61.652344 209.507812 67.054688 211.449219 72.863281 209.488281 L 73.019531 209.941406 C 71.191406 210.546875 69.273438 210.851562 67.347656 210.84375 Z M 67.347656 210.84375 "/>
<path style=" stroke:none;fill-rule:nonzero;fill:rgb(3.137255%,65.098041%,87.843138%);fill-opacity:1;" d="M 73.722656 210.113281 L 73.648438 210.070312 C 70.363281 208.234375 73.054688 199.136719 73.152344 198.738281 L 73.171875 198.65625 C 73.152344 198.746094 70.949219 207.839844 73.8125 209.609375 C 75.101562 209.382812 90.152344 206.734375 96.992188 206.382812 C 97.421875 206.09375 101.253906 204.234375 103.003906 203.929688 C 102.316406 202.652344 100.28125 197.808594 100.441406 195.101562 C 100.265625 198.027344 103.554688 203.941406 103.585938 204 L 103.773438 204.332031 L 103.394531 204.355469 C 101.988281 204.445312 97.210938 206.808594 97.164062 206.832031 L 97.066406 206.859375 C 90.007812 207.210938 73.96875 210.070312 73.808594 210.097656 Z M 57.078125 147.527344 C 56.0625 145.324219 56.066406 142.789062 57.085938 140.59375 C 56.425781 142.820312 56.578125 145.210938 57.515625 147.335938 Z M 57.078125 147.527344 "/>
<path style=" stroke:none;fill-rule:nonzero;fill:rgb(0%,0%,0%);fill-opacity:1;" d="M 71.773438 95.441406 C 71.96875 95.160156 72.203125 94.90625 72.472656 94.691406 C 72.601562 94.585938 72.738281 94.488281 72.878906 94.398438 L 73.117188 94.253906 C 73.199219 94.210938 73.289062 94.167969 73.378906 94.128906 C 73.566406 94.042969 73.757812 93.972656 73.957031 93.917969 C 74.164062 93.867188 74.378906 93.835938 74.59375 93.824219 L 74.917969 93.820312 L 75.238281 93.871094 C 75.441406 93.902344 75.644531 93.960938 75.835938 94.046875 C 76.011719 94.121094 76.183594 94.210938 76.339844 94.324219 C 76.484375 94.414062 76.617188 94.519531 76.734375 94.644531 C 76.84375 94.734375 76.941406 94.835938 77.027344 94.949219 C 77.105469 95.046875 77.167969 95.136719 77.222656 95.210938 C 77.324219 95.359375 77.378906 95.441406 77.378906 95.441406 C 77.378906 95.441406 77.292969 95.382812 77.152344 95.277344 L 76.902344 95.082031 C 76.796875 95 76.683594 94.925781 76.566406 94.863281 C 76.4375 94.773438 76.304688 94.695312 76.160156 94.632812 L 75.929688 94.53125 C 75.855469 94.492188 75.773438 94.460938 75.6875 94.441406 C 75.519531 94.386719 75.34375 94.347656 75.164062 94.324219 L 74.890625 94.292969 L 74.613281 94.304688 C 74.429688 94.308594 74.242188 94.328125 74.0625 94.367188 C 73.886719 94.421875 73.699219 94.445312 73.535156 94.519531 C 73.449219 94.546875 73.367188 94.582031 73.285156 94.609375 L 73.050781 94.710938 C 72.898438 94.773438 72.761719 94.855469 72.625 94.917969 C 72.5 94.996094 72.375 95.058594 72.273438 95.121094 L 72.003906 95.289062 C 71.855469 95.382812 71.773438 95.441406 71.773438 95.441406 Z M 85.765625 95.328125 C 85.960938 95.046875 86.199219 94.792969 86.464844 94.578125 C 86.59375 94.472656 86.730469 94.375 86.875 94.285156 L 87.109375 94.140625 C 87.195312 94.09375 87.28125 94.054688 87.371094 94.011719 C 87.558594 93.929688 87.753906 93.859375 87.949219 93.804688 C 88.160156 93.753906 88.371094 93.722656 88.585938 93.710938 L 88.910156 93.707031 C 89.019531 93.722656 89.125 93.738281 89.230469 93.753906 C 89.4375 93.789062 89.636719 93.847656 89.828125 93.933594 C 90.007812 94.007812 90.175781 94.097656 90.335938 94.210938 C 90.476562 94.300781 90.609375 94.40625 90.730469 94.53125 C 90.839844 94.621094 90.9375 94.722656 91.023438 94.835938 C 91.101562 94.933594 91.164062 95.023438 91.214844 95.097656 C 91.320312 95.242188 91.375 95.328125 91.375 95.328125 C 91.375 95.328125 91.289062 95.269531 91.148438 95.164062 L 90.898438 94.96875 C 90.792969 94.886719 90.679688 94.8125 90.5625 94.746094 C 90.433594 94.660156 90.296875 94.582031 90.15625 94.519531 L 89.925781 94.417969 C 89.847656 94.378906 89.765625 94.347656 89.683594 94.328125 C 89.511719 94.273438 89.335938 94.234375 89.15625 94.210938 L 88.886719 94.179688 L 88.609375 94.1875 C 88.421875 94.195312 88.238281 94.214844 88.054688 94.253906 C 87.878906 94.308594 87.695312 94.332031 87.527344 94.402344 C 87.445312 94.433594 87.363281 94.46875 87.28125 94.492188 L 87.046875 94.597656 C 86.890625 94.660156 86.753906 94.742188 86.621094 94.804688 C 86.492188 94.882812 86.371094 94.941406 86.265625 95.007812 L 86 95.175781 C 85.847656 95.269531 85.765625 95.328125 85.765625 95.328125 Z M 85.765625 95.328125 "/>
<path style="fill-rule:nonzero;fill:rgb(0%,0%,0%);fill-opacity:1;stroke-width:1.436;stroke-linecap:butt;stroke-linejoin:miter;stroke:rgb(0%,0%,0%);stroke-opacity:1;stroke-miterlimit:10;" d="M 226.066406 288.574219 C 226.066406 287.214844 225.011719 286.113281 223.722656 286.113281 C 222.433594 286.113281 221.390625 287.214844 221.390625 288.574219 C 221.390625 289.921875 222.433594 291.023438 223.722656 291.023438 C 225.011719 291.023438 226.066406 289.921875 226.066406 288.574219 Z M 226.066406 288.574219 " transform="matrix(0.333333,0,0,0.333333,0,0)"/>
<path style="fill-rule:nonzero;fill:rgb(0%,0%,0%);fill-opacity:1;stroke-width:1.436;stroke-linecap:butt;stroke-linejoin:miter;stroke:rgb(0%,0%,0%);stroke-opacity:1;stroke-miterlimit:10;" d="M 268.042969 288.574219 C 268.042969 287.214844 267 286.113281 265.710938 286.113281 C 264.421875 286.113281 263.378906 287.214844 263.378906 288.574219 C 263.378906 289.921875 264.421875 291.023438 265.710938 291.023438 C 267 291.023438 268.042969 289.921875 268.042969 288.574219 Z M 268.042969 288.574219 " transform="matrix(0.333333,0,0,0.333333,0,0)"/>
</g>
</svg>
