<?xml version="1.0" encoding="UTF-8"?>
<svg xmlns="http://www.w3.org/2000/svg" xmlns:xlink="http://www.w3.org/1999/xlink" width="380px" height="320px" viewBox="0 0 380 320" version="1.1">
<g id="surface1">
<path style=" stroke:none;fill-rule:nonzero;fill:rgb(85.490197%,87.058824%,87.843138%);fill-opacity:1;" d="M 184.191406 12.242188 C 224.050781 23.03125 240.71875 -0.128906 277.289062 7.679688 C 317.125 16.183594 339.101562 52.574219 341.1875 56.148438 C 366.820312 100.015625 365.890625 152.199219 334.332031 178.453125 C 316.820312 193.027344 299.109375 193.09375 244.125 217.050781 C 202.527344 235.171875 182.90625 257.347656 174.320312 262.214844 C 130.566406 287.027344 80.480469 271.535156 43.660156 241.121094 C 33.414062 232.660156 -15.90625 191.46875 13.082031 131.507812 C 22.0625 112.941406 22.914062 121.414062 62.683594 69.691406 C 104.570312 15.210938 155.410156 4.453125 184.191406 12.242188 Z M 184.191406 12.242188 "/>
<path style=" stroke:none;fill-rule:nonzero;fill:rgb(52.941179%,86.666667%,99.215686%);fill-opacity:1;" d="M 294.746094 91.144531 L 359.445312 91.144531 L 359.445312 134.734375 L 294.746094 134.734375 Z M 294.746094 91.144531 "/>
<path style=" stroke:none;fill-rule:nonzero;fill:rgb(38.82353%,77.254903%,91.764706%);fill-opacity:1;" d="M 286.648438 188.179688 L 368.339844 188.179688 L 368.339844 319.839844 L 286.648438 319.839844 Z M 291 87.269531 L 291 136.550781 L 363.195312 136.550781 L 363.195312 87.269531 Z M 357.515625 132.671875 L 296.675781 132.671875 L 296.675781 91.144531 L 357.515625 91.144531 Z M 357.515625 132.671875 "/>
<path style=" stroke:none;fill-rule:nonzero;fill:rgb(38.82353%,77.254903%,91.764706%);fill-opacity:1;" d="M 321.96875 136.550781 L 333.019531 136.550781 L 333.019531 202.847656 L 321.96875 202.847656 Z M 321.96875 136.550781 "/>
<path style=" stroke:none;fill-rule:nonzero;fill:rgb(3.137255%,65.098041%,87.843138%);fill-opacity:1;" d="M 333.019531 136.550781 L 321.96875 136.550781 L 321.96875 138.800781 Z M 297.289062 195.359375 L 361.269531 195.359375 L 361.269531 229.78125 L 297.289062 229.78125 Z M 297.289062 236.960938 L 361.269531 236.960938 L 361.269531 271.382812 L 297.289062 271.382812 Z M 297.289062 278.5625 L 361.269531 278.5625 L 361.269531 312.984375 L 297.289062 312.984375 Z M 297.289062 278.5625 "/>
<path style=" stroke:none;fill-rule:nonzero;fill:rgb(7.450981%,47.843137%,62.7451%);fill-opacity:1;" d="M 333.484375 212.570312 C 333.484375 210.242188 331.601562 208.355469 329.277344 208.355469 C 326.953125 208.355469 325.070312 210.242188 325.070312 212.570312 C 325.070312 214.898438 326.953125 216.789062 329.277344 216.789062 C 331.601562 216.789062 333.484375 214.898438 333.484375 212.570312 Z M 333.484375 212.570312 "/>
<path style=" stroke:none;fill-rule:nonzero;fill:rgb(7.450981%,47.843137%,62.7451%);fill-opacity:1;" d="M 333.484375 295.773438 C 333.484375 293.445312 331.601562 291.558594 329.277344 291.558594 C 326.953125 291.558594 325.070312 293.445312 325.070312 295.773438 C 325.070312 298.101562 326.953125 299.992188 329.277344 299.992188 C 331.601562 299.992188 333.484375 298.101562 333.484375 295.773438 Z M 333.484375 295.773438 "/>
<path style=" stroke:none;fill-rule:nonzero;fill:rgb(7.450981%,47.843137%,62.7451%);fill-opacity:1;" d="M 333.484375 254.171875 C 333.484375 251.84375 331.601562 249.953125 329.277344 249.953125 C 326.953125 249.953125 325.070312 251.84375 325.070312 254.171875 C 325.070312 256.5 326.953125 258.390625 329.277344 258.390625 C 331.601562 258.390625 333.484375 256.5 333.484375 254.171875 Z M 333.484375 254.171875 "/>
<path style=" stroke:none;fill-rule:nonzero;fill:rgb(3.137255%,65.098041%,87.843138%);fill-opacity:1;" d="M 302.5 116.027344 L 305.484375 106.636719 L 305.550781 106.417969 L 305.628906 106.636719 L 309.855469 118.671875 L 309.519531 118.691406 L 313.058594 100.851562 L 313.34375 99.398438 L 313.515625 100.871094 L 316.089844 123.378906 L 315.515625 123.335938 L 319.609375 107.117188 L 319.957031 105.726562 L 320.261719 107.128906 L 322.320312 116.667969 L 321.621094 116.640625 C 323.191406 111.351562 324.828125 106.078125 326.433594 100.796875 L 326.863281 99.386719 L 327.101562 100.839844 L 330.460938 121.382812 L 329.894531 121.371094 L 332.777344 107.6875 L 332.945312 106.886719 L 333.253906 107.644531 L 336.675781 116.121094 L 336.246094 116.15625 L 339.902344 99.421875 L 340.085938 98.570312 L 340.222656 99.429688 L 343.476562 120.167969 L 339.898438 99.480469 L 340.222656 99.488281 L 336.6875 116.253906 L 336.535156 116.96875 L 336.257812 116.289062 L 332.789062 107.835938 L 333.265625 107.792969 L 330.457031 121.488281 L 330.148438 122.988281 L 329.894531 121.476562 L 326.425781 100.953125 L 327.089844 100.996094 C 325.5 106.28125 323.941406 111.578125 322.316406 116.851562 L 321.902344 118.191406 L 321.613281 116.820312 L 319.605469 107.269531 L 320.257812 107.285156 L 316.082031 123.484375 L 315.683594 125.03125 L 315.511719 123.441406 L 313.054688 100.921875 L 313.511719 100.941406 L 309.859375 118.761719 L 309.730469 119.398438 L 309.523438 118.785156 L 305.484375 106.683594 L 305.628906 106.683594 Z M 300.882812 111.910156 L 303.179688 111.839844 L 303.179688 111.980469 Z M 300.882812 111.910156 "/>
<path style=" stroke:none;fill-rule:nonzero;fill:rgb(3.137255%,65.098041%,87.843138%);fill-opacity:1;" d="M 305.472656 111.78125 L 307.769531 111.726562 L 307.769531 112.09375 L 305.472656 112.035156 Z M 310.0625 111.691406 L 312.359375 111.65625 C 312.5 111.652344 312.613281 111.765625 312.617188 111.90625 C 312.617188 112.046875 312.507812 112.160156 312.367188 112.164062 L 312.359375 112.164062 L 310.0625 112.128906 C 309.949219 112.121094 309.855469 112.027344 309.855469 111.910156 C 309.855469 111.792969 309.949219 111.695312 310.0625 111.691406 Z M 314.652344 111.621094 L 316.949219 111.589844 C 317.125 111.589844 317.269531 111.730469 317.269531 111.90625 C 317.273438 112.082031 317.132812 112.226562 316.957031 112.226562 L 316.949219 112.226562 L 314.652344 112.199219 C 314.496094 112.199219 314.367188 112.070312 314.367188 111.910156 C 314.367188 111.75 314.496094 111.621094 314.652344 111.621094 Z M 319.246094 111.578125 L 321.539062 111.566406 C 321.726562 111.566406 321.878906 111.71875 321.882812 111.90625 C 321.882812 112.097656 321.730469 112.25 321.542969 112.25 L 321.539062 112.25 L 319.246094 112.238281 C 319.070312 112.230469 318.929688 112.085938 318.929688 111.910156 C 318.929688 111.734375 319.070312 111.585938 319.246094 111.578125 Z M 323.835938 111.558594 L 326.128906 111.546875 C 326.332031 111.542969 326.492188 111.707031 326.496094 111.90625 C 326.496094 112.109375 326.335938 112.273438 326.132812 112.273438 L 326.128906 112.273438 L 323.835938 112.261719 C 323.640625 112.261719 323.484375 112.105469 323.484375 111.910156 C 323.484375 111.714844 323.640625 111.558594 323.835938 111.558594 Z M 328.425781 111.535156 L 330.71875 111.546875 C 330.921875 111.546875 331.082031 111.707031 331.082031 111.910156 C 331.082031 112.109375 330.921875 112.273438 330.71875 112.273438 L 328.425781 112.285156 C 328.289062 112.289062 328.15625 112.222656 328.085938 112.101562 C 328.015625 111.984375 328.015625 111.835938 328.082031 111.71875 C 328.152344 111.597656 328.285156 111.527344 328.421875 111.535156 Z M 333.015625 111.558594 L 335.308594 111.570312 C 335.496094 111.570312 335.648438 111.722656 335.648438 111.910156 C 335.648438 112.097656 335.496094 112.25 335.308594 112.25 L 333.015625 112.261719 C 332.886719 112.269531 332.761719 112.203125 332.695312 112.09375 C 332.628906 111.980469 332.628906 111.839844 332.695312 111.730469 C 332.761719 111.617188 332.882812 111.550781 333.011719 111.558594 Z M 337.605469 111.578125 L 339.898438 111.589844 C 340.074219 111.589844 340.21875 111.734375 340.21875 111.910156 C 340.21875 112.085938 340.074219 112.226562 339.898438 112.226562 L 337.605469 112.238281 C 337.484375 112.246094 337.371094 112.183594 337.308594 112.078125 C 337.242188 111.976562 337.242188 111.847656 337.304688 111.742188 C 337.367188 111.636719 337.480469 111.574219 337.601562 111.578125 Z M 342.195312 111.625 L 344.492188 111.65625 C 344.628906 111.65625 344.742188 111.769531 344.742188 111.910156 C 344.742188 112.046875 344.628906 112.160156 344.492188 112.160156 L 342.195312 112.195312 C 342.039062 112.195312 341.910156 112.070312 341.90625 111.914062 C 341.902344 111.757812 342.027344 111.625 342.1875 111.625 Z M 346.785156 111.691406 L 349.082031 111.730469 L 346.785156 112.125 C 346.667969 112.128906 346.566406 112.03125 346.566406 111.914062 C 346.5625 111.792969 346.660156 111.695312 346.777344 111.691406 Z M 351.375 111.789062 L 353.671875 111.84375 L 351.375 112.03125 Z M 338.625 126.292969 C 339.40625 126.03125 340.226562 125.902344 341.050781 125.917969 C 341.875 125.902344 342.695312 126.027344 343.476562 126.292969 C 342.695312 126.554688 341.875 126.683594 341.050781 126.667969 C 340.226562 126.683594 339.40625 126.554688 338.625 126.292969 Z M 345.09375 126.292969 C 345.875 126.03125 346.695312 125.902344 347.519531 125.917969 C 348.34375 125.902344 349.164062 126.027344 349.945312 126.292969 C 349.164062 126.554688 348.34375 126.683594 347.519531 126.667969 C 346.695312 126.683594 345.875 126.554688 345.09375 126.292969 Z M 351.539062 126.292969 C 352.320312 126.03125 353.144531 125.902344 353.964844 125.917969 C 354.789062 125.902344 355.613281 126.027344 356.394531 126.292969 C 355.613281 126.554688 354.789062 126.683594 353.964844 126.667969 C 353.144531 126.683594 352.320312 126.554688 351.539062 126.292969 Z M 351.539062 126.292969 "/>
<path style=" stroke:none;fill-rule:nonzero;fill:rgb(52.941179%,86.666667%,99.215686%);fill-opacity:1;" d="M 45.871094 319.25 L 13.078125 319.25 L 4.289062 261.433594 L 54.660156 261.433594 Z M 45.871094 319.25 "/>
<path style=" stroke:none;fill-rule:nonzero;fill:rgb(7.450981%,47.843137%,62.7451%);fill-opacity:1;" d="M 3.285156 255.671875 L 55.664062 255.671875 C 57.3125 255.671875 58.648438 257.011719 58.648438 258.664062 C 58.648438 260.3125 57.3125 261.652344 55.664062 261.652344 L 3.285156 261.652344 C 1.636719 261.652344 0.300781 260.3125 0.300781 258.664062 C 0.300781 257.011719 1.636719 255.671875 3.285156 255.671875 Z M 3.285156 255.671875 "/>
<path style=" stroke:none;fill-rule:nonzero;fill:rgb(3.137255%,65.098041%,87.843138%);fill-opacity:1;" d="M 12.398438 267.875 L 13.296875 273.476562 L 14.148438 279.085938 L 15.773438 290.308594 L 17.292969 301.550781 L 18.015625 307.175781 L 18.6875 312.808594 L 17.789062 307.207031 L 16.9375 301.601562 L 15.3125 290.375 L 13.792969 279.132812 L 13.070312 273.507812 Z M 45.878906 267.875 L 45.289062 273.507812 L 44.652344 279.132812 L 43.300781 290.371094 L 41.84375 301.597656 L 41.074219 307.207031 L 40.261719 312.808594 L 40.847656 307.179688 L 41.488281 301.554688 L 42.835938 290.3125 L 44.296875 279.085938 L 45.0625 273.476562 Z M 28.933594 267.875 L 29.046875 273.460938 L 29.113281 279.042969 L 29.167969 290.210938 L 29.113281 301.378906 L 29.046875 306.960938 L 28.933594 312.542969 L 28.816406 306.960938 L 28.753906 301.378906 L 28.699219 290.210938 L 28.753906 279.042969 L 28.820312 273.460938 Z M 28.933594 267.875 "/>
<path style=" stroke:none;fill-rule:nonzero;fill:rgb(3.137255%,65.098041%,87.843138%);fill-opacity:1;" d="M 10.597656 274.855469 L 15.316406 274.742188 L 20.035156 274.675781 L 29.472656 274.625 L 38.910156 274.675781 L 43.632812 274.742188 L 48.351562 274.855469 L 43.632812 274.972656 L 38.910156 275.039062 L 29.472656 275.089844 L 20.035156 275.035156 L 15.316406 274.972656 Z M 13.746094 292.234375 C 16.308594 292.136719 18.875 292.09375 21.441406 292.054688 L 29.136719 292 L 36.832031 292.054688 C 39.398438 292.09375 41.964844 292.136719 44.53125 292.234375 C 41.964844 292.332031 39.398438 292.378906 36.832031 292.414062 L 29.136719 292.46875 L 21.441406 292.414062 C 18.875 292.378906 16.308594 292.332031 13.746094 292.234375 Z M 16.667969 309.539062 C 18.792969 309.441406 20.917969 309.398438 23.042969 309.359375 L 29.417969 309.304688 L 35.792969 309.359375 C 37.917969 309.398438 40.046875 309.441406 42.171875 309.539062 C 40.046875 309.636719 37.917969 309.683594 35.792969 309.71875 L 29.417969 309.773438 L 23.042969 309.71875 C 20.917969 309.683594 18.792969 309.636719 16.667969 309.539062 Z M 16.667969 309.539062 "/>
<path style=" stroke:none;fill-rule:nonzero;fill:rgb(6.27451%,25.882354%,32.941177%);fill-opacity:1;" d="M 117.789062 172.03125 L 116.660156 303.230469 C 116.660156 303.230469 110.171875 309.171875 100.4375 303.230469 L 95.675781 194.652344 L 91.128906 194.371094 L 85.855469 303.230469 C 85.855469 303.230469 77.546875 309.171875 69.636719 303.230469 L 70.671875 172.03125 Z M 117.789062 172.03125 "/>
<path style=" stroke:none;fill-rule:nonzero;fill:rgb(3.921569%,19.215687%,24.705882%);fill-opacity:1;" d="M 107.613281 195.609375 L 107.644531 196.734375 L 107.605469 196.734375 Z M 107.703125 198.976562 L 107.753906 201.21875 L 107.585938 201.21875 L 107.59375 198.976562 Z M 107.804688 203.460938 L 107.855469 205.699219 L 107.574219 205.703125 L 107.582031 203.460938 Z M 107.90625 207.941406 L 107.953125 210.183594 L 107.566406 210.1875 L 107.570312 207.945312 Z M 107.992188 212.425781 L 108.03125 214.667969 L 107.578125 214.671875 L 107.574219 212.429688 Z M 108.070312 216.910156 L 108.113281 219.152344 L 107.589844 219.15625 L 107.585938 216.914062 Z M 108.152344 221.394531 L 108.191406 223.636719 L 107.601562 223.640625 L 107.59375 221.398438 Z M 108.230469 225.875 L 108.261719 228.117188 L 107.621094 228.125 L 107.605469 225.882812 Z M 108.289062 230.359375 L 108.316406 232.601562 L 107.652344 232.609375 L 107.636719 230.367188 Z M 108.34375 234.84375 L 108.375 237.085938 L 107.6875 237.09375 L 107.671875 234.851562 Z M 108.402344 239.328125 L 108.429688 241.570312 L 107.722656 241.578125 L 107.703125 239.335938 Z M 108.457031 243.8125 L 108.484375 246.054688 L 107.753906 246.0625 L 107.738281 243.820312 Z M 107.769531 248.304688 L 108.515625 248.296875 L 108.539062 250.539062 L 107.792969 250.546875 Z M 108.554688 252.78125 L 108.570312 255.023438 L 107.847656 255.027344 L 107.820312 252.789062 Z M 108.585938 257.265625 L 108.605469 259.503906 L 107.90625 259.511719 L 107.878906 257.269531 Z M 108.621094 261.75 L 108.636719 263.988281 L 107.960938 263.996094 L 107.933594 261.753906 Z M 108.652344 266.230469 L 108.671875 268.472656 L 108.019531 268.480469 L 107.988281 266.238281 Z M 108.6875 270.714844 L 108.703125 272.957031 L 108.074219 272.964844 L 108.046875 270.722656 Z M 108.707031 275.199219 L 108.714844 277.441406 L 108.15625 277.449219 L 108.117188 275.207031 Z M 108.71875 279.683594 L 108.722656 281.925781 L 108.234375 281.929688 L 108.195312 279.691406 Z M 108.730469 284.167969 L 108.734375 286.410156 L 108.3125 286.414062 L 108.273438 284.171875 Z M 108.738281 288.652344 L 108.738281 290.894531 L 108.398438 290.898438 L 108.351562 288.65625 Z M 108.734375 293.136719 L 108.726562 295.378906 L 108.5 295.382812 L 108.449219 293.140625 Z M 108.722656 297.621094 L 108.714844 299.863281 L 108.601562 299.867188 L 108.550781 297.625 Z M 108.699219 302.105469 L 108.691406 303.230469 L 108.664062 302.105469 Z M 108.699219 302.105469 "/>
<path style=" stroke:none;fill-rule:nonzero;fill:rgb(10.588235%,11.372549%,11.764706%);fill-opacity:1;" d="M 118.164062 180.867188 L 71.003906 180.867188 L 71.003906 175.917969 L 118.164062 175.917969 Z M 118.164062 180.867188 "/>
<path style=" stroke:none;fill-rule:nonzero;fill:rgb(30.980393%,61.56863%,72.941178%);fill-opacity:1;" d="M 109.75 99.6875 L 106.328125 97.988281 L 87.070312 97.851562 L 79.417969 99.449219 L 79.417969 175.917969 L 108.140625 175.917969 Z M 109.75 99.6875 "/>
<path style=" stroke:none;fill-rule:nonzero;fill:rgb(54.11765%,85.09804%,96.470588%);fill-opacity:1;" d="M 101.921875 90.320312 L 102.300781 92.789062 L 97.992188 102.359375 L 95.453125 102.359375 L 91.097656 92.789062 L 91.597656 90.640625 Z M 101.921875 90.320312 "/>
<path style=" stroke:none;fill-rule:nonzero;fill:rgb(54.11765%,85.09804%,96.470588%);fill-opacity:1;" d="M 111.300781 68.71875 C 111.300781 55.894531 104.667969 45.496094 96.488281 45.496094 C 88.308594 45.496094 81.675781 55.894531 81.675781 68.71875 C 81.675781 81.542969 88.308594 91.941406 96.488281 91.941406 C 104.667969 91.941406 111.300781 81.542969 111.300781 68.71875 Z M 111.300781 68.71875 "/>
<path style=" stroke:none;fill-rule:nonzero;fill:rgb(54.11765%,85.09804%,96.470588%);fill-opacity:1;" d="M 112.824219 67.148438 C 111.753906 66.929688 110.539062 68.433594 110.113281 70.515625 C 109.683594 72.59375 110.207031 74.457031 111.277344 74.679688 C 112.347656 74.898438 113.5625 73.394531 113.988281 71.3125 C 114.414062 69.234375 113.894531 67.371094 112.824219 67.148438 Z M 112.824219 67.148438 "/>
<path style=" stroke:none;fill-rule:nonzero;fill:rgb(2.352941%,39.215687%,52.941179%);fill-opacity:1;" d="M 106.539062 54.828125 C 106.539062 54.828125 92.992188 55.023438 92.996094 50.585938 C 92.996094 50.585938 82.734375 48.699219 84.003906 70.476562 C 84.003906 70.476562 77.125 67.765625 78.1875 56.949219 C 78.1875 56.949219 81.675781 39.984375 102.730469 44.753906 C 102.730469 44.753906 116.035156 48.453125 111.285156 67.757812 C 111.285156 67.757812 107.429688 59.183594 106.539062 54.828125 Z M 106.539062 54.828125 "/>
<path style=" stroke:none;fill-rule:nonzero;fill:rgb(0.784314%,0.784314%,0.784314%);fill-opacity:1;" d="M 108.023438 67.128906 C 107.148438 67 106.335938 66.808594 105.523438 66.742188 C 104.710938 66.605469 103.882812 66.742188 103.15625 67.128906 C 103.394531 66.726562 103.769531 66.429688 104.214844 66.289062 C 104.652344 66.148438 105.117188 66.101562 105.578125 66.15625 C 106.46875 66.238281 107.316406 66.578125 108.023438 67.128906 Z M 94.519531 67.128906 C 93.640625 66.886719 92.746094 66.71875 91.839844 66.628906 C 91.40625 66.605469 90.972656 66.625 90.542969 66.695312 C 90.097656 66.789062 89.664062 66.933594 89.253906 67.128906 C 89.550781 66.734375 89.953125 66.429688 90.414062 66.253906 C 90.882812 66.085938 91.382812 66.015625 91.878906 66.042969 C 92.851562 66.109375 93.777344 66.492188 94.519531 67.128906 Z M 94.519531 67.128906 "/>
<path style=" stroke:none;fill-rule:nonzero;fill:rgb(0.784314%,0.784314%,0.784314%);fill-opacity:1;" d="M 106.328125 71.609375 C 106.328125 70.597656 105.878906 69.777344 105.324219 69.777344 C 104.769531 69.777344 104.316406 70.597656 104.316406 71.609375 C 104.316406 72.617188 104.769531 73.4375 105.324219 73.4375 C 105.878906 73.4375 106.328125 72.617188 106.328125 71.609375 Z M 106.328125 71.609375 "/>
<path style=" stroke:none;fill-rule:nonzero;fill:rgb(0.784314%,0.784314%,0.784314%);fill-opacity:1;" d="M 92.890625 71.609375 C 92.890625 70.597656 92.441406 69.777344 91.886719 69.777344 C 91.332031 69.777344 90.882812 70.597656 90.882812 71.609375 C 90.882812 72.617188 91.332031 73.4375 91.886719 73.4375 C 92.441406 73.4375 92.890625 72.617188 92.890625 71.609375 Z M 92.890625 71.609375 "/>
<path style=" stroke:none;fill-rule:nonzero;fill:rgb(3.137255%,65.098041%,87.843138%);fill-opacity:1;" d="M 82.398438 75.898438 C 100.367188 71.789062 110.578125 75.898438 110.578125 75.898438 C 108.648438 85.210938 103.070312 91.941406 96.488281 91.941406 C 89.90625 91.941406 84.328125 85.210938 82.398438 75.898438 Z M 82.398438 75.898438 "/>
<path style=" stroke:none;fill-rule:nonzero;fill:rgb(8.235294%,46.666667%,60.784316%);fill-opacity:1;" d="M 86.480469 75.078125 C 85.273438 73.890625 84.144531 72.621094 83.101562 71.285156 C 82.039062 69.964844 81.0625 68.578125 80.179688 67.128906 C 81.390625 68.316406 82.519531 69.582031 83.5625 70.921875 C 84.625 72.242188 85.597656 73.628906 86.480469 75.078125 Z M 86.480469 75.078125 "/>
<path style=" stroke:none;fill-rule:nonzero;fill:rgb(23.529412%,52.156866%,62.7451%);fill-opacity:1;" d="M 106.992188 98.304688 L 101.492188 107.433594 L 96.660156 102.132812 L 98.5 99.46875 L 106.328125 97.96875 Z M 106.992188 98.304688 "/>
<path style=" stroke:none;fill-rule:nonzero;fill:rgb(23.529412%,52.156866%,62.7451%);fill-opacity:1;" d="M 86.230469 98.027344 L 87.679688 97.738281 L 94.898438 99.46875 L 96.738281 102.132812 L 91.902344 107.433594 Z M 86.230469 98.027344 "/>
<path style=" stroke:none;fill-rule:nonzero;fill:rgb(75.294119%,85.09804%,88.627452%);fill-opacity:1;" d="M 94.730469 106.253906 L 91.128906 154.21875 L 95.316406 158.390625 L 100.222656 154.359375 L 99.296875 105.707031 Z M 94.730469 106.253906 "/>
<path style=" stroke:none;fill-rule:nonzero;fill:rgb(63.529414%,75.686276%,80.000001%);fill-opacity:1;" d="M 99.304688 106.289062 L 96.738281 108.644531 L 94.6875 106.804688 L 94.730469 106.253906 L 99.296875 105.707031 Z M 99.304688 106.289062 "/>
<path style=" stroke:none;fill-rule:nonzero;fill:rgb(95.686275%,95.686275%,95.686275%);fill-opacity:1;" d="M 66.304688 108.339844 C 65.742188 107.675781 64.785156 107.511719 64.035156 107.957031 C 63.285156 108.402344 62.964844 109.320312 63.273438 110.136719 C 65.679688 116.382812 69.097656 127.679688 70.09375 143.246094 C 70.9375 157.109375 69.644531 171.019531 66.261719 184.492188 L 56.835938 222.574219 L 88.449219 224.273438 L 86.191406 144.746094 C 86.191406 144.746094 74.660156 118.417969 66.304688 108.339844 Z M 124.824219 106.855469 C 124.824219 106.855469 118.410156 120.175781 117.941406 145.445312 C 117.734375 158.863281 119.28125 172.246094 122.539062 185.257812 L 131.773438 222.574219 L 100.164062 224.273438 L 102.421875 144.746094 C 102.421875 144.746094 117.574219 105.636719 124.824219 106.855469 Z M 124.824219 106.855469 "/>
<path style=" stroke:none;fill-rule:nonzero;fill:rgb(95.686275%,95.686275%,95.686275%);fill-opacity:1;" d="M 109.75 99.6875 C 109.75 99.6875 124.824219 102.359375 136.832031 119.296875 L 138.667969 100.953125 L 149.386719 100.953125 L 149.386719 138.101562 C 149.386719 138.101562 144.605469 154.5 120.898438 121.347656 Z M 109.75 99.6875 "/>
<path style=" stroke:none;fill-rule:nonzero;fill:rgb(3.137255%,65.098041%,87.843138%);fill-opacity:1;" d="M 143.683594 97.949219 C 143.445312 96.160156 142.253906 94.640625 140.570312 93.992188 C 140.570312 93.992188 145.226562 92.507812 145.578125 90.597656 C 145.769531 89.992188 145.488281 89.339844 144.917969 89.066406 C 144.328125 88.789062 143.636719 88.84375 143.097656 89.210938 L 137.609375 92.789062 C 137.609375 95.195312 138.261719 97.554688 139.492188 99.617188 L 140.289062 100.953125 L 147.132812 100.953125 C 151.929688 95.546875 148.683594 88.902344 148.683594 88.902344 C 147.765625 86.992188 146.214844 87.699219 146.214844 87.699219 C 145.664062 86.894531 144.589844 86.648438 143.746094 87.132812 C 143.113281 85.648438 141.277344 86.636719 141.277344 86.636719 C 141.699219 75.117188 139.371094 78.367188 139.371094 78.367188 L 138.527344 88.265625 L 137.609375 92.789062 "/>
<path style=" stroke:none;fill-rule:nonzero;fill:rgb(8.235294%,46.666667%,60.784316%);fill-opacity:1;" d="M 143.683594 97.949219 C 143.542969 97.082031 143.167969 96.269531 142.597656 95.605469 C 142.03125 94.960938 141.316406 94.460938 140.515625 94.15625 L 140.519531 93.824219 C 141.496094 93.476562 142.441406 93.039062 143.339844 92.523438 C 143.78125 92.269531 144.195312 91.976562 144.582031 91.644531 C 144.953125 91.355469 145.214844 90.949219 145.324219 90.492188 C 145.4375 90.074219 145.273438 89.628906 144.914062 89.386719 C 144.527344 89.15625 144.0625 89.109375 143.640625 89.265625 C 143.421875 89.355469 143.210938 89.46875 143.019531 89.613281 L 141.027344 90.890625 L 138.375 92.59375 L 138.042969 92.804688 L 137.875 92.914062 L 137.792969 92.964844 L 137.75 92.992188 L 137.746094 92.996094 C 137.71875 93.042969 137.957031 92.605469 137.859375 92.792969 L 137.859375 92.828125 C 137.855469 93.085938 137.855469 93.347656 137.867188 93.605469 C 137.890625 94.121094 137.941406 94.636719 138.023438 95.148438 C 138.191406 96.175781 138.476562 97.183594 138.867188 98.148438 C 139.292969 99.105469 139.765625 100.042969 140.289062 100.953125 C 139.679688 100.089844 139.132812 99.183594 138.648438 98.246094 C 138.183594 97.285156 137.84375 96.269531 137.632812 95.222656 C 137.527344 94.695312 137.449219 94.167969 137.40625 93.632812 C 137.382812 93.367188 137.371094 93.097656 137.363281 92.832031 L 137.363281 92.804688 L 137.359375 92.792969 C 137.261719 92.976562 137.496094 92.535156 137.476562 92.578125 L 137.480469 92.574219 L 137.519531 92.546875 L 137.605469 92.492188 L 137.769531 92.386719 L 138.097656 92.167969 L 140.726562 90.425781 L 142.042969 89.554688 L 142.699219 89.121094 C 142.929688 88.949219 143.183594 88.8125 143.457031 88.714844 C 144.042969 88.511719 144.691406 88.585938 145.214844 88.917969 C 145.492188 89.09375 145.699219 89.355469 145.804688 89.667969 C 145.894531 89.960938 145.910156 90.273438 145.851562 90.578125 C 145.71875 91.15625 145.390625 91.667969 144.921875 92.027344 C 144.507812 92.382812 144.058594 92.691406 143.578125 92.945312 C 142.632812 93.4375 141.644531 93.84375 140.625 94.15625 L 140.628906 93.824219 C 141.472656 94.171875 142.210938 94.742188 142.757812 95.476562 C 143.03125 95.832031 143.25 96.226562 143.402344 96.648438 C 143.554688 97.066406 143.648438 97.503906 143.683594 97.949219 Z M 143.683594 97.949219 "/>
<path style=" stroke:none;fill-rule:nonzero;fill:rgb(2.352941%,39.215687%,52.941179%);fill-opacity:1;" d="M 116.660156 303.230469 L 123.300781 306.714844 C 124.800781 307.507812 126.523438 307.761719 128.1875 307.433594 C 131.597656 306.742188 137.539062 306.320312 137.890625 311.644531 L 100.933594 311.644531 C 100.933594 311.644531 99.523438 304.503906 100.4375 303.230469 Z M 116.660156 303.230469 "/>
<path style=" stroke:none;fill-rule:nonzero;fill:rgb(10.588235%,11.372549%,11.764706%);fill-opacity:1;" d="M 137.890625 314.402344 L 100.933594 314.402344 L 100.933594 311.644531 L 137.890625 311.644531 Z M 137.890625 314.402344 "/>
<path style=" stroke:none;fill-rule:nonzero;fill:rgb(2.352941%,39.215687%,52.941179%);fill-opacity:1;" d="M 69.636719 303.230469 L 62.996094 306.714844 C 61.496094 307.507812 59.773438 307.761719 58.109375 307.433594 C 54.699219 306.742188 48.753906 306.320312 48.40625 311.644531 L 85.363281 311.644531 C 85.363281 311.644531 86.773438 304.503906 85.859375 303.230469 Z M 69.636719 303.230469 "/>
<path style=" stroke:none;fill-rule:nonzero;fill:rgb(10.588235%,11.372549%,11.764706%);fill-opacity:1;" d="M 48.40625 311.644531 L 85.363281 311.644531 L 85.363281 314.402344 L 48.40625 314.402344 Z M 48.40625 311.644531 "/>
<path style=" stroke:none;fill-rule:nonzero;fill:rgb(8.235294%,46.666667%,60.784316%);fill-opacity:1;" d="M 90.210938 148.84375 C 90.210938 148.84375 93.175781 147.996094 98.957031 143.542969 L 102.515625 142.15625 C 102.515625 142.15625 101.425781 146.230469 99.449219 147.359375 L 97.476562 148.492188 Z M 90.210938 148.84375 "/>
<path style=" stroke:none;fill-rule:nonzero;fill:rgb(54.11765%,85.09804%,96.470588%);fill-opacity:1;" d="M 82.09375 70.8125 C 81.765625 68.621094 80.566406 66.988281 79.414062 67.160156 C 78.261719 67.332031 77.589844 69.246094 77.914062 71.433594 C 78.238281 73.625 79.4375 75.257812 80.59375 75.085938 C 81.746094 74.914062 82.417969 73 82.09375 70.8125 Z M 82.09375 70.8125 "/>
<path style=" stroke:none;fill-rule:nonzero;fill:rgb(30.980393%,61.56863%,72.941178%);fill-opacity:1;" d="M 87.070312 97.851562 L 91.097656 92.789062 L 96.738281 100.953125 L 91.902344 106.253906 Z M 87.070312 97.851562 "/>
<path style=" stroke:none;fill-rule:nonzero;fill:rgb(30.980393%,61.56863%,72.941178%);fill-opacity:1;" d="M 106.328125 97.96875 L 102.300781 92.789062 L 96.660156 100.953125 L 101.492188 106.253906 Z M 106.328125 97.96875 "/>
<path style=" stroke:none;fill-rule:nonzero;fill:rgb(75.294119%,85.09804%,88.627452%);fill-opacity:1;" d="M 100.222656 104.859375 L 96.738281 108.058594 L 93.175781 104.859375 L 96.738281 100.953125 Z M 100.222656 104.859375 "/>
<path style=" stroke:none;fill-rule:nonzero;fill:rgb(80.784315%,80.784315%,80.784315%);fill-opacity:1;" d="M 109.75 99.6875 L 122.917969 112.335938 L 116.304688 111.851562 L 119.6875 119.753906 L 102.421875 144.746094 C 102.421875 144.746094 102.160156 133.902344 109.75 99.6875 Z M 109.75 99.6875 "/>
<path style=" stroke:none;fill-rule:nonzero;fill:rgb(3.137255%,65.098041%,87.843138%);fill-opacity:1;" d="M 102.273438 92.582031 C 108.539062 94.007812 112.976562 97.207031 115.484375 102.109375 C 120.769531 112.417969 116.25 127.710938 114.050781 133.832031 C 113.804688 134.539062 113.535156 135.238281 113.25 135.933594 C 113.117188 136.285156 113.035156 136.480469 113.023438 136.5 L 114.097656 136.96875 C 114.128906 136.910156 114.191406 136.75 114.292969 136.511719 C 114.480469 136.0625 114.773438 135.320312 115.140625 134.34375 C 117.402344 128.15625 122.121094 112.488281 116.53125 101.570312 C 113.816406 96.265625 108.878906 92.824219 102.085938 91.363281 Z M 102.273438 92.582031 "/>
<path style=" stroke:none;fill-rule:nonzero;fill:rgb(52.941179%,86.666667%,99.215686%);fill-opacity:1;" d="M 117.257812 138.222656 C 117.257812 135.679688 115.203125 133.621094 112.664062 133.621094 C 110.128906 133.621094 108.074219 135.679688 108.074219 138.222656 C 108.074219 140.761719 110.128906 142.824219 112.664062 142.824219 C 115.203125 142.824219 117.257812 140.761719 117.257812 138.222656 Z M 117.257812 138.222656 "/>
<path style=" stroke:none;fill-rule:nonzero;fill:rgb(3.137255%,65.098041%,87.843138%);fill-opacity:1;" d="M 115.027344 138.222656 C 115.027344 136.914062 113.96875 135.855469 112.664062 135.855469 C 111.359375 135.855469 110.304688 136.914062 110.304688 138.222656 C 110.304688 139.53125 111.359375 140.589844 112.664062 140.589844 C 113.96875 140.589844 115.027344 139.53125 115.027344 138.222656 Z M 115.027344 138.222656 "/>
<path style=" stroke:none;fill-rule:nonzero;fill:rgb(51.764709%,82.352942%,93.725491%);fill-opacity:1;" d="M 92.398438 170.050781 L 120.1875 170.050781 L 132.601562 122.550781 L 104.386719 120.527344 Z M 92.398438 170.050781 "/>
<path style=" stroke:none;fill-rule:nonzero;fill:rgb(3.137255%,65.098041%,87.843138%);fill-opacity:1;" d="M 89.46875 148.84375 L 105.003906 148.136719 C 105.898438 148.085938 106.765625 148.464844 107.335938 149.15625 C 107.90625 149.847656 108.117188 150.769531 107.902344 151.644531 C 107.015625 154.902344 102.441406 158.609375 88.511719 156.753906 Z M 89.46875 148.84375 "/>
<path style=" stroke:none;fill-rule:nonzero;fill:rgb(80.784315%,80.784315%,80.784315%);fill-opacity:1;" d="M 70.023438 142.253906 L 86.207031 145.34375 L 86.488281 155.199219 C 80.019531 154.925781 74.714844 154.519531 70.363281 154.03125 C 70.449219 150.101562 70.335938 146.167969 70.023438 142.253906 Z M 70.023438 142.253906 "/>
<path style=" stroke:none;fill-rule:nonzero;fill:rgb(80.784315%,80.784315%,80.784315%);fill-opacity:1;" d="M 70.175781 144.667969 L 86.308594 148.90625 L 86.589844 158.738281 C 80.035156 158.464844 74.703125 157.171875 70.308594 156.675781 C 70.476562 152.113281 70.390625 148.695312 70.175781 144.667969 Z M 70.175781 144.667969 "/>
<path style=" stroke:none;fill-rule:nonzero;fill:rgb(95.686275%,95.686275%,95.686275%);fill-opacity:1;" d="M 79.417969 99.449219 L 73.640625 100.546875 C 66.640625 101.792969 60.597656 106.179688 57.226562 112.449219 C 56.886719 113.105469 56.574219 113.777344 56.292969 114.46875 C 52.449219 123.933594 46.804688 136.652344 48.300781 147.15625 C 48.507812 148.644531 49.382812 149.953125 50.675781 150.714844 C 54.171875 152.742188 63.527344 155.847656 88.449219 157.046875 L 89.578125 147.996094 L 63.195312 141.070312 L 67.710938 128.488281 L 74.617188 119.722656 Z M 79.417969 99.449219 "/>
<path style=" stroke:none;fill-rule:nonzero;fill:rgb(80.784315%,80.784315%,80.784315%);fill-opacity:1;" d="M 79.417969 99.449219 L 68.699219 111.664062 L 75.328125 111.664062 L 71.378906 119.296875 L 86.191406 144.746094 C 86.191406 144.746094 88.164062 133.664062 79.417969 99.449219 Z M 79.417969 99.449219 "/>
<path style=" stroke:none;fill-rule:nonzero;fill:rgb(3.137255%,65.098041%,87.843138%);fill-opacity:1;" d="M 91.105469 92.757812 C 89.234375 93.355469 82.105469 96.035156 81.839844 102.433594 L 80.671875 102.382812 C 80.996094 94.394531 90.523438 91.722656 91.398438 91.492188 Z M 91.105469 92.757812 "/>
<path style=" stroke:none;fill-rule:nonzero;fill:rgb(9.803922%,38.039216%,48.627451%);fill-opacity:1;" d="M 71.582031 131.429688 C 71.222656 131.429688 70.867188 131.382812 70.519531 131.285156 C 70.21875 131.191406 70.042969 130.871094 70.128906 130.5625 C 70.214844 130.257812 70.527344 130.074219 70.835938 130.148438 C 72.6875 130.667969 74.546875 129.160156 76.167969 126.992188 C 75.269531 124.558594 74.621094 122.039062 74.222656 119.472656 C 74.160156 118.9375 72.835938 107.058594 77.222656 103.222656 C 78.585938 102.070312 80.445312 101.699219 82.144531 102.246094 C 82.683594 102.304688 83.171875 102.59375 83.480469 103.039062 C 85.035156 105.074219 84.476562 110.269531 81.816406 118.492188 C 80.734375 121.539062 79.285156 124.441406 77.503906 127.140625 C 78.292969 128.917969 79.03125 129.660156 79.53125 129.964844 C 79.753906 130.136719 80.035156 130.207031 80.3125 130.164062 C 80.613281 130.066406 80.9375 130.222656 81.054688 130.519531 C 81.167969 130.808594 81.03125 131.136719 80.746094 131.261719 C 80.179688 131.445312 79.554688 131.367188 79.050781 131.046875 C 78.003906 130.359375 77.183594 129.371094 76.703125 128.210938 C 75.210938 130.0625 73.46875 131.429688 71.582031 131.429688 Z M 80.464844 103.199219 C 79.558594 103.183594 78.675781 103.507812 77.996094 104.109375 C 74.074219 107.539062 75.375 119.1875 75.386719 119.304688 C 75.738281 121.515625 76.273438 123.691406 76.980469 125.816406 C 78.5 123.394531 79.746094 120.8125 80.703125 118.117188 C 84.082031 107.664062 83.152344 104.640625 82.59375 103.824219 C 82.332031 103.4375 82.074219 103.417969 82.0625 103.417969 C 81.441406 103.273438 80.953125 103.207031 80.464844 103.199219 Z M 80.464844 103.199219 "/>
<path style=" stroke:none;fill-rule:nonzero;fill:rgb(8.235294%,46.666667%,60.784316%);fill-opacity:1;" d="M 82.773438 130.515625 C 82.773438 129.796875 82.195312 129.214844 81.476562 129.214844 C 80.761719 129.214844 80.183594 129.796875 80.183594 130.515625 C 80.183594 131.230469 80.761719 131.8125 81.476562 131.8125 C 82.195312 131.8125 82.773438 131.230469 82.773438 130.515625 Z M 82.773438 130.515625 "/>
<path style=" stroke:none;fill-rule:nonzero;fill:rgb(8.235294%,46.666667%,60.784316%);fill-opacity:1;" d="M 71.71875 130.363281 C 71.71875 129.648438 71.136719 129.066406 70.421875 129.066406 C 69.707031 129.066406 69.125 129.648438 69.125 130.363281 C 69.125 131.082031 69.707031 131.664062 70.421875 131.664062 C 71.136719 131.664062 71.71875 131.082031 71.71875 130.363281 Z M 71.71875 130.363281 "/>
<path style=" stroke:none;fill-rule:nonzero;fill:rgb(8.235294%,46.666667%,60.784316%);fill-opacity:1;" d="M 104.734375 76.601562 C 103.675781 77.199219 102.546875 77.660156 101.371094 77.96875 C 100.195312 78.292969 98.980469 78.472656 97.757812 78.511719 C 96.53125 78.558594 95.304688 78.417969 94.121094 78.105469 C 92.9375 77.792969 91.820312 77.285156 90.8125 76.601562 C 91.390625 76.789062 91.910156 77.09375 92.5 77.222656 L 93.347656 77.484375 L 94.21875 77.660156 C 95.382812 77.878906 96.5625 77.964844 97.742188 77.925781 C 98.925781 77.886719 100.105469 77.753906 101.269531 77.527344 C 101.851562 77.417969 102.4375 77.285156 103.011719 77.121094 C 103.59375 76.980469 104.160156 76.792969 104.734375 76.601562 Z M 103.730469 81.238281 C 102.8125 81.988281 101.773438 82.570312 100.652344 82.957031 C 99.527344 83.363281 98.332031 83.554688 97.136719 83.523438 C 96.535156 83.507812 95.9375 83.433594 95.351562 83.304688 C 94.769531 83.164062 94.207031 82.957031 93.664062 82.699219 C 93.128906 82.445312 92.613281 82.144531 92.132812 81.796875 C 91.667969 81.433594 91.226562 81.042969 90.8125 80.628906 C 91.75 81.300781 92.769531 81.855469 93.84375 82.28125 C 94.898438 82.695312 96.019531 82.917969 97.152344 82.9375 C 98.289062 82.964844 99.421875 82.828125 100.519531 82.527344 C 101.074219 82.378906 101.621094 82.191406 102.152344 81.972656 C 102.695312 81.765625 103.222656 81.519531 103.730469 81.238281 Z M 102.8125 85.789062 C 101.03125 87.078125 98.910156 87.8125 96.714844 87.890625 C 95.605469 87.921875 94.5 87.71875 93.476562 87.296875 C 92.464844 86.878906 91.554688 86.242188 90.8125 85.4375 C 91.253906 85.738281 91.710938 86.011719 92.183594 86.261719 L 92.886719 86.617188 L 93.628906 86.871094 C 94.625 87.183594 95.660156 87.332031 96.703125 87.300781 C 97.75 87.269531 98.789062 87.121094 99.804688 86.855469 C 100.320312 86.730469 100.824219 86.570312 101.324219 86.386719 C 101.828125 86.214844 102.328125 86.015625 102.8125 85.789062 Z M 123.007812 220.667969 L 122.132812 220.769531 L 122.125 220.660156 Z M 120.386719 220.953125 L 118.636719 221.101562 C 118.527344 221.109375 118.433594 221.03125 118.421875 220.917969 C 118.414062 220.808594 118.496094 220.714844 118.605469 220.703125 L 118.617188 220.703125 L 120.371094 220.664062 Z M 116.890625 221.246094 L 115.140625 221.359375 C 114.996094 221.363281 114.875 221.25 114.867188 221.109375 C 114.855469 220.964844 114.960938 220.839844 115.105469 220.824219 L 115.113281 220.824219 L 116.863281 220.746094 C 117 220.742188 117.117188 220.847656 117.125 220.984375 C 117.132812 221.121094 117.027344 221.238281 116.890625 221.246094 Z M 113.390625 221.46875 C 112.808594 221.511719 112.222656 221.542969 111.640625 221.566406 C 111.488281 221.566406 111.363281 221.445312 111.351562 221.292969 C 111.34375 221.140625 111.457031 221.011719 111.609375 220.996094 C 112.191406 220.953125 112.777344 220.921875 113.359375 220.898438 C 113.515625 220.890625 113.652344 221.011719 113.660156 221.171875 C 113.667969 221.328125 113.546875 221.460938 113.390625 221.46875 Z M 109.886719 221.640625 L 108.136719 221.71875 C 108 221.726562 107.878906 221.617188 107.875 221.480469 C 107.867188 221.34375 107.972656 221.226562 108.109375 221.21875 L 109.859375 221.105469 C 110.007812 221.097656 110.132812 221.207031 110.144531 221.355469 C 110.152344 221.503906 110.039062 221.632812 109.894531 221.640625 Z M 106.382812 221.761719 L 104.628906 221.800781 L 106.359375 221.363281 C 106.472656 221.351562 106.566406 221.433594 106.578125 221.542969 C 106.585938 221.65625 106.503906 221.75 106.394531 221.761719 Z M 102.875 221.804688 L 101.988281 221.796875 L 102.867188 221.695312 Z M 86.539062 221.960938 L 85.65625 221.953125 L 85.664062 221.84375 Z M 83.902344 221.921875 L 82.152344 221.855469 C 82.042969 221.851562 81.957031 221.757812 81.960938 221.648438 C 81.964844 221.539062 82.054688 221.453125 82.164062 221.457031 L 82.175781 221.457031 L 83.921875 221.632812 Z M 80.398438 221.785156 L 78.648438 221.679688 C 78.546875 221.679688 78.457031 221.625 78.414062 221.535156 C 78.367188 221.449219 78.375 221.34375 78.429688 221.261719 C 78.484375 221.179688 78.582031 221.136719 78.679688 221.148438 L 78.683594 221.148438 L 80.433594 221.285156 C 80.566406 221.300781 80.664062 221.417969 80.65625 221.550781 C 80.644531 221.6875 80.53125 221.789062 80.398438 221.785156 Z M 76.894531 221.578125 C 76.3125 221.546875 75.730469 221.507812 75.148438 221.457031 C 74.992188 221.441406 74.878906 221.308594 74.890625 221.152344 C 74.898438 220.996094 75.03125 220.878906 75.1875 220.886719 C 75.769531 220.917969 76.355469 220.957031 76.9375 221.007812 C 77.09375 221.019531 77.210938 221.15625 77.199219 221.3125 C 77.191406 221.46875 77.054688 221.589844 76.898438 221.578125 Z M 73.398438 221.316406 L 71.652344 221.179688 C 71.515625 221.167969 71.410156 221.046875 71.421875 220.910156 C 71.429688 220.773438 71.550781 220.667969 71.6875 220.679688 L 73.4375 220.78125 C 73.585938 220.792969 73.695312 220.917969 73.6875 221.066406 C 73.679688 221.214844 73.550781 221.328125 73.40625 221.316406 Z M 69.90625 221.007812 L 68.160156 220.832031 L 69.933594 220.609375 C 70.042969 220.613281 70.128906 220.707031 70.125 220.816406 C 70.121094 220.925781 70.027344 221.011719 69.917969 221.007812 Z M 66.417969 220.621094 L 65.542969 220.503906 L 66.425781 220.507812 Z M 87.917969 148.726562 C 87.960938 149.121094 87.980469 149.519531 87.980469 149.917969 C 87.980469 149.996094 87.9375 150.0625 87.867188 150.09375 C 87.800781 150.128906 87.71875 150.117188 87.660156 150.070312 C 87.601562 150.023438 87.574219 149.949219 87.589844 149.875 C 87.679688 149.484375 87.789062 149.101562 87.917969 148.726562 Z M 87.929688 151.097656 C 87.898438 151.492188 87.855469 151.882812 87.800781 152.269531 C 87.785156 152.425781 87.644531 152.539062 87.488281 152.523438 C 87.332031 152.503906 87.21875 152.363281 87.234375 152.207031 C 87.265625 151.8125 87.320312 151.425781 87.371094 151.035156 C 87.398438 150.886719 87.535156 150.785156 87.683594 150.804688 C 87.832031 150.820312 87.941406 150.949219 87.929688 151.097656 Z M 87.601562 153.433594 C 87.519531 153.820312 87.417969 154.207031 87.296875 154.585938 C 87.175781 154.179688 87.164062 153.78125 87.171875 153.382812 C 87.171875 153.304688 87.210938 153.230469 87.28125 153.191406 C 87.351562 153.152344 87.4375 153.15625 87.503906 153.199219 C 87.570312 153.242188 87.609375 153.316406 87.601562 153.398438 Z M 147.273438 103.324219 C 146.878906 103.40625 146.488281 103.464844 146.097656 103.507812 C 146.488281 103.183594 146.878906 103.246094 147.273438 103.324219 Z M 144.921875 103.59375 C 144.53125 103.617188 144.136719 103.617188 143.746094 103.617188 C 143.585938 103.617188 143.453125 103.488281 143.453125 103.324219 C 143.453125 103.164062 143.582031 103.03125 143.742188 103.03125 L 143.746094 103.03125 C 144.136719 103.035156 144.53125 103.035156 144.921875 103.054688 C 145.0625 103.0625 145.175781 103.183594 145.175781 103.324219 C 145.175781 103.46875 145.0625 103.585938 144.921875 103.59375 Z M 142.570312 103.582031 C 142.179688 103.558594 141.785156 103.523438 141.394531 103.476562 C 141.785156 103.128906 142.179688 103.09375 142.570312 103.070312 C 142.710938 103.0625 142.832031 103.167969 142.839844 103.308594 C 142.847656 103.453125 142.738281 103.574219 142.597656 103.582031 Z M 142.570312 103.582031 "/>
<path style=" stroke:none;fill-rule:nonzero;fill:rgb(48.627451%,79.607844%,90.980393%);fill-opacity:1;" d="M 112.050781 69.777344 C 112.367188 70.039062 112.546875 70.429688 112.542969 70.839844 C 112.535156 71.042969 112.488281 71.242188 112.40625 71.429688 C 112.324219 71.613281 112.203125 71.773438 112.050781 71.898438 C 112.152344 71.554688 112.210938 71.199219 112.222656 70.835938 C 112.222656 70.476562 112.164062 70.121094 112.050781 69.777344 Z M 80.003906 69.300781 C 79.851562 69.847656 79.773438 70.410156 79.769531 70.980469 C 79.765625 71.253906 79.800781 71.527344 79.875 71.792969 C 79.949219 72.066406 80.050781 72.335938 80.179688 72.589844 C 79.949219 72.398438 79.761719 72.152344 79.640625 71.875 C 79.523438 71.59375 79.457031 71.289062 79.449219 70.984375 C 79.445312 70.378906 79.640625 69.785156 80.003906 69.300781 Z M 80.003906 69.300781 "/>
<path style=" stroke:none;fill-rule:nonzero;fill:rgb(3.921569%,19.215687%,24.705882%);fill-opacity:1;" d="M 88.449219 193.582031 C 89.652344 193.203125 90.820312 192.722656 91.945312 192.152344 C 93.054688 191.589844 94.101562 190.910156 95.066406 190.128906 C 96.035156 189.355469 96.886719 188.449219 97.601562 187.4375 C 98.324219 186.40625 98.925781 185.296875 99.394531 184.125 C 99.195312 185.410156 98.75 186.640625 98.089844 187.757812 L 97.847656 188.1875 L 97.554688 188.578125 C 97.351562 188.835938 97.171875 189.109375 96.953125 189.351562 C 96.515625 189.839844 96.042969 190.292969 95.539062 190.707031 C 94.523438 191.527344 93.394531 192.191406 92.1875 192.679688 C 90.996094 193.175781 89.734375 193.480469 88.449219 193.582031 Z M 88.449219 193.582031 "/>
<path style=" stroke:none;fill-rule:nonzero;fill:rgb(49.019608%,67.058825%,73.725492%);fill-opacity:1;" d="M 16.9375 30.332031 L 104.871094 30.332031 L 104.871094 34.457031 L 16.9375 34.457031 Z M 16.9375 30.332031 "/>
<path style=" stroke:none;fill-rule:nonzero;fill:rgb(75.294119%,89.411765%,94.901961%);fill-opacity:1;" d="M 61.652344 8.671875 L 68.214844 8.671875 C 68.628906 8.671875 68.964844 9.007812 68.964844 9.421875 L 68.964844 30.332031 L 60.902344 30.332031 L 60.902344 9.421875 C 60.902344 9.007812 61.238281 8.671875 61.652344 8.671875 Z M 61.652344 8.671875 "/>
<path style=" stroke:none;fill-rule:nonzero;fill:rgb(75.294119%,89.411765%,94.901961%);fill-opacity:1;" d="M 64.347656 4.886719 L 65.519531 4.886719 C 65.933594 4.886719 66.269531 5.222656 66.269531 5.636719 L 66.269531 8.742188 L 63.597656 8.742188 L 63.597656 5.636719 C 63.597656 5.222656 63.933594 4.886719 64.347656 4.886719 Z M 34.316406 34.457031 L 36.605469 34.457031 L 36.605469 42.554688 L 34.316406 42.554688 Z M 88.976562 34.457031 L 91.261719 34.457031 L 91.261719 42.554688 L 88.976562 42.554688 Z M 30.605469 16.234375 L 43.171875 16.234375 C 43.585938 16.234375 43.921875 16.570312 43.921875 16.984375 L 43.921875 30.332031 L 29.859375 30.332031 L 29.859375 16.984375 C 29.859375 16.570312 30.191406 16.234375 30.605469 16.234375 Z M 30.605469 16.234375 "/>
<path style=" stroke:none;fill-rule:nonzero;fill:rgb(49.019608%,67.058825%,73.725492%);fill-opacity:1;" d="M 29.859375 19.78125 L 43.921875 19.78125 L 43.921875 20.101562 L 29.859375 20.101562 Z M 36.890625 25.371094 C 35.738281 25.371094 34.808594 24.4375 34.808594 23.285156 C 34.808594 22.128906 35.738281 21.195312 36.890625 21.195312 C 38.039062 21.195312 38.972656 22.128906 38.972656 23.28125 C 38.972656 24.4375 38.039062 25.371094 36.890625 25.371094 Z M 36.890625 21.511719 C 35.914062 21.511719 35.125 22.304688 35.125 23.285156 C 35.121094 24.261719 35.914062 25.054688 36.890625 25.054688 C 37.867188 25.054688 38.65625 24.261719 38.65625 23.28125 C 38.65625 22.304688 37.863281 21.515625 36.890625 21.511719 Z M 60.902344 15.503906 L 68.964844 15.503906 L 68.964844 15.820312 L 60.902344 15.820312 Z M 60.902344 15.503906 "/>
<path style=" stroke:none;fill-rule:nonzero;fill:rgb(75.294119%,89.411765%,94.901961%);fill-opacity:1;" d="M 81.980469 8.671875 L 88.542969 8.671875 C 88.957031 8.671875 89.292969 9.007812 89.292969 9.421875 L 89.292969 30.332031 L 81.230469 30.332031 L 81.230469 9.421875 C 81.230469 9.007812 81.566406 8.671875 81.980469 8.671875 Z M 81.980469 8.671875 "/>
<path style=" stroke:none;fill-rule:nonzero;fill:rgb(75.294119%,89.411765%,94.901961%);fill-opacity:1;" d="M 84.675781 4.886719 L 85.847656 4.886719 C 86.261719 4.886719 86.597656 5.222656 86.597656 5.636719 L 86.597656 8.742188 L 83.925781 8.742188 L 83.925781 5.636719 C 83.925781 5.222656 84.261719 4.886719 84.675781 4.886719 Z M 84.675781 4.886719 "/>
<path style=" stroke:none;fill-rule:nonzero;fill:rgb(49.019608%,67.058825%,73.725492%);fill-opacity:1;" d="M 81.230469 15.503906 L 89.292969 15.503906 L 89.292969 15.820312 L 81.230469 15.820312 Z M 81.230469 15.503906 "/>
<path style=" stroke:none;fill-rule:nonzero;fill:rgb(75.294119%,89.411765%,94.901961%);fill-opacity:1;" d="M 71.179688 4.511719 L 79.292969 4.511719 C 79.707031 4.511719 80.039062 4.847656 80.039062 5.265625 L 80.039062 30.332031 L 70.433594 30.332031 L 70.433594 5.265625 C 70.433594 4.847656 70.765625 4.511719 71.179688 4.511719 Z M 71.179688 4.511719 "/>
<path style=" stroke:none;fill-rule:nonzero;fill:rgb(75.294119%,89.411765%,94.901961%);fill-opacity:1;" d="M 74.394531 0 L 76.078125 0 C 76.492188 0 76.828125 0.335938 76.828125 0.75 L 76.828125 4.597656 L 73.644531 4.597656 L 73.644531 0.75 C 73.644531 0.335938 73.980469 0 74.394531 0 Z M 74.394531 0 "/>
<path style=" stroke:none;fill-rule:nonzero;fill:rgb(49.019608%,67.058825%,73.725492%);fill-opacity:1;" d="M 70.433594 12.65625 L 80.039062 12.65625 L 80.039062 13.035156 L 70.433594 13.035156 Z M 234.980469 65.820312 L 322.914062 65.820312 L 322.914062 69.945312 L 234.980469 69.945312 Z M 234.980469 65.820312 "/>
<path style=" stroke:none;fill-rule:nonzero;fill:rgb(75.294119%,89.411765%,94.901961%);fill-opacity:1;" d="M 279.695312 44.160156 L 286.257812 44.160156 C 286.671875 44.160156 287.007812 44.496094 287.007812 44.910156 L 287.007812 65.820312 L 278.945312 65.820312 L 278.945312 44.910156 C 278.945312 44.496094 279.28125 44.160156 279.695312 44.160156 Z M 279.695312 44.160156 "/>
<path style=" stroke:none;fill-rule:nonzero;fill:rgb(75.294119%,89.411765%,94.901961%);fill-opacity:1;" d="M 282.390625 40.375 L 283.5625 40.375 C 283.976562 40.375 284.3125 40.710938 284.3125 41.125 L 284.3125 44.230469 L 281.644531 44.230469 L 281.644531 41.125 C 281.644531 40.710938 281.980469 40.375 282.390625 40.375 Z M 252.363281 69.945312 L 254.648438 69.945312 L 254.648438 78.042969 L 252.363281 78.042969 Z M 307.019531 69.945312 L 309.304688 69.945312 L 309.304688 78.042969 L 307.019531 78.042969 Z M 248.652344 51.722656 L 261.21875 51.722656 C 261.632812 51.722656 261.964844 52.058594 261.964844 52.476562 L 261.964844 65.820312 L 247.902344 65.820312 L 247.902344 52.476562 C 247.902344 52.058594 248.238281 51.722656 248.648438 51.722656 Z M 248.652344 51.722656 "/>
<path style=" stroke:none;fill-rule:nonzero;fill:rgb(49.019608%,67.058825%,73.725492%);fill-opacity:1;" d="M 247.902344 55.269531 L 261.964844 55.269531 L 261.964844 55.589844 L 247.902344 55.589844 Z M 254.933594 60.859375 C 253.78125 60.859375 252.851562 59.925781 252.851562 58.773438 C 252.851562 57.621094 253.785156 56.683594 254.933594 56.683594 C 256.085938 56.683594 257.015625 57.621094 257.015625 58.773438 C 257.015625 59.925781 256.085938 60.859375 254.933594 60.859375 Z M 254.933594 57.003906 C 253.957031 57.003906 253.167969 57.796875 253.167969 58.773438 C 253.167969 59.75 253.957031 60.542969 254.933594 60.542969 C 255.910156 60.542969 256.699219 59.75 256.699219 58.773438 C 256.699219 57.796875 255.910156 57.003906 254.933594 57 Z M 278.945312 50.992188 L 287.007812 50.992188 L 287.007812 51.3125 L 278.945312 51.3125 Z M 278.945312 50.992188 "/>
<path style=" stroke:none;fill-rule:nonzero;fill:rgb(75.294119%,89.411765%,94.901961%);fill-opacity:1;" d="M 300.023438 44.160156 L 306.589844 44.160156 C 307 44.160156 307.335938 44.496094 307.335938 44.910156 L 307.335938 65.820312 L 299.273438 65.820312 L 299.273438 44.910156 C 299.273438 44.496094 299.609375 44.160156 300.023438 44.160156 Z M 300.023438 44.160156 "/>
<path style=" stroke:none;fill-rule:nonzero;fill:rgb(75.294119%,89.411765%,94.901961%);fill-opacity:1;" d="M 302.71875 40.375 L 303.890625 40.375 C 304.304688 40.375 304.640625 40.710938 304.640625 41.125 L 304.640625 44.230469 L 301.972656 44.230469 L 301.972656 41.125 C 301.972656 40.710938 302.308594 40.375 302.71875 40.375 Z M 302.71875 40.375 "/>
<path style=" stroke:none;fill-rule:nonzero;fill:rgb(49.019608%,67.058825%,73.725492%);fill-opacity:1;" d="M 299.273438 50.992188 L 307.335938 50.992188 L 307.335938 51.3125 L 299.273438 51.3125 Z M 299.273438 50.992188 "/>
<path style=" stroke:none;fill-rule:nonzero;fill:rgb(75.294119%,89.411765%,94.901961%);fill-opacity:1;" d="M 289.222656 40.003906 L 297.335938 40.003906 C 297.75 40.003906 298.085938 40.339844 298.085938 40.753906 L 298.085938 65.820312 L 288.476562 65.820312 L 288.476562 40.753906 C 288.476562 40.339844 288.8125 40.003906 289.222656 40.003906 Z M 289.222656 40.003906 "/>
<path style=" stroke:none;fill-rule:nonzero;fill:rgb(75.294119%,89.411765%,94.901961%);fill-opacity:1;" d="M 292.4375 35.488281 L 294.121094 35.488281 C 294.535156 35.488281 294.871094 35.824219 294.871094 36.242188 L 294.871094 40.089844 L 291.691406 40.089844 L 291.691406 36.242188 C 291.691406 35.824219 292.023438 35.488281 292.4375 35.488281 Z M 292.4375 35.488281 "/>
<path style=" stroke:none;fill-rule:nonzero;fill:rgb(49.019608%,67.058825%,73.725492%);fill-opacity:1;" d="M 288.476562 48.144531 L 298.085938 48.144531 L 298.085938 48.527344 L 288.476562 48.527344 Z M 288.476562 48.144531 "/>
<path style=" stroke:none;fill-rule:nonzero;fill:rgb(38.82353%,77.254903%,91.764706%);fill-opacity:1;" d="M 179.074219 190.617188 L 169.992188 303.816406 C 169.992188 303.816406 176.03125 311.386719 187.957031 305.78125 L 201.425781 197.304688 L 205.625 197.726562 L 211.144531 305.148438 C 211.144531 305.148438 220.050781 309.984375 227.855469 304.9375 L 227.023438 190.929688 L 179.117188 190.578125 Z M 179.074219 190.617188 "/>
<path style=" stroke:none;fill-rule:nonzero;fill:rgb(3.137255%,65.098041%,87.843138%);fill-opacity:1;" d="M 227.023438 192.679688 C 226.953125 192.097656 226.886719 191.511719 226.828125 190.925781 L 179.28125 190.582031 C 179.203125 191.277344 179.121094 191.972656 179.035156 192.667969 L 195.066406 195.738281 C 199.730469 196.636719 204.484375 196.976562 209.230469 196.757812 C 226.226562 195.953125 227.023438 192.679688 227.023438 192.679688 Z M 227.023438 192.679688 "/>
<path style=" stroke:none;fill-rule:nonzero;fill:rgb(38.82353%,77.254903%,91.764706%);fill-opacity:1;" d="M 228.375 108.804688 L 214.800781 104.457031 L 204.40625 111.875 L 192.113281 104.457031 L 178.277344 108.785156 C 176.375 109.382812 174.640625 110.414062 173.210938 111.804688 C 170.550781 114.378906 165.929688 119.679688 158.859375 130.378906 L 169.839844 139 L 176.96875 130.777344 C 176.96875 130.777344 182.800781 160.953125 179.050781 190.917969 L 195.066406 193.988281 C 199.730469 194.882812 204.484375 195.226562 209.230469 195.007812 C 226.226562 194.203125 227.023438 190.929688 227.023438 190.929688 C 223.488281 160.9375 229.523438 130.804688 229.523438 130.804688 L 236.59375 139.074219 L 247.632812 130.523438 C 240.644531 119.785156 236.0625 114.453125 233.421875 111.855469 C 232 110.457031 230.269531 109.410156 228.375 108.804688 Z M 221.574219 67.386719 C 221.574219 57.054688 213.070312 49.261719 202.582031 49.261719 C 192.09375 49.261719 183.585938 57.054688 183.585938 67.386719 C 183.746094 77.789062 192.203125 86.132812 202.582031 86.132812 C 212.957031 86.132812 221.414062 77.789062 221.574219 67.386719 Z M 221.574219 67.386719 "/>
<path style=" stroke:none;fill-rule:nonzero;fill:rgb(2.352941%,39.215687%,52.941179%);fill-opacity:1;" d="M 219.363281 68.4375 L 221.515625 68.878906 L 221.433594 70.246094 C 221.378906 71.1875 221.160156 72.117188 220.789062 72.984375 L 219.980469 74.894531 C 219.980469 74.894531 219.53125 74.964844 219.34375 73.148438 C 219.246094 71.578125 219.253906 70.007812 219.367188 68.4375 Z M 186.386719 71.800781 C 184.5 75.480469 188.5 81.042969 190.359375 80.773438 C 192.09375 80.519531 192.394531 75.136719 192.421875 74.605469 C 192.511719 72.824219 192.660156 69.804688 191.097656 69.140625 C 189.695312 68.542969 187.308594 70.003906 186.386719 71.800781 Z M 186.386719 71.800781 "/>
<path style=" stroke:none;fill-rule:nonzero;fill:rgb(54.11765%,85.09804%,96.470588%);fill-opacity:1;" d="M 191.6875 69.699219 C 191.6875 69.699219 188.710938 75.25 187.269531 75.726562 C 187.269531 75.726562 181.671875 81.191406 189.476562 82.171875 C 189.476562 82.171875 189.917969 96.46875 198.898438 98.570312 L 198.898438 102.175781 C 198.898438 102.921875 198.351562 103.554688 197.617188 103.660156 L 192.113281 104.457031 C 192.113281 104.457031 204.199219 121.835938 214.800781 104.457031 L 211.171875 103.703125 C 210.527344 103.566406 210.046875 103.03125 209.984375 102.375 L 209.648438 98.851562 C 209.648438 98.851562 220.691406 95.066406 219.511719 82.59375 C 219.511719 82.59375 226.191406 79.246094 219.980469 74.894531 C 219.980469 74.894531 219.460938 75.289062 219.335938 72.386719 C 219.292969 71.453125 219.292969 70.179688 219.367188 68.4375 C 219.367188 68.4375 197.964844 59.425781 191.6875 69.699219 Z M 236.59375 139.074219 L 242.148438 144.820312 L 227.132812 164.476562 C 227.132812 164.476562 229.667969 169.929688 230.09375 171.847656 C 230.128906 171.984375 230.226562 172.097656 230.355469 172.148438 C 230.484375 172.203125 230.632812 172.191406 230.753906 172.117188 C 232.90625 170.859375 240.503906 165.691406 253.414062 149.304688 C 253.414062 149.304688 259.097656 143.335938 246.757812 131.203125 Z M 169.5625 138.660156 L 164.003906 144.40625 L 179.089844 164.152344 C 179.089844 164.152344 176.484375 169.515625 176.058594 171.4375 C 176.023438 171.574219 175.925781 171.683594 175.796875 171.738281 C 175.667969 171.789062 175.519531 171.777344 175.398438 171.707031 C 173.246094 170.449219 165.648438 165.28125 152.738281 148.894531 C 152.738281 148.894531 147.054688 142.925781 159.394531 130.789062 Z M 169.5625 138.660156 "/>
<path style=" stroke:none;fill-rule:nonzero;fill:rgb(52.941179%,86.666667%,99.215686%);fill-opacity:1;" d="M 175.703125 171.777344 C 179.421875 177.734375 183.910156 171.453125 183.910156 171.453125 L 185.800781 172.066406 C 188.390625 172.945312 191.246094 172.507812 193.457031 170.890625 C 193.597656 170.78125 193.738281 170.667969 193.875 170.546875 C 196.378906 168.324219 195.078125 166.449219 193.386719 165.203125 C 191.898438 164.136719 190.140625 163.511719 188.3125 163.394531 C 179.710938 162.753906 178.941406 164.308594 178.941406 164.308594 C 177.464844 166.140625 176.445312 168.304688 175.964844 170.613281 Z M 211.144531 305.148438 L 211.144531 314.328125 L 249.277344 314.328125 C 249.628906 312.3125 248.429688 310.347656 246.480469 309.738281 L 239.421875 310.386719 C 237.792969 310.535156 236.160156 310.144531 234.773438 309.273438 L 227.855469 304.9375 Z M 187.980469 305.148438 L 187.980469 314.328125 L 149.847656 314.328125 C 149.5 312.3125 150.695312 310.347656 152.644531 309.738281 L 159.027344 310.324219 C 161.0625 310.507812 163.089844 309.851562 164.628906 308.503906 L 169.992188 303.816406 Z M 187.980469 305.148438 "/>
<path style=" stroke:none;fill-rule:nonzero;fill:rgb(2.352941%,39.215687%,52.941179%);fill-opacity:1;" d="M 149.847656 314.328125 L 187.980469 314.328125 L 187.980469 317.132812 L 149.847656 317.132812 Z M 211.171875 314.328125 L 249.304688 314.328125 L 249.304688 317.132812 L 211.171875 317.132812 Z M 211.171875 314.328125 "/>
<path style=" stroke:none;fill-rule:nonzero;fill:rgb(52.941179%,86.666667%,99.215686%);fill-opacity:1;" d="M 191.464844 82.171875 L 191.464844 91.339844 C 191.464844 91.339844 194.925781 102.707031 209.648438 98.851562 C 209.648438 98.851562 219.789062 96.472656 219.554688 83.125 C 219.554688 83.125 209.242188 81.753906 191.464844 82.171875 Z M 191.464844 82.171875 "/>
<path style=" stroke:none;fill-rule:nonzero;fill:rgb(38.82353%,77.254903%,91.764706%);fill-opacity:1;" d="M 191.464844 82.171875 C 191.152344 81.613281 190.820312 81.0625 190.476562 80.523438 C 190.136719 79.996094 189.769531 79.488281 189.371094 79.003906 C 188.972656 78.527344 188.535156 78.085938 188.058594 77.691406 C 187.558594 77.296875 187.023438 76.957031 186.457031 76.675781 C 187.117188 76.746094 187.753906 76.960938 188.324219 77.308594 C 188.890625 77.664062 189.398438 78.105469 189.828125 78.617188 C 190.675781 79.640625 191.242188 80.867188 191.464844 82.171875 Z M 191.464844 82.171875 "/>
<path style=" stroke:none;fill-rule:nonzero;fill:rgb(0.784314%,0.784314%,0.784314%);fill-opacity:1;" d="M 197.097656 74.894531 C 197.847656 74.382812 198.726562 74.097656 199.636719 74.074219 C 200.09375 74.058594 200.550781 74.113281 200.988281 74.238281 C 201.429688 74.363281 201.835938 74.585938 202.175781 74.894531 C 201.347656 74.710938 200.503906 74.636719 199.65625 74.671875 C 198.820312 74.699219 197.988281 74.808594 197.097656 74.894531 Z M 212.226562 74.894531 C 213.085938 74.390625 214.070312 74.136719 215.066406 74.160156 C 215.574219 74.171875 216.074219 74.269531 216.546875 74.445312 C 217.019531 74.632812 217.433594 74.941406 217.746094 75.339844 C 217.320312 75.144531 216.871094 74.996094 216.414062 74.894531 C 215.964844 74.816406 215.507812 74.769531 215.054688 74.761719 C 214.132812 74.738281 213.207031 74.832031 212.226562 74.894531 Z M 212.226562 74.894531 "/>
<path style=" stroke:none;fill-rule:nonzero;fill:rgb(0.784314%,0.784314%,0.784314%);fill-opacity:1;" d="M 200.1875 79.492188 C 200.1875 78.535156 199.792969 77.757812 199.304688 77.757812 C 198.816406 77.757812 198.421875 78.535156 198.421875 79.492188 C 198.421875 80.453125 198.816406 81.226562 199.304688 81.226562 C 199.792969 81.226562 200.1875 80.453125 200.1875 79.492188 Z M 200.1875 79.492188 "/>
<path style=" stroke:none;fill-rule:nonzero;fill:rgb(0.784314%,0.784314%,0.784314%);fill-opacity:1;" d="M 214.984375 79.492188 C 214.984375 78.535156 214.589844 77.757812 214.101562 77.757812 C 213.613281 77.757812 213.21875 78.535156 213.21875 79.492188 C 213.21875 80.453125 213.613281 81.226562 214.101562 81.226562 C 214.589844 81.226562 214.984375 80.453125 214.984375 79.492188 Z M 214.984375 79.492188 "/>
<path style=" stroke:none;fill-rule:nonzero;fill:rgb(3.137255%,65.098041%,87.843138%);fill-opacity:1;" d="M 198.902344 101.410156 C 192.210938 102.796875 187.472656 105.988281 184.816406 110.917969 C 177.824219 123.882812 187.289062 144.796875 187.386719 145.007812 L 186.265625 145.476562 C 185.859375 144.601562 176.46875 123.847656 183.726562 110.386719 C 186.574219 105.101562 191.761719 101.6875 198.902344 100.242188 Z M 198.902344 101.410156 "/>
<path style=" stroke:none;fill-rule:nonzero;fill:rgb(52.941179%,86.666667%,99.215686%);fill-opacity:1;" d="M 192.554688 146.71875 C 192.554688 144.199219 190.410156 142.15625 187.761719 142.15625 C 185.117188 142.15625 182.96875 144.199219 182.96875 146.71875 C 182.96875 149.238281 185.117188 151.28125 187.761719 151.28125 C 190.410156 151.28125 192.554688 149.238281 192.554688 146.71875 Z M 192.554688 146.71875 "/>
<path style=" stroke:none;fill-rule:nonzero;fill:rgb(3.137255%,65.098041%,87.843138%);fill-opacity:1;" d="M 190.230469 146.71875 C 190.230469 145.421875 189.125 144.371094 187.761719 144.371094 C 186.402344 144.371094 185.296875 145.421875 185.296875 146.71875 C 185.296875 148.015625 186.402344 149.066406 187.761719 149.066406 C 189.125 149.066406 190.230469 148.015625 190.230469 146.71875 Z M 190.230469 146.71875 "/>
<path style=" stroke:none;fill-rule:nonzero;fill:rgb(3.137255%,65.098041%,87.843138%);fill-opacity:1;" d="M 209.855469 101.441406 C 211.257812 101.832031 219.496094 104.425781 219.785156 111.105469 L 221.007812 111.058594 C 220.664062 102.957031 210.265625 100.371094 209.761719 100.25 Z M 209.855469 101.441406 "/>
<path style=" stroke:none;fill-rule:nonzero;fill:rgb(3.137255%,65.098041%,87.843138%);fill-opacity:1;" d="M 230.488281 139.867188 C 228.519531 139.867188 226.699219 138.5 225.140625 136.652344 C 224.632812 137.796875 223.804688 138.769531 222.753906 139.453125 C 222.21875 139.796875 221.554688 139.886719 220.945312 139.699219 L 221.371094 138.578125 C 221.683594 138.628906 222.003906 138.546875 222.257812 138.355469 C 223.195312 137.65625 223.910156 136.699219 224.316406 135.605469 C 222.476562 132.949219 220.972656 130.078125 219.835938 127.050781 C 217.085938 118.976562 216.484375 113.835938 218.042969 111.761719 C 218.371094 111.277344 218.894531 110.964844 219.476562 110.902344 C 221.300781 110.339844 223.28125 110.75 224.730469 111.992188 C 229.144531 115.921875 227.785156 127.480469 227.726562 127.96875 C 227.3125 130.523438 226.632812 133.027344 225.703125 135.441406 C 227.398438 137.589844 229.347656 139.078125 231.285156 138.566406 L 231.589844 139.722656 C 231.230469 139.820312 230.863281 139.867188 230.488281 139.867188 Z M 219.53125 112.097656 C 219.285156 112.15625 219.078125 112.316406 218.957031 112.539062 C 218.394531 113.363281 217.464844 116.382812 220.960938 126.652344 C 221.96875 129.339844 223.277344 131.90625 224.863281 134.296875 C 225.613281 132.179688 226.175781 130.003906 226.542969 127.789062 C 226.550781 127.710938 227.882812 116.402344 223.933594 112.886719 C 222.84375 111.914062 221.457031 111.652344 219.703125 112.082031 L 219.617188 112.101562 Z M 219.53125 112.097656 "/>
<path style=" stroke:none;fill-rule:nonzero;fill:rgb(52.941179%,86.666667%,99.215686%);fill-opacity:1;" d="M 221.222656 139.589844 C 221.222656 138.878906 220.617188 138.304688 219.871094 138.304688 C 219.125 138.304688 218.519531 138.878906 218.519531 139.589844 C 218.519531 140.300781 219.125 140.878906 219.871094 140.878906 C 220.617188 140.878906 221.222656 140.300781 221.222656 139.589844 Z M 221.222656 139.589844 "/>
<path style=" stroke:none;fill-rule:nonzero;fill:rgb(52.941179%,86.666667%,99.215686%);fill-opacity:1;" d="M 233.867188 138.792969 C 233.867188 138.082031 233.261719 137.507812 232.515625 137.507812 C 231.765625 137.507812 231.160156 138.082031 231.160156 138.792969 C 231.160156 139.503906 231.765625 140.082031 232.515625 140.082031 C 233.261719 140.082031 233.867188 139.503906 233.867188 138.792969 Z M 233.867188 138.792969 "/>
<path style=" stroke:none;fill-rule:nonzero;fill:rgb(52.941179%,86.666667%,99.215686%);fill-opacity:1;" d="M 230.375 172.15625 C 226.660156 178.113281 222.164062 171.625 222.164062 171.625 L 220.269531 172.234375 C 217.679688 173.113281 214.828125 172.675781 212.617188 171.058594 C 212.472656 170.949219 212.335938 170.835938 212.199219 170.714844 C 209.695312 168.492188 210.996094 166.617188 212.6875 165.371094 C 214.175781 164.304688 215.933594 163.679688 217.757812 163.5625 C 226.363281 162.921875 227.132812 164.476562 227.132812 164.476562 L 228.046875 165.785156 C 228.976562 167.109375 229.597656 168.628906 229.863281 170.230469 Z M 230.375 172.15625 "/>
<path style=" stroke:none;fill-rule:nonzero;fill:rgb(3.137255%,65.098041%,87.843138%);fill-opacity:1;" d="M 197.097656 85.550781 C 198.550781 85.941406 200.011719 86.273438 201.480469 86.550781 C 202.941406 86.832031 204.417969 87.023438 205.90625 87.121094 C 207.382812 87.242188 208.867188 87.195312 210.335938 86.992188 C 211.808594 86.78125 213.230469 86.292969 214.523438 85.550781 C 213.324219 86.503906 211.917969 87.152344 210.417969 87.445312 C 208.921875 87.75 207.390625 87.84375 205.867188 87.71875 C 204.351562 87.621094 202.851562 87.378906 201.382812 87 C 199.914062 86.644531 198.480469 86.160156 197.097656 85.550781 Z M 196.800781 88.941406 C 198.253906 89.332031 199.714844 89.664062 201.183594 89.941406 C 202.644531 90.222656 204.121094 90.414062 205.609375 90.511719 C 207.085938 90.628906 208.570312 90.585938 210.035156 90.382812 C 211.511719 90.171875 212.933594 89.683594 214.226562 88.941406 C 213.027344 89.890625 211.621094 90.542969 210.121094 90.835938 C 208.625 91.140625 207.089844 91.230469 205.570312 91.109375 C 204.054688 91.007812 202.554688 90.769531 201.085938 90.390625 C 199.617188 90.035156 198.183594 89.550781 196.800781 88.941406 Z M 196.800781 92.898438 C 198.253906 93.289062 199.714844 93.621094 201.183594 93.898438 C 202.644531 94.179688 204.121094 94.371094 205.609375 94.46875 C 207.085938 94.585938 208.570312 94.542969 210.035156 94.339844 C 211.511719 94.128906 212.933594 93.640625 214.226562 92.898438 C 213.027344 93.847656 211.621094 94.5 210.121094 94.792969 C 208.625 95.097656 207.089844 95.1875 205.570312 95.066406 C 204.054688 94.964844 202.554688 94.726562 201.085938 94.34375 C 199.617188 93.992188 198.183594 93.507812 196.800781 92.898438 Z M 196.800781 92.898438 "/>
<path style=" stroke:none;fill-rule:nonzero;fill:rgb(17.254902%,35.686275%,42.352942%);fill-opacity:1;" d="M 171.859375 195.492188 L 59.578125 186.855469 L 59.003906 179.585938 C 59.003906 179.585938 150.328125 161.671875 172.703125 166.273438 Z M 171.859375 195.492188 "/>
<path style=" stroke:none;fill-rule:nonzero;fill:rgb(54.11765%,85.09804%,96.470588%);fill-opacity:1;" d="M 59.859375 186.457031 L 51.53125 187.117188 C 51.53125 187.117188 44.664062 177.628906 49.472656 174.945312 L 52.527344 179.820312 C 53.253906 180.976562 54.675781 181.496094 55.976562 181.078125 L 59.351562 179.992188 Z M 59.859375 186.457031 "/>
<path style=" stroke:none;fill-rule:nonzero;fill:rgb(17.254902%,35.686275%,42.352942%);fill-opacity:1;" d="M 51.53125 187.117188 C 51.53125 187.117188 47.382812 191.101562 43.800781 188.539062 L 42.296875 169.40625 C 42.222656 168.644531 42.46875 167.886719 42.96875 167.3125 C 43.472656 166.734375 44.191406 166.394531 44.953125 166.363281 C 46.097656 166.359375 47.386719 167.078125 48.398438 169.613281 L 49.472656 174.945312 Z M 51.53125 187.117188 "/>
<path style=" stroke:none;fill-rule:nonzero;fill:rgb(54.901963%,82.745099%,92.941177%);fill-opacity:1;" d="M 19.210938 210.023438 L 292.558594 210.023438 L 292.558594 228.328125 L 19.210938 228.328125 Z M 15.570312 180.078125 C 17.582031 180.078125 19.210938 181.710938 19.210938 183.722656 L 19.210938 228.328125 L 11.933594 228.328125 L 11.933594 183.722656 C 11.933594 181.710938 13.5625 180.078125 15.570312 180.078125 Z M 15.570312 180.078125 "/>
<path style=" stroke:none;fill-rule:nonzero;fill:rgb(54.901963%,82.745099%,92.941177%);fill-opacity:1;" d="M 295.644531 180.078125 C 297.652344 180.078125 299.285156 181.710938 299.285156 183.722656 L 299.285156 228.328125 L 292.003906 228.328125 L 292.003906 183.722656 C 292.003906 181.710938 293.632812 180.078125 295.644531 180.078125 Z M 295.644531 180.078125 "/>
<path style=" stroke:none;fill-rule:nonzero;fill:rgb(54.901963%,82.745099%,92.941177%);fill-opacity:1;" d="M 299.339844 319.839844 L 11.875 319.839844 L 11.875 224.625 L 299.339844 224.625 Z M 19.269531 312.429688 L 291.945312 312.429688 L 291.945312 232.035156 L 19.269531 232.035156 Z M 19.269531 312.429688 "/>
<path style=" stroke:none;fill-rule:nonzero;fill:rgb(45.09804%,68.627453%,77.64706%);fill-opacity:1;" d="M 212.027344 199.5625 C 212.027344 199.5625 195.589844 200.082031 188.320312 195.066406 C 181.046875 190.054688 161.175781 179.363281 161.175781 179.363281 L 161.183594 164.539062 C 161.183594 164.539062 169.835938 168.296875 193.039062 166.808594 C 193.039062 166.808594 202.847656 158.449219 209.464844 171.789062 L 226.109375 187.234375 L 222.023438 197.339844 C 218.796875 198.492188 215.4375 199.238281 212.027344 199.5625 Z M 212.027344 199.5625 "/>
<path style=" stroke:none;fill-rule:nonzero;fill:rgb(54.11765%,85.09804%,96.470588%);fill-opacity:1;" d="M 235.757812 179.429688 C 235.757812 179.429688 223.714844 184.566406 219.507812 180.964844 C 215.300781 177.359375 209.464844 171.789062 209.464844 171.789062 C 209.464844 171.789062 209.085938 179.757812 212.378906 179.984375 C 215.671875 180.210938 223.339844 182.46875 222.847656 191.320312 C 222.355469 200.171875 212.328125 199.039062 212.027344 199.5625 C 212.027344 199.5625 222.414062 198.746094 222.949219 198.210938 C 222.949219 198.210938 225.839844 197.144531 230.277344 192.730469 C 230.277344 192.730469 232.214844 190.003906 234.769531 190.652344 L 239.625 189.78125 L 238.792969 186.265625 Z M 235.757812 179.429688 "/>
<path style=" stroke:none;fill-rule:nonzero;fill:rgb(48.627451%,79.607844%,90.980393%);fill-opacity:1;" d="M 238.796875 186.265625 L 235.757812 179.429688 C 235.757812 179.429688 232.792969 180.488281 232.101562 180.75 C 232.308594 181.398438 239.105469 187.582031 239.105469 187.582031 Z M 238.796875 186.265625 "/>
<path style=" stroke:none;fill-rule:nonzero;fill:rgb(54.11765%,85.09804%,96.470588%);fill-opacity:1;" d="M 134.332031 175.390625 L 166.167969 193.816406 L 213.324219 196.484375 C 215.101562 196.632812 216.859375 196.042969 218.1875 194.851562 C 219.511719 193.660156 220.289062 191.96875 220.332031 190.183594 C 220.378906 188.441406 219.71875 186.753906 218.503906 185.503906 C 217.292969 184.253906 215.628906 183.546875 213.890625 183.542969 L 170.382812 183.394531 L 136.714844 168.648438 Z M 262.398438 171.371094 C 259.359375 169.976562 255.949219 169.617188 252.6875 170.351562 C 252.6875 170.351562 250.890625 171.476562 246.910156 168.265625 C 246.910156 168.265625 244.820312 166.382812 243.863281 170.035156 C 243.792969 170.304688 243.574219 170.507812 243.304688 170.558594 C 242.792969 170.667969 242.269531 170.710938 241.746094 170.683594 C 241.492188 170.648438 241.234375 170.734375 241.050781 170.910156 C 240.863281 171.085938 240.765625 171.339844 240.785156 171.597656 C 240.792969 171.648438 240.714844 171.632812 240.550781 171.496094 C 239.839844 170.878906 238.96875 171.503906 239.117188 172.507812 C 239.128906 172.539062 236.148438 171.75 235.285156 173.023438 C 235.285156 173.023438 234.480469 173.910156 235.203125 177.394531 C 235.476562 178.671875 235.878906 179.921875 236.410156 181.117188 C 237.207031 182.941406 238.621094 186.296875 238.832031 186.507812 L 247.4375 190.472656 L 258.964844 185.953125 L 264.511719 173.304688 Z M 262.398438 171.371094 "/>
<path style=" stroke:none;fill-rule:nonzero;fill:rgb(48.627451%,79.607844%,90.980393%);fill-opacity:1;" d="M 246.214844 171.8125 C 246.042969 171.980469 245.828125 172.097656 245.59375 172.160156 C 245.347656 172.230469 245.089844 172.226562 244.84375 172.148438 C 244.59375 172.070312 244.378906 171.894531 244.25 171.664062 C 244.125 171.453125 244.066406 171.210938 244.082031 170.964844 C 244.285156 171.320312 244.597656 171.601562 244.976562 171.757812 C 245.378906 171.859375 245.800781 171.875 246.214844 171.8125 Z M 246.214844 171.8125 "/>
<path style=" stroke:none;fill-rule:nonzero;fill:rgb(0.784314%,0.784314%,0.784314%);fill-opacity:1;" d="M 254.707031 170.039062 C 254.890625 170.515625 255.039062 171.003906 255.15625 171.5 C 255.300781 172 255.375 172.519531 255.378906 173.042969 C 255.363281 173.578125 255.238281 174.101562 255.011719 174.585938 C 254.773438 175.042969 254.496094 175.480469 254.183594 175.886719 C 254.292969 175.386719 254.464844 174.886719 254.613281 174.433594 C 254.746094 173.976562 254.820312 173.503906 254.832031 173.027344 C 254.828125 172.539062 254.796875 172.050781 254.734375 171.566406 C 254.691406 171.058594 254.683594 170.546875 254.707031 170.039062 Z M 251.976562 175.433594 C 251.453125 174.753906 251.175781 173.917969 251.179688 173.0625 C 251.175781 172.609375 251.3125 172.164062 251.570312 171.789062 C 251.839844 171.433594 252.246094 171.207031 252.6875 171.160156 C 252.371094 171.378906 252.113281 171.671875 251.933594 172.011719 C 251.792969 172.347656 251.71875 172.710938 251.726562 173.074219 C 251.75 173.867188 251.832031 174.65625 251.976562 175.433594 Z M 251.976562 175.433594 "/>
<path style=" stroke:none;fill-rule:nonzero;fill:rgb(19.607843%,69.01961%,87.450981%);fill-opacity:1;" d="M 257.898438 172.824219 C 258.964844 173.183594 259.660156 174.207031 259.601562 175.332031 C 259.539062 176.515625 259.195312 177.914062 258.015625 178.570312 C 258.015625 178.570312 254.308594 181.4375 253.015625 185.316406 C 251.253906 185.441406 249.519531 185.800781 247.851562 186.382812 C 247.851562 186.382812 242.644531 185.347656 238.445312 186.484375 C 235.761719 187.230469 234.007812 189.816406 234.308594 192.59375 C 234.707031 196.378906 236.867188 202.152344 245.707031 205.398438 C 259.625 210.507812 265.917969 201.433594 265.917969 201.433594 C 265.917969 201.433594 273.332031 211.078125 279.933594 203.230469 C 281.5625 201.238281 282.589844 198.824219 282.894531 196.269531 C 283.625 190.699219 283.667969 180.0625 272.738281 182.234375 C 271.242188 178.714844 269.480469 175.3125 267.460938 172.058594 C 266.039062 169.875 263.910156 168.25 261.429688 167.460938 C 258.570312 166.589844 254.507812 166.585938 249.710938 170.046875 Z M 257.898438 172.824219 "/>
<path style=" stroke:none;fill-rule:nonzero;fill:rgb(17.254902%,60.784316%,76.862746%);fill-opacity:1;" d="M 273.179688 186.238281 C 274.035156 186.144531 274.898438 186.15625 275.75 186.273438 C 276.613281 186.375 277.460938 186.59375 278.269531 186.917969 C 279.097656 187.230469 279.847656 187.726562 280.464844 188.363281 C 281.070312 189.007812 281.445312 189.835938 281.53125 190.714844 C 281.253906 189.929688 280.78125 189.226562 280.164062 188.667969 C 279.542969 188.132812 278.828125 187.714844 278.0625 187.425781 C 277.289062 187.113281 276.492188 186.867188 275.679688 186.691406 C 274.851562 186.507812 274.019531 186.355469 273.179688 186.238281 Z M 269.179688 198.316406 C 269.867188 198.867188 270.585938 199.375 271.332031 199.847656 C 272.058594 200.316406 272.824219 200.730469 273.613281 201.085938 C 274.382812 201.449219 275.21875 201.660156 276.066406 201.707031 C 276.929688 201.738281 277.78125 201.488281 278.492188 201 C 277.867188 201.6875 276.996094 202.09375 276.074219 202.132812 C 275.152344 202.164062 274.234375 201.980469 273.398438 201.585938 C 272.574219 201.21875 271.796875 200.75 271.085938 200.195312 C 270.371094 199.65625 269.726562 199.023438 269.179688 198.316406 Z M 272.488281 192.324219 C 273.71875 192.625 274.921875 193.039062 276.082031 193.5625 C 277.257812 194.046875 278.367188 194.691406 279.371094 195.472656 L 277.601562 194.792969 C 277.015625 194.558594 276.4375 194.316406 275.859375 194.0625 C 274.695312 193.5625 273.570312 192.980469 272.488281 192.324219 Z M 272.738281 182.234375 C 272.777344 183.96875 272.628906 185.695312 272.300781 187.398438 C 271.984375 189.101562 271.535156 190.78125 270.957031 192.414062 C 270.371094 194.046875 269.65625 195.628906 268.816406 197.148438 C 268.410156 197.910156 267.9375 198.636719 267.464844 199.359375 C 266.988281 200.078125 266.445312 200.753906 265.917969 201.433594 C 266.835938 199.984375 267.679688 198.488281 268.445312 196.949219 C 269.214844 195.425781 269.882812 193.847656 270.445312 192.230469 C 271.03125 190.625 271.515625 188.980469 271.890625 187.3125 C 272.285156 185.640625 272.570312 183.945312 272.742188 182.234375 Z M 260.511719 172.292969 C 261.644531 172.574219 262.722656 173.039062 263.703125 173.675781 C 264.699219 174.300781 265.59375 175.078125 266.347656 175.980469 C 267.117188 176.875 267.730469 177.890625 268.160156 178.992188 C 268.378906 179.53125 268.558594 180.089844 268.695312 180.660156 C 268.808594 181.230469 268.894531 181.804688 268.953125 182.382812 C 268.664062 181.273438 268.269531 180.195312 267.773438 179.164062 C 267.285156 178.144531 266.667969 177.191406 265.929688 176.335938 C 265.203125 175.46875 264.375 174.691406 263.464844 174.023438 C 263.011719 173.683594 262.535156 173.367188 262.039062 173.085938 C 261.550781 172.789062 261.039062 172.523438 260.511719 172.292969 Z M 237.988281 193.804688 C 239.746094 195.128906 241.585938 196.339844 243.496094 197.433594 C 245.390625 198.539062 247.378906 199.46875 249.441406 200.210938 C 251.480469 200.988281 253.632812 201.425781 255.8125 201.507812 C 258.007812 201.585938 260.1875 201.09375 262.136719 200.085938 C 261.203125 200.6875 260.1875 201.152344 259.121094 201.46875 C 258.042969 201.761719 256.929688 201.917969 255.8125 201.929688 C 254.691406 201.945312 253.574219 201.839844 252.480469 201.609375 C 251.386719 201.394531 250.308594 201.101562 249.257812 200.726562 C 247.171875 199.957031 245.171875 198.972656 243.285156 197.792969 C 241.398438 196.632812 239.625 195.296875 237.988281 193.804688 Z M 249.46875 191.546875 C 250.808594 191.894531 252.140625 192.234375 253.484375 192.527344 C 254.824219 192.816406 256.167969 193.082031 257.523438 193.265625 C 258.871094 193.464844 260.230469 193.539062 261.589844 193.480469 C 262.265625 193.453125 262.933594 193.335938 263.578125 193.128906 C 264.238281 192.941406 264.835938 192.59375 265.328125 192.117188 C 264.898438 192.679688 264.328125 193.117188 263.671875 193.382812 C 263.019531 193.644531 262.332031 193.820312 261.632812 193.898438 C 260.238281 194.046875 258.835938 194.015625 257.449219 193.808594 C 254.703125 193.402344 252.023438 192.640625 249.46875 191.546875 Z M 259.40625 182.40625 C 260.648438 182.332031 261.886719 182.59375 263 183.15625 C 263.558594 183.433594 264.078125 183.789062 264.535156 184.214844 C 264.992188 184.632812 265.371094 185.136719 265.648438 185.691406 C 265.214844 185.277344 264.75 184.894531 264.265625 184.546875 C 263.789062 184.207031 263.28125 183.90625 262.753906 183.648438 C 261.679688 183.128906 260.558594 182.714844 259.40625 182.40625 Z M 259.40625 182.40625 "/>
<path style=" stroke:none;fill-rule:nonzero;fill:rgb(77.64706%,90.980393%,95.686275%);fill-opacity:1;" d="M 208.734375 201.929688 C 208.734375 201.929688 226.183594 193.105469 246.445312 200.386719 C 259.570312 205.105469 269.585938 200.191406 275.011719 196.144531 C 276.691406 194.898438 278.839844 194.464844 280.871094 194.960938 C 282.90625 195.457031 284.613281 196.832031 285.53125 198.71875 C 286.8125 201.480469 287.824219 204.363281 288.554688 207.320312 C 292.394531 222.039062 205.949219 215.285156 205.949219 215.285156 C 205.949219 215.285156 201.074219 212.519531 208.734375 201.929688 Z M 208.734375 201.929688 "/>
<path style=" stroke:none;fill-rule:nonzero;fill:rgb(46.666667%,78.823531%,90.980393%);fill-opacity:1;" d="M 27.179688 178.019531 C 34.4375 164.996094 50.4375 162.5 61.730469 160.738281 C 73.253906 158.941406 74.515625 161.371094 97.730469 161.429688 C 112.46875 161.46875 111.496094 160.488281 131.488281 160.046875 C 163.035156 159.351562 161.496094 161.878906 171.394531 159.496094 C 186.375 155.886719 192.15625 149.558594 203.484375 152.414062 C 205.96875 153.039062 213.742188 155 216.792969 161.242188 C 220.703125 169.246094 212.5 175.402344 213.839844 185.878906 C 215.695312 200.378906 233.46875 204.730469 232.105469 210.367188 C 230.503906 216.984375 204.902344 215.53125 166.085938 214.511719 C 115.144531 213.175781 89.675781 212.507812 84.355469 212.8125 C 51.855469 214.671875 36.984375 219.265625 28.457031 209.332031 C 21.457031 201.179688 22.089844 187.152344 27.179688 178.019531 Z M 27.179688 178.019531 "/>
<path style=" stroke:none;fill-rule:nonzero;fill:rgb(77.64706%,90.980393%,95.686275%);fill-opacity:1;" d="M 30.164062 189.246094 L 29.421875 189.164062 C 29.460938 188.765625 29.511719 188.386719 29.558594 188.039062 L 30.300781 188.144531 C 30.25 188.507812 30.203125 188.878906 30.164062 189.246094 Z M 193.382812 210.324219 C 192.914062 210.324219 192.453125 210.320312 191.996094 210.316406 L 192.003906 209.5625 C 192.457031 209.570312 192.917969 209.570312 193.382812 209.570312 L 194.261719 209.570312 L 194.269531 210.320312 Z M 196.539062 210.28125 L 196.519531 209.53125 C 197.257812 209.511719 198.007812 209.480469 198.773438 209.449219 L 198.808594 210.195312 C 198.039062 210.234375 197.28125 210.261719 196.539062 210.28125 Z M 189.726562 210.265625 C 188.953125 210.242188 188.199219 210.214844 187.457031 210.175781 L 187.496094 209.425781 C 188.230469 209.460938 188.980469 209.492188 189.75 209.515625 Z M 201.074219 210.066406 L 201.023438 209.320312 C 201.765625 209.269531 202.515625 209.210938 203.273438 209.144531 L 203.339844 209.894531 C 202.574219 209.960938 201.820312 210.019531 201.074219 210.066406 Z M 185.191406 210.046875 C 184.414062 209.992188 183.660156 209.9375 182.929688 209.875 L 182.992188 209.128906 C 183.71875 209.1875 184.46875 209.246094 185.242188 209.296875 Z M 205.597656 209.675781 L 205.519531 208.929688 C 206.257812 208.851562 207.003906 208.761719 207.761719 208.667969 L 207.855469 209.414062 C 207.09375 209.507812 206.34375 209.597656 205.597656 209.675781 Z M 180.671875 209.671875 C 179.886719 209.59375 179.132812 209.515625 178.414062 209.4375 L 178.496094 208.691406 C 179.210938 208.769531 179.960938 208.847656 180.742188 208.921875 Z M 176.164062 209.183594 L 174.796875 209.03125 C 174.511719 208.996094 174.21875 208.964844 173.917969 208.933594 L 173.996094 208.1875 C 174.300781 208.21875 174.59375 208.25 174.882812 208.285156 L 176.25 208.441406 Z M 210.105469 209.105469 L 209.996094 208.363281 C 210.480469 208.289062 210.972656 208.214844 211.464844 208.136719 L 212.222656 208.011719 L 212.347656 208.753906 L 211.582031 208.878906 C 211.085938 208.957031 210.59375 209.03125 210.105469 209.105469 Z M 171.671875 208.726562 C 170.964844 208.667969 170.214844 208.613281 169.421875 208.554688 L 169.472656 207.808594 C 170.273438 207.863281 171.027344 207.921875 171.734375 207.980469 Z M 167.167969 208.410156 C 166.449219 208.363281 165.695312 208.320312 164.910156 208.277344 L 164.953125 207.527344 C 165.738281 207.570312 166.492188 207.617188 167.210938 207.660156 Z M 214.585938 208.355469 L 214.445312 207.617188 C 215.230469 207.472656 215.96875 207.328125 216.660156 207.183594 L 216.8125 207.917969 C 216.117188 208.058594 215.375 208.207031 214.585938 208.355469 Z M 162.652344 208.160156 C 161.925781 208.121094 161.175781 208.085938 160.394531 208.050781 L 160.429688 207.300781 C 161.210938 207.335938 161.964844 207.375 162.691406 207.410156 Z M 158.136719 207.949219 L 155.875 207.855469 L 155.90625 207.105469 L 158.167969 207.199219 Z M 153.617188 207.761719 L 151.355469 207.675781 L 151.382812 206.925781 L 153.644531 207.011719 Z M 149.09375 207.589844 L 146.832031 207.507812 L 146.859375 206.757812 L 149.121094 206.839844 Z M 144.570312 207.425781 L 142.308594 207.347656 L 142.335938 206.597656 L 144.597656 206.675781 Z M 140.046875 207.269531 L 137.789062 207.191406 L 137.8125 206.441406 L 140.074219 206.515625 Z M 135.527344 207.113281 L 133.265625 207.035156 L 133.289062 206.285156 L 135.550781 206.363281 Z M 131.003906 206.960938 L 128.742188 206.882812 L 128.765625 206.132812 L 131.027344 206.210938 Z M 126.480469 206.808594 L 124.238281 206.734375 L 124.230469 206.355469 L 124.261719 205.980469 L 126.503906 206.058594 Z M 45.046875 206.675781 C 44.285156 206.675781 43.527344 206.660156 42.769531 206.625 L 42.804688 205.875 C 43.492188 205.910156 44.226562 205.925781 45.046875 205.925781 Z M 121.957031 206.65625 L 119.695312 206.582031 L 119.71875 205.832031 L 121.980469 205.90625 Z M 47.320312 206.644531 L 47.300781 205.894531 C 48.03125 205.878906 48.78125 205.855469 49.558594 205.828125 L 49.585938 206.578125 C 48.804688 206.605469 48.050781 206.628906 47.320312 206.644531 Z M 117.429688 206.503906 L 115.171875 206.429688 L 115.195312 205.679688 L 117.457031 205.753906 Z M 51.847656 206.496094 L 51.824219 205.746094 C 52.578125 205.722656 53.335938 205.699219 54.089844 205.683594 L 54.105469 206.4375 C 53.351562 206.449219 52.601562 206.472656 51.847656 206.496094 Z M 69.941406 206.4375 L 69.941406 205.6875 C 70.695312 205.6875 71.449219 205.683594 72.203125 205.679688 L 72.207031 206.429688 C 71.453125 206.433594 70.695312 206.4375 69.941406 206.4375 Z M 40.484375 206.4375 C 39.71875 206.34375 38.960938 206.203125 38.214844 206.011719 L 38.402344 205.285156 C 39.117188 205.464844 39.84375 205.601562 40.578125 205.691406 Z M 67.675781 206.433594 L 65.410156 206.421875 L 65.417969 205.667969 L 67.679688 205.683594 Z M 63.148438 206.402344 L 60.886719 206.390625 L 60.890625 205.640625 L 63.152344 205.652344 Z M 56.363281 206.402344 L 56.355469 205.652344 C 57.113281 205.644531 57.867188 205.640625 58.621094 205.640625 L 58.625 206.390625 C 57.871094 206.390625 57.117188 206.394531 56.363281 206.402344 Z M 74.472656 206.398438 L 74.460938 205.648438 C 75.210938 205.632812 75.964844 205.617188 76.71875 205.59375 L 76.742188 206.34375 C 75.984375 206.367188 75.230469 206.386719 74.472656 206.398438 Z M 112.910156 206.359375 L 110.648438 206.285156 L 110.671875 205.535156 L 112.933594 205.605469 Z M 124.230469 206.355469 L 124.242188 205.980469 Z M 79.007812 206.253906 L 78.972656 205.507812 C 79.726562 205.472656 80.476562 205.429688 81.226562 205.378906 L 81.277344 206.128906 C 80.519531 206.179688 79.765625 206.21875 79.007812 206.253906 Z M 108.386719 206.214844 L 106.125 206.148438 L 106.148438 205.398438 L 108.410156 205.464844 Z M 103.863281 206.082031 L 101.601562 206.019531 L 101.621094 205.269531 L 103.882812 205.332031 Z M 83.527344 205.980469 L 83.492188 205.234375 C 84.199219 205.195312 84.953125 205.164062 85.761719 205.140625 L 85.78125 205.890625 C 84.980469 205.914062 84.230469 205.945312 83.527344 205.980469 Z M 99.339844 205.964844 C 98.5625 205.945312 97.808594 205.929688 97.078125 205.917969 L 97.09375 205.164062 C 97.824219 205.179688 98.578125 205.195312 99.355469 205.214844 Z M 94.820312 205.875 C 94.035156 205.867188 93.28125 205.855469 92.558594 205.847656 L 92.5625 205.097656 C 93.289062 205.105469 94.042969 205.113281 94.828125 205.125 Z M 88.039062 205.847656 L 88.03125 205.097656 C 88.714844 205.089844 89.429688 205.085938 90.183594 205.085938 L 90.296875 205.085938 L 90.296875 205.835938 L 90.183594 205.835938 C 89.433594 205.835938 88.71875 205.839844 88.039062 205.847656 Z M 36.019531 205.242188 C 35.308594 204.914062 34.636719 204.503906 34.015625 204.027344 L 34.472656 203.433594 C 35.046875 203.878906 35.671875 204.257812 36.332031 204.558594 Z M 32.332031 202.394531 C 31.835938 201.792969 31.402344 201.140625 31.035156 200.449219 L 31.695312 200.097656 C 32.039062 200.742188 32.445312 201.351562 32.910156 201.917969 Z M 30.128906 198.304688 C 29.890625 197.570312 29.707031 196.816406 29.574219 196.054688 L 30.308594 195.921875 C 30.4375 196.648438 30.613281 197.367188 30.839844 198.070312 Z M 29.304688 193.761719 C 29.269531 193.246094 29.253906 192.734375 29.257812 192.21875 C 29.257812 191.960938 29.257812 191.707031 29.265625 191.457031 L 30.015625 191.480469 C 30.007812 191.722656 30.003906 191.96875 30.003906 192.21875 C 30.003906 192.707031 30.019531 193.203125 30.050781 193.710938 Z M 219.082031 207.425781 L 218.917969 206.691406 C 219.304688 206.605469 219.667969 206.519531 220.003906 206.4375 L 220.175781 207.167969 C 219.839844 207.25 219.476562 207.335938 219.082031 207.425781 Z M 219.082031 207.425781 "/>
<path style=" stroke:none;fill-rule:nonzero;fill:rgb(37.254903%,69.01961%,80.784315%);fill-opacity:1;" d="M 151.945312 193.792969 L 151.195312 193.753906 C 152.28125 173.417969 170.355469 165.832031 170.535156 165.757812 L 170.816406 166.453125 C 170.640625 166.523438 153.003906 173.941406 151.945312 193.792969 Z M 44.632812 184.144531 L 44.152344 183.980469 C 48.203125 172.042969 62.375 170.824219 62.519531 170.8125 L 62.554688 171.320312 C 62.417969 171.332031 48.574219 172.527344 44.632812 184.144531 Z M 89.289062 191.371094 L 88.574219 191.207031 C 92.617188 173.566406 113.101562 169.746094 113.308594 169.710938 L 113.433594 170.433594 C 113.234375 170.46875 93.222656 174.210938 89.289062 191.371094 Z M 89.289062 191.371094 "/>
<path style=" stroke:none;fill-rule:nonzero;fill:rgb(7.450981%,47.843137%,62.7451%);fill-opacity:1;" d="M 378.949219 320 L 3.019531 320 C 2.605469 320 2.269531 319.664062 2.269531 319.25 C 2.269531 318.835938 2.605469 318.5 3.019531 318.5 L 378.949219 318.5 C 379.363281 318.5 379.699219 318.835938 379.699219 319.25 C 379.699219 319.664062 379.363281 320 378.949219 320 Z M 378.949219 320 "/>
</g>
</svg>
