<?xml version="1.0" encoding="UTF-8"?>
<svg xmlns="http://www.w3.org/2000/svg" xmlns:xlink="http://www.w3.org/1999/xlink" width="120px" height="101px" viewBox="0 0 119 101" version="1.1">
<defs>
<filter id="alpha" filterUnits="objectBoundingBox" x="0%" y="0%" width="100%" height="100%">
  <feColorMatrix type="matrix" in="SourceGraphic" values="0 0 0 0 1 0 0 0 0 1 0 0 0 0 1 0 0 0 1 0"/>
</filter>
<mask id="mask0">
  <g filter="url(#alpha)">
<rect x="0" y="0" width="119" height="101" style="fill:rgb(0%,0%,0%);fill-opacity:0.501961;stroke:none;"/>
  </g>
</mask>
<clipPath id="clip1">
  <rect x="0" y="0" width="119" height="101"/>
</clipPath>
<g id="surface5" clip-path="url(#clip1)">
<path style=" stroke:none;fill-rule:nonzero;fill:rgb(82.745099%,82.745099%,82.745099%);fill-opacity:1;" d="M 44.890625 82.628906 L 43.160156 82.628906 C 43.40625 82.265625 43.527344 82.082031 43.769531 81.71875 L 45.433594 81.71875 Z M 47.128906 82.628906 L 45.402344 82.628906 C 45.609375 82.265625 45.714844 82.082031 45.925781 81.71875 L 47.585938 81.71875 Z M 46.414062 81.542969 L 43.890625 81.542969 L 44.117188 81.199219 L 46.605469 81.199219 Z M 49.375 81.542969 L 46.847656 81.542969 L 47.03125 81.199219 L 49.515625 81.199219 C 49.460938 81.335938 49.429688 81.40625 49.375 81.542969 Z M 52.332031 81.542969 L 49.808594 81.542969 L 49.941406 81.199219 L 52.429688 81.199219 Z M 55.289062 81.542969 L 52.765625 81.542969 L 52.855469 81.199219 L 55.34375 81.199219 C 55.324219 81.335938 55.3125 81.40625 55.289062 81.542969 Z M 58.25 81.542969 L 55.722656 81.542969 L 55.769531 81.199219 L 58.257812 81.199219 Z M 61.207031 81.542969 L 58.683594 81.542969 L 58.683594 81.199219 L 61.171875 81.199219 C 61.1875 81.335938 61.191406 81.40625 61.207031 81.542969 Z M 64.167969 81.542969 L 61.644531 81.542969 L 61.597656 81.199219 L 64.082031 81.199219 C 64.117188 81.335938 64.132812 81.40625 64.167969 81.542969 Z M 67.128906 81.542969 L 64.601562 81.542969 L 64.511719 81.199219 L 66.996094 81.199219 C 67.050781 81.335938 67.074219 81.40625 67.128906 81.542969 Z M 70.085938 81.542969 L 67.5625 81.542969 C 67.503906 81.40625 67.476562 81.335938 67.421875 81.199219 L 69.910156 81.199219 Z M 73.042969 81.542969 L 70.519531 81.542969 C 70.445312 81.40625 70.410156 81.335938 70.335938 81.199219 L 72.824219 81.199219 C 72.910156 81.335938 72.957031 81.40625 73.042969 81.542969 Z M 76.347656 81.542969 L 73.480469 81.542969 L 73.25 81.199219 L 76.074219 81.199219 C 76.183594 81.335938 76.238281 81.40625 76.347656 81.542969 Z M 49.371094 82.628906 L 47.640625 82.628906 C 47.816406 82.265625 47.902344 82.082031 48.078125 81.71875 L 49.738281 81.71875 C 49.589844 82.082031 49.515625 82.265625 49.371094 82.628906 Z M 51.613281 82.628906 L 49.882812 82.628906 C 50.019531 82.265625 50.089844 82.082031 50.230469 81.71875 L 51.890625 81.71875 Z M 53.851562 82.628906 L 52.125 82.628906 C 52.226562 82.265625 52.277344 82.082031 52.382812 81.71875 L 54.042969 81.71875 C 53.964844 82.082031 53.929688 82.265625 53.851562 82.628906 Z M 56.09375 82.628906 L 54.363281 82.628906 C 54.433594 82.265625 54.464844 82.082031 54.535156 81.71875 L 56.195312 81.71875 C 56.152344 82.082031 56.132812 82.265625 56.09375 82.628906 Z M 58.332031 82.628906 L 56.605469 82.628906 L 56.6875 81.71875 L 58.347656 81.71875 C 58.339844 82.082031 58.339844 82.265625 58.332031 82.628906 Z M 60.574219 82.628906 L 58.847656 82.628906 L 58.839844 81.71875 L 60.5 81.71875 C 60.53125 82.082031 60.546875 82.265625 60.574219 82.628906 Z M 62.816406 82.628906 L 61.085938 82.628906 L 60.992188 81.71875 L 62.652344 81.71875 C 62.71875 82.082031 62.75 82.265625 62.816406 82.628906 Z M 65.054688 82.628906 L 63.328125 82.628906 C 63.253906 82.265625 63.21875 82.082031 63.144531 81.71875 L 64.804688 81.71875 C 64.90625 82.082031 64.957031 82.265625 65.054688 82.628906 Z M 44.164062 83.847656 L 42.347656 83.847656 L 42.957031 82.933594 L 44.707031 82.933594 Z M 46.523438 83.847656 L 44.703125 83.847656 C 44.914062 83.484375 45.019531 83.300781 45.226562 82.933594 L 46.980469 82.933594 C 46.796875 83.300781 46.707031 83.484375 46.523438 83.847656 Z M 48.882812 83.847656 L 47.0625 83.847656 C 47.238281 83.484375 47.324219 83.300781 47.496094 82.933594 L 49.25 82.933594 C 49.101562 83.300781 49.027344 83.484375 48.882812 83.847656 Z M 51.242188 83.847656 L 49.421875 83.847656 C 49.558594 83.484375 49.628906 83.300781 49.765625 82.933594 L 51.519531 82.933594 C 51.40625 83.300781 51.351562 83.484375 51.242188 83.847656 Z M 53.601562 83.847656 L 51.78125 83.847656 C 51.882812 83.484375 51.933594 83.300781 52.039062 82.9375 C 52.738281 82.9375 53.089844 82.933594 53.789062 82.933594 C 53.714844 83.300781 53.675781 83.484375 53.601562 83.847656 Z M 55.957031 83.847656 L 54.136719 83.847656 L 54.308594 82.933594 L 56.058594 82.933594 C 56.019531 83.300781 56 83.484375 55.957031 83.847656 Z M 58.316406 83.847656 L 56.496094 83.847656 L 56.578125 82.933594 L 58.328125 82.933594 Z M 60.675781 83.847656 L 58.855469 83.847656 L 58.847656 82.933594 L 60.601562 82.933594 C 60.628906 83.300781 60.644531 83.484375 60.675781 83.847656 Z M 63.03125 83.847656 L 61.214844 83.847656 C 61.175781 83.484375 61.15625 83.300781 61.121094 82.933594 L 62.871094 82.933594 Z M 65.390625 83.847656 L 63.570312 83.847656 C 63.5 83.484375 63.460938 83.300781 63.386719 82.933594 L 65.140625 82.933594 Z M 43.441406 85.066406 L 41.53125 85.066406 C 41.773438 84.699219 41.898438 84.519531 42.140625 84.152344 L 43.984375 84.152344 C 43.765625 84.515625 43.660156 84.699219 43.441406 85.066406 Z M 45.917969 85.066406 L 44.007812 85.066406 L 44.53125 84.152344 L 46.371094 84.152344 C 46.191406 84.515625 46.097656 84.699219 45.917969 85.066406 Z M 48.394531 85.066406 L 46.484375 85.066406 L 46.917969 84.152344 L 48.761719 84.152344 Z M 50.871094 85.066406 L 48.957031 85.066406 L 49.304688 84.152344 L 51.148438 84.152344 Z M 53.347656 85.066406 L 51.4375 85.066406 C 51.539062 84.699219 51.589844 84.519531 51.695312 84.152344 L 53.535156 84.152344 C 53.460938 84.515625 53.421875 84.699219 53.347656 85.066406 Z M 55.820312 85.066406 L 53.910156 85.066406 C 53.980469 84.699219 54.015625 84.519531 54.082031 84.152344 L 55.925781 84.152344 Z M 58.296875 85.066406 L 56.386719 85.066406 L 56.46875 84.152344 L 58.3125 84.152344 C 58.304688 84.515625 58.304688 84.699219 58.296875 85.066406 Z M 60.773438 85.066406 L 58.863281 85.066406 C 58.863281 84.699219 58.859375 84.519531 58.859375 84.152344 L 60.699219 84.152344 C 60.730469 84.515625 60.746094 84.699219 60.773438 85.066406 Z M 63.25 85.066406 L 61.339844 85.066406 C 61.304688 84.699219 61.285156 84.519531 61.246094 84.152344 L 63.085938 84.152344 C 63.152344 84.515625 63.1875 84.699219 63.25 85.066406 Z M 65.726562 85.066406 L 63.816406 85.066406 C 63.742188 84.699219 63.707031 84.519531 63.632812 84.152344 L 65.476562 84.152344 Z M 42.71875 86.28125 L 40.714844 86.28125 C 40.960938 85.917969 41.082031 85.734375 41.328125 85.371094 L 43.261719 85.371094 C 43.078125 85.675781 42.898438 85.980469 42.71875 86.28125 Z M 45.3125 86.28125 L 43.3125 86.28125 L 43.832031 85.371094 L 45.765625 85.371094 C 45.585938 85.734375 45.492188 85.917969 45.3125 86.28125 Z M 47.90625 86.28125 L 45.902344 86.28125 C 46.078125 85.917969 46.164062 85.734375 46.339844 85.371094 L 48.273438 85.371094 C 48.125 85.734375 48.050781 85.917969 47.90625 86.28125 Z M 50.492188 86.3125 L 48.484375 86.3125 C 48.628906 85.9375 48.699219 85.746094 48.84375 85.371094 L 50.777344 85.371094 C 50.664062 85.746094 50.605469 85.9375 50.492188 86.3125 Z M 66.0625 86.28125 L 51.09375 86.28125 C 51.195312 85.917969 51.246094 85.734375 51.347656 85.371094 L 65.8125 85.371094 Z M 54.996094 88.289062 L 66.351562 88.289062 L 65.398438 86.734375 L 55.902344 86.734375 Z M 67.082031 82.628906 L 65.355469 82.628906 C 65.25 82.265625 65.195312 82.082031 65.089844 81.71875 L 66.753906 81.71875 C 66.882812 82.082031 66.949219 82.265625 67.082031 82.628906 Z M 67.523438 83.847656 L 65.707031 83.847656 C 65.601562 83.484375 65.546875 83.300781 65.441406 82.933594 L 67.195312 82.933594 C 67.328125 83.300781 67.394531 83.484375 67.523438 83.847656 Z M 67.96875 85.066406 L 66.054688 85.066406 C 65.949219 84.699219 65.898438 84.519531 65.792969 84.152344 L 67.636719 84.152344 C 67.769531 84.515625 67.835938 84.699219 67.96875 85.066406 Z M 68.410156 86.28125 L 66.40625 86.28125 L 66.144531 85.371094 L 68.078125 85.371094 Z M 69.109375 82.628906 L 67.382812 82.628906 C 67.242188 82.265625 67.175781 82.082031 67.039062 81.71875 L 68.699219 81.71875 C 68.863281 82.082031 68.945312 82.265625 69.109375 82.628906 Z M 69.660156 83.847656 L 67.839844 83.847656 C 67.703125 83.484375 67.632812 83.300781 67.496094 82.933594 L 69.246094 82.933594 C 69.410156 83.300781 69.496094 83.484375 69.660156 83.847656 Z M 70.207031 85.066406 L 68.296875 85.066406 L 67.953125 84.152344 L 69.796875 84.152344 C 69.960938 84.515625 70.042969 84.699219 70.207031 85.066406 Z M 70.753906 86.28125 L 68.753906 86.28125 C 68.617188 85.917969 68.546875 85.734375 68.410156 85.371094 L 70.34375 85.371094 C 70.507812 85.734375 70.589844 85.917969 70.753906 86.28125 Z M 71.136719 82.628906 L 69.410156 82.628906 L 68.984375 81.71875 L 70.644531 81.71875 C 70.84375 82.082031 70.941406 82.265625 71.136719 82.628906 Z M 71.792969 83.847656 L 69.972656 83.847656 L 69.550781 82.933594 L 71.300781 82.933594 C 71.496094 83.300781 71.59375 83.484375 71.792969 83.847656 Z M 72.445312 85.066406 L 70.535156 85.066406 C 70.367188 84.699219 70.28125 84.519531 70.113281 84.152344 L 71.957031 84.152344 Z M 73.101562 86.28125 L 71.101562 86.28125 C 70.929688 85.917969 70.847656 85.734375 70.675781 85.371094 L 72.609375 85.371094 Z M 73.164062 82.628906 L 71.433594 82.628906 L 70.933594 81.71875 L 72.59375 81.71875 C 72.820312 82.082031 72.933594 82.265625 73.164062 82.628906 Z M 73.925781 83.847656 L 72.105469 83.847656 L 71.601562 82.933594 L 73.355469 82.933594 C 73.582031 83.300781 73.695312 83.484375 73.925781 83.847656 Z M 74.6875 85.066406 L 72.777344 85.066406 C 72.574219 84.699219 72.476562 84.519531 72.273438 84.152344 L 74.117188 84.152344 C 74.34375 84.515625 74.457031 84.699219 74.6875 85.066406 Z M 75.449219 86.28125 L 73.445312 86.28125 C 73.277344 85.980469 73.109375 85.675781 72.941406 85.371094 L 74.875 85.371094 C 75.105469 85.734375 75.21875 85.917969 75.449219 86.28125 Z M 75.191406 82.628906 L 73.460938 82.628906 C 73.230469 82.265625 73.113281 82.082031 72.878906 81.71875 L 74.539062 81.71875 C 74.800781 82.082031 74.929688 82.265625 75.191406 82.628906 Z M 76.058594 83.847656 L 74.238281 83.847656 C 74.003906 83.484375 73.890625 83.300781 73.65625 82.933594 L 75.40625 82.933594 C 75.667969 83.300781 75.796875 83.484375 76.058594 83.847656 Z M 76.925781 85.066406 L 75.015625 85.066406 C 74.78125 84.699219 74.667969 84.519531 74.433594 84.152344 L 76.277344 84.152344 C 76.535156 84.515625 76.664062 84.699219 76.925781 85.066406 Z M 77.792969 86.28125 L 75.792969 86.28125 L 75.210938 85.371094 L 77.144531 85.371094 Z M 77.21875 82.628906 L 75.488281 82.628906 C 75.222656 82.265625 75.089844 82.082031 74.824219 81.71875 L 76.488281 81.71875 C 76.777344 82.082031 76.925781 82.265625 77.21875 82.628906 Z M 78.191406 83.847656 L 76.371094 83.847656 C 76.105469 83.484375 75.972656 83.300781 75.710938 82.933594 L 77.460938 82.933594 Z M 79.164062 85.066406 L 77.253906 85.066406 C 76.988281 84.699219 76.859375 84.519531 76.59375 84.152344 L 78.433594 84.152344 C 78.726562 84.515625 78.875 84.699219 79.164062 85.066406 Z M 80.140625 86.28125 L 78.136719 86.28125 L 77.476562 85.371094 L 79.410156 85.371094 C 79.703125 85.734375 79.847656 85.917969 80.140625 86.28125 Z M 80.140625 86.28125 "/>
</g>
<mask id="mask1">
  <g filter="url(#alpha)">
<rect x="0" y="0" width="119" height="101" style="fill:rgb(0%,0%,0%);fill-opacity:0.8;stroke:none;"/>
  </g>
</mask>
<clipPath id="clip2">
  <rect x="0" y="0" width="119" height="101"/>
</clipPath>
<g id="surface8" clip-path="url(#clip2)">
<path style=" stroke:none;fill-rule:nonzero;fill:rgb(52.941179%,86.666667%,99.215686%);fill-opacity:1;" d="M 41.417969 24.496094 C 41.417969 24.976562 41.03125 25.367188 40.554688 25.367188 L 25.78125 25.367188 C 25.300781 25.367188 24.914062 24.976562 24.914062 24.496094 C 24.914062 24.015625 25.300781 23.625 25.78125 23.625 L 40.554688 23.625 C 41.03125 23.625 41.417969 24.015625 41.417969 24.496094 Z M 41.417969 27.738281 C 41.417969 28.21875 41.03125 28.605469 40.554688 28.609375 L 25.78125 28.609375 C 25.300781 28.605469 24.917969 28.21875 24.914062 27.738281 C 24.914062 27.257812 25.300781 26.867188 25.78125 26.867188 L 40.554688 26.867188 C 41.03125 26.867188 41.417969 27.257812 41.417969 27.738281 Z M 36.902344 30.976562 C 36.902344 31.453125 36.515625 31.847656 36.039062 31.847656 L 25.777344 31.847656 C 25.304688 31.84375 24.917969 31.457031 24.917969 30.976562 C 24.917969 30.738281 25.011719 30.519531 25.167969 30.363281 C 25.328125 30.199219 25.550781 30.105469 25.777344 30.105469 L 36.039062 30.105469 C 36.515625 30.105469 36.902344 30.496094 36.902344 30.976562 Z M 36.902344 30.976562 "/>
</g>
</defs>
<g id="surface1">
<path style=" stroke:none;fill-rule:nonzero;fill:rgb(52.941179%,86.666667%,99.215686%);fill-opacity:1;" d="M 67.335938 13.953125 C 68.792969 14.589844 70.15625 15.296875 71.394531 16.046875 C 75.71875 18.675781 79.199219 22.503906 83.449219 25.136719 C 87.460938 27.625 92.363281 28.230469 96.953125 28.648438 C 104.960938 29.371094 121.65625 36.328125 118.640625 49.21875 C 117.542969 53.910156 113.675781 57.09375 111.695312 61.34375 C 109.589844 65.863281 109.8125 71.5 106.457031 75.414062 C 104.980469 77.136719 102.945312 78.277344 100.855469 79.136719 C 86.941406 84.871094 71.3125 84.605469 56.558594 83.972656 C 44.914062 83.472656 26.210938 86.109375 15.980469 79.671875 C 10.902344 76.476562 13.542969 67.738281 10.027344 63.046875 C 7.074219 59.101562 3.058594 56.511719 1.082031 51.578125 C -2.277344 43.175781 2.511719 32.246094 10.898438 29.265625 C 16.136719 27.402344 21.6875 26.550781 26.867188 24.503906 C 32.21875 22.386719 34.277344 19.222656 38.359375 15.472656 C 45.738281 8.695312 58.292969 9.996094 67.335938 13.953125 Z M 67.335938 13.953125 "/>
<path style=" stroke:none;fill-rule:nonzero;fill:rgb(82.745099%,82.745099%,82.745099%);fill-opacity:1;" d="M 80.222656 80.78125 L 39.832031 80.78125 L 39.832031 55.320312 C 39.832031 54.839844 40.210938 54.449219 40.679688 54.449219 L 79.375 54.449219 C 79.84375 54.449219 80.222656 54.839844 80.222656 55.320312 Z M 80.222656 80.78125 "/>
<path style=" stroke:none;fill-rule:nonzero;fill:rgb(94.901961%,94.901961%,94.901961%);fill-opacity:1;" d="M 41.3125 56.292969 L 78.746094 56.292969 L 78.746094 78.746094 L 41.3125 78.746094 Z M 41.3125 56.292969 "/>
<path style=" stroke:none;fill-rule:nonzero;fill:rgb(82.745099%,82.745099%,82.745099%);fill-opacity:1;" d="M 33.410156 88.363281 C 33.039062 88.851562 33.746094 90.3125 34.859375 90.3125 L 86.0625 90.3125 C 87.171875 90.3125 87.871094 88.851562 87.445312 88.363281 Z M 33.410156 88.363281 "/>
<path style=" stroke:none;fill-rule:nonzero;fill:rgb(94.901961%,94.901961%,94.901961%);fill-opacity:1;" d="M 87.304688 88.09375 C 87.730469 88.582031 87.171875 88.980469 86.0625 88.980469 L 34.859375 88.980469 C 33.746094 88.980469 33.148438 88.582031 33.519531 88.09375 L 38.761719 81.1875 C 39.132812 80.695312 40.101562 80.300781 40.929688 80.300781 L 79.023438 80.300781 C 79.847656 80.300781 80.867188 80.695312 81.292969 81.1875 C 83.296875 83.488281 85.300781 85.789062 87.304688 88.09375 Z M 87.304688 88.09375 "/>
<use xlink:href="#surface5" mask="url(#mask0)"/>
<path style=" stroke:none;fill-rule:nonzero;fill:rgb(4.313726%,33.333334%,43.921569%);fill-opacity:1;" d="M 69.613281 78.742188 L 51.789062 78.742188 C 51.917969 78.21875 52.035156 77.804688 52.136719 77.511719 C 52.191406 77.363281 52.261719 77.222656 52.355469 77.09375 C 52.671875 76.644531 53.210938 76.261719 53.90625 75.9375 C 54.738281 75.546875 55.792969 75.242188 56.945312 75.003906 C 58.171875 74.75 59.507812 74.566406 60.8125 74.433594 C 60.898438 74.425781 60.984375 74.417969 61.074219 74.410156 C 62.523438 74.273438 63.914062 74.199219 65.035156 74.160156 C 66.585938 74.109375 67.628906 74.117188 67.628906 74.117188 C 67.628906 74.117188 67.714844 74.253906 67.863281 74.523438 C 68.207031 75.160156 68.894531 76.554688 69.613281 78.742188 Z M 69.613281 78.742188 "/>
<path style=" stroke:none;fill-rule:nonzero;fill:rgb(79.215688%,94.509804%,100%);fill-opacity:1;" d="M 55.960938 49.425781 C 55.925781 49.65625 55.867188 49.871094 55.785156 50.074219 L 55.832031 49.496094 C 55.875 49.46875 55.917969 49.453125 55.960938 49.425781 Z M 55.960938 49.425781 "/>
<path style=" stroke:none;fill-rule:nonzero;fill:rgb(65.490198%,85.882354%,93.333334%);fill-opacity:1;" d="M 65.402344 48.5625 L 65.402344 48.570312 C 65.386719 48.5625 65.367188 48.554688 65.359375 48.554688 C 65.375 48.554688 65.386719 48.5625 65.402344 48.5625 Z M 65.402344 48.5625 "/>
<path style=" stroke:none;fill-rule:nonzero;fill:rgb(61.960787%,85.490197%,94.509804%);fill-opacity:1;" d="M 83.695312 60.816406 C 83.695312 60.816406 84.796875 59.785156 84.578125 59.015625 C 84.390625 58.359375 84.671875 57.625 84.742188 57.320312 C 84.835938 56.917969 84.871094 55.609375 85.171875 55.679688 C 85.675781 55.804688 85.558594 57.894531 85.621094 58.339844 C 85.683594 58.785156 87.023438 57.292969 87.480469 57.214844 C 87.9375 57.136719 90.261719 59.511719 89.226562 60.425781 C 88.191406 61.34375 86.761719 61.714844 86.609375 61.910156 C 86.460938 62.109375 85.75 62.652344 85.75 62.652344 Z M 83.695312 60.816406 "/>
<path style=" stroke:none;fill-rule:nonzero;fill:rgb(61.960787%,85.490197%,94.509804%);fill-opacity:1;" d="M 87.1875 57.371094 C 87.1875 57.371094 90.542969 54.78125 90.910156 54.796875 C 91.277344 54.8125 91.40625 55.003906 91.101562 55.257812 C 90.796875 55.515625 87.933594 57.859375 87.933594 57.859375 C 87.933594 57.859375 92.414062 55.464844 92.71875 55.410156 C 92.894531 55.378906 93.03125 55.71875 92.878906 55.871094 C 92.730469 56.023438 88.558594 58.667969 88.558594 58.667969 C 88.558594 58.667969 92.746094 56.4375 93.015625 56.472656 C 93.25 56.5 93.414062 56.886719 93.117188 57.074219 C 92.816406 57.261719 89.042969 59.554688 89.042969 59.554688 C 89.042969 59.554688 92.195312 58.125 92.40625 58.285156 C 92.53125 58.382812 92.714844 58.601562 91.890625 58.941406 C 91.066406 59.285156 89.273438 60.382812 89.273438 60.382812 Z M 87.1875 57.371094 "/>
<path style=" stroke:none;fill-rule:nonzero;fill:rgb(33.333334%,81.960785%,100%);fill-opacity:1;" d="M 63.226562 46.328125 L 63.226562 46.558594 C 63.207031 46.515625 63.191406 46.480469 63.183594 46.4375 C 63.167969 46.429688 63.167969 46.414062 63.167969 46.402344 C 63.183594 46.378906 63.199219 46.355469 63.226562 46.328125 Z M 63.226562 46.328125 "/>
<path style=" stroke:none;fill-rule:nonzero;fill:rgb(65.490198%,85.882354%,93.333334%);fill-opacity:1;" d="M 60.703125 47.726562 C 60.667969 47.734375 60.625 47.734375 60.59375 47.734375 L 60.59375 47.71875 C 60.625 47.726562 60.667969 47.726562 60.703125 47.726562 Z M 63.226562 46.328125 L 63.226562 46.394531 C 63.210938 46.410156 63.199219 46.425781 63.183594 46.4375 C 63.089844 46.539062 62.988281 46.632812 62.886719 46.730469 C 62.84375 46.761719 62.8125 46.796875 62.769531 46.832031 C 62.820312 46.78125 62.878906 46.71875 62.929688 46.667969 C 63.007812 46.59375 63.082031 46.5 63.167969 46.402344 C 63.183594 46.378906 63.199219 46.355469 63.226562 46.328125 Z M 63.226562 46.328125 "/>
<path style=" stroke:none;fill-rule:nonzero;fill:rgb(69.411767%,88.627452%,95.686275%);fill-opacity:1;" d="M 65.164062 43.382812 C 64.699219 44.425781 64.132812 45.363281 63.488281 46.105469 C 63.402344 46.207031 63.308594 46.308594 63.226562 46.394531 L 63.226562 46.328125 C 63.199219 46.355469 63.183594 46.378906 63.167969 46.402344 C 63.082031 46.5 63.007812 46.59375 62.929688 46.667969 C 62.878906 46.71875 62.820312 46.78125 62.769531 46.832031 C 62.75 46.839844 62.734375 46.855469 62.71875 46.875 C 62.691406 46.898438 62.667969 46.925781 62.640625 46.933594 C 62.574219 46.992188 62.503906 47.046875 62.429688 47.097656 C 62.335938 47.164062 62.253906 47.222656 62.160156 47.273438 C 62.136719 47.289062 62.113281 47.304688 62.089844 47.316406 C 62.007812 47.367188 61.921875 47.410156 61.847656 47.445312 C 61.769531 47.488281 61.691406 47.519531 61.609375 47.546875 L 61.601562 47.554688 C 61.53125 47.574219 61.480469 47.597656 61.421875 47.617188 C 61.40625 47.625 61.390625 47.632812 61.371094 47.632812 C 61.3125 47.652344 61.253906 47.667969 61.195312 47.675781 C 61.175781 47.675781 61.167969 47.683594 61.152344 47.683594 L 61.125 47.683594 C 61.082031 47.695312 61.035156 47.703125 60.992188 47.710938 C 60.949219 47.71875 60.898438 47.71875 60.855469 47.71875 C 60.8125 47.726562 60.769531 47.726562 60.738281 47.726562 L 60.726562 47.726562 C 60.71875 47.734375 60.710938 47.734375 60.703125 47.726562 C 60.667969 47.726562 60.625 47.726562 60.59375 47.71875 L 60.59375 47.734375 C 60.542969 47.734375 60.492188 47.726562 60.433594 47.71875 C 60.371094 47.710938 60.304688 47.703125 60.246094 47.695312 C 60.210938 47.683594 60.179688 47.683594 60.136719 47.675781 C 60.101562 47.667969 60.066406 47.667969 60.035156 47.652344 C 59.855469 47.609375 59.6875 47.539062 59.507812 47.445312 C 59.453125 47.417969 59.398438 47.386719 59.347656 47.351562 C 59.070312 47.191406 58.796875 46.960938 58.519531 46.667969 C 58.417969 46.566406 58.324219 46.449219 58.222656 46.328125 C 57.789062 45.78125 57.359375 45.054688 56.960938 44.132812 C 56.796875 43.765625 56.644531 43.394531 56.503906 43.015625 C 56.714844 43.433594 56.347656 39.535156 56.429688 39.671875 C 55.28125 37.453125 56.425781 39.277344 56.835938 38.175781 C 59.382812 39.261719 64.335938 41.128906 64.335938 39.234375 C 64.335938 39.234375 64.445312 40.386719 64.574219 41.582031 C 64.675781 42.5625 64.785156 43.578125 64.835938 43.964844 C 64.835938 43.964844 64.96875 43.75 65.164062 43.382812 Z M 65.164062 43.382812 "/>
<path style=" stroke:none;fill-rule:nonzero;fill:rgb(65.490198%,85.882354%,93.333334%);fill-opacity:1;" d="M 60.703125 47.726562 C 60.667969 47.734375 60.625 47.734375 60.59375 47.734375 L 60.59375 47.71875 C 60.625 47.726562 60.667969 47.726562 60.703125 47.726562 Z M 63.226562 46.328125 L 63.226562 46.394531 C 63.210938 46.410156 63.199219 46.425781 63.183594 46.4375 C 63.089844 46.539062 62.988281 46.632812 62.886719 46.730469 C 62.84375 46.761719 62.8125 46.796875 62.769531 46.832031 C 62.820312 46.78125 62.878906 46.71875 62.929688 46.667969 C 63.007812 46.59375 63.082031 46.5 63.167969 46.402344 C 63.183594 46.378906 63.199219 46.355469 63.226562 46.328125 Z M 63.226562 46.328125 "/>
<path style=" stroke:none;fill-rule:nonzero;fill:rgb(33.333334%,81.960785%,100%);fill-opacity:1;" d="M 56.503906 43.015625 C 55.824219 41.667969 54.734375 39.089844 54.929688 36.648438 L 54.929688 36.640625 C 54.625 34.617188 57.121094 30.972656 60.929688 31.160156 C 64.742188 30.972656 67.238281 34.617188 66.933594 36.640625 L 66.933594 36.648438 C 67.050781 38.125 66.695312 39.644531 66.257812 40.917969 C 66.535156 40.90625 66.804688 40.941406 67.078125 41.035156 C 68.59375 41.539062 69.304688 43.527344 68.660156 45.464844 C 68.027344 47.410156 66.273438 48.570312 64.757812 48.070312 C 64.054688 47.839844 63.523438 47.285156 63.226562 46.558594 L 63.226562 46.394531 C 63.308594 46.308594 63.402344 46.207031 63.488281 46.105469 C 64.132812 45.363281 64.699219 44.425781 65.164062 43.382812 C 64.96875 43.75 64.851562 44.199219 64.851562 44.199219 C 64.800781 43.816406 64.671875 42.5625 64.570312 41.582031 C 64.445312 40.386719 64.335938 39.234375 64.335938 39.234375 C 64.335938 41.128906 59.382812 39.261719 56.832031 38.175781 Z M 56.503906 43.015625 "/>
<path style=" stroke:none;fill-rule:nonzero;fill:rgb(35.686275%,56.862748%,64.705884%);fill-opacity:1;" d="M 63.226562 46.328125 L 63.226562 46.558594 C 63.226562 46.71875 63.21875 46.917969 63.226562 47.136719 C 62.980469 47.445312 62.734375 47.703125 62.480469 47.898438 C 62.394531 47.964844 62.3125 48.027344 62.226562 48.085938 C 62.164062 48.132812 62.09375 48.175781 62.023438 48.214844 L 62.015625 48.214844 C 61.625 48.433594 61.234375 48.546875 60.855469 48.554688 L 60.660156 48.554688 C 60.636719 48.554688 60.609375 48.554688 60.59375 48.546875 L 60.59375 47.71875 C 60.625 47.726562 60.667969 47.726562 60.703125 47.726562 C 60.710938 47.734375 60.71875 47.734375 60.726562 47.726562 L 60.734375 47.726562 C 60.777344 47.734375 60.8125 47.734375 60.855469 47.734375 C 60.90625 47.734375 60.964844 47.726562 61.015625 47.71875 C 61.074219 47.710938 61.144531 47.703125 61.203125 47.691406 C 61.234375 47.683594 61.269531 47.683594 61.3125 47.675781 C 61.347656 47.667969 61.378906 47.667969 61.414062 47.648438 C 61.59375 47.605469 61.761719 47.539062 61.9375 47.445312 C 61.988281 47.417969 62.050781 47.386719 62.101562 47.351562 C 62.285156 47.25 62.464844 47.113281 62.640625 46.933594 C 62.667969 46.925781 62.691406 46.898438 62.71875 46.875 C 62.734375 46.855469 62.75 46.839844 62.769531 46.832031 C 62.820312 46.78125 62.878906 46.71875 62.929688 46.667969 C 63.007812 46.589844 63.082031 46.496094 63.167969 46.402344 C 63.183594 46.378906 63.199219 46.355469 63.226562 46.328125 Z M 63.226562 46.328125 "/>
<path style=" stroke:none;fill-rule:nonzero;fill:rgb(5.490196%,41.568628%,54.901963%);fill-opacity:1;" d="M 60.59375 53.640625 L 60.59375 76.746094 L 64.546875 76.574219 L 67.800781 76.429688 L 67.46875 72.394531 L 67.105469 67.878906 C 66.539062 68.117188 65.976562 68.367188 65.417969 68.621094 C 65.570312 66.835938 65.640625 65.199219 65.539062 63.859375 C 65.140625 58.875 64.523438 54.8125 64.039062 52.15625 L 64.039062 52.148438 C 64.089844 51.636719 64.023438 51.0625 63.902344 50.535156 C 63.886719 50.425781 63.863281 50.316406 63.835938 50.210938 C 63.800781 50.089844 63.777344 49.980469 63.742188 49.871094 L 63.667969 49.613281 C 63.648438 49.554688 63.625 49.496094 63.609375 49.441406 C 63.546875 49.234375 63.472656 49.027344 63.386719 48.828125 L 63.371094 48.828125 C 63.4375 49.136719 63.675781 50.160156 63.972656 51.773438 L 63.972656 51.78125 C 63.777344 52.636719 63.160156 53.113281 62.394531 53.378906 C 62.386719 53.378906 62.371094 53.386719 62.363281 53.386719 C 61.839844 53.566406 61.246094 53.632812 60.679688 53.640625 C 60.652344 53.640625 60.617188 53.652344 60.59375 53.640625 Z M 60.59375 53.640625 "/>
<path style=" stroke:none;fill-rule:nonzero;fill:rgb(3.137255%,65.098041%,87.843138%);fill-opacity:1;" d="M 69.625 60.828125 C 69.832031 61.144531 70.117188 61.722656 70.40625 62.382812 C 70.363281 63.105469 70.3125 63.542969 70.3125 63.542969 C 70.3125 63.542969 70 64.371094 69.585938 65.667969 C 69.472656 65.992188 68.410156 71.726562 68.289062 72.101562 C 68.265625 72.171875 68.246094 72.246094 68.222656 72.316406 C 67.832031 72.511719 67.917969 72.171875 67.242188 72.445312 C 67.039062 72.527344 66.820312 72.613281 66.589844 72.714844 C 66.554688 72.734375 66.515625 72.75 66.453125 72.777344 C 66.386719 72.800781 66.320312 72.828125 66.25 72.863281 C 65.800781 73.058594 65.351562 73.257812 64.90625 73.460938 C 65.058594 71.675781 65.640625 65.199219 65.539062 63.859375 C 65.140625 58.875 64.523438 54.8125 64.039062 52.15625 L 64.039062 52.148438 C 64.011719 52.019531 63.996094 51.902344 63.972656 51.78125 L 63.972656 51.773438 C 63.675781 50.160156 63.4375 49.136719 63.371094 48.828125 L 65.5625 48.828125 L 65.5625 48.847656 C 66.171875 48.804688 69.046875 48.394531 71.011719 50.28125 C 69.929688 49.8125 68.492188 50.238281 68.011719 50.535156 C 67.816406 50.648438 67.636719 50.785156 67.476562 50.945312 C 67.230469 51.175781 67.03125 51.449219 66.882812 51.757812 C 65.480469 54.683594 69.035156 59.921875 69.625 60.828125 Z M 69.625 60.828125 "/>
<path style=" stroke:none;fill-rule:nonzero;fill:rgb(3.137255%,65.098041%,87.843138%);fill-opacity:1;" d="M 69.785156 78.742188 L 64.335938 78.742188 C 64.394531 78.042969 64.46875 77.316406 64.546875 76.574219 C 64.628906 75.78125 64.726562 74.972656 64.820312 74.160156 C 64.851562 73.882812 64.882812 73.601562 64.914062 73.324219 C 64.914062 73.324219 64.914062 73.324219 64.917969 73.320312 C 65.578125 73.078125 66.449219 71.945312 67.402344 71.5625 C 67.425781 71.554688 67.445312 71.546875 67.46875 71.539062 C 67.742188 71.445312 68.011719 72.203125 68.289062 72.101562 C 68.46875 74.011719 69.105469 76.5 69.785156 78.742188 Z M 69.785156 78.742188 "/>
<path style=" stroke:none;fill-rule:nonzero;fill:rgb(69.411767%,88.627452%,95.686275%);fill-opacity:1;" d="M 60.59375 48.546875 L 60.59375 53.640625 C 60.617188 53.652344 60.652344 53.640625 60.679688 53.640625 C 61.246094 53.632812 61.839844 53.566406 62.363281 53.386719 C 62.371094 53.386719 62.386719 53.378906 62.394531 53.378906 C 63.160156 53.113281 63.777344 52.636719 63.972656 51.78125 L 63.972656 51.773438 C 63.675781 50.160156 63.4375 49.136719 63.371094 48.828125 L 63.25 48.828125 L 63.25 48.667969 C 63.25 48.5625 63.242188 48.46875 63.242188 48.375 C 63.234375 48.070312 63.234375 47.777344 63.226562 47.496094 L 63.226562 47.140625 C 62.980469 47.445312 62.734375 47.703125 62.480469 47.898438 C 62.402344 47.96875 62.320312 48.03125 62.226562 48.085938 C 62.164062 48.132812 62.097656 48.175781 62.023438 48.214844 L 62.015625 48.214844 C 61.601562 48.453125 61.195312 48.554688 60.789062 48.554688 C 60.71875 48.554688 60.652344 48.554688 60.59375 48.546875 Z M 60.59375 48.546875 "/>
<path style=" stroke:none;fill-rule:nonzero;fill:rgb(3.137255%,65.098041%,87.843138%);fill-opacity:1;" d="M 84.882812 59.738281 L 85.082031 60.089844 L 85.085938 60.097656 L 86.617188 62.824219 L 86.851562 63.242188 C 86.851562 63.242188 86.390625 63.429688 85.660156 63.742188 C 84.996094 64.023438 84.113281 64.398438 83.160156 64.8125 C 82.894531 64.933594 82.628906 65.050781 82.359375 65.164062 C 80.503906 65.996094 78.546875 66.882812 77.566406 67.449219 C 75.429688 68.679688 73.652344 69.109375 72.570312 69.085938 C 71.492188 69.058594 69.128906 62.628906 68.757812 61.085938 C 68.386719 59.550781 67.003906 56.722656 66.011719 54.027344 C 65.59375 52.882812 65.714844 51.871094 66.074219 51.070312 C 66.550781 49.984375 67.449219 49.28125 68.007812 49.167969 C 68.226562 49.117188 68.449219 49.09375 68.675781 49.101562 C 69.019531 49.101562 69.347656 49.171875 69.65625 49.289062 C 72.660156 50.472656 73.59375 56.75 73.769531 57.820312 C 73.832031 58.191406 74.015625 58.8125 74.246094 59.492188 C 74.761719 61.082031 75.515625 63 75.515625 63 C 77.023438 62.34375 77.648438 62.15625 78.222656 61.992188 C 78.640625 61.867188 79.035156 61.765625 79.714844 61.503906 C 79.921875 61.425781 80.140625 61.335938 80.375 61.253906 C 80.953125 61.046875 81.53125 60.839844 82.113281 60.644531 C 83.550781 60.160156 84.882812 59.738281 84.882812 59.738281 Z M 84.882812 59.738281 "/>
<path style=" stroke:none;fill-rule:nonzero;fill:rgb(35.686275%,56.862748%,64.705884%);fill-opacity:1;" d="M 60.855469 47.71875 L 60.855469 48.546875 C 60.832031 48.554688 60.8125 48.554688 60.789062 48.554688 L 60.59375 48.554688 C 60.210938 48.546875 59.820312 48.4375 59.433594 48.214844 L 59.425781 48.214844 C 59.351562 48.175781 59.285156 48.132812 59.21875 48.085938 C 59.132812 48.027344 59.050781 47.964844 58.96875 47.898438 C 58.714844 47.703125 58.46875 47.445312 58.222656 47.140625 C 58.230469 46.804688 58.222656 46.523438 58.222656 46.328125 C 58.324219 46.449219 58.417969 46.566406 58.515625 46.667969 C 58.796875 46.960938 59.070312 47.191406 59.347656 47.351562 C 59.398438 47.386719 59.457031 47.421875 59.507812 47.445312 C 59.6875 47.539062 59.855469 47.609375 60.035156 47.652344 C 60.066406 47.667969 60.101562 47.667969 60.132812 47.675781 C 60.179688 47.683594 60.210938 47.683594 60.246094 47.695312 C 60.304688 47.703125 60.371094 47.710938 60.433594 47.71875 C 60.492188 47.726562 60.542969 47.734375 60.59375 47.734375 C 60.625 47.734375 60.667969 47.734375 60.703125 47.726562 C 60.710938 47.734375 60.71875 47.734375 60.726562 47.726562 L 60.734375 47.726562 C 60.769531 47.726562 60.8125 47.726562 60.855469 47.71875 Z M 60.855469 47.71875 "/>
<path style=" stroke:none;fill-rule:nonzero;fill:rgb(5.490196%,41.568628%,54.901963%);fill-opacity:1;" d="M 60.855469 53.640625 L 60.855469 76.746094 L 56.902344 76.574219 L 53.648438 76.429688 L 53.980469 72.394531 L 54.34375 67.878906 C 54.867188 68.101562 55.460938 68.363281 56.03125 68.621094 C 55.875 66.835938 55.808594 65.199219 55.910156 63.859375 C 56.308594 58.875 56.925781 54.8125 57.410156 52.15625 L 57.410156 52.148438 C 57.359375 51.636719 57.425781 51.0625 57.542969 50.535156 C 57.5625 50.421875 57.585938 50.3125 57.613281 50.210938 C 57.648438 50.089844 57.671875 49.980469 57.707031 49.871094 L 57.78125 49.613281 C 57.796875 49.554688 57.824219 49.496094 57.839844 49.441406 C 57.902344 49.234375 57.976562 49.027344 58.0625 48.828125 L 58.078125 48.828125 C 58.011719 49.136719 57.773438 50.160156 57.476562 51.773438 L 57.476562 51.78125 C 57.671875 52.636719 58.289062 53.113281 59.050781 53.378906 C 59.0625 53.378906 59.078125 53.386719 59.085938 53.386719 C 59.609375 53.566406 60.203125 53.632812 60.769531 53.640625 C 60.796875 53.640625 60.832031 53.652344 60.855469 53.640625 Z M 60.855469 53.640625 "/>
<path style=" stroke:none;fill-rule:nonzero;fill:rgb(3.137255%,65.098041%,87.843138%);fill-opacity:1;" d="M 58.078125 48.828125 C 58.011719 49.136719 57.773438 50.160156 57.476562 51.773438 L 57.476562 51.78125 C 57.453125 51.902344 57.433594 52.019531 57.410156 52.148438 L 57.410156 52.15625 C 56.925781 54.8125 56.308594 58.875 55.910156 63.859375 C 55.808594 65.199219 55.875 66.835938 56.03125 68.621094 C 55.46875 68.367188 54.910156 68.117188 54.34375 67.878906 C 54.117188 67.773438 53.894531 67.691406 53.691406 67.605469 C 53.015625 67.332031 52.660156 67.136719 52.269531 66.9375 C 52.246094 66.871094 52.226562 66.792969 52.203125 66.726562 C 52.082031 66.351562 51.972656 65.992188 51.863281 65.667969 C 51.449219 64.371094 51.136719 63.542969 51.136719 63.542969 C 51.136719 63.542969 51.085938 63.109375 51.042969 62.382812 C 51.332031 61.722656 51.617188 61.144531 51.820312 60.828125 C 52.414062 59.921875 55.96875 54.683594 54.5625 51.757812 C 54.417969 51.453125 54.21875 51.175781 53.972656 50.945312 C 53.8125 50.785156 53.632812 50.648438 53.4375 50.535156 C 52.957031 50.238281 51.058594 50.574219 49.972656 51.042969 C 51.9375 49.15625 55.277344 48.804688 55.886719 48.847656 L 55.886719 48.828125 Z M 57.109375 78.742188 L 51.660156 78.742188 C 51.824219 78.203125 51.984375 77.648438 52.136719 77.09375 C 52.621094 75.335938 53.023438 73.554688 53.160156 72.101562 C 53.4375 72.203125 53.707031 72.296875 53.980469 72.390625 C 54.964844 72.742188 55.859375 73.074219 56.535156 73.324219 C 56.597656 73.882812 56.664062 74.445312 56.726562 75.003906 C 56.785156 75.53125 56.847656 76.058594 56.902344 76.574219 C 56.980469 77.316406 57.054688 78.042969 57.109375 78.742188 Z M 57.109375 78.742188 "/>
<path style=" stroke:none;fill-rule:nonzero;fill:rgb(69.411767%,88.627452%,95.686275%);fill-opacity:1;" d="M 60.855469 48.546875 L 60.855469 53.640625 C 60.832031 53.652344 60.796875 53.640625 60.769531 53.640625 C 60.203125 53.632812 59.609375 53.566406 59.085938 53.386719 C 59.078125 53.386719 59.0625 53.378906 59.050781 53.378906 C 58.289062 53.113281 57.671875 52.636719 57.476562 51.78125 L 57.476562 51.773438 C 57.773438 50.160156 58.011719 49.136719 58.078125 48.828125 L 58.195312 48.828125 L 58.195312 48.667969 C 58.195312 48.5625 58.207031 48.46875 58.207031 48.375 C 58.214844 48.070312 58.214844 47.777344 58.222656 47.496094 L 58.222656 47.140625 C 58.46875 47.445312 58.714844 47.703125 58.96875 47.898438 C 59.050781 47.976562 59.136719 48.035156 59.21875 48.085938 C 59.289062 48.136719 59.355469 48.179688 59.425781 48.214844 L 59.433594 48.214844 C 59.847656 48.453125 60.253906 48.554688 60.660156 48.554688 C 60.726562 48.554688 60.796875 48.554688 60.855469 48.546875 Z M 60.855469 48.546875 "/>
<path style=" stroke:none;fill-rule:nonzero;fill:rgb(52.549022%,82.352942%,93.333334%);fill-opacity:1;" d="M 63.191406 71.136719 C 63.132812 71.515625 62.886719 71.796875 62.886719 71.796875 C 62.886719 71.796875 63.03125 72.289062 62.699219 72.613281 C 62.699219 72.613281 62.8125 73.082031 62.378906 73.390625 C 62.378906 73.390625 62.480469 73.851562 62.140625 74.046875 C 62.140625 74.046875 61.40625 74.144531 61.136719 74.089844 C 60.039062 73.839844 58.949219 73.578125 57.859375 73.304688 L 58.578125 70.257812 L 58.578125 70.25 C 58.890625 70.039062 59.1875 69.839844 59.28125 69.78125 C 59.507812 69.644531 60.289062 69.6875 61.089844 69.941406 C 61.871094 70.191406 62.742188 70.539062 62.988281 70.675781 C 63.117188 70.746094 63.242188 70.773438 63.191406 71.136719 Z M 63.191406 71.136719 "/>
<path style=" stroke:none;fill-rule:nonzero;fill:rgb(3.137255%,65.098041%,87.843138%);fill-opacity:1;" d="M 58.671875 69.859375 L 58.578125 70.25 L 58.578125 70.257812 L 57.859375 73.304688 L 57.75 73.777344 C 57.75 73.777344 57.28125 73.597656 56.535156 73.324219 C 55.859375 73.074219 54.960938 72.742188 53.980469 72.394531 C 53.707031 72.300781 53.4375 72.203125 53.160156 72.101562 C 51.238281 71.4375 49.203125 70.746094 48.105469 70.488281 C 45.707031 69.925781 44.113281 69.023438 43.335938 68.261719 C 42.566406 67.503906 45.171875 61.171875 45.945312 59.789062 C 46.707031 58.40625 47.605469 55.382812 48.695312 52.730469 C 49.160156 51.601562 49.933594 50.945312 50.738281 50.605469 C 51.820312 50.132812 52.957031 50.238281 53.4375 50.535156 C 53.632812 50.648438 53.8125 50.785156 53.972656 50.945312 C 54.21875 51.175781 54.417969 51.449219 54.5625 51.757812 C 55.96875 54.683594 52.414062 59.921875 51.820312 60.828125 C 51.617188 61.144531 51.328125 61.722656 51.042969 62.382812 C 50.347656 63.898438 49.601562 65.820312 49.601562 65.820312 C 51.152344 66.375 51.734375 66.664062 52.269531 66.9375 C 52.660156 67.136719 53.015625 67.332031 53.691406 67.605469 C 53.894531 67.691406 54.117188 67.773438 54.34375 67.878906 C 54.867188 68.101562 55.460938 68.363281 56.027344 68.621094 C 56.914062 69.027344 57.792969 69.4375 58.671875 69.859375 Z M 58.671875 69.859375 "/>
<path style=" stroke:none;fill-rule:nonzero;fill:rgb(5.490196%,41.568628%,54.901963%);fill-opacity:1;" d="M 66.648438 40.960938 L 66.574219 37.617188 C 66.566406 37.058594 66.574219 36.507812 66.496094 35.988281 C 66.417969 35.464844 66.277344 34.949219 66.058594 34.476562 C 65.628906 33.523438 64.90625 32.71875 64 32.207031 C 63.09375 31.6875 62.039062 31.453125 60.988281 31.457031 C 59.9375 31.453125 58.882812 31.6875 57.980469 32.207031 C 57.070312 32.71875 56.351562 33.523438 55.917969 34.476562 C 55.699219 34.949219 55.558594 35.464844 55.480469 35.988281 C 55.402344 36.511719 55.410156 37.054688 55.402344 37.617188 L 55.328125 40.960938 L 54.914062 40.960938 L 54.84375 37.617188 C 54.835938 37.070312 54.808594 36.492188 54.882812 35.910156 C 54.957031 35.332031 55.097656 34.753906 55.328125 34.214844 C 55.78125 33.121094 56.621094 32.191406 57.636719 31.605469 C 58.65625 31.011719 59.835938 30.742188 60.988281 30.738281 C 62.144531 30.742188 63.320312 31.011719 64.339844 31.605469 C 65.359375 32.191406 66.199219 33.121094 66.648438 34.214844 C 66.878906 34.753906 67.023438 35.332031 67.097656 35.910156 C 67.167969 36.496094 67.144531 37.0625 67.136719 37.617188 L 67.066406 40.960938 Z M 66.648438 40.960938 "/>
<path style=" stroke:none;fill-rule:nonzero;fill:rgb(4.313726%,33.333334%,43.921569%);fill-opacity:1;" d="M 55.246094 42.777344 C 54.5 42.777344 54.308594 42.238281 54.308594 41.570312 L 54.308594 39.410156 C 54.308594 38.746094 54.5 38.203125 55.246094 38.203125 L 55.421875 38.203125 L 55.421875 42.777344 Z M 55.246094 42.777344 "/>
<path style=" stroke:none;fill-rule:nonzero;fill:rgb(3.137255%,65.098041%,87.843138%);fill-opacity:1;" d="M 55.421875 38.203125 L 55.808594 38.203125 L 55.808594 42.777344 L 55.421875 42.777344 Z M 55.421875 38.203125 "/>
<path style=" stroke:none;fill-rule:nonzero;fill:rgb(4.313726%,33.333334%,43.921569%);fill-opacity:1;" d="M 66.847656 42.777344 C 67.59375 42.777344 67.785156 42.238281 67.785156 41.570312 L 67.785156 39.410156 C 67.785156 38.746094 67.59375 38.203125 66.847656 38.203125 L 66.667969 38.203125 L 66.667969 42.777344 Z M 66.847656 42.777344 "/>
<path style=" stroke:none;fill-rule:nonzero;fill:rgb(3.137255%,65.098041%,87.843138%);fill-opacity:1;" d="M 66.28125 38.203125 L 66.667969 38.203125 L 66.667969 42.777344 L 66.28125 42.777344 Z M 66.28125 38.203125 "/>
<path style=" stroke:none;fill-rule:nonzero;fill:rgb(52.941179%,86.666667%,99.215686%);fill-opacity:1;" d="M 61.265625 46.945312 L 61.265625 46.527344 C 62.988281 46.527344 66.269531 44.058594 66.269531 42.777344 L 66.683594 42.777344 C 66.683594 44.402344 63.054688 46.945312 61.265625 46.945312 Z M 61.265625 46.945312 "/>
<path style=" stroke:none;fill-rule:nonzero;fill:rgb(4.313726%,33.333334%,43.921569%);fill-opacity:1;" d="M 61.542969 47.324219 L 60.988281 47.324219 C 60.527344 47.324219 60.15625 47.0625 60.15625 46.738281 C 60.15625 46.414062 60.527344 46.152344 60.988281 46.152344 L 61.542969 46.152344 C 62.003906 46.152344 62.375 46.414062 62.375 46.738281 C 62.375 47.0625 62.003906 47.324219 61.542969 47.324219 Z M 61.542969 47.324219 "/>
<path style=" stroke:none;fill-rule:nonzero;fill:rgb(3.137255%,65.098041%,87.843138%);fill-opacity:1;" d="M 46.414062 24.335938 L 46.414062 27.652344 L 46.394531 32.148438 L 46.371094 37.582031 L 46.351562 41.589844 L 42.390625 37.566406 L 41.183594 37.5625 L 25.152344 37.488281 C 22.445312 36.957031 20.402344 34.554688 20.402344 31.671875 L 20.402344 24.335938 C 20.402344 21.292969 22.683594 18.78125 25.613281 18.449219 L 41.683594 18.527344 C 44.378906 19.0625 46.414062 21.460938 46.414062 24.335938 Z M 46.414062 24.335938 "/>
<use xlink:href="#surface8" mask="url(#mask1)"/>
</g>
</svg>
