<?xml version="1.0" encoding="UTF-8"?>
<svg xmlns="http://www.w3.org/2000/svg" xmlns:xlink="http://www.w3.org/1999/xlink" width="250px" height="211px" viewBox="0 0 251 211" version="1.1">
<g id="surface1">
<path style=" stroke:none;fill-rule:nonzero;fill:rgb(85.490197%,87.058824%,87.843138%);fill-opacity:1;" d="M 121.664062 8.074219 C 147.992188 15.1875 159 -0.0859375 183.15625 5.0625 C 209.46875 10.671875 223.984375 34.667969 225.363281 37.023438 C 242.292969 65.949219 241.679688 100.355469 220.835938 117.667969 C 209.265625 127.277344 197.570312 127.320312 161.25 143.117188 C 133.773438 155.066406 120.816406 169.6875 115.144531 172.898438 C 86.242188 189.257812 53.15625 179.042969 28.839844 158.992188 C 22.070312 153.410156 -10.507812 126.25 8.640625 86.714844 C 14.570312 74.472656 15.132812 80.058594 41.402344 45.953125 C 69.070312 10.03125 102.652344 2.933594 121.664062 8.070312 Z M 121.664062 8.074219 "/>
<path style=" stroke:none;fill-rule:nonzero;fill:rgb(52.941179%,86.666667%,99.215686%);fill-opacity:1;" d="M 194.6875 60.097656 L 237.421875 60.097656 L 237.421875 88.839844 L 194.6875 88.839844 Z M 194.6875 60.097656 "/>
<path style=" stroke:none;fill-rule:nonzero;fill:rgb(38.82353%,77.254903%,91.764706%);fill-opacity:1;" d="M 189.339844 124.082031 L 243.300781 124.082031 L 243.300781 210.894531 L 189.339844 210.894531 Z M 192.210938 57.542969 L 192.210938 90.035156 L 239.898438 90.035156 L 239.898438 57.542969 Z M 236.148438 87.480469 L 195.964844 87.480469 L 195.964844 60.097656 L 236.148438 60.097656 Z M 236.148438 87.480469 "/>
<path style=" stroke:none;fill-rule:nonzero;fill:rgb(38.82353%,77.254903%,91.764706%);fill-opacity:1;" d="M 212.667969 90.035156 L 219.96875 90.035156 L 219.96875 133.75 L 212.667969 133.75 Z M 212.667969 90.035156 "/>
<path style=" stroke:none;fill-rule:nonzero;fill:rgb(3.137255%,65.098041%,87.843138%);fill-opacity:1;" d="M 219.96875 90.035156 L 212.667969 90.035156 L 212.667969 91.523438 Z M 196.367188 128.816406 L 238.625 128.816406 L 238.625 151.511719 L 196.367188 151.511719 Z M 196.367188 156.246094 L 238.625 156.246094 L 238.625 178.945312 L 196.367188 178.945312 Z M 196.367188 183.675781 L 238.625 183.675781 L 238.625 206.375 L 196.367188 206.375 Z M 196.367188 183.675781 "/>
<path style=" stroke:none;fill-rule:nonzero;fill:rgb(7.450981%,47.843137%,62.7451%);fill-opacity:1;" d="M 220.277344 140.164062 C 220.277344 138.628906 219.03125 137.382812 217.496094 137.382812 C 215.960938 137.382812 214.71875 138.628906 214.71875 140.164062 C 214.71875 141.699219 215.960938 142.945312 217.496094 142.945312 C 219.03125 142.945312 220.277344 141.699219 220.277344 140.164062 Z M 220.277344 140.164062 "/>
<path style=" stroke:none;fill-rule:nonzero;fill:rgb(7.450981%,47.843137%,62.7451%);fill-opacity:1;" d="M 220.277344 195.027344 C 220.277344 193.492188 219.03125 192.246094 217.496094 192.246094 C 215.960938 192.246094 214.71875 193.492188 214.71875 195.027344 C 214.71875 196.5625 215.960938 197.804688 217.496094 197.804688 C 219.03125 197.804688 220.277344 196.5625 220.277344 195.027344 Z M 220.277344 195.027344 "/>
<path style=" stroke:none;fill-rule:nonzero;fill:rgb(7.450981%,47.843137%,62.7451%);fill-opacity:1;" d="M 220.277344 167.59375 C 220.277344 166.058594 219.03125 164.8125 217.496094 164.8125 C 215.960938 164.8125 214.71875 166.058594 214.71875 167.59375 C 214.71875 169.128906 215.960938 170.375 217.496094 170.375 C 219.03125 170.375 220.277344 169.128906 220.277344 167.59375 Z M 220.277344 167.59375 "/>
<path style=" stroke:none;fill-rule:nonzero;fill:rgb(3.137255%,65.098041%,87.843138%);fill-opacity:1;" d="M 199.808594 76.503906 L 201.78125 70.3125 L 201.824219 70.171875 L 201.875 70.3125 L 204.667969 78.25 L 204.445312 78.261719 L 206.78125 66.5 L 206.972656 65.539062 L 207.085938 66.511719 L 208.785156 81.351562 L 208.40625 81.324219 L 211.109375 70.628906 L 211.339844 69.710938 L 211.539062 70.636719 L 212.902344 76.929688 L 212.441406 76.910156 C 213.476562 73.421875 214.558594 69.945312 215.617188 66.460938 L 215.902344 65.535156 L 216.058594 66.492188 L 218.277344 80.035156 L 217.90625 80.027344 L 219.808594 71.007812 L 219.917969 70.480469 L 220.121094 70.980469 L 222.382812 76.566406 L 222.101562 76.589844 L 224.515625 65.554688 L 224.636719 64.996094 L 224.726562 65.5625 L 226.875 79.234375 L 224.511719 65.59375 L 224.726562 65.601562 L 222.390625 76.65625 L 222.292969 77.125 L 222.109375 76.679688 L 219.816406 71.101562 L 220.128906 71.074219 L 218.277344 80.105469 L 218.074219 81.097656 L 217.902344 80.097656 L 215.613281 66.566406 L 216.050781 66.59375 C 215 70.078125 213.972656 73.570312 212.898438 77.050781 L 212.625 77.933594 L 212.433594 77.03125 L 211.105469 70.730469 L 211.539062 70.738281 L 208.78125 81.421875 L 208.515625 82.441406 L 208.402344 81.394531 L 206.78125 66.546875 L 207.082031 66.558594 L 204.671875 78.308594 L 204.585938 78.730469 L 204.449219 78.324219 L 201.78125 70.34375 L 201.875 70.34375 Z M 198.742188 73.789062 L 200.257812 73.742188 L 200.257812 73.835938 Z M 198.742188 73.789062 "/>
<path style=" stroke:none;fill-rule:nonzero;fill:rgb(3.137255%,65.098041%,87.843138%);fill-opacity:1;" d="M 201.773438 73.707031 L 203.289062 73.667969 L 203.289062 73.910156 L 201.773438 73.875 Z M 204.804688 73.644531 L 206.320312 73.621094 C 206.414062 73.621094 206.488281 73.695312 206.492188 73.789062 C 206.492188 73.878906 206.417969 73.957031 206.328125 73.957031 L 206.320312 73.957031 L 204.804688 73.933594 C 204.730469 73.929688 204.667969 73.867188 204.667969 73.789062 C 204.667969 73.714844 204.730469 73.648438 204.804688 73.644531 Z M 207.835938 73.601562 L 209.351562 73.578125 C 209.46875 73.578125 209.566406 73.671875 209.566406 73.789062 C 209.566406 73.902344 209.472656 74 209.359375 74 L 209.351562 74 L 207.835938 73.980469 C 207.730469 73.980469 207.648438 73.894531 207.648438 73.789062 C 207.648438 73.683594 207.730469 73.601562 207.835938 73.601562 Z M 210.871094 73.574219 L 212.386719 73.566406 C 212.507812 73.566406 212.609375 73.664062 212.609375 73.789062 C 212.613281 73.914062 212.511719 74.015625 212.386719 74.015625 L 210.871094 74.007812 C 210.753906 74.003906 210.664062 73.90625 210.664062 73.789062 C 210.664062 73.675781 210.753906 73.578125 210.871094 73.574219 Z M 213.902344 73.558594 L 215.417969 73.550781 C 215.550781 73.550781 215.65625 73.65625 215.660156 73.789062 C 215.660156 73.921875 215.550781 74.03125 215.417969 74.03125 L 213.902344 74.023438 C 213.773438 74.023438 213.667969 73.917969 213.667969 73.789062 C 213.667969 73.660156 213.773438 73.558594 213.902344 73.558594 Z M 216.933594 73.542969 L 218.449219 73.550781 C 218.582031 73.550781 218.6875 73.65625 218.6875 73.789062 C 218.6875 73.921875 218.582031 74.03125 218.449219 74.03125 L 216.933594 74.039062 C 216.84375 74.042969 216.757812 73.996094 216.710938 73.917969 C 216.664062 73.839844 216.660156 73.742188 216.707031 73.664062 C 216.753906 73.585938 216.839844 73.539062 216.929688 73.542969 Z M 219.964844 73.558594 L 221.480469 73.566406 C 221.605469 73.566406 221.707031 73.667969 221.707031 73.789062 C 221.707031 73.914062 221.605469 74.015625 221.480469 74.015625 L 219.964844 74.023438 C 219.878906 74.027344 219.796875 73.984375 219.753906 73.910156 C 219.710938 73.835938 219.710938 73.746094 219.753906 73.671875 C 219.796875 73.597656 219.878906 73.554688 219.960938 73.558594 Z M 222.996094 73.574219 L 224.511719 73.582031 C 224.628906 73.582031 224.722656 73.675781 224.722656 73.789062 C 224.722656 73.90625 224.628906 74 224.511719 74 L 222.996094 74.007812 C 222.917969 74.011719 222.839844 73.972656 222.800781 73.902344 C 222.757812 73.835938 222.757812 73.75 222.796875 73.679688 C 222.839844 73.609375 222.914062 73.570312 222.996094 73.574219 Z M 226.027344 73.601562 L 227.546875 73.625 C 227.636719 73.625 227.710938 73.699219 227.710938 73.789062 C 227.710938 73.882812 227.636719 73.957031 227.546875 73.957031 L 226.027344 73.976562 C 225.925781 73.980469 225.839844 73.898438 225.839844 73.792969 C 225.835938 73.6875 225.917969 73.605469 226.023438 73.601562 Z M 229.0625 73.648438 L 230.578125 73.671875 L 229.0625 73.933594 C 228.980469 73.933594 228.917969 73.871094 228.914062 73.792969 C 228.914062 73.714844 228.976562 73.648438 229.054688 73.648438 Z M 232.09375 73.710938 L 233.609375 73.746094 L 232.09375 73.871094 Z M 223.667969 83.273438 C 224.1875 83.101562 224.726562 83.015625 225.273438 83.027344 C 225.816406 83.015625 226.359375 83.101562 226.875 83.273438 C 226.359375 83.449219 225.816406 83.53125 225.273438 83.519531 C 224.726562 83.53125 224.1875 83.445312 223.667969 83.273438 Z M 227.941406 83.273438 C 228.460938 83.101562 229 83.015625 229.546875 83.027344 C 230.089844 83.015625 230.632812 83.101562 231.148438 83.273438 C 230.632812 83.449219 230.089844 83.53125 229.546875 83.519531 C 229 83.53125 228.460938 83.445312 227.941406 83.273438 Z M 232.203125 83.273438 C 232.71875 83.101562 233.261719 83.015625 233.804688 83.027344 C 234.347656 83.015625 234.890625 83.101562 235.40625 83.273438 C 234.890625 83.449219 234.347656 83.53125 233.804688 83.519531 C 233.261719 83.53125 232.71875 83.445312 232.203125 83.273438 Z M 232.203125 83.273438 "/>
<path style=" stroke:none;fill-rule:nonzero;fill:rgb(52.941179%,86.666667%,99.215686%);fill-opacity:1;" d="M 30.300781 210.503906 L 8.636719 210.503906 L 2.832031 172.382812 L 36.105469 172.382812 Z M 30.300781 210.503906 "/>
<path style=" stroke:none;fill-rule:nonzero;fill:rgb(7.450981%,47.843137%,62.7451%);fill-opacity:1;" d="M 2.167969 168.585938 L 36.769531 168.585938 C 37.855469 168.585938 38.738281 169.46875 38.738281 170.554688 C 38.738281 171.644531 37.855469 172.527344 36.769531 172.527344 L 2.167969 172.527344 C 1.082031 172.527344 0.199219 171.644531 0.199219 170.554688 C 0.199219 169.46875 1.082031 168.585938 2.167969 168.585938 Z M 2.167969 168.585938 "/>
<path style=" stroke:none;fill-rule:nonzero;fill:rgb(3.137255%,65.098041%,87.843138%);fill-opacity:1;" d="M 8.1875 176.628906 L 8.78125 180.324219 L 9.34375 184.019531 L 10.417969 191.421875 L 11.421875 198.835938 L 11.898438 202.542969 L 12.34375 206.257812 L 11.75 202.566406 L 11.1875 198.867188 L 10.113281 191.464844 L 9.109375 184.054688 L 8.632812 180.34375 Z M 30.304688 176.628906 L 29.914062 180.34375 L 29.492188 184.050781 L 28.601562 191.464844 L 27.640625 198.867188 L 27.132812 202.5625 L 26.59375 206.257812 L 26.980469 202.546875 L 27.402344 198.835938 L 28.296875 191.425781 L 29.257812 184.023438 L 29.765625 180.324219 Z M 19.109375 176.628906 L 19.183594 180.3125 L 19.230469 183.992188 L 19.265625 191.359375 L 19.230469 198.722656 L 19.1875 202.402344 L 19.109375 206.085938 L 19.035156 202.402344 L 18.992188 198.722656 L 18.957031 191.359375 L 18.992188 183.992188 L 19.035156 180.3125 Z M 19.109375 176.628906 "/>
<path style=" stroke:none;fill-rule:nonzero;fill:rgb(3.137255%,65.098041%,87.843138%);fill-opacity:1;" d="M 7 181.234375 L 10.117188 181.160156 L 13.234375 181.117188 L 19.46875 181.078125 L 25.703125 181.113281 L 28.820312 181.160156 L 31.9375 181.234375 L 28.820312 181.308594 L 25.703125 181.351562 L 19.46875 181.386719 L 13.234375 181.351562 L 10.117188 181.308594 Z M 9.078125 192.691406 C 10.773438 192.628906 12.46875 192.597656 14.164062 192.574219 L 19.246094 192.539062 L 24.328125 192.574219 C 26.023438 192.597656 27.71875 192.628906 29.414062 192.691406 C 27.71875 192.757812 26.023438 192.785156 24.328125 192.8125 L 19.246094 192.847656 L 14.164062 192.8125 C 12.46875 192.785156 10.773438 192.757812 9.078125 192.691406 Z M 11.007812 204.101562 C 12.414062 204.039062 13.816406 204.007812 15.21875 203.984375 L 19.433594 203.949219 L 23.644531 203.984375 C 25.046875 204.007812 26.449219 204.039062 27.855469 204.101562 C 26.449219 204.167969 25.046875 204.195312 23.644531 204.222656 L 19.433594 204.257812 L 15.21875 204.222656 C 13.816406 204.195312 12.414062 204.167969 11.007812 204.101562 Z M 11.007812 204.101562 "/>
<path style=" stroke:none;fill-rule:nonzero;fill:rgb(6.27451%,25.882354%,32.941177%);fill-opacity:1;" d="M 77.804688 113.433594 L 77.058594 199.945312 C 77.058594 199.945312 72.769531 203.859375 66.34375 199.945312 L 63.195312 128.347656 L 60.191406 128.164062 L 56.710938 199.945312 C 56.710938 199.945312 51.222656 203.859375 45.996094 199.945312 L 46.683594 113.433594 Z M 77.804688 113.433594 "/>
<path style=" stroke:none;fill-rule:nonzero;fill:rgb(3.921569%,19.215687%,24.705882%);fill-opacity:1;" d="M 71.082031 128.980469 L 71.101562 129.722656 L 71.078125 129.722656 Z M 71.140625 131.199219 L 71.175781 132.679688 L 71.0625 132.679688 L 71.066406 131.199219 Z M 71.207031 134.15625 L 71.242188 135.632812 L 71.054688 135.636719 L 71.058594 134.15625 Z M 71.273438 137.113281 L 71.304688 138.589844 L 71.050781 138.59375 L 71.050781 137.113281 Z M 71.332031 140.070312 L 71.359375 141.546875 L 71.058594 141.550781 L 71.054688 140.070312 Z M 71.382812 143.023438 L 71.410156 144.503906 L 71.066406 144.507812 L 71.0625 143.027344 Z M 71.4375 145.980469 L 71.460938 147.460938 L 71.074219 147.464844 L 71.070312 145.984375 Z M 71.488281 148.9375 L 71.507812 150.414062 L 71.085938 150.421875 L 71.078125 148.941406 Z M 71.527344 151.894531 L 71.546875 153.371094 L 71.109375 153.375 L 71.097656 151.898438 Z M 71.566406 154.851562 L 71.582031 156.328125 L 71.128906 156.332031 L 71.117188 154.855469 Z M 71.601562 157.808594 L 71.621094 159.285156 L 71.152344 159.289062 L 71.140625 157.8125 Z M 71.640625 160.765625 L 71.65625 162.242188 L 71.175781 162.246094 L 71.164062 160.769531 Z M 71.1875 163.726562 L 71.675781 163.722656 L 71.691406 165.199219 L 71.199219 165.203125 Z M 71.703125 166.675781 L 71.714844 168.15625 L 71.238281 168.160156 L 71.21875 166.683594 Z M 71.726562 169.632812 L 71.734375 171.113281 L 71.273438 171.117188 L 71.257812 169.636719 Z M 71.746094 172.589844 L 71.757812 174.066406 L 71.3125 174.074219 L 71.292969 172.59375 Z M 71.769531 175.546875 L 71.78125 177.023438 L 71.347656 177.03125 L 71.332031 175.550781 Z M 71.792969 178.503906 L 71.800781 179.980469 L 71.386719 179.984375 L 71.367188 178.507812 Z M 71.804688 181.460938 L 71.808594 182.9375 L 71.441406 182.941406 L 71.414062 181.464844 Z M 71.8125 184.417969 L 71.816406 185.894531 L 71.492188 185.898438 L 71.464844 184.421875 Z M 71.820312 187.375 L 71.824219 188.851562 L 71.542969 188.855469 L 71.519531 187.375 Z M 71.824219 190.332031 L 71.824219 191.808594 L 71.601562 191.8125 L 71.570312 190.332031 Z M 71.820312 193.289062 L 71.816406 194.765625 L 71.667969 194.769531 L 71.632812 193.289062 Z M 71.8125 196.246094 L 71.808594 197.722656 L 71.734375 197.722656 L 71.699219 196.246094 Z M 71.800781 199.203125 L 71.792969 199.945312 L 71.773438 199.203125 Z M 71.800781 199.203125 "/>
<path style=" stroke:none;fill-rule:nonzero;fill:rgb(10.588235%,11.372549%,11.764706%);fill-opacity:1;" d="M 78.050781 119.257812 L 46.902344 119.257812 L 46.902344 115.996094 L 78.050781 115.996094 Z M 78.050781 119.257812 "/>
<path style=" stroke:none;fill-rule:nonzero;fill:rgb(30.980393%,61.56863%,72.941178%);fill-opacity:1;" d="M 72.492188 65.730469 L 70.234375 64.609375 L 57.511719 64.523438 L 52.457031 65.574219 L 52.457031 115.996094 L 71.429688 115.996094 Z M 72.492188 65.730469 "/>
<path style=" stroke:none;fill-rule:nonzero;fill:rgb(54.11765%,85.09804%,96.470588%);fill-opacity:1;" d="M 67.324219 59.554688 L 67.570312 61.183594 L 64.726562 67.492188 L 63.050781 67.492188 L 60.171875 61.183594 L 60.503906 59.765625 Z M 67.324219 59.554688 "/>
<path style=" stroke:none;fill-rule:nonzero;fill:rgb(54.11765%,85.09804%,96.470588%);fill-opacity:1;" d="M 73.515625 45.3125 C 73.515625 36.855469 69.136719 30 63.734375 30 C 58.328125 30 53.949219 36.855469 53.949219 45.3125 C 53.949219 53.765625 58.328125 60.621094 63.734375 60.621094 C 69.136719 60.621094 73.515625 53.765625 73.515625 45.3125 Z M 73.515625 45.3125 "/>
<path style=" stroke:none;fill-rule:nonzero;fill:rgb(54.11765%,85.09804%,96.470588%);fill-opacity:1;" d="M 74.523438 44.277344 C 73.816406 44.132812 73.015625 45.125 72.730469 46.496094 C 72.449219 47.867188 72.792969 49.09375 73.5 49.242188 C 74.207031 49.386719 75.011719 48.394531 75.292969 47.023438 C 75.574219 45.652344 75.230469 44.421875 74.523438 44.277344 Z M 74.523438 44.277344 "/>
<path style=" stroke:none;fill-rule:nonzero;fill:rgb(2.352941%,39.215687%,52.941179%);fill-opacity:1;" d="M 70.371094 36.152344 C 70.371094 36.152344 61.421875 36.28125 61.425781 33.355469 C 61.425781 33.355469 54.648438 32.109375 55.488281 46.472656 C 55.488281 46.472656 50.945312 44.683594 51.644531 37.550781 C 51.644531 37.550781 53.949219 26.363281 67.855469 29.511719 C 67.855469 29.511719 76.644531 31.949219 73.507812 44.675781 C 73.507812 44.675781 70.960938 39.023438 70.371094 36.152344 Z M 70.371094 36.152344 "/>
<path style=" stroke:none;fill-rule:nonzero;fill:rgb(0.784314%,0.784314%,0.784314%);fill-opacity:1;" d="M 71.351562 44.261719 C 70.773438 44.179688 70.238281 44.054688 69.699219 44.007812 C 69.164062 43.917969 68.617188 44.007812 68.136719 44.261719 C 68.292969 44 68.542969 43.800781 68.835938 43.710938 C 69.125 43.617188 69.433594 43.585938 69.734375 43.621094 C 70.324219 43.675781 70.886719 43.898438 71.351562 44.261719 Z M 62.429688 44.261719 C 61.851562 44.101562 61.261719 43.992188 60.664062 43.933594 C 60.375 43.917969 60.089844 43.929688 59.804688 43.976562 C 59.511719 44.039062 59.226562 44.132812 58.953125 44.261719 C 59.152344 44.003906 59.417969 43.804688 59.722656 43.6875 C 60.03125 43.574219 60.359375 43.527344 60.6875 43.546875 C 61.332031 43.589844 61.941406 43.84375 62.429688 44.261719 Z M 62.429688 44.261719 "/>
<path style=" stroke:none;fill-rule:nonzero;fill:rgb(0.784314%,0.784314%,0.784314%);fill-opacity:1;" d="M 70.230469 47.214844 C 70.230469 46.550781 69.933594 46.011719 69.566406 46.011719 C 69.203125 46.011719 68.90625 46.550781 68.90625 47.214844 C 68.90625 47.882812 69.203125 48.421875 69.566406 48.421875 C 69.933594 48.421875 70.230469 47.882812 70.230469 47.214844 Z M 70.230469 47.214844 "/>
<path style=" stroke:none;fill-rule:nonzero;fill:rgb(0.784314%,0.784314%,0.784314%);fill-opacity:1;" d="M 61.355469 47.214844 C 61.355469 46.550781 61.058594 46.011719 60.691406 46.011719 C 60.328125 46.011719 60.03125 46.550781 60.03125 47.214844 C 60.03125 47.882812 60.328125 48.421875 60.691406 48.421875 C 61.058594 48.421875 61.355469 47.882812 61.355469 47.214844 Z M 61.355469 47.214844 "/>
<path style=" stroke:none;fill-rule:nonzero;fill:rgb(3.137255%,65.098041%,87.843138%);fill-opacity:1;" d="M 54.425781 50.046875 C 66.296875 47.335938 73.039062 50.046875 73.039062 50.046875 C 71.765625 56.1875 68.082031 60.621094 63.734375 60.621094 C 59.386719 60.621094 55.699219 56.1875 54.425781 50.046875 Z M 54.425781 50.046875 "/>
<path style=" stroke:none;fill-rule:nonzero;fill:rgb(8.235294%,46.666667%,60.784316%);fill-opacity:1;" d="M 57.121094 49.503906 C 56.324219 48.71875 55.578125 47.886719 54.890625 47.003906 C 54.1875 46.132812 53.542969 45.21875 52.960938 44.261719 C 53.761719 45.046875 54.507812 45.882812 55.195312 46.761719 C 55.894531 47.632812 56.539062 48.550781 57.121094 49.503906 Z M 57.121094 49.503906 "/>
<path style=" stroke:none;fill-rule:nonzero;fill:rgb(23.529412%,52.156866%,62.7451%);fill-opacity:1;" d="M 70.671875 64.820312 L 67.039062 70.839844 L 63.847656 67.34375 L 65.0625 65.585938 L 70.234375 64.597656 Z M 70.671875 64.820312 "/>
<path style=" stroke:none;fill-rule:nonzero;fill:rgb(23.529412%,52.156866%,62.7451%);fill-opacity:1;" d="M 56.957031 64.636719 L 57.914062 64.445312 L 62.683594 65.585938 L 63.898438 67.34375 L 60.703125 70.839844 Z M 56.957031 64.636719 "/>
<path style=" stroke:none;fill-rule:nonzero;fill:rgb(75.294119%,85.09804%,88.627452%);fill-opacity:1;" d="M 62.570312 70.0625 L 60.191406 101.6875 L 62.960938 104.4375 L 66.199219 101.78125 L 65.585938 69.703125 Z M 62.570312 70.0625 "/>
<path style=" stroke:none;fill-rule:nonzero;fill:rgb(63.529414%,75.686276%,80.000001%);fill-opacity:1;" d="M 65.59375 70.082031 L 63.898438 71.640625 L 62.542969 70.425781 L 62.570312 70.0625 L 65.585938 69.703125 Z M 65.59375 70.082031 "/>
<path style=" stroke:none;fill-rule:nonzero;fill:rgb(95.686275%,95.686275%,95.686275%);fill-opacity:1;" d="M 43.796875 71.4375 C 43.425781 70.996094 42.792969 70.890625 42.296875 71.183594 C 41.800781 71.476562 41.589844 72.082031 41.796875 72.621094 C 43.382812 76.742188 45.640625 84.1875 46.300781 94.453125 C 46.855469 103.59375 46 112.765625 43.769531 121.648438 L 37.542969 146.761719 L 58.421875 147.878906 L 56.929688 95.441406 C 56.929688 95.441406 49.316406 78.082031 43.796875 71.4375 Z M 82.449219 70.460938 C 82.449219 70.460938 78.214844 79.242188 77.90625 95.902344 C 77.765625 104.75 78.789062 113.574219 80.941406 122.15625 L 87.039062 146.761719 L 66.160156 147.878906 L 67.652344 95.441406 C 67.652344 95.441406 77.660156 69.65625 82.449219 70.460938 Z M 82.449219 70.460938 "/>
<path style=" stroke:none;fill-rule:nonzero;fill:rgb(95.686275%,95.686275%,95.686275%);fill-opacity:1;" d="M 72.492188 65.730469 C 72.492188 65.730469 82.449219 67.492188 90.382812 78.660156 L 91.59375 66.566406 L 98.675781 66.566406 L 98.675781 91.058594 C 98.675781 91.058594 95.515625 101.875 79.855469 80.011719 Z M 72.492188 65.730469 "/>
<path style=" stroke:none;fill-rule:nonzero;fill:rgb(3.137255%,65.098041%,87.843138%);fill-opacity:1;" d="M 94.90625 64.585938 C 94.75 63.40625 93.960938 62.402344 92.851562 61.976562 C 92.851562 61.976562 95.925781 60.996094 96.160156 59.738281 C 96.285156 59.339844 96.097656 58.910156 95.722656 58.726562 C 95.332031 58.546875 94.875 58.582031 94.519531 58.824219 L 90.894531 61.183594 C 90.894531 62.769531 91.324219 64.324219 92.140625 65.6875 L 92.664062 66.566406 L 97.183594 66.566406 C 100.351562 63 98.210938 58.617188 98.210938 58.617188 C 97.601562 57.359375 96.578125 57.824219 96.578125 57.824219 C 96.214844 57.296875 95.503906 57.132812 94.949219 57.453125 C 94.527344 56.476562 93.316406 57.125 93.316406 57.125 C 93.597656 49.53125 92.058594 51.671875 92.058594 51.671875 L 91.5 58.199219 L 90.894531 61.183594 "/>
<path style=" stroke:none;fill-rule:nonzero;fill:rgb(8.235294%,46.666667%,60.784316%);fill-opacity:1;" d="M 94.90625 64.585938 C 94.816406 64.011719 94.566406 63.476562 94.191406 63.039062 C 93.816406 62.613281 93.34375 62.285156 92.8125 62.085938 L 92.816406 61.863281 C 93.460938 61.636719 94.085938 61.347656 94.679688 61.007812 C 94.972656 60.839844 95.246094 60.648438 95.5 60.429688 C 95.746094 60.238281 95.917969 59.972656 95.992188 59.667969 C 96.066406 59.394531 95.957031 59.097656 95.71875 58.9375 C 95.464844 58.785156 95.15625 58.757812 94.878906 58.859375 C 94.734375 58.917969 94.59375 58.996094 94.46875 59.089844 L 94.027344 59.367188 L 93.152344 59.929688 L 91.398438 61.054688 L 91.015625 61.300781 L 90.988281 61.316406 L 90.984375 61.320312 C 90.96875 61.351562 91.125 61.0625 91.058594 61.1875 L 91.058594 61.210938 C 91.058594 61.378906 91.058594 61.550781 91.066406 61.71875 C 91.078125 62.0625 91.113281 62.402344 91.167969 62.738281 C 91.28125 63.417969 91.464844 64.078125 91.726562 64.714844 C 92.003906 65.347656 92.320312 65.964844 92.664062 66.566406 C 92.261719 65.996094 91.898438 65.398438 91.578125 64.78125 C 91.273438 64.148438 91.046875 63.476562 90.910156 62.785156 C 90.839844 62.441406 90.789062 62.089844 90.761719 61.738281 C 90.746094 61.5625 90.734375 61.386719 90.730469 61.210938 L 90.730469 61.183594 C 90.664062 61.308594 90.820312 61.015625 90.804688 61.042969 L 90.808594 61.042969 L 90.835938 61.023438 L 91 60.917969 L 91.21875 60.773438 L 92.953125 59.625 L 93.824219 59.050781 L 94.257812 58.765625 C 94.410156 58.652344 94.578125 58.5625 94.757812 58.496094 C 95.144531 58.363281 95.570312 58.410156 95.917969 58.628906 C 96.101562 58.746094 96.238281 58.917969 96.308594 59.125 C 96.367188 59.320312 96.378906 59.523438 96.339844 59.726562 C 96.25 60.105469 96.035156 60.445312 95.726562 60.679688 C 95.453125 60.914062 95.152344 61.117188 94.835938 61.285156 C 94.210938 61.609375 93.558594 61.878906 92.886719 62.085938 L 92.890625 61.863281 C 93.449219 62.09375 93.933594 62.472656 94.296875 62.953125 C 94.476562 63.1875 94.621094 63.449219 94.722656 63.730469 C 94.824219 64.003906 94.886719 64.292969 94.90625 64.585938 Z M 94.90625 64.585938 "/>
<path style=" stroke:none;fill-rule:nonzero;fill:rgb(2.352941%,39.215687%,52.941179%);fill-opacity:1;" d="M 77.058594 199.945312 L 81.445312 202.238281 C 82.433594 202.761719 83.574219 202.929688 84.671875 202.714844 C 86.921875 202.257812 90.847656 201.980469 91.082031 205.492188 L 66.667969 205.492188 C 66.667969 205.492188 65.738281 200.78125 66.34375 199.945312 Z M 77.058594 199.945312 "/>
<path style=" stroke:none;fill-rule:nonzero;fill:rgb(10.588235%,11.372549%,11.764706%);fill-opacity:1;" d="M 91.082031 207.308594 L 66.667969 207.308594 L 66.667969 205.492188 L 91.082031 205.492188 Z M 91.082031 207.308594 "/>
<path style=" stroke:none;fill-rule:nonzero;fill:rgb(2.352941%,39.215687%,52.941179%);fill-opacity:1;" d="M 45.996094 199.945312 L 41.609375 202.238281 C 40.621094 202.761719 39.480469 202.929688 38.382812 202.714844 C 36.128906 202.257812 32.203125 201.980469 31.972656 205.492188 L 56.386719 205.492188 C 56.386719 205.492188 57.316406 200.78125 56.710938 199.945312 Z M 45.996094 199.945312 "/>
<path style=" stroke:none;fill-rule:nonzero;fill:rgb(10.588235%,11.372549%,11.764706%);fill-opacity:1;" d="M 31.972656 205.492188 L 56.386719 205.492188 L 56.386719 207.308594 L 31.972656 207.308594 Z M 31.972656 205.492188 "/>
<path style=" stroke:none;fill-rule:nonzero;fill:rgb(8.235294%,46.666667%,60.784316%);fill-opacity:1;" d="M 59.585938 98.144531 C 59.585938 98.144531 61.542969 97.585938 65.363281 94.648438 L 67.714844 93.734375 C 67.714844 93.734375 66.996094 96.421875 65.691406 97.167969 L 64.386719 97.910156 Z M 59.585938 98.144531 "/>
<path style=" stroke:none;fill-rule:nonzero;fill:rgb(54.11765%,85.09804%,96.470588%);fill-opacity:1;" d="M 54.222656 46.691406 C 54.007812 45.246094 53.21875 44.167969 52.457031 44.28125 C 51.691406 44.394531 51.25 45.660156 51.464844 47.101562 C 51.679688 48.546875 52.472656 49.625 53.234375 49.511719 C 53.996094 49.398438 54.4375 48.132812 54.222656 46.691406 Z M 54.222656 46.691406 "/>
<path style=" stroke:none;fill-rule:nonzero;fill:rgb(30.980393%,61.56863%,72.941178%);fill-opacity:1;" d="M 57.511719 64.523438 L 60.171875 61.183594 L 63.898438 66.566406 L 60.703125 70.0625 Z M 57.511719 64.523438 "/>
<path style=" stroke:none;fill-rule:nonzero;fill:rgb(30.980393%,61.56863%,72.941178%);fill-opacity:1;" d="M 70.234375 64.597656 L 67.570312 61.183594 L 63.847656 66.566406 L 67.039062 70.0625 Z M 70.234375 64.597656 "/>
<path style=" stroke:none;fill-rule:nonzero;fill:rgb(75.294119%,85.09804%,88.627452%);fill-opacity:1;" d="M 66.199219 69.140625 L 63.898438 71.25 L 61.546875 69.140625 L 63.898438 66.566406 Z M 66.199219 69.140625 "/>
<path style=" stroke:none;fill-rule:nonzero;fill:rgb(80.784315%,80.784315%,80.784315%);fill-opacity:1;" d="M 72.492188 65.730469 L 81.191406 74.070312 L 76.824219 73.75 L 79.058594 78.960938 L 67.652344 95.441406 C 67.652344 95.441406 67.480469 88.292969 72.492188 65.730469 Z M 72.492188 65.730469 "/>
<path style=" stroke:none;fill-rule:nonzero;fill:rgb(3.137255%,65.098041%,87.843138%);fill-opacity:1;" d="M 67.554688 61.046875 C 71.691406 61.988281 74.625 64.09375 76.28125 67.328125 C 79.773438 74.125 76.785156 84.207031 75.335938 88.246094 C 75.167969 88.710938 74.992188 89.171875 74.804688 89.628906 C 74.714844 89.863281 74.664062 89.992188 74.65625 90.003906 L 75.363281 90.3125 C 75.382812 90.277344 75.425781 90.171875 75.492188 90.011719 C 75.617188 89.714844 75.8125 89.226562 76.050781 88.582031 C 77.546875 84.503906 80.664062 74.171875 76.972656 66.972656 C 75.179688 63.472656 71.917969 61.207031 67.429688 60.242188 Z M 67.554688 61.046875 "/>
<path style=" stroke:none;fill-rule:nonzero;fill:rgb(52.941179%,86.666667%,99.215686%);fill-opacity:1;" d="M 77.453125 91.140625 C 77.453125 89.464844 76.09375 88.105469 74.417969 88.105469 C 72.742188 88.105469 71.386719 89.464844 71.386719 91.140625 C 71.386719 92.816406 72.742188 94.175781 74.417969 94.175781 C 76.09375 94.175781 77.453125 92.816406 77.453125 91.140625 Z M 77.453125 91.140625 "/>
<path style=" stroke:none;fill-rule:nonzero;fill:rgb(3.137255%,65.098041%,87.843138%);fill-opacity:1;" d="M 75.980469 91.140625 C 75.980469 90.277344 75.28125 89.578125 74.417969 89.578125 C 73.558594 89.578125 72.859375 90.277344 72.859375 91.140625 C 72.859375 92.003906 73.558594 92.703125 74.417969 92.703125 C 75.28125 92.703125 75.980469 92.003906 75.980469 91.140625 Z M 75.980469 91.140625 "/>
<path style=" stroke:none;fill-rule:nonzero;fill:rgb(51.764709%,82.352942%,93.725491%);fill-opacity:1;" d="M 61.03125 112.128906 L 79.386719 112.128906 L 87.585938 80.804688 L 68.949219 79.472656 Z M 61.03125 112.128906 "/>
<path style=" stroke:none;fill-rule:nonzero;fill:rgb(3.137255%,65.098041%,87.843138%);fill-opacity:1;" d="M 59.097656 98.144531 L 69.355469 97.675781 C 69.949219 97.644531 70.519531 97.894531 70.898438 98.347656 C 71.277344 98.804688 71.414062 99.414062 71.269531 99.988281 C 70.6875 102.140625 67.664062 104.582031 58.464844 103.359375 Z M 59.097656 98.144531 "/>
<path style=" stroke:none;fill-rule:nonzero;fill:rgb(80.784315%,80.784315%,80.784315%);fill-opacity:1;" d="M 46.253906 93.796875 L 56.941406 95.835938 L 57.128906 102.335938 C 52.855469 102.15625 49.351562 101.886719 46.476562 101.5625 C 46.53125 98.972656 46.457031 96.378906 46.253906 93.796875 Z M 46.253906 93.796875 "/>
<path style=" stroke:none;fill-rule:nonzero;fill:rgb(80.784315%,80.784315%,80.784315%);fill-opacity:1;" d="M 46.351562 95.390625 L 57.007812 98.183594 L 57.195312 104.667969 C 52.863281 104.488281 49.34375 103.636719 46.441406 103.308594 C 46.550781 100.300781 46.496094 98.046875 46.351562 95.390625 Z M 46.351562 95.390625 "/>
<path style=" stroke:none;fill-rule:nonzero;fill:rgb(95.686275%,95.686275%,95.686275%);fill-opacity:1;" d="M 52.457031 65.574219 L 48.640625 66.296875 C 44.019531 67.121094 40.027344 70.011719 37.800781 74.148438 C 37.574219 74.578125 37.367188 75.023438 37.183594 75.476562 C 34.644531 81.71875 30.917969 90.105469 31.90625 97.03125 C 32.042969 98.011719 32.617188 98.875 33.472656 99.378906 C 35.78125 100.714844 41.960938 102.761719 58.421875 103.550781 L 59.167969 97.585938 L 41.742188 93.019531 L 44.726562 84.722656 L 49.285156 78.941406 Z M 52.457031 65.574219 "/>
<path style=" stroke:none;fill-rule:nonzero;fill:rgb(80.784315%,80.784315%,80.784315%);fill-opacity:1;" d="M 52.457031 65.574219 L 45.378906 73.628906 L 49.757812 73.628906 L 47.148438 78.660156 L 56.929688 95.441406 C 56.929688 95.441406 58.234375 88.136719 52.457031 65.574219 Z M 52.457031 65.574219 "/>
<path style=" stroke:none;fill-rule:nonzero;fill:rgb(3.137255%,65.098041%,87.843138%);fill-opacity:1;" d="M 60.175781 61.164062 C 58.941406 61.554688 54.234375 63.324219 54.058594 67.539062 L 53.285156 67.507812 C 53.5 62.242188 59.792969 60.480469 60.371094 60.328125 Z M 60.175781 61.164062 "/>
<path style=" stroke:none;fill-rule:nonzero;fill:rgb(9.803922%,38.039216%,48.627451%);fill-opacity:1;" d="M 47.28125 86.664062 C 47.046875 86.664062 46.808594 86.628906 46.582031 86.566406 C 46.378906 86.503906 46.265625 86.292969 46.320312 86.089844 C 46.378906 85.890625 46.585938 85.769531 46.789062 85.816406 C 48.011719 86.15625 49.238281 85.164062 50.308594 83.734375 C 49.71875 82.128906 49.289062 80.46875 49.027344 78.777344 C 48.984375 78.421875 48.109375 70.59375 51.007812 68.0625 C 51.90625 67.300781 53.136719 67.058594 54.257812 67.417969 C 54.617188 67.457031 54.9375 67.648438 55.140625 67.941406 C 56.167969 69.28125 55.796875 72.710938 54.042969 78.132812 C 53.328125 80.140625 52.371094 82.054688 51.195312 83.835938 C 51.714844 85.003906 52.199219 85.496094 52.53125 85.695312 C 52.679688 85.808594 52.863281 85.855469 53.046875 85.828125 C 53.246094 85.765625 53.460938 85.867188 53.539062 86.058594 C 53.613281 86.25 53.523438 86.46875 53.335938 86.550781 C 52.960938 86.671875 52.550781 86.621094 52.214844 86.410156 C 51.523438 85.957031 50.984375 85.304688 50.664062 84.539062 C 49.679688 85.757812 48.527344 86.664062 47.28125 86.664062 Z M 53.148438 68.046875 C 52.550781 68.035156 51.96875 68.25 51.519531 68.648438 C 48.929688 70.910156 49.785156 78.589844 49.796875 78.667969 C 50.027344 80.125 50.378906 81.558594 50.847656 82.960938 C 51.851562 81.363281 52.675781 79.660156 53.304688 77.882812 C 55.539062 70.988281 54.925781 68.996094 54.554688 68.457031 C 54.382812 68.203125 54.210938 68.191406 54.203125 68.191406 C 53.792969 68.097656 53.472656 68.050781 53.148438 68.046875 Z M 53.148438 68.046875 "/>
<path style=" stroke:none;fill-rule:nonzero;fill:rgb(8.235294%,46.666667%,60.784316%);fill-opacity:1;" d="M 54.675781 86.058594 C 54.675781 85.585938 54.292969 85.199219 53.820312 85.199219 C 53.34375 85.199219 52.960938 85.585938 52.960938 86.058594 C 52.960938 86.53125 53.34375 86.914062 53.820312 86.914062 C 54.292969 86.914062 54.675781 86.53125 54.675781 86.058594 Z M 54.675781 86.058594 "/>
<path style=" stroke:none;fill-rule:nonzero;fill:rgb(8.235294%,46.666667%,60.784316%);fill-opacity:1;" d="M 47.371094 85.960938 C 47.371094 85.488281 46.988281 85.101562 46.515625 85.101562 C 46.042969 85.101562 45.660156 85.488281 45.660156 85.960938 C 45.660156 86.433594 46.042969 86.816406 46.515625 86.816406 C 46.988281 86.816406 47.371094 86.433594 47.371094 85.960938 Z M 47.371094 85.960938 "/>
<path style=" stroke:none;fill-rule:nonzero;fill:rgb(8.235294%,46.666667%,60.784316%);fill-opacity:1;" d="M 69.179688 50.507812 C 68.480469 50.902344 67.734375 51.207031 66.960938 51.410156 C 66.179688 51.625 65.378906 51.742188 64.574219 51.769531 C 63.761719 51.796875 62.953125 51.707031 62.167969 51.5 C 61.390625 51.296875 60.648438 50.960938 59.984375 50.507812 C 60.367188 50.632812 60.707031 50.832031 61.097656 50.917969 L 61.660156 51.089844 L 62.234375 51.207031 C 63 51.351562 63.78125 51.410156 64.5625 51.382812 C 65.34375 51.355469 66.121094 51.269531 66.890625 51.121094 C 67.277344 51.046875 67.660156 50.960938 68.042969 50.851562 C 68.425781 50.761719 68.800781 50.636719 69.179688 50.507812 Z M 68.515625 53.566406 C 67.910156 54.0625 67.222656 54.445312 66.484375 54.699219 C 65.738281 54.96875 64.953125 55.09375 64.160156 55.074219 C 63.765625 55.0625 63.371094 55.011719 62.984375 54.929688 C 62.597656 54.835938 62.226562 54.699219 61.867188 54.527344 C 61.511719 54.363281 61.175781 54.164062 60.855469 53.933594 C 60.550781 53.695312 60.257812 53.4375 59.984375 53.164062 C 60.601562 53.609375 61.277344 53.972656 61.984375 54.253906 C 62.683594 54.527344 63.421875 54.675781 64.171875 54.6875 C 64.921875 54.703125 65.671875 54.613281 66.394531 54.417969 C 66.761719 54.316406 67.121094 54.195312 67.472656 54.050781 C 67.832031 53.914062 68.179688 53.753906 68.515625 53.566406 Z M 67.910156 56.566406 C 66.734375 57.417969 65.332031 57.898438 63.882812 57.953125 C 63.148438 57.972656 62.421875 57.839844 61.742188 57.558594 C 61.074219 57.285156 60.472656 56.867188 59.984375 56.335938 C 60.273438 56.53125 60.578125 56.714844 60.890625 56.878906 L 61.355469 57.113281 L 61.84375 57.28125 C 62.5 57.488281 63.1875 57.582031 63.875 57.566406 C 64.566406 57.542969 65.253906 57.445312 65.921875 57.269531 C 66.261719 57.1875 66.597656 57.082031 66.925781 56.960938 C 67.261719 56.847656 67.589844 56.714844 67.910156 56.566406 Z M 81.25 145.5 L 80.671875 145.570312 L 80.667969 145.496094 Z M 79.519531 145.691406 L 78.363281 145.789062 C 78.292969 145.796875 78.226562 145.742188 78.222656 145.667969 C 78.214844 145.597656 78.269531 145.53125 78.339844 145.527344 L 78.347656 145.527344 L 79.507812 145.5 Z M 77.210938 145.882812 L 76.054688 145.957031 C 75.957031 145.960938 75.878906 145.886719 75.871094 145.792969 C 75.867188 145.699219 75.9375 145.617188 76.03125 145.605469 L 76.035156 145.605469 L 77.191406 145.554688 C 77.28125 145.550781 77.359375 145.621094 77.363281 145.710938 C 77.367188 145.800781 77.300781 145.878906 77.210938 145.882812 Z M 74.898438 146.03125 C 74.511719 146.058594 74.125 146.082031 73.742188 146.09375 C 73.640625 146.09375 73.558594 146.015625 73.550781 145.914062 C 73.546875 145.816406 73.621094 145.726562 73.71875 145.71875 C 74.105469 145.691406 74.492188 145.671875 74.878906 145.65625 C 74.980469 145.652344 75.070312 145.730469 75.074219 145.835938 C 75.078125 145.9375 75 146.027344 74.898438 146.03125 Z M 72.582031 146.144531 L 71.425781 146.195312 C 71.335938 146.199219 71.257812 146.128906 71.253906 146.039062 C 71.25 145.949219 71.316406 145.871094 71.410156 145.867188 L 72.566406 145.792969 C 72.664062 145.785156 72.746094 145.859375 72.753906 145.957031 C 72.757812 146.054688 72.683594 146.136719 72.585938 146.144531 Z M 70.269531 146.222656 L 69.109375 146.25 L 70.253906 145.960938 C 70.328125 145.953125 70.390625 146.007812 70.398438 146.082031 C 70.402344 146.152344 70.347656 146.21875 70.277344 146.222656 Z M 67.949219 146.253906 L 67.367188 146.246094 L 67.945312 146.179688 Z M 57.164062 146.355469 L 56.578125 146.351562 L 56.582031 146.277344 Z M 55.421875 146.328125 L 54.261719 146.285156 C 54.191406 146.28125 54.132812 146.222656 54.136719 146.148438 C 54.140625 146.078125 54.199219 146.019531 54.273438 146.023438 L 54.28125 146.023438 L 55.433594 146.140625 Z M 53.105469 146.238281 L 51.949219 146.171875 C 51.882812 146.171875 51.824219 146.132812 51.792969 146.074219 C 51.765625 146.019531 51.769531 145.949219 51.804688 145.894531 C 51.839844 145.839844 51.90625 145.8125 51.96875 145.820312 L 51.972656 145.820312 L 53.128906 145.910156 C 53.214844 145.917969 53.28125 145.996094 53.273438 146.085938 C 53.269531 146.175781 53.195312 146.242188 53.105469 146.238281 Z M 50.792969 146.101562 C 50.40625 146.082031 50.023438 146.054688 49.636719 146.023438 C 49.535156 146.011719 49.460938 145.925781 49.464844 145.824219 C 49.472656 145.71875 49.5625 145.640625 49.664062 145.648438 C 50.046875 145.667969 50.433594 145.695312 50.816406 145.726562 C 50.921875 145.734375 51 145.824219 50.992188 145.925781 C 50.984375 146.03125 50.894531 146.109375 50.792969 146.101562 Z M 48.480469 145.929688 L 47.328125 145.839844 C 47.238281 145.832031 47.167969 145.753906 47.175781 145.664062 C 47.179688 145.570312 47.261719 145.503906 47.351562 145.511719 L 48.507812 145.578125 C 48.605469 145.585938 48.679688 145.667969 48.671875 145.765625 C 48.667969 145.863281 48.582031 145.9375 48.484375 145.929688 Z M 46.175781 145.726562 L 45.023438 145.609375 L 46.191406 145.464844 C 46.265625 145.464844 46.324219 145.527344 46.320312 145.601562 C 46.316406 145.671875 46.257812 145.730469 46.183594 145.726562 Z M 43.871094 145.472656 L 43.292969 145.394531 L 43.875 145.398438 Z M 58.074219 98.066406 C 58.101562 98.328125 58.113281 98.589844 58.113281 98.851562 C 58.113281 98.902344 58.082031 98.949219 58.039062 98.96875 C 57.992188 98.992188 57.941406 98.984375 57.902344 98.953125 C 57.863281 98.921875 57.84375 98.871094 57.855469 98.824219 C 57.914062 98.566406 57.988281 98.316406 58.074219 98.066406 Z M 58.082031 99.632812 C 58.058594 99.890625 58.03125 100.148438 57.996094 100.402344 C 57.984375 100.507812 57.890625 100.582031 57.789062 100.570312 C 57.683594 100.558594 57.609375 100.464844 57.621094 100.359375 C 57.640625 100.101562 57.675781 99.847656 57.710938 99.589844 C 57.730469 99.492188 57.820312 99.425781 57.917969 99.4375 C 58.015625 99.445312 58.085938 99.53125 58.082031 99.632812 Z M 57.863281 101.171875 C 57.808594 101.425781 57.742188 101.679688 57.660156 101.929688 C 57.582031 101.660156 57.574219 101.398438 57.578125 101.136719 C 57.578125 101.085938 57.605469 101.035156 57.652344 101.011719 C 57.699219 100.984375 57.753906 100.988281 57.800781 101.015625 C 57.84375 101.042969 57.867188 101.09375 57.863281 101.148438 Z M 97.277344 68.128906 C 97.019531 68.183594 96.757812 68.222656 96.5 68.25 C 96.757812 68.039062 97.019531 68.078125 97.277344 68.128906 Z M 95.722656 68.308594 C 95.464844 68.320312 95.207031 68.320312 94.949219 68.324219 C 94.839844 68.324219 94.753906 68.238281 94.753906 68.128906 C 94.753906 68.023438 94.839844 67.9375 94.945312 67.9375 L 94.949219 67.9375 C 95.207031 67.9375 95.464844 67.9375 95.722656 67.953125 C 95.820312 67.957031 95.890625 68.035156 95.890625 68.128906 C 95.890625 68.222656 95.820312 68.300781 95.722656 68.308594 Z M 94.171875 68.296875 C 93.914062 68.285156 93.652344 68.261719 93.394531 68.230469 C 93.652344 68 93.914062 67.976562 94.171875 67.960938 C 94.265625 67.957031 94.34375 68.027344 94.347656 68.121094 C 94.355469 68.214844 94.285156 68.292969 94.191406 68.296875 Z M 94.171875 68.296875 "/>
<path style=" stroke:none;fill-rule:nonzero;fill:rgb(48.627451%,79.607844%,90.980393%);fill-opacity:1;" d="M 74.011719 46.011719 C 74.222656 46.179688 74.339844 46.4375 74.335938 46.707031 C 74.332031 46.84375 74.300781 46.976562 74.25 47.097656 C 74.195312 47.21875 74.113281 47.324219 74.011719 47.410156 C 74.082031 47.179688 74.117188 46.945312 74.125 46.707031 C 74.125 46.472656 74.085938 46.234375 74.011719 46.011719 Z M 52.84375 45.695312 C 52.742188 46.054688 52.691406 46.429688 52.691406 46.800781 C 52.6875 46.984375 52.710938 47.164062 52.757812 47.339844 C 52.808594 47.519531 52.875 47.695312 52.960938 47.863281 C 52.808594 47.738281 52.683594 47.574219 52.605469 47.394531 C 52.527344 47.207031 52.484375 47.007812 52.480469 46.804688 C 52.476562 46.40625 52.605469 46.015625 52.84375 45.695312 Z M 52.84375 45.695312 "/>
<path style=" stroke:none;fill-rule:nonzero;fill:rgb(3.921569%,19.215687%,24.705882%);fill-opacity:1;" d="M 58.421875 127.644531 C 59.21875 127.390625 59.988281 127.078125 60.734375 126.699219 C 61.464844 126.328125 62.15625 125.882812 62.792969 125.363281 C 63.433594 124.855469 63.996094 124.261719 64.46875 123.59375 C 64.945312 122.914062 65.34375 122.179688 65.652344 121.410156 C 65.519531 122.253906 65.226562 123.066406 64.789062 123.804688 L 64.628906 124.085938 L 64.4375 124.34375 C 64.304688 124.511719 64.183594 124.695312 64.039062 124.855469 C 63.75 125.175781 63.4375 125.472656 63.105469 125.75 C 62.433594 126.289062 61.6875 126.726562 60.890625 127.050781 C 60.105469 127.375 59.273438 127.574219 58.421875 127.644531 Z M 58.421875 127.644531 "/>
<path style=" stroke:none;fill-rule:nonzero;fill:rgb(49.019608%,67.058825%,73.725492%);fill-opacity:1;" d="M 11.1875 20 L 69.269531 20 L 69.269531 22.71875 L 11.1875 22.71875 Z M 11.1875 20 "/>
<path style=" stroke:none;fill-rule:nonzero;fill:rgb(75.294119%,89.411765%,94.901961%);fill-opacity:1;" d="M 40.722656 5.71875 L 45.058594 5.71875 C 45.332031 5.71875 45.550781 5.941406 45.550781 6.210938 L 45.550781 20 L 40.226562 20 L 40.226562 6.210938 C 40.226562 5.941406 40.449219 5.71875 40.722656 5.71875 Z M 40.722656 5.71875 "/>
<path style=" stroke:none;fill-rule:nonzero;fill:rgb(75.294119%,89.411765%,94.901961%);fill-opacity:1;" d="M 42.503906 3.222656 L 43.277344 3.222656 C 43.550781 3.222656 43.773438 3.441406 43.773438 3.714844 L 43.773438 5.765625 L 42.007812 5.765625 L 42.007812 3.714844 C 42.007812 3.441406 42.230469 3.222656 42.503906 3.222656 Z M 22.667969 22.71875 L 24.179688 22.71875 L 24.179688 28.058594 L 22.667969 28.058594 Z M 58.769531 22.71875 L 60.28125 22.71875 L 60.28125 28.058594 L 58.769531 28.058594 Z M 20.214844 10.703125 L 28.515625 10.703125 C 28.789062 10.703125 29.011719 10.925781 29.011719 11.199219 L 29.011719 20 L 19.722656 20 L 19.722656 11.199219 C 19.722656 10.925781 19.941406 10.703125 20.214844 10.703125 Z M 20.214844 10.703125 "/>
<path style=" stroke:none;fill-rule:nonzero;fill:rgb(49.019608%,67.058825%,73.725492%);fill-opacity:1;" d="M 19.722656 13.042969 L 29.011719 13.042969 L 29.011719 13.253906 L 19.722656 13.253906 Z M 24.367188 16.730469 C 23.605469 16.730469 22.992188 16.113281 22.992188 15.351562 C 22.992188 14.59375 23.605469 13.976562 24.367188 13.976562 C 25.125 13.976562 25.742188 14.59375 25.742188 15.351562 C 25.742188 16.113281 25.125 16.726562 24.367188 16.730469 Z M 24.367188 14.183594 C 23.722656 14.183594 23.199219 14.707031 23.199219 15.351562 C 23.199219 15.996094 23.722656 16.519531 24.367188 16.519531 C 25.011719 16.519531 25.535156 15.996094 25.535156 15.351562 C 25.53125 14.707031 25.011719 14.1875 24.367188 14.183594 Z M 40.226562 10.222656 L 45.550781 10.222656 L 45.550781 10.433594 L 40.226562 10.433594 Z M 40.226562 10.222656 "/>
<path style=" stroke:none;fill-rule:nonzero;fill:rgb(75.294119%,89.411765%,94.901961%);fill-opacity:1;" d="M 54.148438 5.71875 L 58.484375 5.71875 C 58.757812 5.71875 58.980469 5.941406 58.980469 6.210938 L 58.980469 20 L 53.65625 20 L 53.65625 6.210938 C 53.65625 5.941406 53.875 5.71875 54.148438 5.71875 Z M 54.148438 5.71875 "/>
<path style=" stroke:none;fill-rule:nonzero;fill:rgb(75.294119%,89.411765%,94.901961%);fill-opacity:1;" d="M 55.929688 3.222656 L 56.703125 3.222656 C 56.976562 3.222656 57.199219 3.441406 57.199219 3.714844 L 57.199219 5.765625 L 55.4375 5.765625 L 55.4375 3.714844 C 55.4375 3.441406 55.65625 3.222656 55.929688 3.222656 Z M 55.929688 3.222656 "/>
<path style=" stroke:none;fill-rule:nonzero;fill:rgb(49.019608%,67.058825%,73.725492%);fill-opacity:1;" d="M 53.65625 10.222656 L 58.980469 10.222656 L 58.980469 10.433594 L 53.65625 10.433594 Z M 53.65625 10.222656 "/>
<path style=" stroke:none;fill-rule:nonzero;fill:rgb(75.294119%,89.411765%,94.901961%);fill-opacity:1;" d="M 47.015625 2.976562 L 52.375 2.976562 C 52.648438 2.976562 52.867188 3.199219 52.867188 3.472656 L 52.867188 20 L 46.523438 20 L 46.523438 3.472656 C 46.523438 3.199219 46.742188 2.976562 47.015625 2.976562 Z M 47.015625 2.976562 "/>
<path style=" stroke:none;fill-rule:nonzero;fill:rgb(75.294119%,89.411765%,94.901961%);fill-opacity:1;" d="M 49.140625 0 L 50.25 0 C 50.523438 0 50.746094 0.222656 50.746094 0.496094 L 50.746094 3.03125 L 48.644531 3.03125 L 48.644531 0.496094 C 48.644531 0.222656 48.867188 0 49.140625 0 Z M 49.140625 0 "/>
<path style=" stroke:none;fill-rule:nonzero;fill:rgb(49.019608%,67.058825%,73.725492%);fill-opacity:1;" d="M 46.523438 8.34375 L 52.867188 8.34375 L 52.867188 8.597656 L 46.523438 8.597656 Z M 155.210938 43.402344 L 213.292969 43.402344 L 213.292969 46.121094 L 155.210938 46.121094 Z M 155.210938 43.402344 "/>
<path style=" stroke:none;fill-rule:nonzero;fill:rgb(75.294119%,89.411765%,94.901961%);fill-opacity:1;" d="M 184.746094 29.117188 L 189.082031 29.117188 C 189.355469 29.117188 189.578125 29.339844 189.578125 29.613281 L 189.578125 43.402344 L 184.25 43.402344 L 184.25 29.613281 C 184.25 29.339844 184.472656 29.117188 184.746094 29.117188 Z M 184.746094 29.117188 "/>
<path style=" stroke:none;fill-rule:nonzero;fill:rgb(75.294119%,89.411765%,94.901961%);fill-opacity:1;" d="M 186.527344 26.621094 L 187.300781 26.621094 C 187.574219 26.621094 187.796875 26.84375 187.796875 27.117188 L 187.796875 29.164062 L 186.03125 29.164062 L 186.03125 27.117188 C 186.03125 26.84375 186.253906 26.621094 186.527344 26.621094 Z M 166.691406 46.121094 L 168.203125 46.121094 L 168.203125 51.460938 L 166.691406 51.460938 Z M 202.792969 46.121094 L 204.304688 46.121094 L 204.304688 51.460938 L 202.792969 51.460938 Z M 164.242188 34.105469 L 172.542969 34.105469 C 172.8125 34.105469 173.035156 34.328125 173.035156 34.601562 L 173.035156 43.402344 L 163.746094 43.402344 L 163.746094 34.601562 C 163.746094 34.328125 163.96875 34.105469 164.238281 34.105469 Z M 164.242188 34.105469 "/>
<path style=" stroke:none;fill-rule:nonzero;fill:rgb(49.019608%,67.058825%,73.725492%);fill-opacity:1;" d="M 163.746094 36.445312 L 173.035156 36.445312 L 173.035156 36.652344 L 163.746094 36.652344 Z M 168.390625 40.128906 C 167.628906 40.128906 167.015625 39.511719 167.015625 38.753906 C 167.015625 37.992188 167.632812 37.375 168.390625 37.375 C 169.152344 37.375 169.765625 37.992188 169.765625 38.753906 C 169.765625 39.511719 169.148438 40.128906 168.390625 40.128906 Z M 168.390625 37.585938 C 167.746094 37.585938 167.222656 38.109375 167.222656 38.753906 C 167.222656 39.398438 167.746094 39.921875 168.390625 39.921875 C 169.035156 39.921875 169.558594 39.398438 169.558594 38.753906 C 169.558594 38.109375 169.035156 37.585938 168.390625 37.585938 Z M 184.25 33.625 L 189.578125 33.625 L 189.578125 33.832031 L 184.25 33.832031 Z M 184.25 33.625 "/>
<path style=" stroke:none;fill-rule:nonzero;fill:rgb(75.294119%,89.411765%,94.901961%);fill-opacity:1;" d="M 198.171875 29.117188 L 202.507812 29.117188 C 202.78125 29.117188 203.003906 29.339844 203.003906 29.613281 L 203.003906 43.402344 L 197.679688 43.402344 L 197.679688 29.613281 C 197.679688 29.339844 197.902344 29.117188 198.171875 29.117188 Z M 198.171875 29.117188 "/>
<path style=" stroke:none;fill-rule:nonzero;fill:rgb(75.294119%,89.411765%,94.901961%);fill-opacity:1;" d="M 199.953125 26.621094 L 200.726562 26.621094 C 201 26.621094 201.222656 26.84375 201.222656 27.117188 L 201.222656 29.164062 L 199.460938 29.164062 L 199.460938 27.117188 C 199.460938 26.84375 199.679688 26.621094 199.953125 26.621094 Z M 199.953125 26.621094 "/>
<path style=" stroke:none;fill-rule:nonzero;fill:rgb(49.019608%,67.058825%,73.725492%);fill-opacity:1;" d="M 197.679688 33.625 L 203.003906 33.625 L 203.003906 33.832031 L 197.679688 33.832031 Z M 197.679688 33.625 "/>
<path style=" stroke:none;fill-rule:nonzero;fill:rgb(75.294119%,89.411765%,94.901961%);fill-opacity:1;" d="M 191.039062 26.375 L 196.398438 26.375 C 196.671875 26.375 196.894531 26.597656 196.894531 26.871094 L 196.894531 43.402344 L 190.546875 43.402344 L 190.546875 26.871094 C 190.546875 26.597656 190.765625 26.375 191.039062 26.375 Z M 191.039062 26.375 "/>
<path style=" stroke:none;fill-rule:nonzero;fill:rgb(75.294119%,89.411765%,94.901961%);fill-opacity:1;" d="M 193.164062 23.402344 L 194.273438 23.402344 C 194.546875 23.402344 194.769531 23.621094 194.769531 23.894531 L 194.769531 26.433594 L 192.667969 26.433594 L 192.667969 23.894531 C 192.667969 23.621094 192.890625 23.402344 193.164062 23.402344 Z M 193.164062 23.402344 "/>
<path style=" stroke:none;fill-rule:nonzero;fill:rgb(49.019608%,67.058825%,73.725492%);fill-opacity:1;" d="M 190.546875 31.746094 L 196.894531 31.746094 L 196.894531 31.996094 L 190.546875 31.996094 Z M 190.546875 31.746094 "/>
<path style=" stroke:none;fill-rule:nonzero;fill:rgb(38.82353%,77.254903%,91.764706%);fill-opacity:1;" d="M 118.28125 125.6875 L 112.285156 200.328125 C 112.285156 200.328125 116.273438 205.320312 124.148438 201.625 L 133.046875 130.097656 L 135.820312 130.375 L 139.46875 201.207031 C 139.46875 201.207031 145.351562 204.394531 150.503906 201.070312 L 149.953125 125.894531 L 118.3125 125.664062 Z M 118.28125 125.6875 "/>
<path style=" stroke:none;fill-rule:nonzero;fill:rgb(3.137255%,65.098041%,87.843138%);fill-opacity:1;" d="M 149.953125 127.046875 C 149.910156 126.664062 149.867188 126.277344 149.824219 125.890625 L 118.417969 125.664062 C 118.367188 126.121094 118.3125 126.582031 118.257812 127.042969 L 128.847656 129.066406 C 131.929688 129.65625 135.066406 129.882812 138.203125 129.738281 C 149.429688 129.207031 149.953125 127.046875 149.953125 127.046875 Z M 149.953125 127.046875 "/>
<path style=" stroke:none;fill-rule:nonzero;fill:rgb(38.82353%,77.254903%,91.764706%);fill-opacity:1;" d="M 150.847656 71.742188 L 141.882812 68.875 L 135.015625 73.765625 L 126.894531 68.875 L 117.757812 71.730469 C 116.5 72.125 115.355469 72.804688 114.410156 73.71875 C 112.652344 75.417969 109.601562 78.914062 104.933594 85.96875 L 112.183594 91.652344 L 116.890625 86.230469 C 116.890625 86.230469 120.746094 106.128906 118.265625 125.886719 L 128.847656 127.910156 C 131.925781 128.5 135.066406 128.726562 138.203125 128.582031 C 149.429688 128.050781 149.953125 125.894531 149.953125 125.894531 C 147.621094 106.117188 151.605469 86.25 151.605469 86.25 L 156.273438 91.703125 L 163.570312 86.066406 C 158.953125 78.980469 155.925781 75.46875 154.179688 73.753906 C 153.242188 72.832031 152.101562 72.144531 150.847656 71.742188 Z M 146.355469 44.433594 C 146.355469 37.621094 140.738281 32.480469 133.808594 32.480469 C 126.882812 32.480469 121.265625 37.621094 121.265625 44.433594 C 121.371094 51.289062 126.957031 56.792969 133.808594 56.792969 C 140.664062 56.792969 146.25 51.289062 146.355469 44.433594 Z M 146.355469 44.433594 "/>
<path style=" stroke:none;fill-rule:nonzero;fill:rgb(2.352941%,39.215687%,52.941179%);fill-opacity:1;" d="M 144.894531 45.125 L 146.316406 45.417969 L 146.261719 46.316406 C 146.226562 46.941406 146.082031 47.550781 145.835938 48.125 L 145.304688 49.382812 C 145.304688 49.382812 145.007812 49.429688 144.882812 48.230469 C 144.816406 47.199219 144.824219 46.160156 144.898438 45.125 Z M 123.113281 47.34375 C 121.867188 49.769531 124.507812 53.4375 125.738281 53.257812 C 126.882812 53.09375 127.082031 49.542969 127.101562 49.191406 C 127.15625 48.015625 127.257812 46.027344 126.222656 45.589844 C 125.296875 45.195312 123.722656 46.160156 123.113281 47.34375 Z M 123.113281 47.34375 "/>
<path style=" stroke:none;fill-rule:nonzero;fill:rgb(54.11765%,85.09804%,96.470588%);fill-opacity:1;" d="M 126.613281 45.957031 C 126.613281 45.957031 124.648438 49.617188 123.695312 49.933594 C 123.695312 49.933594 120 53.535156 125.15625 54.183594 C 125.15625 54.183594 125.445312 63.609375 131.378906 64.996094 L 131.378906 67.371094 C 131.378906 67.863281 131.019531 68.28125 130.53125 68.351562 L 126.894531 68.875 C 126.894531 68.875 134.878906 80.335938 141.882812 68.875 L 139.484375 68.378906 C 139.058594 68.289062 138.742188 67.933594 138.699219 67.503906 L 138.476562 65.179688 C 138.476562 65.179688 145.773438 62.683594 144.992188 54.460938 C 144.992188 54.460938 149.40625 52.25 145.304688 49.382812 C 145.304688 49.382812 144.960938 49.644531 144.875 47.730469 C 144.847656 47.113281 144.847656 46.273438 144.898438 45.125 C 144.898438 45.125 130.761719 39.183594 126.613281 45.957031 Z M 156.273438 91.703125 L 159.945312 95.492188 L 150.027344 108.449219 C 150.027344 108.449219 151.703125 112.046875 151.984375 113.3125 C 152.003906 113.402344 152.070312 113.476562 152.15625 113.511719 C 152.242188 113.546875 152.339844 113.539062 152.417969 113.492188 C 153.839844 112.660156 158.859375 109.253906 167.386719 98.449219 C 167.386719 98.449219 171.140625 94.511719 162.992188 86.511719 Z M 112 91.429688 L 108.328125 95.21875 L 118.292969 108.238281 C 118.292969 108.238281 116.570312 111.773438 116.292969 113.039062 C 116.269531 113.128906 116.203125 113.203125 116.117188 113.238281 C 116.03125 113.273438 115.9375 113.265625 115.855469 113.21875 C 114.433594 112.390625 109.414062 108.980469 100.886719 98.175781 C 100.886719 98.175781 97.132812 94.242188 105.285156 86.238281 Z M 112 91.429688 "/>
<path style=" stroke:none;fill-rule:nonzero;fill:rgb(52.941179%,86.666667%,99.215686%);fill-opacity:1;" d="M 116.058594 113.265625 C 118.511719 117.195312 121.476562 113.054688 121.476562 113.054688 L 122.726562 113.457031 C 124.4375 114.035156 126.324219 113.746094 127.78125 112.683594 C 127.878906 112.609375 127.96875 112.53125 128.058594 112.453125 C 129.710938 110.988281 128.855469 109.75 127.738281 108.929688 C 126.753906 108.226562 125.59375 107.816406 124.386719 107.738281 C 118.703125 107.316406 118.195312 108.339844 118.195312 108.339844 C 117.21875 109.550781 116.546875 110.976562 116.230469 112.496094 Z M 139.46875 201.207031 L 139.46875 207.261719 L 164.65625 207.261719 C 164.886719 205.929688 164.09375 204.636719 162.808594 204.234375 L 158.144531 204.660156 C 157.070312 204.757812 155.988281 204.5 155.074219 203.925781 L 150.503906 201.070312 Z M 124.167969 201.207031 L 124.167969 207.261719 L 98.980469 207.261719 C 98.746094 205.929688 99.539062 204.636719 100.828125 204.234375 L 105.042969 204.617188 C 106.386719 204.742188 107.722656 204.308594 108.742188 203.421875 L 112.285156 200.328125 Z M 124.167969 201.207031 "/>
<path style=" stroke:none;fill-rule:nonzero;fill:rgb(2.352941%,39.215687%,52.941179%);fill-opacity:1;" d="M 98.980469 207.261719 L 124.167969 207.261719 L 124.167969 209.109375 L 98.980469 209.109375 Z M 139.484375 207.261719 L 164.671875 207.261719 L 164.671875 209.109375 L 139.484375 209.109375 Z M 139.484375 207.261719 "/>
<path style=" stroke:none;fill-rule:nonzero;fill:rgb(52.941179%,86.666667%,99.215686%);fill-opacity:1;" d="M 126.46875 54.183594 L 126.46875 60.226562 C 126.46875 60.226562 128.753906 67.722656 138.476562 65.179688 C 138.476562 65.179688 145.175781 63.613281 145.023438 54.808594 C 145.023438 54.808594 138.210938 53.90625 126.46875 54.183594 Z M 126.46875 54.183594 "/>
<path style=" stroke:none;fill-rule:nonzero;fill:rgb(38.82353%,77.254903%,91.764706%);fill-opacity:1;" d="M 126.46875 54.183594 C 126.261719 53.8125 126.042969 53.449219 125.8125 53.09375 C 125.589844 52.746094 125.347656 52.414062 125.085938 52.09375 C 124.820312 51.777344 124.53125 51.488281 124.21875 51.226562 C 123.886719 50.96875 123.535156 50.746094 123.160156 50.558594 C 123.597656 50.605469 124.015625 50.746094 124.394531 50.972656 C 124.769531 51.210938 125.101562 51.5 125.386719 51.839844 C 125.945312 52.511719 126.320312 53.320312 126.46875 54.183594 Z M 126.46875 54.183594 "/>
<path style=" stroke:none;fill-rule:nonzero;fill:rgb(0.784314%,0.784314%,0.784314%);fill-opacity:1;" d="M 130.1875 49.382812 C 130.683594 49.046875 131.265625 48.859375 131.863281 48.839844 C 132.167969 48.832031 132.46875 48.867188 132.757812 48.949219 C 133.050781 49.03125 133.316406 49.179688 133.542969 49.382812 C 132.996094 49.261719 132.4375 49.214844 131.878906 49.238281 C 131.328125 49.253906 130.777344 49.328125 130.1875 49.382812 Z M 140.179688 49.382812 C 140.75 49.050781 141.398438 48.882812 142.058594 48.898438 C 142.390625 48.90625 142.722656 48.972656 143.035156 49.089844 C 143.347656 49.210938 143.621094 49.414062 143.828125 49.679688 C 143.546875 49.546875 143.25 49.449219 142.945312 49.382812 C 142.648438 49.332031 142.351562 49.300781 142.046875 49.296875 C 141.441406 49.28125 140.828125 49.339844 140.179688 49.382812 Z M 140.179688 49.382812 "/>
<path style=" stroke:none;fill-rule:nonzero;fill:rgb(0.784314%,0.784314%,0.784314%);fill-opacity:1;" d="M 132.230469 52.414062 C 132.230469 51.785156 131.96875 51.273438 131.644531 51.273438 C 131.324219 51.273438 131.0625 51.785156 131.0625 52.414062 C 131.0625 53.046875 131.324219 53.558594 131.644531 53.558594 C 131.96875 53.558594 132.230469 53.046875 132.230469 52.414062 Z M 132.230469 52.414062 "/>
<path style=" stroke:none;fill-rule:nonzero;fill:rgb(0.784314%,0.784314%,0.784314%);fill-opacity:1;" d="M 142.003906 52.414062 C 142.003906 51.785156 141.742188 51.273438 141.421875 51.273438 C 141.097656 51.273438 140.835938 51.785156 140.835938 52.414062 C 140.835938 53.046875 141.097656 53.558594 141.421875 53.558594 C 141.742188 53.558594 142.003906 53.046875 142.003906 52.414062 Z M 142.003906 52.414062 "/>
<path style=" stroke:none;fill-rule:nonzero;fill:rgb(3.137255%,65.098041%,87.843138%);fill-opacity:1;" d="M 131.378906 66.867188 C 126.960938 67.78125 123.832031 69.886719 122.078125 73.136719 C 117.457031 81.683594 123.710938 95.476562 123.773438 95.613281 L 123.03125 95.921875 C 122.765625 95.347656 116.5625 81.660156 121.355469 72.785156 C 123.234375 69.300781 126.664062 67.050781 131.378906 66.097656 Z M 131.378906 66.867188 "/>
<path style=" stroke:none;fill-rule:nonzero;fill:rgb(52.941179%,86.666667%,99.215686%);fill-opacity:1;" d="M 127.1875 96.742188 C 127.1875 95.082031 125.769531 93.734375 124.023438 93.734375 C 122.273438 93.734375 120.855469 95.082031 120.855469 96.742188 C 120.855469 98.402344 122.273438 99.75 124.023438 99.75 C 125.769531 99.75 127.1875 98.402344 127.1875 96.742188 Z M 127.1875 96.742188 "/>
<path style=" stroke:none;fill-rule:nonzero;fill:rgb(3.137255%,65.098041%,87.843138%);fill-opacity:1;" d="M 125.652344 96.742188 C 125.652344 95.886719 124.921875 95.195312 124.023438 95.195312 C 123.121094 95.195312 122.394531 95.886719 122.394531 96.742188 C 122.394531 97.597656 123.121094 98.289062 124.023438 98.289062 C 124.921875 98.289062 125.652344 97.597656 125.652344 96.742188 Z M 125.652344 96.742188 "/>
<path style=" stroke:none;fill-rule:nonzero;fill:rgb(3.137255%,65.098041%,87.843138%);fill-opacity:1;" d="M 138.613281 66.886719 C 139.542969 67.144531 144.984375 68.855469 145.175781 73.261719 L 145.980469 73.230469 C 145.753906 67.886719 138.886719 66.183594 138.554688 66.101562 Z M 138.613281 66.886719 "/>
<path style=" stroke:none;fill-rule:nonzero;fill:rgb(3.137255%,65.098041%,87.843138%);fill-opacity:1;" d="M 152.246094 92.226562 C 150.945312 92.226562 149.742188 91.320312 148.710938 90.105469 C 148.375 90.859375 147.828125 91.5 147.136719 91.949219 C 146.78125 92.179688 146.34375 92.238281 145.941406 92.113281 L 146.222656 91.375 C 146.429688 91.410156 146.640625 91.355469 146.808594 91.226562 C 147.425781 90.765625 147.898438 90.136719 148.167969 89.414062 C 146.953125 87.664062 145.957031 85.769531 145.207031 83.773438 C 143.390625 78.449219 142.992188 75.058594 144.023438 73.691406 C 144.238281 73.371094 144.585938 73.167969 144.96875 73.125 C 146.171875 72.753906 147.484375 73.027344 148.441406 73.84375 C 151.355469 76.4375 150.457031 84.058594 150.417969 84.378906 C 150.144531 86.0625 149.695312 87.714844 149.082031 89.304688 C 150.203125 90.722656 151.492188 91.707031 152.769531 91.367188 L 152.972656 92.128906 C 152.734375 92.191406 152.492188 92.226562 152.246094 92.226562 Z M 145.003906 73.914062 C 144.84375 73.953125 144.707031 74.058594 144.625 74.207031 C 144.253906 74.746094 143.640625 76.738281 145.953125 83.511719 C 146.617188 85.285156 147.480469 86.976562 148.527344 88.550781 C 149.023438 87.15625 149.394531 85.71875 149.636719 84.261719 C 149.644531 84.210938 150.523438 76.753906 147.914062 74.4375 C 147.195312 73.792969 146.277344 73.621094 145.117188 73.902344 L 145.0625 73.917969 Z M 145.003906 73.914062 "/>
<path style=" stroke:none;fill-rule:nonzero;fill:rgb(52.941179%,86.666667%,99.215686%);fill-opacity:1;" d="M 146.125 92.042969 C 146.125 91.574219 145.722656 91.195312 145.230469 91.195312 C 144.738281 91.195312 144.339844 91.574219 144.339844 92.042969 C 144.339844 92.511719 144.738281 92.890625 145.230469 92.890625 C 145.722656 92.890625 146.125 92.511719 146.125 92.042969 Z M 146.125 92.042969 "/>
<path style=" stroke:none;fill-rule:nonzero;fill:rgb(52.941179%,86.666667%,99.215686%);fill-opacity:1;" d="M 154.476562 91.519531 C 154.476562 91.046875 154.074219 90.667969 153.582031 90.667969 C 153.089844 90.667969 152.6875 91.046875 152.6875 91.519531 C 152.6875 91.988281 153.089844 92.367188 153.582031 92.367188 C 154.074219 92.367188 154.476562 91.988281 154.476562 91.519531 Z M 154.476562 91.519531 "/>
<path style=" stroke:none;fill-rule:nonzero;fill:rgb(52.941179%,86.666667%,99.215686%);fill-opacity:1;" d="M 152.167969 113.515625 C 149.714844 117.445312 146.746094 113.164062 146.746094 113.164062 L 145.496094 113.566406 C 143.785156 114.144531 141.898438 113.859375 140.4375 112.792969 C 140.34375 112.71875 140.253906 112.644531 140.164062 112.5625 C 138.507812 111.101562 139.367188 109.863281 140.484375 109.042969 C 141.46875 108.339844 142.628906 107.925781 143.835938 107.851562 C 149.519531 107.425781 150.027344 108.453125 150.027344 108.453125 L 150.628906 109.3125 C 151.246094 110.1875 151.65625 111.191406 151.832031 112.246094 Z M 152.167969 113.515625 "/>
<path style=" stroke:none;fill-rule:nonzero;fill:rgb(3.137255%,65.098041%,87.843138%);fill-opacity:1;" d="M 130.1875 56.410156 C 131.148438 56.667969 132.113281 56.886719 133.082031 57.070312 C 134.046875 57.253906 135.023438 57.382812 136.003906 57.445312 C 136.980469 57.523438 137.960938 57.496094 138.929688 57.359375 C 139.90625 57.222656 140.84375 56.898438 141.695312 56.410156 C 140.90625 57.039062 139.976562 57.464844 138.984375 57.660156 C 137.996094 57.859375 136.984375 57.921875 135.980469 57.839844 C 134.980469 57.773438 133.988281 57.617188 133.019531 57.367188 C 132.046875 57.132812 131.101562 56.8125 130.1875 56.410156 Z M 129.992188 58.644531 C 130.953125 58.902344 131.917969 59.121094 132.886719 59.304688 C 133.851562 59.488281 134.828125 59.617188 135.808594 59.679688 C 136.785156 59.757812 137.765625 59.730469 138.734375 59.59375 C 139.707031 59.457031 140.648438 59.132812 141.5 58.644531 C 140.710938 59.273438 139.78125 59.699219 138.789062 59.894531 C 137.800781 60.09375 136.789062 60.15625 135.785156 60.074219 C 134.785156 60.007812 133.792969 59.851562 132.820312 59.601562 C 131.851562 59.367188 130.90625 59.046875 129.992188 58.644531 Z M 129.992188 61.253906 C 130.953125 61.511719 131.917969 61.730469 132.886719 61.914062 C 133.851562 62.097656 134.828125 62.226562 135.808594 62.289062 C 136.785156 62.367188 137.765625 62.339844 138.734375 62.203125 C 139.707031 62.066406 140.648438 61.742188 141.5 61.253906 C 140.710938 61.882812 139.78125 62.308594 138.789062 62.503906 C 137.800781 62.703125 136.789062 62.765625 135.785156 62.683594 C 134.785156 62.617188 133.792969 62.460938 132.820312 62.207031 C 131.851562 61.976562 130.90625 61.65625 129.992188 61.253906 Z M 129.992188 61.253906 "/>
<path style=" stroke:none;fill-rule:nonzero;fill:rgb(17.254902%,35.686275%,42.352942%);fill-opacity:1;" d="M 113.515625 128.902344 L 39.351562 123.207031 L 38.972656 118.414062 C 38.972656 118.414062 99.296875 106.601562 114.074219 109.636719 Z M 113.515625 128.902344 "/>
<path style=" stroke:none;fill-rule:nonzero;fill:rgb(54.11765%,85.09804%,96.470588%);fill-opacity:1;" d="M 39.539062 122.945312 L 34.035156 123.378906 C 34.035156 123.378906 29.5 117.125 32.679688 115.355469 L 34.695312 118.566406 C 35.175781 119.332031 36.113281 119.675781 36.972656 119.398438 L 39.203125 118.683594 Z M 39.539062 122.945312 "/>
<path style=" stroke:none;fill-rule:nonzero;fill:rgb(17.254902%,35.686275%,42.352942%);fill-opacity:1;" d="M 34.035156 123.378906 C 34.035156 123.378906 31.296875 126.007812 28.929688 124.316406 L 27.9375 111.703125 C 27.890625 111.199219 28.050781 110.699219 28.382812 110.320312 C 28.714844 109.941406 29.1875 109.714844 29.691406 109.695312 C 30.449219 109.691406 31.300781 110.167969 31.96875 111.839844 L 32.679688 115.355469 Z M 34.035156 123.378906 "/>
<path style=" stroke:none;fill-rule:nonzero;fill:rgb(54.901963%,82.745099%,92.941177%);fill-opacity:1;" d="M 12.6875 138.484375 L 193.242188 138.484375 L 193.242188 150.554688 L 12.6875 150.554688 Z M 10.285156 118.738281 C 11.613281 118.738281 12.6875 119.816406 12.6875 121.144531 L 12.6875 150.554688 L 7.882812 150.554688 L 7.882812 121.144531 C 7.882812 119.816406 8.957031 118.738281 10.285156 118.738281 Z M 10.285156 118.738281 "/>
<path style=" stroke:none;fill-rule:nonzero;fill:rgb(54.901963%,82.745099%,92.941177%);fill-opacity:1;" d="M 195.28125 118.738281 C 196.609375 118.738281 197.683594 119.816406 197.683594 121.144531 L 197.683594 150.554688 L 192.875 150.554688 L 192.875 121.144531 C 192.875 119.816406 193.953125 118.738281 195.28125 118.738281 Z M 195.28125 118.738281 "/>
<path style=" stroke:none;fill-rule:nonzero;fill:rgb(54.901963%,82.745099%,92.941177%);fill-opacity:1;" d="M 197.722656 210.894531 L 7.84375 210.894531 L 7.84375 148.109375 L 197.722656 148.109375 Z M 12.726562 206.007812 L 192.839844 206.007812 L 192.839844 152.996094 L 12.726562 152.996094 Z M 12.726562 206.007812 "/>
<path style=" stroke:none;fill-rule:nonzero;fill:rgb(45.09804%,68.627453%,77.64706%);fill-opacity:1;" d="M 140.050781 131.585938 C 140.050781 131.585938 129.191406 131.929688 124.390625 128.625 C 119.585938 125.316406 106.460938 118.269531 106.460938 118.269531 L 106.46875 108.492188 C 106.46875 108.492188 112.179688 110.96875 127.507812 109.988281 C 127.507812 109.988281 133.984375 104.480469 138.355469 113.273438 L 149.351562 123.457031 L 146.652344 130.121094 C 144.519531 130.878906 142.304688 131.375 140.050781 131.585938 Z M 140.050781 131.585938 "/>
<path style=" stroke:none;fill-rule:nonzero;fill:rgb(54.11765%,85.09804%,96.470588%);fill-opacity:1;" d="M 155.722656 118.3125 C 155.722656 118.3125 147.769531 121.699219 144.988281 119.324219 C 142.210938 116.945312 138.355469 113.273438 138.355469 113.273438 C 138.355469 113.273438 138.105469 118.527344 140.28125 118.675781 C 142.457031 118.828125 147.523438 120.316406 147.199219 126.152344 C 146.871094 131.988281 140.25 131.242188 140.050781 131.585938 C 140.050781 131.585938 146.910156 131.046875 147.261719 130.695312 C 147.261719 130.695312 149.171875 129.992188 152.105469 127.082031 C 152.105469 127.082031 153.386719 125.28125 155.070312 125.710938 L 158.277344 125.136719 L 157.730469 122.820312 Z M 155.722656 118.3125 "/>
<path style=" stroke:none;fill-rule:nonzero;fill:rgb(48.627451%,79.607844%,90.980393%);fill-opacity:1;" d="M 157.730469 122.820312 L 155.722656 118.3125 C 155.722656 118.3125 153.765625 119.007812 153.308594 119.179688 C 153.445312 119.609375 157.9375 123.6875 157.9375 123.6875 Z M 157.730469 122.820312 "/>
<path style=" stroke:none;fill-rule:nonzero;fill:rgb(54.11765%,85.09804%,96.470588%);fill-opacity:1;" d="M 88.730469 115.648438 L 109.757812 127.796875 L 140.90625 129.554688 C 142.078125 129.65625 143.242188 129.265625 144.117188 128.480469 C 144.992188 127.695312 145.507812 126.582031 145.535156 125.402344 C 145.566406 124.253906 145.128906 123.140625 144.328125 122.316406 C 143.527344 121.492188 142.429688 121.027344 141.28125 121.023438 L 112.542969 120.925781 L 90.304688 111.203125 Z M 173.320312 112.996094 C 171.316406 112.078125 169.0625 111.84375 166.90625 112.328125 C 166.90625 112.328125 165.722656 113.066406 163.089844 110.949219 C 163.089844 110.949219 161.710938 109.707031 161.078125 112.117188 C 161.03125 112.292969 160.886719 112.429688 160.707031 112.460938 C 160.371094 112.535156 160.027344 112.5625 159.679688 112.546875 C 159.511719 112.523438 159.34375 112.578125 159.21875 112.695312 C 159.097656 112.8125 159.03125 112.976562 159.046875 113.148438 C 159.050781 113.179688 159 113.171875 158.890625 113.078125 C 158.417969 112.675781 157.847656 113.085938 157.945312 113.746094 C 157.953125 113.765625 155.980469 113.246094 155.414062 114.085938 C 155.414062 114.085938 154.878906 114.671875 155.359375 116.96875 C 155.539062 117.8125 155.804688 118.636719 156.15625 119.425781 C 156.679688 120.625 157.617188 122.839844 157.753906 122.980469 L 163.4375 125.59375 L 171.054688 122.613281 L 174.71875 114.273438 Z M 173.320312 112.996094 "/>
<path style=" stroke:none;fill-rule:nonzero;fill:rgb(48.627451%,79.607844%,90.980393%);fill-opacity:1;" d="M 162.628906 113.289062 C 162.515625 113.398438 162.375 113.476562 162.222656 113.515625 C 162.058594 113.5625 161.886719 113.5625 161.726562 113.511719 C 161.558594 113.457031 161.417969 113.34375 161.332031 113.191406 C 161.25 113.050781 161.210938 112.890625 161.222656 112.730469 C 161.355469 112.964844 161.5625 113.148438 161.8125 113.253906 C 162.082031 113.320312 162.359375 113.332031 162.628906 113.289062 Z M 162.628906 113.289062 "/>
<path style=" stroke:none;fill-rule:nonzero;fill:rgb(0.784314%,0.784314%,0.784314%);fill-opacity:1;" d="M 168.242188 112.117188 C 168.363281 112.433594 168.460938 112.753906 168.539062 113.082031 C 168.632812 113.414062 168.683594 113.753906 168.683594 114.097656 C 168.675781 114.453125 168.589844 114.800781 168.441406 115.117188 C 168.285156 115.421875 168.101562 115.707031 167.894531 115.976562 C 167.964844 115.644531 168.082031 115.316406 168.179688 115.019531 C 168.265625 114.714844 168.316406 114.402344 168.324219 114.089844 C 168.320312 113.765625 168.300781 113.445312 168.257812 113.125 C 168.230469 112.792969 168.222656 112.453125 168.242188 112.117188 Z M 166.4375 115.675781 C 166.09375 115.230469 165.90625 114.679688 165.910156 114.113281 C 165.910156 113.8125 166 113.519531 166.167969 113.273438 C 166.347656 113.039062 166.613281 112.890625 166.90625 112.859375 C 166.699219 113.003906 166.527344 113.195312 166.410156 113.421875 C 166.316406 113.640625 166.269531 113.882812 166.273438 114.121094 C 166.285156 114.644531 166.339844 115.164062 166.4375 115.675781 Z M 166.4375 115.675781 "/>
<path style=" stroke:none;fill-rule:nonzero;fill:rgb(19.607843%,69.01961%,87.450981%);fill-opacity:1;" d="M 170.347656 113.957031 C 171.050781 114.191406 171.511719 114.867188 171.472656 115.609375 C 171.433594 116.390625 171.203125 117.3125 170.425781 117.746094 C 170.425781 117.746094 167.980469 119.632812 167.125 122.195312 C 165.960938 122.277344 164.8125 122.511719 163.710938 122.898438 C 163.710938 122.898438 160.273438 122.214844 157.5 122.964844 C 155.726562 123.457031 154.570312 125.160156 154.769531 126.992188 C 155.03125 129.488281 156.457031 133.296875 162.296875 135.433594 C 171.488281 138.804688 175.644531 132.820312 175.644531 132.820312 C 175.644531 132.820312 180.542969 139.179688 184.902344 134.003906 C 185.980469 132.691406 186.65625 131.101562 186.859375 129.414062 C 187.34375 125.742188 187.371094 118.730469 180.152344 120.160156 C 179.164062 117.839844 177.996094 115.59375 176.664062 113.453125 C 175.726562 112.011719 174.320312 110.941406 172.679688 110.417969 C 170.792969 109.847656 168.109375 109.84375 164.941406 112.125 Z M 170.347656 113.957031 "/>
<path style=" stroke:none;fill-rule:nonzero;fill:rgb(17.254902%,60.784316%,76.862746%);fill-opacity:1;" d="M 180.441406 122.800781 C 181.007812 122.738281 181.578125 122.746094 182.140625 122.824219 C 182.710938 122.890625 183.269531 123.035156 183.804688 123.25 C 184.351562 123.457031 184.847656 123.78125 185.253906 124.203125 C 185.652344 124.625 185.902344 125.171875 185.960938 125.753906 C 185.773438 125.234375 185.464844 124.773438 185.058594 124.402344 C 184.644531 124.050781 184.175781 123.773438 183.667969 123.582031 C 183.15625 123.378906 182.628906 123.214844 182.09375 123.101562 C 181.546875 122.980469 180.996094 122.878906 180.441406 122.800781 Z M 177.800781 130.765625 C 178.253906 131.125 178.730469 131.464844 179.222656 131.773438 C 179.703125 132.085938 180.207031 132.355469 180.730469 132.589844 C 181.238281 132.828125 181.789062 132.96875 182.351562 133 C 182.917969 133.019531 183.480469 132.855469 183.953125 132.535156 C 183.539062 132.988281 182.964844 133.257812 182.355469 133.28125 C 181.746094 133.304688 181.140625 133.179688 180.585938 132.921875 C 180.042969 132.679688 179.53125 132.371094 179.058594 132.003906 C 178.585938 131.648438 178.164062 131.230469 177.800781 130.765625 Z M 179.984375 126.8125 C 180.800781 127.011719 181.59375 127.285156 182.359375 127.628906 C 183.136719 127.949219 183.867188 128.375 184.53125 128.890625 L 183.363281 128.441406 C 182.976562 128.289062 182.59375 128.128906 182.210938 127.960938 C 181.445312 127.628906 180.699219 127.246094 179.984375 126.8125 Z M 180.152344 120.160156 C 180.175781 121.304688 180.078125 122.445312 179.863281 123.566406 C 179.652344 124.6875 179.355469 125.796875 178.976562 126.875 C 178.589844 127.949219 178.117188 128.992188 177.5625 129.992188 C 177.292969 130.496094 176.980469 130.976562 176.667969 131.453125 C 176.351562 131.925781 175.992188 132.375 175.644531 132.820312 C 176.25 131.863281 176.808594 130.878906 177.316406 129.863281 C 177.824219 128.859375 178.265625 127.820312 178.636719 126.753906 C 179.023438 125.695312 179.34375 124.609375 179.589844 123.507812 C 179.851562 122.40625 180.039062 121.289062 180.152344 120.160156 Z M 172.074219 113.605469 C 172.824219 113.789062 173.535156 114.097656 174.183594 114.515625 C 174.839844 114.929688 175.429688 115.441406 175.929688 116.039062 C 176.4375 116.625 176.84375 117.296875 177.125 118.023438 C 177.273438 118.378906 177.390625 118.746094 177.480469 119.121094 C 177.554688 119.496094 177.613281 119.878906 177.648438 120.257812 C 177.457031 119.527344 177.199219 118.816406 176.871094 118.136719 C 176.550781 117.464844 176.140625 116.835938 175.65625 116.269531 C 175.175781 115.699219 174.628906 115.1875 174.027344 114.746094 C 173.726562 114.519531 173.410156 114.316406 173.085938 114.128906 C 172.761719 113.933594 172.421875 113.757812 172.074219 113.605469 Z M 157.195312 127.789062 C 158.359375 128.664062 159.574219 129.460938 160.835938 130.183594 C 162.085938 130.914062 163.398438 131.527344 164.761719 132.015625 C 166.109375 132.527344 167.53125 132.816406 168.972656 132.867188 C 170.421875 132.917969 171.859375 132.597656 173.148438 131.929688 C 172.53125 132.328125 171.859375 132.632812 171.15625 132.84375 C 170.441406 133.039062 169.707031 133.140625 168.96875 133.148438 C 168.230469 133.160156 167.492188 133.085938 166.769531 132.9375 C 166.046875 132.796875 165.335938 132.601562 164.640625 132.355469 C 163.261719 131.847656 161.941406 131.199219 160.695312 130.417969 C 159.449219 129.65625 158.277344 128.773438 157.195312 127.789062 Z M 164.78125 126.300781 C 165.664062 126.53125 166.546875 126.753906 167.433594 126.949219 C 168.320312 127.136719 169.207031 127.3125 170.101562 127.433594 C 170.988281 127.566406 171.890625 127.613281 172.789062 127.574219 C 173.234375 127.558594 173.675781 127.480469 174.101562 127.34375 C 174.535156 127.222656 174.929688 126.992188 175.257812 126.679688 C 174.972656 127.050781 174.59375 127.335938 174.164062 127.511719 C 173.730469 127.683594 173.277344 127.800781 172.8125 127.851562 C 171.894531 127.949219 170.96875 127.929688 170.050781 127.792969 C 168.238281 127.523438 166.46875 127.023438 164.78125 126.300781 Z M 171.34375 120.273438 C 172.164062 120.226562 172.984375 120.398438 173.71875 120.769531 C 174.085938 120.949219 174.429688 121.183594 174.734375 121.464844 C 175.035156 121.742188 175.285156 122.074219 175.46875 122.441406 C 175.179688 122.167969 174.875 121.914062 174.554688 121.683594 C 174.238281 121.460938 173.90625 121.261719 173.554688 121.09375 C 172.847656 120.75 172.105469 120.476562 171.34375 120.273438 Z M 171.34375 120.273438 "/>
<path style=" stroke:none;fill-rule:nonzero;fill:rgb(77.64706%,90.980393%,95.686275%);fill-opacity:1;" d="M 137.875 133.148438 C 137.875 133.148438 149.398438 127.328125 162.78125 132.128906 C 171.453125 135.242188 178.066406 132 181.652344 129.332031 C 182.761719 128.511719 184.179688 128.226562 185.523438 128.550781 C 186.867188 128.878906 187.992188 129.789062 188.601562 131.027344 C 189.449219 132.851562 190.117188 134.75 190.597656 136.703125 C 193.132812 146.40625 136.035156 141.953125 136.035156 141.953125 C 136.035156 141.953125 132.8125 140.128906 137.875 133.148438 Z M 137.875 133.148438 "/>
<path style=" stroke:none;fill-rule:nonzero;fill:rgb(46.666667%,78.823531%,90.980393%);fill-opacity:1;" d="M 17.953125 117.378906 C 22.746094 108.792969 33.316406 107.148438 40.773438 105.988281 C 48.386719 104.804688 49.21875 106.402344 64.554688 106.441406 C 74.289062 106.46875 73.644531 105.820312 86.851562 105.53125 C 107.691406 105.074219 106.671875 106.738281 113.210938 105.167969 C 123.105469 102.789062 126.925781 98.613281 134.40625 100.496094 C 136.046875 100.910156 141.183594 102.203125 143.199219 106.320312 C 145.78125 111.597656 140.363281 115.65625 141.246094 122.5625 C 142.472656 132.125 154.210938 134.996094 153.3125 138.710938 C 152.253906 143.074219 135.34375 142.117188 109.703125 141.445312 C 76.058594 140.5625 59.234375 140.121094 55.71875 140.324219 C 34.25 141.550781 24.429688 144.578125 18.796875 138.027344 C 14.175781 132.652344 14.589844 123.402344 17.953125 117.378906 Z M 17.953125 117.378906 "/>
<path style=" stroke:none;fill-rule:nonzero;fill:rgb(77.64706%,90.980393%,95.686275%);fill-opacity:1;" d="M 19.925781 124.785156 L 19.433594 124.730469 C 19.460938 124.46875 19.492188 124.21875 19.523438 123.988281 L 20.015625 124.058594 C 19.980469 124.296875 19.949219 124.539062 19.925781 124.785156 Z M 127.734375 138.683594 C 127.425781 138.683594 127.121094 138.679688 126.820312 138.675781 L 126.824219 138.179688 C 127.125 138.183594 127.425781 138.1875 127.734375 138.1875 L 128.316406 138.183594 L 128.320312 138.679688 Z M 129.820312 138.652344 L 129.804688 138.160156 C 130.292969 138.144531 130.789062 138.128906 131.292969 138.105469 L 131.316406 138.597656 C 130.808594 138.621094 130.308594 138.640625 129.820312 138.652344 Z M 125.320312 138.644531 C 124.808594 138.628906 124.308594 138.609375 123.820312 138.585938 L 123.847656 138.089844 C 124.332031 138.113281 124.828125 138.132812 125.335938 138.148438 Z M 132.816406 138.511719 L 132.78125 138.019531 C 133.269531 137.988281 133.765625 137.949219 134.269531 137.90625 L 134.3125 138.398438 C 133.804688 138.441406 133.308594 138.480469 132.816406 138.511719 Z M 122.324219 138.5 C 121.808594 138.464844 121.3125 138.425781 120.828125 138.386719 L 120.871094 137.894531 C 121.351562 137.933594 121.847656 137.972656 122.355469 138.003906 Z M 135.804688 138.253906 L 135.75 137.761719 C 136.238281 137.710938 136.730469 137.652344 137.230469 137.589844 L 137.292969 138.082031 C 136.792969 138.144531 136.292969 138.203125 135.804688 138.253906 Z M 119.339844 138.253906 C 118.820312 138.203125 118.324219 138.148438 117.847656 138.097656 L 117.902344 137.605469 C 118.375 137.65625 118.867188 137.707031 119.386719 137.757812 Z M 116.359375 137.933594 L 115.457031 137.828125 C 115.269531 137.808594 115.078125 137.785156 114.878906 137.765625 L 114.929688 137.273438 C 115.128906 137.292969 115.324219 137.316406 115.511719 137.335938 L 116.417969 137.441406 Z M 138.777344 137.878906 L 138.707031 137.390625 C 139.027344 137.339844 139.351562 137.292969 139.679688 137.238281 L 140.179688 137.160156 L 140.261719 137.644531 L 139.757812 137.730469 C 139.429688 137.78125 139.101562 137.832031 138.777344 137.878906 Z M 113.394531 137.628906 C 112.929688 137.589844 112.433594 137.554688 111.90625 137.515625 L 111.941406 137.023438 C 112.46875 137.058594 112.96875 137.097656 113.433594 137.136719 Z M 110.417969 137.417969 C 109.945312 137.390625 109.449219 137.363281 108.929688 137.332031 L 108.957031 136.839844 C 109.476562 136.867188 109.972656 136.898438 110.449219 136.925781 Z M 141.738281 137.386719 L 141.648438 136.898438 C 142.167969 136.800781 142.652344 136.707031 143.109375 136.613281 L 143.210938 137.09375 C 142.753906 137.191406 142.261719 137.289062 141.738281 137.386719 Z M 107.4375 137.253906 C 106.957031 137.230469 106.460938 137.207031 105.945312 137.183594 L 105.96875 136.691406 C 106.484375 136.714844 106.980469 136.738281 107.460938 136.761719 Z M 104.453125 137.117188 L 102.960938 137.054688 L 102.980469 136.558594 L 104.472656 136.621094 Z M 101.46875 136.992188 L 99.972656 136.933594 L 99.992188 136.441406 L 101.488281 136.5 Z M 98.480469 136.878906 L 96.988281 136.824219 L 97.003906 136.332031 L 98.5 136.386719 Z M 95.492188 136.773438 L 94 136.71875 L 94.015625 136.222656 L 95.511719 136.277344 Z M 92.503906 136.667969 L 91.011719 136.617188 L 91.03125 136.121094 L 92.523438 136.171875 Z M 89.519531 136.566406 L 88.027344 136.515625 L 88.042969 136.019531 L 89.535156 136.070312 Z M 86.53125 136.464844 L 85.039062 136.414062 L 85.054688 135.917969 L 86.546875 135.96875 Z M 83.542969 136.363281 L 82.0625 136.316406 L 82.058594 136.066406 L 82.078125 135.820312 L 83.558594 135.871094 Z M 29.753906 136.277344 C 29.253906 136.277344 28.75 136.265625 28.25 136.242188 L 28.273438 135.75 C 28.726562 135.769531 29.210938 135.78125 29.753906 135.78125 Z M 80.554688 136.265625 L 79.0625 136.214844 L 79.078125 135.71875 L 80.570312 135.769531 Z M 31.257812 136.257812 L 31.242188 135.761719 C 31.726562 135.75 32.222656 135.734375 32.734375 135.71875 L 32.753906 136.210938 C 32.238281 136.230469 31.738281 136.246094 31.257812 136.257812 Z M 77.566406 136.164062 L 76.074219 136.113281 L 76.089844 135.621094 L 77.582031 135.667969 Z M 34.246094 136.160156 L 34.230469 135.664062 C 34.730469 135.648438 35.230469 135.632812 35.726562 135.625 L 35.738281 136.117188 C 35.242188 136.128906 34.742188 136.140625 34.246094 136.160156 Z M 46.199219 136.121094 L 46.199219 135.625 C 46.695312 135.625 47.195312 135.625 47.691406 135.621094 L 47.695312 136.113281 C 47.195312 136.117188 46.695312 136.121094 46.199219 136.121094 Z M 26.742188 136.117188 C 26.234375 136.058594 25.734375 135.964844 25.242188 135.839844 L 25.363281 135.359375 C 25.839844 135.480469 26.320312 135.566406 26.804688 135.628906 Z M 44.703125 136.117188 L 43.207031 136.109375 L 43.210938 135.613281 L 44.703125 135.621094 Z M 41.710938 136.097656 L 40.214844 136.089844 L 40.21875 135.59375 L 41.714844 135.601562 Z M 37.230469 136.097656 L 37.226562 135.601562 C 37.722656 135.597656 38.222656 135.59375 38.722656 135.59375 L 38.722656 136.085938 C 38.226562 136.089844 37.726562 136.089844 37.230469 136.097656 Z M 49.191406 136.09375 L 49.183594 135.597656 C 49.679688 135.589844 50.175781 135.578125 50.675781 135.5625 L 50.6875 136.058594 C 50.191406 136.074219 49.691406 136.085938 49.191406 136.09375 Z M 74.582031 136.066406 L 73.085938 136.019531 L 73.101562 135.523438 L 74.597656 135.570312 Z M 82.058594 136.066406 L 82.066406 135.820312 Z M 52.1875 136 L 52.164062 135.507812 C 52.660156 135.484375 53.15625 135.457031 53.652344 135.421875 L 53.683594 135.917969 C 53.1875 135.949219 52.6875 135.976562 52.1875 136 Z M 71.59375 135.972656 L 70.097656 135.929688 L 70.113281 135.433594 L 71.605469 135.476562 Z M 68.605469 135.886719 L 67.109375 135.84375 L 67.125 135.347656 L 68.617188 135.390625 Z M 55.171875 135.820312 L 55.148438 135.324219 C 55.617188 135.300781 56.113281 135.28125 56.648438 135.265625 L 56.660156 135.761719 C 56.132812 135.773438 55.636719 135.792969 55.171875 135.820312 Z M 65.617188 135.808594 C 65.101562 135.796875 64.605469 135.785156 64.121094 135.777344 L 64.132812 135.28125 C 64.613281 135.289062 65.113281 135.300781 65.628906 135.3125 Z M 62.628906 135.75 C 62.113281 135.742188 61.613281 135.738281 61.136719 135.730469 L 61.140625 135.238281 C 61.621094 135.242188 62.117188 135.246094 62.636719 135.253906 Z M 58.152344 135.730469 L 58.144531 135.238281 C 58.597656 135.230469 59.070312 135.230469 59.566406 135.230469 L 59.644531 135.230469 L 59.644531 135.722656 L 59.566406 135.722656 C 59.074219 135.722656 58.601562 135.726562 58.152344 135.730469 Z M 23.789062 135.332031 C 23.320312 135.113281 22.878906 134.84375 22.46875 134.53125 L 22.769531 134.140625 C 23.148438 134.433594 23.5625 134.679688 24 134.882812 Z M 21.355469 133.453125 C 21.027344 133.058594 20.742188 132.628906 20.5 132.171875 L 20.9375 131.9375 C 21.160156 132.363281 21.429688 132.765625 21.738281 133.136719 Z M 19.902344 130.757812 C 19.746094 130.273438 19.621094 129.777344 19.535156 129.273438 L 20.019531 129.1875 C 20.105469 129.664062 20.222656 130.140625 20.371094 130.601562 Z M 19.355469 127.761719 C 19.335938 127.421875 19.324219 127.082031 19.324219 126.746094 C 19.324219 126.574219 19.328125 126.40625 19.332031 126.242188 L 19.824219 126.257812 C 19.820312 126.417969 19.820312 126.578125 19.820312 126.746094 C 19.820312 127.066406 19.828125 127.394531 19.847656 127.730469 Z M 144.710938 136.769531 L 144.601562 136.289062 C 144.855469 136.230469 145.097656 136.171875 145.316406 136.121094 L 145.433594 136.601562 C 145.210938 136.65625 144.96875 136.710938 144.710938 136.769531 Z M 144.710938 136.769531 "/>
<path style=" stroke:none;fill-rule:nonzero;fill:rgb(37.254903%,69.01961%,80.784315%);fill-opacity:1;" d="M 100.363281 127.78125 L 99.867188 127.753906 C 100.585938 114.347656 112.523438 109.34375 112.644531 109.296875 L 112.828125 109.753906 C 112.710938 109.800781 101.0625 114.691406 100.363281 127.78125 Z M 29.480469 121.417969 L 29.164062 121.3125 C 31.839844 113.441406 41.199219 112.636719 41.296875 112.628906 L 41.320312 112.964844 C 41.226562 112.972656 32.082031 113.761719 29.480469 121.417969 Z M 58.980469 126.1875 L 58.507812 126.078125 C 61.175781 114.445312 74.707031 111.925781 74.84375 111.902344 L 74.925781 112.378906 C 74.792969 112.402344 61.574219 114.871094 58.980469 126.1875 Z M 58.980469 126.1875 "/>
<path style=" stroke:none;fill-rule:nonzero;fill:rgb(7.450981%,47.843137%,62.7451%);fill-opacity:1;" d="M 250.308594 211 L 1.992188 211 C 1.71875 211 1.5 210.777344 1.5 210.503906 C 1.5 210.230469 1.71875 210.011719 1.992188 210.011719 L 250.308594 210.011719 C 250.582031 210.011719 250.800781 210.230469 250.800781 210.503906 C 250.800781 210.777344 250.582031 211 250.308594 211 Z M 250.308594 211 "/>
</g>
</svg>
