<?xml version="1.0" encoding="UTF-8"?>
<svg xmlns="http://www.w3.org/2000/svg" xmlns:xlink="http://www.w3.org/1999/xlink" width="450px" height="324px" viewBox="0 0 449 324" version="1.1">
<defs>
<clipPath id="clip1">
  <path d="M 171.542969 196.015625 L 199 196.015625 L 199 215.617188 L 171.542969 215.617188 Z M 171.542969 196.015625 "/>
</clipPath>
<clipPath id="clip2">
  <path d="M 195.34375 196.683594 C 195.34375 196.683594 206.273438 250.523438 207.101562 270.671875 C 207.101562 270.671875 198.109375 281.910156 183.324219 275.144531 C 183.324219 275.144531 177.921875 216.527344 171.921875 200.242188 C 171.921875 200.242188 179.621094 191.96875 195.34375 196.683594 Z M 195.34375 196.683594 "/>
</clipPath>
<clipPath id="clip3">
  <path d="M 141 191.402344 L 170 191.402344 L 170 213.308594 L 141 213.308594 Z M 141 191.402344 "/>
</clipPath>
<clipPath id="clip4">
  <path d="M 169.773438 189.699219 C 169.773438 189.699219 166.226562 241.816406 162.105469 261.414062 C 162.105469 261.414062 152.832031 269.480469 137.558594 263.246094 C 137.558594 263.246094 147.933594 204.519531 146.210938 187.246094 C 146.210938 187.246094 155.742188 181.171875 169.773438 189.699219 Z M 169.773438 189.699219 "/>
</clipPath>
</defs>
<g id="surface1">
<path style=" stroke:none;fill-rule:evenodd;fill:rgb(88.235295%,91.764706%,93.333334%);fill-opacity:1;" d="M 300.085938 204.292969 L 244.664062 236.34375 L 313.316406 276.050781 L 346.890625 256.628906 C 348.011719 255.980469 348.800781 254.890625 349.082031 253.625 C 349.359375 252.355469 349.085938 251.03125 348.335938 249.976562 C 341.871094 240.859375 300.085938 204.292969 300.085938 204.292969 Z M 300.085938 204.292969 "/>
<path style=" stroke:none;fill-rule:evenodd;fill:rgb(47.058824%,74.901962%,85.490197%);fill-opacity:1;" d="M 185.507812 106.648438 L 315.355469 181.753906 L 315.355469 247.886719 L 185.507812 172.785156 Z M 185.507812 106.648438 "/>
<path style=" stroke:none;fill-rule:evenodd;fill:rgb(47.058824%,74.901962%,85.490197%);fill-opacity:1;" d="M 265.132812 82.261719 C 268.34375 81.964844 271.683594 82.589844 273.167969 85.457031 C 290.84375 119.597656 299.5625 142.546875 315.351562 181.75 L 185.5 106.648438 C 208.765625 94.34375 239.453125 84.691406 265.132812 82.261719 Z M 265.132812 82.261719 "/>
<path style=" stroke:none;fill-rule:evenodd;fill:rgb(88.235295%,91.764706%,93.333334%);fill-opacity:1;" d="M 317.59375 96.398438 C 324.632812 100.460938 327.039062 116.84375 319.804688 124.144531 L 288.003906 108.796875 C 288.003906 108.796875 285.851562 97.148438 296.675781 94.269531 C 307.5 91.394531 310.542969 92.339844 317.59375 96.398438 Z M 317.59375 96.398438 "/>
<path style=" stroke:none;fill-rule:evenodd;fill:rgb(94.901961%,96.470588%,96.862745%);fill-opacity:1;" d="M 317.597656 96.398438 L 225.324219 43.03125 C 216.328125 42.355469 211.664062 51.414062 209.734375 61.140625 C 199.726562 111.6875 201.808594 167.042969 201.738281 194.992188 L 294.011719 248.359375 C 295.09375 211.121094 292.527344 159.578125 303.164062 110.234375 C 304.914062 102.128906 308.589844 94.816406 317.597656 96.398438 Z M 317.597656 96.398438 "/>
<path style=" stroke:none;fill-rule:evenodd;fill:rgb(88.235295%,91.764706%,93.333334%);fill-opacity:1;" d="M 285.644531 133.769531 C 282.777344 159.417969 282.554688 185.261719 282.855469 211.039062 C 282.859375 211.449219 282.535156 211.683594 282.144531 211.472656 C 259.0625 198.996094 236.425781 185.769531 213.332031 173.304688 C 212.925781 173.085938 212.613281 172.585938 212.609375 172.125 C 212.460938 146.835938 212.257812 121.511719 214.539062 96.292969 C 214.574219 95.875 214.925781 95.570312 215.351562 95.792969 C 238.613281 107.960938 261.753906 120.339844 285.011719 132.511719 C 285.449219 132.738281 285.699219 133.300781 285.644531 133.769531 Z M 284.082031 133.878906 C 261.328125 121.964844 238.683594 109.851562 215.925781 97.945312 C 213.738281 122.613281 213.894531 147.375 214.042969 172.113281 C 236.640625 184.3125 258.816406 197.222656 281.402344 209.433594 C 281.121094 184.230469 281.355469 158.96875 284.082031 133.878906 Z M 284.082031 133.878906 "/>
<path style=" stroke:none;fill-rule:evenodd;fill:rgb(88.235295%,91.764706%,93.333334%);fill-opacity:1;" d="M 282.855469 211.039062 C 282.894531 214.625 282.949219 218.214844 283.003906 221.800781 C 283.003906 221.933594 283 222.089844 282.855469 222.214844 C 282.835938 222.226562 282.816406 222.246094 282.789062 222.257812 C 282.769531 222.273438 282.746094 222.28125 282.726562 222.285156 C 282.558594 222.335938 282.382812 222.257812 282.292969 222.214844 C 273.542969 217.441406 264.984375 212.621094 256.464844 207.789062 C 256.25 207.667969 256.125 207.515625 256.019531 207.375 C 255.835938 207.117188 255.734375 206.851562 255.730469 206.585938 C 255.691406 203.058594 255.65625 199.53125 255.621094 196 C 255.621094 195.871094 255.628906 195.722656 255.761719 195.59375 C 255.777344 195.578125 255.804688 195.558594 255.832031 195.542969 C 255.855469 195.53125 255.871094 195.523438 255.898438 195.515625 C 256.070312 195.464844 256.25 195.546875 256.339844 195.59375 C 264.851562 200.359375 273.402344 205.113281 282.121094 209.824219 C 282.34375 209.945312 282.464844 210.09375 282.5625 210.230469 C 282.753906 210.496094 282.851562 210.769531 282.855469 211.039062 Z M 281.421875 211.085938 C 273.195312 206.628906 265.117188 202.136719 257.082031 197.632812 C 257.101562 199.675781 257.121094 201.726562 257.144531 203.773438 C 257.152344 204.453125 257.160156 205.128906 257.167969 205.804688 C 257.167969 205.941406 257.171875 206.078125 257.171875 206.210938 C 257.171875 206.347656 257.300781 206.484375 257.175781 206.613281 C 265.21875 211.164062 273.300781 215.707031 281.546875 220.207031 C 281.503906 217.164062 281.460938 214.125 281.421875 211.085938 Z M 281.421875 211.085938 "/>
<path style=" stroke:none;fill-rule:evenodd;fill:rgb(88.235295%,91.764706%,93.333334%);fill-opacity:1;" d="M 237.753906 108.507812 C 236.476562 121.582031 235.832031 135.152344 235.582031 148.761719 C 235.355469 160.742188 235.429688 172.742188 235.519531 184.730469 C 235.523438 184.984375 235.421875 185.097656 235.355469 185.152344 C 235.175781 185.289062 234.976562 185.226562 234.796875 185.128906 C 227.648438 181.128906 220.492188 177.167969 213.332031 173.304688 C 213.132812 173.203125 212.925781 173.015625 212.753906 172.679688 C 212.695312 172.5625 212.609375 172.367188 212.609375 172.125 C 212.53125 159.828125 212.429688 147.523438 212.628906 135.234375 C 212.835938 122.09375 213.386719 108.984375 214.535156 96.292969 C 214.5625 96.039062 214.65625 95.914062 214.726562 95.839844 C 214.925781 95.65625 215.148438 95.6875 215.347656 95.792969 C 222.601562 99.589844 229.855469 103.410156 237.105469 107.242188 C 237.292969 107.339844 237.496094 107.515625 237.648438 107.878906 C 237.707031 108.023438 237.777344 108.253906 237.753906 108.507812 Z M 236.203125 108.609375 C 229.441406 105.042969 222.683594 101.480469 215.917969 97.945312 C 215.054688 107.6875 214.535156 117.683594 214.253906 127.738281 C 214 136.898438 213.941406 146.097656 213.957031 155.28125 C 213.96875 159.707031 213.996094 164.136719 214.023438 168.558594 C 214.027344 169.351562 214.03125 170.140625 214.035156 170.929688 C 214.039062 171.324219 213.917969 172.019531 214.042969 172.113281 C 220.71875 175.714844 227.390625 179.402344 234.0625 183.121094 C 233.976562 171.191406 233.90625 159.253906 234.136719 147.339844 C 234.390625 134.253906 235.003906 121.210938 236.203125 108.609375 Z M 236.203125 108.609375 "/>
<path style=" stroke:none;fill-rule:evenodd;fill:rgb(88.235295%,91.764706%,93.333334%);fill-opacity:1;" d="M 259.527344 120.023438 C 258.171875 133.109375 257.460938 146.742188 257.160156 160.429688 C 256.898438 172.539062 256.953125 184.6875 257.070312 196.816406 C 257.074219 197.066406 256.972656 197.183594 256.910156 197.238281 C 256.730469 197.382812 256.535156 197.320312 256.355469 197.222656 C 249.167969 193.195312 241.984375 189.140625 234.796875 185.128906 C 234.601562 185.015625 234.390625 184.832031 234.21875 184.480469 C 234.15625 184.363281 234.070312 184.167969 234.070312 183.921875 C 233.980469 171.945312 233.90625 159.949219 234.128906 147.980469 C 234.378906 134.371094 235.015625 120.804688 236.289062 107.730469 C 236.308594 107.480469 236.410156 107.351562 236.484375 107.28125 C 236.683594 107.097656 236.902344 107.132812 237.105469 107.242188 C 244.367188 111.074219 251.628906 114.914062 258.886719 118.757812 C 259.074219 118.855469 259.277344 119.027344 259.429688 119.398438 C 259.488281 119.539062 259.554688 119.769531 259.527344 120.023438 Z M 257.972656 120.125 C 251.203125 116.546875 244.4375 112.960938 237.667969 109.382812 C 236.46875 121.988281 235.851562 135.03125 235.59375 148.125 C 235.359375 160.046875 235.421875 171.996094 235.511719 183.929688 C 242.214844 187.667969 248.910156 191.4375 255.613281 195.191406 C 255.496094 183.125 255.449219 171.039062 255.71875 158.996094 C 256.015625 145.835938 256.699219 132.738281 257.972656 120.125 Z M 257.972656 120.125 "/>
<path style=" stroke:none;fill-rule:evenodd;fill:rgb(88.235295%,91.764706%,93.333334%);fill-opacity:1;" d="M 285.644531 133.769531 C 285.214844 137.617188 284.847656 141.460938 284.527344 145.308594 C 284.515625 145.457031 284.496094 145.605469 284.339844 145.753906 C 284.308594 145.789062 284.269531 145.820312 284.179688 145.851562 C 284.15625 145.863281 284.109375 145.878906 284.035156 145.878906 C 283.972656 145.878906 283.921875 145.871094 283.894531 145.867188 C 283.8125 145.84375 283.769531 145.820312 283.726562 145.800781 C 260.371094 133.589844 237.699219 121.351562 214.328125 109.140625 C 214.03125 108.984375 213.945312 108.816406 213.851562 108.65625 C 213.703125 108.398438 213.640625 108.140625 213.652344 107.882812 C 213.894531 104.019531 214.1875 100.15625 214.539062 96.296875 C 214.550781 96.140625 214.574219 95.988281 214.730469 95.839844 C 214.769531 95.808594 214.804688 95.773438 214.898438 95.742188 C 214.921875 95.734375 214.964844 95.714844 215.042969 95.714844 C 215.109375 95.714844 215.15625 95.722656 215.1875 95.726562 C 215.265625 95.75 215.3125 95.773438 215.351562 95.796875 C 238.734375 108.027344 261.636719 120.28125 285.011719 132.511719 C 285.3125 132.671875 285.390625 132.835938 285.476562 133 C 285.617188 133.253906 285.675781 133.511719 285.644531 133.769531 Z M 284.082031 133.878906 C 261.210938 121.90625 238.804688 109.914062 215.925781 97.945312 C 215.632812 101.21875 215.382812 104.492188 215.167969 107.773438 C 238.042969 119.726562 260.285156 131.710938 283.144531 143.667969 C 283.417969 140.402344 283.726562 137.140625 284.082031 133.878906 Z M 284.082031 133.878906 "/>
<path style=" stroke:none;fill-rule:nonzero;fill:rgb(6.27451%,19.607843%,24.313726%);fill-opacity:1;" d="M 231.582031 91.855469 C 231.960938 88.976562 232.371094 86.113281 232.824219 83.253906 C 233.304688 83.507812 233.792969 83.765625 234.273438 84.023438 C 233.824219 86.878906 233.410156 89.746094 233.03125 92.617188 C 232.550781 92.359375 232.070312 92.105469 231.582031 91.855469 Z M 234.425781 93.351562 C 234.804688 90.480469 235.21875 87.617188 235.671875 84.761719 C 236.144531 85.007812 236.609375 85.257812 237.082031 85.511719 C 237.757812 87.941406 238.449219 90.367188 239.160156 92.792969 C 239.429688 90.886719 239.71875 88.976562 240.023438 87.066406 C 240.472656 87.304688 240.921875 87.542969 241.375 87.777344 C 240.914062 90.632812 240.496094 93.492188 240.109375 96.355469 C 239.628906 96.097656 239.144531 95.84375 238.660156 95.589844 C 237.945312 93.214844 237.246094 90.839844 236.558594 88.457031 C 236.277344 90.328125 236.015625 92.191406 235.769531 94.0625 C 235.320312 93.828125 234.875 93.589844 234.425781 93.351562 Z M 243.472656 98.128906 C 243 94.832031 242.566406 91.519531 242.167969 88.207031 C 242.695312 88.484375 243.21875 88.761719 243.742188 89.039062 C 244.007812 91.476562 244.296875 93.910156 244.601562 96.339844 C 245.488281 94.53125 246.398438 92.726562 247.324219 90.9375 C 247.835938 91.207031 248.347656 91.480469 248.859375 91.753906 C 247.546875 94.132812 246.265625 96.535156 245.015625 98.949219 C 244.503906 98.679688 243.988281 98.402344 243.472656 98.128906 Z M 248.632812 96.316406 C 248.734375 95.621094 248.90625 94.894531 249.292969 94.296875 C 249.511719 93.960938 249.804688 93.679688 250.148438 93.476562 C 250.472656 93.296875 250.832031 93.1875 251.203125 93.203125 C 251.765625 93.214844 252.316406 93.421875 252.804688 93.6875 C 253.851562 94.242188 254.667969 95.125 255.15625 96.199219 C 255.691406 97.382812 255.792969 98.691406 255.601562 99.960938 C 255.449219 100.972656 255.113281 102.136719 254.1875 102.699219 C 253.332031 103.214844 252.328125 102.976562 251.496094 102.535156 C 250.449219 101.976562 249.621094 101.101562 249.113281 100.023438 C 248.570312 98.867188 248.441406 97.574219 248.632812 96.316406 Z M 250.132812 97.046875 C 250.007812 97.886719 250.035156 98.769531 250.375 99.550781 C 250.648438 100.179688 251.085938 100.730469 251.699219 101.054688 C 252.183594 101.3125 252.746094 101.390625 253.222656 101.066406 C 253.828125 100.652344 254.007812 99.796875 254.109375 99.128906 C 254.230469 98.304688 254.234375 97.425781 253.90625 96.652344 C 253.636719 96.019531 253.191406 95.488281 252.582031 95.164062 C 252.089844 94.902344 251.511719 94.804688 251.019531 95.132812 C 250.417969 95.535156 250.234375 96.382812 250.132812 97.046875 Z M 256.070312 104.792969 C 256.464844 101.945312 256.898438 99.097656 257.367188 96.257812 C 257.851562 96.515625 258.332031 96.773438 258.816406 97.03125 C 258.347656 99.871094 257.914062 102.714844 257.519531 105.566406 C 257.039062 105.308594 256.550781 105.050781 256.070312 104.792969 Z M 263.941406 105.582031 C 264.382812 106.007812 264.828125 106.429688 265.265625 106.859375 C 264.992188 107.480469 264.574219 108.132812 263.890625 108.355469 C 263.214844 108.582031 262.492188 108.347656 261.890625 108.027344 C 260.898438 107.507812 260.167969 106.636719 259.703125 105.628906 C 259.183594 104.480469 259.066406 103.203125 259.253906 101.964844 C 259.410156 100.933594 259.753906 99.726562 260.703125 99.152344 C 261.535156 98.636719 262.511719 98.832031 263.332031 99.265625 C 264.195312 99.722656 264.886719 100.445312 265.320312 101.320312 C 265.621094 101.929688 265.753906 102.605469 265.796875 103.277344 C 265.296875 103.160156 264.800781 103.042969 264.300781 102.925781 C 264.285156 102.460938 264.164062 102.003906 263.9375 101.597656 C 263.714844 101.21875 263.40625 100.898438 263.015625 100.691406 C 262.5625 100.457031 262.046875 100.390625 261.609375 100.6875 C 261.027344 101.085938 260.863281 101.980469 260.765625 102.625 C 260.640625 103.464844 260.582031 104.394531 260.914062 105.191406 C 261.148438 105.761719 261.535156 106.257812 262.082031 106.550781 C 262.410156 106.722656 262.792969 106.792969 263.140625 106.636719 C 263.558594 106.453125 263.789062 105.988281 263.941406 105.582031 Z M 266.128906 110.117188 C 266.53125 107.277344 266.972656 104.433594 267.449219 101.605469 C 269.222656 102.546875 271 103.488281 272.777344 104.429688 C 272.695312 104.90625 272.617188 105.382812 272.535156 105.863281 C 271.242188 105.175781 269.953125 104.496094 268.664062 103.8125 C 268.558594 104.433594 268.457031 105.066406 268.355469 105.695312 C 269.558594 106.332031 270.757812 106.964844 271.957031 107.601562 C 271.882812 108.078125 271.808594 108.554688 271.734375 109.03125 C 270.535156 108.398438 269.332031 107.761719 268.132812 107.128906 C 268.015625 107.898438 267.898438 108.671875 267.785156 109.449219 C 269.121094 110.148438 270.457031 110.855469 271.792969 111.558594 C 271.71875 112.035156 271.652344 112.519531 271.582031 112.996094 C 269.765625 112.035156 267.949219 111.074219 266.128906 110.117188 Z M 266.128906 110.117188 "/>
<path style=" stroke:none;fill-rule:evenodd;fill:rgb(67.058825%,80.784315%,85.882354%);fill-opacity:1;" d="M 185.707031 106.773438 C 185.707031 106.773438 230.347656 179.066406 242.429688 198.636719 C 244.183594 201.480469 247.640625 202.777344 250.832031 201.785156 C 267.253906 196.683594 315.34375 181.746094 315.34375 181.746094 C 315.34375 181.886719 317.632812 266.660156 317.632812 266.660156 C 317.632812 272.074219 310.683594 275.589844 307.824219 274.476562 C 295.464844 269.648438 262.421875 252.515625 241.003906 239.957031 C 224.207031 230.105469 200.9375 215.804688 191.65625 208.117188 C 187.585938 204.742188 185.324219 199.230469 185.324219 193.8125 L 185.5 108.964844 C 185.5 108.167969 185.574219 107.433594 185.707031 106.773438 Z M 185.707031 106.773438 "/>
<path style=" stroke:none;fill-rule:evenodd;fill:rgb(88.235295%,91.764706%,93.333334%);fill-opacity:1;" d="M 144.753906 269.703125 C 157.230469 261.699219 167.59375 261.421875 180.226562 270.90625 C 189.898438 278.167969 207.875 271.972656 209.226562 279.402344 C 213.351562 302.011719 181.328125 289.851562 167.871094 282.066406 C 154.421875 274.289062 133.410156 276.984375 144.753906 269.703125 Z M 144.753906 269.703125 "/>
<path style=" stroke:none;fill-rule:evenodd;fill:rgb(6.27451%,19.607843%,24.313726%);fill-opacity:1;" d="M 191.980469 271.121094 C 191.980469 271.121094 205.71875 270.492188 211.382812 268.761719 C 217.046875 267.039062 218.921875 273.058594 211.964844 277.710938 C 205.003906 282.371094 196.1875 285.144531 193.828125 282.734375 C 191.472656 280.324219 191.980469 271.121094 191.980469 271.121094 Z M 191.980469 271.121094 "/>
<path style=" stroke:none;fill-rule:evenodd;fill:rgb(29.411766%,70.980394%,86.274511%);fill-opacity:1;" d="M 195.34375 196.683594 C 195.34375 196.683594 206.273438 250.523438 207.101562 270.671875 C 207.101562 270.671875 198.109375 281.910156 183.324219 275.144531 C 183.324219 275.144531 177.921875 216.527344 171.921875 200.242188 C 171.921875 200.242188 179.621094 191.96875 195.34375 196.683594 Z M 195.34375 196.683594 "/>
<g clip-path="url(#clip1)" clip-rule="nonzero">
<g clip-path="url(#clip2)" clip-rule="evenodd">
<path style=" stroke:none;fill-rule:evenodd;fill:rgb(6.27451%,19.607843%,24.313726%);fill-opacity:1;" d="M 196.941406 196.171875 L 198.089844 203.566406 C 198.089844 203.566406 187.609375 220.082031 173.371094 214.363281 L 171.921875 205.050781 Z M 196.941406 196.171875 "/>
</g>
</g>
<path style=" stroke:none;fill-rule:evenodd;fill:rgb(6.27451%,19.607843%,24.313726%);fill-opacity:1;" d="M 144.1875 261.914062 C 144.1875 261.914062 157.230469 262.972656 162.785156 261.988281 C 168.34375 261.007812 169.375 267.050781 162.226562 270.707031 C 155.085938 274.363281 146.417969 275.972656 144.496094 273.355469 C 142.570312 270.738281 144.1875 261.914062 144.1875 261.914062 Z M 144.1875 261.914062 "/>
<path style=" stroke:none;fill-rule:evenodd;fill:rgb(29.411766%,70.980394%,86.274511%);fill-opacity:1;" d="M 169.773438 189.699219 C 169.773438 189.699219 166.226562 241.816406 162.105469 261.414062 C 162.105469 261.414062 152.832031 269.480469 137.558594 263.246094 C 137.558594 263.246094 147.933594 204.519531 146.210938 187.246094 C 146.210938 187.246094 155.742188 181.171875 169.773438 189.699219 Z M 169.773438 189.699219 "/>
<g clip-path="url(#clip3)" clip-rule="nonzero">
<g clip-path="url(#clip4)" clip-rule="evenodd">
<path style=" stroke:none;fill-rule:evenodd;fill:rgb(6.27451%,19.607843%,24.313726%);fill-opacity:1;" d="M 170.761719 197.484375 L 171.921875 205.109375 C 171.921875 205.109375 157.105469 222.78125 141.511719 205.992188 L 145.007812 191.898438 Z M 170.761719 197.484375 "/>
</g>
</g>
<path style=" stroke:none;fill-rule:evenodd;fill:rgb(47.058824%,74.901962%,85.490197%);fill-opacity:1;" d="M 187.277344 140.902344 C 193.257812 142.917969 195.398438 149.890625 197.441406 156.890625 C 199.042969 162.390625 197.234375 173.796875 197.234375 173.796875 L 207.839844 194.199219 C 207.839844 194.199219 172.691406 219.335938 140.074219 195.882812 L 144.691406 172.542969 L 145.542969 140.984375 C 145.542969 140.984375 179.519531 138.289062 187.277344 140.902344 Z M 187.277344 140.902344 "/>
<path style=" stroke:none;fill-rule:evenodd;fill:rgb(6.27451%,19.607843%,24.313726%);fill-opacity:1;" d="M 227.148438 159.085938 C 227.148438 159.085938 243.085938 151.433594 246.023438 149.835938 C 247.589844 148.980469 249.800781 147.101562 249.453125 146.230469 C 249.148438 145.476562 246.285156 145.925781 245.046875 146.425781 C 243.257812 147.144531 225.789062 155.976562 225.789062 155.976562 C 225.789062 155.976562 223.066406 158.621094 227.148438 159.085938 Z M 227.148438 159.085938 "/>
<path style=" stroke:none;fill-rule:evenodd;fill:rgb(52.941179%,86.666667%,99.215686%);fill-opacity:1;" d="M 236.917969 166.035156 C 236.917969 166.035156 230.714844 165.71875 228.71875 160.597656 C 228.71875 160.597656 229.738281 153.710938 233.203125 150.148438 C 234.339844 148.984375 237.292969 146.996094 241.0625 148.261719 C 242.339844 148.691406 241.769531 151.105469 241.769531 151.105469 C 241.769531 151.105469 243.285156 152.410156 244.570312 153.730469 C 246.863281 156.101562 243.636719 159.148438 243.636719 159.148438 C 243.636719 159.148438 245.417969 162.355469 241.679688 163.179688 C 241.679688 163.179688 241.15625 165.566406 236.917969 166.035156 Z M 236.917969 166.035156 "/>
<path style=" stroke:none;fill-rule:evenodd;fill:rgb(6.27451%,19.607843%,24.313726%);fill-opacity:1;" d="M 198.824219 177.019531 C 198.824219 177.019531 192.402344 169.882812 189.976562 166.503906 C 188.023438 163.789062 184.640625 158.664062 183.695312 156.164062 C 183.695312 156.164062 179.617188 168.523438 186.332031 175.371094 C 195.238281 184.457031 198.824219 177.019531 198.824219 177.019531 Z M 198.824219 177.019531 "/>
<path style=" stroke:none;fill-rule:evenodd;fill:rgb(47.058824%,74.901962%,85.490197%);fill-opacity:1;" d="M 191.664062 143.996094 C 191.664062 143.996094 201.929688 156.722656 207 161.375 C 209.527344 163.695312 222.171875 162.621094 229.511719 157.082031 C 229.511719 157.082031 236.90625 157.949219 238.222656 166.183594 C 239.046875 171.382812 237.765625 177.695312 228.421875 180.359375 C 228.421875 180.359375 216.910156 185.554688 202.671875 180.011719 C 192.757812 176.152344 185.40625 163.96875 180.199219 153.542969 C 180.199219 153.542969 183.109375 143.828125 191.664062 143.996094 Z M 191.664062 143.996094 "/>
<path style=" stroke:none;fill-rule:evenodd;fill:rgb(52.941179%,86.666667%,99.215686%);fill-opacity:1;" d="M 194.347656 120.164062 C 192.582031 109.222656 182.304688 101.785156 171.378906 103.550781 C 160.460938 105.316406 153.035156 115.617188 154.796875 126.558594 C 156.5625 137.5 166.839844 144.933594 177.765625 143.167969 C 188.683594 141.402344 196.109375 131.101562 194.347656 120.164062 Z M 194.347656 120.164062 "/>
<path style=" stroke:none;fill-rule:evenodd;fill:rgb(52.941179%,86.666667%,99.215686%);fill-opacity:1;" d="M 191.109375 117.839844 C 191.109375 117.839844 194.46875 115.25 196.492188 116.566406 C 198.511719 117.882812 193.074219 123.703125 193.074219 123.703125 Z M 191.109375 117.839844 "/>
<path style=" stroke:none;fill-rule:evenodd;fill:rgb(6.27451%,19.607843%,24.313726%);fill-opacity:1;" d="M 145.125 110.527344 C 145.125 110.527344 141.171875 113.269531 140.472656 119.589844 C 139.777344 125.910156 138.714844 131.6875 133.625 133.085938 C 128.539062 134.484375 124.589844 143.066406 127.933594 148.285156 C 127.933594 148.285156 118.617188 150.414062 121.257812 162.019531 C 123.898438 173.621094 134.632812 173.859375 139.824219 170.695312 C 139.824219 170.695312 146.667969 181.066406 156.78125 173.429688 C 156.78125 173.429688 172.066406 176.53125 173.882812 165.152344 C 173.882812 165.152344 187.816406 160.078125 180.902344 149.066406 C 180.902344 149.066406 187.765625 143.3125 182.460938 136.242188 C 177.152344 129.164062 177.988281 125.289062 177.988281 125.289062 C 177.988281 125.289062 182.191406 121.472656 180.386719 115.445312 C 180.386719 115.445312 192.832031 107.367188 187.820312 98.128906 C 182.804688 88.886719 170.347656 88.015625 167.226562 98.304688 C 164.621094 93.414062 147.320312 94.714844 145.125 110.527344 Z M 145.125 110.527344 "/>
<path style=" stroke:none;fill-rule:evenodd;fill:rgb(52.941179%,86.666667%,99.215686%);fill-opacity:1;" d="M 216.253906 260.683594 L 258.894531 236.019531 L 293.714844 256.160156 L 251.074219 280.820312 Z M 216.253906 260.683594 "/>
<path style=" stroke:none;fill-rule:evenodd;fill:rgb(3.137255%,65.098041%,87.843138%);fill-opacity:1;" d="M 251.074219 280.824219 L 293.710938 256.164062 L 293.710938 287.09375 L 251.074219 311.753906 Z M 251.074219 280.824219 "/>
<path style=" stroke:none;fill-rule:evenodd;fill:rgb(3.137255%,65.098041%,87.843138%);fill-opacity:1;" d="M 216.253906 260.679688 L 251.074219 280.820312 L 251.074219 311.746094 L 216.253906 291.605469 Z M 216.253906 260.679688 "/>
<path style=" stroke:none;fill-rule:evenodd;fill:rgb(88.235295%,91.764706%,93.333334%);fill-opacity:1;" d="M 230.039062 268.65625 L 237.285156 272.84375 L 237.285156 286.96875 L 230.039062 282.78125 Z M 230.039062 268.65625 "/>
<path style=" stroke:none;fill-rule:evenodd;fill:rgb(94.901961%,96.470588%,96.862745%);fill-opacity:1;" d="M 230.144531 268.714844 L 272.78125 244.054688 L 279.929688 248.183594 L 237.285156 272.847656 Z M 230.144531 268.714844 "/>
<path style=" stroke:none;fill-rule:evenodd;fill:rgb(88.235295%,91.764706%,93.333334%);fill-opacity:1;" d="M 324.882812 289.269531 C 324.882812 286.242188 319.140625 283.789062 312.054688 283.789062 C 304.96875 283.789062 299.226562 286.242188 299.226562 289.269531 C 299.226562 292.296875 304.96875 294.75 312.054688 294.75 C 319.140625 294.75 324.882812 292.296875 324.882812 289.269531 Z M 324.882812 289.269531 "/>
<path style=" stroke:none;fill-rule:evenodd;fill:rgb(88.235295%,91.764706%,93.333334%);fill-opacity:1;" d="M 344.488281 293.246094 C 344.488281 289.480469 336.742188 286.425781 327.179688 286.425781 C 317.625 286.425781 309.875 289.480469 309.875 293.246094 C 309.875 297.011719 317.625 300.066406 327.179688 300.066406 C 336.742188 300.066406 344.488281 297.011719 344.488281 293.246094 Z M 344.488281 293.246094 "/>
<path style=" stroke:none;fill-rule:evenodd;fill:rgb(29.411766%,70.980394%,86.274511%);fill-opacity:1;" d="M 293.683594 286.617188 C 289.238281 280.710938 275.589844 267.800781 280.429688 258.074219 C 284.910156 249.074219 295.171875 258.105469 298.660156 266.464844 C 298.660156 266.464844 286 230.140625 298.402344 226.90625 C 310.808594 223.679688 311.359375 248.820312 311.152344 259.355469 C 311.152344 259.355469 318.046875 237.175781 327.078125 242.816406 C 336.105469 248.457031 317.527344 284.699219 317.527344 284.699219 C 316.464844 288 312.554688 292.394531 307.128906 293.519531 C 302.640625 294.453125 296.71875 290.644531 293.683594 286.617188 Z M 293.683594 286.617188 "/>
<path style=" stroke:none;fill-rule:evenodd;fill:rgb(94.901961%,96.470588%,96.862745%);fill-opacity:1;" d="M 300.8125 235.78125 C 300.761719 235.425781 301.015625 235.09375 301.371094 235.046875 C 301.730469 234.996094 302.058594 235.25 302.109375 235.605469 C 302.109375 235.605469 307.730469 277.148438 306.988281 293.898438 C 306.96875 294.261719 306.667969 294.542969 306.304688 294.527344 C 305.945312 294.507812 305.664062 294.207031 305.683594 293.839844 C 306.421875 277.160156 300.8125 235.78125 300.8125 235.78125 Z M 300.8125 235.78125 "/>
<path style=" stroke:none;fill-rule:evenodd;fill:rgb(94.901961%,96.470588%,96.862745%);fill-opacity:1;" d="M 289.953125 266.871094 C 289.808594 266.539062 289.960938 266.15625 290.289062 266.011719 C 290.621094 265.867188 291.007812 266.015625 291.152344 266.347656 C 291.152344 266.347656 293.617188 272 297.492188 276.972656 C 300.015625 280.210938 303.132812 283.179688 306.574219 283.996094 C 306.925781 284.078125 307.144531 284.433594 307.058594 284.785156 C 306.980469 285.136719 306.628906 285.351562 306.277344 285.269531 C 302.570312 284.390625 299.179688 281.261719 296.464844 277.78125 C 292.484375 272.671875 289.953125 266.871094 289.953125 266.871094 Z M 306.457031 276.328125 C 306.152344 276.523438 305.746094 276.4375 305.554688 276.136719 C 305.355469 275.835938 305.441406 275.429688 305.746094 275.230469 C 305.746094 275.230469 318.328125 267.070312 321.386719 255.144531 C 321.476562 254.792969 321.832031 254.578125 322.183594 254.667969 C 322.535156 254.761719 322.746094 255.121094 322.65625 255.46875 C 319.480469 267.839844 306.457031 276.328125 306.457031 276.328125 Z M 306.457031 276.328125 "/>
<path style=" stroke:none;fill-rule:evenodd;fill:rgb(6.27451%,19.607843%,24.313726%);fill-opacity:1;" d="M 324.507812 277.644531 C 332.242188 277.558594 330.113281 282.910156 334.976562 286.0625 C 339.433594 288.949219 339.335938 295.261719 332.191406 296.566406 C 325.042969 297.867188 318.980469 297.660156 314.039062 296.164062 C 305.125 293.457031 306.902344 287.09375 312.601562 285.234375 C 317.320312 283.699219 318.769531 277.707031 324.507812 277.644531 Z M 324.507812 277.644531 "/>
<path style=" stroke:none;fill-rule:evenodd;fill:rgb(88.235295%,91.764706%,93.333334%);fill-opacity:1;" d="M 328.316406 283.285156 C 328.316406 282.328125 327.523438 281.558594 326.53125 281.558594 C 325.546875 281.558594 324.75 282.328125 324.75 283.285156 C 324.75 284.234375 325.546875 285.003906 326.53125 285.003906 C 327.523438 285.003906 328.316406 284.234375 328.316406 283.285156 Z M 328.316406 283.285156 "/>
<path style=" stroke:none;fill-rule:evenodd;fill:rgb(88.235295%,91.764706%,93.333334%);fill-opacity:1;" d="M 330.117188 286.226562 C 330.117188 285.769531 329.714844 285.402344 329.222656 285.402344 C 328.722656 285.402344 328.320312 285.769531 328.320312 286.226562 C 328.320312 286.683594 328.722656 287.050781 329.222656 287.050781 C 329.714844 287.050781 330.117188 286.683594 330.117188 286.226562 Z M 330.117188 286.226562 "/>
<path style=" stroke:none;fill-rule:evenodd;fill:rgb(6.27451%,19.607843%,24.313726%);fill-opacity:1;" d="M 279.863281 132.191406 L 278.597656 129.988281 L 284.398438 126.632812 L 284.402344 126.644531 C 287.558594 124.996094 291.828125 125.332031 296.523438 128.054688 C 306.238281 133.667969 314.128906 147.351562 314.128906 158.59375 C 314.128906 164.210938 312.15625 168.15625 308.972656 170 L 303.394531 173.226562 L 302.082031 170.949219 C 300.335938 170.613281 298.464844 169.894531 296.523438 168.773438 C 290.660156 165.382812 294.140625 155.179688 290.941406 148.222656 C 288.839844 143.652344 278.921875 142.6875 278.921875 138.230469 C 278.921875 135.925781 279.253906 133.902344 279.863281 132.191406 Z M 279.863281 132.191406 "/>
<path style=" stroke:none;fill-rule:evenodd;fill:rgb(29.411766%,70.980394%,86.274511%);fill-opacity:1;" d="M 273.339844 141.464844 C 273.339844 152.710938 281.21875 166.386719 290.941406 172.007812 C 300.660156 177.632812 308.542969 173.074219 308.542969 161.828125 C 308.542969 150.582031 300.660156 136.90625 290.941406 131.289062 C 281.21875 125.667969 273.339844 130.222656 273.339844 141.464844 Z M 273.339844 141.464844 "/>
<path style=" stroke:none;fill-rule:evenodd;fill:rgb(94.901961%,96.470588%,96.862745%);fill-opacity:1;" d="M 281.625 148.789062 C 280.734375 147.246094 280.726562 145.578125 281.617188 145.054688 C 282.503906 144.542969 283.949219 145.375 284.839844 146.917969 L 288.535156 153.320312 L 296.136719 149.179688 C 297.039062 148.691406 298.484375 149.550781 299.359375 151.105469 C 300.234375 152.652344 300.210938 154.308594 299.3125 154.796875 L 290.101562 159.816406 C 289.207031 160.300781 287.785156 159.464844 286.902344 157.941406 Z M 281.625 148.789062 "/>
<path style=" stroke:none;fill-rule:evenodd;fill:rgb(29.411766%,70.980394%,86.274511%);fill-opacity:1;" d="M 200.917969 40.621094 C 192.636719 26.253906 174.296875 21.332031 159.957031 29.628906 C 145.621094 37.917969 140.703125 56.292969 148.984375 70.65625 C 157.261719 85.023438 175.601562 89.945312 189.9375 81.648438 C 204.28125 73.355469 209.195312 54.984375 200.917969 40.621094 Z M 200.917969 40.621094 "/>
<path style=" stroke:none;fill-rule:evenodd;fill:rgb(29.411766%,70.980394%,86.274511%);fill-opacity:1;" d="M 195.9375 86.570312 C 195.972656 87.714844 195.375 88.792969 194.386719 89.363281 C 193.398438 89.9375 192.167969 89.917969 191.199219 89.3125 C 184.019531 84.855469 171.519531 77.09375 171.519531 77.09375 L 195.222656 63.386719 C 195.222656 63.386719 195.675781 78.117188 195.9375 86.570312 Z M 195.9375 86.570312 "/>
<path style=" stroke:none;fill-rule:evenodd;fill:rgb(94.901961%,96.470588%,96.862745%);fill-opacity:1;" d="M 187.507812 43.171875 C 187.507812 41.9375 186.507812 40.9375 185.28125 40.9375 L 164.636719 40.9375 C 163.410156 40.9375 162.410156 41.9375 162.410156 43.171875 L 162.410156 68.109375 C 162.410156 69.34375 163.410156 70.34375 164.636719 70.34375 L 185.28125 70.34375 C 186.507812 70.34375 187.507812 69.34375 187.507812 68.109375 Z M 187.507812 43.171875 "/>
<path style=" stroke:none;fill-rule:nonzero;fill:rgb(29.411766%,70.980394%,86.274511%);fill-opacity:1;" d="M 181.414062 66.757812 L 181.414062 58.164062 L 182.324219 58.164062 L 182.324219 66.757812 Z M 181.742188 65.773438 C 181.226562 65.773438 180.738281 65.703125 180.269531 65.566406 C 179.800781 65.429688 179.425781 65.25 179.136719 65.027344 L 179.640625 63.910156 C 179.914062 64.109375 180.238281 64.273438 180.613281 64.394531 C 180.984375 64.519531 181.367188 64.582031 181.75 64.582031 C 182.042969 64.582031 182.28125 64.550781 182.457031 64.496094 C 182.636719 64.4375 182.769531 64.359375 182.851562 64.253906 C 182.941406 64.152344 182.980469 64.035156 182.980469 63.898438 C 182.980469 63.726562 182.914062 63.585938 182.78125 63.488281 C 182.648438 63.390625 182.46875 63.308594 182.253906 63.242188 C 182.03125 63.175781 181.789062 63.113281 181.523438 63.0625 C 181.257812 63.003906 181 62.929688 180.730469 62.84375 C 180.46875 62.757812 180.226562 62.644531 180.003906 62.515625 C 179.789062 62.378906 179.609375 62.203125 179.46875 61.984375 C 179.335938 61.769531 179.265625 61.484375 179.265625 61.140625 C 179.265625 60.777344 179.367188 60.445312 179.5625 60.144531 C 179.761719 59.839844 180.058594 59.601562 180.453125 59.421875 C 180.855469 59.242188 181.359375 59.152344 181.960938 59.152344 C 182.359375 59.152344 182.757812 59.199219 183.148438 59.289062 C 183.535156 59.386719 183.882812 59.523438 184.179688 59.71875 L 183.71875 60.839844 C 183.421875 60.667969 183.121094 60.542969 182.824219 60.460938 C 182.527344 60.378906 182.234375 60.339844 181.953125 60.339844 C 181.664062 60.339844 181.429688 60.371094 181.246094 60.445312 C 181.066406 60.507812 180.929688 60.59375 180.855469 60.699219 C 180.777344 60.808594 180.734375 60.929688 180.734375 61.070312 C 180.734375 61.238281 180.800781 61.367188 180.9375 61.46875 C 181.070312 61.570312 181.246094 61.652344 181.464844 61.710938 C 181.6875 61.773438 181.929688 61.832031 182.191406 61.894531 C 182.457031 61.953125 182.722656 62.023438 182.988281 62.101562 C 183.25 62.183594 183.488281 62.289062 183.714844 62.421875 C 183.929688 62.554688 184.109375 62.734375 184.246094 62.953125 C 184.378906 63.171875 184.453125 63.453125 184.453125 63.785156 C 184.453125 64.144531 184.355469 64.480469 184.152344 64.777344 C 183.949219 65.074219 183.648438 65.316406 183.25 65.496094 C 182.851562 65.683594 182.347656 65.773438 181.742188 65.773438 Z M 181.742188 65.773438 "/>
<path style=" stroke:none;fill-rule:evenodd;fill:rgb(29.411766%,70.980394%,86.274511%);fill-opacity:1;" d="M 184.332031 47.296875 C 184.332031 46.804688 183.929688 46.40625 183.441406 46.40625 L 166.460938 46.40625 C 165.96875 46.40625 165.570312 46.804688 165.570312 47.296875 C 165.570312 47.789062 165.96875 48.1875 166.460938 48.1875 L 183.441406 48.1875 C 183.929688 48.1875 184.332031 47.789062 184.332031 47.296875 Z M 184.332031 47.296875 "/>
<path style=" stroke:none;fill-rule:evenodd;fill:rgb(29.411766%,70.980394%,86.274511%);fill-opacity:1;" d="M 177.015625 51.253906 C 177.015625 50.761719 176.613281 50.363281 176.125 50.363281 L 167.175781 50.363281 C 166.683594 50.363281 166.285156 50.761719 166.285156 51.253906 C 166.285156 51.746094 166.683594 52.148438 167.175781 52.148438 L 176.125 52.148438 C 176.613281 52.148438 177.015625 51.746094 177.015625 51.253906 Z M 177.015625 51.253906 "/>
<path style=" stroke:none;fill-rule:evenodd;fill:rgb(29.411766%,70.980394%,86.274511%);fill-opacity:1;" d="M 177.015625 55.007812 C 177.015625 54.511719 176.613281 54.117188 176.125 54.117188 L 167.179688 54.117188 C 166.683594 54.117188 166.289062 54.511719 166.289062 55.007812 C 166.289062 55.5 166.683594 55.898438 167.179688 55.898438 L 176.125 55.898438 C 176.613281 55.898438 177.015625 55.5 177.015625 55.007812 Z M 177.015625 55.007812 "/>
<path style=" stroke:none;fill-rule:evenodd;fill:rgb(29.411766%,70.980394%,86.274511%);fill-opacity:1;" d="M 177.015625 58.765625 C 177.015625 58.273438 176.613281 57.871094 176.125 57.871094 L 167.175781 57.871094 C 166.683594 57.871094 166.285156 58.273438 166.285156 58.765625 C 166.285156 59.253906 166.683594 59.65625 167.175781 59.65625 L 176.125 59.65625 C 176.613281 59.65625 177.015625 59.253906 177.015625 58.765625 Z M 177.015625 58.765625 "/>
<path style=" stroke:none;fill-rule:evenodd;fill:rgb(29.411766%,70.980394%,86.274511%);fill-opacity:1;" d="M 184.332031 51.253906 C 184.332031 50.765625 183.933594 50.363281 183.441406 50.363281 L 180.144531 50.363281 C 179.652344 50.363281 179.253906 50.765625 179.253906 51.253906 C 179.253906 51.75 179.652344 52.148438 180.144531 52.148438 L 183.441406 52.148438 C 183.933594 52.148438 184.332031 51.75 184.332031 51.253906 Z M 184.332031 51.253906 "/>
<path style=" stroke:none;fill-rule:evenodd;fill:rgb(29.411766%,70.980394%,86.274511%);fill-opacity:1;" d="M 184.332031 55.003906 C 184.332031 54.511719 183.929688 54.109375 183.441406 54.109375 L 180.144531 54.109375 C 179.648438 54.109375 179.253906 54.511719 179.253906 55.003906 C 179.253906 55.5 179.648438 55.898438 180.144531 55.898438 L 183.441406 55.898438 C 183.929688 55.898438 184.332031 55.5 184.332031 55.003906 Z M 184.332031 55.003906 "/>
</g>
</svg>
