<?xml version="1.0" encoding="UTF-8"?>
<svg xmlns="http://www.w3.org/2000/svg" xmlns:xlink="http://www.w3.org/1999/xlink" width="360px" height="360px" viewBox="0 0 360 360" version="1.1">
<defs>
<filter id="alpha" filterUnits="objectBoundingBox" x="0%" y="0%" width="100%" height="100%">
  <feColorMatrix type="matrix" in="SourceGraphic" values="0 0 0 0 1 0 0 0 0 1 0 0 0 0 1 0 0 0 1 0"/>
</filter>
<mask id="mask0">
  <g filter="url(#alpha)">
<rect x="0" y="0" width="360" height="360" style="fill:rgb(0%,0%,0%);fill-opacity:0.898039;stroke:none;"/>
  </g>
</mask>
<clipPath id="clip1">
  <rect x="0" y="0" width="360" height="360"/>
</clipPath>
<g id="surface5" clip-path="url(#clip1)">
<path style=" stroke:none;fill-rule:nonzero;fill:rgb(29.803923%,57.647061%,67.843139%);fill-opacity:1;" d="M 211.320312 118.441406 L 230.28125 118.441406 L 230.28125 147.121094 L 211.320312 147.121094 Z M 211.320312 118.441406 "/>
<path style=" stroke:none;fill-rule:nonzero;fill:rgb(100%,100%,100%);fill-opacity:1;" d="M 213.238281 120.601562 L 228.238281 120.601562 L 228.238281 145.078125 L 213.238281 145.078125 Z M 213.238281 120.601562 "/>
</g>
<mask id="mask1">
  <g filter="url(#alpha)">
<rect x="0" y="0" width="360" height="360" style="fill:rgb(0%,0%,0%);fill-opacity:0.898039;stroke:none;"/>
  </g>
</mask>
<clipPath id="clip2">
  <rect x="0" y="0" width="360" height="360"/>
</clipPath>
<g id="surface8" clip-path="url(#clip2)">
<path style=" stroke:none;fill-rule:nonzero;fill:rgb(29.803923%,57.647061%,67.843139%);fill-opacity:1;" d="M 178.078125 92.160156 L 194.398438 92.160156 L 194.398438 116.878906 L 178.078125 116.878906 Z M 178.078125 92.160156 "/>
<path style=" stroke:none;fill-rule:nonzero;fill:rgb(100%,100%,100%);fill-opacity:1;" d="M 179.761719 93.960938 L 192.71875 93.960938 L 192.71875 115.078125 L 179.761719 115.078125 Z M 179.761719 93.960938 "/>
</g>
</defs>
<g id="surface1">
<path style=" stroke:none;fill-rule:nonzero;fill:rgb(76.078433%,90.980393%,96.862745%);fill-opacity:1;" d="M 310.441406 276.960938 C 315.238281 271.921875 326.640625 254.28125 332.039062 240.71875 C 341.160156 218.039062 346.800781 163.921875 291.238281 153.238281 C 228.71875 141.238281 246.71875 86.28125 192 80.160156 C 130.078125 73.199219 128.519531 110.878906 100.320312 122.519531 C 72.121094 134.160156 34.320312 122.878906 24 189.601562 C 14.398438 251.28125 47.640625 271.078125 63.121094 276.960938 Z M 310.441406 276.960938 "/>
<path style=" stroke:none;fill-rule:nonzero;fill:rgb(0%,77.64706%,100%);fill-opacity:1;" d="M 22.921875 223.320312 C 27.480469 259.078125 50.878906 272.398438 63.238281 276.960938 L 310.679688 276.960938 C 315.480469 271.921875 326.878906 254.28125 332.28125 240.71875 C 334.199219 236.039062 335.761719 230.039062 336.839844 223.320312 Z M 22.921875 223.320312 "/>
<path style=" stroke:none;fill-rule:nonzero;fill:rgb(27.058825%,69.411767%,90.980393%);fill-opacity:1;" d="M 177.238281 189.601562 L 175.558594 189.601562 L 175.558594 159.238281 C 175.558594 157.921875 174.480469 156.960938 173.28125 156.960938 L 146.640625 156.960938 C 145.320312 156.960938 144.359375 158.039062 144.359375 159.238281 L 144.359375 189.601562 L 141.359375 189.601562 L 141.359375 159.238281 C 141.359375 157.921875 140.28125 156.960938 139.078125 156.960938 L 112.441406 156.960938 C 111.121094 156.960938 110.160156 158.039062 110.160156 159.238281 L 110.160156 189.601562 L 108.480469 189.601562 C 108.480469 189.601562 108.480469 189.601562 108.359375 189.601562 C 108.359375 189.601562 108.359375 189.601562 108.238281 189.601562 L 106.558594 189.601562 L 106.558594 159.238281 C 106.558594 157.921875 105.480469 156.960938 104.28125 156.960938 L 77.761719 156.960938 C 76.441406 156.960938 75.480469 158.039062 75.480469 159.238281 L 75.480469 189.601562 L 72.480469 189.601562 L 72.480469 159.238281 C 72.480469 157.921875 71.398438 156.960938 70.199219 156.960938 L 43.558594 156.960938 C 42.238281 156.960938 41.28125 158.039062 41.28125 159.238281 L 41.28125 189.601562 L 39.601562 189.601562 C 38.160156 189.601562 36.960938 190.800781 36.960938 192.238281 C 36.960938 193.679688 38.160156 194.878906 39.601562 194.878906 L 42 194.878906 L 42 222.839844 L 43.199219 222.839844 L 43.199219 194.878906 L 70.558594 194.878906 L 70.558594 222.839844 L 71.761719 222.839844 L 71.761719 194.878906 L 76.199219 194.878906 L 76.199219 222.839844 L 77.398438 222.839844 L 77.398438 194.878906 L 104.761719 194.878906 L 104.761719 222.839844 L 105.960938 222.839844 L 105.960938 194.878906 L 108.359375 194.878906 C 108.359375 194.878906 108.359375 194.878906 108.480469 194.878906 C 108.480469 194.878906 108.480469 194.878906 108.601562 194.878906 L 111 194.878906 L 111 222.839844 L 112.199219 222.839844 L 112.199219 194.878906 L 139.558594 194.878906 L 139.558594 222.839844 L 140.761719 222.839844 L 140.761719 194.878906 L 145.199219 194.878906 L 145.199219 222.839844 L 146.398438 222.839844 L 146.398438 194.878906 L 173.761719 194.878906 L 173.761719 222.839844 L 174.960938 222.839844 L 174.960938 194.878906 L 177.359375 194.878906 C 178.800781 194.878906 180 193.679688 180 192.238281 C 179.878906 190.800781 178.679688 189.601562 177.238281 189.601562 Z M 177.238281 189.601562 "/>
<use xlink:href="#surface5" mask="url(#mask0)"/>
<use xlink:href="#surface8" mask="url(#mask1)"/>
<path style=" stroke:none;fill-rule:nonzero;fill:rgb(52.941179%,86.666667%,99.215686%);fill-opacity:1;" d="M 221.039062 114.839844 C 221.398438 114.960938 222.839844 116.640625 222.359375 118.320312 C 221.761719 120.839844 218.398438 121.558594 216.480469 124.800781 C 215.519531 126.480469 214.078125 127.558594 213 128.160156 C 212.039062 128.761719 210.839844 129 209.640625 128.761719 L 209.398438 128.761719 C 206.761719 128.28125 204.839844 125.878906 205.199219 123.121094 L 205.800781 117.601562 C 206.160156 114.601562 208.921875 112.558594 211.800781 113.160156 Z M 221.039062 114.839844 "/>
<path style=" stroke:none;fill-rule:nonzero;fill:rgb(63.529414%,86.666667%,95.294118%);fill-opacity:1;" d="M 219.480469 120.121094 C 219.359375 119.878906 219.238281 119.761719 219.121094 119.519531 C 219.121094 119.519531 219.121094 119.519531 219.121094 119.398438 C 218.761719 118.800781 218.398438 118.199219 218.039062 117.71875 C 217.078125 116.640625 215.28125 116.640625 214.320312 117.71875 C 212.519531 119.640625 209.640625 122.519531 208.800781 122.878906 C 208.558594 122.640625 208.078125 122.398438 207.480469 122.28125 C 206.398438 122.160156 205.199219 123.121094 205.558594 124.800781 C 205.921875 126.480469 208.199219 126.359375 208.199219 126.359375 L 206.640625 138 C 209.761719 138.71875 213 139.441406 216.121094 140.160156 L 214.921875 130.679688 C 214.921875 130.679688 216.71875 130.441406 218.519531 128.640625 C 218.761719 128.398438 218.878906 128.160156 219.121094 127.921875 C 220.800781 125.640625 220.921875 122.519531 219.480469 120.121094 Z M 219.480469 120.121094 "/>
<path style=" stroke:none;fill-rule:nonzero;fill:rgb(52.941179%,86.666667%,99.215686%);fill-opacity:1;" d="M 219.097656 120.125 C 219.078125 119.996094 218.316406 119.996094 217.398438 120.128906 C 216.480469 120.261719 215.75 120.472656 215.769531 120.605469 C 215.789062 120.738281 216.550781 120.734375 217.46875 120.601562 C 218.386719 120.46875 219.113281 120.257812 219.097656 120.125 Z M 219.097656 120.125 "/>
<path style=" stroke:none;fill-rule:nonzero;fill:rgb(51.764709%,73.333335%,81.568629%);fill-opacity:1;" d="M 208.078125 124.199219 C 207.960938 123.359375 207 123.238281 206.878906 123.238281 C 206.878906 123.238281 206.878906 123.238281 206.761719 123.238281 C 206.640625 123.238281 206.761719 123.238281 206.761719 123.359375 C 207 123.359375 207.839844 123.601562 208.078125 124.199219 C 207.960938 124.320312 207.960938 124.441406 207.960938 124.441406 C 207.71875 124.558594 207.238281 124.679688 207 124.558594 C 206.761719 124.441406 206.761719 124.199219 206.761719 124.199219 C 206.761719 124.199219 206.761719 124.199219 206.761719 124.078125 C 206.761719 124.078125 206.761719 124.078125 206.640625 124.078125 C 206.640625 124.078125 206.640625 124.441406 206.878906 124.558594 C 206.878906 124.558594 207 124.558594 207.121094 124.558594 C 207.359375 124.558594 207.839844 124.441406 207.960938 124.441406 C 207.960938 125.039062 207.839844 125.398438 207.839844 125.398438 C 207.839844 125.398438 207.839844 125.519531 207.839844 125.519531 C 208.078125 125.640625 208.320312 125.039062 208.078125 124.199219 Z M 208.078125 124.199219 "/>
<path style=" stroke:none;fill-rule:nonzero;fill:rgb(100%,100%,100%);fill-opacity:1;" d="M 216.359375 122.519531 C 216.359375 122.519531 216.71875 123 217.558594 122.878906 C 218.398438 122.878906 218.398438 122.519531 218.640625 122.519531 C 218.878906 122.519531 218.519531 122.039062 218.039062 121.921875 C 216.839844 121.800781 216.359375 122.519531 216.359375 122.519531 Z M 216.359375 122.519531 "/>
<path style=" stroke:none;fill-rule:nonzero;fill:rgb(11.372549%,16.862746%,18.82353%);fill-opacity:1;" d="M 218.640625 122.398438 C 218.761719 122.398438 218.761719 122.28125 218.761719 122.160156 C 218.640625 122.039062 218.28125 121.800781 217.679688 121.800781 C 216.601562 121.800781 216.238281 122.398438 216.238281 122.398438 L 216.359375 122.398438 C 216.359375 122.398438 216.839844 121.921875 217.441406 121.921875 C 218.039062 121.921875 218.640625 122.398438 218.640625 122.398438 Z M 218.640625 122.398438 "/>
<path style=" stroke:none;fill-rule:nonzero;fill:rgb(11.372549%,16.862746%,18.82353%);fill-opacity:1;" d="M 216.839844 122.398438 C 216.839844 122.640625 217.199219 122.878906 217.558594 122.878906 C 217.921875 122.878906 218.160156 122.640625 218.160156 122.398438 C 218.160156 122.160156 217.800781 122.039062 217.441406 122.039062 C 217.078125 122.039062 216.839844 122.039062 216.839844 122.398438 Z M 216.839844 122.398438 "/>
<path style=" stroke:none;fill-rule:nonzero;fill:rgb(100%,100%,100%);fill-opacity:1;" d="M 217.929688 122.402344 C 217.925781 122.335938 217.871094 122.285156 217.804688 122.285156 C 217.738281 122.285156 217.6875 122.339844 217.6875 122.40625 C 217.6875 122.472656 217.742188 122.527344 217.808594 122.523438 C 217.875 122.523438 217.929688 122.46875 217.929688 122.402344 Z M 217.929688 122.402344 "/>
<path style=" stroke:none;fill-rule:nonzero;fill:rgb(3.137255%,65.098041%,87.843138%);fill-opacity:1;" d="M 221.160156 123.960938 C 220.921875 123.71875 220.679688 123.601562 220.320312 123.601562 L 219.839844 123.71875 C 219 123.839844 215.160156 123.480469 214.558594 123.359375 C 213.71875 123.121094 211.320312 122.761719 209.640625 122.519531 C 209.640625 122.519531 209.398438 122.640625 209.28125 122.761719 C 210.960938 123 213.480469 123.480469 214.558594 123.839844 C 214.558594 124.199219 214.558594 124.679688 214.558594 125.640625 C 214.441406 127.199219 212.761719 128.878906 211.921875 129.601562 C 211.441406 129.238281 209.398438 127.558594 208.320312 126.601562 C 208.320312 126.71875 208.320312 127.078125 208.199219 127.199219 C 209.28125 128.039062 211.078125 129.601562 211.558594 129.960938 C 211.558594 129.960938 211.558594 129.960938 212.398438 130.800781 C 213.238281 131.640625 215.878906 133.441406 218.039062 132.71875 C 220.199219 132 221.878906 127.320312 222 126.121094 C 221.878906 125.28125 221.398438 124.441406 221.160156 123.960938 Z M 221.160156 123.960938 "/>
<path style=" stroke:none;fill-rule:nonzero;fill:rgb(3.921569%,63.529414%,84.313726%);fill-opacity:1;" d="M 222.601562 190.921875 L 195.601562 190.921875 C 194.28125 190.921875 193.199219 189.71875 193.441406 188.398438 C 194.761719 175.679688 196.441406 156.121094 197.398438 152.039062 C 199.320312 144.121094 201.71875 135.839844 212.28125 135.601562 C 228.601562 135.121094 229.199219 157.800781 229.199219 157.800781 L 221.519531 157.800781 Z M 222.601562 190.921875 "/>
<path style=" stroke:none;fill-rule:nonzero;fill:rgb(61.176473%,87.450981%,97.254902%);fill-opacity:1;" d="M 212.28125 190.921875 L 211.921875 157.800781 L 225.238281 157.800781 L 226.078125 190.921875 Z M 212.28125 190.921875 "/>
<path style=" stroke:none;fill-rule:nonzero;fill:rgb(0%,38.039216%,51.764709%);fill-opacity:1;" d="M 228.480469 157.800781 L 210.121094 157.800781 L 210.121094 146.160156 L 211.800781 155.761719 Z M 228.480469 157.800781 "/>
<path style=" stroke:none;fill-rule:nonzero;fill:rgb(63.529414%,86.666667%,95.294118%);fill-opacity:1;" d="M 260.761719 238.921875 L 262.320312 258.121094 L 270.121094 258.238281 L 271.921875 238.921875 Z M 260.761719 238.921875 "/>
<path style=" stroke:none;fill-rule:nonzero;fill:rgb(26.274511%,67.058825%,82.352942%);fill-opacity:1;" d="M 261.601562 256.441406 L 261.601562 260.640625 L 284.398438 260.761719 L 284.160156 259.921875 C 283.679688 258.480469 282.121094 257.28125 280.078125 256.679688 L 270.601562 254.28125 C 268.199219 255.359375 265.078125 255.480469 262.441406 254.519531 C 262.078125 254.398438 261.71875 254.640625 261.71875 255 Z M 261.601562 256.441406 "/>
<path style=" stroke:none;fill-rule:nonzero;fill:rgb(100%,100%,100%);fill-opacity:1;" d="M 261.601562 262.199219 L 261.601562 260.640625 L 284.398438 260.761719 L 284.398438 262.199219 Z M 261.601562 262.199219 "/>
<path style=" stroke:none;fill-rule:nonzero;fill:rgb(1.960784%,59.215689%,78.823531%);fill-opacity:1;" d="M 194.28125 189.839844 L 194.28125 200.640625 C 194.28125 208.078125 200.28125 214.078125 207.601562 214.078125 L 252.238281 214.199219 L 258.71875 247.679688 L 278.039062 247.679688 L 270.71875 203.519531 C 269.398438 195.601562 262.558594 189.839844 254.640625 189.839844 Z M 194.28125 189.839844 "/>
<path style=" stroke:none;fill-rule:nonzero;fill:rgb(26.274511%,67.058825%,82.352942%);fill-opacity:1;" d="M 245.878906 182.28125 L 245.878906 184.441406 L 193.921875 184.441406 L 193.921875 182.28125 C 193.921875 180 195.71875 178.199219 198 178.199219 L 241.679688 178.199219 C 244.078125 178.199219 245.878906 180 245.878906 182.28125 Z M 183.238281 202.679688 L 181.078125 202.679688 L 181.078125 150.71875 L 183.238281 150.71875 C 185.519531 150.71875 187.320312 152.519531 187.320312 154.800781 L 187.320312 198.480469 C 187.320312 200.761719 185.519531 202.679688 183.238281 202.679688 Z M 183.238281 202.679688 "/>
<path style="fill:none;stroke-width:1.937;stroke-linecap:round;stroke-linejoin:round;stroke:rgb(26.274511%,53.333336%,63.137257%);stroke-opacity:1;stroke-miterlimit:10;" d="M 136.201172 113.001302 C 144.30013 113.001302 150.898438 119.599609 150.898438 127.698568 L 150.898438 210.598958 " transform="matrix(1.2,0,0,1.2,0,0)"/>
<path style=" stroke:none;fill-rule:nonzero;fill:rgb(1.568628%,61.960787%,83.529413%);fill-opacity:1;" d="M 180.238281 200.398438 L 261.121094 200.398438 L 261.121094 234.359375 L 180.238281 234.359375 Z M 180.238281 200.398438 "/>
<path style="fill:none;stroke-width:0.323;stroke-linecap:butt;stroke-linejoin:miter;stroke:rgb(100%,100%,100%);stroke-opacity:1;stroke-miterlimit:10;" d="M 154.599609 170.69987 L 213.300781 170.69987 L 213.300781 191.601562 L 154.599609 191.601562 Z M 154.599609 170.69987 " transform="matrix(1.2,0,0,1.2,0,0)"/>
<path style="fill:none;stroke-width:1.937;stroke-linecap:round;stroke-linejoin:round;stroke:rgb(26.274511%,53.333336%,63.137257%);stroke-opacity:1;stroke-miterlimit:10;" d="M 216.901042 216.10026 L 216.901042 158.098958 C 216.901042 155.198568 214.498698 152.799479 211.601562 152.799479 L 150.800781 152.799479 " transform="matrix(1.2,0,0,1.2,0,0)"/>
<path style=" stroke:none;fill-rule:nonzero;fill:rgb(0%,10.588235%,14.509805%);fill-opacity:1;" d="M 181.078125 272.398438 C 161.398438 272.398438 145.320312 256.441406 145.320312 236.640625 C 145.320312 216.839844 161.28125 200.878906 181.078125 200.878906 C 200.878906 200.878906 216.839844 216.839844 216.839844 236.640625 C 216.839844 256.441406 200.761719 272.398438 181.078125 272.398438 Z M 181.078125 203.398438 C 162.71875 203.398438 147.71875 218.398438 147.71875 236.761719 C 147.71875 255.121094 162.71875 270.121094 181.078125 270.121094 C 199.441406 270.121094 214.441406 255.121094 214.441406 236.761719 C 214.441406 218.398438 199.441406 203.398438 181.078125 203.398438 Z M 181.078125 203.398438 "/>
<path style=" stroke:none;fill-rule:nonzero;fill:rgb(0%,10.588235%,14.509805%);fill-opacity:1;" d="M 186.121094 236.761719 C 186.121094 233.976562 183.863281 231.71875 181.078125 231.71875 C 178.296875 231.71875 176.039062 233.976562 176.039062 236.761719 C 176.039062 239.542969 178.296875 241.800781 181.078125 241.800781 C 183.863281 241.800781 186.121094 239.542969 186.121094 236.761719 Z M 186.121094 236.761719 "/>
<path style=" stroke:none;fill-rule:nonzero;fill:rgb(0%,10.588235%,14.509805%);fill-opacity:1;" d="M 181.078125 271.558594 C 180.960938 271.558594 180.839844 271.441406 180.839844 271.320312 L 180.839844 202.320312 C 180.839844 202.199219 180.960938 202.078125 181.078125 202.078125 C 181.199219 202.078125 181.320312 202.199219 181.320312 202.320312 L 181.320312 271.199219 C 181.441406 271.441406 181.320312 271.558594 181.078125 271.558594 Z M 181.078125 271.558594 "/>
<path style=" stroke:none;fill-rule:nonzero;fill:rgb(0%,10.588235%,14.509805%);fill-opacity:1;" d="M 215.640625 237 L 146.640625 237 C 146.519531 237 146.398438 236.878906 146.398438 236.761719 C 146.398438 236.640625 146.519531 236.519531 146.640625 236.519531 L 215.640625 236.519531 C 215.761719 236.519531 215.878906 236.640625 215.878906 236.761719 C 215.878906 236.878906 215.761719 237 215.640625 237 Z M 215.640625 237 "/>
<path style=" stroke:none;fill-rule:nonzero;fill:rgb(0%,10.588235%,14.509805%);fill-opacity:1;" d="M 205.558594 261.359375 C 205.441406 261.359375 205.441406 261.359375 205.320312 261.238281 L 156.480469 212.398438 C 156.359375 212.28125 156.359375 212.039062 156.480469 211.921875 C 156.601562 211.800781 156.839844 211.800781 156.960938 211.921875 L 205.800781 260.761719 C 205.921875 260.878906 205.921875 261.121094 205.800781 261.238281 C 205.679688 261.359375 205.558594 261.359375 205.558594 261.359375 Z M 205.558594 261.359375 "/>
<path style=" stroke:none;fill-rule:nonzero;fill:rgb(0%,10.588235%,14.509805%);fill-opacity:1;" d="M 156.960938 261.359375 C 156.839844 261.359375 156.839844 261.359375 156.71875 261.238281 C 156.601562 261.121094 156.601562 260.878906 156.71875 260.761719 L 205.558594 211.921875 C 205.679688 211.800781 205.921875 211.800781 206.039062 211.921875 C 206.160156 212.039062 206.160156 212.28125 206.039062 212.398438 L 157.199219 261.359375 C 157.199219 261.359375 157.078125 261.359375 156.960938 261.359375 Z M 260.28125 246.238281 C 253.199219 246.238281 247.558594 252 247.558594 258.960938 C 247.558594 266.039062 253.320312 271.679688 260.28125 271.679688 C 267.359375 271.679688 273 265.921875 273 258.960938 C 273 251.878906 267.238281 246.238281 260.28125 246.238281 Z M 269.640625 258.960938 L 261.238281 258.960938 C 261.238281 258.71875 261.121094 258.601562 261 258.480469 L 267 252.480469 C 268.679688 254.160156 269.640625 256.441406 269.640625 258.960938 Z M 260.160156 258.238281 C 260.039062 258.238281 259.800781 258.359375 259.679688 258.480469 L 253.558594 252.359375 C 255.238281 250.679688 257.519531 249.601562 260.160156 249.601562 Z M 259.679688 259.800781 C 259.800781 259.921875 259.921875 260.039062 260.160156 260.039062 L 260.160156 268.320312 C 257.640625 268.320312 255.359375 267.359375 253.800781 265.679688 Z M 260.28125 260.039062 C 260.519531 260.039062 260.761719 259.921875 260.878906 259.800781 L 266.761719 265.679688 C 265.078125 267.238281 262.800781 268.320312 260.28125 268.320312 Z M 266.878906 252.238281 L 260.761719 258.359375 C 260.640625 258.238281 260.398438 258.121094 260.160156 258.121094 L 260.160156 249.480469 C 262.921875 249.480469 265.199219 250.558594 266.878906 252.238281 Z M 253.441406 252.359375 L 259.558594 258.480469 C 259.441406 258.601562 259.441406 258.71875 259.320312 258.960938 L 250.800781 258.960938 C 250.800781 256.441406 251.761719 254.039062 253.441406 252.359375 Z M 250.800781 259.078125 L 259.320312 259.078125 C 259.320312 259.320312 259.441406 259.441406 259.558594 259.679688 L 253.558594 265.679688 C 251.878906 264 250.800781 261.71875 250.800781 259.078125 Z M 266.878906 265.558594 L 261 259.679688 C 261.121094 259.558594 261.238281 259.320312 261.238281 259.078125 L 269.640625 259.078125 C 269.640625 261.601562 268.558594 263.878906 266.878906 265.558594 Z M 266.878906 265.558594 "/>
<path style=" stroke:none;fill-rule:nonzero;fill:rgb(20.392157%,48.627451%,59.215689%);fill-opacity:1;" d="M 168 138 L 146.28125 138 C 145.078125 138 144.238281 137.039062 144.238281 135.960938 L 144.238281 135.238281 C 144.238281 134.039062 145.199219 133.199219 146.28125 133.199219 L 168 133.199219 C 169.199219 133.199219 170.039062 134.160156 170.039062 135.238281 L 170.039062 135.960938 C 170.160156 137.160156 169.199219 138 168 138 Z M 168 138 "/>
<path style=" stroke:none;fill-rule:nonzero;fill:rgb(26.666668%,40.392157%,45.490196%);fill-opacity:1;" d="M 91.558594 68.039062 C 91.679688 68.039062 91.679688 68.039062 91.679688 68.039062 C 92.160156 63 96.121094 58.921875 101.28125 58.441406 C 107.160156 57.960938 112.320312 62.160156 112.800781 68.039062 C 113.28125 73.921875 109.078125 79.078125 103.199219 79.558594 C 99.71875 79.921875 96.480469 78.480469 94.320312 76.078125 C 93.71875 76.441406 93 76.679688 92.28125 76.800781 C 89.878906 77.039062 87.71875 75.238281 87.480469 72.839844 C 87.359375 70.441406 89.039062 68.28125 91.558594 68.039062 Z M 91.558594 68.039062 "/>
<path style=" stroke:none;fill-rule:nonzero;fill:rgb(63.529414%,86.666667%,95.294118%);fill-opacity:1;" d="M 97.800781 69.359375 C 99 69.601562 99.601562 70.441406 99.601562 70.441406 C 99.601562 70.441406 103.199219 70.441406 105.359375 67.800781 C 107.519531 65.160156 107.640625 62.519531 107.640625 62.519531 C 107.640625 62.519531 110.398438 64.199219 111.359375 66.839844 C 111.480469 67.078125 111.601562 67.320312 111.71875 67.558594 C 113.160156 70.441406 112.921875 74.039062 110.878906 76.558594 C 110.640625 76.800781 110.398438 77.039062 110.160156 77.28125 C 108 79.199219 105.839844 79.441406 105.839844 79.441406 L 105.601562 88.800781 L 95.160156 88.078125 L 98.398438 74.160156 C 98.398438 74.160156 95.761719 74.039062 95.519531 72.121094 C 95.28125 70.199219 96.71875 69.238281 97.800781 69.359375 Z M 97.800781 69.359375 "/>
<path style=" stroke:none;fill-rule:nonzero;fill:rgb(51.764709%,73.333335%,81.568629%);fill-opacity:1;" d="M 96.839844 71.640625 C 96.839844 70.679688 97.921875 70.199219 97.921875 70.078125 C 97.921875 70.078125 98.039062 70.078125 98.039062 70.078125 C 98.039062 70.078125 98.039062 70.199219 98.039062 70.199219 C 98.039062 70.199219 96.960938 70.679688 97.078125 71.640625 C 97.078125 71.761719 97.078125 71.878906 97.078125 72 C 97.320312 72 98.039062 72.121094 98.28125 71.878906 C 98.519531 71.640625 98.398438 71.398438 98.398438 71.398438 C 98.398438 71.398438 98.398438 71.28125 98.398438 71.28125 C 98.398438 71.28125 98.519531 71.28125 98.519531 71.28125 C 98.519531 71.28125 98.640625 71.640625 98.28125 71.878906 C 98.28125 71.878906 98.160156 72 98.039062 72 C 97.679688 72.121094 97.199219 72 97.078125 72 C 97.199219 72.71875 97.558594 73.078125 97.558594 73.078125 C 97.558594 73.078125 97.558594 73.199219 97.558594 73.199219 C 97.558594 73.199219 97.558594 73.199219 97.441406 73.199219 C 97.320312 73.320312 96.839844 72.601562 96.839844 71.640625 Z M 96.839844 71.640625 "/>
<path style=" stroke:none;fill-rule:nonzero;fill:rgb(100%,100%,100%);fill-opacity:1;" d="M 111 70.558594 C 111 70.558594 110.640625 71.640625 109.921875 71.519531 C 109.199219 71.398438 109.199219 70.679688 108.960938 70.679688 C 108.71875 70.679688 109.078125 69.601562 109.558594 69.359375 C 110.761719 68.761719 111 70.558594 111 70.558594 Z M 111 70.558594 "/>
<path style=" stroke:none;fill-rule:nonzero;fill:rgb(11.372549%,16.862746%,18.82353%);fill-opacity:1;" d="M 108.960938 70.199219 C 108.839844 70.078125 108.839844 69.839844 108.960938 69.71875 C 109.199219 69.359375 109.558594 69 110.039062 69 C 111 69 111.121094 70.441406 111.121094 70.441406 L 111 70.558594 C 111 70.558594 110.640625 69.480469 110.160156 69.238281 C 109.679688 69 108.960938 70.199219 108.960938 70.199219 Z M 108.960938 70.199219 "/>
<path style=" stroke:none;fill-rule:nonzero;fill:rgb(11.372549%,16.862746%,18.82353%);fill-opacity:1;" d="M 110.519531 70.078125 C 110.398438 70.800781 110.160156 71.28125 109.800781 71.28125 C 109.441406 71.28125 109.320312 70.679688 109.320312 69.960938 C 109.320312 69.238281 109.679688 69.121094 110.039062 69.121094 C 110.398438 69.238281 110.640625 69.359375 110.519531 70.078125 Z M 110.519531 70.078125 "/>
<path style=" stroke:none;fill-rule:nonzero;fill:rgb(100%,100%,100%);fill-opacity:1;" d="M 109.761719 69.71875 C 109.695312 69.714844 109.628906 69.867188 109.609375 70.066406 C 109.59375 70.265625 109.632812 70.429688 109.699219 70.4375 C 109.765625 70.441406 109.832031 70.285156 109.851562 70.089844 C 109.867188 69.890625 109.828125 69.726562 109.761719 69.71875 Z M 109.761719 69.71875 "/>
<path style=" stroke:none;fill-rule:nonzero;fill:rgb(26.666668%,40.392157%,45.490196%);fill-opacity:1;" d="M 110.902344 67.246094 C 110.832031 66.992188 109.6875 67.078125 108.34375 67.441406 C 107 67.808594 105.96875 68.308594 106.039062 68.566406 C 106.105469 68.820312 107.25 68.734375 108.59375 68.371094 C 109.9375 68.007812 110.972656 67.503906 110.902344 67.246094 Z M 110.902344 67.246094 "/>
<path style=" stroke:none;fill-rule:nonzero;fill:rgb(3.137255%,65.098041%,87.843138%);fill-opacity:1;" d="M 112.800781 72.121094 C 112.800781 72 112.679688 71.878906 112.558594 71.878906 C 112.199219 71.878906 111.359375 71.878906 110.640625 71.878906 C 109.679688 71.878906 105.359375 71.28125 104.640625 71.160156 C 103.679688 70.800781 100.679688 70.320312 100.441406 70.320312 L 99.601562 70.441406 C 101.398438 70.800781 103.441406 71.28125 104.640625 71.761719 C 104.640625 72.121094 104.640625 72.71875 104.519531 73.800781 C 104.28125 75.480469 102.238281 77.398438 101.28125 78.121094 C 100.679688 77.640625 99.960938 75.71875 98.398438 74.039062 L 98.28125 74.761719 C 99.71875 76.320312 100.199219 77.878906 100.921875 78.480469 C 100.921875 78.480469 100.921875 78.480469 101.761719 79.441406 C 102.601562 80.398438 105.480469 82.679688 108 82.078125 C 110.519531 81.359375 112.679688 76.199219 112.800781 74.878906 C 112.921875 73.800781 112.800781 72.601562 112.800781 72.121094 Z M 112.800781 72.121094 "/>
<path style=" stroke:none;fill-rule:nonzero;fill:rgb(3.921569%,63.529414%,84.313726%);fill-opacity:1;" d="M 107.28125 59.28125 C 107.28125 59.640625 107.039062 59.878906 106.800781 60 C 104.039062 60.839844 101.519531 62.761719 99.960938 65.28125 C 99.960938 65.398438 99.839844 65.398438 99.839844 65.519531 C 99.601562 66 99 66 98.640625 65.640625 L 98.160156 64.800781 L 95.519531 61.199219 C 95.398438 60.960938 95.28125 60.71875 95.519531 60.480469 C 97.320312 57.121094 100.558594 54.960938 104.160156 54.71875 L 106.558594 54.601562 C 106.921875 54.601562 107.28125 54.839844 107.28125 55.199219 Z M 107.28125 59.28125 "/>
<path style=" stroke:none;fill-rule:nonzero;fill:rgb(100%,100%,100%);fill-opacity:1;" d="M 100.679688 59.160156 L 102 58.558594 L 101.398438 57.238281 L 101.878906 57 L 102.480469 58.320312 L 103.921875 57.71875 L 104.160156 58.199219 L 102.71875 58.921875 L 103.320312 60.238281 L 102.839844 60.480469 L 102.238281 59.039062 L 100.921875 59.640625 Z M 100.679688 59.160156 "/>
<path style=" stroke:none;fill-rule:nonzero;fill:rgb(57.254905%,83.92157%,94.117647%);fill-opacity:1;" d="M 104.28125 251.640625 C 104.398438 251.640625 104.640625 251.640625 104.761719 251.761719 C 105.121094 252 105.71875 252.601562 106.921875 254.039062 C 108.71875 256.320312 112.078125 262.921875 112.921875 263.640625 C 113.640625 264.359375 115.320312 264.359375 115.921875 264.359375 C 115.921875 264.359375 116.039062 264.359375 116.039062 264.359375 L 114 254.039062 L 118.921875 170.640625 L 98.519531 168.839844 C 98.640625 168.960938 104.640625 251.398438 104.28125 251.640625 Z M 104.28125 251.640625 "/>
<path style=" stroke:none;fill-rule:nonzero;fill:rgb(12.156863%,13.333334%,13.725491%);fill-opacity:1;" d="M 112.921875 263.640625 C 112.078125 262.800781 108.71875 256.320312 106.921875 254.039062 C 105.839844 252.71875 105.121094 252.121094 104.761719 251.761719 C 104.640625 251.640625 104.398438 251.640625 104.28125 251.640625 C 104.28125 251.640625 104.160156 251.640625 104.160156 251.761719 C 103.441406 252.121094 101.878906 253.199219 101.640625 254.878906 C 101.28125 257.039062 102 268.800781 102 268.800781 L 103.078125 268.800781 C 103.078125 268.800781 103.078125 260.640625 103.679688 260.039062 C 104.398438 259.441406 105.359375 259.800781 106.078125 260.519531 C 106.800781 261.121094 108.359375 262.921875 108.71875 265.441406 C 109.078125 267.839844 110.039062 268.679688 111.359375 268.800781 C 112.679688 269.039062 117.839844 269.28125 119.519531 268.921875 C 120.480469 268.679688 121.441406 268.078125 121.921875 267.601562 C 122.160156 267.359375 122.039062 267 121.800781 266.878906 C 120.480469 266.398438 117.71875 265.320312 117 264.839844 L 116.28125 264.359375 C 116.28125 264.359375 116.160156 264.359375 116.160156 264.238281 C 116.160156 264.238281 116.039062 264.238281 116.039062 264.238281 C 115.320312 264.359375 113.640625 264.359375 112.921875 263.640625 Z M 112.921875 263.640625 "/>
<path style=" stroke:none;fill-rule:nonzero;fill:rgb(63.529414%,86.666667%,95.294118%);fill-opacity:1;" d="M 110.878906 193.800781 L 101.160156 168.480469 L 81.960938 174.121094 L 92.160156 196.199219 L 72.960938 233.519531 C 69.839844 238.679688 67.921875 242.039062 67.800781 242.039062 C 67.921875 242.160156 68.039062 242.28125 68.160156 242.398438 C 68.28125 242.761719 68.519531 243.601562 68.640625 245.28125 C 68.878906 248.039062 68.039062 254.878906 68.28125 255.960938 C 68.519531 256.921875 69.839844 257.878906 70.199219 258.121094 C 70.199219 258.121094 70.320312 258.121094 70.320312 258.238281 L 74.28125 249.121094 L 81.480469 239.761719 L 108.601562 208.679688 C 111.960938 204.480469 112.921875 198.839844 110.878906 193.800781 Z M 110.878906 193.800781 "/>
<path style=" stroke:none;fill-rule:nonzero;fill:rgb(12.156863%,13.333334%,13.725491%);fill-opacity:1;" d="M 68.28125 256.078125 C 68.039062 255 68.878906 248.160156 68.640625 245.398438 C 68.519531 243.71875 68.28125 242.878906 68.160156 242.519531 C 68.160156 242.398438 68.039062 242.28125 67.800781 242.160156 C 67.800781 242.160156 67.679688 242.160156 67.679688 242.160156 C 66.960938 242.039062 65.039062 242.039062 64.078125 243.238281 C 62.761719 244.800781 57 254.398438 57 254.398438 L 57.839844 255 C 57.839844 255 62.160156 248.640625 63 248.398438 C 63.839844 248.28125 64.441406 249.121094 64.679688 249.960938 C 64.921875 250.800781 65.160156 253.078125 64.199219 255.121094 C 63.121094 257.160156 63.480469 258.238281 64.441406 259.199219 C 65.398438 260.039062 69.238281 263.039062 70.679688 263.640625 C 71.640625 264 72.601562 264 73.199219 263.878906 C 73.558594 263.878906 73.679688 263.519531 73.441406 263.28125 C 72.71875 262.199219 71.039062 259.800781 70.800781 259.199219 L 70.441406 258.480469 C 70.441406 258.480469 70.441406 258.359375 70.320312 258.359375 C 70.320312 258.359375 70.199219 258.238281 70.199219 258.238281 C 69.71875 257.878906 68.398438 256.921875 68.28125 256.078125 Z M 68.28125 256.078125 "/>
<path style=" stroke:none;fill-rule:nonzero;fill:rgb(3.921569%,63.529414%,84.313726%);fill-opacity:1;" d="M 120.359375 195.601562 C 120.359375 195.601562 126.121094 175.078125 121.320312 157.441406 C 116.519531 139.800781 114.839844 123.238281 117.71875 114.601562 C 120.601562 105.960938 117.71875 100.921875 113.039062 96.960938 C 111.839844 96 110.878906 93.601562 110.160156 91.441406 C 109.441406 89.398438 107.640625 87.960938 105.480469 87.71875 C 104.878906 87.601562 104.160156 87.601562 103.441406 87.480469 C 100.558594 87 97.800781 85.921875 96.121094 85.078125 C 95.039062 84.601562 93.839844 84.71875 92.878906 85.558594 C 90.601562 87.480469 86.761719 92.160156 87.601562 100.320312 C 88.800781 111.960938 78.238281 153.960938 78.238281 163.558594 C 78.238281 181.320312 83.28125 197.761719 83.28125 197.761719 Z M 120.359375 195.601562 "/>
<path style=" stroke:none;fill-rule:nonzero;fill:rgb(21.176471%,49.019608%,59.215689%);fill-opacity:1;" d="M 113.640625 111.71875 L 117.121094 117.121094 L 116.519531 121.558594 Z M 113.640625 111.71875 "/>
<path style=" stroke:none;fill-rule:nonzero;fill:rgb(21.176471%,49.019608%,59.215689%);fill-opacity:1;" d="M 100.441406 123.121094 L 103.320312 137.039062 C 103.679688 138.601562 104.878906 139.800781 106.441406 140.28125 L 118.199219 143.039062 L 117.601562 139.320312 L 108.480469 135.839844 L 100.320312 117.960938 L 99.601562 118.320312 Z M 100.441406 123.121094 "/>
<path style=" stroke:none;fill-rule:nonzero;fill:rgb(3.137255%,65.098041%,87.843138%);fill-opacity:1;" d="M 107.039062 88.078125 L 107.878906 90.71875 C 107.878906 90.71875 104.28125 91.320312 100.441406 90 C 96.839844 88.679688 93 85.558594 93 85.558594 C 93 85.558594 93.601562 84.960938 93.71875 84.839844 C 94.199219 84.480469 94.921875 84.359375 95.519531 84.71875 C 96.839844 85.320312 100.441406 86.28125 103.320312 87 C 106.199219 87.71875 107.039062 88.078125 107.039062 88.078125 Z M 107.039062 88.078125 "/>
<path style=" stroke:none;fill-rule:nonzero;fill:rgb(63.529414%,86.666667%,95.294118%);fill-opacity:1;" d="M 163.441406 136.800781 L 159.480469 132.71875 C 159.359375 132.601562 158.878906 132.480469 158.878906 132.359375 C 157.558594 131.761719 147 130.441406 145.078125 131.640625 C 145.078125 131.640625 144.480469 131.519531 143.519531 131.28125 L 118.199219 127.199219 L 113.640625 111.71875 L 99.601562 118.199219 L 105.121094 134.761719 C 106.078125 137.519531 108.71875 139.441406 111.71875 139.441406 L 143.519531 138.960938 L 143.761719 138.960938 C 144.238281 138.960938 146.761719 138.71875 148.679688 138.480469 C 150.601562 138.601562 152.640625 138.359375 154.558594 137.519531 C 154.558594 137.519531 154.800781 140.160156 155.878906 140.28125 C 156.601562 140.398438 156.359375 136.679688 156.359375 136.679688 C 156.359375 136.679688 157.199219 140.398438 157.558594 140.878906 C 157.921875 141.359375 159 141.238281 159 140.519531 C 159 139.679688 158.519531 135.480469 158.519531 135.480469 C 158.519531 135.480469 159.839844 139.800781 160.441406 140.519531 C 160.679688 140.761719 161.519531 140.519531 161.398438 139.441406 C 161.398438 139.199219 161.039062 137.878906 160.679688 136.441406 L 162.238281 138 C 162.601562 138.359375 163.320312 138.359375 163.679688 137.878906 C 163.800781 137.640625 163.800781 137.160156 163.441406 136.800781 Z M 163.441406 136.800781 "/>
<path style=" stroke:none;fill-rule:nonzero;fill:rgb(100%,100%,100%);fill-opacity:1;" d="M 98.242188 115.464844 L 112.589844 108.753906 L 112.894531 109.40625 L 98.546875 116.117188 Z M 98.242188 115.464844 "/>
<path style="fill:none;stroke-width:0.646;stroke-linecap:round;stroke-linejoin:round;stroke:rgb(0%,1.568628%,14.509805%);stroke-opacity:1;stroke-miterlimit:10;" d="M 91.901042 85.100911 L 94.700521 93.19987 L 83.001302 98.60026 L 79.101562 90.898438 " transform="matrix(1.2,0,0,1.2,0,0)"/>
<path style="fill:none;stroke-width:0.646;stroke-linecap:round;stroke-linejoin:round;stroke:rgb(0%,10.588235%,14.509805%);stroke-opacity:1;stroke-miterlimit:10;" d="M 278.499349 230.800781 L 21.500651 230.800781 " transform="matrix(1.2,0,0,1.2,0,0)"/>
</g>
</svg>
