<?xml version="1.0" encoding="UTF-8"?>
<svg xmlns="http://www.w3.org/2000/svg" xmlns:xlink="http://www.w3.org/1999/xlink" width="350px" height="252px" viewBox="0 0 349 252" version="1.1">
<defs>
<clipPath id="clip1">
  <path d="M 225 126 L 244 126 L 244 137 L 225 137 Z M 225 126 "/>
</clipPath>
<clipPath id="clip2">
  <path d="M 241.09375 126.851562 C 237.441406 124.738281 231.519531 124.738281 227.867188 126.851562 C 224.214844 128.964844 224.214844 132.394531 227.867188 134.507812 C 231.519531 136.621094 237.441406 136.621094 241.09375 134.507812 C 244.746094 132.394531 244.746094 128.964844 241.09375 126.851562 Z M 241.09375 126.851562 "/>
</clipPath>
<clipPath id="clip3">
  <path d="M 226 121 L 246 121 L 246 132 L 226 132 Z M 226 121 "/>
</clipPath>
<clipPath id="clip4">
  <path d="M 242.433594 122.640625 C 238.78125 120.527344 232.859375 120.527344 229.207031 122.640625 C 225.554688 124.753906 225.554688 128.183594 229.207031 130.296875 C 232.859375 132.410156 238.78125 132.410156 242.433594 130.296875 C 246.085938 128.183594 246.085938 124.753906 242.433594 122.640625 Z M 242.433594 122.640625 "/>
</clipPath>
</defs>
<g id="surface1">
<path style=" stroke:none;fill-rule:evenodd;fill:rgb(6.27451%,19.607843%,24.313726%);fill-opacity:1;" d="M 106.925781 42.914062 C 106.925781 42.914062 99.945312 49.390625 92 53.050781 C 84.054688 56.710938 79.878906 60.996094 83.507812 68.929688 C 83.507812 68.929688 76.496094 74.535156 88.253906 83.863281 C 100.011719 93.1875 110.988281 91.523438 116.003906 88.222656 C 116.003906 88.222656 132.058594 84.65625 137.257812 78.480469 C 142.457031 72.304688 139.574219 70.25 140.164062 62.964844 C 140.757812 55.679688 106.925781 42.914062 106.925781 42.914062 Z M 106.925781 42.914062 "/>
<path style=" stroke:none;fill-rule:evenodd;fill:rgb(6.27451%,19.607843%,24.313726%);fill-opacity:1;" d="M 132.621094 165.40625 C 132.621094 165.40625 130.605469 173.136719 132.621094 175.324219 C 134.640625 177.511719 139.574219 179.527344 144.835938 179.894531 C 149.441406 180.21875 151.09375 176.375 147.035156 173.160156 C 142.976562 169.945312 140.265625 168.761719 140.441406 164.144531 Z M 132.621094 165.40625 "/>
<path style=" stroke:none;fill-rule:evenodd;fill:rgb(4.705882%,65.098041%,85.882354%);fill-opacity:1;" d="M 138.472656 102.007812 C 138.472656 102.007812 144.628906 152.675781 147.035156 165.304688 C 147.035156 165.304688 132.160156 172.191406 122.609375 166.082031 C 122.609375 166.082031 117.523438 122.15625 118.292969 104.234375 Z M 138.472656 102.007812 "/>
<path style=" stroke:none;fill-rule:evenodd;fill:rgb(6.27451%,19.607843%,24.313726%);fill-opacity:1;" d="M 138.804688 104.710938 L 139.808594 112.816406 C 139.808594 112.816406 129.0625 119.78125 118.324219 116.292969 L 118.210938 106.984375 Z M 138.804688 104.710938 "/>
<path style=" stroke:none;fill-rule:evenodd;fill:rgb(6.27451%,19.607843%,24.313726%);fill-opacity:1;" d="M 95.238281 162.648438 C 95.238281 162.648438 91.386719 169.640625 92.804688 172.257812 C 94.222656 174.875 98.511719 178.042969 103.519531 179.699219 C 107.90625 181.148438 110.449219 177.828125 107.304688 173.710938 C 104.15625 169.597656 101.820312 167.785156 103.125 163.351562 Z M 95.238281 162.648438 "/>
<path style=" stroke:none;fill-rule:evenodd;fill:rgb(4.705882%,65.098041%,85.882354%);fill-opacity:1;" d="M 116.464844 102.65625 C 116.464844 102.65625 109.996094 153.269531 109.230469 166.101562 C 109.230469 166.101562 93.125 169.105469 85.367188 160.832031 C 85.367188 160.832031 91.847656 112.902344 96.085938 94.859375 Z M 116.464844 102.65625 "/>
<path style=" stroke:none;fill-rule:evenodd;fill:rgb(6.27451%,19.607843%,24.313726%);fill-opacity:1;" d="M 116.472656 101.539062 L 114.691406 113.863281 C 114.691406 113.863281 103.398438 111.785156 93.84375 105.75 L 95.675781 95.09375 Z M 116.472656 101.539062 "/>
<path style=" stroke:none;fill-rule:evenodd;fill:rgb(38.82353%,78.431374%,92.941177%);fill-opacity:1;" d="M 140.128906 65.347656 C 142.953125 70.066406 148.515625 77.6875 150.996094 79.191406 C 154.457031 81.28125 163.703125 74.628906 163.703125 74.628906 C 163.703125 74.628906 172.464844 81.453125 171.242188 88.863281 C 171.242188 88.863281 163.972656 96.671875 153.996094 96.378906 C 144.015625 96.089844 138.890625 93.226562 133.257812 82.691406 C 127.628906 72.152344 128.464844 67.648438 128.464844 67.648438 Z M 140.128906 65.347656 "/>
<path style=" stroke:none;fill-rule:evenodd;fill:rgb(52.941179%,86.666667%,99.215686%);fill-opacity:1;" d="M 165.871094 85.980469 C 165.871094 85.980469 162.285156 81.515625 163.21875 76.886719 C 163.21875 76.886719 166.972656 73.417969 168.894531 71.925781 C 170.820312 70.429688 173.960938 71.734375 176.492188 73.121094 C 179.28125 74.652344 180.125 75.195312 179.417969 76.898438 C 178.703125 78.597656 171.804688 86.871094 165.871094 85.980469 Z M 165.871094 85.980469 "/>
<path style=" stroke:none;fill-rule:evenodd;fill:rgb(6.27451%,19.607843%,24.313726%);fill-opacity:1;" d="M 165.851562 68.597656 C 165.851562 68.597656 177.59375 77.425781 179.726562 79.210938 C 180.863281 80.160156 182.363281 82.050781 181.9375 82.703125 C 181.566406 83.269531 179.304688 82.4375 178.378906 81.828125 C 177.039062 80.949219 164.242188 70.910156 164.242188 70.910156 C 164.242188 70.910156 162.453125 68.3125 165.851562 68.597656 Z M 165.851562 68.597656 "/>
<path style=" stroke:none;fill-rule:evenodd;fill:rgb(52.941179%,86.666667%,99.215686%);fill-opacity:1;" d="M 166.371094 80.867188 C 166.371094 80.867188 168.601562 81.0625 170.675781 78.652344 C 170.675781 78.652344 176.171875 79.023438 175.96875 76.980469 C 175.765625 74.941406 172.78125 74.09375 169.664062 74.5625 C 166.539062 75.03125 164.382812 77.125 164.382812 77.125 Z M 166.371094 80.867188 "/>
<path style=" stroke:none;fill-rule:evenodd;fill:rgb(6.27451%,19.607843%,24.313726%);fill-opacity:1;" d="M 141.546875 74.714844 C 141.546875 74.714844 144.042969 84.132812 142.574219 88.445312 C 141.105469 92.757812 138.894531 93.945312 137.738281 92.710938 C 136.574219 91.476562 137.738281 85.113281 137.738281 85.113281 Z M 141.546875 74.714844 "/>
<path style=" stroke:none;fill-rule:evenodd;fill:rgb(38.82353%,78.431374%,92.941177%);fill-opacity:1;" d="M 113.695312 57.671875 L 135.515625 58.953125 C 135.515625 58.953125 142.675781 66.726562 142.53125 73.292969 C 142.40625 78.882812 139.648438 84.050781 139.648438 84.050781 L 143.9375 106.785156 C 143.9375 106.785156 129.40625 113.296875 114.714844 108.371094 C 100.023438 103.445312 91.617188 93.960938 91.617188 93.960938 Z M 113.695312 57.671875 "/>
<path style=" stroke:none;fill-rule:evenodd;fill:rgb(6.27451%,19.607843%,24.313726%);fill-opacity:1;" d="M 114.820312 60.335938 C 114.820312 60.335938 119.261719 69.605469 125.933594 71.265625 C 132.605469 72.921875 136.652344 70.355469 136.003906 66.234375 C 135.355469 62.113281 114.820312 60.335938 114.820312 60.335938 Z M 114.820312 60.335938 "/>
<path style=" stroke:none;fill-rule:evenodd;fill:rgb(6.27451%,19.607843%,24.313726%);fill-opacity:1;" d="M 112.785156 74.0625 L 104.25 86.886719 C 104.25 86.886719 107.355469 102.382812 102.160156 105.40625 C 102.160156 105.40625 96.488281 100.460938 91.621094 93.910156 L 105.472656 69.949219 Z M 112.785156 74.0625 "/>
<path style=" stroke:none;fill-rule:evenodd;fill:rgb(38.82353%,78.431374%,92.941177%);fill-opacity:1;" d="M 115.328125 73.761719 C 110.195312 75.714844 101.726562 79.851562 99.8125 82.035156 C 97.148438 85.078125 102.046875 95.378906 102.046875 95.378906 C 102.046875 95.378906 93.792969 102.816406 86.734375 100.296875 C 86.734375 100.296875 80.351562 91.742188 82.402344 81.953125 C 84.457031 72.160156 88.171875 67.609375 99.515625 63.917969 C 110.855469 60.226562 115.132812 61.847656 115.132812 61.847656 Z M 115.328125 73.761719 "/>
<path style=" stroke:none;fill-rule:evenodd;fill:rgb(52.941179%,86.666667%,99.215686%);fill-opacity:1;" d="M 90.640625 96.878906 C 90.640625 96.878906 95.65625 94.128906 100.035156 95.871094 C 100.035156 95.871094 102.777344 100.1875 103.902344 102.347656 C 105.03125 104.511719 103.195312 107.378906 101.382812 109.628906 C 99.390625 112.113281 98.703125 112.847656 97.160156 111.847656 C 95.617188 110.84375 97.9375 107.625 97.9375 107.625 C 97.9375 107.625 95.136719 109.875 93.980469 108.371094 C 92.824219 106.863281 95.460938 104.15625 95.460938 104.15625 C 95.460938 104.15625 92.664062 107.378906 90.820312 105.542969 C 90.203125 104.933594 91.640625 102.1875 91.640625 102.1875 C 91.640625 102.1875 89.160156 99.929688 90.640625 96.878906 Z M 90.640625 96.878906 "/>
<path style=" stroke:none;fill-rule:evenodd;fill:rgb(52.941179%,86.666667%,99.215686%);fill-opacity:1;" d="M 111.664062 49.558594 C 111.664062 39.03125 120.179688 30.496094 130.679688 30.496094 C 141.183594 30.496094 149.695312 39.03125 149.695312 49.558594 C 149.695312 60.085938 141.183594 68.621094 130.679688 68.621094 C 120.179688 68.621094 111.664062 60.085938 111.664062 49.558594 Z M 111.664062 49.558594 "/>
<path style=" stroke:none;fill-rule:evenodd;fill:rgb(6.27451%,19.607843%,24.313726%);fill-opacity:1;" d="M 115.035156 30.921875 C 115.035156 30.921875 120.953125 20.09375 130.125 21.289062 C 139.296875 22.488281 140.046875 26.542969 140.046875 26.542969 C 140.046875 26.542969 147.609375 21.730469 155.257812 28.90625 C 162.90625 36.082031 157.96875 47.257812 148.195312 45.886719 C 148.195312 45.886719 144.011719 51.984375 137.574219 47.558594 C 137.574219 47.558594 129.929688 54.050781 125.605469 46 C 125.605469 46 124.988281 50.035156 120.070312 49.957031 C 120.070312 49.957031 120.933594 42.46875 115.40625 44.160156 C 109.875 45.851562 111.613281 53.089844 116.085938 54.820312 C 116.871094 60.480469 110.617188 68.210938 101.550781 61.609375 C 93.914062 56.046875 97.785156 46.5625 103.660156 45.289062 C 103.660156 45.289062 99.691406 28.53125 115.035156 30.921875 Z M 115.035156 30.921875 "/>
<path style=" stroke:none;fill-rule:evenodd;fill:rgb(76.47059%,91.764706%,97.647059%);fill-opacity:1;" d="M 257.753906 177.339844 C 262.726562 182.105469 265.507812 187.4375 265.507812 193.058594 C 265.507812 213.273438 229.570312 229.683594 185.300781 229.683594 C 141.03125 229.683594 105.089844 213.273438 105.089844 193.058594 C 105.089844 172.847656 141.03125 156.4375 185.300781 156.4375 C 207.328125 156.4375 227.292969 160.5 241.796875 167.074219 L 252.726562 160.75 C 259.65625 164.757812 265.101562 169.542969 268.726562 174.808594 Z M 257.753906 177.339844 "/>
<path style=" stroke:none;fill-rule:evenodd;fill:rgb(4.705882%,65.098041%,85.882354%);fill-opacity:1;" d="M 112.96875 170.566406 C 116.3125 166.777344 120.726562 163.222656 126.203125 160.050781 C 154.359375 143.757812 200.011719 143.757812 228.167969 160.050781 L 126.203125 219.0625 C 112.21875 210.972656 105.1875 200.371094 105.097656 189.757812 L 105.097656 170.566406 Z M 112.96875 170.566406 "/>
<path style=" stroke:none;fill-rule:evenodd;fill:rgb(38.82353%,78.431374%,92.941177%);fill-opacity:1;" d="M 228.167969 141.730469 C 200.011719 125.433594 154.359375 125.433594 126.203125 141.730469 C 98.066406 158.015625 98.066406 184.457031 126.203125 200.742188 Z M 228.167969 141.730469 "/>
<path style=" stroke:none;fill-rule:evenodd;fill:rgb(52.941179%,86.666667%,99.215686%);fill-opacity:1;" d="M 253.714844 137.027344 C 250.089844 131.761719 244.648438 126.972656 237.71875 122.964844 L 186.734375 152.46875 Z M 253.714844 137.027344 "/>
<path style=" stroke:none;fill-rule:evenodd;fill:rgb(16.862746%,72.156864%,92.156863%);fill-opacity:1;" d="M 253.714844 137.027344 L 186.742188 152.464844 L 186.742188 174.203125 L 253.714844 158.765625 Z M 253.714844 137.027344 "/>
<path style=" stroke:none;fill-rule:evenodd;fill:rgb(38.82353%,78.431374%,92.941177%);fill-opacity:1;" d="M 226.304688 128.949219 C 229.027344 127.375 232.316406 131.148438 235.855469 131.472656 C 238.175781 131.6875 240.867188 127.914062 242.65625 128.949219 C 247.171875 131.5625 247.167969 135.800781 242.65625 138.414062 C 238.144531 141.023438 230.816406 141.027344 226.300781 138.414062 C 221.789062 135.800781 221.792969 131.5625 226.304688 128.949219 Z M 226.304688 128.949219 "/>
<path style=" stroke:none;fill-rule:evenodd;fill:rgb(38.82353%,78.431374%,92.941177%);fill-opacity:1;" d="M 225.1875 130.683594 L 234.480469 134.871094 L 222.917969 133.683594 L 222.917969 130.683594 Z M 246.042969 130.734375 L 246.042969 133.851562 L 238.148438 136.738281 L 243.625 130.734375 Z M 246.042969 130.734375 "/>
<path style=" stroke:none;fill-rule:evenodd;fill:rgb(67.058825%,80.784315%,85.882354%);fill-opacity:1;" d="M 242.65625 125.945312 C 238.140625 123.332031 230.816406 123.332031 226.300781 125.945312 C 221.785156 128.558594 221.785156 132.796875 226.300781 135.410156 C 230.816406 138.023438 238.140625 138.023438 242.65625 135.410156 C 247.171875 132.796875 247.171875 128.558594 242.65625 125.945312 Z M 242.65625 125.945312 "/>
<path style=" stroke:none;fill-rule:evenodd;fill:rgb(38.82353%,78.431374%,92.941177%);fill-opacity:1;" d="M 241.09375 126.851562 C 237.441406 124.738281 231.519531 124.738281 227.867188 126.851562 C 224.214844 128.964844 224.214844 132.394531 227.867188 134.507812 C 231.519531 136.621094 237.441406 136.621094 241.09375 134.507812 C 244.746094 132.394531 244.746094 128.964844 241.09375 126.851562 Z M 241.09375 126.851562 "/>
<g clip-path="url(#clip1)" clip-rule="nonzero">
<g clip-path="url(#clip2)" clip-rule="evenodd">
<path style=" stroke:none;fill-rule:evenodd;fill:rgb(67.058825%,80.784315%,85.882354%);fill-opacity:1;" d="M 241.09375 127.71875 C 237.441406 125.601562 231.519531 125.601562 227.867188 127.71875 C 224.214844 129.832031 224.214844 133.257812 227.867188 135.371094 C 231.519531 137.488281 237.441406 137.488281 241.09375 135.371094 C 244.746094 133.257812 244.746094 129.832031 241.09375 127.71875 Z M 241.09375 127.71875 "/>
</g>
</g>
<path style=" stroke:none;fill-rule:evenodd;fill:rgb(38.82353%,78.431374%,92.941177%);fill-opacity:1;" d="M 227.644531 124.738281 C 230.367188 123.164062 233.65625 126.9375 237.195312 127.265625 C 239.515625 127.476562 242.207031 123.703125 243.996094 124.738281 C 248.511719 127.351562 248.507812 131.589844 243.996094 134.203125 C 239.484375 136.8125 232.15625 136.816406 227.640625 134.203125 C 223.128906 131.589844 223.132812 127.351562 227.644531 124.738281 Z M 227.644531 124.738281 "/>
<path style=" stroke:none;fill-rule:evenodd;fill:rgb(38.82353%,78.431374%,92.941177%);fill-opacity:1;" d="M 226.527344 126.472656 L 235.820312 130.660156 L 224.257812 129.472656 L 224.257812 126.472656 Z M 247.382812 126.523438 L 247.382812 129.640625 L 239.488281 132.527344 L 244.96875 126.523438 Z M 247.382812 126.523438 "/>
<path style=" stroke:none;fill-rule:evenodd;fill:rgb(67.058825%,80.784315%,85.882354%);fill-opacity:1;" d="M 243.996094 121.734375 C 239.480469 119.121094 232.15625 119.121094 227.640625 121.734375 C 223.125 124.347656 223.125 128.585938 227.640625 131.199219 C 232.15625 133.8125 239.480469 133.8125 243.996094 131.199219 C 248.511719 128.585938 248.511719 124.351562 243.996094 121.734375 Z M 243.996094 121.734375 "/>
<path style=" stroke:none;fill-rule:evenodd;fill:rgb(38.82353%,78.431374%,92.941177%);fill-opacity:1;" d="M 242.433594 122.640625 C 238.78125 120.527344 232.859375 120.527344 229.207031 122.640625 C 225.554688 124.753906 225.554688 128.183594 229.207031 130.296875 C 232.859375 132.410156 238.78125 132.410156 242.433594 130.296875 C 246.085938 128.183594 246.085938 124.753906 242.433594 122.640625 Z M 242.433594 122.640625 "/>
<g clip-path="url(#clip3)" clip-rule="nonzero">
<g clip-path="url(#clip4)" clip-rule="evenodd">
<path style=" stroke:none;fill-rule:evenodd;fill:rgb(67.058825%,80.784315%,85.882354%);fill-opacity:1;" d="M 242.433594 123.507812 C 238.78125 121.394531 232.859375 121.394531 229.207031 123.507812 C 225.554688 125.621094 225.554688 129.046875 229.207031 131.164062 C 232.859375 133.277344 238.78125 133.277344 242.433594 131.164062 C 246.085938 129.046875 246.085938 125.621094 242.433594 123.507812 Z M 242.433594 123.507812 "/>
</g>
</g>
<path style=" stroke:none;fill-rule:evenodd;fill:rgb(4.705882%,65.098041%,85.882354%);fill-opacity:1;" d="M 228.167969 177.804688 L 228.167969 170.96875 L 249.289062 170.96875 L 249.289062 190.042969 L 249.285156 190.042969 C 249.066406 200.738281 241.742188 211.207031 228.167969 219.0625 C 200.03125 235.351562 154.339844 235.351562 126.203125 219.0625 L 126.203125 200.742188 L 177.183594 189.558594 Z M 228.167969 177.804688 "/>
<path style=" stroke:none;fill-rule:evenodd;fill:rgb(38.82353%,78.431374%,92.941177%);fill-opacity:1;" d="M 126.203125 200.742188 C 154.339844 217.027344 200.03125 217.027344 228.167969 200.742188 C 248.535156 188.953125 254.828125 171.28125 244.167969 155.792969 L 177.1875 171.238281 Z M 126.203125 200.742188 "/>
<path style=" stroke:none;fill-rule:evenodd;fill:rgb(6.27451%,19.607843%,24.313726%);fill-opacity:1;" d="M 116.140625 164.09375 L 159.191406 139.175781 L 182.550781 152.699219 L 139.5 177.613281 Z M 116.140625 164.09375 "/>
<path style=" stroke:none;fill-rule:evenodd;fill:rgb(52.941179%,86.666667%,99.215686%);fill-opacity:1;" d="M 116.136719 164.09375 L 139.5 177.613281 L 139.5 185.863281 L 116.136719 172.34375 Z M 116.136719 164.09375 "/>
<path style=" stroke:none;fill-rule:evenodd;fill:rgb(16.862746%,72.156864%,92.156863%);fill-opacity:1;" d="M 139.5 177.617188 L 182.550781 152.703125 L 182.550781 160.953125 L 139.5 185.867188 Z M 139.5 177.617188 "/>
<path style=" stroke:none;fill-rule:evenodd;fill:rgb(76.47059%,91.764706%,97.647059%);fill-opacity:1;" d="M 158.722656 166.894531 L 163.78125 163.96875 L 163.78125 171.8125 L 158.722656 174.742188 Z M 158.722656 166.894531 "/>
<path style=" stroke:none;fill-rule:evenodd;fill:rgb(94.901961%,96.470588%,96.862745%);fill-opacity:1;" d="M 133.835938 152.464844 L 138.871094 149.550781 L 163.78125 163.96875 L 158.746094 166.882812 Z M 133.835938 152.464844 "/>
<path style=" stroke:none;fill-rule:evenodd;fill:rgb(16.862746%,72.156864%,92.156863%);fill-opacity:1;" d="M 113.898438 155.875 L 156.949219 130.957031 L 180.3125 144.476562 L 137.261719 169.394531 Z M 113.898438 155.875 "/>
<path style=" stroke:none;fill-rule:evenodd;fill:rgb(6.27451%,19.607843%,24.313726%);fill-opacity:1;" d="M 156.945312 130.960938 L 116.136719 154.578125 C 122.515625 160.210938 131.527344 163.984375 139.761719 168.25 L 180.660156 144.683594 Z M 156.945312 130.960938 "/>
<path style=" stroke:none;fill-rule:evenodd;fill:rgb(52.941179%,86.666667%,99.215686%);fill-opacity:1;" d="M 113.898438 155.875 L 137.257812 169.394531 L 137.257812 177.644531 L 113.898438 164.125 Z M 113.898438 155.875 "/>
<path style=" stroke:none;fill-rule:evenodd;fill:rgb(16.862746%,72.156864%,92.156863%);fill-opacity:1;" d="M 137.257812 169.398438 L 180.308594 144.484375 L 180.308594 152.734375 L 137.257812 177.648438 Z M 137.257812 169.398438 "/>
<path style=" stroke:none;fill-rule:evenodd;fill:rgb(76.47059%,91.764706%,97.647059%);fill-opacity:1;" d="M 156.480469 158.675781 L 161.542969 155.746094 L 161.542969 163.59375 L 156.480469 166.523438 Z M 156.480469 158.675781 "/>
<path style=" stroke:none;fill-rule:evenodd;fill:rgb(52.941179%,86.666667%,99.215686%);fill-opacity:1;" d="M 155.867188 129.171875 C 143.699219 138.648438 131.039062 146.15625 112.859375 150.449219 C 118.949219 156.65625 127.589844 161.367188 136.394531 165.984375 C 151.488281 161.800781 166.25 154.03125 180.3125 143.320312 Z M 155.867188 129.171875 "/>
<path style=" stroke:none;fill-rule:evenodd;fill:rgb(16.862746%,72.156864%,92.156863%);fill-opacity:1;" d="M 154.863281 145.066406 C 150.285156 142.417969 142.859375 142.417969 138.28125 145.066406 C 133.699219 147.71875 133.699219 152.015625 138.28125 154.664062 C 142.859375 157.316406 150.285156 157.316406 154.863281 154.664062 C 159.441406 152.015625 159.441406 147.71875 154.863281 145.066406 Z M 154.863281 145.066406 "/>
<path style=" stroke:none;fill-rule:evenodd;fill:rgb(16.862746%,72.156864%,92.156863%);fill-opacity:1;" d="M 135.097656 154.542969 C 135.222656 154.722656 130.222656 157.074219 128.683594 157.335938 L 130.136719 158.648438 C 130.136719 158.648438 133.945312 157.363281 136.761719 155.507812 Z M 135.097656 154.542969 "/>
<path style=" stroke:none;fill-rule:evenodd;fill:rgb(16.862746%,72.156864%,92.156863%);fill-opacity:1;" d="M 162.195312 138.898438 C 162.320312 139.074219 158.09375 141.972656 156.480469 142.691406 L 157.929688 144 C 157.929688 144 161.425781 142.421875 163.859375 139.859375 Z M 162.195312 138.898438 "/>
<path style=" stroke:none;fill-rule:evenodd;fill:rgb(94.901961%,96.470588%,96.862745%);fill-opacity:1;" d="M 131.59375 144.246094 L 136.628906 141.332031 L 161.539062 155.75 L 156.503906 158.664062 Z M 131.59375 144.246094 "/>
<path style=" stroke:none;fill-rule:evenodd;fill:rgb(76.47059%,91.764706%,97.647059%);fill-opacity:1;" d="M 88.644531 184.496094 C 88.644531 182.664062 85.164062 181.175781 80.871094 181.175781 C 76.578125 181.175781 73.097656 182.664062 73.097656 184.496094 C 73.097656 186.332031 76.578125 187.820312 80.871094 187.820312 C 85.164062 187.820312 88.644531 186.332031 88.644531 184.496094 Z M 88.644531 184.496094 "/>
<path style=" stroke:none;fill-rule:evenodd;fill:rgb(76.47059%,91.764706%,97.647059%);fill-opacity:1;" d="M 97.003906 189.539062 C 97.003906 187.253906 92.308594 185.40625 86.519531 185.40625 C 80.726562 185.40625 76.03125 187.253906 76.03125 189.539062 C 76.03125 191.820312 80.726562 193.671875 86.519531 193.671875 C 92.308594 193.671875 97.003906 191.820312 97.003906 189.539062 Z M 97.003906 189.539062 "/>
<path style=" stroke:none;fill-rule:evenodd;fill:rgb(16.862746%,72.156864%,92.156863%);fill-opacity:1;" d="M 75.898438 180.925781 C 73.011719 177.496094 64.335938 170.128906 66.945312 164.082031 C 69.359375 158.492188 75.867188 163.621094 78.246094 168.5625 C 78.246094 168.5625 69.398438 146.992188 76.796875 144.628906 C 84.195312 142.265625 85.351562 157.464844 85.574219 163.847656 C 85.574219 163.847656 89.015625 150.195312 94.664062 153.316406 C 100.308594 156.433594 90.257812 178.980469 90.257812 178.980469 C 89.722656 181.011719 87.503906 183.804688 84.257812 184.664062 C 81.570312 185.375 77.863281 183.261719 75.898438 180.925781 Z M 75.898438 180.925781 "/>
<path style=" stroke:none;fill-rule:evenodd;fill:rgb(94.901961%,96.470588%,96.862745%);fill-opacity:1;" d="M 78.546875 149.917969 C 78.503906 149.703125 78.644531 149.496094 78.859375 149.457031 C 79.074219 149.414062 79.28125 149.554688 79.324219 149.769531 C 79.324219 149.769531 84.082031 174.730469 84.183594 184.898438 C 84.183594 185.117188 84.007812 185.296875 83.792969 185.296875 C 83.574219 185.300781 83.394531 185.125 83.390625 184.90625 C 83.292969 174.78125 78.546875 149.917969 78.546875 149.917969 Z M 78.546875 149.917969 "/>
<path style=" stroke:none;fill-rule:evenodd;fill:rgb(94.901961%,96.470588%,96.862745%);fill-opacity:1;" d="M 72.996094 169.09375 C 72.894531 168.898438 72.976562 168.660156 73.171875 168.5625 C 73.367188 168.464844 73.601562 168.542969 73.703125 168.738281 C 73.703125 168.738281 75.378906 172.078125 77.886719 174.960938 C 79.519531 176.839844 81.5 178.535156 83.609375 178.914062 C 83.824219 178.953125 83.96875 179.160156 83.929688 179.375 C 83.890625 179.589844 83.683594 179.734375 83.46875 179.695312 C 81.203125 179.285156 79.046875 177.5 77.289062 175.484375 C 74.714844 172.523438 72.996094 169.09375 72.996094 169.09375 Z M 83.285156 174.277344 C 83.109375 174.40625 82.863281 174.367188 82.734375 174.191406 C 82.605469 174.011719 82.644531 173.765625 82.820312 173.636719 C 82.820312 173.636719 90.164062 168.28125 91.625 160.960938 C 91.667969 160.746094 91.878906 160.609375 92.09375 160.652344 C 92.304688 160.695312 92.445312 160.902344 92.402344 161.117188 C 90.886719 168.710938 83.285156 174.277344 83.285156 174.277344 Z M 83.285156 174.277344 "/>
<path style=" stroke:none;fill-rule:evenodd;fill:rgb(6.27451%,19.607843%,24.313726%);fill-opacity:1;" d="M 87.539062 178.1875 C 92.226562 178.136719 90.933594 181.378906 93.882812 183.289062 C 96.582031 185.039062 96.523438 188.867188 92.195312 189.65625 C 87.863281 190.445312 84.191406 190.320312 81.199219 189.414062 C 75.796875 187.773438 76.871094 183.914062 80.328125 182.789062 C 83.183594 181.855469 84.0625 178.226562 87.539062 178.1875 Z M 87.539062 178.1875 "/>
<path style=" stroke:none;fill-rule:evenodd;fill:rgb(76.47059%,91.764706%,97.647059%);fill-opacity:1;" d="M 89.847656 181.605469 C 89.847656 181.027344 89.363281 180.558594 88.765625 180.558594 C 88.167969 180.558594 87.683594 181.027344 87.683594 181.605469 C 87.683594 182.179688 88.167969 182.648438 88.765625 182.648438 C 89.363281 182.648438 89.847656 182.179688 89.847656 181.605469 Z M 89.847656 181.605469 "/>
<path style=" stroke:none;fill-rule:evenodd;fill:rgb(76.47059%,91.764706%,97.647059%);fill-opacity:1;" d="M 90.9375 183.390625 C 90.9375 183.113281 90.695312 182.890625 90.394531 182.890625 C 90.09375 182.890625 89.847656 183.113281 89.847656 183.390625 C 89.847656 183.664062 90.09375 183.890625 90.394531 183.890625 C 90.695312 183.890625 90.9375 183.664062 90.9375 183.390625 Z M 90.9375 183.390625 "/>
<path style=" stroke:none;fill-rule:evenodd;fill:rgb(4.705882%,65.098041%,85.882354%);fill-opacity:1;" d="M 259.253906 74.320312 C 259.253906 57.507812 245.652344 43.875 228.878906 43.875 C 212.105469 43.875 198.503906 57.507812 198.503906 74.320312 C 198.503906 91.136719 212.105469 104.769531 228.878906 104.769531 C 245.652344 104.769531 259.253906 91.136719 259.253906 74.320312 Z M 259.253906 74.320312 "/>
<path style=" stroke:none;fill-rule:nonzero;fill:rgb(94.901961%,96.470588%,96.862745%);fill-opacity:1;" d="M 218.289062 86.757812 L 235.246094 61.882812 L 239.457031 61.882812 L 222.515625 86.757812 Z M 220.460938 75.3125 C 219.25 75.3125 218.1875 75.03125 217.269531 74.484375 C 216.339844 73.921875 215.617188 73.121094 215.085938 72.101562 C 214.554688 71.066406 214.289062 69.851562 214.289062 68.457031 C 214.289062 67.066406 214.554688 65.851562 215.085938 64.832031 C 215.617188 63.808594 216.339844 63.023438 217.269531 62.445312 C 218.1875 61.882812 219.25 61.601562 220.460938 61.601562 C 221.65625 61.601562 222.722656 61.882812 223.652344 62.445312 C 224.566406 63.023438 225.292969 63.808594 225.808594 64.832031 C 226.324219 65.851562 226.589844 67.066406 226.589844 68.457031 C 226.589844 69.851562 226.324219 71.066406 225.808594 72.101562 C 225.292969 73.121094 224.566406 73.921875 223.652344 74.484375 C 222.722656 75.03125 221.65625 75.3125 220.460938 75.3125 Z M 220.460938 72.398438 C 221.246094 72.398438 221.863281 72.070312 222.335938 71.421875 C 222.808594 70.769531 223.046875 69.792969 223.046875 68.457031 C 223.046875 67.125 222.808594 66.132812 222.335938 65.496094 C 221.863281 64.847656 221.246094 64.519531 220.460938 64.519531 C 219.707031 64.519531 219.085938 64.847656 218.601562 65.496094 C 218.113281 66.132812 217.875 67.125 217.875 68.457031 C 217.875 69.761719 218.113281 70.738281 218.601562 71.40625 C 219.085938 72.070312 219.707031 72.398438 220.460938 72.398438 Z M 237.300781 87.039062 C 236.117188 87.039062 235.054688 86.757812 234.125 86.210938 C 233.195312 85.648438 232.46875 84.863281 231.9375 83.828125 C 231.421875 82.792969 231.171875 81.578125 231.171875 80.183594 C 231.171875 78.777344 231.421875 77.578125 231.9375 76.558594 C 232.46875 75.535156 233.195312 74.75 234.125 74.175781 C 235.054688 73.609375 236.117188 73.328125 237.300781 73.328125 C 238.527344 73.328125 239.605469 73.609375 240.519531 74.175781 C 241.449219 74.75 242.160156 75.535156 242.691406 76.558594 C 243.207031 77.578125 243.460938 78.777344 243.460938 80.183594 C 243.460938 81.578125 243.207031 82.792969 242.691406 83.828125 C 242.160156 84.863281 241.449219 85.648438 240.519531 86.210938 C 239.605469 86.757812 238.527344 87.039062 237.300781 87.039062 Z M 237.300781 84.125 C 238.082031 84.125 238.703125 83.796875 239.175781 83.148438 C 239.648438 82.496094 239.886719 81.519531 239.886719 80.183594 C 239.886719 78.882812 239.648438 77.90625 239.175781 77.238281 C 238.703125 76.574219 238.082031 76.246094 237.300781 76.246094 C 236.546875 76.246094 235.925781 76.558594 235.4375 77.210938 C 234.953125 77.875 234.714844 78.851562 234.714844 80.183594 C 234.714844 81.519531 234.953125 82.496094 235.4375 83.148438 C 235.925781 83.796875 236.546875 84.125 237.300781 84.125 Z M 237.300781 84.125 "/>
<path style=" stroke:none;fill-rule:evenodd;fill:rgb(4.705882%,65.098041%,85.882354%);fill-opacity:1;" d="M 231.652344 112.132812 C 231.105469 113.15625 230.039062 113.796875 228.878906 113.796875 C 227.722656 113.796875 226.65625 113.15625 226.109375 112.132812 C 222.0625 104.578125 215.019531 91.417969 215.019531 91.417969 L 242.746094 91.417969 C 242.746094 91.417969 235.695312 104.578125 231.652344 112.132812 Z M 231.652344 112.132812 "/>
</g>
</svg>
