<?xml version="1.0" encoding="UTF-8"?>
<svg xmlns="http://www.w3.org/2000/svg" xmlns:xlink="http://www.w3.org/1999/xlink" width="360px" height="260px" viewBox="0 0 361 260" version="1.1">
<g id="surface1">
<path style=" stroke:none;fill-rule:evenodd;fill:rgb(76.47059%,91.764706%,97.647059%);fill-opacity:1;" d="M 151.203125 226.320312 L 210.03125 192.34375 L 256.222656 219.019531 L 197.394531 252.996094 Z M 151.203125 226.320312 "/>
<path style=" stroke:none;fill-rule:evenodd;fill:rgb(76.47059%,91.764706%,97.647059%);fill-opacity:1;" d="M 101.902344 214.507812 L 160.730469 180.535156 L 196.539062 201.214844 L 137.710938 235.1875 Z M 101.902344 214.507812 "/>
<path style=" stroke:none;fill-rule:evenodd;fill:rgb(76.47059%,91.764706%,97.647059%);fill-opacity:1;" d="M 252.375 208.035156 C 252.375 205.828125 256.566406 204.039062 261.738281 204.039062 C 266.910156 204.039062 271.105469 205.828125 271.105469 208.035156 C 271.105469 210.242188 266.910156 212.03125 261.738281 212.03125 C 256.566406 212.03125 252.375 210.242188 252.375 208.035156 Z M 252.375 208.035156 "/>
<path style=" stroke:none;fill-rule:evenodd;fill:rgb(76.47059%,91.764706%,97.647059%);fill-opacity:1;" d="M 242.300781 214.09375 C 242.300781 211.351562 247.957031 209.125 254.9375 209.125 C 261.914062 209.125 267.570312 211.351562 267.570312 214.09375 C 267.570312 216.839844 261.914062 219.066406 254.9375 219.066406 C 247.957031 219.066406 242.300781 216.839844 242.300781 214.09375 Z M 242.300781 214.09375 "/>
<path style=" stroke:none;fill-rule:evenodd;fill:rgb(16.862746%,72.156864%,92.156863%);fill-opacity:1;" d="M 265.613281 205.304688 C 269.90625 202.042969 282.046875 195.6875 280.570312 187.90625 C 279.199219 180.707031 270.203125 185.007812 266.105469 190.179688 C 266.105469 190.179688 282.179688 167.207031 274.101562 162.484375 C 266.023438 157.757812 260.667969 175.289062 258.730469 182.71875 C 258.730469 182.71875 258.273438 165.792969 250.8125 167.964844 C 243.355469 170.132812 249.242188 199.234375 249.242188 199.234375 C 249.339844 201.761719 251.214844 205.621094 254.804688 207.484375 C 257.773438 209.027344 262.6875 207.527344 265.613281 205.304688 Z M 265.613281 205.304688 "/>
<path style=" stroke:none;fill-rule:evenodd;fill:rgb(94.901961%,96.470588%,96.862745%);fill-opacity:1;" d="M 270.65625 168.230469 C 270.761719 167.988281 270.648438 167.707031 270.40625 167.601562 C 270.167969 167.496094 269.886719 167.609375 269.78125 167.851562 C 269.78125 167.851562 257.621094 195.882812 254.832031 207.78125 C 254.769531 208.035156 254.929688 208.292969 255.183594 208.351562 C 255.441406 208.414062 255.699219 208.253906 255.757812 207.996094 C 258.539062 196.144531 270.65625 168.230469 270.65625 168.230469 Z M 270.65625 168.230469 "/>
<path style=" stroke:none;fill-rule:evenodd;fill:rgb(94.901961%,96.470588%,96.862745%);fill-opacity:1;" d="M 272.140625 192.191406 C 272.304688 191.988281 272.277344 191.6875 272.074219 191.519531 C 271.871094 191.351562 271.570312 191.382812 271.402344 191.585938 C 271.402344 191.585938 268.550781 195.0625 264.84375 197.785156 C 262.433594 199.554688 259.65625 201.023438 257.078125 200.910156 C 256.816406 200.902344 256.59375 201.105469 256.582031 201.367188 C 256.570312 201.628906 256.773438 201.851562 257.035156 201.863281 C 259.808594 201.984375 262.8125 200.457031 265.410156 198.554688 C 269.214844 195.761719 272.140625 192.191406 272.140625 192.191406 Z M 258.675781 195.558594 C 258.851562 195.753906 259.152344 195.773438 259.351562 195.601562 C 259.546875 195.425781 259.566406 195.125 259.394531 194.929688 C 259.394531 194.929688 252.164062 186.710938 252.375 177.738281 C 252.378906 177.472656 252.171875 177.253906 251.90625 177.25 C 251.644531 177.242188 251.425781 177.453125 251.417969 177.714844 C 251.203125 187.023438 258.675781 195.558594 258.675781 195.558594 Z M 258.675781 195.558594 "/>
<path style=" stroke:none;fill-rule:evenodd;fill:rgb(6.27451%,19.607843%,24.313726%);fill-opacity:1;" d="M 256.019531 200.449219 C 261.667969 200.386719 260.109375 204.285156 263.664062 206.582031 C 266.917969 208.6875 266.84375 213.289062 261.628906 214.238281 C 256.410156 215.1875 251.988281 215.035156 248.378906 213.945312 C 241.871094 211.976562 243.167969 207.335938 247.328125 205.980469 C 250.773438 204.859375 251.832031 200.496094 256.019531 200.449219 Z M 256.019531 200.449219 "/>
<path style=" stroke:none;fill-rule:evenodd;fill:rgb(76.47059%,91.764706%,97.647059%);fill-opacity:1;" d="M 258.800781 204.554688 C 258.800781 203.863281 258.21875 203.300781 257.5 203.300781 C 256.78125 203.300781 256.195312 203.863281 256.195312 204.554688 C 256.195312 205.25 256.78125 205.8125 257.5 205.8125 C 258.21875 205.8125 258.800781 205.25 258.800781 204.554688 Z M 258.800781 204.554688 "/>
<path style=" stroke:none;fill-rule:evenodd;fill:rgb(76.47059%,91.764706%,97.647059%);fill-opacity:1;" d="M 260.113281 206.703125 C 260.113281 206.371094 259.820312 206.101562 259.460938 206.101562 C 259.097656 206.101562 258.804688 206.371094 258.804688 206.703125 C 258.804688 207.035156 259.097656 207.304688 259.460938 207.304688 C 259.820312 207.304688 260.113281 207.035156 260.113281 206.703125 Z M 260.113281 206.703125 "/>
<path style=" stroke:none;fill-rule:evenodd;fill:rgb(6.27451%,19.607843%,24.313726%);fill-opacity:1;" d="M 217.527344 43.839844 C 217.527344 43.839844 225.992188 51.671875 235.625 56.101562 C 245.257812 60.53125 250.324219 65.714844 245.921875 75.316406 C 245.921875 75.316406 254.425781 82.101562 240.167969 93.386719 C 225.914062 104.671875 212.597656 102.65625 206.519531 98.660156 C 206.519531 98.660156 187.050781 94.34375 180.746094 86.875 C 174.441406 79.402344 177.9375 76.914062 177.222656 68.097656 C 176.503906 59.28125 217.527344 43.839844 217.527344 43.839844 Z M 217.527344 43.839844 "/>
<path style=" stroke:none;fill-rule:evenodd;fill:rgb(6.27451%,19.607843%,24.313726%);fill-opacity:1;" d="M 186.367188 192.058594 C 186.367188 192.058594 188.8125 201.414062 186.367188 204.058594 C 183.921875 206.707031 177.9375 209.144531 171.558594 209.589844 C 165.972656 209.980469 163.96875 205.328125 168.890625 201.441406 C 173.816406 197.550781 177.097656 196.121094 176.886719 190.53125 Z M 186.367188 192.058594 "/>
<path style=" stroke:none;fill-rule:evenodd;fill:rgb(29.411766%,70.980394%,86.274511%);fill-opacity:1;" d="M 179.273438 115.339844 C 179.273438 115.339844 171.808594 176.65625 168.890625 191.9375 C 168.890625 191.9375 186.929688 200.269531 198.507812 192.875 C 198.507812 192.875 204.675781 139.722656 203.746094 118.035156 Z M 179.273438 115.339844 "/>
<path style=" stroke:none;fill-rule:evenodd;fill:rgb(6.27451%,19.607843%,24.313726%);fill-opacity:1;" d="M 178.871094 118.617188 L 177.652344 128.421875 C 177.652344 128.421875 190.683594 136.851562 203.707031 132.625 L 203.84375 121.363281 Z M 178.871094 118.617188 "/>
<path style=" stroke:none;fill-rule:evenodd;fill:rgb(6.27451%,19.607843%,24.313726%);fill-opacity:1;" d="M 231.699219 188.71875 C 231.699219 188.71875 236.371094 197.179688 234.648438 200.347656 C 232.929688 203.515625 227.730469 207.347656 221.65625 209.351562 C 216.339844 211.105469 213.253906 207.089844 217.066406 202.109375 C 220.882812 197.128906 223.714844 194.933594 222.136719 189.570312 Z M 231.699219 188.71875 "/>
<path style=" stroke:none;fill-rule:evenodd;fill:rgb(29.411766%,70.980394%,86.274511%);fill-opacity:1;" d="M 205.960938 116.125 C 205.960938 116.125 213.800781 177.375 214.730469 192.902344 C 214.730469 192.902344 234.261719 196.535156 243.667969 186.523438 C 243.667969 186.523438 235.808594 128.523438 230.671875 106.691406 Z M 205.960938 116.125 "/>
<path style=" stroke:none;fill-rule:evenodd;fill:rgb(6.27451%,19.607843%,24.313726%);fill-opacity:1;" d="M 205.953125 114.773438 L 208.109375 129.691406 C 208.109375 129.691406 221.804688 127.171875 233.390625 119.875 L 231.167969 106.980469 Z M 205.953125 114.773438 "/>
<path style=" stroke:none;fill-rule:evenodd;fill:rgb(38.82353%,78.431374%,92.941177%);fill-opacity:1;" d="M 177.265625 70.980469 C 173.84375 76.691406 167.097656 85.914062 164.089844 87.730469 C 159.890625 90.265625 148.679688 82.210938 148.679688 82.210938 C 148.679688 82.210938 138.054688 90.46875 139.539062 99.4375 C 139.539062 99.4375 148.355469 108.886719 160.449219 108.535156 C 172.550781 108.179688 178.765625 104.71875 185.59375 91.96875 C 192.421875 79.21875 191.410156 73.765625 191.410156 73.765625 Z M 177.265625 70.980469 "/>
<path style=" stroke:none;fill-rule:evenodd;fill:rgb(16.862746%,72.156864%,92.156863%);fill-opacity:1;" d="M 132.289062 84.03125 C 132.289062 84.03125 130.09375 90.816406 134.492188 92.695312 C 138.890625 94.570312 142.007812 91.273438 142.007812 91.273438 L 139.328125 83.46875 Z M 132.289062 84.03125 "/>
<path style=" stroke:none;fill-rule:evenodd;fill:rgb(6.27451%,19.607843%,24.313726%);fill-opacity:1;" d="M 145.410156 74.40625 C 145.410156 74.40625 131.171875 85.09375 128.585938 87.25 C 127.207031 88.398438 125.390625 90.691406 125.90625 91.476562 C 126.355469 92.164062 129.097656 91.15625 130.21875 90.417969 C 131.84375 89.355469 147.363281 77.207031 147.363281 77.207031 C 147.363281 77.207031 149.535156 74.066406 145.410156 74.40625 Z M 145.410156 74.40625 "/>
<path style=" stroke:none;fill-rule:evenodd;fill:rgb(38.431373%,80.392158%,96.078432%);fill-opacity:1;" d="M 146.050781 95.945312 C 146.050781 95.945312 150.398438 90.542969 149.265625 84.945312 C 149.265625 84.945312 144.714844 80.75 142.382812 78.941406 C 140.050781 77.132812 136.242188 78.710938 133.171875 80.390625 C 129.789062 82.242188 128.765625 82.898438 129.625 84.960938 C 130.488281 87.015625 134.820312 84.933594 134.820312 84.933594 C 134.820312 84.933594 133.574219 86.976562 135.117188 88.679688 C 136.664062 90.382812 139.070312 88.269531 139.070312 88.269531 C 139.070312 88.269531 138.855469 97.027344 146.050781 95.945312 Z M 146.050781 95.945312 "/>
<path style=" stroke:none;fill-rule:evenodd;fill:rgb(6.27451%,19.607843%,24.313726%);fill-opacity:1;" d="M 175.546875 82.316406 C 175.546875 82.316406 172.519531 93.710938 174.300781 98.929688 C 176.082031 104.152344 178.761719 105.585938 180.167969 104.09375 C 181.574219 102.597656 180.167969 94.898438 180.167969 94.898438 Z M 175.546875 82.316406 "/>
<path style=" stroke:none;fill-rule:evenodd;fill:rgb(38.82353%,78.431374%,92.941177%);fill-opacity:1;" d="M 209.316406 61.695312 L 182.859375 63.242188 C 182.859375 63.242188 174.175781 72.652344 174.355469 80.597656 C 174.503906 87.359375 177.847656 93.617188 177.847656 93.617188 L 172.644531 121.125 C 172.644531 121.125 190.269531 129 208.082031 123.042969 C 225.898438 117.082031 236.085938 105.605469 236.085938 105.605469 Z M 209.316406 61.695312 "/>
<path style=" stroke:none;fill-rule:evenodd;fill:rgb(6.27451%,19.607843%,24.313726%);fill-opacity:1;" d="M 207.957031 64.917969 C 207.957031 64.917969 202.570312 76.136719 194.476562 78.140625 C 186.386719 80.148438 181.484375 77.039062 182.269531 72.054688 C 183.054688 67.066406 207.957031 64.917969 207.957031 64.917969 Z M 207.957031 64.917969 "/>
<path style=" stroke:none;fill-rule:evenodd;fill:rgb(6.27451%,19.607843%,24.313726%);fill-opacity:1;" d="M 210.417969 81.527344 L 214.199219 88.589844 L 207.226562 99.191406 C 208.351562 108.601562 210.496094 113.824219 216.796875 117.488281 C 216.796875 117.488281 230.179688 113.46875 236.085938 105.546875 L 219.289062 76.550781 Z M 210.417969 81.527344 "/>
<path style=" stroke:none;fill-rule:evenodd;fill:rgb(67.058825%,80.784315%,85.882354%);fill-opacity:1;" d="M 204.800781 90.117188 C 204.542969 88.753906 203.226562 87.648438 201.859375 87.648438 L 182.554688 87.648438 C 181.195312 87.648438 180.296875 88.753906 180.558594 90.117188 L 185.742188 117.230469 C 186.003906 118.59375 187.324219 119.699219 188.6875 119.699219 L 207.992188 119.699219 C 209.355469 119.699219 210.25 118.59375 209.988281 117.230469 Z M 204.800781 90.117188 "/>
<path style=" stroke:none;fill-rule:evenodd;fill:rgb(76.47059%,91.764706%,97.647059%);fill-opacity:1;" d="M 189.335938 85.6875 C 189.214844 84.769531 189.839844 84.039062 190.773438 84.039062 C 191.703125 84.039062 192.605469 84.769531 192.835938 85.6875 L 196.285156 85.6875 C 196.488281 85.6875 196.691406 85.851562 196.730469 86.058594 L 197.285156 88.96875 C 197.324219 89.175781 197.191406 89.339844 196.984375 89.339844 L 186.851562 89.339844 C 186.648438 89.339844 186.449219 89.175781 186.410156 88.96875 L 185.851562 86.058594 C 185.8125 85.851562 185.949219 85.6875 186.15625 85.6875 Z M 189.335938 85.6875 "/>
<path style=" stroke:none;fill-rule:evenodd;fill:rgb(38.82353%,78.431374%,92.941177%);fill-opacity:1;" d="M 212.53125 65.144531 C 212.53125 65.144531 214.75 63.257812 224.957031 71.820312 C 235.160156 80.382812 242.886719 87.304688 239.996094 92.660156 C 237.101562 98.015625 221.046875 109.726562 215.488281 112.523438 C 215.488281 112.523438 204.101562 106.902344 206.21875 97.660156 L 219.328125 88.066406 C 219.328125 88.066406 214.136719 85.84375 210.183594 82.28125 C 206.226562 78.714844 201.574219 64.492188 212.53125 65.144531 Z M 212.53125 65.144531 "/>
<path style=" stroke:none;fill-rule:evenodd;fill:rgb(38.431373%,80.392158%,96.078432%);fill-opacity:1;" d="M 212.460938 107.261719 C 212.460938 107.261719 213.464844 98.707031 207.742188 98.390625 C 207.742188 98.390625 204.414062 99.382812 201.195312 99.746094 C 199.019531 99.992188 197.289062 99.945312 195.613281 100.246094 C 191.84375 100.929688 194.605469 103.59375 196.949219 103.464844 C 196.949219 103.464844 193.242188 103.628906 194.15625 105.9375 C 195.0625 108.246094 199.328125 107.296875 199.328125 107.296875 C 199.328125 107.296875 195.988281 108.933594 197.074219 109.773438 C 199.316406 111.511719 209.472656 108.824219 212.460938 107.261719 Z M 212.460938 107.261719 "/>
<path style=" stroke:none;fill-rule:evenodd;fill:rgb(38.431373%,80.392158%,96.078432%);fill-opacity:1;" d="M 211.78125 51.878906 C 211.78125 39.140625 201.457031 28.8125 188.722656 28.8125 C 175.988281 28.8125 165.664062 39.140625 165.664062 51.878906 C 165.664062 64.617188 175.988281 74.945312 188.722656 74.945312 C 201.457031 74.945312 211.78125 64.617188 211.78125 51.878906 Z M 211.78125 51.878906 "/>
<path style=" stroke:none;fill-rule:evenodd;fill:rgb(6.27451%,19.607843%,24.313726%);fill-opacity:1;" d="M 207.691406 29.328125 C 207.691406 29.328125 200.515625 16.222656 189.394531 17.671875 C 178.273438 19.121094 177.363281 24.027344 177.363281 24.027344 C 177.363281 24.027344 168.195312 18.203125 158.917969 26.886719 C 149.648438 35.570312 155.632812 49.09375 167.484375 47.433594 C 167.484375 47.433594 172.554688 54.808594 180.363281 49.457031 C 180.363281 49.457031 189.636719 57.3125 194.875 47.570312 C 194.875 47.570312 195.625 52.453125 201.589844 52.359375 C 201.589844 52.359375 200.539062 43.296875 207.246094 45.34375 C 213.949219 47.390625 211.839844 56.152344 206.421875 58.242188 C 205.46875 65.09375 213.050781 74.449219 224.042969 66.460938 C 233.308594 59.726562 228.613281 48.25 221.488281 46.710938 C 221.488281 46.710938 226.300781 26.433594 207.691406 29.328125 Z M 207.691406 29.328125 "/>
<path style=" stroke:none;fill-rule:evenodd;fill:rgb(6.27451%,19.607843%,24.313726%);fill-opacity:1;" d="M 90 173.457031 L 137.710938 145.902344 L 176.679688 168.40625 L 128.964844 195.960938 Z M 90 173.457031 "/>
<path style=" stroke:none;fill-rule:evenodd;fill:rgb(38.431373%,80.392158%,96.078432%);fill-opacity:1;" d="M 70.09375 169.148438 L 117.800781 141.597656 L 137.707031 145.902344 L 90 173.457031 Z M 70.09375 169.148438 "/>
<path style=" stroke:none;fill-rule:evenodd;fill:rgb(29.411766%,70.980394%,86.274511%);fill-opacity:1;" d="M 90 173.457031 L 137.707031 145.90625 L 137.707031 180.082031 L 90 207.636719 Z M 90 173.457031 "/>
<path style=" stroke:none;fill-rule:evenodd;fill:rgb(38.82353%,78.431374%,92.941177%);fill-opacity:1;" d="M 137.707031 145.898438 L 176.671875 168.402344 L 176.671875 202.582031 L 137.707031 180.078125 Z M 137.707031 145.898438 "/>
<path style=" stroke:none;fill-rule:evenodd;fill:rgb(94.901961%,96.470588%,96.862745%);fill-opacity:1;" d="M 125.421875 159.445312 L 137.78125 152.308594 L 149.628906 159.152344 L 137.273438 166.289062 Z M 125.421875 159.445312 "/>
<path style=" stroke:none;fill-rule:evenodd;fill:rgb(76.47059%,91.764706%,97.647059%);fill-opacity:1;" d="M 137.273438 166.289062 L 149.628906 159.152344 L 149.628906 172.839844 L 137.273438 179.976562 Z M 137.273438 166.289062 "/>
<path style=" stroke:none;fill-rule:evenodd;fill:rgb(76.47059%,91.764706%,97.647059%);fill-opacity:1;" d="M 125.421875 159.441406 L 137.269531 166.289062 L 137.269531 179.976562 L 125.421875 173.132812 Z M 125.421875 159.441406 "/>
<path style=" stroke:none;fill-rule:evenodd;fill:rgb(94.901961%,96.470588%,96.862745%);fill-opacity:1;" d="M 113.066406 166.582031 L 125.421875 159.445312 L 137.273438 166.289062 L 124.914062 173.425781 Z M 113.066406 166.582031 "/>
<path style=" stroke:none;fill-rule:evenodd;fill:rgb(76.47059%,91.764706%,97.647059%);fill-opacity:1;" d="M 124.914062 173.425781 L 137.273438 166.289062 L 137.273438 179.976562 L 124.914062 187.113281 Z M 124.914062 173.425781 "/>
<path style=" stroke:none;fill-rule:evenodd;fill:rgb(76.47059%,91.764706%,97.647059%);fill-opacity:1;" d="M 113.0625 166.578125 L 124.914062 173.425781 L 124.914062 187.113281 L 113.0625 180.269531 Z M 113.0625 166.578125 "/>
<path style=" stroke:none;fill-rule:evenodd;fill:rgb(94.901961%,96.470588%,96.862745%);fill-opacity:1;" d="M 100.707031 187.40625 L 113.066406 180.269531 L 124.914062 187.113281 L 112.558594 194.25 Z M 100.707031 187.40625 "/>
<path style=" stroke:none;fill-rule:evenodd;fill:rgb(76.47059%,91.764706%,97.647059%);fill-opacity:1;" d="M 112.558594 194.25 L 124.914062 187.113281 L 124.914062 200.800781 L 112.558594 207.9375 Z M 112.558594 194.25 "/>
<path style=" stroke:none;fill-rule:evenodd;fill:rgb(76.47059%,91.764706%,97.647059%);fill-opacity:1;" d="M 100.707031 187.40625 L 112.554688 194.25 L 112.554688 207.9375 L 100.707031 201.09375 Z M 100.707031 187.40625 "/>
<path style=" stroke:none;fill-rule:evenodd;fill:rgb(94.901961%,96.470588%,96.862745%);fill-opacity:1;" d="M 124.914062 186.820312 L 137.273438 179.683594 L 149.125 186.527344 L 136.765625 193.664062 Z M 124.914062 186.820312 "/>
<path style=" stroke:none;fill-rule:evenodd;fill:rgb(76.47059%,91.764706%,97.647059%);fill-opacity:1;" d="M 136.765625 193.664062 L 149.121094 186.527344 L 149.121094 200.214844 L 136.765625 207.351562 Z M 136.765625 193.664062 "/>
<path style=" stroke:none;fill-rule:evenodd;fill:rgb(76.47059%,91.764706%,97.647059%);fill-opacity:1;" d="M 124.914062 186.820312 L 136.765625 193.664062 L 136.765625 207.351562 L 124.914062 200.507812 Z M 124.914062 186.820312 "/>
<path style=" stroke:none;fill-rule:evenodd;fill:rgb(94.901961%,96.470588%,96.862745%);fill-opacity:1;" d="M 137.273438 166.289062 L 149.628906 159.152344 L 161.480469 165.996094 L 149.121094 173.132812 Z M 137.273438 166.289062 "/>
<path style=" stroke:none;fill-rule:evenodd;fill:rgb(94.901961%,96.470588%,96.862745%);fill-opacity:1;" d="M 149.121094 173.132812 L 161.480469 165.996094 L 161.480469 179.683594 L 149.121094 186.820312 Z M 149.121094 173.132812 "/>
<path style=" stroke:none;fill-rule:evenodd;fill:rgb(76.47059%,91.764706%,97.647059%);fill-opacity:1;" d="M 137.269531 166.285156 L 149.121094 173.132812 L 149.121094 186.820312 L 137.269531 179.976562 Z M 137.269531 166.285156 "/>
<path style=" stroke:none;fill-rule:evenodd;fill:rgb(94.901961%,96.470588%,96.862745%);fill-opacity:1;" d="M 151.3125 188.082031 L 163.667969 180.945312 L 175.519531 187.789062 L 163.164062 194.925781 Z M 151.3125 188.082031 "/>
<path style=" stroke:none;fill-rule:evenodd;fill:rgb(6.27451%,19.607843%,24.313726%);fill-opacity:1;" d="M 163.160156 194.929688 L 175.519531 187.792969 L 175.519531 201.480469 L 163.160156 208.617188 Z M 163.160156 194.929688 "/>
<path style=" stroke:none;fill-rule:evenodd;fill:rgb(76.47059%,91.764706%,97.647059%);fill-opacity:1;" d="M 151.308594 188.082031 L 163.160156 194.925781 L 163.160156 208.613281 L 151.308594 201.769531 Z M 151.308594 188.082031 "/>
<path style=" stroke:none;fill-rule:evenodd;fill:rgb(29.411766%,70.980394%,86.274511%);fill-opacity:1;" d="M 128.964844 195.960938 L 176.675781 168.410156 L 176.675781 202.585938 L 128.964844 230.140625 Z M 128.964844 195.960938 "/>
<path style=" stroke:none;fill-rule:evenodd;fill:rgb(6.27451%,19.607843%,24.313726%);fill-opacity:1;" d="M 176.675781 168.410156 L 128.964844 195.960938 L 141.988281 217.863281 L 176.675781 197.832031 Z M 176.675781 168.410156 "/>
<path style=" stroke:none;fill-rule:evenodd;fill:rgb(16.862746%,72.156864%,92.156863%);fill-opacity:1;" d="M 128.964844 195.964844 L 176.671875 168.410156 L 192.316406 185.222656 L 144.605469 212.777344 Z M 128.964844 195.964844 "/>
<path style=" stroke:none;fill-rule:evenodd;fill:rgb(38.82353%,78.431374%,92.941177%);fill-opacity:1;" d="M 90 173.453125 L 128.964844 195.957031 L 128.964844 230.136719 L 90 207.632812 Z M 90 173.453125 "/>
<path style=" stroke:none;fill-rule:evenodd;fill:rgb(16.862746%,72.156864%,92.156863%);fill-opacity:1;" d="M 128.96875 195.835938 L 90.003906 173.332031 L 75.832031 189.925781 L 114.796875 212.429688 Z M 128.96875 195.835938 "/>
<path style=" stroke:none;fill-rule:evenodd;fill:rgb(16.862746%,72.156864%,92.156863%);fill-opacity:1;" d="M 192.316406 161.261719 L 153.351562 138.757812 L 137.707031 145.902344 L 176.675781 168.40625 Z M 192.316406 161.261719 "/>
<path style=" stroke:none;fill-rule:evenodd;fill:rgb(67.058825%,80.784315%,85.882354%);fill-opacity:1;" d="M 151.5625 191.976562 L 199.277344 164.417969 L 238.242188 186.921875 L 190.53125 214.480469 Z M 151.5625 191.976562 "/>
<path style=" stroke:none;fill-rule:evenodd;fill:rgb(29.411766%,70.980394%,86.274511%);fill-opacity:1;" d="M 190.453125 214.523438 L 238.242188 186.925781 L 238.242188 221.390625 L 190.453125 248.988281 Z M 190.453125 214.523438 "/>
<path style=" stroke:none;fill-rule:evenodd;fill:rgb(6.27451%,19.607843%,24.313726%);fill-opacity:1;" d="M 238.242188 186.921875 L 190.453125 214.523438 L 194.90625 226.167969 L 238.242188 201.140625 Z M 238.242188 186.921875 "/>
<path style=" stroke:none;fill-rule:evenodd;fill:rgb(38.82353%,78.431374%,92.941177%);fill-opacity:1;" d="M 151.5625 191.972656 L 190.527344 214.476562 L 190.527344 249.03125 L 151.5625 226.527344 Z M 151.5625 191.972656 "/>
<path style=" stroke:none;fill-rule:evenodd;fill:rgb(76.47059%,91.764706%,97.647059%);fill-opacity:1;" d="M 166.992188 200.882812 L 175.101562 205.566406 L 175.101562 221.347656 L 166.992188 216.664062 Z M 166.992188 200.882812 "/>
<path style=" stroke:none;fill-rule:evenodd;fill:rgb(94.901961%,96.470588%,96.862745%);fill-opacity:1;" d="M 167.109375 200.953125 L 214.820312 173.394531 L 222.8125 178.011719 L 175.101562 205.566406 Z M 167.109375 200.953125 "/>
<path style=" stroke:none;fill-rule:evenodd;fill:rgb(67.058825%,80.784315%,85.882354%);fill-opacity:1;" d="M 165.160156 161.738281 L 212.875 134.183594 L 251.839844 156.6875 L 204.128906 184.242188 Z M 165.160156 161.738281 "/>
<path style=" stroke:none;fill-rule:evenodd;fill:rgb(29.411766%,70.980394%,86.274511%);fill-opacity:1;" d="M 204.054688 184.375 L 251.84375 156.777344 L 251.84375 191.242188 L 204.054688 218.839844 Z M 204.054688 184.375 "/>
<path style=" stroke:none;fill-rule:evenodd;fill:rgb(38.82353%,78.431374%,92.941177%);fill-opacity:1;" d="M 165.160156 161.734375 L 204.128906 184.238281 L 204.128906 218.792969 L 165.160156 196.289062 Z M 165.160156 161.734375 "/>
<path style=" stroke:none;fill-rule:evenodd;fill:rgb(76.47059%,91.764706%,97.647059%);fill-opacity:1;" d="M 180.59375 170.648438 L 188.699219 175.328125 L 188.699219 191.109375 L 180.59375 186.429688 Z M 180.59375 170.648438 "/>
<path style=" stroke:none;fill-rule:evenodd;fill:rgb(94.901961%,96.470588%,96.862745%);fill-opacity:1;" d="M 180.707031 170.714844 L 228.417969 143.160156 L 236.410156 147.777344 L 188.699219 175.332031 Z M 180.707031 170.714844 "/>
<path style=" stroke:none;fill-rule:evenodd;fill:rgb(29.411766%,70.980394%,86.274511%);fill-opacity:1;" d="M 121.667969 117.875 C 121.667969 131.695312 110.464844 142.902344 96.648438 142.902344 C 82.828125 142.902344 71.625 131.695312 71.625 117.875 C 71.625 104.050781 82.828125 92.84375 96.648438 92.84375 C 110.464844 92.84375 121.667969 104.050781 121.667969 117.875 Z M 121.667969 117.875 "/>
<path style=" stroke:none;fill-rule:evenodd;fill:rgb(100%,100%,100%);fill-opacity:1;" d="M 87.433594 112.046875 L 96.648438 107.183594 L 105.867188 112.046875 L 96.648438 116.910156 Z M 95.734375 118.363281 L 95.734375 128.089844 L 86.515625 123.226562 L 86.515625 113.496094 Z M 106.78125 113.496094 L 106.78125 123.226562 L 97.566406 128.089844 L 97.566406 118.363281 Z M 106.78125 113.496094 "/>
<path style=" stroke:none;fill-rule:evenodd;fill:rgb(29.411766%,70.980394%,86.274511%);fill-opacity:1;" d="M 122.417969 95.324219 C 122.691406 94.410156 122.441406 93.417969 121.769531 92.742188 C 121.09375 92.070312 120.101562 91.820312 119.1875 92.09375 C 112.441406 94.128906 100.6875 97.675781 100.6875 97.675781 L 116.839844 113.832031 C 116.839844 113.832031 120.382812 102.074219 122.417969 95.324219 Z M 122.417969 95.324219 "/>
</g>
</svg>
