<?xml version="1.0" encoding="UTF-8"?>
<svg xmlns="http://www.w3.org/2000/svg" xmlns:xlink="http://www.w3.org/1999/xlink" width="360px" height="360px" viewBox="0 0 360 360" version="1.1">
<g id="surface1">
<path style=" stroke:none;fill-rule:nonzero;fill:rgb(88.627452%,96.078432%,98.823529%);fill-opacity:1;" d="M 38.558594 302.664062 C 38.558594 302.664062 -15.679688 239.277344 61.441406 218.914062 C 138.566406 198.546875 158.890625 181.113281 195.351562 128.34375 C 231.8125 75.570312 388.6875 89.683594 324.875 305.101562 Z M 38.558594 302.664062 "/>
<path style=" stroke:none;fill-rule:nonzero;fill:rgb(88.627452%,96.078432%,98.823529%);fill-opacity:1;" d="M 59.949219 178.632812 C 110.507812 179.855469 160.761719 152.058594 186.597656 108.582031 C 191.585938 100.1875 189.597656 88.316406 182.152344 82 C 174.703125 75.6875 162.664062 75.671875 155.203125 81.964844 C 142.84375 92.386719 126.460938 96.496094 110.5625 99.390625 C 94.664062 102.28125 78.253906 104.386719 63.875 111.78125 C 49.5 119.175781 37.269531 133.320312 37.496094 149.480469 C 37.722656 165.644531 54.425781 178.5 59.949219 178.632812 Z M 59.949219 178.632812 "/>
<path style=" stroke:none;fill-rule:nonzero;fill:rgb(52.941179%,86.666667%,99.215686%);fill-opacity:1;" d="M 260.679688 229.609375 L 319.71875 229.609375 L 319.71875 300.4375 L 260.679688 300.4375 Z M 260.679688 229.609375 "/>
<path style=" stroke:none;fill-rule:nonzero;fill:rgb(88.627452%,96.078432%,98.823529%);fill-opacity:1;" d="M 264.382812 233.3125 L 278.960938 233.3125 L 278.960938 236.015625 L 264.382812 236.015625 Z M 264.382812 233.3125 "/>
<path style=" stroke:none;fill-rule:nonzero;fill:rgb(88.627452%,96.078432%,98.823529%);fill-opacity:1;" d="M 282.023438 233.3125 L 296.601562 233.3125 L 296.601562 236.015625 L 282.023438 236.015625 Z M 282.023438 233.3125 "/>
<path style=" stroke:none;fill-rule:nonzero;fill:rgb(88.627452%,96.078432%,98.823529%);fill-opacity:1;" d="M 299.300781 233.3125 L 313.882812 233.3125 L 313.882812 236.015625 L 299.300781 236.015625 Z M 299.300781 233.3125 "/>
<path style=" stroke:none;fill-rule:nonzero;fill:rgb(88.627452%,96.078432%,98.823529%);fill-opacity:1;" d="M 264.5625 238.175781 L 279.140625 238.175781 L 279.140625 240.875 L 264.5625 240.875 Z M 264.5625 238.175781 "/>
<path style=" stroke:none;fill-rule:nonzero;fill:rgb(88.627452%,96.078432%,98.823529%);fill-opacity:1;" d="M 282.203125 238.175781 L 296.78125 238.175781 L 296.78125 240.875 L 282.203125 240.875 Z M 282.203125 238.175781 "/>
<path style=" stroke:none;fill-rule:nonzero;fill:rgb(88.627452%,96.078432%,98.823529%);fill-opacity:1;" d="M 299.480469 238.175781 L 314.0625 238.175781 L 314.0625 240.875 L 299.480469 240.875 Z M 299.480469 238.175781 "/>
<path style=" stroke:none;fill-rule:nonzero;fill:rgb(88.627452%,96.078432%,98.823529%);fill-opacity:1;" d="M 264.5625 243.035156 L 279.140625 243.035156 L 279.140625 245.734375 L 264.5625 245.734375 Z M 264.5625 243.035156 "/>
<path style=" stroke:none;fill-rule:nonzero;fill:rgb(88.627452%,96.078432%,98.823529%);fill-opacity:1;" d="M 282.203125 243.035156 L 296.78125 243.035156 L 296.78125 245.734375 L 282.203125 245.734375 Z M 282.203125 243.035156 "/>
<path style=" stroke:none;fill-rule:nonzero;fill:rgb(88.627452%,96.078432%,98.823529%);fill-opacity:1;" d="M 299.480469 243.035156 L 314.0625 243.035156 L 314.0625 245.734375 L 299.480469 245.734375 Z M 299.480469 243.035156 "/>
<path style=" stroke:none;fill-rule:nonzero;fill:rgb(88.627452%,96.078432%,98.823529%);fill-opacity:1;" d="M 264.742188 247.894531 L 279.320312 247.894531 L 279.320312 250.59375 L 264.742188 250.59375 Z M 264.742188 247.894531 "/>
<path style=" stroke:none;fill-rule:nonzero;fill:rgb(88.627452%,96.078432%,98.823529%);fill-opacity:1;" d="M 282.382812 247.894531 L 296.960938 247.894531 L 296.960938 250.59375 L 282.382812 250.59375 Z M 282.382812 247.894531 "/>
<path style=" stroke:none;fill-rule:nonzero;fill:rgb(88.627452%,96.078432%,98.823529%);fill-opacity:1;" d="M 299.664062 247.894531 L 314.242188 247.894531 L 314.242188 250.59375 L 299.664062 250.59375 Z M 299.664062 247.894531 "/>
<path style=" stroke:none;fill-rule:nonzero;fill:rgb(88.627452%,96.078432%,98.823529%);fill-opacity:1;" d="M 264.921875 252.753906 L 279.503906 252.753906 L 279.503906 255.453125 L 264.921875 255.453125 Z M 264.921875 252.753906 "/>
<path style=" stroke:none;fill-rule:nonzero;fill:rgb(88.627452%,96.078432%,98.823529%);fill-opacity:1;" d="M 282.5625 252.753906 L 297.140625 252.753906 L 297.140625 255.453125 L 282.5625 255.453125 Z M 282.5625 252.753906 "/>
<path style=" stroke:none;fill-rule:nonzero;fill:rgb(88.627452%,96.078432%,98.823529%);fill-opacity:1;" d="M 299.84375 252.753906 L 314.421875 252.753906 L 314.421875 255.453125 L 299.84375 255.453125 Z M 299.84375 252.753906 "/>
<path style=" stroke:none;fill-rule:nonzero;fill:rgb(88.627452%,96.078432%,98.823529%);fill-opacity:1;" d="M 264.921875 257.613281 L 279.503906 257.613281 L 279.503906 260.3125 L 264.921875 260.3125 Z M 264.921875 257.613281 "/>
<path style=" stroke:none;fill-rule:nonzero;fill:rgb(88.627452%,96.078432%,98.823529%);fill-opacity:1;" d="M 282.5625 257.613281 L 297.140625 257.613281 L 297.140625 260.3125 L 282.5625 260.3125 Z M 282.5625 257.613281 "/>
<path style=" stroke:none;fill-rule:nonzero;fill:rgb(88.627452%,96.078432%,98.823529%);fill-opacity:1;" d="M 299.84375 257.613281 L 314.421875 257.613281 L 314.421875 260.3125 L 299.84375 260.3125 Z M 299.84375 257.613281 "/>
<path style=" stroke:none;fill-rule:nonzero;fill:rgb(88.627452%,96.078432%,98.823529%);fill-opacity:1;" d="M 264.921875 265.019531 L 314.421875 265.019531 L 314.421875 283.019531 L 264.921875 283.019531 Z M 264.921875 265.019531 "/>
<path style=" stroke:none;fill-rule:nonzero;fill:rgb(52.941179%,86.666667%,99.215686%);fill-opacity:1;" d="M 302.679688 213.648438 L 321.039062 213.648438 L 321.039062 300.4375 L 302.679688 300.4375 Z M 302.679688 213.648438 "/>
<path style=" stroke:none;fill-rule:nonzero;fill:rgb(52.941179%,86.666667%,99.215686%);fill-opacity:1;" d="M 319.304688 221.597656 L 324.707031 221.597656 L 324.707031 300.4375 L 319.304688 300.4375 Z M 319.304688 221.597656 "/>
<path style=" stroke:none;fill-rule:nonzero;fill:rgb(52.941179%,86.666667%,99.215686%);fill-opacity:1;" d="M 53.839844 254.898438 L 82.28125 254.898438 L 82.28125 300.617188 L 53.839844 300.617188 Z M 53.839844 254.898438 "/>
<path style=" stroke:none;fill-rule:nonzero;fill:rgb(88.627452%,96.078432%,98.823529%);fill-opacity:1;" d="M 56.824219 259.414062 L 77.972656 259.414062 L 77.972656 263.550781 L 56.824219 263.550781 Z M 56.824219 259.414062 "/>
<path style=" stroke:none;fill-rule:nonzero;fill:rgb(88.627452%,96.078432%,98.823529%);fill-opacity:1;" d="M 56.824219 266.328125 L 77.972656 266.328125 L 77.972656 270.46875 L 56.824219 270.46875 Z M 56.824219 266.328125 "/>
<path style=" stroke:none;fill-rule:nonzero;fill:rgb(88.627452%,96.078432%,98.823529%);fill-opacity:1;" d="M 56.835938 273.242188 L 77.984375 273.242188 L 77.984375 277.382812 L 56.835938 277.382812 Z M 56.835938 273.242188 "/>
<path style=" stroke:none;fill-rule:nonzero;fill:rgb(88.627452%,96.078432%,98.823529%);fill-opacity:1;" d="M 56.835938 280.015625 L 77.984375 280.015625 L 77.984375 284.15625 L 56.835938 284.15625 Z M 56.835938 280.015625 "/>
<path style=" stroke:none;fill-rule:nonzero;fill:rgb(52.941179%,86.666667%,99.215686%);fill-opacity:1;" d="M 74.558594 240.316406 L 103 240.316406 L 103 300.617188 L 74.558594 300.617188 Z M 74.558594 240.316406 "/>
<path style=" stroke:none;fill-rule:nonzero;fill:rgb(52.941179%,86.666667%,99.215686%);fill-opacity:1;" d="M 100.300781 252.199219 L 163.859375 252.199219 L 163.859375 300.617188 L 100.300781 300.617188 Z M 100.300781 252.199219 "/>
<path style=" stroke:none;fill-rule:nonzero;fill:rgb(52.941179%,86.666667%,99.215686%);fill-opacity:1;" d="M 38 273.796875 L 53.839844 273.796875 L 53.839844 300.617188 L 38 300.617188 Z M 38 273.796875 "/>
<path style=" stroke:none;fill-rule:nonzero;fill:rgb(52.941179%,86.666667%,99.215686%);fill-opacity:1;" d="M 110.855469 229.492188 L 111.394531 229.492188 L 111.394531 252.199219 L 110.855469 252.199219 Z M 110.855469 229.492188 "/>
<path style=" stroke:none;fill-rule:nonzero;fill:rgb(52.941179%,86.666667%,99.215686%);fill-opacity:1;" d="M 116.917969 234.71875 L 117.457031 234.71875 L 117.457031 252.199219 L 116.917969 252.199219 Z M 116.917969 234.71875 "/>
<path style=" stroke:none;fill-rule:nonzero;fill:rgb(52.941179%,86.666667%,99.215686%);fill-opacity:1;" d="M 105.347656 225.871094 L 106.609375 225.871094 L 106.609375 252.199219 L 105.347656 252.199219 Z M 105.347656 225.871094 "/>
<path style=" stroke:none;fill-rule:nonzero;fill:rgb(52.941179%,86.666667%,99.215686%);fill-opacity:1;" d="M 57.183594 248.34375 L 62.402344 248.34375 L 62.402344 254.898438 L 57.183594 254.898438 Z M 57.183594 248.34375 "/>
<path style=" stroke:none;fill-rule:nonzero;fill:rgb(52.941179%,86.666667%,99.215686%);fill-opacity:1;" d="M 76.722656 233.234375 L 88.0625 233.234375 L 88.0625 240.316406 L 76.722656 240.316406 Z M 76.722656 233.234375 "/>
<path style=" stroke:none;fill-rule:nonzero;fill:rgb(52.941179%,86.666667%,99.215686%);fill-opacity:1;" d="M 93.121094 225.871094 L 97.980469 225.871094 L 97.980469 240.316406 L 93.121094 240.316406 Z M 93.121094 225.871094 "/>
<path style=" stroke:none;fill-rule:nonzero;fill:rgb(52.941179%,86.666667%,99.215686%);fill-opacity:1;" d="M 65.25 239.03125 L 69.570312 239.03125 L 69.570312 254.898438 L 65.25 254.898438 Z M 65.25 239.03125 "/>
<path style=" stroke:none;fill-rule:nonzero;fill:rgb(88.627452%,96.078432%,98.823529%);fill-opacity:1;" d="M 39.980469 276.40625 L 44.210938 276.40625 L 44.210938 280.636719 L 39.980469 280.636719 Z M 39.980469 276.40625 "/>
<path style=" stroke:none;fill-rule:nonzero;fill:rgb(88.627452%,96.078432%,98.823529%);fill-opacity:1;" d="M 46.910156 276.40625 L 51.140625 276.40625 L 51.140625 280.636719 L 46.910156 280.636719 Z M 46.910156 276.40625 "/>
<path style=" stroke:none;fill-rule:nonzero;fill:rgb(88.627452%,96.078432%,98.823529%);fill-opacity:1;" d="M 39.980469 283.519531 L 44.210938 283.519531 L 44.210938 287.746094 L 39.980469 287.746094 Z M 39.980469 283.519531 "/>
<path style=" stroke:none;fill-rule:nonzero;fill:rgb(88.627452%,96.078432%,98.823529%);fill-opacity:1;" d="M 46.910156 283.519531 L 51.140625 283.519531 L 51.140625 287.746094 L 46.910156 287.746094 Z M 46.910156 283.519531 "/>
<path style=" stroke:none;fill-rule:nonzero;fill:rgb(88.627452%,96.078432%,98.823529%);fill-opacity:1;" d="M 39.980469 290.628906 L 44.210938 290.628906 L 44.210938 294.859375 L 39.980469 294.859375 Z M 39.980469 290.628906 "/>
<path style=" stroke:none;fill-rule:nonzero;fill:rgb(88.627452%,96.078432%,98.823529%);fill-opacity:1;" d="M 46.910156 290.628906 L 51.140625 290.628906 L 51.140625 294.859375 L 46.910156 294.859375 Z M 46.910156 290.628906 "/>
<path style=" stroke:none;fill-rule:nonzero;fill:rgb(88.627452%,96.078432%,98.823529%);fill-opacity:1;" d="M 77.984375 244.148438 L 79.605469 244.148438 L 79.605469 298.691406 L 77.984375 298.691406 Z M 77.984375 244.148438 "/>
<path style=" stroke:none;fill-rule:nonzero;fill:rgb(88.627452%,96.078432%,98.823529%);fill-opacity:1;" d="M 85.183594 244.148438 L 86.804688 244.148438 L 86.804688 298.691406 L 85.183594 298.691406 Z M 85.183594 244.148438 "/>
<path style=" stroke:none;fill-rule:nonzero;fill:rgb(88.627452%,96.078432%,98.823529%);fill-opacity:1;" d="M 91.667969 244.148438 L 93.285156 244.148438 L 93.285156 298.691406 L 91.667969 298.691406 Z M 91.667969 244.148438 "/>
<path style=" stroke:none;fill-rule:nonzero;fill:rgb(88.627452%,96.078432%,98.823529%);fill-opacity:1;" d="M 98.507812 244.148438 L 100.125 244.148438 L 100.125 298.691406 L 98.507812 298.691406 Z M 98.507812 244.148438 "/>
<path style=" stroke:none;fill-rule:nonzero;fill:rgb(52.941179%,86.666667%,99.215686%);fill-opacity:1;" d="M 126.683594 252.6875 L 155.121094 252.6875 L 155.121094 298.40625 L 126.683594 298.40625 Z M 126.683594 252.6875 "/>
<path style=" stroke:none;fill-rule:nonzero;fill:rgb(88.627452%,96.078432%,98.823529%);fill-opacity:1;" d="M 129.664062 257.203125 L 150.8125 257.203125 L 150.8125 261.34375 L 129.664062 261.34375 Z M 129.664062 257.203125 "/>
<path style=" stroke:none;fill-rule:nonzero;fill:rgb(88.627452%,96.078432%,98.823529%);fill-opacity:1;" d="M 129.664062 264.117188 L 150.8125 264.117188 L 150.8125 268.253906 L 129.664062 268.253906 Z M 129.664062 264.117188 "/>
<path style=" stroke:none;fill-rule:nonzero;fill:rgb(88.627452%,96.078432%,98.823529%);fill-opacity:1;" d="M 129.675781 271.03125 L 150.824219 271.03125 L 150.824219 275.171875 L 129.675781 275.171875 Z M 129.675781 271.03125 "/>
<path style=" stroke:none;fill-rule:nonzero;fill:rgb(88.627452%,96.078432%,98.823529%);fill-opacity:1;" d="M 129.675781 277.804688 L 150.824219 277.804688 L 150.824219 281.945312 L 129.675781 281.945312 Z M 129.675781 277.804688 "/>
<path style=" stroke:none;fill-rule:nonzero;fill:rgb(52.941179%,86.666667%,99.215686%);fill-opacity:1;" d="M 147.398438 238.105469 L 175.839844 238.105469 L 175.839844 298.40625 L 147.398438 298.40625 Z M 147.398438 238.105469 "/>
<path style=" stroke:none;fill-rule:nonzero;fill:rgb(52.941179%,86.666667%,99.215686%);fill-opacity:1;" d="M 173.140625 249.984375 L 236.699219 249.984375 L 236.699219 298.40625 L 173.140625 298.40625 Z M 173.140625 249.984375 "/>
<path style=" stroke:none;fill-rule:nonzero;fill:rgb(52.941179%,86.666667%,99.215686%);fill-opacity:1;" d="M 110.84375 271.585938 L 126.683594 271.585938 L 126.683594 298.40625 L 110.84375 298.40625 Z M 110.84375 271.585938 "/>
<path style=" stroke:none;fill-rule:nonzero;fill:rgb(52.941179%,86.666667%,99.215686%);fill-opacity:1;" d="M 183.695312 227.28125 L 184.234375 227.28125 L 184.234375 249.988281 L 183.695312 249.988281 Z M 183.695312 227.28125 "/>
<path style=" stroke:none;fill-rule:nonzero;fill:rgb(52.941179%,86.666667%,99.215686%);fill-opacity:1;" d="M 189.757812 232.507812 L 190.296875 232.507812 L 190.296875 249.984375 L 189.757812 249.984375 Z M 189.757812 232.507812 "/>
<path style=" stroke:none;fill-rule:nonzero;fill:rgb(52.941179%,86.666667%,99.215686%);fill-opacity:1;" d="M 178.1875 223.65625 L 179.449219 223.65625 L 179.449219 249.984375 L 178.1875 249.984375 Z M 178.1875 223.65625 "/>
<path style=" stroke:none;fill-rule:nonzero;fill:rgb(52.941179%,86.666667%,99.215686%);fill-opacity:1;" d="M 130.023438 246.132812 L 135.242188 246.132812 L 135.242188 252.6875 L 130.023438 252.6875 Z M 130.023438 246.132812 "/>
<path style=" stroke:none;fill-rule:nonzero;fill:rgb(52.941179%,86.666667%,99.215686%);fill-opacity:1;" d="M 149.558594 231.023438 L 160.898438 231.023438 L 160.898438 238.105469 L 149.558594 238.105469 Z M 149.558594 231.023438 "/>
<path style=" stroke:none;fill-rule:nonzero;fill:rgb(52.941179%,86.666667%,99.215686%);fill-opacity:1;" d="M 165.960938 223.65625 L 170.820312 223.65625 L 170.820312 238.105469 L 165.960938 238.105469 Z M 165.960938 223.65625 "/>
<path style=" stroke:none;fill-rule:nonzero;fill:rgb(52.941179%,86.666667%,99.215686%);fill-opacity:1;" d="M 138.089844 236.824219 L 142.410156 236.824219 L 142.410156 252.6875 L 138.089844 252.6875 Z M 138.089844 236.824219 "/>
<path style=" stroke:none;fill-rule:nonzero;fill:rgb(88.627452%,96.078432%,98.823529%);fill-opacity:1;" d="M 112.820312 274.195312 L 117.050781 274.195312 L 117.050781 278.425781 L 112.820312 278.425781 Z M 112.820312 274.195312 "/>
<path style=" stroke:none;fill-rule:nonzero;fill:rgb(88.627452%,96.078432%,98.823529%);fill-opacity:1;" d="M 119.753906 274.195312 L 123.980469 274.195312 L 123.980469 278.425781 L 119.753906 278.425781 Z M 119.753906 274.195312 "/>
<path style=" stroke:none;fill-rule:nonzero;fill:rgb(88.627452%,96.078432%,98.823529%);fill-opacity:1;" d="M 112.820312 281.304688 L 117.050781 281.304688 L 117.050781 285.535156 L 112.820312 285.535156 Z M 112.820312 281.304688 "/>
<path style=" stroke:none;fill-rule:nonzero;fill:rgb(88.627452%,96.078432%,98.823529%);fill-opacity:1;" d="M 119.753906 281.304688 L 123.980469 281.304688 L 123.980469 285.535156 L 119.753906 285.535156 Z M 119.753906 281.304688 "/>
<path style=" stroke:none;fill-rule:nonzero;fill:rgb(88.627452%,96.078432%,98.823529%);fill-opacity:1;" d="M 112.820312 288.414062 L 117.050781 288.414062 L 117.050781 292.644531 L 112.820312 292.644531 Z M 112.820312 288.414062 "/>
<path style=" stroke:none;fill-rule:nonzero;fill:rgb(88.627452%,96.078432%,98.823529%);fill-opacity:1;" d="M 119.753906 288.414062 L 123.980469 288.414062 L 123.980469 292.644531 L 119.753906 292.644531 Z M 119.753906 288.414062 "/>
<path style=" stroke:none;fill-rule:nonzero;fill:rgb(88.627452%,96.078432%,98.823529%);fill-opacity:1;" d="M 150.824219 241.9375 L 152.445312 241.9375 L 152.445312 296.476562 L 150.824219 296.476562 Z M 150.824219 241.9375 "/>
<path style=" stroke:none;fill-rule:nonzero;fill:rgb(88.627452%,96.078432%,98.823529%);fill-opacity:1;" d="M 158.027344 241.9375 L 159.644531 241.9375 L 159.644531 296.476562 L 158.027344 296.476562 Z M 158.027344 241.9375 "/>
<path style=" stroke:none;fill-rule:nonzero;fill:rgb(88.627452%,96.078432%,98.823529%);fill-opacity:1;" d="M 164.507812 241.9375 L 166.128906 241.9375 L 166.128906 296.476562 L 164.507812 296.476562 Z M 164.507812 241.9375 "/>
<path style=" stroke:none;fill-rule:nonzero;fill:rgb(88.627452%,96.078432%,98.823529%);fill-opacity:1;" d="M 171.347656 241.9375 L 172.96875 241.9375 L 172.96875 296.476562 L 171.347656 296.476562 Z M 171.347656 241.9375 "/>
<path style=" stroke:none;fill-rule:nonzero;fill:rgb(52.941179%,86.666667%,99.215686%);fill-opacity:1;" d="M 199.488281 248.695312 L 227.925781 248.695312 L 227.925781 294.417969 L 199.488281 294.417969 Z M 199.488281 248.695312 "/>
<path style=" stroke:none;fill-rule:nonzero;fill:rgb(88.627452%,96.078432%,98.823529%);fill-opacity:1;" d="M 202.46875 253.214844 L 223.617188 253.214844 L 223.617188 257.351562 L 202.46875 257.351562 Z M 202.46875 253.214844 "/>
<path style=" stroke:none;fill-rule:nonzero;fill:rgb(88.627452%,96.078432%,98.823529%);fill-opacity:1;" d="M 202.46875 260.128906 L 223.617188 260.128906 L 223.617188 264.265625 L 202.46875 264.265625 Z M 202.46875 260.128906 "/>
<path style=" stroke:none;fill-rule:nonzero;fill:rgb(88.627452%,96.078432%,98.823529%);fill-opacity:1;" d="M 202.476562 267.039062 L 223.628906 267.039062 L 223.628906 271.179688 L 202.476562 271.179688 Z M 202.476562 267.039062 "/>
<path style=" stroke:none;fill-rule:nonzero;fill:rgb(88.627452%,96.078432%,98.823529%);fill-opacity:1;" d="M 202.476562 273.816406 L 223.628906 273.816406 L 223.628906 277.957031 L 202.476562 277.957031 Z M 202.476562 273.816406 "/>
<path style=" stroke:none;fill-rule:nonzero;fill:rgb(52.941179%,86.666667%,99.215686%);fill-opacity:1;" d="M 220.203125 234.117188 L 248.644531 234.117188 L 248.644531 294.417969 L 220.203125 294.417969 Z M 220.203125 234.117188 "/>
<path style=" stroke:none;fill-rule:nonzero;fill:rgb(52.941179%,86.666667%,99.215686%);fill-opacity:1;" d="M 245.945312 245.996094 L 309.503906 245.996094 L 309.503906 294.417969 L 245.945312 294.417969 Z M 245.945312 245.996094 "/>
<path style=" stroke:none;fill-rule:nonzero;fill:rgb(52.941179%,86.666667%,99.215686%);fill-opacity:1;" d="M 183.648438 267.597656 L 199.488281 267.597656 L 199.488281 294.417969 L 183.648438 294.417969 Z M 183.648438 267.597656 "/>
<path style=" stroke:none;fill-rule:nonzero;fill:rgb(52.941179%,86.666667%,99.215686%);fill-opacity:1;" d="M 256.5 223.292969 L 257.039062 223.292969 L 257.039062 245.996094 L 256.5 245.996094 Z M 256.5 223.292969 "/>
<path style=" stroke:none;fill-rule:nonzero;fill:rgb(52.941179%,86.666667%,99.215686%);fill-opacity:1;" d="M 262.5625 228.519531 L 263.101562 228.519531 L 263.101562 245.996094 L 262.5625 245.996094 Z M 262.5625 228.519531 "/>
<path style=" stroke:none;fill-rule:nonzero;fill:rgb(52.941179%,86.666667%,99.215686%);fill-opacity:1;" d="M 250.992188 219.667969 L 252.253906 219.667969 L 252.253906 245.996094 L 250.992188 245.996094 Z M 250.992188 219.667969 "/>
<path style=" stroke:none;fill-rule:nonzero;fill:rgb(52.941179%,86.666667%,99.215686%);fill-opacity:1;" d="M 202.824219 242.144531 L 208.046875 242.144531 L 208.046875 248.695312 L 202.824219 248.695312 Z M 202.824219 242.144531 "/>
<path style=" stroke:none;fill-rule:nonzero;fill:rgb(52.941179%,86.666667%,99.215686%);fill-opacity:1;" d="M 222.363281 227.035156 L 233.703125 227.035156 L 233.703125 234.117188 L 222.363281 234.117188 Z M 222.363281 227.035156 "/>
<path style=" stroke:none;fill-rule:nonzero;fill:rgb(52.941179%,86.666667%,99.215686%);fill-opacity:1;" d="M 238.765625 219.667969 L 243.625 219.667969 L 243.625 234.117188 L 238.765625 234.117188 Z M 238.765625 219.667969 "/>
<path style=" stroke:none;fill-rule:nonzero;fill:rgb(52.941179%,86.666667%,99.215686%);fill-opacity:1;" d="M 210.894531 232.832031 L 215.214844 232.832031 L 215.214844 248.699219 L 210.894531 248.699219 Z M 210.894531 232.832031 "/>
<path style=" stroke:none;fill-rule:nonzero;fill:rgb(88.627452%,96.078432%,98.823529%);fill-opacity:1;" d="M 185.625 270.207031 L 189.855469 270.207031 L 189.855469 274.4375 L 185.625 274.4375 Z M 185.625 270.207031 "/>
<path style=" stroke:none;fill-rule:nonzero;fill:rgb(88.627452%,96.078432%,98.823529%);fill-opacity:1;" d="M 192.558594 270.207031 L 196.785156 270.207031 L 196.785156 274.4375 L 192.558594 274.4375 Z M 192.558594 270.207031 "/>
<path style=" stroke:none;fill-rule:nonzero;fill:rgb(88.627452%,96.078432%,98.823529%);fill-opacity:1;" d="M 185.625 277.316406 L 189.855469 277.316406 L 189.855469 281.546875 L 185.625 281.546875 Z M 185.625 277.316406 "/>
<path style=" stroke:none;fill-rule:nonzero;fill:rgb(88.627452%,96.078432%,98.823529%);fill-opacity:1;" d="M 192.558594 277.316406 L 196.785156 277.316406 L 196.785156 281.546875 L 192.558594 281.546875 Z M 192.558594 277.316406 "/>
<path style=" stroke:none;fill-rule:nonzero;fill:rgb(88.627452%,96.078432%,98.823529%);fill-opacity:1;" d="M 185.625 284.425781 L 189.855469 284.425781 L 189.855469 288.65625 L 185.625 288.65625 Z M 185.625 284.425781 "/>
<path style=" stroke:none;fill-rule:nonzero;fill:rgb(88.627452%,96.078432%,98.823529%);fill-opacity:1;" d="M 192.558594 284.425781 L 196.785156 284.425781 L 196.785156 288.65625 L 192.558594 288.65625 Z M 192.558594 284.425781 "/>
<path style=" stroke:none;fill-rule:nonzero;fill:rgb(88.627452%,96.078432%,98.823529%);fill-opacity:1;" d="M 223.628906 237.949219 L 225.25 237.949219 L 225.25 292.488281 L 223.628906 292.488281 Z M 223.628906 237.949219 "/>
<path style=" stroke:none;fill-rule:nonzero;fill:rgb(88.627452%,96.078432%,98.823529%);fill-opacity:1;" d="M 230.828125 237.949219 L 232.449219 237.949219 L 232.449219 292.488281 L 230.828125 292.488281 Z M 230.828125 237.949219 "/>
<path style=" stroke:none;fill-rule:nonzero;fill:rgb(88.627452%,96.078432%,98.823529%);fill-opacity:1;" d="M 237.308594 237.949219 L 238.929688 237.949219 L 238.929688 292.488281 L 237.308594 292.488281 Z M 237.308594 237.949219 "/>
<path style=" stroke:none;fill-rule:nonzero;fill:rgb(88.627452%,96.078432%,98.823529%);fill-opacity:1;" d="M 244.152344 237.949219 L 245.773438 237.949219 L 245.773438 292.488281 L 244.152344 292.488281 Z M 244.152344 237.949219 "/>
<path style=" stroke:none;fill-rule:nonzero;fill:rgb(52.941179%,86.666667%,99.215686%);fill-opacity:1;" d="M 231.519531 278.394531 L 260.679688 278.394531 L 260.679688 300.589844 L 231.519531 300.589844 Z M 231.519531 278.394531 "/>
<path style=" stroke:none;fill-rule:nonzero;fill:rgb(52.941179%,86.666667%,99.215686%);fill-opacity:1;" d="M 286.964844 294.988281 L 288.046875 294.988281 L 288.046875 296.070312 L 286.964844 296.070312 Z M 286.964844 294.988281 "/>
<path style=" stroke:none;fill-rule:nonzero;fill:rgb(21.568628%,73.333335%,92.54902%);fill-opacity:1;" d="M 58.773438 107.917969 L 71.375 107.917969 L 71.375 299.734375 L 58.773438 299.734375 Z M 58.773438 107.917969 "/>
<path style=" stroke:none;fill-rule:nonzero;fill:rgb(23.921569%,79.215688%,99.607843%);fill-opacity:1;" d="M 51.898438 129.308594 L 102.167969 129.308594 L 102.167969 145.125 L 51.898438 145.125 Z M 51.898438 129.308594 "/>
<path style=" stroke:none;fill-rule:nonzero;fill:rgb(23.921569%,79.215688%,99.607843%);fill-opacity:1;" d="M 27.976562 136.109375 L 51.898438 120.589844 L 51.898438 151.628906 Z M 27.976562 136.109375 "/>
<path style=" stroke:none;fill-rule:nonzero;fill:rgb(27.058825%,54.509807%,64.705884%);fill-opacity:1;" d="M 58.773438 145.125 L 71.375 145.125 L 71.375 148.1875 L 58.773438 148.1875 Z M 58.773438 145.125 "/>
<path style=" stroke:none;fill-rule:nonzero;fill:rgb(22.745098%,76.862746%,97.254902%);fill-opacity:1;" d="M 51.898438 144.910156 L 102.167969 144.910156 L 102.167969 146.171875 L 51.898438 146.171875 Z M 51.898438 144.910156 "/>
<path style=" stroke:none;fill-rule:nonzero;fill:rgb(45.09804%,84.313726%,98.823529%);fill-opacity:1;" d="M 51.898438 129.308594 L 102.167969 129.308594 L 102.167969 130.980469 L 51.898438 130.980469 Z M 51.898438 129.308594 "/>
<path style=" stroke:none;fill-rule:nonzero;fill:rgb(88.627452%,96.078432%,98.823529%);fill-opacity:1;" d="M 245.582031 87.671875 L 241.113281 86.230469 C 242.910156 80.894531 250.816406 78.945312 254.882812 82.839844 C 252.75 80.289062 254.523438 75.652344 257.8125 75.171875 C 261.105469 74.695312 264.113281 78.636719 262.800781 81.691406 C 265.347656 78.753906 270.855469 79.4375 272.605469 82.910156 C 274.707031 80.308594 279.304688 80.390625 281.3125 83.0625 C 290.761719 81.292969 300.515625 82.246094 309.445312 85.808594 L 229.65625 89.679688 C 235.402344 88.632812 241.148438 87.585938 245.582031 87.671875 Z M 245.582031 87.671875 "/>
<path style=" stroke:none;fill-rule:nonzero;fill:rgb(23.921569%,79.215688%,99.607843%);fill-opacity:1;" d="M 255.875 239.664062 L 335.019531 239.664062 L 335.019531 278.105469 L 255.875 278.105469 Z M 255.875 239.664062 "/>
<path style=" stroke:none;fill-rule:nonzero;fill:rgb(22.745098%,76.862746%,97.254902%);fill-opacity:1;" d="M 255.875 239.664062 L 275.179688 239.664062 L 275.179688 278.105469 L 255.875 278.105469 Z M 255.875 239.664062 "/>
<path style=" stroke:none;fill-rule:nonzero;fill:rgb(23.921569%,79.215688%,99.607843%);fill-opacity:1;" d="M 265.527344 203.449219 L 312.109375 203.449219 L 312.109375 239.660156 L 265.527344 239.660156 Z M 265.527344 203.449219 "/>
<path style=" stroke:none;fill-rule:nonzero;fill:rgb(22.745098%,76.862746%,97.254902%);fill-opacity:1;" d="M 265.527344 203.449219 L 277.285156 203.449219 L 277.285156 239.660156 L 265.527344 239.660156 Z M 265.527344 203.449219 "/>
<path style=" stroke:none;fill-rule:nonzero;fill:rgb(21.568628%,73.333335%,92.54902%);fill-opacity:1;" d="M 265.40625 239.75 L 277.285156 238.671875 L 301.375 239.917969 Z M 265.40625 239.75 "/>
<path style=" stroke:none;fill-rule:nonzero;fill:rgb(100%,100%,100%);fill-opacity:1;" d="M 316.492188 242.960938 L 332.664062 242.960938 L 332.664062 246.515625 L 316.492188 246.515625 Z M 316.492188 242.960938 "/>
<path style=" stroke:none;fill-rule:nonzero;fill:rgb(100%,100%,100%);fill-opacity:1;" d="M 316.753906 248.386719 L 332.921875 248.386719 L 332.921875 251.945312 L 316.753906 251.945312 Z M 316.753906 248.386719 "/>
<path style=" stroke:none;fill-rule:nonzero;fill:rgb(100%,100%,100%);fill-opacity:1;" d="M 299.113281 205.535156 L 310.421875 205.535156 L 310.421875 209.089844 L 299.113281 209.089844 Z M 299.113281 205.535156 "/>
<path style=" stroke:none;fill-rule:nonzero;fill:rgb(100%,100%,100%);fill-opacity:1;" d="M 299.113281 210.398438 L 310.421875 210.398438 L 310.421875 213.953125 L 299.113281 213.953125 Z M 299.113281 210.398438 "/>
<path style=" stroke:none;fill-rule:nonzero;fill:rgb(23.921569%,79.215688%,99.607843%);fill-opacity:1;" d="M 255.875 239.664062 L 335.019531 239.664062 L 335.019531 278.105469 L 255.875 278.105469 Z M 255.875 239.664062 "/>
<path style=" stroke:none;fill-rule:nonzero;fill:rgb(22.745098%,76.862746%,97.254902%);fill-opacity:1;" d="M 255.875 239.664062 L 275.179688 239.664062 L 275.179688 278.105469 L 255.875 278.105469 Z M 255.875 239.664062 "/>
<path style=" stroke:none;fill-rule:nonzero;fill:rgb(23.921569%,79.215688%,99.607843%);fill-opacity:1;" d="M 265.527344 203.449219 L 312.109375 203.449219 L 312.109375 239.660156 L 265.527344 239.660156 Z M 265.527344 203.449219 "/>
<path style=" stroke:none;fill-rule:nonzero;fill:rgb(22.745098%,76.862746%,97.254902%);fill-opacity:1;" d="M 265.527344 203.449219 L 277.285156 203.449219 L 277.285156 239.660156 L 265.527344 239.660156 Z M 265.527344 203.449219 "/>
<path style=" stroke:none;fill-rule:nonzero;fill:rgb(21.568628%,73.333335%,92.54902%);fill-opacity:1;" d="M 265.40625 239.75 L 277.285156 238.671875 L 301.375 239.917969 Z M 265.40625 239.75 "/>
<path style=" stroke:none;fill-rule:nonzero;fill:rgb(100%,100%,100%);fill-opacity:1;" d="M 316.492188 242.960938 L 332.664062 242.960938 L 332.664062 246.515625 L 316.492188 246.515625 Z M 316.492188 242.960938 "/>
<path style=" stroke:none;fill-rule:nonzero;fill:rgb(100%,100%,100%);fill-opacity:1;" d="M 316.753906 248.386719 L 332.921875 248.386719 L 332.921875 251.945312 L 316.753906 251.945312 Z M 316.753906 248.386719 "/>
<path style=" stroke:none;fill-rule:nonzero;fill:rgb(100%,100%,100%);fill-opacity:1;" d="M 299.113281 205.535156 L 310.421875 205.535156 L 310.421875 209.089844 L 299.113281 209.089844 Z M 299.113281 205.535156 "/>
<path style=" stroke:none;fill-rule:nonzero;fill:rgb(100%,100%,100%);fill-opacity:1;" d="M 299.113281 210.398438 L 310.421875 210.398438 L 310.421875 213.953125 L 299.113281 213.953125 Z M 299.113281 210.398438 "/>
<path style=" stroke:none;fill-rule:nonzero;fill:rgb(88.627452%,96.078432%,98.823529%);fill-opacity:1;" d="M 88.988281 53.460938 L 93.359375 51.746094 C 91.234375 46.527344 83.214844 45.085938 79.402344 49.226562 C 81.371094 46.542969 79.308594 42.027344 75.996094 41.761719 C 72.679688 41.496094 69.917969 45.617188 71.425781 48.582031 C 68.699219 45.808594 63.246094 46.839844 61.714844 50.414062 C 59.457031 47.949219 54.875 48.316406 53.035156 51.113281 C 43.496094 49.945312 33.820312 51.507812 25.136719 55.628906 L 105.011719 54.464844 C 99.207031 53.773438 93.40625 53.085938 88.988281 53.460938 Z M 88.988281 53.460938 "/>
<path style=" stroke:none;fill-rule:nonzero;fill:rgb(10.196079%,18.039216%,20.784314%);fill-opacity:1;" d="M 21.785156 300.066406 L 338.210938 300.066406 L 338.210938 310.867188 L 21.785156 310.867188 Z M 21.785156 300.066406 "/>
<path style=" stroke:none;fill-rule:nonzero;fill:rgb(23.921569%,77.254903%,96.862745%);fill-opacity:1;" d="M 272.304688 159.710938 C 272.304688 149.628906 280.261719 141.46875 290.074219 141.46875 C 299.886719 141.46875 307.839844 149.636719 307.839844 159.710938 C 307.839844 169.785156 290.800781 188.21875 290.800781 188.21875 C 290.800781 188.21875 272.304688 169.785156 272.304688 159.710938 Z M 272.304688 159.710938 "/>
<path style=" stroke:none;fill-rule:nonzero;fill:rgb(10.196079%,18.039216%,20.784314%);fill-opacity:1;" d="M 299.703125 159.730469 C 299.703125 154.414062 295.390625 150.101562 290.074219 150.101562 C 284.757812 150.101562 280.445312 154.414062 280.445312 159.730469 C 280.445312 165.046875 284.757812 169.359375 290.074219 169.359375 C 295.390625 169.359375 299.703125 165.046875 299.703125 159.730469 Z M 299.703125 159.730469 "/>
<path style=" stroke:none;fill-rule:nonzero;fill:rgb(10.196079%,18.039216%,20.784314%);fill-opacity:1;" d="M 249.09375 280.621094 C 249.09375 279.226562 250.222656 278.101562 251.613281 278.101562 L 333.515625 278.101562 C 334.90625 278.101562 336.035156 279.226562 336.035156 280.621094 C 336.035156 282.011719 334.90625 283.140625 333.515625 283.140625 L 251.613281 283.140625 C 250.222656 283.140625 249.09375 282.011719 249.09375 280.621094 Z M 249.09375 280.621094 "/>
<path style=" stroke:none;fill-rule:nonzero;fill:rgb(19.215687%,70.19608%,89.411765%);fill-opacity:1;" d="M 229.65625 163.375 C 229.65625 161.984375 230.78125 160.855469 232.175781 160.855469 L 246.574219 160.855469 C 247.964844 160.855469 249.09375 161.984375 249.09375 163.375 C 249.09375 164.765625 247.964844 165.894531 246.574219 165.894531 L 232.175781 165.894531 C 230.78125 165.894531 229.65625 164.765625 229.65625 163.375 Z M 229.65625 163.375 "/>
<path style=" stroke:none;fill-rule:nonzero;fill:rgb(10.196079%,18.039216%,20.784314%);fill-opacity:1;" d="M 249.09375 285.414062 C 247.703125 285.414062 246.574219 284.285156 246.574219 282.894531 L 246.574219 156.535156 C 246.574219 155.144531 247.703125 154.015625 249.09375 154.015625 C 250.488281 154.015625 251.613281 155.144531 251.613281 156.535156 L 251.613281 282.894531 C 251.613281 284.285156 250.488281 285.414062 249.09375 285.414062 Z M 249.09375 285.414062 "/>
<path style=" stroke:none;fill-rule:nonzero;fill:rgb(23.921569%,77.254903%,96.862745%);fill-opacity:1;" d="M 232.175781 156.535156 C 232.175781 155.144531 233.304688 154.015625 234.695312 154.015625 L 249.09375 154.015625 C 250.488281 154.015625 251.613281 155.144531 251.613281 156.535156 C 251.613281 157.925781 250.488281 159.054688 249.09375 159.054688 L 234.695312 159.054688 C 233.304688 159.054688 232.175781 157.925781 232.175781 156.535156 Z M 232.175781 156.535156 "/>
<path style=" stroke:none;fill-rule:nonzero;fill:rgb(10.196079%,18.039216%,20.784314%);fill-opacity:1;" d="M 261.714844 293.046875 C 261.714844 286.1875 256.152344 280.625 249.292969 280.625 C 242.433594 280.625 236.875 286.1875 236.875 293.046875 C 236.875 299.90625 242.433594 305.464844 249.292969 305.464844 C 256.152344 305.464844 261.714844 299.90625 261.714844 293.046875 Z M 261.714844 293.046875 "/>
<path style=" stroke:none;fill-rule:nonzero;fill:rgb(3.137255%,65.098041%,87.843138%);fill-opacity:1;" d="M 250.953125 285.25 C 246.648438 284.335938 242.414062 287.085938 241.496094 291.394531 C 240.582031 295.699219 243.332031 299.933594 247.640625 300.847656 C 251.949219 301.765625 256.183594 299.015625 257.097656 294.707031 C 258.011719 290.398438 255.261719 286.164062 250.953125 285.25 Z M 250.953125 285.25 "/>
<path style=" stroke:none;fill-rule:nonzero;fill:rgb(23.921569%,77.254903%,96.862745%);fill-opacity:1;" d="M 156.609375 298.3125 L 135.261719 295.542969 C 135.390625 294.414062 135.59375 293.292969 135.875 292.1875 C 137.164062 291.84375 138.445312 291.453125 139.710938 291.027344 C 139.757812 291.496094 139.910156 291.945312 140.160156 292.34375 C 140.554688 292.9375 141.402344 293.300781 142.007812 292.929688 C 141.917969 292.054688 141.828125 291.1875 141.738281 290.3125 C 142 290.214844 142.257812 290.117188 142.519531 290.015625 C 142.519531 290.148438 142.519531 290.285156 142.519531 290.417969 C 142.5 290.914062 142.457031 291.417969 142.589844 291.894531 C 142.71875 292.375 143.070312 292.824219 143.558594 292.921875 C 144.046875 293.019531 144.609375 292.605469 144.539062 292.113281 C 144.410156 291.199219 144.28125 290.28125 144.148438 289.363281 C 144.421875 289.253906 144.6875 289.136719 144.957031 289.023438 C 145.105469 290.140625 145.257812 291.261719 145.40625 292.382812 C 145.964844 292.742188 146.75 292.230469 146.925781 291.589844 C 147.023438 291.15625 147 290.707031 146.859375 290.285156 C 146.800781 290.066406 146.726562 289.851562 146.660156 289.640625 C 146.660156 289.609375 146.636719 289.578125 146.628906 289.546875 C 146.492188 289.171875 146.414062 288.777344 146.390625 288.375 C 146.625 288.269531 146.855469 288.160156 147.085938 288.046875 C 147.128906 288.113281 147.175781 288.171875 147.222656 288.230469 C 149.402344 291.097656 153.234375 292.148438 156.570312 290.796875 C 156.789062 290.707031 157.003906 290.617188 157.210938 290.5 C 157.019531 293.039062 156.835938 295.558594 156.609375 298.3125 Z M 156.609375 298.3125 "/>
<path style=" stroke:none;fill-rule:nonzero;fill:rgb(0%,0%,0%);fill-opacity:1;" d="M 156.472656 299.941406 C 149.363281 298.871094 142.253906 297.796875 135.097656 296.863281 C 135.148438 296.421875 135.207031 295.980469 135.261719 295.542969 C 142.378906 296.46875 149.496094 297.390625 156.609375 298.3125 C 156.5625 298.847656 156.519531 299.386719 156.472656 299.941406 Z M 156.472656 299.941406 "/>
<path style=" stroke:none;fill-rule:nonzero;fill:rgb(100%,100%,100%);fill-opacity:1;" d="M 145.398438 292.378906 C 145.25 291.261719 145.101562 290.140625 144.949219 289.019531 C 145.425781 288.8125 145.90625 288.597656 146.386719 288.375 C 146.410156 288.773438 146.492188 289.167969 146.625 289.546875 C 146.636719 289.578125 146.648438 289.609375 146.65625 289.640625 C 146.726562 289.851562 146.800781 290.066406 146.855469 290.285156 C 146.996094 290.703125 147.019531 291.15625 146.925781 291.585938 C 146.742188 292.230469 145.957031 292.742188 145.398438 292.378906 Z M 143.550781 292.921875 C 143.0625 292.824219 142.714844 292.371094 142.582031 291.894531 C 142.449219 291.417969 142.492188 290.910156 142.511719 290.414062 C 142.511719 290.28125 142.511719 290.148438 142.511719 290.011719 C 143.054688 289.804688 143.59375 289.585938 144.132812 289.359375 C 144.265625 290.277344 144.394531 291.195312 144.523438 292.109375 C 144.601562 292.601562 144.035156 293.015625 143.550781 292.921875 Z M 142.007812 292.929688 C 141.402344 293.300781 140.554688 292.9375 140.160156 292.34375 C 139.910156 291.945312 139.757812 291.496094 139.710938 291.027344 C 140.390625 290.800781 141.066406 290.5625 141.738281 290.308594 C 141.828125 291.1875 141.917969 292.054688 142.007812 292.929688 Z M 142.007812 292.929688 "/>
<path style=" stroke:none;fill-rule:nonzero;fill:rgb(64.705884%,89.411765%,98.431373%);fill-opacity:1;" d="M 156.5625 290.796875 C 153.222656 292.152344 149.394531 291.097656 147.214844 288.230469 C 148.074219 286.125 148.535156 283.878906 148.5625 281.605469 C 151.957031 282.535156 155.347656 283.460938 158.617188 284.332031 C 157.933594 286.488281 157.25 288.640625 156.5625 290.796875 Z M 156.5625 290.796875 "/>
<path style=" stroke:none;fill-rule:nonzero;fill:rgb(23.921569%,77.254903%,96.862745%);fill-opacity:1;" d="M 204.191406 285.933594 C 197.867188 289.316406 191.542969 292.707031 185.21875 296.101562 C 184.664062 295.105469 184.179688 294.074219 183.765625 293.011719 C 184.605469 291.980469 185.421875 290.921875 186.210938 289.839844 C 186.523438 290.191406 186.910156 290.46875 187.34375 290.652344 C 188.011719 290.902344 188.910156 290.707031 189.1875 290.050781 L 187.445312 288.078125 C 187.601562 287.847656 187.753906 287.617188 187.910156 287.382812 C 187.988281 287.492188 188.0625 287.601562 188.136719 287.714844 C 188.40625 288.128906 188.667969 288.5625 189.050781 288.875 C 189.4375 289.191406 189.984375 289.355469 190.4375 289.148438 C 190.886719 288.941406 191.105469 288.277344 190.765625 287.921875 C 190.125 287.25 189.488281 286.582031 188.847656 285.910156 C 189.003906 285.660156 189.152344 285.410156 189.304688 285.164062 C 190.078125 285.984375 190.851562 286.808594 191.621094 287.632812 C 192.289062 287.605469 192.628906 286.734375 192.398438 286.105469 C 192.222656 285.699219 191.941406 285.347656 191.585938 285.085938 C 191.40625 284.945312 191.226562 284.808594 191.042969 284.675781 L 190.964844 284.621094 C 190.636719 284.390625 190.339844 284.117188 190.089844 283.804688 C 190.21875 283.582031 190.34375 283.359375 190.46875 283.132812 C 190.539062 283.15625 190.613281 283.179688 190.6875 283.203125 C 194.128906 284.269531 197.855469 282.898438 199.785156 279.855469 C 199.90625 279.65625 200.027344 279.453125 200.136719 279.242188 C 201.453125 281.398438 202.777344 283.566406 204.191406 285.933594 Z M 204.191406 285.933594 "/>
<path style=" stroke:none;fill-rule:nonzero;fill:rgb(0%,0%,0%);fill-opacity:1;" d="M 205.019531 287.335938 C 198.613281 290.597656 192.207031 293.859375 185.839844 297.261719 C 185.625 296.871094 185.414062 296.480469 185.207031 296.09375 L 204.183594 285.933594 C 204.464844 286.394531 204.742188 286.859375 205.019531 287.335938 Z M 205.019531 287.335938 "/>
<path style=" stroke:none;fill-rule:nonzero;fill:rgb(100%,100%,100%);fill-opacity:1;" d="M 191.617188 287.625 L 189.300781 285.152344 C 189.570312 284.703125 189.839844 284.253906 190.089844 283.792969 C 190.339844 284.105469 190.636719 284.378906 190.964844 284.609375 L 191.042969 284.667969 C 191.222656 284.796875 191.402344 284.929688 191.582031 285.074219 C 191.941406 285.335938 192.222656 285.6875 192.398438 286.09375 C 192.628906 286.71875 192.285156 287.59375 191.617188 287.625 Z M 190.441406 289.140625 C 189.988281 289.34375 189.441406 289.175781 189.054688 288.867188 C 188.671875 288.558594 188.410156 288.121094 188.140625 287.703125 C 188.066406 287.59375 187.992188 287.480469 187.914062 287.375 C 188.234375 286.890625 188.546875 286.394531 188.851562 285.902344 C 189.492188 286.570312 190.132812 287.242188 190.769531 287.910156 C 191.101562 288.269531 190.882812 288.933594 190.441406 289.140625 Z M 189.179688 290.042969 C 188.902344 290.699219 188.003906 290.894531 187.335938 290.640625 C 186.902344 290.460938 186.511719 290.183594 186.203125 289.832031 C 186.621094 289.25 187.03125 288.664062 187.4375 288.070312 C 188.019531 288.726562 188.601562 289.386719 189.179688 290.042969 Z M 189.179688 290.042969 "/>
<path style=" stroke:none;fill-rule:nonzero;fill:rgb(64.705884%,89.411765%,98.431373%);fill-opacity:1;" d="M 199.78125 279.84375 C 197.855469 282.886719 194.125 284.261719 190.683594 283.191406 C 190.164062 280.980469 189.226562 278.886719 187.929688 277.019531 C 191.230469 275.800781 194.53125 274.582031 197.695312 273.390625 C 198.390625 275.539062 199.085938 277.691406 199.78125 279.84375 Z M 199.78125 279.84375 "/>
<path style=" stroke:none;fill-rule:nonzero;fill:rgb(10.196079%,18.039216%,20.784314%);fill-opacity:1;" d="M 183.761719 280.617188 L 156.484375 162.902344 L 184.941406 171.800781 L 202.195312 273.445312 Z M 183.761719 280.617188 "/>
<path style=" stroke:none;fill-rule:nonzero;fill:rgb(3.137255%,65.098041%,87.843138%);fill-opacity:1;" d="M 145.371094 283.796875 L 152.53125 169.484375 L 182.332031 176.253906 L 162.636719 285.328125 Z M 145.371094 283.796875 "/>
<path style=" stroke:none;fill-rule:nonzero;fill:rgb(53.725493%,86.274511%,98.431373%);fill-opacity:1;" d="M 152.871094 110.339844 C 154.082031 110.269531 154.011719 110.699219 154.902344 111.53125 C 155.242188 111.878906 155.515625 112.292969 155.703125 112.746094 C 156.699219 114.878906 157.097656 117.242188 156.855469 119.585938 C 159.132812 117.550781 161.757812 115.953125 164.605469 114.863281 C 163.332031 113.097656 162.648438 110.984375 162.078125 108.882812 C 161.910156 108.160156 161.667969 107.457031 161.355469 106.785156 C 161.214844 106.472656 161 106.199219 160.730469 105.984375 C 160.261719 105.652344 159.632812 105.648438 159.0625 105.738281 C 157.523438 105.976562 156.121094 106.753906 154.800781 107.578125 C 153.792969 108.207031 152.804688 108.871094 151.839844 109.570312 C 151.503906 109.8125 152.898438 110.113281 152.867188 110.527344 "/>
<path style=" stroke:none;fill-rule:nonzero;fill:rgb(19.215687%,70.19608%,89.411765%);fill-opacity:1;" d="M 157.003906 138.34375 C 157.003906 138.34375 140.761719 147.789062 136.722656 144.964844 C 136.722656 144.964844 124.539062 142.605469 117.738281 111.789062 C 117.539062 110.890625 117.34375 109.960938 117.152344 109.011719 L 121.832031 107.078125 C 121.832031 107.078125 122.652344 108.058594 123.957031 109.734375 C 127.503906 114.289062 134.636719 123.953125 138.582031 132.800781 C 138.582031 132.800781 150.980469 121.125 158.730469 118.378906 Z M 157.003906 138.34375 "/>
<path style=" stroke:none;fill-rule:nonzero;fill:rgb(23.921569%,77.254903%,96.862745%);fill-opacity:1;" d="M 156.390625 120.5 C 155.71875 120.523438 155.332031 121.503906 155.804688 121.980469 C 154.867188 122.199219 154.492188 123.304688 154.289062 124.25 C 151.316406 138.144531 151.691406 152.507812 150.96875 166.703125 C 150.863281 168.78125 150.730469 170.875 150.246094 172.902344 C 153.34375 173.085938 156.453125 172.949219 159.519531 172.492188 C 161.90625 172.132812 164.292969 171.59375 166.703125 171.722656 C 168.890625 171.847656 171.007812 172.539062 173.164062 172.933594 C 176.484375 173.539062 179.890625 173.445312 183.171875 172.660156 C 183.945312 170.082031 183.824219 167.328125 183.546875 164.652344 C 182.757812 157.015625 180.761719 149.5625 178.773438 142.152344 C 177.929688 138.996094 177.074219 135.820312 175.6875 132.863281 C 174.84375 131.0625 173.8125 129.363281 172.78125 127.667969 L 165.996094 116.480469 C 165.800781 116.15625 165.574219 115.808594 165.214844 115.691406 C 164.699219 115.527344 164.183594 115.898438 163.761719 116.234375 C 161.300781 118.226562 158.542969 119.820312 155.585938 120.960938 "/>
<path style=" stroke:none;fill-rule:nonzero;fill:rgb(3.137255%,65.098041%,87.843138%);fill-opacity:1;" d="M 165.382812 112.621094 C 161.558594 114.640625 157.878906 116.921875 154.371094 119.449219 C 155.195312 120.679688 155.308594 122.253906 154.671875 123.589844 C 158.75 120.15625 163.191406 117.167969 167.914062 114.6875 C 167.050781 113.988281 166.15625 113.332031 165.226562 112.722656 "/>
<path style=" stroke:none;fill-rule:nonzero;fill:rgb(23.921569%,79.215688%,99.607843%);fill-opacity:1;" d="M 137.941406 144.492188 L 208.914062 144.492188 L 208.914062 182.515625 L 137.941406 182.515625 Z M 137.941406 144.492188 "/>
<path style=" stroke:none;fill-rule:nonzero;fill:rgb(22.745098%,76.862746%,97.254902%);fill-opacity:1;" d="M 137.941406 144.492188 L 155.859375 144.492188 L 155.859375 182.515625 L 137.941406 182.515625 Z M 137.941406 144.492188 "/>
<path style=" stroke:none;fill-rule:nonzero;fill:rgb(100%,100%,100%);fill-opacity:1;" d="M 189.113281 146.679688 L 206.339844 146.679688 L 206.339844 150.414062 L 189.113281 150.414062 Z M 189.113281 146.679688 "/>
<path style=" stroke:none;fill-rule:nonzero;fill:rgb(100%,100%,100%);fill-opacity:1;" d="M 189.113281 151.785156 L 206.339844 151.785156 L 206.339844 155.519531 L 189.113281 155.519531 Z M 189.113281 151.785156 "/>
<path style=" stroke:none;fill-rule:nonzero;fill:rgb(19.215687%,70.19608%,89.411765%);fill-opacity:1;" d="M 162.25 116.011719 L 165.796875 114.75 C 165.796875 114.75 166.996094 113.417969 175.785156 121.964844 C 184.574219 130.507812 197.515625 150.363281 197.515625 150.363281 L 180.054688 180.128906 L 174.34375 176.46875 L 182.121094 150.011719 C 182.121094 150.011719 141.238281 107.125 170.871094 117.464844 "/>
<path style=" stroke:none;fill-rule:nonzero;fill:rgb(53.725493%,86.274511%,98.431373%);fill-opacity:1;" d="M 174.421875 176.265625 C 173.074219 176.644531 172.011719 177.371094 170.820312 178.078125 C 170.539062 178.203125 170.347656 178.46875 170.324219 178.773438 C 169.957031 180.34375 169.398438 181.859375 168.660156 183.292969 C 170.171875 183.707031 171.722656 183.945312 173.289062 184 C 173.492188 184.019531 173.699219 184 173.894531 183.9375 C 174.132812 183.828125 174.339844 183.648438 174.484375 183.421875 C 174.851562 182.933594 175.160156 182.398438 175.402344 181.835938 C 177.171875 181.476562 178.8125 181.390625 180.054688 180.125 C 178.476562 179.378906 177.078125 177.882812 175.589844 176.96875 C 175.179688 176.71875 174.8125 176.429688 174.394531 176.25 "/>
<path style=" stroke:none;fill-rule:nonzero;fill:rgb(69.01961%,83.137256%,88.235295%);fill-opacity:1;" d="M 166.300781 92.320312 C 166.480469 92.285156 166.644531 92.242188 166.808594 92.195312 L 166.914062 92.164062 L 166.8125 92.195312 C 166.640625 92.238281 166.472656 92.285156 166.300781 92.320312 Z M 166.300781 92.320312 "/>
<path style=" stroke:none;fill-rule:nonzero;fill:rgb(47.058824%,79.215688%,90.980393%);fill-opacity:1;" d="M 146.878906 101.304688 C 146.855469 101.6875 146.863281 102.070312 146.902344 102.453125 C 147.074219 104.320312 147.652344 105.230469 148.402344 105.582031 C 148.457031 105.605469 148.511719 105.628906 148.566406 105.648438 C 149.003906 105.789062 149.472656 105.800781 149.917969 105.683594 C 149.738281 104.503906 149.59375 103.371094 149.484375 102.382812 C 149.398438 101.679688 149.335938 101.050781 149.304688 100.53125 C 149.050781 100.710938 148.152344 99.6875 148.152344 99.6875 C 147.371094 99.847656 146.984375 100.53125 146.878906 101.304688 Z M 159.109375 113.679688 C 159.109375 113.679688 159.109375 113.679688 159.109375 113.664062 C 159.109375 113.644531 159.097656 113.679688 159.109375 113.679688 Z M 155.507812 112.1875 C 156.101562 112.367188 157.019531 110.902344 157.488281 111.015625 C 158.097656 111.164062 158.554688 111.253906 158.769531 111.289062 L 158.816406 111.300781 L 158.816406 111.328125 L 158.851562 111.304688 L 158.890625 111.304688 L 158.890625 111.277344 C 158.996094 111.210938 159.234375 111.066406 159.546875 110.855469 C 159.757812 110.71875 160.007812 110.546875 160.277344 110.355469 C 160.765625 110.007812 162.140625 110.074219 162.707031 109.589844 C 162.816406 110.492188 162.542969 110.867188 163.121094 112.101562 C 163.023438 112.222656 162.917969 112.335938 162.804688 112.445312 C 162.464844 112.792969 162.074219 113.097656 161.65625 113.347656 C 161.054688 113.695312 160.398438 113.941406 159.71875 114.066406 C 159.128906 114.175781 158.527344 114.199219 157.933594 114.132812 C 157.351562 114.070312 156.785156 113.917969 156.253906 113.679688 C 156.121094 113.625 156.136719 113.53125 156.011719 113.464844 C 156.1875 112.621094 156.355469 114.75 155.519531 112.1875 Z M 165.558594 106.15625 C 166.078125 106.445312 166.667969 106.574219 167.261719 106.527344 C 167.414062 106.503906 167.5625 106.464844 167.707031 106.40625 C 168.445312 106.101562 169.082031 105.261719 169.453125 103.527344 C 169.847656 101.664062 169.460938 100.910156 168.828125 100.695312 L 168.820312 100.695312 C 168.742188 100.769531 168.648438 100.832031 168.542969 100.875 C 168.203125 101.214844 166.859375 101.273438 166.640625 101.65625 C 166.601562 101.847656 166.558594 102.046875 166.511719 102.261719 C 166.492188 102.351562 166.472656 102.441406 166.449219 102.546875 L 166.417969 102.695312 L 166.347656 102.996094 C 166.347656 103.011719 166.347656 103.027344 166.335938 103.042969 C 166.292969 103.222656 166.25 103.414062 166.203125 103.605469 C 166.1875 103.667969 166.171875 103.734375 166.15625 103.800781 L 166.15625 103.824219 C 166.132812 103.921875 166.105469 104.023438 166.082031 104.125 C 166.058594 104.226562 166.042969 104.277344 166.023438 104.351562 C 165.878906 104.929688 165.726562 105.535156 165.558594 106.15625 Z M 165.558594 106.15625 "/>
<path style=" stroke:none;fill-rule:nonzero;fill:rgb(90.196079%,97.254902%,100%);fill-opacity:1;" d="M 152.164062 97.78125 L 156.546875 96.90625 C 156.417969 96.835938 156.285156 96.773438 156.148438 96.726562 C 154.929688 96.300781 153.578125 96.539062 152.582031 97.359375 C 152.429688 97.488281 152.289062 97.628906 152.164062 97.78125 Z M 152.164062 97.78125 "/>
<path style=" stroke:none;fill-rule:nonzero;fill:rgb(53.725493%,86.274511%,98.431373%);fill-opacity:1;" d="M 149.285156 100.53125 C 149.328125 101.050781 149.394531 101.683594 149.464844 102.386719 C 149.578125 103.371094 149.730469 104.507812 149.902344 105.6875 C 149.980469 106.226562 150.0625 106.765625 150.148438 107.308594 C 150.328125 108.445312 151.21875 109.523438 152.308594 110.457031 C 153.003906 111.035156 153.742188 111.5625 154.519531 112.03125 C 155.046875 112.355469 155.554688 112.632812 155.984375 112.859375 C 156.535156 113.148438 156.960938 113.34375 157.15625 113.433594 L 157.203125 113.457031 L 157.238281 113.472656 L 157.277344 113.460938 C 157.398438 113.417969 157.660156 113.335938 158.015625 113.210938 C 158.257812 113.125 158.539062 113.027344 158.847656 112.898438 C 159.40625 112.679688 160.054688 112.398438 160.722656 112.066406 C 161.558594 111.65625 162.351562 111.171875 163.097656 110.613281 C 164.007812 109.910156 164.738281 109.09375 164.996094 108.179688 C 165.191406 107.496094 165.375 106.820312 165.550781 106.160156 C 165.71875 105.539062 165.871094 104.933594 166.011719 104.359375 C 166.027344 104.28125 166.046875 104.207031 166.066406 104.132812 C 166.085938 104.054688 166.117188 103.929688 166.140625 103.832031 L 166.140625 103.808594 C 166.15625 103.742188 166.175781 103.675781 166.1875 103.613281 C 166.234375 103.417969 166.28125 103.230469 166.320312 103.050781 C 166.328125 103.035156 166.328125 103.019531 166.332031 103.003906 C 166.355469 102.902344 166.378906 102.800781 166.402344 102.703125 L 166.433594 102.554688 C 166.457031 102.457031 166.476562 102.359375 166.5 102.265625 C 166.546875 102.054688 166.589844 101.851562 166.625 101.664062 C 166.617188 101.683594 166.605469 101.703125 166.601562 101.722656 C 166.558594 101.441406 166.519531 101.15625 166.476562 100.875 C 166.160156 100.332031 165.691406 99.523438 165.152344 98.597656 L 164.878906 98.101562 L 164.492188 97.4375 L 164.195312 96.933594 L 163.894531 96.425781 C 163.734375 96.152344 163.570312 95.882812 163.410156 95.609375 C 162.785156 96.101562 162.132812 96.554688 161.453125 96.96875 C 161.339844 96.972656 161.226562 96.980469 161.113281 96.996094 L 161.273438 97.078125 C 158.011719 99.015625 154.308594 100.082031 150.515625 100.175781 C 150.335938 100.175781 150.15625 100.175781 149.976562 100.175781 C 149.941406 100.179688 149.308594 100.554688 149.285156 100.53125 Z M 149.285156 100.53125 "/>
<path style=" stroke:none;fill-rule:nonzero;fill:rgb(3.137255%,65.098041%,87.843138%);fill-opacity:1;" d="M 165.664062 95.277344 Z M 165.898438 83.699219 C 165.859375 83.679688 165.820312 83.65625 165.78125 83.636719 C 166.699219 84.378906 167.515625 85.234375 168.214844 86.183594 C 167.683594 85.15625 166.882812 84.296875 165.898438 83.699219 Z M 159.890625 95.28125 Z M 161.152344 97.019531 C 156.148438 97.757812 150.039062 98.40625 144.90625 98.210938 C 144.921875 98.234375 144.941406 98.261719 144.957031 98.289062 C 144.972656 98.3125 144.957031 98.289062 144.957031 98.289062 C 145.304688 98.929688 145.8125 100.246094 146.421875 100.941406 C 146.546875 101.09375 146.699219 101.21875 146.871094 101.3125 C 146.984375 100.53125 147.367188 99.847656 148.128906 99.683594 C 148.128906 99.683594 149.027344 100.703125 149.28125 100.527344 C 149.304688 100.554688 149.925781 100.179688 149.957031 100.179688 C 150.136719 100.179688 150.316406 100.179688 150.496094 100.179688 C 154.300781 100.085938 158.011719 99.015625 161.28125 97.074219 Z M 145.519531 95.28125 L 144.027344 95.28125 L 145.523438 95.28125 C 145.523438 95.28125 145.519531 95.277344 145.519531 95.277344 Z M 145.867188 86.234375 L 145.941406 86.269531 C 146.585938 85.378906 147.332031 84.570312 148.167969 83.859375 C 147.246094 84.484375 146.464844 85.289062 145.863281 86.230469 Z M 170.886719 95.242188 C 170.738281 95.875 170.585938 96.5 170.421875 97.132812 C 170.320312 97.507812 170.21875 97.875 170.105469 98.238281 C 169.730469 99.003906 169.355469 99.769531 168.984375 100.539062 L 168.871094 100.648438 L 168.828125 100.6875 L 168.820312 100.6875 C 168.742188 100.765625 168.648438 100.824219 168.542969 100.867188 C 168.199219 101.207031 166.859375 101.269531 166.640625 101.648438 C 166.628906 101.667969 166.621094 101.6875 166.613281 101.710938 L 166.492188 100.859375 L 166.441406 100.53125 C 166.230469 99.101562 166.023438 97.675781 165.8125 96.246094 C 166.4375 96.132812 167.023438 96.027344 167.554688 95.925781 C 169.003906 95.652344 170.058594 95.4375 170.546875 95.332031 L 170.566406 95.332031 L 170.855469 95.269531 C 170.855469 95.269531 170.855469 95.253906 170.855469 95.246094 Z M 170.886719 95.242188 "/>
<path style=" stroke:none;fill-rule:nonzero;fill:rgb(47.058824%,79.215688%,90.980393%);fill-opacity:1;" d="M 163.40625 95.605469 L 163.890625 96.421875 L 164.191406 96.933594 C 164.292969 97.101562 164.390625 97.269531 164.488281 97.4375 L 164.878906 98.101562 L 165.171875 98.597656 C 165.710938 99.523438 166.179688 100.328125 166.496094 100.875 L 166.445312 100.546875 C 166.167969 98.671875 165.890625 96.792969 165.617188 94.921875 C 165.558594 94.535156 165.5 94.148438 165.4375 93.761719 C 165.320312 93.882812 165.203125 94.003906 165.078125 94.121094 C 164.546875 94.648438 163.988281 95.140625 163.40625 95.605469 Z M 163.40625 95.605469 "/>
<path style=" stroke:none;fill-rule:nonzero;fill:rgb(35.294119%,46.666667%,50.980395%);fill-opacity:1;" d="M 159.121094 85.285156 C 159.257812 85.296875 159.394531 85.3125 159.53125 85.328125 C 159.644531 85.34375 159.761719 85.359375 159.875 85.378906 C 159.953125 85.390625 160.03125 85.40625 160.109375 85.421875 L 160.351562 85.472656 L 160.59375 85.53125 C 160.699219 85.558594 160.808594 85.585938 160.914062 85.617188 C 161.050781 85.660156 161.1875 85.703125 161.320312 85.75 L 161.433594 85.789062 C 161.523438 85.820312 161.613281 85.851562 161.703125 85.886719 C 161.75 85.90625 161.804688 85.925781 161.851562 85.949219 L 161.960938 85.992188 C 162.003906 86.007812 162.046875 86.027344 162.085938 86.046875 C 162.210938 86.101562 162.335938 86.160156 162.457031 86.226562 C 162.578125 86.292969 162.699219 86.347656 162.816406 86.40625 C 162.882812 86.441406 162.945312 86.476562 163.007812 86.511719 C 163.070312 86.550781 163.101562 86.566406 163.144531 86.59375 L 163.179688 86.617188 C 163.207031 86.628906 163.234375 86.644531 163.257812 86.664062 L 163.359375 86.722656 C 163.765625 86.980469 164.15625 87.265625 164.527344 87.578125 L 164.585938 87.628906 C 164.855469 87.863281 165.117188 88.113281 165.363281 88.375 C 165.398438 88.414062 165.4375 88.453125 165.46875 88.492188 C 165.503906 88.53125 165.582031 88.613281 165.632812 88.671875 C 165.683594 88.734375 165.738281 88.796875 165.785156 88.851562 C 165.835938 88.910156 165.90625 89.003906 165.964844 89.078125 C 166 89.121094 166.035156 89.167969 166.066406 89.210938 C 166.125 89.289062 166.179688 89.367188 166.234375 89.449219 L 166.363281 89.636719 C 166.390625 89.679688 166.421875 89.726562 166.445312 89.769531 C 166.460938 89.792969 166.476562 89.8125 166.488281 89.839844 L 166.535156 89.910156 C 166.589844 90.003906 166.644531 90.09375 166.695312 90.1875 C 166.75 90.285156 166.796875 90.367188 166.84375 90.472656 C 166.890625 90.578125 166.941406 90.664062 166.984375 90.761719 C 167.03125 90.859375 167.074219 90.957031 167.113281 91.054688 C 167.136719 91.101562 167.152344 91.152344 167.171875 91.199219 C 167.1875 91.15625 167.207031 91.109375 167.21875 91.0625 C 167.230469 91.015625 167.238281 91.003906 167.246094 90.96875 C 167.246094 90.96875 167.246094 90.96875 167.246094 90.960938 L 167.257812 90.929688 C 167.257812 90.929688 167.257812 90.929688 167.257812 90.917969 C 167.269531 90.886719 167.277344 90.851562 167.285156 90.816406 C 167.308594 90.738281 167.328125 90.660156 167.34375 90.578125 C 167.34375 90.550781 167.355469 90.519531 167.363281 90.488281 C 167.367188 90.460938 167.375 90.429688 167.378906 90.402344 C 167.382812 90.371094 167.394531 90.300781 167.402344 90.253906 C 167.402344 90.242188 167.402344 90.234375 167.402344 90.226562 L 167.402344 90.183594 C 167.402344 90.140625 167.414062 90.101562 167.417969 90.058594 C 167.417969 90.050781 167.417969 90.039062 167.417969 90.03125 C 167.417969 89.964844 167.429688 89.902344 167.433594 89.839844 C 167.4375 89.773438 167.433594 89.726562 167.433594 89.675781 C 167.433594 89.582031 167.433594 89.496094 167.433594 89.398438 C 167.433594 89.382812 167.433594 89.363281 167.433594 89.347656 C 167.433594 89.3125 167.433594 89.277344 167.433594 89.242188 L 167.433594 89.144531 C 167.433594 89.074219 167.421875 89 167.414062 88.929688 C 167.414062 88.929688 167.414062 88.914062 167.414062 88.90625 C 167.414062 88.835938 167.394531 88.761719 167.382812 88.691406 C 167.371094 88.621094 167.367188 88.582031 167.355469 88.53125 C 167.34375 88.476562 167.335938 88.421875 167.324219 88.367188 C 167.320312 88.34375 167.3125 88.320312 167.304688 88.296875 C 167.304688 88.265625 167.289062 88.230469 167.28125 88.199219 C 167.277344 88.167969 167.261719 88.113281 167.246094 88.066406 C 167.234375 88.023438 167.246094 88.027344 167.234375 88.011719 C 167.21875 87.992188 167.210938 87.929688 167.195312 87.886719 C 167.164062 87.785156 167.128906 87.679688 167.089844 87.578125 C 167.070312 87.53125 167.050781 87.480469 167.03125 87.433594 C 166.988281 87.332031 166.941406 87.226562 166.890625 87.125 C 166.875 87.085938 166.859375 87.050781 166.839844 87.015625 C 166.808594 86.953125 166.773438 86.894531 166.742188 86.835938 L 166.679688 86.730469 C 166.660156 86.695312 166.636719 86.65625 166.617188 86.625 C 166.574219 86.554688 166.527344 86.484375 166.480469 86.417969 L 166.386719 86.28125 C 166.339844 86.214844 166.285156 86.152344 166.234375 86.089844 C 166.183594 86.027344 166.128906 85.960938 166.074219 85.910156 C 166.019531 85.855469 166 85.824219 165.964844 85.789062 C 165.925781 85.75 165.855469 85.679688 165.800781 85.625 L 165.621094 85.472656 C 165.582031 85.4375 165.542969 85.40625 165.503906 85.375 L 165.339844 85.246094 L 165.226562 85.167969 C 165.167969 85.128906 165.109375 85.085938 165.046875 85.050781 L 164.867188 84.945312 C 164.824219 84.921875 164.785156 84.898438 164.742188 84.875 C 164.699219 84.855469 164.660156 84.832031 164.617188 84.8125 L 164.503906 84.757812 L 164.339844 84.683594 L 164.21875 84.632812 L 164.164062 84.613281 L 164.105469 84.59375 L 163.992188 84.550781 L 163.84375 84.503906 C 163.722656 84.46875 163.605469 84.4375 163.484375 84.40625 L 163.3125 84.371094 L 163.148438 84.34375 L 163.097656 84.332031 L 163.070312 84.332031 L 162.933594 84.3125 C 162.878906 84.3125 162.824219 84.300781 162.765625 84.296875 L 162.6875 84.296875 L 162.5625 84.285156 C 162.492188 84.285156 162.425781 84.285156 162.359375 84.285156 L 162.316406 84.285156 C 162.246094 84.285156 162.171875 84.285156 162.101562 84.285156 C 161.984375 84.285156 161.871094 84.296875 161.757812 84.304688 L 161.644531 84.316406 C 161.566406 84.316406 161.492188 84.335938 161.414062 84.347656 L 161.1875 84.386719 C 161.113281 84.398438 161.035156 84.417969 160.964844 84.433594 C 160.890625 84.453125 160.816406 84.46875 160.742188 84.492188 L 160.539062 84.554688 C 160.523438 84.558594 160.507812 84.566406 160.492188 84.570312 L 160.378906 84.601562 L 160.3125 84.625 L 160.125 84.699219 C 160.070312 84.722656 160.019531 84.746094 159.96875 84.773438 L 159.832031 84.839844 C 159.816406 84.847656 159.804688 84.851562 159.796875 84.859375 L 159.664062 84.929688 C 159.476562 85.035156 159.292969 85.15625 159.121094 85.285156 Z M 170.859375 95.25 C 170.859375 95.257812 170.859375 95.265625 170.859375 95.277344 L 170.570312 95.335938 L 170.777344 95.277344 Z M 170.859375 95.25 "/>
<path style=" stroke:none;fill-rule:nonzero;fill:rgb(6.27451%,13.333334%,16.078432%);fill-opacity:1;" d="M 164.828125 101 L 160.441406 99.335938 C 162.113281 98.824219 163.917969 99.507812 164.828125 101 Z M 154.050781 99.828125 L 150.269531 101 C 151.175781 99.882812 152.667969 99.417969 154.050781 99.828125 Z M 152.699219 101.042969 C 153.199219 100.882812 153.78125 101.355469 154.015625 102.089844 C 154.253906 102.824219 154.027344 103.546875 153.527344 103.710938 C 153.03125 103.871094 152.4375 103.394531 152.210938 102.660156 C 151.980469 101.921875 152.199219 101.195312 152.699219 101.042969 Z M 160.984375 101.148438 C 161.507812 101.101562 161.984375 101.6875 162.054688 102.453125 C 162.121094 103.214844 161.757812 103.878906 161.238281 103.929688 C 160.714844 103.976562 160.238281 103.386719 160.167969 102.625 C 160.101562 101.859375 160.464844 101.195312 160.984375 101.148438 Z M 160.984375 101.148438 "/>
<path style=" stroke:none;fill-rule:nonzero;fill:rgb(38.431373%,82.352942%,98.431373%);fill-opacity:1;" d="M 155.765625 100.582031 C 155.976562 101.621094 156.1875 102.664062 156.398438 103.703125 C 156.292969 103.339844 155.964844 103.089844 155.589844 103.085938 C 155.210938 103.078125 154.875 103.320312 154.761719 103.675781 C 154.644531 104.035156 154.773438 104.425781 155.082031 104.644531 L 157.375 106.265625 "/>
<path style=" stroke:none;fill-rule:nonzero;fill:rgb(100%,100%,100%);fill-opacity:1;" d="M 155.160156 107.820312 C 157.890625 108.628906 161.085938 107.4375 162.621094 105.035156 C 162.796875 106.929688 161.710938 108.71875 159.945312 109.425781 C 158.207031 110.078125 156.074219 109.40625 155.160156 107.820312 Z M 155.160156 107.820312 "/>
<path style=" stroke:none;fill-rule:nonzero;fill:rgb(53.725493%,86.274511%,98.431373%);fill-opacity:1;" d="M 121.480469 107.246094 C 121.847656 104.761719 122.214844 102.277344 122.582031 99.796875 C 122.683594 99.117188 121.921875 98.535156 121.246094 98.636719 C 120.566406 98.738281 120.054688 99.355469 119.859375 100.011719 C 119.664062 100.664062 119.71875 101.367188 119.777344 102.054688 C 119.058594 101.765625 118.320312 101.472656 117.542969 101.433594 C 116.769531 101.394531 115.933594 101.652344 115.472656 102.277344 C 114.671875 103.367188 114.496094 104.796875 115.019531 106.046875 C 115.539062 107.296875 116.675781 108.183594 118.011719 108.382812 C 118.050781 108.613281 118.085938 108.84375 118.121094 109.070312 C 119.101562 108.238281 120.246094 107.617188 121.480469 107.246094 Z M 121.480469 107.246094 "/>
<path style=" stroke:none;fill-rule:nonzero;fill:rgb(23.921569%,77.254903%,96.862745%);fill-opacity:1;" d="M 123.957031 109.734375 L 117.738281 111.789062 C 117.539062 110.890625 117.34375 109.960938 117.152344 109.011719 L 121.832031 107.078125 C 121.832031 107.078125 122.65625 108.058594 123.957031 109.734375 Z M 170.886719 94.335938 C 170.886719 94.644531 170.878906 94.949219 170.859375 95.25 L 170.773438 95.277344 L 143.359375 95.277344 C 143.339844 94.964844 143.328125 94.652344 143.328125 94.335938 C 143.328125 93.964844 143.34375 93.601562 143.371094 93.238281 C 143.78125 88.140625 146.980469 83.6875 151.679688 81.675781 C 156.378906 79.660156 161.804688 80.414062 165.78125 83.628906 C 167.820312 85.28125 169.347656 87.480469 170.179688 89.96875 C 170.28125 90.273438 170.371094 90.582031 170.453125 90.894531 C 170.742188 92.019531 170.886719 93.175781 170.886719 94.335938 Z M 170.886719 94.335938 "/>
<path style=" stroke:none;fill-rule:nonzero;fill:rgb(19.215687%,70.19608%,89.411765%);fill-opacity:1;" d="M 170.773438 95.277344 L 170.566406 95.335938 L 170.546875 95.335938 C 170.058594 95.441406 169.003906 95.660156 167.554688 95.933594 C 167.011719 96.03125 166.4375 96.140625 165.8125 96.25 C 164.441406 96.492188 162.859375 96.753906 161.148438 97.007812 C 156.148438 97.746094 150.039062 98.394531 144.90625 98.199219 C 142.347656 98.105469 140.035156 97.796875 138.21875 97.1875 C 138.191406 97.175781 138.21875 97.167969 138.21875 97.140625 C 138.097656 94.933594 143.328125 95.277344 143.328125 95.277344 L 170.785156 95.277344 Z M 170.773438 95.277344 "/>
</g>
</svg>
