<?xml version="1.0" encoding="UTF-8"?>
<svg xmlns="http://www.w3.org/2000/svg" xmlns:xlink="http://www.w3.org/1999/xlink" width="450px" height="450px" viewBox="0 0 450 450" version="1.1">
<defs>
<filter id="alpha" filterUnits="objectBoundingBox" x="0%" y="0%" width="100%" height="100%">
  <feColorMatrix type="matrix" in="SourceGraphic" values="0 0 0 0 1 0 0 0 0 1 0 0 0 0 1 0 0 0 1 0"/>
</filter>
<mask id="mask0">
  <g filter="url(#alpha)">
<rect x="0" y="0" width="450" height="450" style="fill:rgb(0%,0%,0%);fill-opacity:0.101961;stroke:none;"/>
  </g>
</mask>
<clipPath id="clip1">
  <rect x="0" y="0" width="450" height="450"/>
</clipPath>
<g id="surface5" clip-path="url(#clip1)">
<path style=" stroke:none;fill-rule:nonzero;fill:rgb(12.156863%,13.333334%,13.725491%);fill-opacity:1;" d="M 145.226562 319.226562 C 149.730469 322.375 152.34375 326.414062 152.007812 330.589844 C 151.328125 338.945312 139.082031 344.699219 124.667969 343.445312 C 124.097656 343.394531 123.546875 343.320312 122.988281 343.246094 C 113.773438 342.121094 109.523438 343.847656 108.5 349.167969 C 106.984375 356.988281 95.160156 362.273438 81.285156 361.0625 C 74.078125 360.433594 67.691406 358.171875 63.191406 355.023438 C 58.695312 351.875 56.082031 347.839844 56.421875 343.664062 C 57.101562 335.300781 69.339844 329.550781 83.761719 330.8125 C 84.328125 330.859375 84.882812 330.9375 85.433594 331.003906 C 94.648438 332.128906 98.898438 330.402344 99.929688 325.085938 C 101.441406 317.269531 113.257812 311.976562 127.132812 313.1875 C 134.339844 313.816406 140.726562 316.078125 145.226562 319.226562 Z M 145.226562 319.226562 "/>
</g>
<mask id="mask1">
  <g filter="url(#alpha)">
<rect x="0" y="0" width="450" height="450" style="fill:rgb(0%,0%,0%);fill-opacity:0.101961;stroke:none;"/>
  </g>
</mask>
<clipPath id="clip2">
  <rect x="0" y="0" width="450" height="450"/>
</clipPath>
<g id="surface8" clip-path="url(#clip2)">
<path style=" stroke:none;fill-rule:nonzero;fill:rgb(12.156863%,13.333334%,13.725491%);fill-opacity:1;" d="M 292.589844 427.5 C 326.4375 427.5 358.34375 419.84375 382.433594 405.941406 L 393.609375 399.664062 L 368.851562 385.273438 L 363.15625 388.386719 C 344.375 399.226562 319.289062 405.195312 292.523438 405.195312 C 265.488281 405.191406 240.152344 399.121094 221.191406 388.097656 C 203.253906 377.667969 193.382812 364.15625 193.40625 350.054688 C 193.429688 335.984375 203.304688 322.542969 221.210938 312.210938 L 229.457031 307.453125 L 204.699219 293.058594 L 201.933594 294.65625 C 176.800781 309.160156 162.941406 328.808594 162.90625 349.988281 C 162.871094 371.207031 176.714844 390.949219 201.878906 405.578125 C 226.191406 419.714844 258.40625 427.5 292.582031 427.5 C 292.585938 427.5 292.585938 427.5 292.589844 427.5 Z M 292.589844 427.5 "/>
<path style=" stroke:none;fill-rule:nonzero;fill:rgb(12.156863%,13.333334%,13.725491%);fill-opacity:1;" d="M 119.695312 366.496094 L 228.285156 303.800781 L 236.667969 308.722656 L 128.078125 371.417969 Z M 119.695312 366.496094 "/>
</g>
<clipPath id="clip3">
  <path d="M 171 287 L 373 287 L 373 405 L 171 405 Z M 171 287 "/>
</clipPath>
<clipPath id="clip4">
  <path d="M 206.066406 287.613281 L 219.179688 295.234375 C 180.375 317.628906 180.363281 354.0625 219.148438 376.613281 C 257.933594 399.160156 320.832031 399.289062 359.636719 376.894531 L 372.75 384.519531 C 326.699219 411.09375 252.058594 410.941406 206.03125 384.183594 C 160 357.421875 160.019531 314.1875 206.066406 287.613281 Z M 206.066406 287.613281 "/>
</clipPath>
<mask id="mask2">
  <g filter="url(#alpha)">
<rect x="0" y="0" width="450" height="450" style="fill:rgb(0%,0%,0%);fill-opacity:0.101961;stroke:none;"/>
  </g>
</mask>
<clipPath id="clip5">
  <rect x="0" y="0" width="450" height="450"/>
</clipPath>
<g id="surface11" clip-path="url(#clip5)">
<path style=" stroke:none;fill-rule:nonzero;fill:rgb(12.156863%,13.333334%,13.725491%);fill-opacity:1;" d="M 119.695312 357.921875 L 228.285156 295.226562 L 236.667969 300.152344 L 128.078125 362.847656 Z M 119.695312 357.921875 "/>
</g>
<clipPath id="clip6">
  <path d="M 190 285 L 360 285 L 360 384 L 190 384 Z M 190 285 "/>
</clipPath>
<clipPath id="clip7">
  <path d="M 219.207031 285.15625 L 232.75 293.027344 C 201.429688 311.101562 201.417969 340.511719 232.722656 358.710938 C 264.03125 376.914062 314.804688 377.015625 346.125 358.941406 L 359.667969 366.8125 C 320.863281 389.207031 257.960938 389.082031 219.175781 366.53125 C 180.390625 343.980469 180.40625 307.546875 219.207031 285.15625 Z M 219.207031 285.15625 "/>
</clipPath>
<mask id="mask3">
  <g filter="url(#alpha)">
<rect x="0" y="0" width="450" height="450" style="fill:rgb(0%,0%,0%);fill-opacity:0.101961;stroke:none;"/>
  </g>
</mask>
<clipPath id="clip8">
  <rect x="0" y="0" width="450" height="450"/>
</clipPath>
<g id="surface14" clip-path="url(#clip8)">
<path style=" stroke:none;fill-rule:nonzero;fill:rgb(12.156863%,13.333334%,13.725491%);fill-opacity:1;" d="M 119.695312 350.675781 L 228.285156 287.980469 L 236.667969 292.902344 L 128.078125 355.597656 Z M 119.695312 350.675781 "/>
</g>
<mask id="mask4">
  <g filter="url(#alpha)">
<rect x="0" y="0" width="450" height="450" style="fill:rgb(0%,0%,0%);fill-opacity:0.101961;stroke:none;"/>
  </g>
</mask>
<clipPath id="clip9">
  <rect x="0" y="0" width="450" height="450"/>
</clipPath>
<g id="surface17" clip-path="url(#clip9)">
<path style=" stroke:none;fill-rule:nonzero;fill:rgb(12.156863%,13.333334%,13.725491%);fill-opacity:1;" d="M 127.894531 229.960938 C 126.753906 230.039062 124.996094 229.402344 124.632812 229.625 C 124.582031 229.71875 125.824219 230.910156 127.773438 231.769531 C 130.082031 232.785156 130.90625 233.035156 131.164062 233.40625 C 133.078125 235.046875 129.035156 239.253906 128.484375 239.636719 C 126.421875 241.058594 122.574219 240.230469 120.792969 239.519531 C 118.796875 238.726562 117.265625 236.253906 116.59375 234.988281 C 116.148438 234.15625 115.210938 233.601562 114.59375 233.214844 C 112.121094 231.671875 113.875 224.976562 115.40625 225.648438 C 116.820312 226.253906 117.746094 226.320312 118.949219 225.890625 C 121.191406 225.082031 124.421875 225.972656 124.925781 226.367188 C 126.023438 227.226562 128.394531 227.734375 129.375 227.769531 C 129.632812 227.777344 129.84375 227.988281 129.832031 228.246094 C 129.792969 229.039062 129.335938 229.863281 127.894531 229.960938 Z M 127.894531 229.960938 "/>
</g>
<clipPath id="clip10">
  <path d="M 212.597656 117.722656 L 346.3125 117.722656 L 346.3125 341.28125 L 212.597656 341.28125 Z M 212.597656 117.722656 "/>
</clipPath>
<mask id="mask5">
  <g filter="url(#alpha)">
<rect x="0" y="0" width="450" height="450" style="fill:rgb(0%,0%,0%);fill-opacity:0.101961;stroke:none;"/>
  </g>
</mask>
<clipPath id="clip11">
  <rect x="0" y="0" width="450" height="450"/>
</clipPath>
<g id="surface20" clip-path="url(#clip11)">
<path style=" stroke:none;fill-rule:nonzero;fill:rgb(12.156863%,13.333334%,13.725491%);fill-opacity:1;" d="M 253.253906 280.332031 C 244.828125 285.316406 243.65625 293.34375 251 299.125 C 259.023438 305.4375 274.167969 306.679688 284.828125 301.894531 C 285.730469 301.492188 286.570312 301.054688 287.351562 300.59375 C 288.296875 300.035156 289.152344 299.433594 289.914062 298.804688 C 297.511719 292.820312 303.910156 288.203125 310.316406 284.414062 C 323.800781 276.433594 337.316406 272.113281 362.082031 266.421875 C 364.320312 265.945312 366.476562 265.257812 368.476562 264.363281 C 369.378906 263.957031 370.21875 263.523438 371 263.0625 C 379.425781 258.074219 380.597656 250.046875 373.25 244.265625 C 365.230469 237.953125 350.085938 236.714844 339.421875 241.496094 C 338.519531 241.902344 337.679688 242.335938 336.902344 242.796875 C 335.953125 243.359375 335.097656 243.957031 334.335938 244.585938 C 326.738281 250.570312 320.339844 255.1875 313.933594 258.980469 C 300.449219 266.960938 286.933594 271.277344 262.171875 276.96875 C 259.933594 277.449219 257.773438 278.132812 255.777344 279.03125 C 254.875 279.433594 254.03125 279.871094 253.253906 280.332031 Z M 253.253906 280.332031 "/>
</g>
<clipPath id="clip12">
  <path d="M 344 226 L 346.3125 226 L 346.3125 235 L 344 235 Z M 344 226 "/>
</clipPath>
<clipPath id="clip13">
  <path d="M 338 226 L 346.3125 226 L 346.3125 258 L 338 258 Z M 338 226 "/>
</clipPath>
<clipPath id="clip14">
  <path d="M 337 226 L 346.3125 226 L 346.3125 259 L 337 259 Z M 337 226 "/>
</clipPath>
<clipPath id="clip15">
  <path d="M 299 215 L 346.3125 215 L 346.3125 269 L 299 269 Z M 299 215 "/>
</clipPath>
<clipPath id="clip16">
  <path d="M 261 235 L 265 235 L 265 238 L 261 238 Z M 261 235 "/>
</clipPath>
<clipPath id="clip17">
  <path d="M 264.101562 237.207031 L 261.140625 235.484375 C 261.097656 235.460938 261.074219 235.40625 261.074219 235.328125 L 264.035156 237.046875 C 264.03125 237.125 264.058594 237.179688 264.101562 237.207031 Z M 264.101562 237.207031 "/>
</clipPath>
</defs>
<g id="surface1">
<use xlink:href="#surface5" mask="url(#mask0)"/>
<path style=" stroke:none;fill-rule:nonzero;fill:rgb(52.941179%,86.666667%,99.215686%);fill-opacity:1;" d="M 102.304688 159.722656 C 97.632812 158.425781 92.027344 169.585938 95.011719 172.949219 C 96.460938 174.585938 134.914062 193.0625 137.371094 191.980469 C 140.386719 190.65625 138.066406 182.789062 133.847656 177.710938 C 133.371094 177.136719 105.121094 160.503906 102.304688 159.722656 Z M 102.304688 159.722656 "/>
<path style=" stroke:none;fill-rule:nonzero;fill:rgb(30.980393%,48.627451%,54.901963%);fill-opacity:1;" d="M 145.625 326.214844 C 145.71875 322.640625 133.5 322.539062 124.082031 323.035156 C 114.660156 323.53125 109.0625 321.277344 108.757812 325.605469 C 108.691406 326.535156 108.71875 326.832031 108.773438 327.871094 C 108.917969 330.699219 110.496094 333.039062 116.960938 333.140625 C 117.632812 333.152344 119.945312 332.25 120.644531 332.261719 C 124.894531 332.34375 132.550781 333.996094 137.640625 333.203125 C 142.386719 332.460938 145.535156 329.578125 145.625 326.214844 Z M 145.625 326.214844 "/>
<path style=" stroke:none;fill-rule:nonzero;fill:rgb(9.803922%,14.901961%,16.862746%);fill-opacity:1;" d="M 145.585938 325.570312 C 145.414062 323.300781 135.582031 320.242188 127.339844 319.972656 C 126.292969 319.9375 124.957031 314.84375 123.917969 314.960938 C 117.914062 315.628906 112.230469 318.917969 109.882812 319.152344 C 108.566406 319.285156 108.835938 323.28125 108.933594 324.914062 C 109.207031 329.460938 112.511719 331.46875 121.929688 330.972656 C 126.175781 330.75 132.003906 332.886719 137.09375 332.089844 C 141.839844 331.347656 145.835938 328.925781 145.585938 325.570312 Z M 145.585938 325.570312 "/>
<path style=" stroke:none;fill-rule:nonzero;fill:rgb(21.176471%,21.176471%,21.176471%);fill-opacity:1;" d="M 108.867188 320.035156 C 112.300781 326.816406 129.492188 322.410156 127.460938 317.914062 C 128.324219 284.222656 122.464844 248.769531 118.859375 228.84375 L 94.707031 247.554688 C 103.4375 276.335938 105.835938 293.464844 108.867188 320.035156 Z M 108.867188 320.035156 "/>
<path style=" stroke:none;fill-rule:nonzero;fill:rgb(30.980393%,48.627451%,54.901963%);fill-opacity:1;" d="M 89.097656 340.511719 C 89.238281 348.460938 90.773438 353.929688 82.089844 354.132812 C 75.875 354.277344 72.542969 348.097656 72.398438 340.148438 C 72.257812 332.199219 76.984375 325.425781 81.574219 325.34375 C 86.160156 325.261719 88.953125 332.5625 89.097656 340.511719 Z M 89.097656 340.511719 "/>
<path style=" stroke:none;fill-rule:nonzero;fill:rgb(9.803922%,14.901961%,16.862746%);fill-opacity:1;" d="M 89.316406 338.101562 C 89.457031 346.050781 90.984375 351.992188 82.304688 352.195312 C 76.085938 352.339844 72.761719 345.6875 72.617188 337.738281 C 72.476562 329.789062 77.203125 323.015625 81.792969 322.933594 C 86.378906 322.851562 89.171875 330.152344 89.316406 338.101562 Z M 89.316406 338.101562 "/>
<path style=" stroke:none;fill-rule:nonzero;fill:rgb(90.196079%,90.588236%,90.980393%);fill-opacity:1;" d="M 77.679688 168.441406 C 78.84375 167.9375 80.433594 167.585938 82.203125 167.175781 C 85.136719 166.492188 94.683594 161.394531 95.933594 160.960938 C 99.789062 160.3125 106.558594 163.636719 110.261719 169.960938 C 117.449219 182.246094 119.773438 202.617188 119.433594 222.480469 L 84.15625 222.480469 C 83.339844 220.164062 82.496094 217.652344 81.683594 214.867188 C 79.949219 208.9375 70.117188 187.117188 69.25 181.109375 C 68.429688 175.449219 72.488281 170.695312 77.679688 168.441406 Z M 77.679688 168.441406 "/>
<path style=" stroke:none;fill-rule:nonzero;fill:rgb(29.019609%,29.019609%,29.019609%);fill-opacity:1;" d="M 100.3125 161.503906 C 102.644531 163.371094 106.316406 166.429688 107.621094 169.914062 L 104.351562 171.640625 C 103.824219 167.191406 98.84375 164.644531 96.609375 161.867188 C 97.84375 161.445312 99.257812 160.933594 100.3125 161.503906 Z M 100.3125 161.503906 "/>
<path style=" stroke:none;fill-rule:nonzero;fill:rgb(29.019609%,29.019609%,29.019609%);fill-opacity:1;" d="M 77.378906 206.371094 C 76.875 205.152344 89.8125 199.417969 90.585938 193.234375 C 91.078125 189.300781 88.523438 182.160156 86.980469 178.554688 C 94.925781 176.539062 103.933594 172.453125 106.402344 168.90625 C 108.886719 170.039062 110.738281 175.023438 113.363281 181.476562 C 114.601562 184.519531 116.996094 185.339844 117.109375 186.03125 C 120.671875 207.625 124.472656 227.445312 111.148438 241.855469 C 105.847656 247.589844 100.292969 306.246094 90.648438 332.71875 C 88.5 339.136719 74.65625 339.789062 72.742188 332.132812 C 78.582031 305.726562 82.132812 277.007812 82.066406 250.410156 C 82.003906 226.734375 78.117188 208.15625 77.378906 206.371094 Z M 77.378906 206.371094 "/>
<path style=" stroke:none;fill-rule:nonzero;fill:rgb(29.019609%,29.019609%,29.019609%);fill-opacity:1;" d="M 87.601562 179.992188 L 90.195312 178.367188 C 86.527344 171.53125 82.421875 168.402344 77.082031 168.632812 C 76.253906 168.609375 74.773438 169.371094 74.550781 170.164062 C 80.042969 171.03125 84.140625 174.09375 87.601562 179.992188 Z M 87.601562 179.992188 "/>
<path style=" stroke:none;fill-rule:nonzero;fill:rgb(57.254905%,73.725492%,80.000001%);fill-opacity:1;" d="M 98.507812 143.34375 L 99.335938 164.1875 C 99.335938 164.1875 100.300781 168.222656 96.5 169.679688 C 90.929688 171.8125 82.824219 169.710938 82.265625 167.296875 L 80.203125 143.003906 Z M 98.507812 143.34375 "/>
<path style=" stroke:none;fill-rule:nonzero;fill:rgb(64.705884%,83.137256%,90.196079%);fill-opacity:1;" d="M 75.179688 149.71875 C 76.808594 154.894531 79.378906 157.585938 83.890625 159.433594 C 87.957031 161.09375 92.757812 163.992188 96.960938 162.949219 C 101.753906 161.761719 103.816406 153.339844 101.511719 144.332031 C 101.082031 142.652344 100.421875 139.414062 100.019531 137.679688 C 99.695312 136.289062 100.464844 134.703125 98.082031 131.582031 C 94.949219 127.480469 88.941406 126.429688 82.957031 128.316406 C 72.65625 131.558594 71.917969 139.367188 75.179688 149.71875 Z M 75.179688 149.71875 "/>
<path style=" stroke:none;fill-rule:nonzero;fill:rgb(15.686275%,20.392157%,21.960784%);fill-opacity:1;" d="M 82.71875 127.5625 C 89.335938 125.480469 97.015625 127.921875 99.761719 134.191406 C 98.542969 132.648438 97.589844 131.917969 96.667969 131.796875 C 95.253906 131.609375 94.519531 132.304688 93.851562 133.527344 C 91.292969 134.054688 88.902344 133.417969 84.96875 135.449219 C 81.492188 137.246094 78.167969 143.101562 81.210938 147.386719 C 80.902344 148.425781 80.511719 148.882812 79.855469 150.269531 C 79.019531 148.695312 77.808594 147.738281 77.027344 148.089844 C 76.167969 148.476562 76.144531 150.289062 76.976562 152.136719 C 77.539062 153.386719 78.347656 154.328125 79.078125 154.691406 C 78.894531 156.175781 80.183594 157.230469 80.285156 157.785156 C 76.800781 154.664062 76.160156 152.992188 74.800781 150.308594 C 70.058594 140.953125 72.449219 130.796875 82.71875 127.5625 Z M 82.71875 127.5625 "/>
<path style=" stroke:none;fill-rule:nonzero;fill:rgb(0%,72.941178%,100%);fill-opacity:1;" d="M 84.460938 125.550781 C 75.964844 126.980469 70.742188 132.984375 71.160156 139.453125 C 71.292969 141.492188 72.046875 144.96875 72.738281 145.117188 C 73.417969 145.257812 74.289062 145.074219 75.222656 144.988281 C 79.652344 144.582031 82.28125 141.707031 85.285156 141.667969 L 100.59375 132.5 C 97.84375 127.589844 92.605469 124.179688 84.460938 125.550781 Z M 84.460938 125.550781 "/>
<path style=" stroke:none;fill-rule:nonzero;fill:rgb(1.176471%,65.882355%,90.196079%);fill-opacity:1;" d="M 112.089844 135.402344 C 111.054688 132.097656 100.667969 132.785156 100.59375 132.5 C 96.070312 130.882812 84.75 139.082031 85.285156 141.667969 C 88.03125 142.5625 98.175781 143.464844 102.171875 140.492188 C 103.332031 139.628906 105.296875 137.75 107.375 136.707031 C 109.949219 135.417969 112.359375 136.269531 112.089844 135.402344 Z M 112.089844 135.402344 "/>
<path style=" stroke:none;fill-rule:nonzero;fill:rgb(25.098041%,47.058824%,54.901963%);fill-opacity:1;" d="M 229.078125 307.425781 L 235.375 303.769531 L 236.046875 45.164062 L 229.753906 48.820312 Z M 229.078125 307.425781 "/>
<path style=" stroke:none;fill-rule:nonzero;fill:rgb(43.137255%,72.156864%,83.137256%);fill-opacity:1;" d="M 224.332031 46.296875 C 226.855469 46.015625 229.609375 48.679688 229.753906 48.820312 L 229.078125 307.425781 C 228.933594 307.285156 226.183594 304.617188 223.660156 304.902344 Z M 224.332031 46.296875 "/>
<path style=" stroke:none;fill-rule:nonzero;fill:rgb(38.431373%,71.764708%,83.92157%);fill-opacity:1;" d="M 233.492188 50.398438 L 232.816406 285.132812 L 350.359375 352.992188 L 351.03125 118.261719 Z M 233.492188 50.398438 "/>
<path style=" stroke:none;fill-rule:nonzero;fill:rgb(48.235294%,65.490198%,72.156864%);fill-opacity:1;" d="M 240.820312 51.546875 L 240.183594 289.679688 L 351.707031 354.066406 L 352.34375 115.9375 Z M 240.820312 51.546875 "/>
<path style=" stroke:none;fill-rule:nonzero;fill:rgb(33.333334%,60.784316%,70.980394%);fill-opacity:1;" d="M 215.742188 32.132812 C 215.511719 113.449219 215.273438 218.609375 215.042969 299.925781 C 217.09375 301.109375 221.609375 303.71875 223.660156 304.902344 C 223.875 228.53125 224.101562 128.324219 224.332031 46.296875 C 265.972656 70.335938 305.152344 92.957031 346.792969 117 C 346.5625 199.027344 346.335938 303.4375 346.121094 379.804688 C 348.171875 380.988281 352.683594 383.597656 354.734375 384.78125 C 354.964844 303.460938 355.203125 194.101562 355.433594 112.78125 C 309.691406 86.371094 261.484375 58.542969 215.742188 32.132812 Z M 215.742188 32.132812 "/>
<path style=" stroke:none;fill-rule:nonzero;fill:rgb(25.098041%,47.058824%,54.901963%);fill-opacity:1;" d="M 360.15625 387.304688 L 366.449219 383.648438 L 367.164062 105.992188 L 360.871094 109.652344 Z M 360.15625 387.304688 "/>
<path style=" stroke:none;fill-rule:nonzero;fill:rgb(54.901963%,85.09804%,96.078432%);fill-opacity:1;" d="M 216.253906 26.15625 L 360.871094 109.652344 C 360.726562 109.734375 357.960938 111.320312 355.433594 112.78125 L 215.742188 32.132812 C 217.242188 30.074219 216.304688 26.355469 216.253906 26.15625 Z M 216.253906 26.15625 "/>
<path style=" stroke:none;fill-rule:nonzero;fill:rgb(43.137255%,72.156864%,83.137256%);fill-opacity:1;" d="M 355.433594 112.78125 C 357.960938 111.320312 360.726562 109.734375 360.871094 109.652344 L 360.15625 387.304688 C 360.011719 387.164062 357.261719 384.496094 354.734375 384.78125 Z M 355.433594 112.78125 "/>
<path style=" stroke:none;fill-rule:nonzero;fill:rgb(38.431373%,71.764708%,83.92157%);fill-opacity:1;" d="M 360.871094 109.652344 L 367.164062 105.992188 L 222.550781 22.5 L 216.253906 26.15625 Z M 360.871094 109.652344 "/>
<path style=" stroke:none;fill-rule:nonzero;fill:rgb(50.588238%,60.392159%,63.921571%);fill-opacity:1;" d="M 346.289062 350.941406 L 234.417969 285.28125 L 240.113281 282.246094 L 240.296875 262.363281 L 346.558594 202.488281 Z M 346.289062 350.941406 "/>
<use xlink:href="#surface8" mask="url(#mask1)"/>
<path style=" stroke:none;fill-rule:nonzero;fill:rgb(29.019609%,34.901962%,36.862746%);fill-opacity:1;" d="M 171.519531 335.730469 C 171.46875 353.238281 182.972656 370.777344 206.03125 384.183594 C 252.058594 410.941406 326.703125 411.09375 372.75 384.519531 L 372.71875 395.457031 C 326.671875 422.027344 252.027344 421.878906 206 395.117188 C 182.941406 381.714844 171.441406 364.175781 171.488281 346.667969 Z M 171.519531 335.730469 "/>
<path style=" stroke:none;fill-rule:nonzero;fill:rgb(40.784314%,48.627451%,51.764709%);fill-opacity:1;" d="M 206.066406 287.613281 L 219.179688 295.234375 C 180.375 317.628906 180.363281 354.0625 219.148438 376.613281 C 257.933594 399.160156 320.832031 399.289062 359.636719 376.894531 L 372.75 384.519531 C 326.699219 411.09375 252.058594 410.941406 206.03125 384.183594 C 160 357.421875 160.019531 314.1875 206.066406 287.613281 Z M 206.066406 287.613281 "/>
<g clip-path="url(#clip3)" clip-rule="nonzero">
<g clip-path="url(#clip4)" clip-rule="nonzero">
<use xlink:href="#surface11" mask="url(#mask2)"/>
</g>
</g>
<path style=" stroke:none;fill-rule:nonzero;fill:rgb(32.941177%,39.607844%,41.960785%);fill-opacity:1;" d="M 190.097656 325.703125 C 190.054688 340.457031 199.746094 355.234375 219.175781 366.53125 C 257.964844 389.082031 320.863281 389.207031 359.667969 366.8125 L 359.636719 376.894531 C 320.832031 399.289062 257.933594 399.160156 219.148438 376.613281 C 199.71875 365.316406 190.027344 350.535156 190.066406 335.785156 Z M 190.097656 325.703125 "/>
<path style=" stroke:none;fill-rule:nonzero;fill:rgb(43.921569%,52.549022%,55.686277%);fill-opacity:1;" d="M 219.207031 285.15625 L 232.75 293.027344 C 201.429688 311.101562 201.417969 340.511719 232.722656 358.710938 C 264.03125 376.914062 314.804688 377.015625 346.125 358.941406 L 359.667969 366.8125 C 320.863281 389.207031 257.960938 389.082031 219.175781 366.53125 C 180.390625 343.980469 180.40625 307.546875 219.207031 285.15625 Z M 219.207031 285.15625 "/>
<g clip-path="url(#clip6)" clip-rule="nonzero">
<g clip-path="url(#clip7)" clip-rule="nonzero">
<use xlink:href="#surface14" mask="url(#mask3)"/>
</g>
</g>
<path style=" stroke:none;fill-rule:nonzero;fill:rgb(38.82353%,46.27451%,49.019608%);fill-opacity:1;" d="M 209.277344 316.707031 C 209.242188 328.617188 217.066406 340.546875 232.75 349.664062 C 264.058594 367.867188 314.828125 367.96875 346.152344 349.890625 L 346.125 358.941406 C 314.804688 377.015625 264.03125 376.914062 232.722656 358.710938 C 217.042969 349.59375 209.21875 337.664062 209.25 325.757812 Z M 209.277344 316.707031 "/>
<path style=" stroke:none;fill-rule:nonzero;fill:rgb(50.588238%,60.392159%,63.921571%);fill-opacity:1;" d="M 232.777344 283.976562 L 346.152344 349.890625 C 314.828125 367.96875 264.058594 367.867188 232.75 349.664062 C 201.441406 331.460938 201.453125 302.054688 232.777344 283.976562 Z M 232.777344 283.976562 "/>
<path style=" stroke:none;fill-rule:nonzero;fill:rgb(45.09804%,45.09804%,45.09804%);fill-opacity:1;" d="M 127.078125 346.800781 L 122.964844 344.410156 L 122.527344 112.589844 L 126.640625 114.980469 Z M 127.078125 346.800781 "/>
<path style=" stroke:none;fill-rule:nonzero;fill:rgb(100%,100%,100%);fill-opacity:1;" d="M 126.640625 114.980469 L 122.527344 112.589844 L 230.742188 50.113281 L 234.855469 52.503906 Z M 126.640625 114.980469 "/>
<path style=" stroke:none;fill-rule:nonzero;fill:rgb(52.941179%,86.666667%,99.215686%);fill-opacity:1;" d="M 234.855469 52.503906 L 235.289062 284.320312 L 127.078125 346.800781 L 126.640625 114.980469 Z M 234.855469 52.503906 "/>
<path style=" stroke:none;fill-rule:nonzero;fill:rgb(85.09804%,85.09804%,85.09804%);fill-opacity:1;" d="M 135.945312 234.417969 C 133.78125 235.667969 132.03125 238.699219 132.035156 241.191406 C 132.042969 243.683594 133.804688 244.6875 135.972656 243.433594 C 138.140625 242.183594 139.890625 239.152344 139.882812 236.660156 C 139.875 234.167969 138.113281 233.164062 135.945312 234.417969 Z M 135.945312 234.417969 "/>
<path style=" stroke:none;fill-rule:nonzero;fill:rgb(0%,51.764709%,70.980394%);fill-opacity:1;" d="M 136.738281 236.347656 C 137.457031 235.929688 138.109375 235.894531 138.574219 236.164062 L 144.289062 239.484375 C 143.824219 239.214844 143.171875 239.253906 142.453125 239.667969 C 141.054688 240.476562 139.910156 242.457031 139.914062 244.066406 C 139.917969 244.882812 140.203125 245.457031 140.664062 245.722656 L 134.949219 242.402344 C 134.488281 242.132812 134.203125 241.5625 134.199219 240.746094 C 134.195312 239.136719 135.335938 237.15625 136.738281 236.347656 Z M 136.738281 236.347656 "/>
<path style=" stroke:none;fill-rule:nonzero;fill:rgb(0%,56.862748%,78.039217%);fill-opacity:1;" d="M 142.453125 239.667969 C 141.054688 240.476562 139.910156 242.457031 139.914062 244.066406 C 139.917969 245.703125 141.070312 246.359375 142.472656 245.550781 C 143.894531 244.726562 145.039062 242.746094 145.03125 241.113281 C 145.027344 239.503906 143.878906 238.847656 142.453125 239.667969 Z M 142.453125 239.667969 "/>
<path style=" stroke:none;fill-rule:nonzero;fill:rgb(0%,67.843139%,92.941177%);fill-opacity:1;" d="M 142.707031 237.320312 C 144 236.574219 145.171875 236.503906 146.019531 236.996094 L 148.363281 238.359375 C 147.515625 237.867188 146.347656 237.9375 145.054688 238.683594 C 142.484375 240.167969 140.40625 243.761719 140.417969 246.714844 C 140.421875 248.179688 140.9375 249.210938 141.773438 249.699219 L 139.429688 248.335938 C 138.59375 247.851562 138.074219 246.816406 138.070312 245.351562 C 138.0625 242.398438 140.136719 238.804688 142.707031 237.320312 Z M 142.707031 237.320312 "/>
<path style=" stroke:none;fill-rule:nonzero;fill:rgb(0%,59.215689%,81.176472%);fill-opacity:1;" d="M 148.367188 238.371094 C 146.554688 237.316406 143.609375 239 141.789062 242.128906 C 139.96875 245.261719 139.964844 248.652344 141.777344 249.707031 C 143.59375 250.761719 146.539062 249.078125 148.355469 245.949219 C 150.175781 242.816406 150.183594 239.425781 148.367188 238.371094 Z M 148.367188 238.371094 "/>
<path style=" stroke:none;fill-rule:nonzero;fill:rgb(50.196081%,51.764709%,52.156866%);fill-opacity:1;" d="M 235.5 247.628906 C 233.945312 247.628906 232.683594 246.367188 232.683594 244.808594 L 232.683594 227.140625 C 232.683594 225.585938 233.945312 224.324219 235.5 224.324219 C 237.058594 224.324219 238.320312 225.585938 238.320312 227.140625 L 238.320312 244.808594 C 238.320312 246.367188 237.058594 247.628906 235.5 247.628906 Z M 235.5 130.828125 C 233.945312 130.828125 232.683594 129.566406 232.683594 128.007812 L 232.683594 110.339844 C 232.683594 108.785156 233.945312 107.523438 235.5 107.523438 C 237.058594 107.523438 238.320312 108.785156 238.320312 110.339844 L 238.320312 128.007812 C 238.320312 129.566406 237.058594 130.828125 235.5 130.828125 Z M 235.5 130.828125 "/>
<use xlink:href="#surface17" mask="url(#mask4)"/>
<path style=" stroke:none;fill-rule:nonzero;fill:rgb(67.843139%,87.058824%,94.117647%);fill-opacity:1;" d="M 126.195312 230.132812 C 125.050781 230.128906 123.34375 229.375 122.960938 229.570312 C 122.90625 229.660156 124.0625 230.933594 125.949219 231.925781 C 128.183594 233.101562 128.984375 233.40625 129.21875 233.792969 C 131.015625 235.566406 126.691406 239.480469 126.113281 239.824219 C 123.960938 241.101562 120.175781 240.007812 118.449219 239.175781 C 116.515625 238.246094 115.15625 235.671875 114.574219 234.363281 C 114.1875 233.503906 113.292969 232.886719 112.699219 232.457031 C 110.34375 230.75 112.550781 224.1875 114.035156 224.964844 C 115.402344 225.667969 116.324219 225.796875 117.554688 225.449219 C 119.847656 224.800781 123.007812 225.914062 123.480469 226.339844 C 124.515625 227.273438 126.847656 227.945312 127.820312 228.046875 C 128.078125 228.070312 128.277344 228.296875 128.246094 228.554688 C 128.152344 229.34375 127.640625 230.132812 126.195312 230.132812 Z M 126.195312 230.132812 "/>
<path style=" stroke:none;fill-rule:nonzero;fill:rgb(94.901961%,94.901961%,94.901961%);fill-opacity:1;" d="M 68.007812 178.878906 C 67.695312 183.109375 69.605469 190.8125 70.859375 195.554688 C 73.03125 203.796875 75.414062 213.550781 78.382812 217.777344 C 80.652344 221.007812 112.3125 234.128906 112.3125 234.128906 C 115.933594 233.777344 119.050781 225.445312 116.53125 222.640625 L 89.042969 206.964844 C 89.042969 206.964844 84.617188 181.058594 82.226562 175.851562 C 79.648438 170.238281 68.777344 168.488281 68.007812 178.878906 Z M 68.007812 178.878906 "/>
<g clip-path="url(#clip10)" clip-rule="nonzero">
<use xlink:href="#surface20" mask="url(#mask5)"/>
</g>
<path style=" stroke:none;fill-rule:nonzero;fill:rgb(5.882353%,9.019608%,10.196079%);fill-opacity:1;" d="M 277.925781 290.574219 C 277.925781 290.574219 286.796875 288.453125 288.585938 285.949219 C 289.210938 285.082031 288.613281 281.335938 288.613281 281.335938 L 276.152344 287.792969 Z M 277.925781 290.574219 "/>
<path style=" stroke:none;fill-rule:nonzero;fill:rgb(5.882353%,9.019608%,10.196079%);fill-opacity:1;" d="M 288.601562 282.070312 C 288.25 286.511719 282.65625 287.039062 275.25 289.667969 C 267.546875 292.402344 264.167969 294.308594 257.777344 294.347656 C 253.375 294.375 247.65625 291.128906 250.890625 288.746094 C 256.003906 284.980469 260.753906 285.679688 270.132812 282.0625 C 276.261719 279.703125 278.601562 275.796875 282.125 276.460938 C 285.050781 277.015625 288.894531 278.417969 288.601562 282.070312 Z M 288.601562 282.070312 "/>
<path style=" stroke:none;fill-rule:nonzero;fill:rgb(11.764706%,20%,23.137255%);fill-opacity:1;" d="M 288.410156 281.238281 C 288.054688 285.679688 282.460938 286.207031 275.058594 288.835938 C 267.351562 291.570312 263.972656 293.476562 257.582031 293.515625 C 253.179688 293.542969 247.460938 290.296875 250.699219 287.914062 C 255.8125 284.148438 259.5 283.667969 268.878906 280.054688 C 275.007812 277.691406 278.40625 274.964844 281.929688 275.628906 C 284.855469 276.183594 288.699219 277.585938 288.410156 281.238281 Z M 288.410156 281.238281 "/>
<g clip-path="url(#clip12)" clip-rule="nonzero">
<path style=" stroke:none;fill-rule:nonzero;fill:rgb(5.882353%,9.019608%,10.196079%);fill-opacity:1;" d="M 356.003906 234.246094 C 356.003906 234.246094 351.207031 227.757812 348.890625 226.953125 C 348.34375 226.765625 344.726562 226.832031 344.726562 226.832031 L 352.769531 234.570312 Z M 356.003906 234.246094 "/>
</g>
<g clip-path="url(#clip13)" clip-rule="nonzero">
<path style=" stroke:none;fill-rule:nonzero;fill:rgb(5.882353%,9.019608%,10.196079%);fill-opacity:1;" d="M 362.367188 257.515625 C 358.921875 259.898438 350.917969 249.515625 345.558594 241.929688 C 340.199219 234.347656 335.609375 231.546875 340.003906 228.445312 C 344.394531 225.339844 348.203125 226.097656 353.5625 233.683594 C 355.980469 237.101562 361.121094 239.992188 363.527344 244.472656 C 365.769531 248.652344 365.636719 255.253906 362.367188 257.515625 Z M 362.367188 257.515625 "/>
</g>
<g clip-path="url(#clip14)" clip-rule="nonzero">
<path style=" stroke:none;fill-rule:nonzero;fill:rgb(11.764706%,20%,23.137255%);fill-opacity:1;" d="M 361.761719 257.726562 C 358.3125 260.109375 350.308594 249.730469 344.949219 242.144531 C 339.589844 234.5625 335 231.761719 339.394531 228.65625 C 343.789062 225.554688 347.363281 226.449219 352.722656 234.035156 C 355.136719 237.453125 359.96875 240.714844 362.371094 245.195312 C 364.613281 249.375 365.027344 255.46875 361.761719 257.726562 Z M 361.761719 257.726562 "/>
</g>
<path style=" stroke:none;fill-rule:nonzero;fill:rgb(21.176471%,21.176471%,21.176471%);fill-opacity:1;" d="M 287.734375 280.214844 C 288 284.671875 271.773438 289.53125 269.125 280.277344 C 269.125 280.277344 260.269531 241.429688 260.578125 235.285156 C 260.902344 228.832031 316.65625 197.554688 316.65625 197.554688 L 326.667969 222.277344 L 280.511719 244.828125 Z M 287.734375 280.214844 "/>
<g clip-path="url(#clip15)" clip-rule="nonzero">
<path style=" stroke:none;fill-rule:nonzero;fill:rgb(29.019609%,29.019609%,29.019609%);fill-opacity:1;" d="M 343.039062 227.265625 C 351.550781 227.503906 351.507812 238.398438 346.839844 243.59375 C 346.839844 243.59375 321.125 269.117188 312.925781 268.785156 C 298.285156 268.199219 300.023438 221.441406 300.023438 221.441406 C 300.023438 221.441406 323.492188 211.175781 325.65625 217.28125 C 328.976562 226.652344 322.792969 243.417969 322.792969 243.417969 C 322.792969 243.417969 336.191406 227.074219 343.039062 227.265625 Z M 343.039062 227.265625 "/>
</g>
<path style=" stroke:none;fill-rule:nonzero;fill:rgb(52.941179%,86.666667%,99.215686%);fill-opacity:1;" d="M 301.152344 176.945312 C 297.578125 178.386719 290.382812 178.863281 285.933594 179.089844 C 278.203125 179.488281 269.105469 180.121094 264.625 178.722656 C 261.203125 177.652344 241.097656 153.882812 241.097656 153.882812 C 242.464844 150.507812 247.734375 147.1875 249.164062 148.03125 L 271.035156 166.507812 C 271.035156 166.507812 294.675781 163.175781 299.839844 163.804688 C 305.410156 164.484375 309.929688 173.410156 301.152344 176.945312 Z M 301.152344 176.945312 "/>
<path style=" stroke:none;fill-rule:nonzero;fill:rgb(67.843139%,87.058824%,94.117647%);fill-opacity:1;" d="M 240.566406 139.65625 C 240.390625 137.367188 240.441406 136.257812 241.050781 136.21875 C 243.320312 136.078125 244.574219 138.101562 245.210938 139.722656 C 245.984375 141.679688 246.800781 145.203125 246.730469 146.503906 C 246.6875 147.359375 248.34375 149.003906 248.644531 149.597656 C 249.84375 151.957031 245.34375 156.347656 244.464844 155.105469 C 243.648438 153.972656 243.640625 153.316406 242.503906 153.089844 C 240.378906 152.664062 240.632812 149.902344 240.609375 149.324219 C 240.476562 145.777344 240.929688 144.367188 240.566406 139.65625 Z M 240.566406 139.65625 "/>
<path style=" stroke:none;fill-rule:nonzero;fill:rgb(100%,100%,100%);fill-opacity:1;" d="M 301.152344 176.945312 C 297.578125 178.386719 290.382812 178.863281 285.933594 179.089844 C 278.203125 179.488281 269.105469 180.121094 264.625 178.722656 C 261.203125 177.652344 241.097656 153.882812 241.097656 153.882812 C 244.46875 154.640625 248.523438 150.976562 249.164062 148.03125 L 271.035156 166.507812 C 271.035156 166.507812 294.675781 163.175781 299.839844 163.804688 C 305.410156 164.484375 309.929688 173.410156 301.152344 176.945312 Z M 301.152344 176.945312 "/>
<path style=" stroke:none;fill-rule:nonzero;fill:rgb(90.196079%,90.588236%,90.980393%);fill-opacity:1;" d="M 314.886719 163.148438 C 313.757812 162.96875 312.285156 163.019531 310.644531 163.058594 C 307.921875 163.125 298.414062 160.808594 297.226562 160.714844 C 293.703125 161.015625 288.527344 165.449219 286.710938 171.820312 C 283.183594 184.191406 285.738281 202.550781 290.511719 219.859375 L 321.390625 211.910156 C 321.585938 209.699219 321.757812 207.3125 321.84375 204.691406 C 322.027344 199.109375 325.714844 177.792969 325.121094 172.335938 C 324.5625 167.199219 319.941406 163.953125 314.886719 163.148438 Z M 314.886719 163.148438 "/>
<path style=" stroke:none;fill-rule:nonzero;fill:rgb(29.019609%,29.019609%,29.019609%);fill-opacity:1;" d="M 293.515625 162.175781 C 291.890625 164.335938 289.367188 167.839844 289.007812 171.183594 L 292.261719 171.957031 C 291.71875 167.945312 295.507812 164.59375 296.835938 161.65625 C 295.660156 161.566406 294.304688 161.4375 293.515625 162.175781 Z M 293.515625 162.175781 "/>
<path style=" stroke:none;fill-rule:nonzero;fill:rgb(29.019609%,29.019609%,29.019609%);fill-opacity:1;" d="M 302.433594 235.183594 L 326.402344 219.328125 C 322.652344 201.960938 323.480469 197.804688 323.695312 196.285156 C 323.863281 195.105469 311.246094 193 309.175781 187.761719 C 307.859375 184.425781 308.484375 177.601562 309.023438 174.09375 C 301.613281 174.125 292.808594 172.574219 289.851562 170.027344 C 287.929688 171.578125 287.429688 176.359375 286.585938 182.597656 C 286.1875 185.539062 284.277344 186.800781 284.335938 187.429688 C 286.082031 207.136719 287.21875 225.339844 302.128906 234.953125 C 302.226562 235.019531 302.328125 235.09375 302.433594 235.183594 Z M 302.433594 235.183594 "/>
<path style=" stroke:none;fill-rule:nonzero;fill:rgb(29.019609%,29.019609%,29.019609%);fill-opacity:1;" d="M 308.804688 175.496094 L 306.167969 174.660156 C 307.839844 167.847656 310.726562 164.183594 315.453125 163.179688 C 316.175781 162.976562 317.640625 163.308594 318.015625 163.953125 C 313.402344 165.949219 310.503906 169.554688 308.804688 175.496094 Z M 308.804688 175.496094 "/>
<path style=" stroke:none;fill-rule:nonzero;fill:rgb(57.254905%,73.725492%,80.000001%);fill-opacity:1;" d="M 291.003906 145.871094 L 294.972656 164.304688 C 294.972656 164.304688 295.035156 168.054688 298.691406 168.472656 C 304.046875 169.085938 310.671875 165.417969 310.613281 163.179688 L 306.945312 141.449219 Z M 291.003906 145.871094 "/>
<path style=" stroke:none;fill-rule:nonzero;fill:rgb(67.843139%,87.058824%,94.117647%);fill-opacity:1;" d="M 313.148438 153.035156 C 311.453125 157.820312 308.246094 163.25 304.582031 164.546875 C 300.742188 165.90625 297.425781 168.375 293.496094 167.402344 C 289.054688 166.300781 287.425781 158.1875 289.882812 149.835938 C 290.339844 148.277344 291.0625 145.273438 291.5 143.660156 C 291.851562 142.371094 291.183594 140.863281 293.515625 138.023438 C 296.578125 134.289062 302.222656 133.503906 307.746094 135.464844 C 317.253906 138.839844 316.542969 143.457031 313.148438 153.035156 Z M 313.148438 153.035156 "/>
<path style=" stroke:none;fill-rule:nonzero;fill:rgb(19.215687%,38.039216%,45.09804%);fill-opacity:1;" d="M 288.933594 161.894531 C 288.75 164.515625 289.96875 165.976562 292.054688 167.140625 C 297.039062 169.929688 302.742188 166.320312 305.621094 164.164062 C 307.25 162.941406 308.410156 155.382812 308.410156 155.382812 L 306.589844 155.367188 C 306.589844 155.367188 305.453125 161.035156 304.039062 162.4375 C 302.101562 164.363281 295.316406 167.929688 292.242188 164.667969 C 291.605469 163.992188 291.097656 162.738281 290.574219 162.21875 C 289.886719 161.535156 289.25 161.832031 288.933594 161.894531 Z M 288.933594 161.894531 "/>
<path style=" stroke:none;fill-rule:nonzero;fill:rgb(19.215687%,38.039216%,45.09804%);fill-opacity:1;" d="M 307.992188 134.769531 C 302.738281 132.84375 295.640625 133.453125 292.738281 138.726562 C 292.238281 139.636719 290.277344 141.128906 291.640625 141.878906 C 292.832031 140.476562 295.523438 145.003906 299.144531 145.820312 C 302.632812 146.605469 303.375 147.382812 306.472656 151.679688 C 307.109375 152.5625 306.675781 154.980469 306.523438 155.582031 C 306.871094 155.839844 307.324219 156.15625 307.847656 156.628906 C 308.683594 155.183594 308.835938 152.636719 310.230469 153.058594 C 311.675781 153.492188 311.183594 155.605469 310.347656 157.304688 C 309.78125 158.457031 308.382812 161.21875 308.269531 161.738281 C 309.203125 162.542969 311.660156 157.238281 313.019531 154.773438 C 317.765625 146.179688 317.4375 138.230469 307.992188 134.769531 Z M 307.992188 134.769531 "/>
<path style=" stroke:none;fill-rule:nonzero;fill:rgb(19.215687%,38.039216%,45.09804%);fill-opacity:1;" d="M 294.847656 159.929688 C 294.683594 157.75 292.988281 155.375 291.003906 154.851562 C 290.929688 154.832031 290.613281 156.925781 290.796875 156.996094 C 292.148438 157.523438 293.78125 158.847656 294.007812 160.847656 C 294.429688 161.496094 294.914062 161.269531 294.847656 159.929688 Z M 294.847656 159.929688 "/>
<path style=" stroke:none;fill-rule:nonzero;fill:rgb(19.215687%,38.039216%,45.09804%);fill-opacity:1;" d="M 289.503906 161.9375 C 289.425781 160.8125 289.324219 156.839844 290.792969 157.003906 C 290.929688 157.023438 291.082031 154.878906 291.027344 154.867188 C 288.640625 154.355469 288.320312 160.402344 288.929688 162.179688 Z M 289.503906 161.9375 "/>
<path style=" stroke:none;fill-rule:nonzero;fill:rgb(19.215687%,38.039216%,45.09804%);fill-opacity:1;" d="M 293.921875 166.03125 L 292.46875 165.96875 C 292.730469 163.328125 294.371094 162.105469 293.894531 159.671875 L 294.59375 159.53125 C 295.050781 161.945312 294.058594 163.304688 293.921875 166.03125 Z M 293.921875 166.03125 "/>
<path style=" stroke:none;fill-rule:nonzero;fill:rgb(1.176471%,65.882355%,90.196079%);fill-opacity:1;" d="M 299.933594 151.679688 C 302.375 150.984375 316.59375 153.410156 306.109375 150.136719 L 292.0625 138.652344 C 292.0625 138.652344 283.851562 138.945312 283.253906 141.15625 C 282.601562 143.5625 297.507812 152.367188 299.933594 151.679688 Z M 299.933594 151.679688 "/>
<path style=" stroke:none;fill-rule:nonzero;fill:rgb(0%,72.941178%,100%);fill-opacity:1;" d="M 292.152344 137.488281 C 290.472656 140.042969 294.429688 140.304688 299.605469 145.265625 C 306.390625 151.769531 312.5625 154.902344 314.605469 152.011719 C 320.777344 143.273438 316.292969 134.789062 307.640625 132.609375 C 300.945312 130.921875 294.097656 134.53125 292.152344 137.488281 Z M 292.152344 137.488281 "/>
<path style=" stroke:none;fill-rule:nonzero;fill:rgb(52.941179%,86.666667%,99.215686%);fill-opacity:1;" d="M 326.449219 174.050781 C 326.679688 178.285156 324.617188 185.949219 323.273438 190.667969 C 320.941406 198.863281 318.367188 208.570312 315.316406 212.738281 C 312.984375 215.925781 281.078125 228.425781 281.078125 228.425781 C 278.046875 225.800781 276.460938 219.128906 277.847656 217.941406 L 304.871094 201.722656 C 304.871094 201.722656 309.800781 175.902344 312.289062 170.746094 C 314.976562 165.183594 325.882812 163.644531 326.449219 174.050781 Z M 326.449219 174.050781 "/>
<path style=" stroke:none;fill-rule:nonzero;fill:rgb(67.843139%,87.058824%,94.117647%);fill-opacity:1;" d="M 269.457031 224.875 C 269.386719 226.6875 268.136719 226.859375 266.550781 228.707031 C 264.90625 230.625 263.621094 229.648438 263.378906 230.03125 C 261.550781 231.765625 266.597656 233.496094 267.167969 233.851562 C 269.296875 235.171875 273.101562 234.148438 274.84375 233.355469 C 276.796875 232.460938 278.203125 229.914062 278.8125 228.617188 C 279.214844 227.765625 280.121094 227.164062 280.722656 226.746094 C 283.113281 225.085938 281.03125 218.480469 279.53125 219.230469 C 278.152344 219.90625 277.230469 220.019531 276.007812 219.648438 C 273.726562 218.953125 270.542969 220.003906 270.0625 220.421875 C 269.007812 221.335938 269.078125 224.675781 269.457031 224.875 Z M 269.457031 224.875 "/>
<path style=" stroke:none;fill-rule:nonzero;fill:rgb(100%,100%,100%);fill-opacity:1;" d="M 326.449219 174.050781 C 326.679688 178.285156 324.617188 185.949219 323.273438 190.667969 C 320.941406 198.863281 318.367188 208.570312 315.316406 212.738281 C 312.984375 215.925781 281.078125 228.425781 281.078125 228.425781 C 283.066406 225.183594 280.6875 219.65625 277.847656 217.941406 L 304.871094 201.722656 C 304.871094 201.722656 309.800781 175.902344 312.289062 170.746094 C 314.976562 165.183594 325.882812 163.644531 326.449219 174.050781 Z M 326.449219 174.050781 "/>
<path style=" stroke:none;fill-rule:nonzero;fill:rgb(19.215687%,49.019608%,60.000002%);fill-opacity:1;" d="M 266.390625 231.535156 C 266.351562 231.515625 266.300781 231.515625 266.242188 231.546875 L 265.953125 231.695312 C 265.859375 231.746094 265.769531 231.746094 265.707031 231.710938 L 268.664062 233.429688 C 268.730469 233.46875 268.816406 233.464844 268.914062 233.414062 L 269.199219 233.265625 C 269.257812 233.234375 269.308594 233.234375 269.347656 233.253906 Z M 266.390625 231.535156 "/>
<g clip-path="url(#clip16)" clip-rule="nonzero">
<g clip-path="url(#clip17)" clip-rule="nonzero">
<path style=" stroke:none;fill-rule:nonzero;fill:rgb(52.156866%,52.156866%,52.156866%);fill-opacity:1;" d="M 264.101562 237.207031 L 261.140625 235.484375 C 261.097656 235.460938 261.074219 235.40625 261.074219 235.328125 L 264.035156 237.046875 C 264.03125 237.125 264.058594 237.179688 264.101562 237.207031 Z M 264.101562 237.207031 "/>
</g>
</g>
<path style=" stroke:none;fill-rule:nonzero;fill:rgb(19.215687%,49.019608%,60.000002%);fill-opacity:1;" d="M 264.035156 237.046875 L 261.074219 235.328125 L 261.097656 234.761719 L 264.054688 236.480469 Z M 264.035156 237.046875 "/>
<path style=" stroke:none;fill-rule:nonzero;fill:rgb(34.901962%,70.19608%,83.137256%);fill-opacity:1;" d="M 261.5625 234.230469 L 261.308594 234.394531 C 261.191406 234.464844 261.101562 234.625 261.097656 234.761719 L 264.054688 236.480469 C 264.058594 236.34375 264.152344 236.183594 264.265625 236.113281 L 264.519531 235.949219 Z M 261.5625 234.230469 "/>
<path style=" stroke:none;fill-rule:nonzero;fill:rgb(19.215687%,49.019608%,60.000002%);fill-opacity:1;" d="M 264.902344 233.578125 C 264.898438 231.292969 264.792969 227.816406 264.789062 227.636719 L 261.832031 225.917969 C 261.835938 226.097656 261.941406 229.574219 261.945312 231.859375 C 261.949219 232.773438 261.933594 233.3125 261.914062 233.628906 C 261.902344 233.851562 261.753906 234.113281 261.5625 234.230469 L 264.519531 235.949219 C 264.710938 235.832031 264.863281 235.570312 264.875 235.347656 C 264.890625 235.03125 264.90625 234.492188 264.902344 233.578125 Z M 264.902344 233.578125 "/>
<path style=" stroke:none;fill-rule:nonzero;fill:rgb(29.411766%,74.117649%,90.980393%);fill-opacity:1;" d="M 269.460938 233.902344 C 269.472656 234.046875 269.367188 234.242188 269.234375 234.320312 L 264.261719 237.1875 C 264.132812 237.265625 264.027344 237.199219 264.035156 237.046875 L 264.054688 236.480469 C 264.058594 236.34375 264.152344 236.183594 264.265625 236.113281 L 264.519531 235.949219 C 264.710938 235.832031 264.863281 235.570312 264.875 235.347656 C 264.890625 235.03125 264.90625 234.492188 264.902344 233.578125 C 264.898438 231.292969 264.792969 227.816406 264.789062 227.636719 L 269.289062 225.039062 C 269.234375 225.132812 268.160156 226.964844 268.113281 228.566406 C 268.035156 231.359375 268.425781 232.4375 268.5625 233.257812 C 268.589844 233.441406 268.738281 233.503906 268.914062 233.414062 L 269.199219 233.265625 C 269.3125 233.207031 269.402344 233.253906 269.414062 233.375 Z M 269.460938 233.902344 "/>
<path style=" stroke:none;fill-rule:nonzero;fill:rgb(85.882354%,85.882354%,85.882354%);fill-opacity:1;" d="M 264.789062 227.636719 L 261.832031 225.917969 L 266.332031 223.316406 L 269.289062 225.039062 Z M 264.789062 227.636719 "/>
<path style=" stroke:none;fill-rule:nonzero;fill:rgb(34.509805%,35.294119%,35.686275%);fill-opacity:1;" d="M 262.652344 229.191406 C 262.640625 229.238281 262.421875 230.097656 262.171875 230.832031 C 262.007812 231.304688 261.730469 231.78125 261.550781 232.0625 C 261.464844 232.199219 261.464844 232.347656 261.542969 232.390625 L 262.710938 233.070312 C 262.636719 233.027344 262.636719 232.878906 262.722656 232.742188 C 262.902344 232.460938 263.179688 231.984375 263.339844 231.511719 C 263.589844 230.78125 263.8125 229.917969 263.824219 229.871094 Z M 262.652344 229.191406 "/>
<path style=" stroke:none;fill-rule:nonzero;fill:rgb(50.196081%,51.764709%,52.156866%);fill-opacity:1;" d="M 263.824219 229.871094 L 263.832031 232.734375 C 263.761719 232.816406 263.679688 232.878906 263.589844 232.929688 C 263.308594 233.09375 262.964844 233.125 262.742188 233.082031 C 262.636719 233.0625 262.625 232.894531 262.722656 232.742188 C 262.902344 232.460938 263.179688 231.984375 263.339844 231.511719 C 263.589844 230.78125 263.8125 229.917969 263.824219 229.871094 Z M 263.824219 229.871094 "/>
<path style=" stroke:none;fill-rule:nonzero;fill:rgb(50.196081%,51.764709%,52.156866%);fill-opacity:1;" d="M 263.296875 227.304688 C 263.292969 227.332031 263.222656 227.871094 263.195312 228.058594 C 263.144531 228.441406 262.976562 228.707031 262.738281 228.847656 L 270.136719 224.546875 C 270.375 224.410156 270.539062 224.140625 270.589844 223.761719 C 270.617188 223.574219 270.6875 223.035156 270.691406 223.007812 Z M 263.296875 227.304688 "/>
<path style=" stroke:none;fill-rule:nonzero;fill:rgb(86.274511%,86.274511%,86.274511%);fill-opacity:1;" d="M 259.085938 224.875 L 266.480469 220.574219 L 270.691406 223.007812 L 263.296875 227.304688 Z M 259.085938 224.875 "/>
<path style=" stroke:none;fill-rule:nonzero;fill:rgb(34.509805%,35.294119%,35.686275%);fill-opacity:1;" d="M 263.296875 227.304688 C 263.292969 227.332031 263.222656 227.871094 263.195312 228.058594 C 263.078125 228.910156 262.394531 229.199219 261.585938 228.734375 L 259.082031 227.285156 L 259.085938 224.875 Z M 263.296875 227.304688 "/>
<path style=" stroke:none;fill-rule:nonzero;fill:rgb(100%,100%,100%);fill-opacity:1;" d="M 271.96875 218.257812 C 271.945312 218.273438 271.917969 218.292969 271.890625 218.308594 C 271.914062 218.292969 271.941406 218.273438 271.96875 218.257812 Z M 271.976562 218.25 C 271.976562 218.253906 271.972656 218.253906 271.96875 218.257812 C 271.972656 218.253906 271.976562 218.253906 271.976562 218.25 Z M 271.976562 218.25 "/>
<path style=" stroke:none;fill-rule:nonzero;fill:rgb(30.19608%,76.862746%,94.117647%);fill-opacity:1;" d="M 272.78125 215.246094 C 272.734375 215.085938 272.6875 214.921875 272.636719 214.785156 C 272.609375 214.71875 272.574219 214.628906 272.546875 214.5625 C 272.414062 214.265625 272.414062 214.265625 272.335938 214.121094 C 272.257812 213.972656 272.257812 213.972656 272.085938 213.695312 C 272.046875 213.632812 271.988281 213.554688 271.949219 213.496094 C 271.902344 213.429688 271.757812 213.238281 271.636719 213.101562 C 271.578125 213.035156 271.453125 212.894531 271.289062 212.742188 C 271.066406 212.535156 270.898438 212.421875 270.898438 212.421875 C 270.84375 212.382812 270.769531 212.328125 270.714844 212.292969 C 270.636719 212.246094 270.539062 212.183594 270.457031 212.144531 C 270.300781 212.066406 270.167969 211.996094 269.90625 211.917969 C 269.683594 211.851562 269.484375 211.832031 269.40625 211.824219 C 269.328125 211.820312 269.21875 211.820312 269.140625 211.820312 C 269.09375 211.824219 269.03125 211.832031 268.984375 211.835938 C 268.984375 211.835938 268.816406 211.851562 268.609375 211.921875 C 268.546875 211.945312 268.464844 211.980469 268.402344 212.007812 C 268.363281 212.027344 268.308594 212.054688 268.269531 212.078125 C 268.726562 211.8125 269.351562 211.84375 270.042969 212.230469 C 271.457031 213.015625 272.617188 214.980469 272.636719 216.617188 C 272.644531 217.394531 272.394531 217.960938 271.976562 218.25 C 272.015625 218.226562 272.050781 218.203125 272.082031 218.179688 C 272.121094 218.152344 272.164062 218.113281 272.199219 218.085938 C 272.261719 218.027344 272.359375 217.925781 272.417969 217.855469 C 272.535156 217.703125 272.667969 217.503906 272.78125 217.167969 C 272.8125 217.074219 272.855469 216.917969 272.886719 216.707031 C 272.898438 216.625 272.90625 216.515625 272.914062 216.433594 C 272.917969 216.371094 272.917969 216.285156 272.917969 216.222656 C 272.917969 215.824219 272.820312 215.394531 272.78125 215.246094 Z M 272.78125 215.246094 "/>
<path style=" stroke:none;fill-rule:nonzero;fill:rgb(34.509805%,35.294119%,35.686275%);fill-opacity:1;" d="M 270.046875 212.230469 C 269.351562 211.84375 268.726562 211.8125 268.269531 212.078125 L 266.121094 213.324219 C 266.574219 213.0625 267.199219 213.09375 267.894531 213.480469 C 269.308594 214.265625 270.46875 216.230469 270.488281 217.867188 C 270.496094 218.695312 270.210938 219.285156 269.742188 219.554688 L 271.890625 218.308594 C 272.359375 218.035156 272.648438 217.449219 272.636719 216.617188 C 272.617188 214.980469 271.457031 213.015625 270.046875 212.230469 Z M 270.046875 212.230469 "/>
<path style=" stroke:none;fill-rule:nonzero;fill:rgb(29.411766%,74.117649%,90.980393%);fill-opacity:1;" d="M 272.835938 219.390625 C 272.832031 219.246094 272.824219 219.058594 272.8125 218.917969 C 272.796875 218.757812 272.777344 218.542969 272.75 218.386719 C 272.695312 218.085938 272.613281 217.6875 272.546875 217.394531 C 272.507812 217.230469 272.445312 217.019531 272.394531 216.863281 C 272.207031 216.289062 272.082031 215.984375 272.023438 215.851562 C 271.957031 215.703125 271.871094 215.5 271.800781 215.355469 C 271.726562 215.210938 271.628906 215.011719 271.550781 214.867188 C 271.476562 214.722656 271.367188 214.53125 271.285156 214.386719 C 270.804688 213.578125 270.25 212.84375 269.636719 212.207031 C 269.527344 212.097656 269.378906 211.949219 269.265625 211.84375 C 269.140625 211.726562 268.96875 211.578125 268.839844 211.464844 C 268.699219 211.34375 268.503906 211.191406 268.351562 211.085938 C 268.121094 210.925781 267.808594 210.71875 267.566406 210.582031 C 267.414062 210.5 267.210938 210.398438 267.058594 210.328125 C 266.949219 210.277344 266.796875 210.214844 266.683594 210.171875 C 266.488281 210.097656 266.226562 210.011719 266.023438 209.964844 C 265.921875 209.945312 265.789062 209.910156 265.683594 209.898438 C 265.53125 209.875 265.324219 209.847656 265.164062 209.839844 C 264.871094 209.828125 264.644531 209.839844 264.414062 209.871094 C 264.113281 209.910156 263.875 209.984375 263.726562 210.035156 C 263.652344 210.0625 263.550781 210.101562 263.472656 210.136719 C 263.386719 210.171875 263.269531 210.226562 263.179688 210.265625 C 262.734375 210.472656 262.390625 210.644531 262.328125 210.675781 C 261.839844 210.925781 261.675781 211.019531 261.375 211.183594 C 261.125 211.320312 260.902344 211.460938 260.71875 211.570312 C 260.480469 211.714844 260.34375 211.808594 260.066406 211.996094 C 259.957031 212.074219 259.816406 212.179688 259.710938 212.257812 C 259.5 212.421875 259.222656 212.648438 258.941406 212.949219 C 258.859375 213.035156 258.753906 213.152344 258.683594 213.246094 C 258.558594 213.414062 258.402344 213.648438 258.296875 213.828125 C 258.167969 214.042969 258.050781 214.359375 257.96875 214.59375 C 257.878906 214.847656 257.808594 215.203125 257.769531 215.464844 C 257.730469 215.753906 257.71875 216.140625 257.710938 216.433594 C 257.722656 217.171875 257.839844 217.765625 257.882812 217.988281 C 258.039062 218.777344 258.300781 219.484375 258.332031 219.554688 C 258.390625 219.710938 258.464844 219.917969 258.535156 220.070312 C 258.601562 220.222656 258.691406 220.429688 258.761719 220.578125 C 258.835938 220.730469 258.933594 220.933594 259.015625 221.078125 C 259.097656 221.226562 259.203125 221.425781 259.289062 221.570312 C 259.375 221.714844 259.492188 221.90625 259.585938 222.046875 C 259.664062 222.164062 259.898438 222.527344 260.238281 222.953125 C 260.339844 223.082031 260.480469 223.253906 260.589844 223.378906 C 260.695312 223.5 260.847656 223.660156 260.957031 223.78125 C 261.066406 223.902344 261.226562 224.050781 261.34375 224.164062 C 261.574219 224.378906 261.902344 224.644531 262.152344 224.839844 C 262.273438 224.9375 262.445312 225.058594 262.582031 225.140625 C 262.777344 225.261719 263.042969 225.425781 263.253906 225.527344 C 263.507812 225.652344 263.851562 225.792969 264.117188 225.882812 C 264.242188 225.925781 264.414062 225.976562 264.546875 226 C 264.792969 226.042969 265.125 226.097656 265.378906 226.105469 C 265.5 226.109375 265.660156 226.109375 265.78125 226.097656 C 265.972656 226.078125 266.230469 226.046875 266.421875 226.003906 C 266.558594 225.972656 266.738281 225.925781 266.871094 225.882812 C 267.085938 225.8125 267.367188 225.703125 267.578125 225.617188 C 267.601562 225.609375 267.832031 225.515625 268.28125 225.285156 C 268.480469 225.183594 268.5625 225.136719 268.949219 224.921875 C 268.949219 224.917969 269.179688 224.789062 269.585938 224.539062 C 269.839844 224.378906 270.078125 224.222656 270.179688 224.15625 C 270.582031 223.890625 271.105469 223.519531 271.320312 223.347656 C 271.382812 223.296875 271.46875 223.222656 271.527344 223.164062 C 271.617188 223.074219 271.738281 222.945312 271.824219 222.847656 C 271.957031 222.6875 272.148438 222.402344 272.253906 222.199219 C 272.414062 221.882812 272.5 221.679688 272.605469 221.328125 C 272.636719 221.226562 272.675781 221.089844 272.695312 220.984375 C 272.734375 220.796875 272.777344 220.539062 272.800781 220.347656 C 272.851562 219.902344 272.835938 219.394531 272.835938 219.390625 Z M 262.9375 225.261719 C 260.136719 223.699219 257.835938 219.804688 257.796875 216.558594 C 257.757812 213.316406 259.996094 211.949219 262.792969 213.507812 C 265.59375 215.070312 267.894531 218.964844 267.933594 222.210938 C 267.976562 225.457031 265.738281 226.820312 262.9375 225.261719 Z M 262.9375 225.261719 "/>
<path style=" stroke:none;fill-rule:nonzero;fill:rgb(87.058824%,87.058824%,87.058824%);fill-opacity:1;" d="M 260.957031 223.78125 C 261.066406 223.902344 261.222656 224.050781 261.34375 224.164062 C 261.574219 224.378906 261.902344 224.644531 262.152344 224.839844 C 262.273438 224.9375 262.445312 225.058594 262.578125 225.140625 C 262.777344 225.261719 263.042969 225.425781 263.253906 225.527344 C 263.503906 225.652344 263.851562 225.792969 264.117188 225.882812 C 264.242188 225.925781 264.414062 225.976562 264.542969 226 C 264.792969 226.042969 265.125 226.097656 265.378906 226.105469 C 265.496094 226.109375 265.660156 226.109375 265.78125 226.097656 C 265.972656 226.078125 266.230469 226.046875 266.417969 226.003906 C 266.554688 225.972656 266.738281 225.925781 266.871094 225.882812 C 267.085938 225.8125 267.367188 225.703125 267.578125 225.617188 C 267.601562 225.609375 267.832031 225.515625 268.277344 225.285156 C 268.480469 225.183594 268.5625 225.136719 268.949219 224.921875 C 268.949219 224.917969 269.179688 224.789062 269.585938 224.539062 C 269.839844 224.378906 270.078125 224.222656 270.179688 224.15625 C 270.582031 223.890625 271.101562 223.519531 271.320312 223.347656 C 271.382812 223.296875 271.46875 223.222656 271.523438 223.164062 C 271.617188 223.074219 271.738281 222.945312 271.820312 222.847656 C 271.957031 222.6875 272.148438 222.402344 272.253906 222.199219 C 272.414062 221.882812 272.496094 221.679688 272.605469 221.328125 C 272.636719 221.226562 272.675781 221.089844 272.695312 220.984375 C 272.730469 220.796875 272.777344 220.539062 272.800781 220.347656 C 272.851562 219.902344 272.835938 219.394531 272.835938 219.390625 C 272.832031 219.246094 272.824219 219.058594 272.8125 218.917969 C 272.796875 218.757812 272.777344 218.542969 272.75 218.386719 C 272.695312 218.085938 272.613281 217.6875 272.546875 217.394531 C 272.507812 217.230469 272.445312 217.019531 272.394531 216.863281 C 272.335938 216.679688 272.28125 216.523438 272.234375 216.390625 L 267.34375 219.214844 C 267.710938 220.21875 267.925781 221.242188 267.9375 222.210938 C 267.976562 225.457031 265.738281 226.820312 262.9375 225.261719 C 262.050781 224.765625 261.21875 224.039062 260.488281 223.171875 L 260.4375 223.199219 C 260.492188 223.265625 260.542969 223.324219 260.589844 223.378906 C 260.695312 223.5 260.847656 223.660156 260.957031 223.78125 Z M 260.957031 223.78125 "/>
<path style=" stroke:none;fill-rule:nonzero;fill:rgb(63.921571%,63.921571%,63.921571%);fill-opacity:1;" d="M 268.265625 223.96875 C 268.253906 223.96875 268.246094 223.96875 268.238281 223.964844 C 268.179688 223.949219 268.148438 223.894531 268.160156 223.835938 C 268.742188 221.605469 267.878906 218.832031 266.769531 217.074219 C 266.742188 217.023438 266.753906 216.957031 266.804688 216.929688 C 266.855469 216.898438 266.917969 216.910156 266.949219 216.960938 C 268.082031 218.757812 268.960938 221.59375 268.363281 223.890625 C 268.351562 223.9375 268.308594 223.96875 268.265625 223.96875 Z M 268.265625 223.96875 "/>
<path style=" stroke:none;fill-rule:nonzero;fill:rgb(63.921571%,63.921571%,63.921571%);fill-opacity:1;" d="M 269.636719 212.207031 C 269.527344 212.097656 269.378906 211.949219 269.265625 211.84375 C 269.140625 211.726562 268.96875 211.578125 268.839844 211.464844 C 268.699219 211.34375 268.503906 211.191406 268.351562 211.085938 C 268.121094 210.925781 267.808594 210.71875 267.566406 210.582031 C 267.511719 210.554688 267.449219 210.519531 267.382812 210.488281 L 262.453125 213.332031 C 262.566406 213.386719 262.679688 213.445312 262.792969 213.507812 C 263.570312 213.941406 264.308594 214.554688 264.972656 215.285156 L 269.867188 212.457031 C 269.792969 212.371094 269.714844 212.289062 269.636719 212.207031 Z M 269.636719 212.207031 "/>
<path style=" stroke:none;fill-rule:nonzero;fill:rgb(34.509805%,35.294119%,35.686275%);fill-opacity:1;" d="M 262.71875 213.460938 C 261.203125 212.617188 259.84375 212.597656 258.898438 213.25 C 258.371094 213.621094 248.296875 220.664062 244.476562 223.300781 C 245.238281 222.773438 246.332031 222.789062 247.550781 223.472656 C 249.894531 224.777344 251.820312 228.035156 251.851562 230.75 C 251.871094 232.207031 251.335938 233.214844 250.476562 233.628906 C 254.660156 231.613281 265.765625 226.347656 266.347656 226.070312 C 267.417969 225.558594 268.078125 224.308594 268.058594 222.496094 C 268.015625 219.128906 265.625 215.082031 262.71875 213.460938 Z M 262.71875 213.460938 "/>
<path style=" stroke:none;fill-rule:nonzero;fill:rgb(40.784314%,83.92157%,100%);fill-opacity:1;" d="M 247.550781 223.472656 C 246.332031 222.789062 245.238281 222.773438 244.476562 223.300781 C 243.628906 223.886719 243.28125 224.628906 243.152344 224.90625 C 243.074219 225.070312 242.996094 225.296875 242.941406 225.46875 C 242.898438 225.613281 242.855469 225.8125 242.824219 225.960938 C 242.804688 226.058594 242.785156 226.195312 242.777344 226.296875 C 242.757812 226.503906 242.746094 226.78125 242.742188 226.992188 C 242.746094 227.28125 242.765625 227.507812 242.804688 227.796875 C 242.847656 228.121094 242.914062 228.382812 242.957031 228.558594 C 243.09375 229.109375 243.34375 229.707031 243.480469 229.988281 C 243.53125 230.089844 243.59375 230.226562 243.648438 230.324219 C 243.707031 230.421875 243.777344 230.554688 243.835938 230.652344 C 243.890625 230.75 243.972656 230.875 244.035156 230.972656 C 244.15625 231.167969 244.3125 231.371094 244.476562 231.589844 C 244.480469 231.589844 244.699219 231.878906 244.980469 232.164062 C 245.226562 232.417969 245.335938 232.511719 245.550781 232.699219 C 245.777344 232.890625 245.957031 233.015625 246.207031 233.183594 C 246.339844 233.269531 246.527344 233.375 246.667969 233.449219 C 246.851562 233.542969 247.101562 233.652344 247.296875 233.726562 C 247.46875 233.789062 247.703125 233.863281 247.882812 233.898438 C 248.066406 233.933594 248.3125 233.980469 248.496094 233.992188 C 248.644531 234 248.839844 234 248.984375 234 C 249.074219 233.996094 249.191406 233.984375 249.28125 233.976562 C 249.414062 233.960938 249.585938 233.925781 249.714844 233.898438 C 249.800781 233.878906 249.910156 233.84375 249.996094 233.820312 C 250.144531 233.777344 250.335938 233.691406 250.476562 233.628906 C 251.335938 233.214844 251.871094 232.207031 251.851562 230.75 C 251.820312 228.035156 249.894531 224.777344 247.550781 223.472656 Z M 245.964844 232.1875 C 244.621094 231.4375 243.511719 229.5625 243.492188 228.003906 C 243.472656 226.441406 244.550781 225.785156 245.898438 226.535156 C 247.246094 227.285156 248.351562 229.160156 248.371094 230.722656 C 248.390625 232.28125 247.3125 232.941406 245.964844 232.1875 Z M 245.964844 232.1875 "/>
<path style=" stroke:none;fill-rule:nonzero;fill:rgb(40.784314%,83.92157%,100%);fill-opacity:1;" d="M 243.363281 228.4375 C 243.347656 227.15625 244.234375 226.617188 245.335938 227.230469 C 246.441406 227.847656 247.351562 229.386719 247.367188 230.667969 C 247.382812 231.945312 246.5 232.484375 245.394531 231.871094 C 244.289062 231.253906 243.378906 229.71875 243.363281 228.4375 Z M 243.363281 228.4375 "/>
<path style=" stroke:none;fill-rule:nonzero;fill:rgb(3.137255%,65.098041%,87.843138%);fill-opacity:1;" d="M 268.058594 222.496094 C 268.046875 221.695312 267.902344 220.851562 267.652344 220.015625 L 251.660156 229.246094 C 251.777344 229.757812 251.847656 230.261719 251.851562 230.75 C 251.871094 232.207031 251.335938 233.214844 250.476562 233.628906 C 254.660156 231.613281 265.765625 226.347656 266.347656 226.070312 C 267.417969 225.558594 268.078125 224.308594 268.058594 222.496094 Z M 268.058594 222.496094 "/>
<path style=" stroke:none;fill-rule:nonzero;fill:rgb(29.019609%,29.411766%,29.803923%);fill-opacity:1;" d="M 248.304688 233.105469 L 247.964844 233.300781 C 248.484375 233.003906 248.8125 232.367188 248.828125 231.457031 C 248.855469 229.609375 247.574219 227.335938 245.960938 226.378906 C 245.144531 225.894531 244.398438 225.839844 243.859375 226.148438 L 244.199219 225.957031 C 244.738281 225.644531 245.484375 225.699219 246.304688 226.183594 C 247.914062 227.140625 249.195312 229.414062 249.167969 231.261719 C 249.152344 232.171875 248.824219 232.808594 248.304688 233.105469 Z M 248.304688 233.105469 "/>
<path style=" stroke:none;fill-rule:nonzero;fill:rgb(38.82353%,39.607844%,40.000001%);fill-opacity:1;" d="M 245.859375 233.074219 C 244.25 232.117188 242.96875 229.84375 242.996094 227.996094 C 243.023438 226.148438 244.351562 225.421875 245.960938 226.378906 C 247.574219 227.335938 248.855469 229.609375 248.828125 231.457031 C 248.796875 233.304688 247.46875 234.03125 245.859375 233.074219 Z M 245.867188 232.625 C 247.261719 233.449219 248.410156 232.824219 248.433594 231.222656 C 248.457031 229.625 247.347656 227.65625 245.957031 226.828125 C 244.5625 226 243.414062 226.628906 243.390625 228.226562 C 243.363281 229.828125 244.472656 231.796875 245.867188 232.625 Z M 245.867188 232.625 "/>
<path style=" stroke:none;fill-rule:nonzero;fill:rgb(50.196081%,51.764709%,52.156866%);fill-opacity:1;" d="M 244.464844 233.3125 C 244.410156 233.273438 244.332031 233.230469 244.277344 233.191406 C 244.210938 233.144531 244.125 233.082031 244.0625 233.03125 C 243.949219 232.945312 243.804688 232.816406 243.703125 232.71875 C 243.585938 232.605469 243.46875 232.476562 243.351562 232.335938 C 243.203125 232.160156 243.097656 232.011719 243.035156 231.925781 C 243.015625 231.890625 242.894531 231.71875 242.761719 231.484375 C 242.675781 231.335938 242.597656 231.179688 242.527344 231.023438 C 242.457031 230.863281 242.394531 230.710938 242.339844 230.550781 C 242.292969 230.410156 242.238281 230.21875 242.203125 230.074219 C 242.195312 230.054688 242.148438 229.847656 242.117188 229.601562 C 242.09375 229.417969 242.09375 229.351562 242.085938 229.132812 C 242.085938 229.0625 242.09375 228.964844 242.097656 228.890625 C 242.101562 228.832031 242.113281 228.757812 242.117188 228.699219 C 242.125 228.625 242.144531 228.527344 242.164062 228.453125 C 242.191406 228.363281 242.222656 228.238281 242.261719 228.152344 C 242.277344 228.113281 242.296875 228.058594 242.320312 228.019531 C 242.355469 227.949219 242.410156 227.851562 242.457031 227.78125 C 242.492188 227.730469 242.546875 227.660156 242.589844 227.609375 C 242.613281 227.582031 242.648438 227.546875 242.675781 227.519531 C 242.71875 227.480469 242.777344 227.429688 242.824219 227.394531 C 242.867188 227.363281 242.929688 227.324219 242.980469 227.292969 C 243.445312 227.027344 244.089844 227.070312 244.796875 227.492188 C 246.191406 228.320312 247.300781 230.289062 247.277344 231.886719 C 247.265625 232.675781 246.980469 233.226562 246.53125 233.484375 C 246.464844 233.519531 246.375 233.5625 246.308594 233.589844 C 246.253906 233.609375 246.179688 233.632812 246.125 233.648438 C 246.050781 233.664062 245.945312 233.683594 245.867188 233.6875 C 245.828125 233.691406 245.710938 233.699219 245.578125 233.6875 C 245.496094 233.683594 245.386719 233.667969 245.304688 233.648438 C 245.207031 233.628906 245.078125 233.589844 244.980469 233.554688 C 244.894531 233.527344 244.789062 233.480469 244.707031 233.441406 C 244.632812 233.40625 244.539062 233.351562 244.464844 233.3125 C 244.40625 233.273438 244.367188 233.199219 244.371094 233.089844 Z M 244.464844 233.3125 "/>
<path style=" stroke:none;fill-rule:nonzero;fill:rgb(57.647061%,59.215689%,59.607846%);fill-opacity:1;" d="M 247.6875 232.820312 L 246.53125 233.484375 C 246.980469 233.226562 247.265625 232.675781 247.277344 231.886719 C 247.300781 230.289062 246.191406 228.320312 244.796875 227.492188 C 244.089844 227.074219 243.445312 227.027344 242.980469 227.296875 L 244.136719 226.632812 C 244.601562 226.363281 245.25 226.410156 245.957031 226.828125 C 247.347656 227.65625 248.460938 229.625 248.433594 231.222656 C 248.421875 232.011719 248.136719 232.5625 247.6875 232.820312 Z M 247.6875 232.820312 "/>
<path style=" stroke:none;fill-rule:nonzero;fill:rgb(63.137257%,64.705884%,65.098041%);fill-opacity:1;" d="M 247.503906 232.925781 C 247.519531 232.917969 247.53125 232.910156 247.546875 232.902344 L 246.660156 233.410156 C 246.941406 233.25 247.222656 233.085938 247.503906 232.925781 Z M 246.847656 233.253906 C 246.832031 233.269531 246.832031 233.269531 246.828125 233.277344 C 246.835938 233.28125 246.839844 233.28125 246.894531 233.25 L 247.679688 232.800781 C 247.6875 232.796875 247.875 232.6875 247.894531 232.636719 C 247.894531 232.632812 247.890625 232.632812 247.890625 232.632812 C 247.878906 232.632812 247.867188 232.632812 247.824219 232.660156 L 247.039062 233.109375 C 246.945312 233.164062 246.867188 233.230469 246.847656 233.253906 Z M 247.105469 232.898438 C 247.085938 232.9375 247.09375 232.953125 247.128906 232.941406 C 247.144531 232.9375 247.160156 232.929688 247.171875 232.921875 L 247.957031 232.472656 C 248.089844 232.390625 248.175781 232.273438 248.132812 232.253906 C 248.113281 232.246094 248.074219 232.265625 248.058594 232.273438 L 247.277344 232.722656 C 247.175781 232.78125 247.117188 232.867188 247.105469 232.898438 Z M 247.269531 232.429688 C 247.257812 232.496094 247.292969 232.515625 247.363281 232.480469 L 248.148438 232.03125 C 248.289062 231.941406 248.351562 231.773438 248.269531 231.761719 C 248.242188 231.757812 248.21875 231.769531 248.203125 231.777344 L 247.417969 232.230469 C 247.332031 232.285156 247.28125 232.378906 247.269531 232.429688 Z M 247.335938 231.855469 C 247.335938 231.9375 247.382812 231.96875 247.453125 231.929688 L 248.238281 231.480469 C 248.375 231.390625 248.40625 231.191406 248.3125 231.167969 C 248.28125 231.164062 248.257812 231.175781 248.242188 231.183594 L 247.457031 231.632812 C 247.371094 231.6875 247.335938 231.796875 247.335938 231.855469 Z M 247.289062 231.214844 C 247.308594 231.304688 247.363281 231.335938 247.433594 231.300781 L 248.21875 230.851562 C 248.351562 230.761719 248.351562 230.550781 248.242188 230.523438 C 248.210938 230.515625 248.183594 230.53125 248.167969 230.539062 L 247.386719 230.988281 C 247.296875 231.042969 247.28125 231.152344 247.289062 231.214844 Z M 247.140625 230.558594 C 247.171875 230.648438 247.234375 230.679688 247.308594 230.644531 L 248.089844 230.195312 C 248.226562 230.109375 248.195312 229.894531 248.074219 229.867188 C 248.039062 229.859375 248.011719 229.871094 247.996094 229.878906 L 247.210938 230.328125 C 247.117188 230.390625 247.125 230.503906 247.140625 230.558594 Z M 246.894531 229.902344 C 246.941406 229.992188 247.011719 230.023438 247.085938 229.988281 L 247.871094 229.539062 C 248.003906 229.449219 247.945312 229.242188 247.816406 229.214844 C 247.773438 229.207031 247.75 229.21875 247.734375 229.226562 L 246.949219 229.679688 C 246.855469 229.738281 246.875 229.851562 246.894531 229.902344 Z M 246.566406 229.257812 C 246.621094 229.34375 246.699219 229.375 246.773438 229.335938 L 247.558594 228.886719 C 247.683594 228.804688 247.613281 228.613281 247.484375 228.582031 C 247.433594 228.570312 247.398438 228.585938 247.382812 228.59375 L 246.601562 229.042969 C 246.507812 229.105469 246.535156 229.210938 246.566406 229.257812 Z M 246.167969 228.671875 C 246.234375 228.75 246.320312 228.773438 246.394531 228.734375 L 247.175781 228.285156 C 247.300781 228.203125 247.214844 228.027344 247.074219 228.003906 C 247.023438 227.992188 246.988281 228.011719 246.972656 228.019531 L 246.1875 228.46875 C 246.097656 228.527344 246.136719 228.625 246.167969 228.671875 Z M 245.714844 228.144531 C 245.789062 228.210938 245.878906 228.230469 245.953125 228.191406 L 246.738281 227.742188 C 246.855469 227.667969 246.769531 227.519531 246.628906 227.492188 C 246.5625 227.480469 246.523438 227.5 246.507812 227.511719 L 245.722656 227.960938 C 245.632812 228.019531 245.679688 228.105469 245.714844 228.144531 Z M 245.214844 227.699219 C 245.292969 227.753906 245.386719 227.765625 245.460938 227.726562 L 246.246094 227.277344 C 246.351562 227.210938 246.28125 227.097656 246.152344 227.070312 C 246.097656 227.058594 246.042969 227.0625 245.996094 227.089844 L 245.210938 227.539062 C 245.121094 227.597656 245.171875 227.671875 245.214844 227.699219 Z M 244.679688 227.359375 C 244.757812 227.398438 244.859375 227.398438 244.929688 227.359375 L 245.714844 226.910156 C 245.804688 226.851562 245.761719 226.777344 245.667969 226.753906 C 245.640625 226.746094 245.550781 226.730469 245.457031 226.777344 L 244.675781 227.230469 C 244.585938 227.285156 244.636719 227.339844 244.679688 227.359375 Z M 244.160156 227.160156 C 244.238281 227.175781 244.332031 227.160156 244.40625 227.125 L 245.1875 226.671875 C 245.273438 226.621094 245.242188 226.582031 245.191406 226.566406 C 245.140625 226.554688 245.042969 226.5625 244.949219 226.609375 L 244.164062 227.058594 C 244.054688 227.128906 244.148438 227.15625 244.160156 227.160156 Z M 243.683594 227.09375 C 243.734375 227.09375 243.828125 227.074219 243.917969 227.027344 L 244.699219 226.578125 C 244.796875 226.519531 244.734375 226.503906 244.734375 226.503906 C 244.691406 226.496094 244.585938 226.523438 244.480469 226.578125 L 243.699219 227.027344 C 243.617188 227.074219 243.640625 227.089844 243.664062 227.09375 C 243.667969 227.09375 243.675781 227.09375 243.683594 227.09375 Z M 243.253906 227.164062 C 243.273438 227.15625 243.375 227.121094 243.476562 227.0625 L 244.261719 226.613281 C 244.304688 226.589844 244.308594 226.582031 244.320312 226.574219 C 244.316406 226.570312 244.316406 226.566406 244.3125 226.566406 C 244.257812 226.574219 244.125 226.648438 244.070312 226.679688 L 243.285156 227.128906 C 243.242188 227.15625 243.234375 227.160156 243.226562 227.167969 C 243.234375 227.171875 243.234375 227.171875 243.253906 227.164062 Z M 243.253906 227.164062 "/>
<path style=" stroke:none;fill-rule:nonzero;fill:rgb(27.058825%,27.450982%,27.843139%);fill-opacity:1;" d="M 244.214844 232.503906 C 243.339844 231.984375 242.644531 230.746094 242.660156 229.742188 C 242.675781 228.738281 243.394531 228.347656 244.269531 228.863281 C 245.144531 229.382812 245.84375 230.621094 245.828125 231.625 C 245.8125 232.628906 245.089844 233.023438 244.214844 232.503906 Z M 244.214844 232.503906 "/>
<path style=" stroke:none;fill-rule:nonzero;fill:rgb(34.509805%,35.294119%,35.686275%);fill-opacity:1;" d="M 241.34375 230.640625 C 242.371094 230.1875 243.554688 232.21875 242.914062 233.007812 C 242.066406 233.519531 240.570312 231.265625 241.34375 230.640625 Z M 241.34375 230.640625 "/>
<path style=" stroke:none;fill-rule:nonzero;fill:rgb(3.137255%,65.098041%,87.843138%);fill-opacity:1;" d="M 241.34375 230.640625 L 243.113281 229.664062 C 243.800781 229.292969 244.503906 229.605469 244.875 230.292969 C 245.066406 230.644531 245.128906 231.023438 245.054688 231.363281 C 244.988281 231.6875 244.792969 231.972656 244.457031 232.152344 L 242.914062 233.007812 C 243.554688 232.21875 242.371094 230.1875 241.34375 230.640625 Z M 241.34375 230.640625 "/>
<path style=" stroke:none;fill-rule:nonzero;fill:rgb(34.509805%,35.294119%,35.686275%);fill-opacity:1;" d="M 239.558594 232.738281 L 241.277344 230.738281 L 242.703125 233.078125 L 239.914062 233.359375 Z M 239.558594 232.738281 "/>
<path style=" stroke:none;fill-rule:nonzero;fill:rgb(67.843139%,87.058824%,94.117647%);fill-opacity:1;" d="M 275.363281 225.097656 L 269.4375 225.097656 C 269.5 225.316406 268.3125 227.035156 266.550781 227.871094 C 264.269531 228.953125 262.960938 229.121094 262.71875 229.5 C 260.890625 231.238281 266.597656 233.496094 267.167969 233.851562 C 269.296875 235.171875 273.101562 234.148438 274.84375 233.355469 C 276.402344 232.640625 277.605469 230.882812 278.339844 229.539062 C 277.417969 228.0625 276.53125 226.546875 275.363281 225.097656 Z M 275.363281 225.097656 "/>
</g>
</svg>
